<?xml version="1.0" encoding="utf-8"?>
<!-- Generator: Adobe Illustrator 22.0.1, SVG Export Plug-In . SVG Version: 6.00 Build 0)  -->
<svg version="1.1" id="Layer_1" xmlns="http://www.w3.org/2000/svg" xmlns:xlink="http://www.w3.org/1999/xlink" x="0px" y="0px"
	 viewBox="0 0 299.99951 178.99992" enable-background="new 0 0 299.99951 178.99992" xml:space="preserve">
<g id="Layer_x0020_1">
	<g>
		<path fill="#FFFFFF" d="M243.91309,96.74512c-5.28027,0-10.44531-0.58887-15.35059-1.75
			c-5.48633-1.31738-9.24609-2.61719-11.84473-4.09473c-2.47754-1.42627-3.89453-2.79639-4.58691-4.43359
			c-0.58887-1.28223-0.875-2.64746-0.875-4.16895v-4.66504c0-4.71484,3.09277-6.8252,6.15723-6.8252
			c1.11035,0,2.13867,0.16992,3.05762,0.50537c0.5791,0.21143,1.51855,0.56396,2.53027,0.98633
			c3.0752,1.33838,6.27051,2.33545,9.55371,2.9873c3.65039,0.69824,7.04395,1.04053,10.34766,1.04053
			c5.18262,0,9.06055-0.80322,11.52637-2.3877c2.08594-1.34082,3.0166-2.97803,3.0166-5.30811
			c0-1.47656-0.43457-2.57568-1.41016-3.56445c-0.67773-0.68701-2.59277-2.08496-7.79492-3.72461l-13.50195-4.05811
			c-7.74023-2.38916-13.45605-6.00732-17.01953-10.76221c-3.60547-4.6582-5.45215-9.92529-5.45215-15.60547
			c0-4.51514,1.04492-8.59717,3.10645-12.1333c2.04688-3.50684,4.69238-6.44141,7.86328-8.72266
			c3.24707-2.41113,6.84668-4.16699,10.95508-5.33154C238.1084,3.56982,242.33984,3,247.08301,3
			c1.91797,0,4.4209,0.04932,6.83203,0.43311c1.62598,0.20068,3.11035,0.46387,4.54688,0.71875
			c0.54395,0.09668,1.08398,0.19238,1.62402,0.2832l0.14258,0.02393l0.1416,0.03467c2.26758,0.55273,3.98535,1.01904,5.56934,1.5127
			c1.71289,0.53418,3.28223,1.1958,4.66699,1.9668c1.91602,1.08105,3.22754,2.18311,4.14746,3.47852
			c1.05273,1.40674,1.61523,3.22949,1.61523,5.33838v4.271c0,4.76025-3.09277,6.89111-6.1582,6.89111
			c-1.34863,0-2.90527-0.43799-5.2041-1.46484c-4.78125-2.12256-10.29199-3.20068-16.37305-3.20068
			c-5.81348,0-8.88867,1.09229-10.44434,2.00879c-1.19336,0.70313-2.41309,1.81152-2.41309,4.70117
			c0,1.46191,0.48438,2.56934,1.57031,3.58936c0.67871,0.61328,3.00293,2.34375,8.7373,4.08105l13.31543,4.14893
			c7.66699,2.39063,13.05371,5.69727,16.46973,10.10889c3.41895,4.41602,5.15234,9.52881,5.15234,15.19531
			c0,4.44141-0.95996,8.60449-2.85254,12.37354l-0.06348,0.12256c-2.05762,3.76758-4.70898,6.88525-7.87988,9.26758
			c-3.20996,2.53613-7.03906,4.43164-11.7041,5.7959c-4.72949,1.38867-9.48828,2.06543-14.54102,2.06543H243.91309z
			 M44.31934,96.48242c-8.96582,0-16.20459-2.58594-21.51611-7.68555c-5.42432-5.20703-8.1748-12.08008-8.1748-20.42822
			c0-9.00195,3.3418-16.35742,9.93213-21.86182c6.54932-5.40527,14.88135-8.02588,25.49023-8.02588
			c3.21338,0,6.62939,0.24805,10.44287,0.75781c1.91406,0.25635,3.9375,0.59668,6.2583,1.05713V38.604
			c0-5.72559-1.06787-9.66895-3.17432-11.72168c-2.09766-1.99707-6.41357-3.06982-12.44775-3.06982
			c-2.98877,0-6.09131,0.36377-9.2207,1.08154c-3.5459,0.88135-6.67578,1.8335-9.49609,2.89404
			c-1.6333,0.71484-2.93115,1.09424-3.63574,1.30029c-1.03174,0.30176-1.88477,0.44043-2.66406,0.44043
			c-2.96436,0-5.95557-2.11035-5.95557-6.8252v-4.46826c0-2.43555,0.45313-4.20068,1.42676-5.5542
			c0.8833-1.22998,2.15576-2.20703,4.125-3.1665c3.54639-1.76318,7.79736-3.2583,12.60596-4.42969
			c4.73535-1.22217,9.84863-1.82227,15.5791-1.82227c12.07764,0,21.25537,2.86182,27.2793,8.50586
			c5.99805,5.7666,9.02002,14.29688,9.02002,25.39014v29.37012H90.396c0,2.63477,0.28809,5.07715,0.8125,6.896
			c0.72607,1.97559,1.58398,3.87451,2.61865,5.79688c0.7998,1.28662,1.22168,2.70947,1.22168,4.12744
			c0,1.55957-0.5791,3.85742-3.3374,5.94775l-0.12354,0.09375l-6.17041,3.96094c-1.62061,0.9707-3.04541,1.42285-4.4834,1.42285
			c-1.85059,0-3.66602-0.7334-5.39648-2.17871l-0.19434-0.16211l-0.17236-0.18555c-1.45654-1.56934-2.73145-3.18604-3.78955-4.80615
			l-0.08301-0.13281c-0.1499-0.25049-0.29688-0.49902-0.44141-0.74707C63.50146,93.14941,54.59863,96.48242,44.31934,96.48242z
			 M53.55713,57.19092c-5.36768,0-9.11279,0.91455-11.4502,2.79541c-2.13867,1.72168-3.09277,4.00342-3.09277,7.39648
			c0,3.15186,0.71533,5.36084,2.18701,6.75195l0.12646,0.12549c1.38867,1.43457,3.66846,2.13232,6.97021,2.13232
			c2.78564,0,5.52832-0.4707,8.45166-1.43945c2.66016-0.88135,5.07617-2.47021,7.18164-4.72266
			c1.15283-1.34033,1.91455-2.7334,2.26465-4.14111c0.54834-2.20313,0.82617-4.55322,0.82617-6.98535V58.5127
			c-1.64307-0.3208-3.36475-0.59814-5.14648-0.82959C59.37842,57.35156,56.66113,57.19092,53.55713,57.19092z M171.49316,94.31445
			c-1.74414,0-4.29492-0.18848-6.29883-1.81543l-0.12988-0.11133c-1.04492-0.92578-2.40918-2.68506-3.01074-5.82471
			l-10.58203-42.97266L140.92041,86.5376c-0.47998,1.87402-1.24365,4.17725-2.98535,5.72021
			c-1.14648,1.01563-2.6875,1.62207-4.68066,1.83691l0.09082,0.08789l-9.79492,0.06543c-1.69385,0-4.14502-0.18945-6.07178-1.79297
			c-1.37256-1.05664-2.44434-2.8501-3.27197-5.47021L92.21973,16.40283c-0.70166-2.38965-1.05762-3.66016-1.05762-4.86914
			c0-3.70947,2.56006-6.2998,6.2251-6.2998h9.17041c1.78369,0,4.33398,0.19678,6.20752,1.84668
			c1.55811,1.23535,2.32568,3.12793,3.09082,5.28271l0.05811,0.16357l11.74609,45.14307l10.88281-44.90967
			c0.55127-2.14844,1.36572-4.47852,3.32764-5.86963c1.50879-1.06885,3.6709-1.65674,6.08936-1.65674h7.48438
			c1.71777,0,4.21582,0.18213,6.2041,1.73975c2.07422,1.54639,2.91113,4.29053,3.23145,5.86523l11.03906,45.72461l12.16699-45.98584
			c0.77441-2.64209,1.84277-4.46631,3.26563-5.57715l0.14941-0.11133c1.53027-1.08301,3.58887-1.65527,5.95313-1.65527h8.69824
			c3.74512,0,6.36035,2.59033,6.36035,6.2998c0,0.71338-0.08887,1.44043-0.27246,2.21484
			c-0.12891,0.80371-0.38965,1.70117-0.8291,2.85547l-22.55469,70.46143c-0.77441,2.64258-1.91406,4.50293-3.4541,5.59375
			c-1.52637,1.08203-3.56152,1.65527-5.88477,1.65527H171.49316z"/>
		<path fill="#FFFFFF" d="M147.48779,175c-52.88135,0-103.27148-18.74219-141.88818-52.77441
			c-2.34619-2.07324-3.18652-4.98145-2.19775-7.59277c0.92627-2.44727,3.27881-4.02832,5.99268-4.02832
			c1.36084,0,2.76416,0.4043,4.05762,1.1709c40.45313,22.88672,89.25244,35.5127,137.33984,35.5127
			c34.81152,0,71.99316-7.39941,104.69824-20.83496c1.29492-0.57031,2.63184-0.85938,3.97461-0.85938
			c3.69727,0,6.90332,2.21875,7.97754,5.52246c1.08105,3.32324-0.26367,6.85352-3.50977,9.21387l-6.35254,4.62109v-0.38281
			C228.00293,163.45801,186.61719,175,147.48779,175z M267.52539,163.80859c-1.94922,0-3.65234-0.88477-4.67285-2.42773
			c-1.09375-1.65527-1.20313-3.82031-0.2998-5.94238c9.81836-23.58008,9.19629-29.01855,8.69043-30.18262
			c-0.2627-0.18359-2.26465-1.39355-10.32715-1.39355c-7.68457,0-17.08301,1.10547-22.13184,1.7002
			c-0.31738,0.04297-0.69043,0.06836-1.05078,0.06836c-2.73145,0-4.90234-1.45508-5.66797-3.79688
			c-0.86328-2.64453,0.34277-5.56152,3.14941-7.61328l0.10352-0.07324c11.47266-7.83789,25.96191-9.00781,33.57715-9.00781
			c7.99707,0,18.46777,1.36914,21.66016,5.22754c1.3623,1.72461,1.99707,4.21191,1.99707,7.6748v0.13086
			c0,11.33887-6.1875,32.37402-19.94238,43.63477C271.0166,163.11523,269.25781,163.80859,267.52539,163.80859z"/>
	</g>
	<g>
		<path fill="#252F3E" d="M86.39599,66.52885c0,3.35096,0.40459,6.11057,1.01146,8.14744
			c0.74174,2.03686,1.68576,4.20512,2.96694,6.57051c0.47202,0.72276,0.6743,1.44551,0.6743,2.10256
			c0,0.91988-0.53944,1.83974-1.75319,2.75961l-5.93388,3.8109c-0.8766,0.52564-1.68577,0.85417-2.4275,0.85417
			c-0.94403,0-1.88805-0.45994-2.83208-1.2484c-1.28117-1.37981-2.42749-2.82533-3.37152-4.27084
			c-0.94402-1.57692-1.88805-3.28526-2.89951-5.38782c-7.28249,8.41026-16.45303,12.61538-27.51163,12.61538
			c-7.88936,0-14.16039-2.16827-18.74566-6.57051s-6.94534-10.25-6.94534-17.54327c0-7.75321,2.83208-14.0609,8.49624-18.79167
			c5.73159-4.73077,13.2838-7.09615,22.92635-7.09615c3.16923,0,6.47332,0.26282,9.91228,0.72276s7.01276,1.18269,10.78887,2.03686
			v-6.63622c0-6.96474-1.48347-11.76122-4.38298-14.58654c-2.96694-2.82532-8.02422-4.20513-15.23928-4.20513
			c-3.30409,0-6.67562,0.39423-10.11457,1.18269c-3.43895,0.85417-6.81048,1.83974-10.11457,3.08814
			c-1.48347,0.65705-2.62979,0.98558-3.30409,1.18269s-1.14632,0.26282-1.48347,0.26282c-1.28118,0-1.95548-0.91987-1.95548-2.82532
			v-4.46795c0-1.44551,0.20229-2.5625,0.6743-3.21955s1.28118-1.2484,2.62979-1.90545
			c3.30409-1.64263,7.21506-3.02244,11.80033-4.13942c4.58527-1.18269,9.44026-1.70833,14.63241-1.70833
			c11.12602,0,19.28511,2.49679,24.54469,7.42468c5.12471,4.92789,7.7545,12.41827,7.7545,22.47115v29.56731h0.20229V66.52885z
			 M48.36522,80.39263c3.1018,0,6.27103-0.52564,9.64256-1.64263c3.37152-1.11699,6.33846-3.08814,8.90082-5.84776
			c1.48347-1.70834,2.62978-3.67949,3.16923-5.84776c0.53944-2.16827,0.94403-4.86218,0.94403-7.95032v-3.8109
			c-2.69722-0.65705-5.59673-1.18269-8.6311-1.57692c-2.96694-0.39423-5.93388-0.52564-8.83339-0.52564
			c-6.27103,0-10.8563,1.18269-13.9581,3.67949c-3.1018,2.49679-4.58527,5.91346-4.58527,10.51282
			c0,4.27084,1.14632,7.49039,3.43895,9.65865c2.2252,2.29968,5.5293,3.35097,9.84484,3.35097H48.36522z M123.55017,90.2484
			c-1.68576,0-2.83208-0.26282-3.57381-0.91987c-0.74174-0.52564-1.41604-1.83974-1.95548-3.54808L96.03854,15.21314
			c-0.53944-1.83974-0.87659-3.02244-0.87659-3.67949c0-1.44551,0.74174-2.29968,2.2252-2.29968h9.17054
			c1.7532,0,2.96694,0.26282,3.64125,0.91987c0.74173,0.52564,1.28117,1.83974,1.88805,3.54808l15.7113,60.38301l14.63241-60.38301
			c0.47202-1.83974,1.01146-3.02244,1.75319-3.54808c0.74174-0.52564,2.09035-0.91987,3.77611-0.91987h7.48479
			c1.75319,0,2.96693,0.26282,3.77611,0.91987c0.74173,0.52564,1.41603,1.83974,1.75319,3.54808l14.76726,61.17147
			l16.18332-61.17147c0.53944-1.83974,1.21375-3.02244,1.88805-3.54808c0.74173-0.52564,1.95549-0.91987,3.64125-0.91987h8.69852
			c1.48347,0,2.36008,0.72276,2.36008,2.29968c0,0.45994-0.06743,0.91987-0.2023,1.44551
			c-0.06743,0.52564-0.26971,1.2484-0.6743,2.29968l-22.5892,70.56731c-0.53944,1.83974-1.21375,3.02244-1.95547,3.54808
			c-0.74174,0.52563-1.95549,0.91987-3.57382,0.91987h-8.02422c-1.75319,0-2.96695-0.26282-3.77611-0.91987
			c-0.74173-0.65705-1.41605-1.83974-1.75319-3.67949l-14.49756-58.8718l-14.43011,58.74039
			c-0.472,1.83974-1.01144,3.02243-1.75319,3.67948c-0.74173,0.65705-2.09035,0.91988-3.77611,0.91988h-8.02422L123.55017,90.2484z
			 M243.91353,92.74519c-4.855,0-9.70999-0.52564-14.43011-1.64263c-4.65271-1.11698-8.36137-2.29967-10.78888-3.67948
			c-1.48347-0.85417-2.56236-1.70834-2.89951-2.5625c-0.40459-0.85417-0.53944-1.70834-0.53944-2.5625v-4.66507
			c0-1.90545,0.74173-2.82532,2.15778-2.82532c0.53944,0,1.14632,0.0657,1.68576,0.26282
			c0.53944,0.19712,1.41603,0.52564,2.36006,0.91988c3.16924,1.37981,6.67561,2.4968,10.31686,3.21955
			c3.77611,0.72276,7.41734,1.11698,11.12602,1.11698c5.93388,0,10.51915-0.98557,13.68839-3.02243
			c3.16922-2.03686,4.85498-4.92789,4.85498-8.67308c0-2.5625-0.87659-4.66506-2.56235-6.37339
			c-1.68576-1.70834-4.855-3.28526-9.44026-4.73077l-13.55353-4.07372c-6.81047-2.10257-11.86775-5.1907-14.96956-9.33013
			c-3.10179-4.00801-4.65269-8.47596-4.65269-13.20673c0-3.8109,0.87659-7.22756,2.56235-10.11859s3.91096-5.45353,6.74306-7.49038
			c2.83208-2.10256,6.0013-3.67949,9.70998-4.73077C239.05853,7.45994,242.9695,7,247.08275,7
			c2.09035,0,4.24812,0.06571,6.27104,0.39423c2.15778,0.26282,4.11325,0.65705,6.06873,0.98558
			c1.88806,0.45994,3.64127,0.91987,5.32703,1.44551c1.68576,0.52564,2.96692,1.11699,3.91095,1.64263
			c1.28119,0.72276,2.22522,1.44551,2.83209,2.29968c0.53943,0.72276,0.87659,1.70833,0.87659,3.02244v4.27083
			c0,1.90545-0.74173,2.89103-2.15778,2.89103c-0.74173,0-1.95547-0.39423-3.57382-1.11699
			c-5.327-2.36539-11.32831-3.54808-18.00392-3.54808c-5.327,0-9.57512,0.85417-12.47462,2.5625
			c-2.89952,1.70833-4.38298,4.40224-4.38298,8.14744c0,2.5625,0.94402,4.73077,2.83208,6.50481
			c1.88805,1.70833,5.32701,3.48237,10.31686,4.99359l13.28378,4.13942c6.74304,2.10256,11.59805,4.99359,14.49756,8.73878
			s4.31555,8.01603,4.31555,12.7468c0,3.94231-0.87659,7.49039-2.42749,10.57852c-1.68576,3.08814-3.91098,5.84776-6.81049,8.01603
			c-2.89951,2.29967-6.33847,3.94231-10.38428,5.125c-4.24814,1.2484-8.6311,1.90545-13.41867,1.90545H243.91353z"/>
		<path fill="#FF9900" d="M261.58029,137.03044C230.76459,159.17308,185.99077,171,147.48798,171
			C93.54362,171,44.92627,151.55128,8.2441,119.22436c-2.89951-2.5625-0.26972-6.04487,3.16923-4.00801
			c39.71654,22.47115,88.67104,36.07212,139.37874,36.07212c34.18724,0,71.746-6.96475,106.2704-21.15706
			c5.12469-2.29967,9.5751,3.28526,4.51782,6.96475V137.03044z M274.39209,122.77244
			c-3.91098-4.92789-26.02815-2.36539-36.07529-1.18269c-2.96695,0.39423-3.43896-2.16827-0.74174-4.13943
			c17.59935-12.02403,46.52702-8.60737,49.89854-4.53365c0.67429,0.85417,1.07889,2.6282,1.07889,5.125v0.13142
			c0,9.85576-5.39444,29.83012-18.47595,40.54005c-2.56235,2.10257-4.98984,0.98558-3.84354-1.70833
			C270.00909,147.9375,278.30304,127.63461,274.39209,122.77244z"/>
	</g>
</g>
</svg>
