<?xml version="1.0" encoding="utf-8"?>
<!-- Generator: Adobe Illustrator 22.0.1, SVG Export Plug-In . SVG Version: 6.00 Build 0)  -->
<svg version="1.1" id="Layer_1" xmlns="http://www.w3.org/2000/svg" xmlns:xlink="http://www.w3.org/1999/xlink" x="0px" y="0px"
	 viewBox="0 0 256 512" style="enable-background:new 0 0 256 512;" xml:space="preserve">
<style type="text/css">
	.st0{fill:url(#SVGID_1_);}
	.st1{fill:url(#SVGID_2_);}
	.st2{fill:url(#SVGID_3_);}
	.st3{fill:url(#SVGID_4_);}
	.st4{fill:url(#SVGID_5_);}
	.st5{fill:url(#SVGID_6_);}
	.st6{fill:url(#SVGID_7_);}
	.st7{display:none;}
	.st8{display:inline;fill:#FFFDFE;}
	.st9{fill:#FFFDFE;}
	.st10{display:inline;fill:#FFFFFF;}
</style>
<g>
	
		<linearGradient id="SVGID_1_" gradientUnits="userSpaceOnUse" x1="-349.1033" y1="4.705" x2="-347.667" y2="4.268" gradientTransform="matrix(74.7863 0 0 68.3524 26301.1543 -277.5231)">
		<stop  offset="0" style="stop-color:#F69923"/>
		<stop  offset="0.3123" style="stop-color:#F79A23"/>
		<stop  offset="0.8383" style="stop-color:#E97826"/>
	</linearGradient>
	<path class="st0" d="M218,2.9c-8,4.7-21.3,18.1-37.3,37.6v1.2l13.9,25.8l0.7,0.5c10.3-14.6,20.6-27.9,31.2-39.1
		c0.8-0.9,1.2-1.3,1.2-1.3c-0.4,0.4-0.8,0.9-1.2,1.3c-3.4,3.8-13.7,15.7-29.3,39.6l1.8,0.4c0,0,36.4-3.6,53.9-6.6l1-0.9
		c5.6-31.3-5.5-45.6-5.5-45.6S234.6-6.8,218,2.9z"/>
	
		<linearGradient id="SVGID_2_" gradientUnits="userSpaceOnUse" x1="-351.4197" y1="6.2152" x2="-348.4958" y2="2.407" gradientTransform="matrix(74.4093 0 0 122.5214 26107.9316 -237.6592)">
		<stop  offset="0.3233" style="stop-color:#9E2064"/>
		<stop  offset="0.6302" style="stop-color:#C92037"/>
		<stop  offset="0.7514" style="stop-color:#CD2335"/>
		<stop  offset="1" style="stop-color:#E97826"/>
	</linearGradient>
	<path class="st1" d="M152.4,139.2c4.5-8.3,9-16.4,13.4-24.3c4.7-8.2,9.5-16.1,14.3-23.8c0.3-0.4,0.6-0.9,0.8-1.4
		c4.8-7.6,9.6-14.7,14.4-21.7l-14.6-27.6c-1.1,1.3-2.2,2.7-3.3,4.1c-4.2,5.3-8.6,10.9-13,16.8c-5.1,6.8-10.3,13.9-15.5,21.5
		c-4.9,7-9.9,14.3-14.7,21.8c-4.2,6.5-8.5,13-12.7,19.9c-0.2,0.3-0.3,0.5-0.5,0.8v1.1l18.2,36.2l0.8,0.3
		C144.1,154.9,148.2,146.9,152.4,139.2z"/>
	
		<linearGradient id="SVGID_3_" gradientUnits="userSpaceOnUse" x1="-351.1177" y1="2.9838" x2="-348.8549" y2="0.8367" gradientTransform="matrix(96.1245 0 0 217.2513 33718.0039 -152.6893)">
		<stop  offset="0.3233" style="stop-color:#9E2064"/>
		<stop  offset="0.6302" style="stop-color:#C92037"/>
		<stop  offset="0.7514" style="stop-color:#CD2335"/>
		<stop  offset="1" style="stop-color:#E97826"/>
	</linearGradient>
	<path class="st2" d="M73,316.2c3.3-8.6,6.8-17.2,10.3-26c3.4-8.4,6.8-16.8,10.4-25.3c3.5-8.5,7.2-16.9,10.9-25.5
		c3.8-8.7,7.6-17.3,11.5-25.9c3.9-8.5,7.8-16.9,11.8-25.3c1.4-3,2.9-6.1,4.4-9.1c2.5-5.2,5.1-10.4,7.6-15.4c0.1-0.3,0.3-0.5,0.4-0.8
		l-19-37.6c-0.3,0.5-0.6,1-0.9,1.5c-4.4,7.3-8.9,14.6-13.1,22.2c-4.4,7.7-8.7,15.4-12.8,23.3c-3.6,6.7-7,13.3-10.4,20.1
		c-0.7,1.4-1.3,2.7-2,4.1c-4.2,8.6-7.9,16.7-11.3,24.7c-3.8,9-7.2,17.5-10.2,25.7c-2,5.4-3.7,10.5-5.4,15.4
		c-1.3,4.2-2.6,8.5-3.8,12.7c-2.9,10-5.3,19.8-7.3,29.8l0.3,1.2l18.2,36.3l0.6,0.3c2.5-6.8,5.1-13.5,7.8-20.5
		C71.5,320,72.3,318.2,73,316.2z"/>
	
		<linearGradient id="SVGID_4_" gradientUnits="userSpaceOnUse" x1="-348.5065" y1="2.12" x2="-346.6733" y2="0.9323" gradientTransform="matrix(62.3564 0 0 206.3938 21720.7715 26.8025)">
		<stop  offset="0" style="stop-color:#282662"/>
		<stop  offset="9.548000e-02" style="stop-color:#662E8D"/>
		<stop  offset="0.7882" style="stop-color:#9F2064"/>
		<stop  offset="0.9487" style="stop-color:#CD2032"/>
	</linearGradient>
	<path class="st3" d="M43.7,306.1c-2.4,12.1-4.1,24.1-5,36.1c0,0.4-0.1,0.8-0.1,1.3c-6-9.6-21.9-18.8-21.9-18.8
		c11.5,16.5,20.1,33,21.4,49.1c-6.1,1.3-14.4-0.6-24.2-4.1c10.1,9.3,17.6,11.9,20.6,12.6c-9.3,0.6-18.9,7-28.7,14.2
		c14.2-5.8,25.7-8.1,34-6.3c-13,37-26.1,77.8-39.2,121c4-1.2,6.4-3.9,7.8-7.6c2.3-7.9,17.8-59.3,42-126.9c0.7-1.9,1.4-3.9,2.1-5.8
		c0.2-0.5,0.4-1.1,0.6-1.6c2.6-7.1,5.2-14.3,8-21.7c0.6-1.7,1.3-3.4,1.9-5.1v-0.1l-19-37.7C43.9,305.3,43.8,305.7,43.7,306.1z"/>
	
		<linearGradient id="SVGID_5_" gradientUnits="userSpaceOnUse" x1="-352.1056" y1="7.2973" x2="-350.1432" y2="2.8321" gradientTransform="matrix(110.8669 0 0 104.4918 39036.1328 -216.5393)">
		<stop  offset="0.3233" style="stop-color:#9E2064"/>
		<stop  offset="0.6302" style="stop-color:#C92037"/>
		<stop  offset="0.7514" style="stop-color:#CD2335"/>
		<stop  offset="1" style="stop-color:#E97826"/>
	</linearGradient>
	<path class="st4" d="M197.3,68.5c-4.3,6.6-9,14-14,22.5c-0.3,0.4-0.5,0.9-0.8,1.3c-4.4,7.4-9,15.3-13.8,24.2
		c-4.2,7.6-8.6,15.7-13.1,24.6c-4,7.7-8.1,15.7-12.3,24.4l0.9,0.4l46.3-5l1.1-0.8c14-6.5,20.3-12.4,26.4-20.8
		c1.6-2.3,3.3-4.8,4.9-7.3c5-7.8,9.9-16.2,14.1-24.7c4.2-8.2,7.9-16.3,10.8-23.6c1.8-4.7,3.3-9,4.3-12.8c0.9-3.4,1.6-6.6,2.1-9.6
		C235.4,64.7,212.4,67.8,197.3,68.5z"/>
	
		<linearGradient id="SVGID_6_" gradientUnits="userSpaceOnUse" x1="-351.9826" y1="3.298" x2="-350.5278" y2="0.91" gradientTransform="matrix(149.6153 0 0 195.6564 52677.1523 -126.5905)">
		<stop  offset="0.3233" style="stop-color:#9E2064"/>
		<stop  offset="0.6302" style="stop-color:#C92037"/>
		<stop  offset="0.7514" style="stop-color:#CD2335"/>
		<stop  offset="1" style="stop-color:#E97826"/>
	</linearGradient>
	<path class="st5" d="M141.4,169.4c-1.6,3.4-3.3,6.9-5,10.4c-1.8,3.8-3.7,7.8-5.5,11.8c-0.9,2-1.9,4.1-2.8,6.1
		c-2.9,6.2-5.7,12.6-8.7,19.1c-3.6,8.1-7.3,16.5-11,25.2c-3.6,8.4-7.2,16.9-10.8,25.9c-3.5,8.5-7,17.2-10.5,26.2
		c-3.2,8.1-6.4,16.2-9.6,24.8c-0.2,0.4-0.3,0.8-0.5,1.2c-3.2,8.5-6.3,17.1-9.6,25.9c-0.1,0.2-0.3,0.7-0.4,0.9l0.7,0.2l13.9-1.5
		l0.8-0.3c-0.3-0.1-0.5-0.5-0.8-0.6c18.3-2.3,42.7-16,58.6-33c7.3-7.8,13.8-17,20-27.8c4.6-8.1,8.8-16.9,12.8-26.8
		c3.6-8.6,7-17.9,10.3-28c-4.2,2.2-9.1,3.9-14.3,5c-0.9,0.2-1.9,0.4-2.9,0.6s-2,0.3-2.9,0.5c17.1-6.6,27.9-19.3,35.8-34.9
		c-4.5,3.1-11.9,7.1-20.6,9.1c-1.2,0.3-2.4,0.5-3.7,0.7c-0.3,0-0.6,0.1-0.9,0.1c6-2.5,11-5.3,15.3-8.6c0.9-0.7,1.8-1.4,2.7-2.2
		c1.3-1.2,2.6-2.4,3.8-3.6c0.8-0.8,1.5-1.6,2.3-2.5c1.7-2,3.3-4.2,4.8-6.6c0.5-0.7,0.9-1.5,1.4-2.2c0.6-1.1,1.1-2.2,1.6-3.3
		c2.4-4.8,4.3-9.1,5.8-12.8c0.8-1.9,1.4-3.6,2-5.3c0.2-0.6,0.4-1.3,0.7-1.9c0.6-1.8,1.1-3.4,1.5-4.9c0.6-2.1,0.9-3.8,1.1-5
		c-0.6,0.5-1.2,0.9-2,1.4c-5.2,3.1-14,5.9-21.2,7.2l14.1-1.6l-14.1,1.6c-1,0.2-1.7,0.3-2.5,0.5c0.1-0.1-15.9,1.6-47.9,5.1
		C143.1,165.7,141.9,168.2,141.4,169.4z"/>
	
		<linearGradient id="SVGID_7_" gradientUnits="userSpaceOnUse" x1="-350.2212" y1="5.221" x2="-348.7624" y2="1.9264" gradientTransform="matrix(88.8529 0 0 84.3705 31150.4336 48.8247)">
		<stop  offset="0" style="stop-color:#282662"/>
		<stop  offset="9.548000e-02" style="stop-color:#662E8D"/>
		<stop  offset="0.7882" style="stop-color:#9F2064"/>
		<stop  offset="0.9487" style="stop-color:#CD2032"/>
	</linearGradient>
	<path class="st6" d="M65.8,350.6c-2.5,6.9-5.1,13.9-7.6,21.1c0,0.1-0.1,0.2-0.1,0.3c-0.4,1-0.7,2-1.1,3.1
		c-1.7,4.9-3.2,9.2-6.6,19.1c5.6,2.6,10.1,9.3,14.3,16.9c-0.4-7.9-3.7-15.3-10-21c27.6,1.2,51.4-5.8,63.7-25.9
		c1.1-1.8,2.1-3.7,3-5.7c-5.6,7.1-12.6,10.1-25.5,9.4h-0.1H96c19.2-8.6,28.8-16.8,37.4-30.5c2-3.3,4-6.8,6-10.7
		c-16.8,17.2-36.3,22.1-56.7,18.4l-15.3,1.7C66.8,348,66.3,349.3,65.8,350.6z"/>
</g>
<g>
	<g>
		<g class="st7">
			<polygon class="st8" points="64.1,472.1 62.5,465.9 61.1,472.1 35.1,472.1 50,416.3 74.7,416.3 90.6,472.1 			"/>
			<path class="st8" d="M77.2,484.2v-39c0-4.4-0.1-7.8-0.2-10.1l-0.3-7.8H97c1.7-0.5,3.5-0.7,5.4-0.7c9.1,0,18.7,7.9,18.7,22.6
				c0,15.1-9.6,23.2-19.3,23.6v11.4H77.2z"/>
			<path class="st8" d="M125.7,472.8c-9.3,0-16.3-7.3-16.3-16.9c0-4.3,1.2-8.2,3.5-11.2l-2.7-11.4l4.6-2.9c2.3-1.5,7.4-3.9,15-3.9
				c12.3,0,19.9,7.9,19.9,20.6v10c0,3.4,0.2,5.5,0.3,6l1.7,8.9H131C129.3,472.6,127.6,472.8,125.7,472.8z"/>
			<path class="st8" d="M161.3,472.8c-13,0-22-9.4-22-22.9c0-13.8,9.5-23.4,23.2-23.4c2.3,0,5.8,0.3,9.2,1.6l5.8,2.2l-3,17.1
				l2.8,20.5l-4.6,2.5C169.2,472.4,164.6,472.8,161.3,472.8z"/>
			<path class="st8" d="M166,472.1v-58.3h24.7v12.8c7.8,0.1,16.9,5.6,16.9,20.8v24.7H166z"/>
			<path class="st8" d="M219.6,472.8c-13.3,0-22.3-9.2-22.3-22.9c0-11.3,7.5-23.3,21.4-23.3c11.8,0,20,9.5,20,23
				c0,2.2-0.3,4.5-0.6,5.6l-1.2,5.3l1.2,7.1l-5.1,2.4C228.9,472,224.7,472.8,219.6,472.8z"/>
		</g>
		<g>
			<path class="st9" d="M68,467.1l-2.6-9.9h-6.1l-2.2,9.9H41.6l12.3-45.8h17L84,467.1H68z M62.6,443.8l-0.4-1.7l-0.4,1.7H62.6z"/>
			<path class="st9" d="M82.2,479.2v-34c0-4.4-0.1-8-0.2-10.3l-0.1-2.6h13.2l0.1,1.2c2.1-1.3,4.5-2,7.3-2c6.6,0,13.7,6.2,13.7,17.6
				c0,12.2-7.6,18.6-15,18.6c-1.5,0-3-0.2-4.3-0.7v12.1H82.2z M96.9,452.1c0.2,1.1,0.9,2.2,1.8,2.2c2.3,0,2.5-3.1,2.5-4.4
				c0-0.8-0.1-4.6-2.4-4.6c-0.8,0-1.8,1.1-1.9,2.5c0,0.3,0,0.5,0,0.9v2.2C96.9,451.4,96.9,451.7,96.9,452.1z"/>
			<path class="st9" d="M125.7,467.8c-6.5,0-11.3-5.1-11.3-11.9c0-4.1,1.4-7.4,4-9.8l-2.5-10.4l1.5-1c1.5-1,5.8-3.2,12.4-3.2
				c9.4,0,14.9,5.7,14.9,15.6v10c0,3.5,0.2,6,0.4,6.9l0.6,3h-13.8l-0.1-0.6C129.9,467.4,127.9,467.8,125.7,467.8z M129,455
				c0.1,0,0.1,0,0.3,0c0.2,0,0.8-0.4,1-1.1c-0.7,0.2-1.3,0.5-1.3,1C128.9,454.9,128.9,455,129,455z"/>
			<path class="st9" d="M161.3,467.8c-10.3,0-17-7-17-17.9c0-9.1,5.6-18.4,18.2-18.4c1.9,0,4.7,0.2,7.4,1.3l1.9,0.7l-2.4,13.6
				l-3-1.5c-0.8-0.4-1.9-0.6-3.4-0.6c-1,0-1.9,0.3-2.5,1c-0.8,0.8-1.2,2-1.2,3.4c0,4,2.5,4.6,4.1,4.6c1.5,0,2.6-0.2,3.6-0.6l3.1-1.4
				l1.8,13.3l-1.5,0.8C167.7,467.5,164,467.8,161.3,467.8z"/>
			<path class="st9" d="M187.9,467.1v-18c0-2.3-0.4-3.4-1.2-3.4c-0.3,0-0.6,0-1,0.9c0,0.1,0,0.5,0,0.7v19.8H171v-48.3h14.7v14
				c1.4-0.7,3.1-1.1,4.8-1.1c5.8,0,12.1,4.2,12.1,15.8v19.7H187.9z"/>
			<path class="st9" d="M219.6,467.8c-10.7,0-17.3-6.9-17.3-17.9c0-7.1,4.4-18.3,16.4-18.3c11,0,15,9.7,15,18c0,1.7-0.2,3.6-0.4,4.5
				l-0.4,1.9H231l1.4,8.7l-1.7,0.8C227.5,467.1,223.9,467.8,219.6,467.8z"/>
		</g>
	</g>
	<g>
		<g class="st7">
			<polygon class="st10" points="66,469.6 63.5,459.7 61.3,459.7 59.1,469.6 38.3,469.6 51.9,418.8 72.8,418.8 87.3,469.6 			"/>
			<path class="st10" d="M79.7,481.7v-36.5c0-4.4-0.1-7.9-0.2-10.2l-0.2-5.2h18.1l0,0c1.6-0.5,3.3-0.7,5.1-0.7
				c7.8,0,16.2,7.1,16.2,20.1c0,13.9-8.8,21.1-17.5,21.1c-0.6,0-1.2,0-1.8-0.1v11.5H79.7z"/>
			<path class="st10" d="M125.7,470.3c-7.9,0-13.8-6.2-13.8-14.4c0-4.3,1.3-7.9,3.7-10.6l-2.6-10.8l3-1.9c2.1-1.3,6.7-3.5,13.7-3.5
				c10.9,0,17.4,6.8,17.4,18.1v10c0,3.5,0.2,5.8,0.3,6.4l1.1,5.9h-17.9C129.2,470.1,127.6,470.3,125.7,470.3z M130.5,456.4
				L130.5,456.4z"/>
			<path class="st10" d="M161.3,470.3c-11.7,0-19.5-8.2-19.5-20.4c0-12.3,8.5-20.9,20.7-20.9c2.1,0,5.3,0.2,8.3,1.4l3.8,1.5
				l-2.9,16.5l0.3-0.1l2.5,18.3l-3.1,1.6C168.5,470,164.3,470.3,161.3,470.3z M163,447.6c-0.5,0-0.7,0.2-0.8,0.3
				c-0.3,0.3-0.4,0.9-0.4,1.6c0,1.9,0.7,2.1,1.6,2.1c1.5,0,2.2-0.2,2.6-0.4l3-1.4l-3.7-1.8C165.1,447.9,164.5,447.6,163,447.6z"/>
			<path class="st10" d="M168.5,469.6v-53.3h19.7v13c0.8-0.1,1.5-0.2,2.3-0.2c7.1,0,14.6,4.8,14.6,18.3v22.2H168.5z M185.2,447.2
				L185.2,447.2z"/>
			<path class="st10" d="M219.6,470.3c-12,0-19.8-8-19.8-20.4c0-10.1,6.6-20.8,18.9-20.8c10.4,0,17.5,8.2,17.5,20.5
				c0,1.9-0.2,4-0.5,5.1l-0.9,3.9H234l1.3,7.6l-3.4,1.6C228.2,469.5,224.3,470.3,219.6,470.3z"/>
		</g>
		<g>
			<path d="M57.3,454.7l-2.2,9.9H44.9l10.9-40.8H69l11.6,40.8H69.9l-2.6-9.9H57.3z M65.8,446.3l-1.8-7.2c-0.6-2.3-1.3-5.3-2-7.6
				h-0.1c-0.6,2.4-1.1,5.3-1.6,7.7l-1.6,7.1H65.8z"/>
			<path d="M84.7,445.2c0-4.2-0.1-7.7-0.2-10.4h8.4l0.4,3.9h0.1c2.2-3.2,5.3-4.7,9.1-4.7c5,0,11.2,4.7,11.2,15.1
				c0,11.1-6.7,16.1-12.5,16.1c-3.2,0-5.6-1.3-6.7-2.9h-0.1v14.3h-9.7V445.2z M94.4,450.9c0,0.5,0,1,0.1,1.6
				c0.4,2.3,2.1,4.4,4.3,4.4c3,0,5-2.5,5-6.9c0-3.8-1.5-7.1-4.9-7.1c-2.2,0-4.1,2.1-4.4,4.7c-0.1,0.4-0.1,0.8-0.1,1.2
				C94.4,448.7,94.4,450.9,94.4,450.9z"/>
			<path d="M133.8,464.6l-0.5-2.5h-0.2c-1.8,2.4-4.5,3.3-7.4,3.3c-5.5,0-8.8-4.5-8.8-9.4c0-8,6.1-11.7,15.6-11.7v-0.2
				c0-1.1-0.6-2.4-4.4-2.4c-2.8,0-6,1.3-7.6,2.4l-1.7-7.1c1.6-1,5.4-2.8,11-2.8c8.7,0,12.4,5.1,12.4,13.1v10c0,3.1,0.2,6.1,0.4,7.4
				H133.8z M132.8,451.2c-4.3,0-6.3,1.3-6.3,3.7c0,1.7,1,2.7,2.8,2.7c1.5,0,3-1.3,3.4-3.1c0.1-0.5,0.1-1.1,0.1-1.6V451.2z"/>
			<path d="M169.1,464c-1.8,1-4.7,1.4-7.8,1.4c-8.9,0-14.5-6-14.5-15.4c0-8.2,4.9-15.9,15.7-15.9c1.8,0,4.3,0.2,6.5,1.1l-1.4,8.3
				c-1-0.5-2.4-0.8-4.5-0.8c-3.6,0-6.3,2.8-6.2,6.9c0,4.9,3.2,7,6.6,7c1.8,0,3.3-0.2,4.6-0.8L169.1,464z"/>
			<path d="M173.5,421.3h9.7V438h0.1c0.9-1.3,2-2.1,3.2-2.8c1.1-0.7,2.6-1,4-1c5.8,0,9.6,4.6,9.6,13.3v17.2h-9.7v-15.5
				c0-3.9-1.2-5.9-3.7-5.9c-2,0-2.9,1.5-3.3,2.5c-0.2,0.5-0.2,1.2-0.2,1.6v17.3h-9.7V421.3z"/>
			<path d="M214,453.5c0.4,2.2,3.6,3.5,6.9,3.5c2.5,0,4.9-0.2,7.5-1.2l1.2,7.5c-3.4,1.6-6.9,2.1-10.1,2.1c-9.4,0-14.8-6-14.8-15.4
				c0-5.9,3.4-15.8,13.9-15.8c9,0,12.5,7.9,12.5,15.5c0,1.6-0.2,3.3-0.4,3.9H214z M222.2,445.9c0-1.3-0.8-4.5-4-4.5
				c-3,0-4.2,2.8-4.4,4.5H222.2z"/>
		</g>
	</g>
</g>
</svg>
