<?xml version="1.0" encoding="utf-8"?>
<!-- Generator: Adobe Illustrator 22.0.1, SVG Export Plug-In . SVG Version: 6.00 Build 0)  -->
<svg version="1.1" id="Layer_1" xmlns="http://www.w3.org/2000/svg" xmlns:xlink="http://www.w3.org/1999/xlink" x="0px" y="0px"
	 viewBox="0 0 2500 2500" style="enable-background:new 0 0 2500 2500;" xml:space="preserve">
<style type="text/css">
	.st0{clip-path:url(#SVGID_2_);fill:#F0BF1A;}
	.st1{clip-path:url(#SVGID_4_);fill:#3EBEB0;}
	.st2{clip-path:url(#SVGID_6_);fill:#07A5DE;}
	.st3{clip-path:url(#SVGID_8_);fill:#231F20;}
	.st4{fill:#D7A229;}
	.st5{fill:#019B8F;}
	.st6{fill:none;}
	.st7{display:none;}
	.st8{display:inline;fill:#FCFCFC;}
	.st9{fill:#F7F5F6;}
</style>
<g>
	<g>
		<g>
			<defs>
				<ellipse id="SVGID_1_" cx="1159" cy="842.8" rx="927" ry="839.2"/>
			</defs>
			<clipPath id="SVGID_2_">
				<use xlink:href="#SVGID_1_"  style="overflow:visible;"/>
			</clipPath>
			<path class="st0" d="M1555.9,475.6h-1266c-31.9,0-57.9-23.6-57.9-52.5V56c0-28.8,26.1-52.5,57.9-52.5h1651.3
				c31.9,0,57.9,23.6,57.9,52.5v18.4C1996.2,294.7,1799.2,475.6,1555.9,475.6z"/>
		</g>
	</g>
</g>
<g>
	<g>
		<g>
			<defs>
				<ellipse id="SVGID_3_" cx="1159" cy="842.8" rx="927" ry="839.2"/>
			</defs>
			<clipPath id="SVGID_4_">
				<use xlink:href="#SVGID_3_"  style="overflow:visible;"/>
			</clipPath>
			<path class="st1" d="M2002,1682H237.7v-472.1h1323.9c243.3,0,440.3,178.3,440.3,398.6V1682z"/>
		</g>
	</g>
</g>
<g>
	<g>
		<g>
			<g>
				<defs>
					<ellipse id="SVGID_5_" cx="1159" cy="842.8" rx="927" ry="839.2"/>
				</defs>
				<clipPath id="SVGID_6_">
					<use xlink:href="#SVGID_5_"  style="overflow:visible;"/>
				</clipPath>
				<path class="st2" d="M1451.6,1078.8H139.2V606.7h1312.3c144.8,0,260.7,104.9,260.7,236S1593.5,1078.8,1451.6,1078.8z"/>
			</g>
		</g>
	</g>
</g>
<g>
	<g>
		<g>
			<g>
				<defs>
					<ellipse id="SVGID_7_" cx="1159" cy="842.8" rx="927" ry="839.2"/>
				</defs>
				<clipPath id="SVGID_8_">
					<use xlink:href="#SVGID_7_"  style="overflow:visible;"/>
				</clipPath>
				<path class="st3" d="M1043.1,606.7H185.6v472.1h857.5c20.3-70.8,31.9-149.5,31.9-236S1063.4,677.6,1043.1,606.7z"/>
			</g>
		</g>
	</g>
</g>
<path class="st4" d="M712.8,110c-168.8,85.4-309.4,213.5-396.9,365.6h737.5C978.4,328.8,859.7,206.1,712.8,110z"/>
<path class="st5" d="M721.5,1582.3c133.3-97,240.4-225.5,307.1-372.4h-704C411.5,1367.3,550.6,1498.4,721.5,1582.3z"/>
<path class="st6" d="M0,0h2500v2500H0V0z"/>
<g>
	<g class="st7">
		<polygon class="st8" points="311.4,2282.8 311.4,1877.8 542.8,1877.8 542.8,2046.6 538.2,2046.6 538.2,2114 546.9,2114 
			546.9,2282.8 		"/>
		<rect x="476.2" y="1858.8" class="st8" width="151.7" height="424.1"/>
		<path class="st8" d="M649.6,2288.3c-31.2,0-59.3-16.5-77.1-45.1c-12.9-20.8-20-47.4-20-75c0-35.3,8.9-61,19.9-79.2l-14-82.5
			l20.9-18.4c11.4-10,43.1-33.3,91.8-33.3c39.5,0,72.4,17.8,92.7,50.2c15.4,24.6,23.3,57.6,23.3,98.1v74.7c0,26.3,1,43.4,1.7,48.4
			l7.8,56.8H681.9C671.8,2286.5,661,2288.3,649.6,2288.3z"/>
		<path class="st8" d="M813.6,2288.3c-30.2,0-59.1-9.8-81.6-27.5l-22.7-17.9l16.3-111.1c-6.1-15.2-9.2-32-9.1-49.9
			c0.1-73.7,47.1-127.2,111.9-127.2c27.2,0,55,9,74.4,24.1l23,17.8l-14,97c0.3,0.5,0.5,0.9,0.8,1.4c10.6,18.8,15.9,41,16.1,67.7
			l0,0.4c0,32.8-9.1,61.8-26.2,83.8C881.7,2273.6,850.1,2288.3,813.6,2288.3z"/>
		<path class="st8" d="M957,2288.3c-31.7,0-61.9-18-78.8-47c-13.1-22.3-19.1-52.6-19.1-95.4v-22.4h-17v-163.4h17v-30.5l150.1-55.6
			v86.1h28.5v135.5l0.3-0.1v163.5l-23.4,14.7C1000,2283,979,2288.3,957,2288.3z"/>
		<path class="st8" d="M962.5,2282.8v-322.7h0.1c-0.4-3.9-0.6-7.9-0.6-12c0-20.8,5.2-39.8,15-55.1c14-21.8,36.5-34.3,61.6-34.3
			c25.1,0,47.6,12.6,61.6,34.5c9.5,14.9,14.7,33.7,15,54.3l0,0.6c0,4.8-0.3,9.4-0.8,14v320.7H962.5z"/>
		<path class="st8" d="M1166.9,2288.3c-40.2,0-75-18.9-98.1-53.3c-19.2-28.6-29.4-67.2-29.4-111.7c0-29.2,4.8-71.7,27.9-108.7
			c24.1-38.6,61.6-59.9,105.6-59.9c14.7,0,36.8,2.5,58.5,14.1l30.1,16.2l-14.8,119.7l14.3,146.1l-22.3,16.9
			C1216.2,2284.7,1187.3,2288.3,1166.9,2288.3z"/>
		<path class="st8" d="M1345.3,2288.3c-39.6,0-74.4-17.6-92.2-32.6l-21.4-18.1l22-143.9c-11.3-21.8-17-47-17-75.3
			c0-38.9,11-73.4,31.8-99.7c23.6-29.8,57.7-46.3,96.2-46.3c32,0,59.8,8.6,85,26.2l26.1,18.3l-23.1,131.6c2.2,3.2,4.3,6.5,6.2,9.8
			c13.2,23,19.5,49.8,19.5,81.8c0,38.2-10.1,72.1-29.3,98C1425.2,2270.5,1388.4,2288.3,1345.3,2288.3z"/>
		<path class="st8" d="M1529.3,2288.3c-41.3,0-76.8-19-99.8-53.4c-19.2-28.7-29-66.4-29-112c0-16,2-57.6,21-97.1
			c9.5-19.8,21.8-35.8,36.6-47.7c19-15.2,41.9-23.3,66.3-23.3c41.2,0,76.3,23.7,96.3,64.9c16.7,34.5,20.2,73.9,20.2,100.9
			c0,14.4-1.3,29.8-2.6,37.6l-6.9,41.9h-0.5l5.6,47.5l-25.5,17C1586.9,2280.5,1560.2,2288.3,1529.3,2288.3z"/>
		<path class="st8" d="M1653.2,2288.3c-31.2,0-59.3-16.5-77.1-45.1c-12.9-20.8-20-47.4-20-75c0-35.3,8.9-61,19.9-79.2l-14-82.5
			l20.9-18.4c11.4-10,43.1-33.3,91.8-33.3c39.5,0,72.4,17.8,92.7,50.2c15.4,24.6,23.3,57.6,23.3,98.1v74.7c0,26.3,1,43.4,1.7,48.4
			l7.8,56.8h-114.8C1675.4,2286.5,1664.6,2288.3,1653.2,2288.3z"/>
		<path class="st8" d="M1723.7,2282.8v-196.2c0-38.7-0.3-58.1-1-74.1l-2.5-52.4h110.6c8.9-3.6,18.3-5.4,27.8-5.4
			c6.3,0,14.9,0,26.8,4.2l33.3,11.8V2156l-43.2-15.3v142.1H1723.7z"/>
		<path class="st8" d="M1959,2288.3c-40.2,0-75-18.9-98.1-53.3c-19.2-28.6-29.4-67.2-29.4-111.7c0-29.2,4.8-71.7,27.9-108.7
			c24.1-38.6,61.6-59.9,105.6-59.9c14.7,0,36.8,2.5,58.5,14.1l30.1,16.2l-14.8,119.7l14.3,146.1l-22.3,16.9
			C2008.3,2284.7,1979.3,2288.3,1959,2288.3z"/>
		<path class="st8" d="M1973.8,2282.8v-424.1h151.7v96.6c29.5,3.7,54.7,21.9,70.3,51.2c13.1,24.7,19.7,57.5,19.7,97.7v178.5H1973.8z
			"/>
	</g>
	<g>
		<g>
			<path class="st9" d="M168,2256.8c-13.3,0-24-10.7-24-24v-305.1c0-13.3,10.7-24,24-24h158.2c13.3,0,24,10.7,24,24v68.8
				c0,12.5-9.6,22.8-21.8,23.9c9.4,3.2,16.2,12.2,16.2,22.7v68.8c0,13.3-10.7,24-24,24h-66.3v4.1h76.8c13.3,0,24,10.7,24,24v68.8
				c0,13.3-10.7,24-24,24H168z"/>
			<path class="st9" d="M366.4,2256.8c-13.3,0-24-10.7-24-24v-324.1c0-13.3,10.7-24,24-24h62.3c13.3,0,24,10.7,24,24v324.1
				c0,13.3-10.7,24-24,24H366.4z"/>
			<path class="st9" d="M515,2262.3c-46,0-80.7-40.5-80.7-94.2c0-37.2,13-61.1,26.7-75.9c-1.7-2.5-2.9-5.4-3.5-8.4l-10.9-53.4
				c-1.9-9.2,1.8-18.6,9.4-24.2c10.5-7.6,39.7-25.4,85-25.4c65.7,0,103.4,44.5,103.4,122.2v74.7c0,25.8,1.2,44.3,2.3,51.3
				c1.2,7-0.8,14.1-5.4,19.4s-11.3,8.5-18.3,8.5h-56c-4.7,0-9.1-1.3-12.8-3.7C542.8,2259.2,529.6,2262.3,515,2262.3z"/>
			<path class="st9" d="M712.3,2262.3c-27.5,0-53.8-7.3-74.1-20.7c-8-5.3-12.1-14.8-10.5-24.2l10.5-59.7c1.3-7.5,6.1-13.8,12.7-17.2
				c-12.8-16.1-19.5-36-19.3-58.4c0-28.2,9.6-53.8,27-72.1c17.9-18.8,43.3-29.2,71.4-29.2c28.5,0,52.6,9,65.7,17.4
				c8.1,5.2,12.3,14.8,10.7,24.3l-9.9,57c-1,5.6-3.8,10.5-8,14.1c17.3,16.9,25.9,39.9,26.2,69.4c0,0.1,0,0.1,0,0.2
				c0,27.8-8.8,51.8-25.3,69.4C776.7,2246.1,753,2262.3,712.3,2262.3z"/>
			<path class="st9" d="M885,2262.3c-24.9,0-48.3-12.1-62.5-32.4c-12.9-18.3-19.2-45.8-19.2-83.9v-48.7
				c-11.6-1.7-20.4-11.7-20.4-23.7v-63.4c0-12,8.9-22,20.4-23.7v-22c0-10.5,6.9-19.8,16.9-22.9l60.3-18.6c2.3-0.7,4.7-1.1,7.1-1.1
				c5.1,0,10.1,1.6,14.3,4.7c6.1,4.5,9.7,11.7,9.7,19.3v40.3h10.3c13.3,0,24,10.7,24,24v63.4c0,13.3-10.7,24-24,24h-10.3v31.7
				c0,7.6,0.3,12.5,0.7,15.6c1.5-0.2,2.6-0.4,2.9-0.5c2.3-0.7,4.7-1,7-1c5.1,0,10.1,1.6,14.3,4.7c6.1,4.5,9.7,11.7,9.7,19.3v64.3
				c0,8.9-5,17.1-12.9,21.3C921.9,2258.7,903.9,2262.3,885,2262.3z"/>
			<path class="st9" d="M951.9,2256.8c-13.3,0-24-10.7-24-24v-222.7c0-8.8,4.7-16.5,11.8-20.7c-7.9-10.9-12.4-25.1-12.4-41.3
				c0-36.7,23.5-63.4,56-63.4c32.4,0,55.4,25.9,56,63c0,0.1,0,0.2,0,0.4c0,16.3-4.6,30.5-12.6,41.4c7,4.2,11.7,11.8,11.7,20.6v222.7
				c0,13.3-10.7,24-24,24H951.9z"/>
			<path class="st9" d="M1137.7,2262.3c-35.6,0-65.6-13.9-86.8-40.1c-19.9-24.7-30.5-58.8-30.5-98.9c0-37.2,10.4-71.5,29.2-96.6
				c22.6-30.1,55.5-46,95.3-46c13.1,0,32.7,1.8,51.6,10.2c9.8,4.4,15.5,14.8,13.9,25.4l-9.2,62c-1.2,7.9-6.2,14.6-13.3,18.1
				c-3.3,1.6-6.9,2.4-10.4,2.4c-4.2,0-8.3-1.1-12-3.2c-4.4-2.6-11.7-3.1-17-3.1c-3.5,0-6.2,1.1-8.7,3.6c-4.7,4.7-7.3,13.4-7.2,23.7
				c0,0.1,0,0.2,0,0.3c0,10.6,2.4,28.5,18.2,28.5c8.1,0,13.8-1.1,18.4-3.6c3.5-1.9,7.4-2.8,11.2-2.8c3.8,0,7.7,0.9,11.2,2.8
				c7,3.7,11.7,10.6,12.7,18.4l7.2,61.6c1.1,9.2-3.2,18.2-11.1,23.1C1182,2259.8,1156.1,2262.3,1137.7,2262.3z"/>
			<path class="st9" d="M1352.5,2262.3c-34.6,0-68.1-12.6-86-25.2c-7.7-5.4-11.5-14.8-9.8-24l12.9-69.7c1.5-8,6.8-14.6,14.3-17.8
				c3-1.3,6.2-1.9,9.3-1.9c4.7,0,9.4,1.4,13.4,4.1c7.7,5.2,28,17.2,50.5,17.2c2.5,0,4.4-0.2,5.8-0.5c-2.7-1.9-8.4-5.1-20.3-9.7
				c-24.9-9.5-44.6-22.9-58.6-39.7c-17.2-20.7-25.9-46.5-25.9-76.8c0-33.3,11.3-63.6,31.9-85.2c21.6-22.7,51.4-34.7,86-34.7
				c30.5,0,55.9,6.5,79.9,20.4c9,5.2,13.6,15.6,11.4,25.7l-14.2,67c-1.6,7.5-6.6,13.7-13.5,16.9c-3.2,1.4-6.6,2.2-9.9,2.2
				c-4,0-8.1-1-11.7-3c-7.7-4.3-21.8-12.2-40.7-12.8c5.1,2.5,11.6,5.4,17.7,8l3.7,1.6c52.5,23.1,78,61,78,115.7
				c0,33.4-10.2,62.5-29.6,84.3C1431.6,2241.6,1402.7,2262.3,1352.5,2262.3z"/>
			<path class="st9" d="M1573.9,2262.3c-37,0-67.7-13.9-88.9-40.2c-19.6-24.4-30-58.7-30-99.3c0-30.3,8.5-63,22.6-87.5
				c20.3-35.2,52.4-54.6,90.4-54.6c34.9,0,64.2,17.3,82.5,48.6c13.9,23.8,21.6,56.2,21.6,91.2c0,13.1-1.4,27.3-2.8,34.1
				c-1.5,7.7-6.7,13.9-13.4,17.1l6.7,47.8c1.4,9.8-3.4,19.5-12.1,24.3C1627.8,2256.4,1603.5,2262.3,1573.9,2262.3z"/>
			<path class="st9" d="M1723.2,2262.3c-46,0-80.7-40.5-80.7-94.2c0-37.2,13-61.1,26.7-75.9c-1.7-2.5-2.9-5.4-3.5-8.4l-10.9-53.4
				c-1.9-9.2,1.8-18.6,9.4-24.2c10.5-7.6,39.7-25.4,85-25.4c65.7,0,103.4,44.5,103.4,122.2v74.7c0,25.8,1.2,44.3,2.3,51.3
				s-0.8,14.1-5.4,19.4c-4.6,5.4-11.3,8.5-18.3,8.5h-56c-4.7,0-9.1-1.3-12.8-3.7C1751,2259.2,1737.8,2262.3,1723.2,2262.3z"/>
			<path class="st9" d="M1868.2,2256.8c-13.3,0-24-10.7-24-24v-146.2c0-39-0.3-58.7-1.3-75.1c-0.4-6.6,2-13.1,6.5-17.9
				c4.5-4.8,10.8-7.5,17.5-7.5h53.1c5.9,0,11.4,2.1,15.6,5.7c10.7-7.2,22.9-11.2,34.9-11.2c5.9,0,11,0,19,2.3
				c10.2,3,17.2,12.4,17.2,23v79.2c0,7.6-3.6,14.7-9.6,19.2c-4.2,3.1-9.3,4.8-14.4,4.8c-2.3,0-4.5-0.3-6.8-1
				c-3.7-1.1-6.1-1.7-9.7-1.7c-9.2,0-10.7,3.3-11.4,7.7c-0.2,2.4-0.2,5.2-0.2,8.1v110.4c0,13.3-10.7,24-24,24H1868.2z"/>
			<path class="st9" d="M2091.2,2262.3c-35.6,0-65.6-13.9-86.8-40.1c-19.9-24.7-30.5-58.8-30.5-98.9c0-37.2,10.4-71.5,29.2-96.6
				c22.6-30.1,55.5-46,95.3-46c13.1,0,32.7,1.8,51.6,10.2c9.8,4.4,15.5,14.8,13.9,25.4l-9.2,62c-1.2,7.9-6.2,14.6-13.3,18.1
				c-3.3,1.6-6.9,2.4-10.4,2.4c-4.2,0-8.3-1.1-12-3.2c-4.4-2.6-11.7-3.1-17-3.1c-3.5,0-6.2,1.1-8.7,3.6c-4.7,4.7-7.3,13.4-7.2,23.7
				c0,0.1,0,0.2,0,0.3c0,10.6,2.4,28.5,18.2,28.5c8.1,0,13.8-1.1,18.4-3.6c3.5-1.9,7.4-2.8,11.2-2.8c3.8,0,7.7,0.9,11.2,2.8
				c7,3.7,11.7,10.6,12.7,18.4l7.2,61.6c1.1,9.2-3.2,18.2-11.1,23.1C2135.5,2259.8,2109.7,2262.3,2091.2,2262.3z"/>
			<path class="st9" d="M2277.7,2256.8c-10.9,0-20.2-7.3-23.1-17.3c-2.9,10-12.1,17.3-23.1,17.3h-62.3c-13.3,0-24-10.7-24-24v-324.1
				c0-13.3,10.7-24,24-24h62.3c13.3,0,24,10.7,24,24v75.8c7.3-2.5,15-3.8,22.8-3.8c27,0,50.1,12.9,65.1,36.4
				c13.6,21.3,20.5,50.6,20.5,87.2v128.5c0,13.3-10.7,24-24,24H2277.7z"/>
		</g>
		<g>
			<path d="M320.6,2112h-90.3v52.1h100.8v68.8H168v-305.1h158.2v68.8h-95.9v46.6h90.3V2112z"/>
			<path d="M366.4,1908.8h62.3v324.1h-62.3V1908.8z"/>
			<path d="M567,2232.8l-3.3-19h-1.3c-11.9,18.1-29,24.4-47.4,24.4c-35.6,0-56.7-33.9-56.7-70.2c0-59.7,38.9-87.4,100.2-87.4v-1.4
				c0-8.1-4-18.1-28.3-18.1c-18.1,0-38.6,9.5-49.1,17.7l-10.9-53.4c10.5-7.7,34.6-20.8,70.8-20.8c55.7,0,79.4,38.5,79.4,98.2v74.7
				c0,23.5,1,45.3,2.6,55.2H567z M560.4,2132.4c-27.3,0-40.5,9.5-40.5,27.6c0,12.7,6.3,19.9,17.8,19.9c9.6,0,19.4-10,22.1-23.1
				c0.7-3.6,0.7-8.1,0.7-12.2V2132.4z"/>
			<path d="M661.9,2161.8c10.2,8.6,33.9,18.6,49.8,18.6c13.5,0,18.5-3.6,18.5-11.3c0-7.7-3.3-10.9-22.1-17.7
				c-37.9-13.6-52.7-40.7-52.4-69.3c0-45.3,29.7-77.4,74.5-77.4c22.1,0,42.2,6.8,52.7,13.6l-9.9,57c-8.2-5.4-25.7-13.6-40.2-13.6
				c-10.2,0-16.8,2.7-16.8,11.8c0,7.2,5.6,11.8,26.4,19.5c33.9,12.7,48.1,34.9,48.4,70.2c0,41.2-24.1,75.1-78.4,75.1
				c-25.4,0-46.5-7.2-61-16.7L661.9,2161.8z"/>
			<path d="M887.6,1945.9v64.3h34.3v63.4h-34.3v55.7c0,27.2,3.3,39.8,19.8,39.8c6.6,0,11.9-0.9,14.8-1.8v64.3
				c-6.9,3.6-21.1,6.8-37.2,6.8c-18.8,0-34.3-10-42.8-22.2c-9.9-14-14.8-37.1-14.8-70.2v-72.4h-20.4v-63.4h20.4v-45.7L887.6,1945.9z
				"/>
			<path d="M1015.1,1948.1c0,21.7-11.9,39.4-32.3,39.4c-19.8,0-31.6-17.7-31.6-39.4c0-22.2,11.9-39.4,32-39.4
				C1003.3,1908.8,1014.8,1926,1015.1,1948.1z M951.9,2232.8v-222.7h62.3v222.7H951.9z"/>
			<path d="M1187.8,2227.9c-11.5,7.2-30.3,10.4-50.1,10.4c-57.3,0-93.2-44.8-93.2-115c0-61.1,31.6-118.6,100.5-118.6
				c11.9,0,27.7,1.8,41.8,8.1l-9.2,62c-6.3-3.6-15.2-6.3-29-6.3c-23.4,0-40.2,20.8-39.9,51.6c0,36.7,20.4,52.5,42.2,52.5
				c11.5,0,21.1-1.8,29.7-6.3L1187.8,2227.9z"/>
			<path d="M1293.2,2147.8c14.8,10,38.6,21.3,63.9,21.3c20.8,0,31.3-9.1,31.3-24.4c0-13.1-10.2-21.7-37.2-32.1
				c-37.9-14.5-69.2-41.2-69.2-94.1c0-55.2,36.2-96,93.9-96c30.3,0,50.7,7.2,67.9,17.2l-14.2,67c-10.5-5.9-29.3-15.8-54.7-15.8
				c-18.5,0-29,8.1-29,21.3c0,16.3,14.2,21.7,43.2,34.4c43.2,19,63.6,47.5,63.6,93.7c0,51.1-29.3,98.2-100.2,98.2
				c-29.3,0-58-10.9-72.2-20.8L1293.2,2147.8z"/>
			<path d="M1538,2150c2.3,16.7,23.1,25.8,44.5,25.8c16.1,0,31.6-1.8,48.4-9.1l7.9,56.1c-22.1,12.2-44.2,15.4-64.9,15.4
				c-60.6,0-94.9-44.8-94.9-115.4c0-43.9,22.1-118.1,89-118.1c58,0,80.1,59.3,80.1,115.9c0,11.8-1.3,24.4-2.3,29.4H1538z
				 M1590.4,2092.5c0-10-4.9-33.5-25.4-33.5c-19.1,0-26.7,20.8-28,33.5H1590.4z"/>
			<path d="M1775.3,2232.8l-3.3-19h-1.3c-11.9,18.1-29,24.4-47.4,24.4c-35.6,0-56.7-33.9-56.7-70.2c0-59.7,38.9-87.4,100.2-87.4
				v-1.4c0-8.1-4-18.1-28.3-18.1c-18.1,0-38.6,9.5-49.1,17.7l-10.9-53.4c10.5-7.7,34.6-20.8,70.8-20.8c55.7,0,79.4,38.5,79.4,98.2
				v74.7c0,23.5,1,45.3,2.6,55.2H1775.3z M1768.7,2132.4c-27.3,0-40.5,9.5-40.5,27.6c0,12.7,6.3,19.9,17.8,19.9
				c9.6,0,19.4-10,22.1-23.1c0.7-3.6,0.7-8.1,0.7-12.2V2132.4z"/>
			<path d="M1868.2,2086.6c0-39.4-0.3-59.3-1.3-76.5h53.1l2,43h1.3c8.9-36.7,32-48.4,47.1-48.4c5.3,0,7.6,0,12.2,1.4v79.2
				c-4.6-1.4-9.6-2.7-16.5-2.7c-21.4,0-33,12.2-35.3,29c-0.3,3.6-0.3,7.2-0.3,10.9v110.4h-62.3V2086.6z"/>
			<path d="M2141.3,2227.9c-11.5,7.2-30.3,10.4-50.1,10.4c-57.3,0-93.3-44.8-93.3-115c0-61.1,31.6-118.6,100.5-118.6
				c11.9,0,27.7,1.8,41.8,8.1l-9.2,62c-6.3-3.6-15.2-6.3-29-6.3c-23.4,0-40.2,20.8-39.9,51.6c0,36.7,20.4,52.5,42.2,52.5
				c11.5,0,21.1-1.8,29.7-6.3L2141.3,2227.9z"/>
			<path d="M2169.3,1908.8h62.3v124.9h0.7c5.9-9.5,12.5-15.8,20.8-21.3c7.2-5,16.5-7.7,25.4-7.7c37.6,0,61.6,34.4,61.6,99.6v128.5
				h-62.3V2117c0-29-7.6-44.4-23.7-44.4c-12.9,0-18.5,10.9-21.1,18.6c-1.3,3.6-1.3,8.6-1.3,12.2v129.5h-62.3V1908.8z"/>
		</g>
	</g>
</g>
</svg>
