<?xml version="1.0" encoding="utf-8"?>
<!-- Generator: Adobe Illustrator 22.0.1, SVG Export Plug-In . SVG Version: 6.00 Build 0)  -->
<svg version="1.1" id="Layer_1" xmlns="http://www.w3.org/2000/svg" xmlns:xlink="http://www.w3.org/1999/xlink" x="0px" y="0px"
	 viewBox="0 0 256 250" enable-background="new 0 0 256 250" xml:space="preserve">
<g>
	<g>
		<path fill="#F7F5F6" d="M94.34375,194.51855c-0.9834,0-2.00684-0.09961-3.0415-0.29688l-0.5249-0.09961l-0.50732-0.16895
			C50.21289,180.59961,23.2998,143.23145,23.2998,100.9668c0-54.01904,43.9624-97.9668,98-97.9668
			c53.9834,0,97.99121,43.94043,98.10059,97.95068c0,42.22412-26.91309,79.5542-66.96973,92.90771l-0.44727,0.14844l-0.46191,0.0957
			c-1.13477,0.23438-2.25391,0.35352-3.32617,0.35352c-0.00098,0-0.00098,0-0.00098,0
			c-7.12305,0-12.49414-5.36133-12.49414-12.47168c0-0.98828,0.01074-2.72754,0.02539-5.05273
			c0.03027-4.62793,0.07422-11.60742,0.07422-19.60547c0-7.08301-2.62305-9.97461-3.42676-10.69141l-11.01709-9.83398
			l-11.28564,9.88379c-1.13867,0.99707-2.53662,3.37793-3.04492,7.06934l-0.09766,0.70801
			c0.08301,0.32422,0.14844,0.65625,0.19531,0.99512c0.18799,1.33594,0.0625,2.65723-0.32324,3.89355v5.87793
			c0,4.8584,0.04199,9.5166,0.07129,12.78125c0.0166,1.80469,0.02881,3.19336,0.02881,3.97461
			C106.8999,189.12988,101.50195,194.51855,94.34375,194.51855z M79.74707,56.72656
			c-1.19434,6.41748,0.22363,10.9126,0.79639,12.3667l1.83936,4.66992l-3.4043,3.68799
			c-4.76367,5.16016-7.17871,11.47021-7.17871,18.75537c0,27.08691,13.55518,34.18604,33.9082,36.51123l15.50342,1.77148
			l15.58545-1.77246c20.41016-2.32031,34.00293-9.41699,34.00293-36.51025c0-7.28516-2.41504-13.59521-7.17871-18.75537
			l-3.46094-3.74951l1.94141-4.71924c0.25586-0.62402,2.04199-5.33398,0.67773-12.33447
			c-3.02637,0.86426-7.77637,2.86182-14.47754,7.42383l-3.05273,2.07861l-3.5625-0.97559
			c-6.69141-1.83301-13.58398-2.76221-20.48633-2.76221c-6.83008,0-13.87012,0.95264-20.35938,2.75439l-3.54492,0.98486
			l-3.05469-2.05078C87.56299,59.61768,82.78223,57.61621,79.74707,56.72656z"/>
	</g>
	<g>
		<path stroke="#000000" stroke-miterlimit="10" d="M121.3,11c-49.7,0-90,40.27078-90,89.96664
			c0,39.79478,25.8,73.49656,61.5,85.3969c4.5,0.85681,6.1-1.99927,6.1-4.37933c0-2.18967-0.1-9.23466-0.1-16.75571
			c-25,5.42656-30.3-10.5675-30.3-10.5675c-4.1-10.37711-10-13.13799-10-13.13799c-8.2-5.52177,0.6-5.52177,0.6-5.52177
			c9.1,0.66641,13.8,9.23466,13.8,9.23466c8,13.80441,21,9.80589,26.2,7.42583c0.8-5.80737,3.2-9.80589,5.7-11.99556
			c-20-2.28487-41-9.99629-41-44.4597c0-9.80589,3.5-17.89812,9.3-24.18151c-0.9-2.28487-4-11.42433,0.8-23.80069
			c0,0,7.5-2.38007,24.8,9.23467c7.2-1.99926,14.9-3.04649,22.5-3.04649c7.7,0,15.3,1.04723,22.60001,3.04649
			c17.2-11.70994,24.8-9.23467,24.8-9.23467c4.89999,12.37636,1.8,21.61103,0.89999,23.80069c5.8,6.28339,9.3,14.37563,9.3,24.18151
			c0,34.55862-21,42.17484-41.10001,44.4597c3.2,2.85608,6.10001,8.28264,6.10001,16.66049
			c0,11.99556-0.10001,21.70624-0.10001,24.65752c0,2.38007,1.60001,5.23615,6.2,4.28412c35.7-11.90034,61.5-45.60214,61.5-85.3017
			C211.3,51.27078,171,11,121.3,11z M65,139.14296c-0.2,0.38081-0.9,0.57123-1.5,0.28561s-1-0.95203-0.8-1.33284
			c0.2-0.47601,0.9-0.57121,1.5-0.2856C64.8,138.09573,65.3,138.76215,65,139.14296z M69.4,143.14148
			c-0.4,0.3808-1.3,0.1904-1.8-0.38081c-0.6-0.66641-0.7-1.52324-0.3-1.90405c0.4-0.3808,1.3-0.1904,1.8,0.38081
			C69.8,141.90384,69.9,142.76065,69.4,143.14148z M72.5,148.18723c-0.6,0.38081-1.5,0-2-0.76163
			c-0.6-0.76163-0.6-1.71365,0-2.18967c0.6-0.3808,1.5-0.0952,2,0.76163C73.1,146.85439,73.1,147.80641,72.5,148.18723z
			 M77.6,154.0898c-0.5,0.57123-1.5,0.3808-2.3-0.3808c-0.8-0.66643-1-1.71365-0.5-2.28487s1.5-0.38081,2.3,0.3808
			C77.9,152.47136,78.1,153.51857,77.6,154.0898z M84.2,155.99385c-0.2,0.66641-1.2,1.04724-2.3,0.66641
			c-1-0.2856-1.7-1.14243-1.5-1.80884s1.2-1.04724,2.2-0.66641C83.8,154.4706,84.5,155.32744,84.2,155.99385z M91.8,156.85068
			c0,0.76163-0.8,1.33282-1.9,1.42804c-1.1,0-2-0.57123-2-1.33284c0-0.76163,0.8-1.33282,1.9-1.42804
			C90.9,155.51784,91.8,156.08905,91.8,156.85068z M99.2,156.56506c0.1,0.66641-0.6,1.52325-1.7,1.71365s-2-0.28561-2.2-0.95203
			c-0.1-0.76163,0.6-1.52325,1.7-1.71365C98.2,155.42264,99.1,155.80345,99.2,156.56506z"/>
	</g>
</g>
<g>
	<g>
		<g>
			<path fill="#F7F5F6" d="M52.8999,237.10938c-8.84375,0-15.81006-2.43652-20.70459-7.24121
				c-4.57666-4.49902-7.09521-10.68359-7.09521-17.41895c0-15.30469,11.67822-25.99316,28.3999-25.99316
				c5.52197,0,10.69092,1.00195,14.18164,2.75l5.76758,2.8877l-2.11377,8.26172H73.5v34.56445h-6.84717
				C63.77539,235.79883,58.54102,237.10938,52.8999,237.10938z"/>
			<rect x="63.1001" y="186.74121" fill="#F7F5F6" width="25.1001" height="49.9873"/>
			<polygon fill="#F7F5F6" points="85.6001,236.82422 85.6001,210.54785 76.5,210.54785 76.5,186.74121 120,186.74121 
				120,210.54785 110.7002,210.54785 110.7002,236.82422 			"/>
			<rect x="108.2002" y="186.74121" fill="#F7F5F6" width="46.39941" height="49.9873"/>
			<path fill="#F7F5F6" d="M167.40039,237.2998c-14.21387,0-22.7002-9.21875-22.7002-24.66016v-25.89844h46.09961v26.18359
				C190.7998,228.1875,182.05273,237.2998,167.40039,237.2998z"/>
			<path fill="#F7F5F6" d="M198.2002,237.20508c-4.07813,0-7.8252-0.23828-10.55176-0.66992l-6.74805-1.06934v-46.80273
				l6.42676-1.28906c2.61035-0.52344,8.01563-0.91797,12.57324-0.91797c5.12598,0,9.13672,0.33594,13.28711,2.00684l0.12988,0.05371
				c6.03418,2.55273,9.78223,8.14844,9.78223,14.60254c0,2.3584-0.49902,4.56152-1.43945,6.53125
				c1.64258,2.56836,2.54004,5.62891,2.54004,8.9873c0,5.55762-2.63184,10.70605-7.21973,14.12598l-0.21289,0.15234
				C212.50293,235.88281,206.77637,237.20508,198.2002,237.20508z M201.04492,199.50488L201.04492,199.50488z"/>
		</g>
	</g>
	<g>
		<g>
			<path stroke="#000000" stroke-miterlimit="10" d="M65.4,226.91994c-2.8,0.95203-7.7,2.18967-12.5,2.18967
				c-7.1,0-11.9-1.80885-15.1-4.95055c-3.1-3.04648-4.7-7.14021-4.7-11.70995c0-11.70995,8.9-17.99332,20.4-17.99332
				c4.9,0,8.7,0.95203,10.6,1.90405l-1.9,7.42581c-2.1-0.95203-4.6-1.61844-9-1.61844c-5.7,0-10.6,2.95129-10.6,9.42506
				c0,6.09299,4.3,9.99631,10.6,9.99631c1.5,0,2.9-0.19041,3.4-0.38081V215.686h-5v-7.33061h13.9v18.56454H65.4z"/>
			<path stroke="#000000" stroke-miterlimit="10" d="M80.2,194.74139v33.98738h-9.1v-33.98738H80.2z"/>
			<path stroke="#000000" stroke-miterlimit="10" d="M93.6,202.54802h-9.1v-7.80663H112v7.80663h-9.3v26.27597h-9.1V202.54802z"/>
			<path stroke="#000000" stroke-miterlimit="10" d="M125.3,194.74139v12.37636h12.2v-12.37636h9.10001v33.98738H137.5v-13.4236
				h-12.2v13.4236h-9.1v-33.98738H125.3z"/>
			<path stroke="#000000" stroke-miterlimit="10" d="M161.7,194.74139v18.46933c0,5.33136,1.89999,8.75865,6,8.75865
				s6-3.14169,6-8.75865v-18.46933H182.8v18.18373C182.8,224.06384,177.2,229.3,167.40001,229.3c-9.3,0-14.7-4.95055-14.7-16.66049
				v-17.89812H161.7z"/>
			<path stroke="#000000" stroke-miterlimit="10" d="M188.89999,195.21741c1.89999-0.38081,6.7-0.76163,11-0.76163
				c5.10001,0,7.7,0.3808,10.3,1.42804c2.7,1.14243,4.89999,3.61771,4.89999,7.23541c0,2.85609-1.5,5.61696-5.5,7.045v0.09521
				c4,1.14243,6.60001,4.09372,6.60001,8.37785c0,3.33209-1.7,5.99777-4,7.71143c-2.60001,1.80885-6.8,2.85608-14,2.85608
				c-4.39999,0-7.5-0.2856-9.3-0.57121V195.21741z M197.89999,207.59377h1.89999c4.2,0,6.10001-1.23764,6.10001-3.33209
				c0-1.90407-1.60001-3.04649-4.8-3.04649c-1.7,0-2.60001,0.09521-3.3,0.1904v6.18819H197.89999z M197.89999,222.15979
				c0.7,0.09521,1.60001,0.09521,2.89999,0.09521c3.2,0,5.8-1.14243,5.8-4.09372c0-2.85609-2.7-3.80812-6.39999-3.80812H197.8
				v7.80663H197.89999z"/>
		</g>
	</g>
</g>
</svg>
