<?xml version="1.0" encoding="utf-8"?>
<!-- Generator: Adobe Illustrator 22.0.1, SVG Export Plug-In . SVG Version: 6.00 Build 0)  -->
<svg version="1.1" id="Layer_1" xmlns="http://www.w3.org/2000/svg" xmlns:xlink="http://www.w3.org/1999/xlink" x="0px" y="0px"
	 viewBox="0 0 2397 2500" style="enable-background:new 0 0 2397 2500;" xml:space="preserve">
<style type="text/css">
	.st0{fill:#59666C;}
	.st1{fill:#BCAE79;}
	.st2{display:none;}
	.st3{display:inline;fill:#FFFFFF;}
	.st4{fill:#FFFFFF;}
</style>
<path class="st0" d="M1323.5,1161.5l-6.1,17.2l322.5,520l18.3,12.3l336.9-553.9l-336.9-556.2L1323.5,1161.5L1323.5,1161.5z
	 M644.9,47L315,600.9l342.8,560.6l326.4-560.6l-0.9-22.6L660,58.3L644.9,47z"/>
<path class="st1" d="M644.9,47l339.3,553.9h673.9L1316.4,47H644.9z M657.8,1161.5L990,1711h668l-334.6-549.5H657.8z"/>
<g>
	<g>
		<g class="st2">
			<rect x="330.8" y="1845.9" class="st3" width="392.6" height="538.7"/>
			<path class="st3" d="M604.3,2384.7v-416.3c-0.5-5.1-0.7-10.2-0.7-15.4c0-30.5,8.2-58.5,23.8-81.1c21.7-31.3,55.7-49.3,93.2-49.3
				c32.6,0,62.5,13.4,84.1,37.8c20.8,23.6,32.5,56,33,91.4l0,1.1c0,6.3-0.4,12.6-1.1,18.8v412.9H604.3z"/>
			<path class="st3" d="M913.1,2391.3c-14.4,0-28.6-2.2-42.1-6.7H710.4l4.3-86.1c0.6-12.9,1.3-48,1.3-82.1v-393.9h232.4v120.3
				c28.2,5.4,54.6,19.6,76,41.1c20.7,20.8,36.3,47.7,46.5,80c9.2,29.2,13.8,62.3,13.5,98.3c-0.1,62.7-15,117.2-43.3,157.8
				C1009.6,2365.4,962.9,2391.3,913.1,2391.3z"/>
			<path class="st3" d="M1131.6,2391.3c-58.9,0-109.9-25.7-143.6-72.4c-27.9-38.7-42.6-91-42.6-151.3c0-21.5,3-77.1,30.4-130.4
				c14-27.1,32.2-49.1,54-65.4c27.5-20.5,60.4-31.3,95.2-31.3c32,0,62.4,9.5,87.8,27.4c21.5,15.2,39.2,35.9,52.7,61.8
				c24.3,46.6,29.4,99.2,29.4,135.1c0,20-2,40.2-3.8,50.5l-8.9,50l8.5,67.2l-44.8,27.7C1212.1,2381.1,1174.7,2391.3,1131.6,2391.3z"
				/>
			<path class="st3" d="M1162.1,2384.7v-261.6c0-47-0.4-70.5-1.3-89.8l-4.4-86.2h161.3c12.6-4.4,25.5-6.7,38.6-6.7
				c8.6,0,21.5,0,39,5.8l56.3,18.6v270l-57.2-18.8v168.7H1162.1z"/>
			<path class="st3" d="M1316.6,2384.7v-260.5c0-40.3-0.8-72.2-1.4-92.6l-2.5-84.4h162.5c13.4-4.4,27.4-6.7,41.7-6.7
				c50.7,0,94.9,26.2,121.5,72c19.7,33.9,29.6,78.4,29.6,132.3v239.9H1316.6z"/>
			<path class="st3" d="M1680.7,2391.3c-40.3,0-77.3-17.7-104.1-49.7c-25.9-30.9-40.1-73-40.1-118.5c0-38.8,8.4-73.1,25-102.1
				l-19.3-106l37.5-30.6c16.2-13.2,61.3-44.1,129.6-44.1c56.7,0,104.5,24.5,134.5,69c23,34.1,34.7,79.1,34.7,133.7v91.7
				c0,31.9,1.4,51.4,2,55.8l13.9,94h-169.2C1711.2,2389.1,1696.2,2391.3,1680.7,2391.3z"/>
			<path class="st3" d="M1907.1,2391.3c-47.2,0-90.7-24.5-116.5-65.7c-19.7-31.3-28.8-72.5-28.8-129.8v-7h-22.4v-241.8h22.4v-32.6
				l230.2-79.3v111.9h37.6v160.4l0.4-0.1V2348l-40.6,23.8C1968.2,2384.2,1938.2,2391.3,1907.1,2391.3z"/>
			<path class="st3" d="M2072.8,2391.3c-58.9,0-109.9-25.7-143.6-72.4c-27.9-38.7-42.6-91-42.6-151.3c0-21.5,3-77.1,30.4-130.4
				c14-27.1,32.2-49.1,54-65.4c27.5-20.5,60.4-31.3,95.2-31.3c32,0,62.4,9.5,87.8,27.4c21.5,15.2,39.2,35.9,52.7,61.8
				c24.3,46.6,29.4,99.2,29.4,135.1c0,20-2,40.2-3.8,50.5l-8.9,50l8.5,67.2l-44.8,27.7C2153.4,2381.1,2115.9,2391.3,2072.8,2391.3z"
				/>
		</g>
		<g>
			<polygon class="st4" points="551.1,2324.7 551.1,2176.2 503.2,2176.2 503.2,2324.7 390.8,2324.7 390.8,1905.9 503.2,1905.9 
				503.2,2042.1 551.1,2042.1 551.1,1905.9 663.5,1905.9 663.5,2324.7 			"/>
			<path class="st4" d="M664.3,2324.7v-317.5h18.6c-12-12.6-19.3-31.7-19.3-54.2c0-41.4,23.5-70.4,57.1-70.4
				c17.8,0,33.4,8.3,43.8,23.5c8.4,12.3,13,28.4,13.3,46.6l0,0.3c0,18.1-4.6,34.2-13.2,46.7c-1.9,2.7-3.9,5.2-6.1,7.5h18.2v317.5
				H664.3z"/>
			<path class="st4" d="M913.1,2331.3c-13.8,0-26.8-3.6-38.2-10.3l-0.3,3.6H773.5l1.2-23.1c0.7-13.9,1.4-49.6,1.4-85.1v-333.9h112.4
				v125c10.4-4.7,22-7.2,34.1-7.2c22,0,42.5,8.9,59.3,25.8c28,28.2,43.1,76.4,42.6,135.8c0,50.4-11.2,93.2-32.5,123.7
				C971.8,2314.7,943,2331.3,913.1,2331.3z M888.7,2186.8c1.5,11.3,6.8,18.1,8.9,19.3c1.3,0,3.5-0.5,6.3-5.2
				c2.5-4.3,6.8-14.6,6.8-35.7c0-14.8-2.2-27.5-6.2-35.6c-3.1-6.2-5.5-6.8-7.1-6.9c-2.3,1.2-7.4,8.1-8.6,20
				c-0.3,3.5-0.3,6.8-0.3,10.8v23.4C888.4,2180.9,888.4,2184.1,888.7,2186.8z"/>
			<path class="st4" d="M1131.6,2331.3c-77.8,0-126.2-62.8-126.2-163.8c0-35.6,8.9-74,23.7-102.9c9.8-18.9,22.1-34,36.5-44.8
				c17.3-12.9,37.3-19.5,59.4-19.5c19.8,0,37.8,5.5,53.3,16.5c13.6,9.6,25.1,23.2,34.1,40.5c14.6,27.9,22.6,66.1,22.6,107.4
				c0,14.9-1.5,32-2.9,40l-3.2,18.2h-12.4l9.9,78.8l-12,7.4C1190,2324.3,1163.7,2331.3,1131.6,2331.3z"/>
			<path class="st4" d="M1222.1,2324.7v-201.6c0-48.2-0.4-72.5-1.4-92.8l-1.2-23.1H1322l0.2,4.4c11.4-7.8,23.4-11.1,34-11.1
				c6.6,0,11.9,0,20.3,2.8l15.1,5v143.6l-28.9-9.5c-4.2-1.4-7.1-2.2-11.2-2.2c-7.6,0-15,1.9-16.8,15.8c-0.3,3.4-0.3,7.2-0.3,11.1
				v157.7H1222.1z"/>
			<path class="st4" d="M1495.6,2324.7v-164.3c0-16.2-1.9-24.9-3.4-29.3c-0.8,1.7-1.6,4.1-2.5,7.3l-0.1,0.3
				c-0.6,2.2-0.6,8.7-0.6,12.2v173.8h-112.4v-200.5c0-41.1-0.8-73.6-1.4-94.4l-0.7-22.7h101.9l0.4,5.1c10.8-6.9,24-11.7,40.1-11.7
				c29.1,0,53.8,14.9,69.6,42.1c14.3,24.6,21.5,59,21.5,102.2v179.9H1495.6z"/>
			<path class="st4" d="M1680.7,2331.3c-25.7,0-48.5-12.9-64.1-36.2c-13-19.5-20.2-45-20.2-72c0-36.9,9.5-66.6,28.4-88.6l-17.4-95.4
				l10.1-8.2c11.2-9.2,42.7-30.5,91.7-30.5c36.7,0,66,14.7,84.8,42.5c16.2,24,24.4,57.7,24.4,100.1v91.7c0,27.9,1.1,53.9,2.7,64.6
				l3.7,25.2H1719l-0.3-2C1707.5,2328.4,1694.7,2331.3,1680.7,2331.3z"/>
			<path class="st4" d="M1907.1,2331.3c-26.4,0-50.9-14-65.7-37.6c-13.2-21-19.6-53-19.6-97.9v-67h-22.4v-121.8h22.4v-49.8
				l110.2-37.9v87.8h37.6V2129H1932v46.4c0,15.9,1,23.4,1.9,26.9c3.8-0.2,6.3-0.8,7-1l29.1-9.9l0,30.7v91.6l-10.9,6.4
				C1947.2,2327,1927.2,2331.3,1907.1,2331.3z"/>
			<path class="st4" d="M2072.8,2331.3c-77.8,0-126.2-62.8-126.2-163.8c0-35.6,8.9-74,23.7-102.9c9.8-18.9,22.1-34,36.5-44.8
				c17.3-12.9,37.3-19.5,59.4-19.5c19.8,0,37.8,5.5,53.3,16.5c13.6,9.6,25.1,23.2,34.1,40.5c14.6,27.9,22.6,66.1,22.6,107.4
				c0,14.9-1.5,32-2.9,40l-3.2,18.2h-12.4l9.9,78.8l-12,7.4C2131.2,2324.3,2104.9,2331.3,2072.8,2331.3z"/>
		</g>
	</g>
	<g>
		<g class="st2">
			<rect x="352.8" y="1867.9" class="st3" width="348.6" height="494.7"/>
			<path class="st3" d="M626.3,2362.7v-393.5h0.2c-0.6-5.3-0.9-10.7-0.9-16.2c0-26,6.9-49.7,19.9-68.6
				c17.5-25.3,44.9-39.8,75.2-39.8c54.3,0,94.3,45.2,95.1,107.6l0,0.8c0,5.9-0.4,11.8-1.1,17.4v392.3H626.3z"/>
			<path class="st3" d="M913.1,2369.3c-13.2,0-26.2-2.3-38.5-6.7H733.6l3.2-63c0.7-13.2,1.4-48.7,1.4-83.2v-371.9h188.4v117.9
				c30.5,1,59.6,14.1,82.3,37c18.2,18.3,32,42.2,41.2,71.1c8.5,27,12.8,57.8,12.5,91.6c0,58.2-13.6,108.4-39.3,145.3
				C995.8,2346.8,955.7,2369.3,913.1,2369.3z"/>
			<path class="st3" d="M1131.6,2369.3c-51.7,0-96.3-22.5-125.7-63.3c-25.2-34.9-38.4-82.8-38.4-138.5c0-19.9,2.7-71.3,28-120.3
				c12.4-24.1,28.5-43.6,47.6-57.8c23.7-17.7,52.1-27,82.1-27c27.4,0,53.4,8.1,75.2,23.4c18.6,13.1,34.1,31.3,45.9,53.9
				c22.2,42.6,26.9,91.5,26.9,125c0,17.8-1.7,36.9-3.5,46.6l-8.8,49.5h-1.1l7.6,60.2l-32.7,20.3
				C1204.1,2360.2,1170.5,2369.3,1131.6,2369.3z"/>
			<path class="st3" d="M1184.1,2362.7v-239.6c0-47.4-0.4-71.2-1.4-90.9l-3.2-63.1h142.1c11.2-4.4,22.9-6.7,34.7-6.7
				c8,0,17.9,0,32.2,4.7l41.2,13.6v223.6l-57.2-18.8v177.1H1184.1z"/>
			<path class="st3" d="M1338.6,2362.7v-238.5c0-40.6-0.8-72.7-1.4-93.3l-1.8-61.8h143.6c12-4.4,24.8-6.7,38-6.7
				c42.6,0,79.9,22.2,102.4,61c17.7,30.5,26.6,71.3,26.6,121.3v217.9H1338.6z"/>
			<path class="st3" d="M1680.7,2369.3c-69.7,0-122.2-62.8-122.2-146.2c0-44.2,12-76.1,26.6-98.6l-0.6-0.2l-18.3-100.4l27.4-22.4
				c14.4-11.8,54.5-39.1,115.7-39.1c49.2,0,90.5,21,116.3,59.3c20.5,30.4,30.9,71.3,30.9,121.4v91.7c0,32.2,1.3,52.9,2.2,59.1
				l10.2,68.8h-147.2C1709,2367.1,1695.2,2369.3,1680.7,2369.3z M1725.9,2239.5L1725.9,2239.5z"/>
			<path class="st3" d="M1907.1,2369.3c-39.5,0-76.1-20.7-97.8-55.3c-17.4-27.6-25.5-65.1-25.5-118.1v-29h-22.4v-197.8h22.4v-38.9
				l186.2-64.1v103.1h37.6v169.2l0.4-0.1v197.2l-29.7,17.4C1960.4,2363.3,1934.4,2369.3,1907.1,2369.3z"/>
			<path class="st3" d="M2072.8,2369.3c-51.7,0-96.3-22.5-125.7-63.3c-25.2-34.9-38.4-82.8-38.4-138.5c0-19.9,2.7-71.3,28-120.3
				c12.4-24.1,28.5-43.6,47.6-57.8c23.7-17.7,52.1-27,82.1-27c27.4,0,53.4,8.1,75.2,23.4c18.6,13.1,34.1,31.3,45.9,53.9
				c22.2,42.6,26.9,91.5,26.9,125c0,17.8-1.7,36.9-3.5,46.6l-8.8,49.5h-1.1l7.6,60.2l-32.7,20.3
				C2145.4,2360.2,2111.7,2369.3,2072.8,2369.3z"/>
		</g>
		<g>
			<path d="M481.2,1927.9v136.2h91.9v-136.2h68.4v374.7h-68.4v-148.4h-91.9v148.4h-68.4v-374.7H481.2z"/>
			<path d="M755.8,1953c0,26.7-13,48.4-35.4,48.4c-21.7,0-34.7-21.7-34.7-48.4c0-27.2,13-48.4,35.1-48.4
				C742.7,1904.6,755.4,1925.7,755.8,1953z M686.3,2302.7v-273.5h68.4v273.5H686.3z"/>
			<path d="M796.6,2302.7c0.7-14.5,1.4-50.6,1.4-86.2v-311.9h68.4v152.9h0.7c10.9-21.7,30.7-35,55.3-35c43.8,0,80.7,49.5,79.9,139.5
				c0,100.1-46.3,147.3-89.3,147.3c-20.6,0-43.4-11.7-55.7-43.4h-0.7l-2.5,36.7H796.6z M866.4,2177c0,4.4,0,8.3,0.4,12.2
				c2.5,20,14.5,38.9,30.4,38.9c21,0,35.4-21.7,35.4-62.8c0-35-10.9-64.5-35.8-64.5c-14.8,0-27.9,17.2-30,40
				c-0.4,4.4-0.4,8.3-0.4,12.8V2177z"/>
			<path d="M1092.2,2200.9c2.5,20.6,25.3,31.7,48.8,31.7c17.7,0,34.7-2.2,53.2-11.1l8.7,68.9c-24.2,15-48.5,18.9-71.3,18.9
				c-66.6,0-104.2-55-104.2-141.8c0-53.9,24.2-145.1,97.7-145.1c63.7,0,87.9,72.8,87.9,142.3c0,14.5-1.4,30-2.5,36.1H1092.2z
				 M1149.7,2130.3c0-12.2-5.4-41.1-27.9-41.1c-21,0-29.3,25.6-30.7,41.1H1149.7z"/>
			<path d="M1244.1,2123.1c0-48.4-0.4-72.8-1.4-94h58.2l2.2,52.8h1.4c9.8-45,35.1-59.5,51.7-59.5c5.8,0,8.3,0,13.4,1.7v97.3
				c-5.1-1.7-10.5-3.3-18.1-3.3c-23.5,0-36.2,15-38.7,35.6c-0.4,4.4-0.4,8.9-0.4,13.3v135.7h-68.4V2123.1z"/>
			<path d="M1398.6,2124.2c0-38.9-0.7-70.6-1.4-95.1h59l2.9,36.1h1.4c5.4-11.7,22.8-42.8,56.4-42.8c42.7,0,69.1,42.3,69.1,122.3
				v157.9h-68.4v-142.3c0-35.6-8.3-54.5-25.3-54.5c-14.8,0-21,16.1-23.9,26.7c-1.4,5-1.4,12.2-1.4,18.3v151.8h-68.4V2124.2z"/>
			<path d="M1737.8,2302.7l-3.6-23.4h-1.4c-13,22.2-31.8,30-52.1,30c-39.1,0-62.2-41.7-62.2-86.2c0-73.4,42.7-107.3,110-107.3v-1.7
				c0-10-4.3-22.2-31.1-22.2c-19.9,0-42.3,11.7-53.9,21.7l-11.9-65.6c11.6-9.5,38-25.6,77.8-25.6c61.1,0,87.2,47.3,87.2,120.6v91.7
				c0,28.9,1.1,55.6,2.9,67.8H1737.8z M1730.6,2179.2c-30,0-44.5,11.7-44.5,33.9c0,15.6,6.9,24.5,19.5,24.5
				c10.5,0,21.3-12.2,24.2-28.4c0.7-4.4,0.7-10,0.7-15V2179.2z"/>
			<path d="M1910,1950.2v78.9h37.6v77.8H1910v68.4c0,33.4,3.6,48.9,21.7,48.9c7.2,0,13-1.1,16.3-2.2v78.9
				c-7.6,4.4-23.2,8.3-40.9,8.3c-20.6,0-37.6-12.2-47-27.2c-10.9-17.2-16.3-45.6-16.3-86.2v-89h-22.4v-77.8h22.4V1973L1910,1950.2z"
				/>
			<path d="M2033.4,2200.9c2.5,20.6,25.3,31.7,48.8,31.7c17.7,0,34.7-2.2,53.2-11.1l8.7,68.9c-24.2,15-48.5,18.9-71.3,18.9
				c-66.6,0-104.2-55-104.2-141.8c0-53.9,24.2-145.1,97.7-145.1c63.7,0,87.9,72.8,87.9,142.3c0,14.5-1.4,30-2.5,36.1H2033.4z
				 M2090.9,2130.3c0-12.2-5.4-41.1-27.9-41.1c-21,0-29.3,25.6-30.7,41.1H2090.9z"/>
		</g>
	</g>
</g>
</svg>
