<?xml version="1.0" encoding="utf-8"?>
<!-- Generator: Adobe Illustrator 22.0.1, SVG Export Plug-In . SVG Version: 6.00 Build 0)  -->
<svg version="1.1" id="Layer_1" xmlns="http://www.w3.org/2000/svg" xmlns:xlink="http://www.w3.org/1999/xlink" x="0px" y="0px"
	 viewBox="0 0 512 116" style="enable-background:new 0 0 512 116;" xml:space="preserve">
<style type="text/css">
	.st0{display:none;}
	.st1{display:inline;}
	.st2{fill:#FFFFFF;}
	.st3{fill:#1A1918;}
	.st4{fill:#21609B;}
</style>
<g>
	<g>
		<g class="st0">
			<g class="st1">
				<path class="st2" d="M423.1,77.7c1.1-3.6,2.4-8.9,2.3-10.9c0-1.2-0.9-3.4-1.7-5.5c-0.6-1.5-1.2-2.9-1.7-4.6
					c-1.5-4.6-3.4-13-3.4-13.4l-2.4-11h35.7l21.1-25.8l43.3,0.2l-12.2,14.7c0,0-37,44.4-40,48c-0.4,0.5-0.9,1-1.3,1.5
					c-0.2,0.2-0.6,0.7-0.8,0.9c-0.9,1.9-2.3,6.9-3.1,10.5l-1.6,7l-37.7,0.2L423.1,77.7z M443.3,65c0,0.5,0.1,0.9,0.1,1.4
					c0,1.3-0.1,2.7-0.3,4.3c0.3-1.1,0.6-2.1,1-3L443.3,65z M439.1,51.3c0.3,1,0.8,2.1,1.3,3.3c0,0.1,0.1,0.1,0.1,0.2l-1.2-4.4h-0.4
					C438.9,50.8,439,51.1,439.1,51.3z"/>
				<path class="st2" d="M367.6,89.4l2.5-11c0.1-0.5,10.5-46.2,13.1-54.8c2.6-8.7,11.6-8.7,17-8.7c0.7,0,1.4,0,2.1,0
					c0.9,0,1.9,0,3,0h12.6c1.8,0,3.7,0,5.6-0.1c2.1-0.1,4.1-0.1,6-0.1c5,0,10.2,0.3,14.3,2.5l0.1,0c6.1,3.3,9,12.1,10.4,18.8
					l2.2,10.7l-10.9,0.1c-2,0-19.8,0.3-29.8,0.3h-2.1l-11,42.3H367.6z"/>
				<path class="st2" d="M355.2,90.2c-13.3,0-23.5-0.7-30.3-2.2c-4.5-1-8.6-3-11.5-5.7c-0.8-0.8-1.4-1.5-1.8-2
					c-0.1-0.1-0.2-0.2-0.2-0.3c-0.2-0.3-2.2-2.6-3.3-5.3c-4.9-11.5,0.5-29.2,4-36.9l0-0.1c0.5-1,1-2.3,1.7-3.6
					c0.2-0.3,0.3-0.6,0.5-1l0-0.1c0.5-1,1.1-2.1,1.9-3.2c0.6-0.8,1.2-1.4,1.5-1.7c0.6-0.8,1.3-1.5,1.8-2c1.9-2,3.8-3.2,5.7-4.5
					l0.3-0.2c7.1-4.7,17.6-7.5,28.6-7.5c2.1,0,4.2,0.1,6.3,0.3c5.6,0.5,15.9,2.4,21.7,9.6c1.9,2.3,2.7,5.1,3.2,7.1
					c0.1,0.4,0.2,0.7,0.3,1c2.7,8.6-0.7,23.4-1.8,27.8l-1.8,6.9l-0.5,0l-5.9,23l-6.7,0.3C368.8,90,363,90.2,355.2,90.2z"/>
				<path class="st2" d="M274.5,89.5c-10.2,0-21.7-0.9-27.9-11.3c-6.1-10.1-2.7-22.9-0.1-33.1c0.4-1.4,0.7-2.7,1-3.9
					c1.4-5.8,4.2-17.1,4.7-19.1l1.7-7.1l35.3-0.3l-2.6,11.2c0,0.2-4.8,20.3-6.7,30c-0.1,0.6-0.3,1.2-0.4,1.8c0.3,0,0.6,0,0.8,0
					c0.3,0,0.8,0,1.3,0l11.6-42.8l34.6-0.2l-2.7,11.1c-0.1,0.4-9.1,38.3-13.7,56.7l-1.7,6.8H284c-1.6,0-3.3,0-4.8,0
					C277.5,89.4,276,89.5,274.5,89.5z M261.1,64.6c0,1.8,0.2,3.3,0.9,4.3c0.4,0.6,1.1,1.1,2.1,1.5c-0.5-0.6-1-1.3-1.5-2.1
					C261.9,67,261.4,65.8,261.1,64.6z"/>
				<path class="st2" d="M207.8,90c-14.9,0-29.1-0.7-38.4-9.3c-5.6-5.2-8.5-12.9-9.3-17.8c-1.3-8.5,0.5-17.4,2.2-23.3
					c2-6.9,4.4-12.4,7.6-17.3c9.6-14.8,24.8-22.7,44-22.7c2.3,0,4.6,0.1,7,0.3c5.6,0.5,12.8,2.6,17.5,5c0.6,0.3,1,0.6,1.7,1l0.2,0.1
					c7.5,4.3,13.7,13.6,15.1,22.6c1.6,10.4-1.8,20.8-5.7,30.1c1,0.4,2,1.1,2.9,2l0.3,0.4l0.3,0.4c3,3.9,1.9,7.7,0.4,13.1
					c-0.6,2.2-1.8,6.2-3.1,8.8c-2.5,5.1-6.2,6.3-8.8,6.4c-4.2,0.1-17.5,0.2-22.9,0.2c-1.7,0-3.5,0-5.2,0l-0.8,0
					C211.1,90,209.4,90,207.8,90z M197.6,56c0.5,0.3,2.4,1.2,10.1,1.2c1.5,0,3,0,4.6,0l0.2,0c0.8-2.4,1.6-5,2.4-7.4l0.4-1.2
					c0.4-1.1,0.8-2.3,1.2-3.5c1.1-3.4,2.4-7.1,2.3-9.2c-0.1-0.8-1.5-2.5-2.3-2.9c-1.2-0.4-2.5-0.6-3.8-0.6c-4.4,0-8,2.1-9,3.1
					c-2.7,2.6-3.7,5.7-5.2,12.1C197.4,52.1,197.1,54.9,197.6,56z"/>
				<path class="st2" d="M133.8,46.5l3.4-11.5c0.5-1.8,1-3.6,1.5-5.4c0.8-3,1.6-5.9,2.5-8.6l2.1-6.1h6.5c2.8,0,5.5,0,8.2,0l0.2,0
					c2.9,0,5.9,0,9.1,0h11.5L175.9,26c-0.4,1.7-0.8,3.5-1.3,5.3c-0.7,2.8-1.3,5.7-2.1,8.5l-1.8,6.7H133.8z"/>
				<path class="st2" d="M127.2,113c-2.1,0-4.2-0.1-6.3-0.1l-0.2,0c-1.4,0-2.7-0.1-4.2-0.1l-12-0.2l3.5-11.4
					c0.8-2.5,1.6-5.2,2.4-7.9l0.1-0.2c0.7-2.4,1.4-4.7,2-6.7l2.2-7.1l7.4,0.8c0.6,0.1,1.2,0.1,1.6,0.1c1.6,0,2.4,0,4.5-9.9
					c0.3-1.5,0.6-3,1-4.5c1.6-6.4,6.3-24,7.3-27.1l2.1-6.1h34.9l-2.2,10.8c-2.2,10.7-6.7,28.9-10.5,42.4l-0.2,0.6
					c-2.3,8.3-4.6,16.2-13,22c-0.7,0.5-1.5,0.9-2.4,1.2c-4.3,2.4-11.4,3.1-12.2,3.2C131.4,112.9,129.5,113,127.2,113z M141.5,87.6
					c-1.3,2.3-2.9,4.5-5,6.2c0,0,0,0,0,0c0.5-0.3,1-0.6,1.6-0.8C139.7,91.8,140.6,90.2,141.5,87.6z"/>
				<g transform="translate(0.000000, 8.827586)">
					<path class="st2" d="M69.5,89.7c-10.4,0-18.7-2.8-21.8-4.1C36.2,81,25.8,72.3,20,62.4c-7.8-13.5-10.5-34.8,7.9-50.5l2.5-2.2
						h8.7l1.4,2.6H45l-2.2,6.2c0.1,2.9-1.4,5.2-2.2,6.4l0,0l-0.1,0.4c-3.4,9.5,0.1,16.9,3.7,21.6c7.2,9.3,20.4,15.3,33.7,15.3
						c1.3,0,2.6-0.1,3.9-0.2c5.7-0.5,12.9-3.5,16.8-6.9l1.8-1.6l13.5,9.7l-1.8,3.8l-0.1,0.1c-8.3,14.4-22.6,22.1-41.3,22.5
						C70.2,89.7,69.9,89.7,69.5,89.7z"/>
					<path class="st2" d="M80.5,65.4c-2.2,0-4.4-0.1-6.7-0.4c-17.2-2-33.3-17.2-35-33.1C37.4,19.2,43.3,11.4,49,5l1.8-2l14,10.3
						l-1.4,2.3c-1.5,2.5-1.6,3.7-1.6,3.8c-0.7,5.8,2,10.2,4.4,12.9c4.8,5.5,12.8,9,20.3,9.1l0.1,0c4.9,0,10.6-2.1,13.7-5l1.8-1.7
						l13.6,9.7l-1,2.2C109.4,58.4,96.6,65.4,80.5,65.4L80.5,65.4z"/>
					<path class="st2" d="M89.2,44.3c-14.5,0-22.3-8.9-25-12.7c-1.2-1.7-2.6-4.8-3-6c-2.6-7.8-1.1-18.9,6.7-25.1l26.5-20.9
						L81.8,10.9c-0.7,1.8-0.7,3.7-0.5,4.2c0.1,0.4,0.9,2.1,1.5,2.9c1.2,1.5,1.4,1.6,3.9,3l0.3,0.2c0.8,0.4,1.5,0.7,1.7,0.8l0.3,0.1
						c1,0.3,2,0.5,3.4,0.5c2.5,0,5.3-1,8.6-2.9l26.3-15.8l-13.6,27.5c-2.7,5.5-12.4,11.4-17.3,12.3C94,44,91.5,44.3,89.2,44.3z"/>
				</g>
			</g>
		</g>
		<g>
			<g>
				<path class="st2" d="M427.6,83.5l1.2-3.9c0.7-2.4,2.7-9.3,2.6-12.8c-0.1-2.3-1.1-4.9-2.2-7.6c-0.5-1.3-1.1-2.7-1.6-4.2
					c-1.4-4.3-3.2-12.5-3.3-12.8l-0.8-3.7h24.7l1.6,5.8l25.8-31.6l27.7,0.1l-4.1,4.9c0,0-37,44.4-40,48c-0.3,0.4-0.7,0.8-1.1,1.2
					c-0.7,0.7-1.4,1.5-1.7,2.2c-1.4,3-3.1,9.6-3.6,11.9l-0.5,2.3L427.6,83.5z M431.1,44.5c0.7,2.7,1.6,6.3,2.3,8.7
					c0.4,1.2,0.9,2.5,1.4,3.8c1.2,3.1,2.5,6.2,2.6,9.6c0.1,3.2-0.9,7.6-1.7,10.9l11.9-0.1c0.7-2.9,2.1-8,3.5-10.9
					c0.7-1.5,1.9-2.7,2.8-3.7c0.3-0.3,0.6-0.6,0.8-0.9c2.4-2.9,26.2-31.5,35.9-43.1l-12.1-0.1L447.3,57l-3.5-12.5H431.1z"/>
				<path class="st2" d="M398,83.4h-22.9l0.8-3.7c0.4-1.9,10.5-46.1,13-54.5c1.3-4.5,6.3-4.5,13.2-4.4c0.9,0,1.9,0,3,0h12.6
					c1.9,0,3.8-0.1,5.8-0.1c7-0.2,13.5-0.3,17.3,1.7l0,0c4.6,2.4,6.9,11.9,7.5,14.8l0.7,3.6l-3.6,0c-0.2,0-19.4,0.3-29.7,0.3h-6.7
					L398,83.4z M382.6,77.4h10.7l11-42.3h11.4c7.5,0,19.7-0.1,25.8-0.2c-1.1-3.6-2.5-6.7-3.5-7.2c-2.4-1.3-8.7-1.1-14.3-1
					c-2,0-4,0.1-5.9,0.1h-12.6c-1.1,0-2.1,0-3.1,0c-3,0-6.5-0.1-7.5,0.4C392.5,34.5,385.1,66.5,382.6,77.4z"/>
				<path class="st2" d="M355.2,84.2c-8.9,0-21.1-0.4-29.1-2c-3.4-0.7-6.5-2.2-8.6-4.2c-0.5-0.5-0.8-0.9-1.2-1.4
					c-0.1-0.2-0.3-0.3-0.4-0.5c-0.4-0.5-1.7-2.2-2.4-3.7c-3.7-8.8,0.4-24.4,3.9-32.1l0-0.1c0.4-0.9,0.9-2.1,1.5-3.1
					c0.2-0.4,0.5-0.9,0.7-1.3c0.4-0.9,0.8-1.7,1.3-2.3c0.3-0.4,0.7-0.8,0.9-1.1c0.1-0.1,0.2-0.2,0.3-0.3c0.5-0.7,1.1-1.3,1.6-1.8
					c1.4-1.5,3-2.5,4.7-3.6l0.3-0.2c6.2-4.1,15.4-6.5,25.3-6.5c1.9,0,3.8,0.1,5.7,0.3c4.7,0.4,13.1,1.9,17.6,7.4
					c1.1,1.4,1.7,3.3,2.1,5c0.1,0.4,0.2,0.8,0.3,1.2c2.3,7.4-1.5,22.8-1.9,24.5l-0.6,2.3l-2.4,0c-0.1,0-9.5-0.1-19.2-0.1
					c-5.6,0-10.2,0-13.6,0.1c-0.5,0-1,0-1.5,0l-2.1,0c-1.6,0-2.5,0.1-3,0.1c0.2,0.6,0.8,1.7,1.6,2.3c1.1,0.8,4.1,1.1,5.2,1.2
					c0.3,0,0.5,0,0.7,0.1c3.2,0.4,7.9,0.5,14.1,0.5c7.6,0,14.6-0.3,14.6-0.3l4-0.2l-5,19.5l-2.2,0.1C368.8,84,362.8,84.2,355.2,84.2
					z M357.7,42.6c-0.2-0.3-0.4-0.7-0.7-1.1c-1.1-1.5-1.8-2.1-6.6-2.2c-0.3,0-0.5,0-0.8,0c-5.5,0-8.1,1.6-9.3,3.2L357.7,42.6z"/>
				<path class="st2" d="M274.4,83.5c-9.6,0-18.2-0.9-22.7-8.4c-4.8-8-1.8-19.4,0.6-28.5c0.4-1.4,0.7-2.7,1-4
					c1.5-6.3,4.7-19.3,4.7-19.4l0.6-2.3l23-0.2l-0.9,3.7c0,0.2-4.8,20.3-6.7,30.3c-0.2,0.9-0.4,1.7-0.6,2.5c-0.5,2.2-1,4.1-0.4,5.1
					c0.5,0.9,1,1.2,7.1,1.3c1.2,0,4,0,6,0l11.6-42.9l22.4-0.1l-0.9,3.7c-0.1,0.4-9.1,38.3-13.7,56.7l-0.6,2.3H284c-1.7,0-3.4,0-5,0
					C277.4,83.4,275.9,83.5,274.4,83.5z M263.3,26.8c-1,4-3,12.4-4.2,17.1c-0.3,1.3-0.7,2.7-1,4.1c-2.1,8.1-4.7,18.1-1.2,23.9
					c3.3,5.4,10.5,5.6,22,5.4c1.7,0,3.4,0,5.1,0h16.4c3.8-15.4,10-41.1,12.2-50.6l-10.2,0.1l-11.6,42.9l-2.3,0c-0.3,0-6.5,0-8.5,0
					c-6.1-0.1-9.9-0.2-12.2-4.4c-1.8-3.1-0.9-6.5-0.2-9.5c0.2-0.7,0.4-1.5,0.5-2.2c1.5-7.4,4.4-20.4,5.9-26.8L263.3,26.8z"/>
				<path class="st2" d="M207.8,84c-13.7,0-26.6-0.6-34.3-7.7c-4.2-3.9-6.8-10.1-7.4-14.3c-1.1-7.5,0.5-15.4,2-20.7
					c1.8-6.3,4-11.3,6.8-15.7c8.4-13,21.9-19.9,39-19.9c2.1,0,4.2,0.1,6.4,0.3c4.8,0.4,11.3,2.3,15.3,4.3c0.3,0.2,0.6,0.4,1.1,0.7
					c0.2,0.1,0.3,0.2,0.4,0.3c6,3.4,11.2,11.1,12.3,18.4c1.7,11.1-3.5,22.8-8.1,33.2c-0.2,0.4-0.3,0.7-0.5,1.1c0.1,0,0.2,0,0.4,0
					c0.8,0,1.5,0,2.1,0c0.5,0,1,0,1.4,0c1.2,0,2.5,0,3.5,1.1l0.1,0.1l0.1,0.1c0.9,1.2,1,2.1-0.6,7.8c-0.5,1.6-1.6,5.5-2.7,7.8
					c-0.4,0.9-1.4,2.9-3.6,3c-4.1,0.1-17.4,0.2-22.7,0.2c-1.9,0-3.7,0-5.6,0C211.4,84,209.6,84,207.8,84z M212.7,26.3
					c-5.6,0-10.8,2.5-13.2,4.8c-3.7,3.6-5.2,7.7-6.9,15.1c-1,4.5-2,9.6-0.3,12.8c1.9,3.5,7.3,4.2,15.4,4.2c1.6,0,3.2,0,4.8,0
					c1.4,0,2.8,0,4.2-0.1c1.4-3.6,2.7-7.7,3.9-11.6l0.4-1.2c0.4-1.1,0.7-2.2,1.1-3.4c1.4-4.1,2.8-8.3,2.6-11.5
					c-0.3-3.9-4.3-7.6-6.3-8.2C216.7,26.6,214.7,26.3,212.7,26.3z"/>
				<path class="st2" d="M166.2,40.5h-24.4l1.1-3.8c0.5-1.9,1.1-3.8,1.5-5.6c0.8-2.9,1.5-5.6,2.4-8.2l0.7-2h2.2c2.8,0,5.6,0,8.4,0
					c2.9,0,5.9,0,9.2,0h3.8l-0.9,3.7c-0.4,1.7-0.9,3.5-1.3,5.4c-0.7,2.8-1.3,5.7-2,8.3L166.2,40.5z M149.8,34.5h11.8
					c0.5-1.9,1-3.9,1.4-5.9c0.1-0.6,0.3-1.2,0.4-1.7c-1.8,0-3.6,0-5.4,0c-2.1,0-4.1,0-6.1,0c-0.6,1.8-1.1,3.8-1.6,5.8
					C150.1,33.2,149.9,33.9,149.8,34.5z"/>
				<path class="st2" d="M127.2,107c-2,0-4-0.1-6.1-0.1c-1.4,0-2.9-0.1-4.4-0.1l-4-0.1l1.2-3.8c0.8-2.6,1.6-5.4,2.5-8.2
					c0.7-2.4,1.4-4.7,2-6.7l0.7-2.4l2.5,0.3c8.9,1,10.4-4,12.6-14.5c0.3-1.4,0.6-2.9,1-4.4c1.6-6.5,6.3-23.9,7.2-26.6l0.7-2h23.2
					l-0.7,3.6c-2.2,10.6-6.6,28.6-10.4,41.9l-0.2,0.6c-2.2,7.9-4,14.1-10.7,18.7c-0.6,0.4-1.1,0.6-1.4,0.7
					c-2.8,1.9-10.2,2.7-10.3,2.7C130.8,106.9,129.1,107,127.2,107z M143.2,103.8C143.2,103.8,143.2,103.8,143.2,103.8
					C143.2,103.8,143.2,103.8,143.2,103.8z M120.8,100.9c0.2,0,0.4,0,0.5,0c3.8,0.1,7.4,0.2,10.6-0.1c2.7-0.3,6.6-1.2,7.5-1.7
					c0.6-0.5,1.2-0.7,1.6-0.8c4.8-3.4,6.1-8.2,8.1-15.3l0.2-0.6c3.3-11.8,7.2-27.3,9.5-37.9h-11.5c-1.6,5.4-5.1,18.7-6.4,24
					c-0.3,1.4-0.6,2.8-0.9,4.2c-1.8,8.7-4.1,19.3-16.5,19.3c0,0-0.1,0-0.1,0c-0.4,1.4-0.9,2.9-1.3,4.4
					C121.7,97.9,121.3,99.4,120.8,100.9z M140.9,98.5C140.9,98.5,140.9,98.5,140.9,98.5C140.9,98.5,140.9,98.5,140.9,98.5z"/>
				<g transform="translate(0.000000, 8.827586)">
					<path class="st2" d="M69.6,83.7c-6.6,0-13.9-1.3-19.7-3.6c-10.3-4.1-19.6-11.8-24.7-20.7c-7-12-8.9-29.6,6.6-42.9l0.8-0.7h2.9
						l0.9,1.6c0.9,1.6,0.1,2.9-0.9,4.3c-0.1,0.2-0.3,0.5-0.4,0.6l-0.4,1.1c-4.3,12,0.1,21.4,4.6,27.2C48.6,62.5,65.8,69.5,82.3,68
						c7.1-0.6,15.4-4.1,20.2-8.4l4.7,3.4l-0.5,1.2C99.5,76.6,87,83.4,70.5,83.7C70.2,83.7,69.9,83.7,69.6,83.7z M27,33.9
						c-2.3,7.9-0.3,16.1,3.4,22.4c4.5,7.7,12.6,14.5,21.8,18.2c5.4,2.1,12.2,3.3,18.2,3.2c7.8-0.1,14.5-1.9,20.1-5.2
						c-2.5,0.7-5.1,1.2-7.6,1.5C64.4,75.6,45,67.7,34.6,54.2C29.8,48,27.2,41,27,33.9z"/>
					<path class="st2" d="M80.5,59.4c-2,0-4-0.1-6-0.4c-14.7-1.7-28.3-14.5-29.7-27.8C43.6,21,48.2,14.9,53.5,9l4.8,3.5
						c-1.9,3.3-2.4,5.4-2.4,6.2c-0.9,8,2.7,14,5.9,17.6c5.9,6.7,15.6,11,24.7,11.1h0c6.5,0.1,13.7-2.6,17.9-6.6l4.8,3.4
						C104.9,53.8,94,59.4,80.5,59.4z M50.5,28c0,0.8,0,1.7,0.1,2.7C51.8,41,63.5,51.7,75.2,53.1c3.1,0.4,6.1,0.4,8.9,0.2
						c-10.1-0.7-20.2-5.6-26.8-13C53.9,36.5,51.7,32.4,50.5,28z"/>
					<path class="st2" d="M89.3,38.3c-11.6,0-17.8-6.8-20.1-10.2c-0.8-1.1-2-3.7-2.3-4.5c-1.9-5.8-0.9-14,4.7-18.5l8.8-7L76.2,8.6
						c-1.2,3-1.2,6.3-0.7,8.1c0.3,1.2,1.5,3.6,2.6,5c2,2.5,3,3.1,5.9,4.6l0.3,0.2c1.3,0.7,2.6,1.2,2.9,1.3l0.4,0.1
						c2.8,0.7,8,2.1,16.6-3l8.8-5.3l-4.5,9.2c-1.7,3.4-9.3,8.3-13,9C93.2,38.1,91.1,38.3,89.3,38.3z"/>
				</g>
			</g>
		</g>
	</g>
	<g>
		<g class="st0">
			<g class="st1">
				<path class="st2" d="M423.5,86.5l2.5-7.8c1.1-3.3,2.5-9.2,2.4-11.8c0-1.8-1-4.1-1.9-6.5c-0.6-1.4-1.1-2.8-1.6-4.4
					c-1.4-4.5-3.3-12.8-3.4-13.1l-1.6-7.3h30.7l0.7,2.4l23-28.2l35.5,0.2l-8.2,9.8c0,0-37,44.4-40,48c-0.4,0.4-0.8,0.9-1.2,1.3
					c-0.4,0.5-1.1,1.1-1.2,1.4c-1.2,2.4-2.7,8.2-3.4,11.3l-1.1,4.6L423.5,86.5z M434.9,47.5c0.4,1.7,0.9,3.4,1.3,4.7
					c0.4,1.1,0.8,2.3,1.3,3.6c1.3,3.2,2.7,6.7,2.8,10.7c0.1,2.3-0.4,5.2-0.9,7.9l5.8,0c0.8-3,2-6.7,3.2-9.2c0.9-1.9,2.3-3.4,3.3-4.4
					c0.3-0.3,0.5-0.5,0.7-0.8c2.1-2.5,20.8-24.9,31.9-38.2l-4.3,0l-34,41.7l-4.5-15.9C441.5,47.5,434.9,47.5,434.9,47.5z"/>
				<path class="st2" d="M400.3,86.4h-28.9L373,79c0.4-1.9,10.5-46.2,13-54.7c2-6.7,8.9-6.6,16.1-6.5c0.9,0,1.9,0,3,0h12.6
					c1.8,0,3.8,0,5.7-0.1c7.7-0.2,14.3-0.4,18.8,2l0,0c5.3,2.9,7.9,11.8,9,16.8l1.5,7.1l-7.3,0.1c-0.2,0-19.4,0.3-29.8,0.3h-4.4
					L400.3,86.4z M386.4,74.4h4.6l11-42.3h13.7c6,0,15.1-0.1,21.6-0.2c-0.3-0.7-0.6-1.3-0.9-1.7c-2.1-0.7-8.6-0.6-12.6-0.5
					c-2,0-4,0.1-6,0.1h-12.6c-1.1,0-2.1,0-3.1,0c-1.7,0-3.7,0-5.1,0C394.6,38.6,389.2,62.3,386.4,74.4z M436.1,30L436.1,30L436.1,30
					z"/>
				<path class="st2" d="M355.2,87.2c-13.1,0-23.1-0.7-29.7-2.1c-4-0.8-7.5-2.6-10-5c-0.6-0.6-1.1-1.2-1.5-1.7
					c-0.1-0.1-0.2-0.3-0.3-0.4c-0.1-0.1-1.9-2.2-2.8-4.5c-4.1-9.8,0.1-26,3.9-34.5l0-0.1c0.4-1,1-2.2,1.6-3.3
					c0.2-0.4,0.4-0.8,0.6-1.2c0.5-0.9,0.9-1.9,1.6-2.8c0.5-0.6,0.9-1.1,1.2-1.4l0.1-0.1c0.6-0.7,1.2-1.4,1.7-1.9
					c1.7-1.7,3.4-2.9,5.2-4.1l0.3-0.2c6.7-4.4,16.5-7,26.9-7c2,0,4,0.1,6,0.3c5.1,0.5,14.5,2.2,19.6,8.5c1.5,1.8,2.2,4.2,2.7,6.1
					c0.1,0.4,0.2,0.7,0.3,1.1c2.5,8-1.1,23.2-1.8,26.1l-1.2,4.6l-0.5,0l-5.9,23.2L369,87C368.7,87,362.9,87.2,355.2,87.2z"/>
				<path class="st2" d="M274.5,86.5c-10.2,0-20-1-25.3-9.9c-5.4-9.1-2.3-21.1,0.3-30.8c0.4-1.4,0.7-2.7,1-3.9
					c1.5-6.3,4.7-19.3,4.7-19.4l1.1-4.5l29.2-0.2l-1.7,7.4c0,0.2-4.8,20.3-6.7,30.2c-0.2,0.9-0.4,1.8-0.6,2.7
					c-0.2,0.8-0.5,1.8-0.6,2.6c1.2,0.1,3.2,0.2,4.4,0.2c0.7,0,2.2,0,3.7,0l11.6-42.9l28.5-0.1l-1.8,7.4c-0.1,0.4-9.1,38.3-13.7,56.7
					l-1.1,4.6H284c-1.7,0-3.4,0-5,0C277.5,86.4,276,86.5,274.5,86.5z M265.7,29.8c-1.1,4.4-2.7,10.9-3.6,14.8
					c-0.3,1.3-0.7,2.7-1.1,4.2c-1.9,7.1-4.4,16.9-1.6,21.6c2.4,4,8.9,4.1,19.4,4c1.7,0,3.4,0,5.2,0h14c3.4-13.7,8.2-33.8,10.8-44.6
					l-4.1,0l-11.6,42.9l-4.6,0c-0.3,0-6.5,0-8.6,0c-6.2-0.1-11.6-0.2-14.8-5.9c-2.4-4.2-1.3-8.5-0.5-11.7c0.2-0.7,0.3-1.4,0.5-2.1
					c1.2-6.3,3.5-16.3,5.1-23.2L265.7,29.8z"/>
				<path class="st2" d="M207.8,87c-14.3,0-27.9-0.6-36.4-8.5c-4.7-4.4-7.6-11.2-8.3-16.1c-1.2-8,0.5-16.4,2.1-22
					c1.9-6.6,4.2-11.8,7.2-16.5c9-13.9,23.4-21.3,41.5-21.3c2.2,0,4.4,0.1,6.7,0.3c5.2,0.5,12.1,2.4,16.4,4.6
					c0.4,0.2,0.8,0.5,1.4,0.9c0.1,0.1,0.2,0.1,0.3,0.2c6.7,3.8,12.5,12.4,13.8,20.5c1.7,10.8-2.6,21.8-7,31.7c1.4,0,3.3,0.3,4.9,2
					l0.2,0.2l0.2,0.3c2.1,2.7,1.3,5.4-0.1,10.4c-0.6,2.1-1.7,5.9-2.9,8.3c-1.4,3-3.5,4.6-6.2,4.7c-4.2,0.1-17.4,0.2-22.8,0.2
					c-1.9,0-3.7,0-5.6,0C211.4,87,209.6,87,207.8,87z M212.7,29.3c-5.1,0-9.5,2.3-11.1,3.9c-3.2,3.1-4.5,6.7-6,13.6
					c-0.7,2.9-1.9,8.2-0.6,10.7c1.3,2.4,7.5,2.7,12.7,2.7c1.5,0,3.1,0,4.8,0c0.7,0,1.4,0,2.2,0c1.1-3,2.2-6.3,3.2-9.5l0.4-1.2
					c0.4-1.1,0.7-2.3,1.1-3.4c1.3-3.8,2.6-7.7,2.5-10.4c-0.2-2.4-3-5.1-4.2-5.5C216,29.6,214.4,29.3,212.7,29.3z"/>
				<path class="st2" d="M168.5,43.5h-30.7l2.2-7.7c0.5-1.8,1-3.7,1.5-5.5c0.8-2.9,1.5-5.7,2.4-8.4l1.4-4.1h4.3c2.8,0,5.6,0,8.4,0
					c2.9,0,5.9,0,9.1,0h7.7l-1.8,7.4c-0.4,1.7-0.9,3.5-1.3,5.3c-0.7,2.8-1.3,5.7-2.1,8.4L168.5,43.5z M153.7,31.5h5.5
					c0.1-0.6,0.3-1.1,0.4-1.7c-0.5,0-1.1,0-1.6,0c-1.3,0-2.6,0-3.9,0C154,30.4,153.8,30.9,153.7,31.5z"/>
				<path class="st2" d="M127.2,110c-2,0-4.1-0.1-6.2-0.1c-1.4,0-2.9-0.1-4.4-0.1l-8-0.1l2.4-7.6c0.8-2.6,1.6-5.4,2.5-8.1
					c0.7-2.4,1.4-4.7,2-6.7l1.5-4.7l4.9,0.5c5.8,0.6,6.9-0.9,9.3-12.1c0.3-1.5,0.6-3,1-4.5c1.5-6.2,6.2-23.9,7.3-26.8l1.4-4H170
					l-1.5,7.2c-2.2,10.6-6.7,28.8-10.4,42.1l-0.2,0.6c-2.3,8.1-4.3,15.1-11.9,20.4c-0.7,0.5-1.3,0.8-1.9,1
					c-3.8,2.2-10.9,2.9-11.3,2.9C131,109.9,129.2,110,127.2,110z M145.2,106.1C145.2,106.1,145.1,106.1,145.2,106.1
					C145.1,106.1,145.2,106.1,145.2,106.1z M124.8,98c2.5,0.1,4.8,0,6.9-0.2c2.2-0.2,5.2-0.9,6.3-1.3c0.6-0.5,1.3-0.7,1.7-0.9
					c3.5-2.6,4.6-6.1,6.6-13.4l0.2-0.6c2.9-10.4,6.3-23.8,8.7-34.1h-5.5c-1.7,6-4.6,16.8-5.8,21.7c-0.3,1.4-0.6,2.8-0.9,4.1
					c-1.8,8.3-4.3,20.5-17.3,21.6c-0.2,0.7-0.5,1.5-0.7,2.3C125,97.5,124.9,97.7,124.8,98z M139.2,96C139.2,96,139.2,96,139.2,96
					C139.2,96,139.2,96,139.2,96z"/>
				<g transform="translate(0.000000, 8.827586)">
					<path class="st2" d="M69.5,86.7c-9.9,0-17.7-2.7-20.7-3.9c-10.9-4.3-20.7-12.6-26.2-22c-7.3-12.5-9.7-32.2,7.3-46.7l1.7-1.4
						h5.8l1.4,2.6h2l-1,2.8c0.2,2.2-0.9,4-1.7,5.2c-0.1,0.1-0.1,0.2-0.2,0.3l-0.3,0.8c-3.9,10.7,0.1,19.2,4.1,24.4
						C50.3,59.8,66.5,66.4,82,65c6.4-0.6,14.2-3.8,18.5-7.6l9.5,6.9l-0.7,1.5c-7.8,13.4-21.2,20.7-38.8,21
						C70.2,86.7,69.9,86.7,69.5,86.7z"/>
					<path class="st2" d="M80.5,62.4c-2.1,0-4.2-0.1-6.3-0.4c-15.9-1.9-30.8-15.8-32.4-30.4c-1.3-11.5,4-18.5,9.5-24.6l9.6,7.1
						c-1.7,2.8-2,4.5-2,5C58,26,61.2,31.2,64,34.3c5.4,6.1,14.2,10,22.5,10.1h0c0,0,0.1,0,0.1,0c5.6,0,12.1-2.4,15.7-5.8l9.6,6.8
						C107.2,56.1,95.2,62.4,80.5,62.4z"/>
					<path class="st2" d="M89.2,41.3c-12.9,0-19.9-7.7-22.5-11.4c-0.9-1.4-2.3-4.2-2.6-5.3c-2.3-6.8-1-16.5,5.7-21.8l17.7-14L79,9.7
						c-1,2.4-1,5-0.6,6.2c0.2,0.8,1.2,2.8,2.1,3.9c1.6,2,2.2,2.4,4.9,3.8l0.3,0.2c1.1,0.6,2.1,0.9,2.3,1l0.4,0.1
						c2.5,0.7,6.8,1.8,14.3-2.7l17.5-10.6l-9,18.3c-2.3,4.6-11,9.9-15.1,10.7C93.5,41.1,91.3,41.3,89.2,41.3z"/>
				</g>
			</g>
		</g>
		<g>
			<g>
				<path class="st3" d="M477.1,15.7l19.9,0.1c0,0-37,44.4-40,48c-1,1.2-2.5,2.4-3.2,4c-1.9,3.9-3.9,12.6-3.9,12.6l-18.2,0.1
					c0,0,2.8-9,2.7-13.8c-0.1-4.2-2.5-8.4-3.9-12.6c-1.4-4.3-3.2-12.6-3.2-12.6H446l2.6,9.1L477.1,15.7"/>
				<path class="st3" d="M439.4,25.1c3.7,2,5.9,12.8,5.9,12.8s-19.2,0.3-29.7,0.3h-9l-11,42.3h-16.8c0,0,10.4-46,12.9-54.3
					c0.8-2.7,5.5-2.2,13.4-2.2h12.6C425.9,23.8,435.4,22.9,439.4,25.1"/>
				<path class="st3" d="M361.3,45.6c0,0,0.5-2.7-1.8-5.9c-2-2.7-3.8-3.3-8.9-3.4c-14.6-0.4-14.3,9.2-14.3,9.2L361.3,45.6
					L361.3,45.6z M377.1,34.7c2.1,6.8-1.9,22.9-1.9,22.9s-21.3-0.3-32.9,0c-3.6,0.1-8-0.3-9,1.1c-1.5,2.1,0.6,5.3,2.3,6.7
					c2,1.6,6,1.7,7.4,1.9c9.5,1.1,29.2,0.3,29.2,0.3L368.7,81c0,0-28,1.2-42-1.7c-2.8-0.6-5.4-1.8-7.1-3.4c-0.5-0.5-0.9-1.1-1.3-1.6
					c-0.4-0.4-1.4-1.8-1.9-3c-3.2-7.5,0.4-22,3.9-29.7c0.4-0.9,0.9-2,1.5-3c0.7-1.2,1.2-2.6,1.8-3.3c0.4-0.5,0.8-0.8,1.2-1.3
					c0.4-0.6,0.9-1.1,1.4-1.6c1.3-1.3,2.8-2.3,4.5-3.4c5.8-3.9,16.4-6.9,29-5.7c4.8,0.4,12,1.9,15.5,6.3
					C376.1,30.7,376.6,33,377.1,34.7L377.1,34.7L377.1,34.7z"/>
				<path class="st3" d="M300.1,23.8l16.3-0.1c0,0-9.1,38.1-13.7,56.7H284c-13.1,0-24.7,1.4-29.7-6.9c-4.8-8.1-0.2-21.3,1.9-30.3
					c1.5-6.4,4.7-19.4,4.7-19.4l16.9-0.1c0,0-4.8,20.3-6.7,30.4c-0.7,3.6-2.2,7-0.6,9.7c1.5,2.5,3.5,2.7,9.7,2.9c2,0,8.4,0,8.4,0
					L300.1,23.8"/>
				<path class="st3" d="M223.9,51.2c1.7-5.4,4.2-11.2,3.9-16c-0.3-5.2-5.2-9.9-8.4-10.9c-9.5-3-18.4,1.2-21.9,4.6
					c-4.6,4.4-6.1,9.5-7.7,16.6c-1.2,5.2-2.2,10.8,0,14.9c3.9,7.2,16,5.6,29,5.7C220.7,61.5,222.3,56.3,223.9,51.2L223.9,51.2
					L223.9,51.2z M246.5,30.1c1.9,12-5.3,25.2-10.2,36.7c5,0.4,9.4-0.1,9.7,0.3c0.3,0.4-3.4,13.7-4.6,13.7c-4,0.1-17.2,0.2-22.6,0.2
					c-17.9,0-34.7,1-43.3-6.9c-3.5-3.2-5.9-8.7-6.5-12.6c-1-6.5,0.2-13.6,1.9-19.4c1.5-5.3,3.5-10.3,6.5-14.9
					c7.5-11.6,20.6-20.3,42.6-18.3c4.3,0.4,10.4,2,14.2,4c0.3,0.1,1.2,0.8,1.4,0.9C240.8,16.7,245.5,23.7,246.5,30.1L246.5,30.1
					L246.5,30.1z"/>
				<path class="st3" d="M167.2,23.9c-1.1,4.4-2.2,9.3-3.3,13.6h-18.1c1.4-4.8,2.5-9.5,3.9-13.7C155.5,23.8,160.9,23.9,167.2,23.9"
					/>
				<path class="st3" d="M145.2,41.5h17.4c-2.3,11.2-6.8,29.2-10.3,41.7c-2.2,7.8-3.7,13.6-9.7,17.7c-0.5,0.4-0.8,0.2-1.3,0.6
					c-1.1,0.9-6.2,2-9,2.3c-4.6,0.4-9.8,0.1-15.4,0c1.5-4.8,3.2-10.5,4.5-14.8c13.8,1.5,14.1-10,16.8-21.1
					C139.6,61.4,144.3,44.1,145.2,41.5"/>
				<g transform="translate(0.000000, 8.827586)">
					<path class="st4" d="M104.5,61.8l-0.4,0.9c-6.4,11-17.6,17.7-33.7,18c-7.5,0.1-14.7-1.6-19.4-3.4c-10.1-4-18.6-11.5-23.2-19.4
						c-6.7-11.4-7.9-27.3,6-39.1c0.2,0-1.7,2.6-1.5,2.6l-0.4,1.1C22,50,52.7,73.7,82.6,71C89.7,70.3,98.9,66.8,104.5,61.8"/>
					<path class="st4" d="M86.4,50.4c7.5,0,15.4-3.1,20-7.4c-4.1,9.1-15.8,15-31.6,13.1C61.6,54.5,49,42.8,47.7,31
						c-0.9-8.6,2.4-13.7,8-19.9c-1.9,3.3-2.7,5.8-2.8,7.4C50.7,37,69.6,50.3,86.4,50.4"/>
					<path class="st4" d="M105.7,27.3c-1.2,2.4-7.9,6.9-10.9,7.4c-11.8,2.2-19.3-2.7-23.2-8.3c-0.6-0.8-1.7-3.1-1.9-3.7
						c-1.5-4.6-0.8-11.6,3.7-15.2c-1.4,3.4-1.6,7.4-0.9,10c0.4,1.6,1.8,4.3,3.1,6c2.4,3.1,4,3.9,7.1,5.6c1.4,0.7,2.9,1.3,3.6,1.5
						C89.4,31.4,95.6,33.4,105.7,27.3"/>
				</g>
			</g>
		</g>
	</g>
</g>
</svg>
