<?xml version="1.0" encoding="utf-8"?>
<!-- Generator: Adobe Illustrator 22.0.1, SVG Export Plug-In . SVG Version: 6.00 Build 0)  -->
<svg version="1.1" id="Layer_1" xmlns="http://www.w3.org/2000/svg" xmlns:xlink="http://www.w3.org/1999/xlink" x="0px" y="0px"
	 viewBox="0 0 2500 1985" style="enable-background:new 0 0 2500 1985;" xml:space="preserve">
<style type="text/css">
	.st0{fill:#00B0FF;}
	.st1{fill:#0081CB;}
	.st2{display:none;}
	.st3{display:inline;fill:#FFFFFF;}
	.st4{fill:#FFFFFF;}
</style>
<path class="st0" d="M0,663.1V0.2l850.8,331.4v221l-567.2-221v441.9L0,663.1z"/>
<path class="st1" d="M850.8,331.6L1701.6,0.2v662.9l-567.2,221L850.8,773.6l567.2-221v-221l-567.2,221V331.6z"/>
<path class="st0" d="M850.8,773.6v221l567.2,221v-221L850.8,773.6z"/>
<path class="st1" d="M1418,1215.5l850.8-331.4v-442l-283.6,110.5v221l-567.2,221V1215.5z M1985.2,331.6v-221L2268.8,0.2v221
	L1985.2,331.6z"/>
<g>
	<g>
		<g class="st2">
			<path class="st3" d="M409.9,1775c-5.8,0-11-2.5-14.7-6.4h-44.5c-3.7,4-8.9,6.4-14.7,6.4H173c-5.5,0-10.7-2.2-14.5-6.2
				c-3.8-3.9-5.8-9.3-5.5-14.7l17.5-390c0.5-10.7,9.3-19.1,20-19.1h186.6c0.3,0,0.7,0,1,0c0.3,0,0.7,0,1,0h183.1
				c10.8,0,19.6,8.5,20,19.3l14.3,390c0.2,5.4-1.8,10.7-5.6,14.6c-3.8,3.9-9,6.1-14.4,6.1H409.9z"/>
			<path class="st3" d="M620.3,1780.5c-36.1,0-69.4-13.4-93.8-37.7c-24.4-24.3-37.8-57.6-37.8-93.6c0-32.2,8.6-60.3,25.5-83.7
				l-16.3-72.9c-1.8-8.1,1.6-16.4,8.4-21l22.4-14.9c15.1-10.1,57-33.4,120.5-33.4c66.2,0,103.4,28.2,123,51.9
				c22.5,27.3,33.9,63.6,33.9,107.9v75.9c0,25.6,1.3,42.2,2.1,46.7l8.3,45.9c1.1,5.8-0.5,11.8-4.3,16.4c-3.8,4.5-9.4,7.2-15.4,7.2
				H662.3C649.1,1778.7,635,1780.5,620.3,1780.5z"/>
			<path class="st3" d="M849.7,1780.5c-41.9,0-81-18.3-104.6-49c-19.2-24.9-28.1-58.2-28.1-104.8v-13.6h-2.7c-11,0-20-9-20-20
				v-144.4c0-11,9-20,20-20h2.7v-15.1c0-9,6-16.8,14.6-19.3l164.2-46.2c1.8-0.5,3.6-0.7,5.4-0.7c4.3,0,8.6,1.4,12.1,4.1
				c5,3.8,7.9,9.7,7.9,15.9v61.2h18.1c11,0,20,9,20,20v140c0.2,1.2,0.4,2.5,0.4,3.8v144.1c0,7.7-4.4,14.7-11.4,18l-24.2,11.6
				C904.9,1775.5,878.5,1780.5,849.7,1780.5z"/>
			<path class="st3" d="M1017.6,1780.5c-54.1,0-101.1-19.5-132.4-55c-27.3-31-41.8-73.3-41.8-122.3c0-36.4,11.3-76,30.1-105.9
				c30.2-47.8,79-74.2,137.4-74.2c55,0,100.6,24.1,128.6,68c24,37.6,29.1,80.5,29.1,109.8c0,16.3-2,32.8-3.8,41.2l-7.2,33
				c-0.5,2.2-1.3,4.2-2.4,6l6.4,41.3c1.3,8.6-3,17-10.7,20.9l-26.7,13.5C1092.7,1772.8,1057.8,1780.5,1017.6,1780.5z"/>
			<path class="st3" d="M1083,1775c-11,0-20-9-20-20v-188.6c0-39-0.4-58.4-1.4-74.4l-2.6-42.1c-0.3-5.5,1.6-10.9,5.4-14.9
				s9.1-6.3,14.6-6.3h130.4c11.7-3.7,23.7-5.5,35.8-5.5c7.9,0,18.8,0,33.8,4l33.5,9c8.7,2.3,14.8,10.3,14.8,19.3v164.7
				c0,6.2-2.9,12.1-7.8,15.9c-3.5,2.7-7.8,4.1-12.2,4.1c-1.7,0-3.5-0.2-5.2-0.7l-32.7-8.8V1755c0,11-9,20-20,20H1083z"/>
			<path class="st3" d="M1239.5,1775c-11,0-20-9-20-20v-306.3c0-1.9,0.3-3.7,0.7-5.4c-1-5.8-1.5-11.7-1.5-17.7
				c0-28,10.7-53.5,30-71.9c19.1-18.1,45.4-28.1,74.1-28.1c32.4,0,62.1,13.1,81.3,35.9c14.6,17.3,22.5,39.2,22.9,63.3
				c0,0.1,0,0.8,0,0.9c0,6.3-0.5,12.5-1.6,18.5c0.3,1.5,0.5,3,0.5,4.5V1755c0,11-9,20-20,20H1239.5z"/>
			<path class="st3" d="M1453.3,1780.5c-36.1,0-69.4-13.4-93.8-37.7c-24.4-24.3-37.8-57.6-37.8-93.6c0-32.2,8.6-60.3,25.5-83.7
				l-16.3-72.9c-1.8-8.1,1.6-16.4,8.4-21l22.4-14.9c15.1-10.1,57-33.4,120.5-33.4c66.2,0,103.4,28.2,123,51.9
				c22.5,27.3,33.9,63.6,33.9,107.9v75.9c0,25.6,1.3,42.2,2.1,46.7l8.3,45.9c1.1,5.8-0.5,11.8-4.3,16.4s-9.4,7.2-15.4,7.2h-134.6
				C1482.1,1778.7,1468,1780.5,1453.3,1780.5z"/>
			<path class="st3" d="M1566,1775c-11,0-20-9-20-20v-409.3c0-11,9-20,20-20h166.4c11,0,20,9,20,20V1755c0,11-9,20-20,20H1566z"/>
			<path class="st3" d="M1918.4,1780.5c-59.5,0-107.6-21.4-139.2-62c-27.9-35.8-41.5-84.8-41.5-149.8V1365c0-11,9-20,20-20H2085
				c11,0,20,9,20,20V1571c0,63.3-14.2,111.6-43.5,147.6C2028.5,1759.1,1979,1780.5,1918.4,1780.5z"/>
			<path class="st3" d="M2034.7,1775c-11,0-20-9-20-20v-390c0-11,9-20,20-20h166.4c11,0,20,9,20,20v390c0,11-9,20-20,20H2034.7z"/>
		</g>
		<g>
			<path class="st4" d="M457.6,1735c-10.9,0-19.8-8.7-20-19.6l-1.9-86.9l-20.2,84.7c-2.1,9-10.2,15.4-19.5,15.4h-55.3
				c-9.6,0-17.8-6.8-19.6-16.1l-10.6-53.9l-1.8,57.2c-0.3,10.8-9.2,19.4-20,19.4h-65.2c-5.5,0-10.7-2.2-14.5-6.2
				c-3.8-3.9-5.8-9.3-5.5-14.7l13.9-310c0.5-10.7,9.3-19.1,20-19.1h98.9c9.5,0,17.6,6.6,19.6,15.9l16.5,78.2
				c1.1,5.3,2.2,10.7,3.3,16.2c1.4-6.3,2.9-12.3,4.3-17.8l19.4-77.3c2.2-8.9,10.2-15.1,19.4-15.1h96.4c10.8,0,19.6,8.5,20,19.3
				l11.4,310c0.2,5.4-1.8,10.7-5.6,14.6s-9,6.1-14.4,6.1H457.6z"/>
			<path class="st4" d="M620.3,1740.5c-24.5,0-46.5-10.4-61.8-29.2c-13.7-16.7-21.2-38.8-21.2-62.1c0-31.9,10.6-58.2,30.7-76.9
				c-2.4-2.6-4.1-5.8-4.9-9.3l-12.1-54.3c-1.8-8.1,1.6-16.4,8.4-21c11.1-7.4,41.9-24.5,89.9-24.5c36.1,0,64,11.6,82.8,34.4
				c16.9,20.5,25.5,49.2,25.5,85.4v75.9c0,26.3,1.3,45.4,2.6,52.6c1.1,5.8-0.5,11.8-4.3,16.4c-3.8,4.5-9.4,7.2-15.4,7.2h-62.3
				c-5.2,0-10-2-13.6-5.3C652,1736.8,637.1,1740.5,620.3,1740.5z M649.8,1635.8c-1,0.4-1.8,0.8-2.2,1.1c-1.2,0.8-1.8,1.1-1.8,4
				C646.9,1640.2,648.7,1638.4,649.8,1635.8z"/>
			<path class="st4" d="M849.7,1740.5c-25.2,0-48.9-11.4-63.5-30.4c-13.9-18-20.6-45.3-20.6-83.5v-53.6h-2.7c-11,0-20-9-20-20v-64.4
				c0-11,9-20,20-20h2.7v-26.5c0-9,6-16.8,14.6-19.3l67.1-18.9c1.8-0.5,3.6-0.7,5.4-0.7c4.3,0,8.6,1.4,12.1,4.1
				c5,3.8,7.9,9.7,7.9,15.9v45.3h18.1c11,0,20,9,20,20v64.4c0,11-9,20-20,20h-18.1v36.6c0,12.5,0.9,18.1,1.6,20.5c0.1,0,0.2,0,0.4,0
				c5.7,0,9.7-0.7,11.1-1.1c1.8-0.5,3.6-0.7,5.4-0.7c4.3,0,8.6,1.4,12.1,4.1c5,3.8,7.9,9.7,7.9,15.9v65.3c0,7.7-4.4,14.7-11.4,18
				C888.3,1737.1,869.2,1740.5,849.7,1740.5z"/>
			<path class="st4" d="M1017.6,1740.5c-38.7,0-70.8-13.3-93.1-38.5c-21.3-24.1-32.5-58.3-32.5-98.8c0-30.3,9.2-63,24.7-87.4
				c21.7-34.4,54.3-52.6,94.3-52.6c36.5,0,66.1,16.1,85.6,46.6c15.1,23.7,23.5,56.1,23.5,91.2c0,13.1-1.6,27.4-3,34.1
				c-1.7,7.8-7.8,13.7-15.4,15.3l7.9,51.4c1.3,8.6-3,17-10.7,20.9C1074.8,1734.9,1049,1740.5,1017.6,1740.5z"/>
			<path class="st4" d="M1131.5,1735c-11,0-20-9-20-20v-148.6c0-39.7-0.4-59.7-1.4-76.5c-0.3-5.5,1.6-10.9,5.4-14.9
				s9.1-6.3,14.6-6.3h59c6.7,0,12.6,3.3,16.3,8.4c12-9,26-13.9,39.8-13.9c6.4,0,11.1,0,18.8,2.1c8.7,2.3,14.8,10.3,14.8,19.3v80.5
				c0,6.2-2.9,12.1-7.8,15.9c-3.5,2.7-7.8,4.1-12.2,4.1c-1.7,0-3.5-0.2-5.2-0.7c-4.7-1.3-8.1-2.1-13.1-2.1
				c-16.7,0-18.8,8.2-19.4,11.9c-0.2,2.6-0.2,5.5-0.2,8.6V1715c0,11-9,20-20,20H1131.5z"/>
			<path class="st4" d="M1288,1735c-11,0-20-9-20-20v-226.3c0-9.4,6.5-17.4,15.3-19.5c-10.1-10.7-16.1-25.9-16.1-43.6
				c0-34.8,23.4-60,55.5-60c32.1,0,55,24.5,55.5,59.7c0,0.1,0,0.2,0,0.3c0,17.7-6.1,32.9-16.3,43.6c8.7,2.1,15.2,10,15.2,19.4V1715
				c0,11-9,20-20,20H1288z"/>
			<path class="st4" d="M1453.3,1740.5c-24.5,0-46.5-10.4-61.8-29.2c-13.7-16.7-21.2-38.8-21.2-62.1c0-31.9,10.6-58.2,30.7-76.9
				c-2.4-2.6-4.1-5.8-4.9-9.3l-12.1-54.3c-1.8-8.1,1.6-16.4,8.4-21c11.1-7.4,41.9-24.5,89.9-24.5c36.1,0,64,11.6,82.8,34.4
				c16.9,20.5,25.5,49.2,25.5,85.4v75.9c0,26.3,1.3,45.4,2.6,52.6c1.1,5.8-0.5,11.8-4.3,16.4s-9.4,7.2-15.4,7.2h-62.3
				c-5.2,0-10-2-13.6-5.3C1485,1736.8,1470.1,1740.5,1453.3,1740.5z M1482.8,1635.8c-1,0.4-1.8,0.8-2.2,1.1c-1.2,0.8-1.8,1.1-1.8,4
				C1479.9,1640.2,1481.7,1638.4,1482.8,1635.8z"/>
			<path class="st4" d="M1614.6,1735c-11,0-20-9-20-20v-329.3c0-11,9-20,20-20h69.3c11,0,20,9,20,20V1715c0,11-9,20-20,20H1614.6z"
				/>
			<path class="st4" d="M1918.4,1740.5c-60.3,0-132.1-29.8-132.1-171.8V1405c0-11,9-20,20-20h69.3c11,0,20,9,20,20v168.4
				c0,22.4,3.4,60,25.8,60c8.2,0,13-3,17.2-10.5c3.9-7.1,8.6-21.5,8.6-49.5V1405c0-11,9-20,20-20h69.3c11,0,20,9,20,20V1571
				c0,54.3-11.9,96.5-35.3,125.3C1997.2,1725.7,1962.7,1740.5,1918.4,1740.5z"/>
			<path class="st4" d="M2083.3,1735c-11,0-20-9-20-20v-310c0-11,9-20,20-20h69.3c11,0,20,9,20,20v310c0,11-9,20-20,20H2083.3z"/>
		</g>
	</g>
	<g>
		<g class="st2">
			<polygon class="st3" points="409.9,1755 409.7,1748.6 336.2,1748.6 336,1755 173,1755 190.5,1365 377.2,1365 378.1,1369.3 
				379.2,1365 562.3,1365 576.6,1755 			"/>
			<path class="st3" d="M620.3,1760.5c-63.6,0-111.6-47.8-111.6-111.3c0-36.1,12.4-61.5,27.1-78.9l-18.3-82.1l22.4-14.9
				c13.6-9,51.4-30.1,109.4-30.1c58.4,0,90.7,24.3,107.6,44.7c19.5,23.6,29.3,55.6,29.3,95.2v75.9c0,25.4,1.2,43.8,2.4,50.2
				l8.3,45.9H659.4C647.4,1758.6,634.3,1760.5,620.3,1760.5z"/>
			<path class="st3" d="M849.7,1760.5c-35.8,0-68.9-15.4-88.7-41.2c-16.4-21.2-24-50.7-24-92.7v-33.6h-22.7v-144.4H737v-35.1
				l164.2-46.2v81.2h38.1v143.9l0.4-0.1v144.1l-24.2,11.6C899.2,1756,875.2,1760.5,849.7,1760.5z M901.2,1603.3l36.5-10.2h-36.5
				V1603.3z"/>
			<path class="st3" d="M1017.6,1760.5c-48.2,0-89.9-17.1-117.4-48.2c-24-27.3-36.8-65-36.8-109.1c0-32.8,10.1-68.4,27.1-95.2
				c26.4-41.8,69.2-64.8,120.5-64.8c47.9,0,87.6,20.9,111.7,58.7c21.4,33.6,25.9,72.4,25.9,99c0,14.2-1.7,29.3-3.3,36.9l-7.2,33
				h-4.6l8.4,54.6l-26.7,13.5C1086.5,1753.5,1054.6,1760.5,1017.6,1760.5z"/>
			<path class="st3" d="M1083,1755v-188.6c0-39.4-0.4-59.2-1.4-75.7l-2.6-42.1h133.6c10.5-3.6,21.5-5.5,32.6-5.5
				c7.6,0,16.2,0,28.6,3.4l33.5,9v164.7l-57.9-15.6V1755H1083z M1249.5,1596L1249.5,1596z"/>
			<path class="st3" d="M1239.5,1755v-306.3h2.4c-2.1-7.3-3.1-15-3.1-23c0-46.4,35.4-80,84.1-80c26.5,0,50.6,10.5,66,28.8
				c11.6,13.8,17.9,31.3,18.2,50.7l0,0.5c0,8-1.1,15.7-3.2,23h2.1V1755H1239.5z"/>
			<path class="st3" d="M1453.3,1760.5c-63.6,0-111.6-47.8-111.6-111.3c0-36.1,12.4-61.5,27.1-78.9l-18.3-82.2l22.4-14.9
				c13.6-9,51.4-30.1,109.4-30.1c58.4,0,90.7,24.3,107.6,44.7c19.5,23.6,29.3,55.6,29.3,95.2v75.9c0,25.4,1.2,43.8,2.4,50.2
				l8.3,45.9h-137.4C1480.4,1758.6,1467.3,1760.5,1453.3,1760.5z"/>
			<rect x="1566" y="1345.7" class="st3" width="166.4" height="409.3"/>
			<path class="st3" d="M1918.4,1760.5c-53.1,0-95.8-18.8-123.5-54.3c-25.1-32.1-37.3-77.1-37.3-137.5V1365H2085V1571
				c0,58.5-12.8,102.7-39,135C2016.9,1741.7,1972.8,1760.5,1918.4,1760.5z"/>
			<rect x="2034.7" y="1365" class="st3" width="166.4" height="390"/>
		</g>
		<g>
			<path d="M455,1599.6c-0.7-38.6-1.1-81.4-1.1-135.2h-1.1c-8.8,44.2-20.5,92.9-30.1,132L396,1708.6h-55.3l-22-111.8
				c-7.3-38.2-15.4-86.5-22-132.5H296c-1.5,47.4-2.6,96.6-3.7,135.2l-3.7,115.5h-65.2l13.9-310h98.9l16.5,78.2
				c7,33.1,14.7,75.9,20.2,115h1.5c8.1-39.1,17.2-85.1,24.9-115.9l19.4-77.3h96.4l11.4,310h-68.9L455,1599.6z"/>
			<path d="M678.2,1715l-3.7-19.3h-1.5c-13.2,18.4-32.2,24.8-52.8,24.8c-39.6,0-63-34.5-63-71.3c0-60.7,43.2-88.8,111.4-88.8v-1.4
				c0-8.3-4.4-18.4-31.5-18.4c-20.2,0-42.9,9.7-54.6,17.9l-12.1-54.3c11.7-7.8,38.5-21.2,78.8-21.2c61.9,0,88.3,39.1,88.3,99.8v75.9
				c0,23.9,1.1,46,2.9,56.1H678.2z M670.9,1612.9c-30.4,0-45.1,9.7-45.1,28.1c0,12.9,7,20.2,19.8,20.2c10.6,0,21.6-10.1,24.6-23.5
				c0.7-3.7,0.7-8.3,0.7-12.4V1612.9z"/>
			<path d="M852.7,1423.4v65.3h38.1v64.4h-38.1v56.6c0,27.6,3.7,40.5,22,40.5c7.3,0,13.2-0.9,16.5-1.8v65.3
				c-7.7,3.7-23.5,6.9-41.4,6.9c-20.9,0-38.1-10.1-47.6-22.5c-11-14.3-16.5-37.7-16.5-71.3v-73.6h-22.7v-64.4h22.7v-46.5
				L852.7,1423.4z"/>
			<path d="M977.6,1630.8c2.6,17,25.7,26.2,49.5,26.2c18,0,35.2-1.8,53.9-9.2l8.8,57c-24.6,12.4-49.1,15.6-72.2,15.6
				c-67.4,0-105.5-45.5-105.5-117.3c0-44.6,24.6-120.1,98.9-120.1c64.5,0,89.1,60.3,89.1,117.8c0,12-1.5,24.8-2.6,29.9H977.6z
				 M1035.9,1572.4c0-10.1-5.5-34-28.2-34c-21.3,0-29.7,21.2-31.2,34H1035.9z"/>
			<path d="M1131.5,1566.4c0-40-0.4-60.3-1.5-77.7h59l2.2,43.7h1.5c9.9-37.3,35.5-49.2,52.4-49.2c5.9,0,8.4,0,13.6,1.4v80.5
				c-5.1-1.4-10.6-2.8-18.3-2.8c-23.8,0-36.6,12.4-39.2,29.4c-0.4,3.7-0.4,7.4-0.4,11V1715h-69.3V1566.4z"/>
			<path d="M1358.4,1425.7c0,22.1-13.2,40-35.9,40c-22,0-35.2-17.9-35.2-40c0-22.5,13.2-40,35.5-40S1358,1403.1,1358.4,1425.7z
				 M1288,1715v-226.3h69.3V1715H1288z"/>
			<path d="M1511.2,1715l-3.7-19.3h-1.5c-13.2,18.4-32.2,24.8-52.8,24.8c-39.6,0-63-34.5-63-71.3c0-60.7,43.2-88.8,111.4-88.8v-1.4
				c0-8.3-4.4-18.4-31.5-18.4c-20.2,0-42.9,9.7-54.6,17.9l-12.1-54.3c11.7-7.8,38.5-21.2,78.8-21.2c61.9,0,88.3,39.1,88.3,99.8v75.9
				c0,23.9,1.1,46,2.9,56.1H1511.2z M1503.9,1612.9c-30.4,0-45.1,9.7-45.1,28.1c0,12.9,7,20.2,19.8,20.2c10.6,0,21.6-10.1,24.6-23.5
				c0.7-3.7,0.7-8.3,0.7-12.4V1612.9z"/>
			<path d="M1614.6,1385.7h69.3V1715h-69.3V1385.7z"/>
			<path d="M1875.5,1405v168.4c0,48.8,14.3,80,45.8,80c31.5,0,45.8-29,45.8-80V1405h69.3V1571c0,101.2-42.9,149.5-118,149.5
				c-70.7,0-112.1-45.1-112.1-151.8V1405H1875.5z"/>
			<path d="M2152.5,1405v310h-69.3v-310H2152.5z"/>
		</g>
	</g>
</g>
</svg>
