<?xml version="1.0" encoding="utf-8"?>
<!-- Generator: Adobe Illustrator 22.0.1, SVG Export Plug-In . SVG Version: 6.00 Build 0)  -->
<svg version="1.1" id="Layer_1" xmlns="http://www.w3.org/2000/svg" xmlns:xlink="http://www.w3.org/1999/xlink" x="0px" y="0px"
	 viewBox="0 0 2362 2500" style="enable-background:new 0 0 2362 2500;" xml:space="preserve">
<style type="text/css">
	.st0{fill:#FF6600;}
	.st1{display:none;}
	.st2{display:inline;fill:#FFFFFF;}
	.st3{fill:#FFFFFF;}
</style>
<path class="st0" d="M1944.3,666.4h-650.1c-32.6,0-59.1-21.3-59.1-47.6V73.2c0-40.4-40.7-73.2-90.8-73.2H912.2
	c-50.2,0-90.8,32.8-90.8,73.2v542.3c0,28.1-28.2,51-63.1,51.2l-213.1,0.8c-35.2,0.2-63.9-22.8-63.8-51.2l1.3-542.9
	C482.7,32.9,442,0,391.7,0H159.8C109.6,0,69,32.8,69,73.2v1527.9c0,35.9,36.1,64.9,80.6,64.9h1794.7c44.6,0,80.7-29.1,80.7-64.9
	V731.3C2025,695.5,1988.9,666.4,1944.3,666.4z M1639.4,1240c0,47.1-47.3,85.1-105.8,85.1h-183.4c-58.5,0-105.8-38.2-105.8-85.1
	v-147.7c0-47.1,47.3-85.1,105.8-85.1h183.4c58.4,0,105.8,38.2,105.8,85.1V1240L1639.4,1240z"/>
<g>
	<g>
		<g class="st1">
			<path class="st2" d="M78.4,2308.8c-15.5,0-28-12.5-28-28V1831c0-13.1,9.1-24.5,21.9-27.3l39.1-8.7c16.7-3.7,52.4-10,104-10
				c16.7,0,42,0.9,68.6,8.3c30,8.4,55.5,23.4,75.7,44.7c0,0,0.3,0.3,0.3,0.3c21.3,22.8,46.7,64.4,46.7,133.5
				c0,41.9-12.2,74.1-25,96.4c5.5,14.6,9.1,28.8,11.7,40.3c0,0,0.1,0.3,0.1,0.3c4.1,18,8,39,11.5,57.4c2.2,11.4,6.6,35,8.1,40.3
				l22.1,65.4c2.9,8.5,1.5,18-3.8,25.3c-5.3,7.3-13.7,11.7-22.7,11.7H78.4z"/>
			<path class="st2" d="M494.4,2308.8c-4.1,0-8-0.9-11.5-2.5c-3.5,1.6-7.4,2.5-11.5,2.5H295c-8.5,0-16.5-3.8-21.8-10.4
				c-5.3-6.6-7.4-15.2-5.6-23.5l99.2-464.6c2.8-12.9,14.2-22.2,27.4-22.2h174.6c13.1,0,24.4,9,27.3,21.8l105.7,464.6
				c1.9,8.3-0.1,17-5.4,23.7c-5.3,6.7-13.4,10.5-21.9,10.5H494.4z"/>
			<path class="st2" d="M716,2313.1c-43.6,0-72.3-4.7-88.7-8.6l-38.3-9.2c-12.6-3-21.5-14.3-21.5-27.2v-435.7
				c0-12.8,8.6-23.9,21-27.1l37.5-9.7c23.7-6.1,67.1-10.6,103.2-10.6c44,0,80.8,4.4,117.3,25.7c47.9,27.6,76.5,81.7,76.5,144.8
				c0,25.6-5,50-14.7,71.7c15.3,27.4,23.1,59.4,23.1,94.9c0,53.1-18.8,101.7-52.8,136.6c0,0-0.6,0.6-0.8,0.8l-0.4,0.4
				C840.7,2296.2,789.3,2313.1,716,2313.1z"/>
			<path class="st2" d="M960.9,2313.1c-43.6,0-72.3-4.7-88.7-8.6l-38.3-9.2c-12.6-3-21.5-14.3-21.5-27.2v-435.7
				c0-12.8,8.6-23.9,21-27.1l37.5-9.7c23.7-6.1,67.1-10.6,103.2-10.6c44,0,80.8,4.4,117.3,25.7c47.9,27.6,76.5,81.7,76.5,144.8
				c0,25.6-5,50-14.7,71.7c15.3,27.4,23.1,59.4,23.1,94.9c0,53.1-18.8,101.7-52.8,136.6c0,0-0.6,0.6-0.8,0.8l-0.4,0.4
				C1085.5,2296.2,1034.2,2313.1,960.9,2313.1z"/>
			<path class="st2" d="M1085.2,2308.8c-15.5,0-28-12.5-28-28v-464.6c0-15.5,12.5-28,28-28h169.1c15.5,0,28,12.5,28,28v464.6
				c0,15.5-12.5,28-28,28H1085.2z"/>
			<path class="st2" d="M1256.2,2308.8c-15.5,0-28-12.5-28-28v-253.3h-41.4c-15.5,0-28-12.5-28-28v-183.3c0-15.5,12.5-28,28-28
				h309.4c15.5,0,28,12.5,28,28v183.3c0,15.5-12.5,28-28,28h-42.9v253.3c0,15.5-12.5,28-28,28H1256.2z"/>
			<path class="st2" d="M1736.2,2308.8c-7.4,0-14.1-2.9-19.2-7.6h-32.4c-5,4.7-11.8,7.6-19.2,7.6h-165.7c-7.6,0-14.9-3.1-20.2-8.6
				c-5.3-5.5-8.1-12.9-7.8-20.5l17.7-464.6c0.6-15,12.9-26.9,28-26.9h373.6c15.1,0,27.5,12,28,27.1l14.4,464.6
				c0.2,7.6-2.6,14.9-7.9,20.4c-5.3,5.4-12.5,8.5-20.1,8.5H1736.2z"/>
			<path class="st2" d="M2168.5,2395.1c-3.6,0-7.3-0.7-10.7-2.1l-54.4-22.5c-43.4-17.9-75.1-34.9-110.8-56c-0.1,0-0.1,0-0.2,0
				c-51.1-7.5-97.4-36.1-130.3-80.7c-34.4-46.5-52.5-109.1-52.5-180.9c0-71.7,17.5-135,50.6-183c39.1-56.8,97-88.1,163-88.1
				c65.6,0,123,31.1,161.4,87.5c31.7,46.6,48.5,107.5,48.5,176c0,38.9-6,76.4-17.5,110.4l2.5,0.6c14.8,3.7,23.9,18.6,20.4,33.5
				l-11.1,47.9l-31.6,135.8c-1.9,8-7.2,14.8-14.5,18.5C2177.3,2394.1,2172.9,2395.1,2168.5,2395.1z"/>
		</g>
		<g>
			<path class="st3" d="M268.7,2258.8c-11.7,0-22.2-7.3-26.2-18.2c-5.1-13.7-11.2-39.2-17.7-74.1v64.3c0,15.5-12.5,28-28,28h-68.3
				c-15.5,0-28-12.5-28-28V1871c0-13.1,9.1-24.5,21.9-27.3c14.7-3.3,46.3-8.8,93.1-8.8c49.5,0,83.8,11.9,108,37.4
				c0,0,0.1,0.1,0.1,0.1c21.7,23.1,33.2,57.4,33.2,99.2c0,26.6-6.7,52-19.4,73.4c-3.9,6.6-8.4,12.7-13.2,18.1
				c10.3,16.7,16.2,37.1,20.6,56.4c0,0,0,0.1,0,0.1c3.9,17.1,7.7,37.6,11.1,55.7c3.6,19,7.6,40.5,9.6,46.4c2.9,8.5,1.5,18-3.8,25.3
				c-5.3,7.3-13.7,11.7-22.7,11.7H268.7z M224.7,1994.2c5.1-1.5,7.6-5.4,7.6-15c0-7.5-1.6-11.2-2.5-12.2c-0.5-0.6-2.3-1.2-5.1-1.4
				V1994.2z"/>
			<path class="st3" d="M535.1,2258.8c-13.3,0-24.7-9.3-27.4-22.4l-13.7-66.4h-25.3l-11.6,65.6c-2.4,13.4-14,23.1-27.6,23.1h-72.7
				c-8.5,0-16.5-3.8-21.8-10.4c-5.3-6.6-7.4-15.2-5.6-23.5l77.8-364.6c2.8-12.9,14.2-22.2,27.4-22.2h94.3c13.1,0,24.4,9,27.3,21.8
				l83,364.6c1.9,8.3-0.1,17-5.4,23.7c-5.3,6.7-13.4,10.5-21.9,10.5H535.1z"/>
			<path class="st3" d="M716,2263.1c-40.7,0-65.8-4.6-77.1-7.3c-12.6-3-21.5-14.3-21.5-27.2V1871c0-12.8,8.6-23.9,21-27.1
				c17.1-4.4,55.7-9,90.7-9c37.9,0,65.2,3.1,92.2,18.9c32.3,18.5,51.6,56.5,51.6,101.6c0,20.8-4.3,39.7-12.6,56.2
				c-3.3,6.5-7.2,12.5-11.7,18c20.9,21.9,32.7,54.2,32.7,92.3c0,40-13.7,76.2-38.6,101.8c-0.1,0.1-0.3,0.3-0.4,0.4
				C815.5,2250.7,775.3,2263.1,716,2263.1z M741.8,2132.6c8.8-1.4,10.5-6.4,10.5-16c0-3.5-0.4-8.1-2.5-9.6c-0.7-0.5-3-1.9-8-2.7
				V2132.6z M741.8,1974.8c3.6-0.9,4.8-2,4.8-2c0.1-0.2,0.6-1.6,0.6-4.3c0-1.7-0.2-2.8-0.3-3.4c-0.8-0.3-2.5-0.8-5.1-1V1974.8z"/>
			<path class="st3" d="M960.9,2263.1c-40.7,0-65.8-4.6-77.1-7.3c-12.6-3-21.5-14.3-21.5-27.2V1871c0-12.8,8.6-23.9,21-27.1
				c17.1-4.4,55.7-9,90.7-9c37.9,0,65.2,3.1,92.2,18.9c32.3,18.5,51.6,56.5,51.6,101.6c0,20.8-4.3,39.7-12.6,56.2
				c-3.3,6.5-7.2,12.5-11.7,18c20.9,21.9,32.7,54.2,32.7,92.3c0,40-13.7,76.2-38.6,101.8c-0.1,0.1-0.3,0.3-0.4,0.4
				C1060.3,2250.7,1020.2,2263.1,960.9,2263.1z M986.7,2132.6c8.8-1.4,10.5-6.4,10.5-16c0-3.5-0.4-8.1-2.5-9.6c-0.7-0.5-3-1.9-8-2.7
				V2132.6z M986.7,1974.8c3.6-0.9,4.8-2,4.8-2c0.1-0.2,0.6-1.6,0.6-4.3c0-1.7-0.2-2.8-0.3-3.4c-0.8-0.3-2.5-0.8-5.1-1V1974.8z"/>
			<path class="st3" d="M1135.2,2258.8c-15.5,0-28-12.5-28-28v-364.6c0-15.5,12.5-28,28-28h69.1c15.5,0,28,12.5,28,28v364.6
				c0,15.5-12.5,28-28,28H1135.2z"/>
			<path class="st3" d="M1306.2,2258.8c-15.5,0-28-12.5-28-28v-253.3h-41.4c-15.5,0-28-12.5-28-28v-83.3c0-15.5,12.5-28,28-28h209.4
				c15.5,0,28,12.5,28,28v83.3c0,15.5-12.5,28-28,28h-42.9v253.3c0,15.5-12.5,28-28,28H1306.2z"/>
			<path class="st3" d="M1785.3,2258.8c-15.3,0-27.7-12.2-28-27.5l-0.6-29.3l-5.4,26.7c-2.6,13.1-14.1,22.5-27.4,22.5h-55.2
				c-10.4,0-19.7-5.8-24.5-14.5c-2.7,12.6-14,22.1-27.4,22.1h-65c-7.6,0-14.9-3.1-20.2-8.6c-5.3-5.5-8.1-12.9-7.8-20.5l13.9-364.6
				c0.6-15,12.9-26.9,28-26.9h98.7c13.6,0,25.2,9.7,27.6,23.1l12.4,69.1l14.9-70c2.8-12.9,14.2-22.2,27.4-22.2h96.1
				c15.1,0,27.5,12,28,27.1l11.3,364.6c0.2,7.6-2.6,14.9-7.9,20.4c-5.3,5.4-12.5,8.5-20.1,8.5H1785.3z"/>
			<path class="st3" d="M2133.2,2326.4c-3.6,0-7.3-0.7-10.7-2.1c-43.4-17.9-74.2-34.8-112.6-57.7c-1.3-0.4-4.4-0.8-6.7-1.1
				c-1.1-0.2-2.3-0.3-3.4-0.5c-37.9-5.5-72.5-27.2-97.4-60.9c-28-37.9-42.7-90.2-42.7-151.3c0-61.5,14.4-115,41.8-154.6
				c29.5-42.9,72.8-66.5,121.8-66.5c48.6,0,91.2,23.3,120.1,65.7c26.1,38.3,39.8,89.4,39.8,147.9c0,38.8-6.9,76.2-20,108.3
				c-5.4,13.2-11.6,25.2-18.6,35.7c4.5,1.2,9.1,2.3,13.8,3.5c14.8,3.7,23.9,18.6,20.5,33.5l-18.3,78.4c-1.9,8-7.2,14.8-14.5,18.5
				C2142,2325.3,2137.6,2326.4,2133.2,2326.4z M2021.4,1966.7c-8.6,0-15.2,9.1-19.2,16.8c-8.4,15.9-13,39.2-13,65.6
				c0,26.3,4.6,49.3,13,64.9c5.8,10.9,12.3,16.4,19.3,16.4c18.1,0,32.3-35.7,32.3-81.3c0-26.4-4.6-49.7-13-65.6
				C2036.6,1975.8,2029.9,1966.7,2021.4,1966.7z"/>
		</g>
	</g>
	<g>
		<g class="st1">
			<path class="st2" d="M78.4,2280.8V1831l39.1-8.7c15.6-3.5,49-9.3,97.9-9.3c35.2,0,86.3,4.6,124,44.2l0.2,0.2
				c17.8,19,39.1,54.3,39.1,114.2c0,38.1-11.9,70.1-28.5,93.8c7.4,15.8,12.1,32.9,15.9,49.2l0,0.2c3.9,17.5,7.8,38.2,11.3,56.5
				c3,16,7.2,37.9,8.9,43.6l22.3,65.9H78.4z"/>
			<polygon class="st2" points="494.4,2280.8 482,2220.9 471.4,2280.8 295,2280.8 394.2,1816.2 568.8,1816.2 674.5,2280.8 			"/>
			<path class="st2" d="M716,2285.1c-40.8,0-67.2-4.3-82.2-7.9l-38.3-9.2v-435.7l37.5-9.7c21.4-5.5,62.7-9.7,96.2-9.7
				c40.6,0,72.1,3.7,103.3,21.9c39.2,22.5,62.6,67.6,62.6,120.6c0,27.4-6.6,52.3-18.8,73.1c2.6,3.6,5,7.4,7.2,11.3
				c13.3,23.4,20,51.1,20,82.2c0,45.8-15.9,87.4-44.9,117.1l-0.3,0.4l-0.4,0.4C826.6,2270.7,781.5,2285.1,716,2285.1z"/>
			<path class="st2" d="M960.9,2285.1c-40.8,0-67.2-4.3-82.2-7.9l-38.3-9.2v-435.7l37.5-9.7c21.4-5.5,62.7-9.7,96.2-9.7
				c40.6,0,72.1,3.7,103.3,21.9c39.2,22.5,62.6,67.6,62.6,120.6c0,27.4-6.6,52.3-18.8,73.1c2.6,3.6,5,7.4,7.2,11.3
				c13.3,23.4,20,51.1,20,82.2c0,45.8-15.9,87.4-44.9,117.1l-0.3,0.4l-0.4,0.4C1071.4,2270.7,1026.3,2285.1,960.9,2285.1z"/>
			<rect x="1085.2" y="1816.2" class="st2" width="169.1" height="464.6"/>
			<polygon class="st2" points="1256.2,2280.8 1256.2,1999.5 1186.8,1999.5 1186.8,1816.2 1496.2,1816.2 1496.2,1999.5 
				1425.3,1999.5 1425.3,2280.8 			"/>
			<polygon class="st2" points="1736.2,2280.8 1736.1,2273.2 1665.7,2273.2 1665.5,2280.8 1499.8,2280.8 1517.5,1816.2 
				1891.1,1816.2 1905.6,2280.8 			"/>
			<path class="st2" d="M2114.1,2344.6c-43.3-17.9-74.3-34.7-112.1-57.1c-0.6-0.1-1.3-0.2-1.9-0.3c-1.2-0.2-2.4-0.3-3.6-0.5
				c-43.7-6.4-83.4-31.1-111.8-69.6c-30.8-41.7-47-98.5-47-164.3c0-66,15.8-123.8,45.6-167.1c33.8-49,83.5-76,139.9-76
				c56.1,0,105.2,26.7,138.3,75.3c28.6,41.9,43.7,97.4,43.7,160.3c0,47.7-10,93.1-27.5,129.8l33.6,8.5l-11.1,47.9l-31.6,135.8
				L2114.1,2344.6z M2021.4,1993.9c-4.8,9.3-10.3,27.7-10.3,55.1c0,27.8,5.7,46.1,10.5,54.9c4.6-8.7,10.1-27,10.1-54.9
				C2031.7,2021.6,2026.2,2003.2,2021.4,1993.9z"/>
		</g>
		<g>
			<path d="M128.4,1871c19.4-4.3,49.7-8.1,87-8.1c41.3,0,68.7,8.7,87.7,28.7c15.7,16.8,25.6,43.3,25.6,80.1
				c0,48.7-26.7,79.5-43.9,87.6v2.2c16.4,10.3,25.6,34.1,32.5,64.4c8.4,37.3,16.8,90.9,21.6,104.9h-70.2c-4-10.8-10.6-36.2-19-83.3
				c-7.7-43.8-17.5-52.5-40.6-52.5h-12.4v135.8h-68.3V1871z M196.7,2023h20.5c27,0,43.1-16.2,43.1-43.8s-13.9-41.7-37.3-41.7
				c-15.3,0-22.7,1.1-26.3,2.2V2023z"/>
			<path d="M445.2,2142.1l-15.7,88.7h-72.7l77.8-364.6h94.3l83,364.6h-76.7l-18.3-88.7H445.2z M506.3,2067.4l-13.2-64.4
				c-4.4-20.6-9.5-47.1-13.9-68.2h-0.7c-4,21.1-7.7,47.6-11.7,68.7l-11.7,63.8H506.3z"/>
			<path d="M645.5,1871c14.6-3.8,50.8-8.1,83.7-8.1c38.7,0,58.8,3.8,78.2,15.1c20.8,11.9,37.6,38.4,37.6,77.4
				c0,30.8-11.7,60-41.7,75.7v1.1c30.7,11.9,50.1,44.4,50.1,89.8c0,35.7-12.8,63.8-30.7,82.2c-19.7,19.5-51.9,30.8-106.7,30.8
				c-33.6,0-57-3.2-70.5-6.5V1871z M713.8,2004.1h14.6c32.2,0,46.8-13,46.8-35.7c0-20.6-12.1-32.5-36.5-32.5
				c-13.2,0-20.1,1.1-24.9,2.2V2004.1z M713.8,2159.9c5.5,1.1,12.1,1.1,22.3,1.1c24.1,0,44.2-12.4,44.2-44.4
				c0-30.8-20.8-41.1-48.6-41.1h-17.9V2159.9z"/>
			<path d="M890.3,1871c14.6-3.8,50.8-8.1,83.7-8.1c38.7,0,58.8,3.8,78.2,15.1c20.8,11.9,37.6,38.4,37.6,77.4
				c0,30.8-11.7,60-41.7,75.7v1.1c30.7,11.9,50.1,44.4,50.1,89.8c0,35.7-12.8,63.8-30.7,82.2c-19.7,19.5-51.9,30.8-106.7,30.8
				c-33.6,0-57-3.2-70.5-6.5V1871z M958.7,2004.1h14.6c32.2,0,46.8-13,46.8-35.7c0-20.6-12.1-32.5-36.5-32.5
				c-13.2,0-20.1,1.1-24.9,2.2V2004.1z M958.7,2159.9c5.5,1.1,12.1,1.1,22.3,1.1c24.1,0,44.2-12.4,44.2-44.4
				c0-30.8-20.8-41.1-48.6-41.1h-17.9V2159.9z"/>
			<path d="M1204.2,1866.2v364.6h-69.1v-364.6H1204.2z"/>
			<path d="M1306.2,1949.5h-69.4v-83.3h209.4v83.3h-70.9v281.3h-69.1V1949.5z"/>
			<path d="M1782.7,2095c-0.7-45.4-1.1-95.7-1.1-159h-1.1c-8.8,51.9-20.5,109.3-30,155.2l-26.7,132h-55.2l-21.9-131.4
				c-7.3-44.9-15.3-101.7-21.9-155.8h-0.7c-1.5,55.7-2.6,113.6-3.7,159l-3.7,135.8h-65l13.9-364.6h98.7l16.4,92
				c6.9,38.9,14.6,89.3,20.1,135.2h1.5c8-46,17.2-100.1,24.9-136.3l19.4-90.9h96.1l11.3,364.6h-68.7L1782.7,2095z"/>
			<path d="M2133.2,2298.4c-40.6-16.8-69.8-32.5-109.6-56.3c-5.5-3.2-12.4-3.8-19.7-4.9c-55.5-8.1-116.2-63.3-116.2-184.5
				c0-112.5,53-193.1,135.6-193.1c82.6,0,131.9,80.6,131.9,185.5c0,75.2-28.1,133.6-59.2,155.8v2.2c16.8,7,36.2,11.9,55.5,16.8
				L2133.2,2298.4z M2081.7,2049c0-62.7-23.4-110.4-60.3-110.4s-60.3,47.6-60.3,110.4s23.4,109.3,60.3,109.3
				C2059.4,2158.3,2081.7,2111.8,2081.7,2049z"/>
		</g>
	</g>
</g>
</svg>
