<?xml version="1.0" encoding="utf-8"?>
<!-- Generator: Adobe Illustrator 22.0.1, SVG Export Plug-In . SVG Version: 6.00 Build 0)  -->
<svg version="1.1" id="Layer_1" xmlns="http://www.w3.org/2000/svg" xmlns:xlink="http://www.w3.org/1999/xlink" x="0px" y="0px"
	 viewBox="0 0 256 220" style="enable-background:new 0 0 256 220;" xml:space="preserve">
<style type="text/css">
	.st0{fill:#912626;}
	.st1{fill:#C6302B;}
	.st2{fill:#FFFFFF;}
	.st3{fill:#621B1C;}
	.st4{fill:#9A2928;}
	.st5{display:none;}
	.st6{display:inline;fill:#FFFFFF;}
	.st7{display:inline;fill:#FCFCFC;}
</style>
<g>
	<path class="st0" d="M229.4,119.9c-11.7,5-72.6,25.3-85.5,30.8c-12.9,5.5-20.1,5.5-30.4,1.5c-10.2-4-75-25.3-86.6-29.7
		c-5.8-2.2-8.9-4.2-8.9-6V98.4c0,0,84.3-14.9,97.9-18.9s18.3-4.1,29.9-0.6c11.6,3.4,80.8,13.6,92.2,17c0,0,0,16.1,0,17.9
		C238,115.4,235.4,117.4,229.4,119.9"/>
	<path class="st1" d="M229.4,101.9c-11.7,5-72.6,25.3-85.5,30.8c-12.9,5.5-20.1,5.5-30.4,1.5c-10.2-4-74.9-25.3-86.6-29.7
		C15.2,100,15,96.8,26.4,93.2c11.5-3.6,75.8-24.2,89.4-28.1s18.3-4.1,29.9-0.6s72,23.1,83.5,26.4C240.7,94.1,241.1,97,229.4,101.9"
		/>
	<path class="st0" d="M229.4,90.6c-11.7,5-72.6,25.3-85.5,30.8c-12.9,5.5-20.1,5.5-30.4,1.5c-10.2-4-75-25.3-86.6-29.7
		c-5.8-2.3-8.9-4.3-8.9-6V69.1c0,0,84.3-14.9,97.9-18.9s18.3-4.1,29.9-0.6s80.8,13.6,92.2,17c0,0,0,16.1,0,17.9
		C238,86.2,235.4,88.1,229.4,90.6"/>
	<path class="st1" d="M229.4,72.7c-11.7,5-72.6,25.3-85.5,30.8c-12.9,5.5-20.1,5.5-30.4,1.5c-10.2-4-74.9-25.3-86.6-29.7
		C15.2,70.7,15,67.6,26.4,64c11.5-3.6,75.8-24.2,89.4-28.1s18.3-4.1,29.9-0.6s72,23.1,83.5,26.4S241.1,67.8,229.4,72.7L229.4,72.7"
		/>
	<path class="st0" d="M229.4,60.3c-11.7,5-72.6,25.3-85.5,30.8c-12.9,5.5-20.1,5.5-30.4,1.5c-10.2-4-75-25.3-86.6-29.7
		c-5.8-2.2-8.9-4.2-8.9-6V38.8c0,0,84.3-14.9,97.9-18.9s18.3-4.1,29.9-0.6c11.6,3.4,80.8,13.6,92.2,17c0,0,0,16.1,0,17.9
		C238,55.8,235.4,57.8,229.4,60.3"/>
	<path class="st1" d="M229.4,42.4c-11.7,5-72.6,25.3-85.5,30.8c-12.9,5.5-20.1,5.5-30.4,1.5c-10.3-4-74.9-25.3-86.6-29.8
		S15,37.2,26.4,33.6C37.9,30,102.2,9.4,115.8,5.5s18.3-4.1,29.9-0.6c11.6,3.4,72,23.1,83.5,26.4C240.7,34.6,241.1,37.4,229.4,42.4"
		/>
	<path class="st2" d="M154.9,24.8L136,26.4l-4.2,8.2l-6.8-9.3l-21.8-1.6l16.3-4.8l-4.9-7.3l15.3,4.8l14.4-3.8l-3.9,7.6L154.9,24.8"
		/>
	<path class="st2" d="M130.6,65L95.3,53l50.6-6.3L130.6,65"/>
	<path class="st2" d="M81.7,29.3c14.9,0,27,3.8,27,8.5s-12.1,8.5-27,8.5s-27-3.8-27-8.5C54.6,33.2,66.7,29.3,81.7,29.3"/>
	<path class="st3" d="M177.2,27l29.9,9.6l-29.9,9.6V27"/>
	<path class="st4" d="M144.1,37.7L177.2,27v19.3l-3.2,1L144.1,37.7"/>
</g>
<g>
	<g>
		<g class="st5">
			<path class="st6" d="M77.5,216c-0.5,0-1.1-0.1-1.5-0.4l-3.9-2.3l-1.9,1.9c-0.6,0.6-1.3,0.9-2.1,0.9h-9c-0.8,0-1.6-0.3-2.1-0.9
				l-5-5c-0.6-0.6-0.9-1.3-0.9-2.1v-31.9c0-0.7,0.3-1.4,0.7-2l4.3-4.9c0.5-0.5,1.1-0.9,1.8-1c2-0.3,6.3-0.8,12.6-0.8
				c7.3,0,12.2,1.2,16.2,4c4.3,3.1,6.7,8,6.7,13.6c0,3.1-1,6.2-2.8,8.9c0.3,0.7,0.6,1.4,0.9,2.2c0.6,1.7,1.1,3.6,1.6,5.3
				c0.3,0.9,0.8,2.9,1,3.3c0.3,0.9,0.3,2-0.2,2.8l-4.5,7.2c-0.5,0.9-1.5,1.4-2.5,1.4H77.5z"/>
			<path class="st6" d="M90.6,216c-0.8,0-1.6-0.3-2.1-0.9l-5-5c-0.6-0.6-0.9-1.3-0.9-2.1v-32.4c0-0.8,0.3-1.6,0.9-2.1l5-5
				c0.6-0.6,1.3-0.9,2.1-0.9h23c0.8,0,1.6,0.3,2.1,0.9l5,5c0.6,0.6,0.9,1.3,0.9,2.1v7.3c0,0.8-0.3,1.6-0.9,2.1l-0.8,0.8
				c0.5,0.6,0.8,1.3,0.8,2.1v7.3c0,0.7-0.3,1.4-0.8,2l1.4,1.4c0.6,0.6,0.9,1.3,0.9,2.1v7.3c0,0.8-0.3,1.6-0.9,2.1l-5,5
				c-0.6,0.6-1.3,0.9-2.1,0.9H90.6z"/>
			<path class="st6" d="M129,216.4c-4.4,0-8.1-0.2-10.9-0.7c-0.7-0.1-1.3-0.5-1.8-1l-4.2-4.9c-0.5-0.5-0.7-1.2-0.7-1.9v-31.7
				c0-0.7,0.3-1.4,0.7-2l4.2-4.9c0.5-0.5,1.1-0.9,1.8-1c3.4-0.5,7.9-0.8,12.6-0.8c8.2,0,13.9,1.3,18.8,4.5
				c6.5,4.1,10.1,10.9,10.1,19c0,10.5-5,16.4-9.1,19.6C145.4,214.4,138.1,216.4,129,216.4z"/>
			<path class="st6" d="M156.6,216c-0.8,0-1.6-0.3-2.1-0.9l-5-5c-0.6-0.6-0.9-1.3-0.9-2.1v-32.4c0-0.8,0.3-1.6,0.9-2.1l5-5
				c0.6-0.6,1.3-0.9,2.1-0.9h9.1c0.8,0,1.6,0.3,2.1,0.9l5,5c0.6,0.6,0.9,1.3,0.9,2.1V208c0,0.8-0.3,1.6-0.9,2.1l-5,5
				c-0.6,0.6-1.3,0.9-2.1,0.9H156.6z"/>
			<path class="st6" d="M181.5,216.6c-6,0-11.4-1.7-14.2-3.1c-0.6-0.3-1.1-0.8-1.4-1.4l-2.6-5.7c-0.3-0.6-0.3-1.3-0.2-2l1.9-7.4
				c0.2-0.8,0.7-1.4,1.4-1.8c-2.1-2.8-3.2-6.2-3.2-9.9c0-10.7,8.9-18.2,21.7-18.2c4.9,0,9,0.8,13,2.5c0.7,0.3,1.2,0.8,1.5,1.5l2.9,6
				c0.3,0.7,0.4,1.4,0.2,2.1l-2.1,7.1c-0.1,0.3-0.2,0.6-0.4,0.8c2.7,3,4.1,6.8,4.1,11.1C204.1,207.3,197.1,216.6,181.5,216.6z"/>
		</g>
		<g>
			<path class="st2" d="M77.5,211c-1.1,0-2.1-0.6-2.6-1.6c-0.8-1.5-1.8-4.2-2.8-8.1c-0.4-1.5-0.6-2.1-1.1-2.3v8.9c0,1.7-1.3,3-3,3
				h-9c-1.7,0-3-1.3-3-3v-31.9c0-1.5,1.1-2.7,2.6-3c1.9-0.3,5.9-0.8,11.9-0.8c6.2,0,10.2,1,13.3,3.1c3,2.2,4.6,5.5,4.6,9.5
				c0,3.6-1.7,6.4-3.8,8.3c1.1,1.5,1.7,3.1,2.2,4.4c0.5,1.6,1,3.4,1.5,5c0.4,1.5,1,3.4,1.2,3.9c0.4,0.9,0.4,2-0.2,2.9
				c-0.5,0.9-1.5,1.4-2.5,1.4H77.5z M71,186.6c1,0,2.4-0.3,2.4-0.9c0-0.2,0-0.3,0-0.3c-0.1-0.1-0.6-0.4-1.9-0.4c-0.2,0-0.3,0-0.5,0
				V186.6z"/>
			<path class="st2" d="M90.6,211c-1.7,0-3-1.3-3-3v-32.4c0-1.7,1.3-3,3-3h23c1.7,0,3,1.3,3,3v7.3c0,1.2-0.7,2.3-1.8,2.7
				c0.6,0.5,1,1.3,1,2.2v7.3c0,1.1-0.5,2-1.4,2.5c1.6,0,2.9,1.4,2.9,3v7.3c0,1.7-1.3,3-3,3H90.6z"/>
			<path class="st2" d="M129,211.4c-5.2,0-8.4-0.3-10.1-0.6c-1.5-0.2-2.5-1.5-2.5-3v-31.7c0-1.5,1.1-2.7,2.5-3
				c3.2-0.5,7.4-0.8,11.8-0.8c7.2,0,12,1.1,16.2,3.7c5.1,3.2,7.8,8.3,7.8,14.8c0,8.4-3.9,13.1-7.1,15.6
				C143.3,209.7,137,211.4,129,211.4z M131.4,198.4c2.3-0.1,4.2-0.7,5.5-1.7c1.4-1.1,2.1-2.9,2.1-5.3c0-1.5,0-6.1-7.4-6.1
				c-0.1,0-0.1,0-0.2,0V198.4z"/>
			<path class="st2" d="M156.6,211c-1.7,0-3-1.3-3-3v-32.4c0-1.7,1.3-3,3-3h9.1c1.7,0,3,1.3,3,3V208c0,1.7-1.3,3-3,3H156.6z"/>
			<path class="st2" d="M181.5,211.6c-4.8,0-9.4-1.3-11.9-2.5c-1.2-0.6-1.9-2.1-1.5-3.4l1.9-7.4c0.2-0.9,0.8-1.6,1.6-2
				c0.4-0.2,0.8-0.3,1.3-0.3c0.5,0,0.9,0.1,1.3,0.3c1,0.5,3.5,1.6,6.4,1.9c0,0-0.1,0-0.1,0c-10.1-2.8-12.3-8.6-12.3-12.9
				c0-7.8,6.9-13.2,16.7-13.2c4.2,0,7.7,0.7,11.1,2.1c1.4,0.6,2.1,2.1,1.7,3.6l-2.1,7.1c-0.2,0.8-0.8,1.5-1.6,1.9
				c-0.4,0.2-0.9,0.3-1.3,0.3c-0.4,0-0.8-0.1-1.1-0.2c-0.4-0.1-0.8-0.3-1.4-0.5c3.6,1.5,8.9,4.7,8.9,11.9
				C199.1,204.3,194.5,211.6,181.5,211.6z"/>
		</g>
	</g>
	<g>
		<g class="st5">
			<path class="st7" d="M77.5,213l-4.4-2.6c-0.3-0.5-0.5-1-0.8-1.7L68,213h-9l-5-5v-31.9l4.3-4.9c1.9-0.3,6.1-0.8,12.2-0.8
				c6.6,0,11,1.1,14.4,3.5c3.5,2.5,5.5,6.5,5.5,11.2c0,3.4-1.3,6.3-3.3,8.5c0.7,1.2,1.2,2.5,1.5,3.5c0.5,1.6,1.1,3.5,1.5,5.1
				c0.4,1.3,0.9,3.1,1.1,3.6l-4.5,7.2H77.5z"/>
			<polygon class="st7" points="90.6,213 85.6,208 85.6,175.6 90.6,170.6 113.7,170.6 118.7,175.6 118.7,182.9 115.8,185.8 
				117.8,187.9 117.8,195.2 115.8,197.2 119.4,200.7 119.4,208 114.4,213 			"/>
			<path class="st7" d="M129,213.4c-4.3,0-7.8-0.2-10.4-0.6l-4.2-4.9v-31.7l4.2-4.9c3.3-0.5,7.6-0.8,12.1-0.8c7.6,0,12.8,1.2,17.2,4
				c5.6,3.6,8.8,9.4,8.8,16.5c0,9.2-4.3,14.4-7.9,17.2C144.1,211.6,137.4,213.4,129,213.4z M133.4,196.2c0.9-0.2,1.7-0.6,2.2-1
				c0.3-0.3,1.4-1.1,1.4-3.8c0-1.3,0-3.5-3.6-4V196.2z"/>
			<polygon class="st7" points="156.6,213 151.6,208 151.6,175.6 156.6,170.6 165.7,170.6 170.7,175.6 170.7,208 165.7,213 			"/>
			<path class="st7" d="M181.5,213.6c-5.1,0-10.1-1.4-12.8-2.8l-2.6-5.7l1.9-7.4l3.6-1.7c-4.3-3.3-5.4-7.4-5.4-10.8
				c0-8.9,7.7-15.2,18.7-15.2c4.5,0,8.3,0.7,11.8,2.2l2.9,6l-2.1,7.1l-2.5,1.2c4,2.8,6.1,6.7,6.1,11.5
				C201.1,205.3,195.9,213.6,181.5,213.6z"/>
		</g>
		<g>
			<path d="M59.1,176.1c2.5-0.4,6.5-0.7,11.4-0.7c5.4,0,9,0.8,11.5,2.5c2.1,1.5,3.4,3.8,3.4,7.1c0,4.3-3.5,7.1-5.8,7.8v0.2
				c2.2,0.9,3.4,3,4.3,5.7c1.1,3.3,2.2,8.1,2.8,9.3h-9.2c-0.5-1-1.4-3.2-2.5-7.4c-1-3.9-2.3-4.7-5.3-4.7H68v12h-9
				C59.1,208,59.1,176.1,59.1,176.1z M68,189.6h2.7c3.6,0,5.7-1.4,5.7-3.9s-1.8-3.7-4.9-3.7c-2,0-3,0.1-3.5,0.2
				C68,182.2,68,189.6,68,189.6z"/>
			<path d="M112.8,195.2H99.7v5.5h14.7v7.3H90.6v-32.4h23v7.3h-14v4.9h13.2V195.2z"/>
			<path d="M119.4,176.1c3.1-0.5,7.2-0.7,11.4-0.7c6.8,0,11,1,14.5,3.3c3.8,2.4,6.4,6.3,6.4,12.2c0,6.7-2.8,10.8-6,13.2
				c-4,3-10,4.3-16.8,4.3c-4.8,0-7.8-0.3-9.6-0.6V176.1z M128.4,201.3c0.5,0.1,1.4,0.1,2.1,0.1c6.6,0.1,11.5-3,11.5-10.1
				c0-6.4-4.6-9.1-10.4-9.1c-1.7,0-2.7,0.1-3.2,0.2V201.3z"/>
			<path d="M165.7,175.6V208h-9.1v-32.4H165.7z"/>
			<path d="M172.8,199c2.2,1.1,5.6,2.3,9.3,2.3c3,0,4.6-1,4.6-2.6c0-1.4-1.5-2.3-5.4-3.4c-5.5-1.5-10.1-4.4-10.1-10
				c0-5.9,5.3-10.2,13.7-10.2c4.4,0,7.4,0.8,9.9,1.8l-2.1,7.1c-1.5-0.6-4.3-1.7-8-1.7c-2.7,0-4.2,0.9-4.2,2.3c0,1.7,2.1,2.3,6.3,3.6
				c6.3,2,9.3,5,9.3,9.9c0,5.4-4.3,10.4-14.6,10.4c-4.3,0-8.4-1.2-10.5-2.2L172.8,199z"/>
		</g>
	</g>
</g>
</svg>
