<?xml version="1.0" encoding="utf-8"?>
<!-- Generator: Adobe Illustrator 22.0.1, SVG Export Plug-In . SVG Version: 6.00 Build 0)  -->
<svg version="1.1" id="Layer_1" xmlns="http://www.w3.org/2000/svg" xmlns:xlink="http://www.w3.org/1999/xlink" x="0px" y="0px"
	 viewBox="0 0 256 244" style="enable-background:new 0 0 256 244;" xml:space="preserve">
<style type="text/css">
	.st0{fill:#764ABC;}
	.st1{display:none;}
	.st2{display:inline;fill:#FFFFFF;}
	.st3{fill:#FFFFFF;}
	.st4{display:inline;fill:#FFFDFE;}
</style>
<g>
	<path class="st0" d="M162.8,109.9c7.6-0.6,13.3-5.4,13.1-11.1c-0.3-5.8-6.8-10.4-14.7-10.4h-0.5c-8.1,0.2-14.4,5.2-14.1,11.1
		c0.3,2.9,1.8,5.4,4.2,7.1c-8.9,12.8-22.5,22.2-42.9,30.1c-13.9,5.4-28.3,7.3-42.7,5.9c-11.8-1.2-20.9-5-26.7-11.3
		c-8.4-9.4-9.2-19.6-2.1-29.7c5-7.3,12.8-12.7,17.8-15.3c-1-2.5-2.6-6.7-3.4-9.8c-37.9,20.1-34,47.3-22.5,60.2
		c8.6,9.6,26.2,15.5,45.5,15.5c5.2,0,10.5-0.4,15.7-1.3C123.1,146.1,148.4,131.5,162.8,109.9z M208.9,86.1
		C189,69,159.7,59.6,126.2,59.6H122c-2.4-3.5-7.3-5.8-12.8-5.8h-0.5C100.6,54,94.3,59,94.6,64.9c0.3,5.8,6.8,10.4,14.7,10.4h0.5
		c5.8-0.2,10.7-2.9,12.8-6.5h4.7c19.9,0,38.7,4.2,55.7,12.5c13.1,6.3,22.5,14.6,27.7,24.5c4.4,8.1,4.2,15.9-0.5,22.6
		c-7.3,10.2-19.6,15.7-35.9,15.7c-10.5,0-20.4-2.3-25.6-4c-2.9,1.9-8.1,5-11.8,6.9c11.3,3.8,22.8,5.9,33.8,5.9
		c25.1,0,43.7-10.2,50.8-20.3C229,121.6,228.5,102.4,208.9,86.1z M75.9,113.1c0.3,5.8,6.8,10.4,14.7,10.4h0.5
		c8.1-0.2,14.4-5.2,14.1-11.1c-0.3-5.8-6.8-10.4-14.7-10.4H90c-0.5,0-1.3,0-1.8,0.2C77.5,89.2,73.1,75,74.6,59.6
		c1-11.5,6.3-21.5,15.4-29.7c7.6-7.1,22.2-10.5,32.2-10.7c27.7-0.4,39.5,24.9,40.3,35.1c3.4,0.6,9.2,1.9,13.1,2.9
		C172.5,26.1,146.3,10,121.2,10c-23.6,0-45.3,12.5-53.9,30.9c-12,24.5-4.2,48.1,10.5,66.7C76.5,108.9,75.7,111,75.9,113.1z"/>
</g>
<g>
	<g>
		<g class="st1">
			<path class="st2" d="M73,228.9c-0.6,0-1.1-0.2-1.6-0.4l-4.2-2.6l-2.2,2.2c-0.6,0.6-1.3,0.9-2.1,0.9h-9.6c-0.8,0-1.6-0.3-2.1-0.9
				l-6-6c-0.6-0.6-0.9-1.3-0.9-2.1v-37.4c0-0.7,0.3-1.4,0.7-1.9l5-5.9c0.5-0.5,1.1-0.9,1.8-1c2.2-0.4,6.9-1,13.7-1
				c8,0,13.5,1.5,17.9,4.9c4.6,3.6,7.1,9.1,7.1,15.4c0,3.7-1.1,7.2-3.1,10.3c0.4,0.9,0.8,1.9,1.1,3.1c0.6,2,1.2,4.2,1.7,6.1
				c0.3,1.1,0.9,3.5,1.1,3.9c0.3,0.9,0.2,1.9-0.3,2.7l-5.5,8.4c-0.6,0.8-1.5,1.4-2.5,1.4H73z"/>
			<path class="st2" d="M100.4,229.6c-14.2,0-23.8-9.4-23.8-23.4c0-11.5,8-23.7,22.9-23.7c12.7,0,21.5,9.6,21.5,23.4
				c0,2-0.3,4.3-0.6,5.8c-0.2,0.6-0.5,1.2-1.1,1.6l-0.5,0.4l0.6,3.3c0.1,0.7,0,1.3-0.3,1.9l-3.5,6.5c-0.3,0.6-0.8,1.1-1.4,1.3
				C110.1,228.8,105.7,229.6,100.4,229.6z"/>
			<path class="st2" d="M126.7,229.6c-10,0-20.7-8.2-20.7-23.3c0-7,2.4-13.2,6.8-17.7c3.4-3.5,7.8-5.5,12.6-6v-3
				c0-0.8,0.3-1.6,0.9-2.1l6-6c0.6-0.6,1.3-0.9,2.1-0.9h9.7c0.8,0,1.6,0.3,2.1,0.9l6,6c0.6,0.6,0.9,1.3,0.9,2.1v31.6
				c0,3.3,0.1,6.8,0.2,8.1c0.1,0.8-0.2,1.6-0.8,2.3l-6,6.4c-0.6,0.6-1.4,1-2.2,1h-8.7c-0.6,0-1.3-0.2-1.8-0.6
				C131.6,229.2,129.2,229.6,126.7,229.6z"/>
			<path class="st2" d="M159.8,229.6c-9.3,0-18.6-6.5-18.6-21.1v-16.3c0-0.8,0.3-1.6,0.9-2.1l6-6c0.6-0.6,1.3-0.9,2.1-0.9h9.7
				c0.8,0,1.6,0.3,2.1,0.9l1.5,1.5l1.5-1.5c0.6-0.6,1.3-0.9,2.1-0.9h9.7c0.8,0,1.6,0.3,2.1,0.9l6,6c0.6,0.6,0.9,1.3,0.9,2.1v18.1
				c0,3.3,0.1,6.4,0.2,9.2c0,0.8-0.3,1.6-0.8,2.2l-6,6.3c-0.6,0.6-1.3,0.9-2.2,0.9h-8.4c-0.7,0-1.3-0.2-1.8-0.6
				C164.6,229.2,162.3,229.6,159.8,229.6z"/>
			<path class="st2" d="M198.9,228.9c-0.6,0-1.1-0.2-1.6-0.4l-2.5-1.6l-2.4,1.5c-0.5,0.3-1,0.5-1.6,0.5h-10.8
				c-1.1,0-2.1-0.6-2.6-1.6l-5-9.3c-0.5-1-0.5-2.1,0.1-3.1l6-9.2l-5.8-8.5c-0.6-0.9-0.7-2.1-0.2-3.1l5-9.4c0.5-1,1.5-1.6,2.7-1.6
				H191c0.5,0,1,0.1,1.5,0.4l2.7,1.6l2.5-1.5c0.5-0.3,1-0.4,1.6-0.4H210c1.1,0,2.1,0.6,2.7,1.6l4.9,9.4c0.5,1,0.4,2.2-0.2,3.1
				l-5.7,8.1l6,9.7c0.6,0.9,0.6,2.1,0.1,3l-5.1,9.1c-0.5,0.9-1.5,1.5-2.6,1.5H198.9z"/>
		</g>
		<g>
			<path class="st3" d="M73,222.9c-1.1,0-2.2-0.6-2.7-1.7c-0.8-1.7-1.8-4.9-2.9-9.3c-0.5-2.2-0.8-2.9-1.5-3.1v11c0,1.7-1.3,3-3,3
				h-9.6c-1.7,0-3-1.3-3-3v-37.4c0-1.5,1.1-2.7,2.5-3c2-0.3,6.3-0.9,12.7-0.9c6.6,0,11,1.1,14.2,3.6c2.2,1.7,4.8,5,4.8,10.7
				c0,4.3-2,7.5-4.3,9.6c1.3,1.7,2,3.8,2.6,5.6c0.6,1.8,1.1,4,1.6,5.8c0.4,1.8,1.1,4.1,1.3,4.7c0.4,0.9,0.3,2-0.2,2.9
				c-0.6,0.9-1.5,1.4-2.5,1.4H73z M65.9,195.3c2,0,2.9-0.5,2.9-1.6c0-0.6,0-1.3-2.2-1.3c-0.3,0-0.5,0-0.7,0V195.3z"/>
			<path class="st3" d="M100.4,223.6c-11,0-17.8-6.6-17.8-17.4c0-6.8,4.6-17.7,16.9-17.7c10.7,0,15.5,8.7,15.5,17.4
				c0,1.7-0.2,3.5-0.4,4.4c-0.3,1-1,1.8-2,2.1l1,5.7c0.2,1.4-0.5,2.7-1.7,3.3C108.4,222.9,104.8,223.6,100.4,223.6z"/>
			<path class="st3" d="M126.7,223.6c-7.1,0-14.7-6.1-14.7-17.3c0-5.4,1.8-10.1,5-13.4c2.8-2.8,6.4-4.3,10.3-4.3
				c1.6,0,2.9,0.2,4,0.5v-9.4c0-1.7,1.3-3,3-3h9.7c1.7,0,3,1.3,3,3v31.6c0,3.6,0.1,7.1,0.2,8.5c0.1,0.8-0.2,1.6-0.8,2.3
				s-1.4,1-2.2,1h-8.7c-0.9,0-1.7-0.4-2.2-1C131.4,223,129.1,223.6,126.7,223.6z M130,202.4c-1.8,0-2.1,2.2-2.1,3.5
				c0,1.2,0.3,3.3,2,3.3c0.7,0,1.2-0.7,1.3-1.4c0.1-0.4,0.1-1,0.1-1.5v-1.7c0-0.3,0-0.6,0-0.8C131.2,203.1,130.7,202.4,130,202.4z"
				/>
			<path class="st3" d="M159.8,223.6c-7.9,0-12.6-5.6-12.6-15.1v-16.3c0-1.7,1.3-3,3-3h9.7c1.7,0,3,1.3,3,3v14.4
				c0,1.8,0.4,2.4,0.4,2.5c0,0,0.1,0,0.2,0c0.1,0,0.4,0,0.6-0.7c0,0,0,0,0,0c0-0.1,0-0.2,0-0.3v-15.9c0-1.7,1.3-3,3-3h9.7
				c1.7,0,3,1.3,3,3v18.1c0,3.4,0.1,6.6,0.2,9.5c0,0.8-0.3,1.6-0.8,2.2c-0.6,0.6-1.3,0.9-2.2,0.9h-8.4c-0.9,0-1.7-0.4-2.3-1
				C164.5,223,162.3,223.6,159.8,223.6z"/>
			<path class="st3" d="M198.9,222.9c-1.1,0-2.2-0.6-2.7-1.6l-1.4-2.8l-1.3,2.7c-0.5,1-1.6,1.7-2.7,1.7h-10.8
				c-1.1,0-2.1-0.6-2.6-1.6c-0.5-1-0.5-2.1,0.1-3.1l8.3-12.6l-8.1-11.8c-0.6-0.9-0.7-2.1-0.2-3.1c0.5-1,1.5-1.6,2.7-1.6H191
				c1.1,0,2.1,0.6,2.6,1.5l1.6,2.9l1.3-2.7c0.5-1,1.5-1.7,2.7-1.7H210c1.1,0,2.1,0.6,2.7,1.6c0.5,1,0.4,2.2-0.2,3.1l-7.9,11.3
				l8,13.1c0.6,0.9,0.6,2.1,0.1,3c-0.5,0.9-1.5,1.5-2.6,1.5H198.9z"/>
		</g>
	</g>
	<g>
		<g class="st1">
			<path class="st4" d="M73,225.9l-5.4-3.3c-0.1-0.3-0.3-0.6-0.5-1l-4.3,4.3h-9.6l-6-6v-37.4l5-5.9c2.1-0.3,6.6-0.9,13.2-0.9
				c7.3,0,12.3,1.3,16,4.2c3.8,3,5.9,7.6,5.9,13.1c0,3.9-1.5,7.4-3.6,10c0.8,1.5,1.3,3,1.7,4.3c0.6,1.9,1.1,4.1,1.6,6
				c0.4,1.6,0.9,3.7,1.2,4.3l-5.5,8.4H73z"/>
			<path class="st4" d="M100.4,226.6c-12.6,0-20.8-8-20.8-20.4c0-10,7-20.7,19.9-20.7c11.1,0,18.5,8.2,18.5,20.4
				c0,1.7-0.2,3.8-0.5,5.1l-1.9,1.5l0.9,5.1l-3.5,6.5C109.2,225.8,105.2,226.6,100.4,226.6z"/>
			<path class="st4" d="M126.7,226.6c-8.6,0-17.7-7.1-17.7-20.3c0-6.2,2.1-11.7,5.9-15.5c3.3-3.4,7.7-5.2,12.4-5.2c0.4,0,0.7,0,1,0
				v-6l6-6h9.7l6,6v31.6c0,3.4,0.1,7,0.2,8.3l-6,6.4h-8.7l-1.2-1.1C132.1,226,129.5,226.6,126.7,226.6z"/>
			<path class="st4" d="M159.8,226.6c-7.2,0-15.6-4.7-15.6-18.1v-16.3l6-6h9.7l3.6,3.6l3.6-3.6h9.7l6,6v18.1c0,3.4,0.1,6.5,0.2,9.3
				l-6,6.3h-8.4l-1.3-1.2C165.1,226,162.6,226.6,159.8,226.6z"/>
			<polygon class="st4" points="198.9,225.9 194.8,223.4 190.8,225.9 179.9,225.9 174.9,216.6 182.1,205.8 175.1,195.6 180.1,186.2 
				191,186.2 195.3,188.7 199.3,186.2 210,186.2 214.9,195.7 208.1,205.4 215.1,216.8 210,225.9 			"/>
		</g>
		<g>
			<path d="M53.3,182.5c2.7-0.5,7-0.8,12.2-0.8c5.8,0,9.7,0.9,12.3,3c2.2,1.7,3.6,4.5,3.6,8.3c0,5.1-3.8,8.3-6.2,9.1v0.2
				c2.3,1.1,3.6,3.5,4.6,6.7c1.2,3.9,2.4,9.5,3,10.9H73c-0.6-1.1-1.5-3.8-2.7-8.7c-1.1-4.6-2.5-5.5-5.7-5.5h-1.7v14.1h-9.6
				C53.3,219.9,53.3,182.5,53.3,182.5z M62.9,198.3h2.9c3.8,0,6.1-1.7,6.1-4.6c0-2.9-2-4.3-5.2-4.3c-2.2,0-3.2,0.1-3.7,0.2V198.3z"
				/>
			<path d="M94.8,209.6c0.4,2.1,3.6,3.2,6.9,3.2c2.5,0,4.9-0.2,7.6-1.1l1.2,7c-3.4,1.5-6.9,1.9-10.1,1.9c-9.5,0-14.8-5.6-14.8-14.4
				c0-5.5,3.4-14.7,13.9-14.7c9,0,12.5,7.4,12.5,14.4c0,1.5-0.2,3-0.4,3.7H94.8z M103,202.5c0-1.2-0.8-4.2-4-4.2
				c-3,0-4.2,2.6-4.4,4.2H103z"/>
			<path d="M144,179.6v31.6c0,3.6,0.1,7.3,0.2,8.7h-8.7l-0.4-4h-0.1c-1.9,3.5-5.3,4.7-8.4,4.7c-5.9,0-11.7-5.1-11.7-14.3
				c-0.1-9.2,5.8-14.7,12.3-14.7c2.9,0,5.6,0.7,6.9,2.7h0.1v-14.6H144z M134.3,204.6c0-0.4,0-0.8-0.1-1.2c-0.4-2.2-2.1-3.9-4.3-3.9
				c-3.5,0-5.1,3-5.1,6.5c0,4,2.1,6.3,5,6.3c2.3,0,4-1.8,4.3-3.9c0.1-0.6,0.1-1.3,0.1-1.9V204.6z"/>
			<path d="M176.8,210.3c0,4.2,0.1,7.4,0.2,9.6h-8.4l-0.4-3.9H168c-0.8,1.3-3,4.6-8.2,4.6c-5.9,0-9.6-4-9.6-12.1v-16.3h9.7v14.4
				c0,3.6,1.2,5.5,3.6,5.5c2.1,0,3.1-1.6,3.4-2.8c0.2-0.4,0.2-0.8,0.2-1.2v-15.9h9.7V210.3z"/>
			<path d="M191,192.2l2.3,3.9c0.7,1.2,1.4,2.5,2.1,3.8h0.2c0.7-1.5,1.3-2.8,1.9-4l1.9-3.7H210l-9,12.9l9,14.7h-11.1l-2.2-4.3
				c-0.7-1.2-1.3-2.5-1.9-3.9h-0.2c-0.7,1.5-1.3,2.8-1.9,3.9l-2.1,4.3h-10.8l9.4-14.2l-9.2-13.5H191z"/>
		</g>
	</g>
</g>
</svg>
