<?xml version="1.0" encoding="utf-8"?>
<!-- Generator: Adobe Illustrator 22.0.1, SVG Export Plug-In . SVG Version: 6.00 Build 0)  -->
<svg version="1.1" id="Layer_1" xmlns="http://www.w3.org/2000/svg" xmlns:xlink="http://www.w3.org/1999/xlink" x="0px" y="0px"
	 viewBox="0 0 2500 2500" style="enable-background:new 0 0 2500 2500;" xml:space="preserve">
<style type="text/css">
	.st0{display:none;}
	.st1{display:inline;fill:#FFFFFF;}
	.st2{fill:#FFFFFF;}
	.st3{stroke:#FCFCFC;stroke-width:3;stroke-miterlimit:10;}
	.st4{fill:#9F1A1F;}
</style>
<g>
	<g class="st0">
		<path class="st1" d="M692.6,980.3c-48.7,0-90.8-15.1-121.5-43.6c-14.4-13.4-25.9-29.3-34.1-47.3l-24.7,82.1H372.1l-42.3-149.1
			l-47.4,149.1H142.9L18.9,529.2H179l42.2,166.9l50.9-167h119.1L439,696.4l45.8-167.3h160.4l-39.6,132
			c23.6-12.1,50.9-18.3,80.9-18.3c50,0,91.8,16.9,120.9,48.8c28.1,30.8,43,74.3,43,125.8V831h4.1l-4.1,18.3v7.7h-1.7l-2.4,10.6
			c-8.2,36.4-28.7,66.2-59.3,86.2C760.4,971.1,727.8,980.3,692.6,980.3z"/>
		<path class="st1" d="M1010.1,975.8c-16.7,0-32.6-3-46.9-8.6H818.8l-0.1-481.1h146.7v160c14.3-5.1,29.7-7.8,45.8-7.8
			c43.2,0,82.7,18.4,111.2,51.8c26.6,31.2,41.2,72.6,41.2,116.7c0,44.3-14.8,85.9-41.6,117.2
			C1093.3,957.4,1053.6,975.8,1010.1,975.8z M988.2,778.4c-23.8,0-25.7,22.1-25.7,28.9c0,12.9,4.5,28.3,25.7,28.3
			s25.7-15.4,25.7-28.3C1013.9,800.5,1012,778.4,988.2,778.4z"/>
		<path class="st1" d="M1379.5,1106.6V936.2c0,0-0.1,0.1-0.1,0.1c-26.8,27.8-62.8,43.1-101.4,43.1c-35.6,0-67.8-12.1-93.3-34.9
			c-24.6-22-41.2-52.6-48.1-88.5l-5.1-26.7l98.7-29.3l4.7,34.7c2.9,21.7,17.4,45,42.2,45c21.1,0,43.8-17.1,43.8-44.6
			c0-23.1-12.4-31.2-47.8-48.4l-1.2-0.6l-22-10.3c-22.4-10.8-45.6-23.5-63.5-42.4c-20.9-22.1-31.5-49.9-31.5-82.5
			c0-36.3,14.2-69.4,39.9-93c24.1-22.2,56.3-34.4,90.5-34.4c25.3,0,49.7,7,70.5,20.3c20.4,13.1,37.4,32.2,49.1,55.5l11.9,23.5
			l-81,55.5l-15.8-29.3c-11.8-21.9-21.3-25.9-35.6-25.9c-14.3,0-29.5,10.3-29.5,29.4c0,11.9,12.5,20,38.9,32.7l23.8,11.2
			c21.5,10,43.7,21.6,62.1,38.3v-60.5h97.9l0,3c15-6.4,31.3-9.7,48.3-9.7c35.4,0,67.7,13.8,92.3,39.1V494.3h98.1v179.1
			c10.8-3.7,22.4-5.6,34.9-5.6c49.5,0,74.7,24.7,87.1,45.4c1.6,2.7,3.1,5.5,4.5,8.4c24.6-33.8,62.2-53.8,107.4-53.8
			c34.4,0,64.8,11.6,88.6,33.6v-27h85.8c9.1-4.1,19.9-6.7,32.8-6.7c21.8,0,38.1,8.4,50,15.6l4.5,2.8c19.8-11.8,43.1-18.3,68.9-18.3
			c37.4,0,70.1,13.7,94.7,39.6c29.1,30.6,44.2,76.7,41.6,126.5l-1.5,28.4l-5.8,0l14.5,8.9l-12.4,24.7
			c-13.1,26.2-30.9,46.8-52.9,61.2c-22.7,14.9-48.7,22.4-77.3,22.4c-40.5,0-76.9-16.4-102.5-46.1c-23.9-27.8-37.1-65.6-37.1-106.7
			c0-21.7,3.1-41.9,8.8-60.2c-0.5-0.4-1.1-0.8-1.5-1.1c-1.6,0.1-2.1,0.6-2.5,1c-0.9,0.8-3.1,3.5-5.3,10.5
			c-4.8,15.3-4.8,37.4-4.8,46.8v149.3h-98.1v-23.3c-3.3,2.6-6.8,5.1-10.3,7.4c-22.7,14.9-48.7,22.4-77.2,22.4c-36.1,0-69-13-93.8-37
			v30.5h-98.1V808.4c0-10.3,0-29.4-4.1-38.3c-1-2.1-2.2-4.7-13-4.7c-12.7,0-25.8,0-25.8,64.4v143.1H1618v-31.4
			c-24.5,24.5-57,37.8-92.9,37.8c-16.8,0-32.9-3.3-47.6-9.4v136.7H1379.5z M2249.3,862.2c7,11.4,18.5,19.6,35.1,19.6
			c9.3,0,21-2.5,33.3-19.5L2249.3,862.2z M1918.8,862.2c7,11.4,18.5,19.6,35.1,19.6c9.3,0,21-2.5,33.3-19.5L1918.8,862.2z
			 M1518.6,765.3c-27.9,0-43,28.7-43,55.7c0,21,9.1,60.8,43.3,60.8c42.7,0,44.8-50.2,44.8-60.3
			C1563.9,795.6,1552,765.3,1518.6,765.3z M2292.7,767.7c-3.7-1.6-7.6-2.4-11.6-2.4c-4.1,0-8.1,0.9-12,2.4H2292.7z M1962.1,767.7
			c-3.7-1.6-7.6-2.4-11.6-2.4c-4,0-8,0.9-11.8,2.4H1962.1z"/>
		<rect x="64.9" y="1023.9" class="st1" width="2336.3" height="175.5"/>
		<path class="st1" d="M1612.9,1180c-34.7,0-62.3-19.9-71.2-48.8c-2.9,28.8-25.2,48.4-56.2,48.4c-18.2,0-34.2-8.1-44.8-22.8
			l-15.4-21.4l35.9-33.7V1047h80.8v44.3c4-11.6,11.4-22,21.6-30c13.6-10.7,31.1-16.6,49.3-16.6c18.2,0,35.7,5.9,49.2,16.6
			c10.2,8,17.6,18.5,21.5,30V1047h129.6v69.7c0,10.1,0,31.2-18.4,47.5l-0.2,0.2c-14.4,12.5-33.1,15.2-46.2,15.2
			c-13.1,0-31.7-2.6-46.1-15.1c-12.5-10.8-16.7-23.9-18-34.4C1675.9,1159.5,1648,1180,1612.9,1180z M746.1,1180
			c-28.1,0-51.7-13.2-64.3-33.6v31.3H576.3V1047h80.8l-0.1,55.1h15.6c2.3-15.8,10.9-30.4,24.2-40.9c13.6-10.7,31.1-16.6,49.3-16.6
			s35.7,5.9,49.3,16.6c10.7,8.5,18.4,19.5,22.1,31.8v-46h61.7c30.9,0,48.8,15.3,55.7,34.3v-34.2h105.3v130.7H935v-57.4
			c-5.7,16.1-18.7,27.4-36.7,31.8v25.6h-80.7v-47.4C809,1159.7,781.1,1180,746.1,1180z M1301.3,1179.5c-15.4,0-31-4.5-44-12.7
			l-24.7-15.6l18.4-30.8c-2.7-5.8-4.5-12.9-4.5-21.6c0-30.7,24.7-53.8,57.5-53.8c12.8,0,27.2,3.4,38.4,9l27.9,14.1l-16.2,29.1
			c7,10.1,8.2,20.8,8.2,26.8c0,17.9-7.2,33.1-20.1,42.9C1331.1,1175.1,1317,1179.5,1301.3,1179.5z M470.5,1177.8v-79.1l-38,79h-53.9
			l-36.5-76.9v77H236.8v-47.2c-8.6,27.2-35.6,47.1-67.6,47.1h-59.4V1047h59.4c18,0,35.1,6.2,48.1,17.5c9.3,8,16,18.3,19.5,29.5
			v-46.8h79.9l0-0.1h178.7l0,0.1h80.5v130.7H470.5z M1933.4,1177.7V1047H2073v80.2l34.8-80.2h62.2l34.3,80.7V1047h80.7v55.1h24.8
			v75.6H1933.4z M1814,1177.7V1047h61c14.5,0,27.3,3.7,37.2,10.8c13.2,9.4,20.5,24,20.5,40.9c0,8.3-1.9,16-5.3,22.9l5.6,6.5
			l-22.7,49.6H1814z M1040.6,1177.7V1047h61c14.5,0,27.3,3.7,37.2,10.8c13.2,9.4,20.5,24,20.5,40.9c0,0.7,0,1.5,0,2.2l23.8-53.9
			h37.6l25.4,45.9l-28.3,45.1h-62.8l-18.2,39.7H1040.6z M1094.5,1078.7L1094.5,1078.7z"/>
	</g>
	<g>
		<g>
			<path class="st2" d="M692.6,960.3c-92,0-151.5-58.3-151.5-148.5c0-2,0-4,0.1-6l-43.8,145.8H387.3l-56.3-198.5l-63.1,198.5H158
				L45.3,549.2h118.1l56,221.4l67.5-221.5h89.2l63.2,221.6L500,549.1h118.2l-51.7,172.1c4.5-6.6,9.6-12.8,15.3-18.4
				c26.1-26.1,62.2-39.9,104.5-39.9c44.2,0,80.9,14.6,106.1,42.3c24.7,27.1,37.8,65.9,37.8,112.3V837H648.4
				c2.8,25.4,17.2,37.8,43.7,37.8c15.9,0,25.4-5.4,32.6-18.6l2.9-5.2h101.8l-2.7,12.2c-7,31.2-24.6,56.7-50.7,73.9
				C752.7,952.3,723.9,960.3,692.6,960.3z M725.9,763.8c-6.7-12.7-20.1-21.1-35.2-21.1c-17.4,0-30.8,7.7-37.6,21.1H725.9z"/>
			<path class="st2" d="M1010.1,955.8c-25.1,0-47.9-7.9-64.7-21.9v13.3H838.8l-0.1-441.1h106.7v173.1c18.2-13.3,41.5-20.9,65.8-20.9
				c37.3,0,71.4,15.9,96,44.8c23.5,27.6,36.5,64.4,36.5,103.7c0,39.5-13.1,76.5-36.8,104.2C1082,939.9,1047.7,955.8,1010.1,955.8z
				 M988.2,758.4c-31.6,0-45.7,24.6-45.7,48.9c0,29.3,17.9,48.3,45.7,48.3s45.7-19,45.7-48.3C1033.9,783,1019.7,758.4,988.2,758.4z"
				/>
			<path class="st2" d="M1399.5,1086.6V850.5c-3.8,27.4-15.7,52.5-34.5,72c-23,23.9-53.9,37-87,37c-61.5,0-109.3-42-121.7-107.1
				l-1.7-8.9l58.9-17.5l1.6,11.6c4.9,36.7,30.4,62.3,62,62.3c35.2,0,63.8-29,63.8-64.6c0-37.7-27.4-51-59.1-66.4l-1.4-0.7
				l-21.9-10.2c-42.4-20.5-83.8-45.6-83.8-106.9c0-30.7,11.9-58.5,33.5-78.3c20.4-18.8,47.8-29.1,77-29.1
				c43.8,0,80.9,23.6,101.8,64.9l4,7.8l-48.2,33l-5.3-9.8c-14.1-26.2-29-36.4-53.2-36.4c-27.8,0-49.5,21.7-49.5,49.4
				c0,24.7,21.8,37,50.3,50.7l24,11.3c22.8,10.6,46.2,23,63.6,41.3c14.9,15.7,23.9,34.3,27,56.2V694.4h58l0.1,18.8
				c18.7-16.6,42.2-25.5,68.2-25.5c33.8,0,64.4,15,86,42.2c12.3,15.5,21.3,34.1,26.3,54.4v-270h58.1V708
				c15.4-13.4,33.7-20.2,54.9-20.2c32.2,0,55.8,12,69.9,35.7c8.9,14.8,14.1,34.3,15.7,59.2c5-20.3,13.5-38.4,25-53.1
				c21.5-27.3,52-41.8,88.4-41.8c31.8,0,59.5,11.5,80.2,33.4c12.7,13.4,22.3,30.2,28.4,49.3v-76.1h58.1v9.2
				c10.2-9.6,22.5-15.9,40.5-15.9c16.6,0,29.3,6.4,39.5,12.7l7.7,4.7l-11.3,23.2c21.4-26.5,51.6-40.5,87.4-40.5
				c31.7,0,59.5,11.5,80.1,33.3c25.3,26.7,38.5,67.4,36.1,111.7l-0.5,9.5l-174.7-0.1c4.4,35.1,29.5,59.6,62.7,59.6
				c24.8,0,43.7-13.9,59.3-43.8l5-9.5l49.4,30.2l-4.1,8.2c-23.4,46.8-63.3,72.5-112.3,72.5c-34.6,0-65.6-13.9-87.4-39.2
				c-20.8-24.1-32.2-57.4-32.2-93.6c0-24.4,4.5-47.4,12.9-67.3l-7.3-5.3c-1-0.8-2-1.5-3-2.2c-6.1-4.6-8.8-6.5-14-6.5
				c-23.4,0-33.8,24.1-33.8,78.3v129.3h-58.1v-57.2c-23.9,41.2-61.7,63.7-107.5,63.7c-34.6,0-65.6-13.9-87.4-39.2
				c-12.2-14.1-21.1-31.4-26.5-50.6v83.3h-58.1V808.4c0-43.6-5.4-63-37.1-63c-38.1,0-45.8,32.3-45.8,84.4v123.1H1638v-88.4
				c-5,20.4-13.9,38.9-26.1,53.9c-21.7,26.7-51.7,40.8-86.8,40.8c-25.4,0-49.1-9-67.6-25.2v152.5H1399.5z M1891.3,842.2
				c4.4,35.1,29.5,59.6,62.7,59.6c24.8,0,43.7-13.9,59.3-43.8l5-9.5l40.5,24.7v-30.9L1891.3,842.2z M1518.6,745.3
				c-40.9,0-63,39-63,75.7c0,38.9,19.8,80.8,63.3,80.8c44.8,0,64.8-40.3,64.8-80.3C1583.9,783.6,1563.7,745.3,1518.6,745.3z
				 M2334.2,787.7c-8.2-24.8-29.4-42.4-53.1-42.4c-24.3,0-47.2,18.2-55.5,42.4H2334.2z M2003.6,787.7c-8.2-24.8-29.4-42.4-53.1-42.4
				c-24.3,0-47.2,18.2-55.5,42.4H2003.6z"/>
			<rect x="84.9" y="1043.9" class="st2" width="2296.3" height="135.5"/>
			<path class="st2" d="M1612.9,1160c-31.4,0-54.1-20.6-54.1-49c0-13.2,6.1-25.3,17.3-34.1c10.1-7.9,23.2-12.3,36.9-12.3
				c13.7,0,26.8,4.4,36.8,12.3c11.1,8.8,17.2,20.9,17.2,34.1C1666.9,1139.4,1644.2,1160,1612.9,1160z M1612.8,1102.4
				c-7.3,0-12.5,5.2-12.5,8.7c0,6.3,5.4,11.1,12.5,11.1c7.1,0,12.5-4.8,12.5-11.1C1625.3,1107.2,1619.8,1102.4,1612.8,1102.4z
				 M746.1,1160c-31.4,0-54.1-20.6-54.1-49c0-13.2,6.1-25.3,17.3-34.1c10.1-7.9,23.2-12.3,36.9-12.3c13.7,0,26.8,4.4,36.9,12.3
				c11.1,8.8,17.3,20.9,17.3,34.1C800.3,1139.4,777.5,1160,746.1,1160z M746.2,1102.4c-7.5,0-12.5,5.2-12.5,8.7
				c0,6.3,5.4,11.1,12.5,11.1s12.5-4.8,12.5-11.1C758.8,1107.2,753.2,1102.4,746.2,1102.4z M1485.6,1159.6
				c-11.7,0-21.8-5.2-28.6-14.5l-5.1-7.1l26-24.5l3.3,4V1067h40.8v57.7C1522.1,1145.9,1507.8,1159.6,1485.6,1159.6z M1748.5,1159.5
				c-7.9,0-22.8-1.3-33-10.3c-11.8-10.2-11.8-24.2-11.8-32.5V1067h40.8v47.2c0,6.6,0.7,8.3,1.1,8.7c0.1,0.1,1.1,0.5,3,0.5
				c1.9,0,2.8-0.3,2.9-0.5c0.4-0.4,1.1-2.2,1.1-8.7V1067h40.7v49.7c0,8.3,0,22.2-11.6,32.5
				C1771.3,1158.2,1756.4,1159.5,1748.5,1159.5z M1301.3,1159.5c-11.6,0-23.5-3.4-33.3-9.6l-8.2-5.2l15.1-25.3
				c-4.9-4.3-8.4-10.7-8.4-20.6c0-19.6,15.8-33.8,37.5-33.8c9.6,0,21.1,2.7,29.4,6.9l9.3,4.7l-13.4,24.1c8.6,5.4,13,13.2,13,23.3
				c0,14.7-6.7,22.8-12.3,27C1320.6,1158,1309.2,1159.5,1301.3,1159.5z M955,1157.8v-90.7h65.3v35.6l-1.3,0v19.5h1.3v35.6H955z
				 M837.5,1157.8V1067h41.7c24.4,0,39,12.4,39,33.3c0,21.6-13.9,34-38.3,34h-1.7v23.5H837.5z M490.5,1157.8v-90.7h65.3v35.6l-1.2,0
				v19.5h1.2v35.6H490.5z M256.8,1157.8v-90.7h65.3v35.6l-1.2,0v19.5h1.2v35.6H256.8z M2224.3,1157.7V1067h40.8v55.1h24.8v35.6
				H2224.3z M2151.5,1157.7l-5.2-12.3h-15.5l-5.4,12.3h-43.8l39.4-90.7h35.8l38.5,90.7H2151.5z M2017.8,1157.7l-23.7-27v27h-40.7
				V1067h35.3l23.7,27v-27h40.7v90.7H2017.8z M1879.3,1157.7l-4.6-6.4v6.4H1834V1067h41c23.3,0,37.7,12.1,37.7,31.7
				c0,9.7-4.2,18.1-11.1,23.6l30.6,35.4H1879.3z M1105.9,1157.7l-4.6-6.4v6.4h-40.7V1067h41c23.3,0,37.7,12.1,37.7,31.7
				c0,9.7-4.2,18.1-11.1,23.6l30.6,35.4H1105.9z M596.3,1157.7V1067h40.8l-0.1,55.1h24.9v35.6H596.3z M391.3,1157.7l-43-90.7h44.8
				l12.8,28.5l12.9-28.5h44.8l-43.6,90.7H391.3z M129.8,1157.7V1067h39.4c13.2,0,25.6,4.5,35.1,12.6c9.9,8.6,15.4,20.2,15.4,32.7
				c0,25-22.6,45.4-50.5,45.4H129.8z M170.5,1121.6c7.6-1.7,7.6-7.2,7.6-9.3c0-5-2.6-8.1-7.6-9.3V1121.6z M1173.6,1118l22.6-51h42.6
				l-32,51H1173.6z"/>
		</g>
		<g>
			<path class="st3" d="M218.1,806.2h0.9l75.3-247.1h74.3l70.5,247.1h0.9l67.6-247.1h97.2L490,941.6h-95.2l-62.9-221.7H331
				l-70.5,221.7h-94.8L58.5,559.2h97.2L218.1,806.2z M820.3,827H637.9c0,37.6,18.6,57.8,54.3,57.8c18.6,0,31.9-6.6,41.4-23.8h83.4
				c-13.8,61.4-68.6,89.3-124.3,89.3c-81,0-141.5-48.7-141.5-138.5c0-86.7,55.8-139,135.3-139c84.8,0,133.9,55.8,133.9,144.6V827
				L820.3,827z M739.8,773.8c-4.3-24.9-25.7-41.1-49-41.1c-25.3,0-46.2,14.2-51.5,41.1H739.8z"/>
			<path d="M848.7,516.1h86.7v186.2c18.6-22.9,47.6-34,75.8-34c72.4,0,122.4,63.9,122.4,138.5c0,75.1-50.5,139-123.4,139
				c-28.5,0-58.1-11.6-73.8-37.5h-0.9v28.9h-86.7L848.7,516.1L848.7,516.1z M932.5,807.3c0,33,20.5,58.3,55.7,58.3
				s55.7-25.3,55.7-58.3c0-32-20.5-58.9-55.7-58.9C953.1,748.4,932.5,775.3,932.5,807.3z"/>
			<path d="M1346.1,634.9c-14.3-26.4-31.5-41.6-62-41.6c-31.9,0-59.5,24.4-59.5,59.4c0,33,31.9,48.2,56.1,59.8l23.8,11.2
				c46.7,21.8,86.2,46.7,86.2,107.6c0,67-50.5,118.2-112.9,118.2c-57.6,0-100.6-39.6-111.9-99l39.1-11.6c5.3,39,33.3,71,71.9,71
				c38.6,0,73.8-31.5,73.8-74.6c0-44.6-32.9-59.9-66.2-76.1l-21.9-10.2c-42-20.3-78.1-43.1-78.1-97.9c0-59.3,47.1-97.4,100.5-97.4
				c40,0,73.8,21.8,92.9,59.4L1346.1,634.9L1346.1,634.9z M1447.6,738.3h0.9c18.6-26.4,46.2-40.6,77.2-40.6
				c65.7,0,107.1,60.3,107.1,126.3c0,68-40.5,125.3-107.7,125.3c-30.4,0-58.6-14.3-76.7-40.1h-0.9v167.4h-38V704.4h38L1447.6,738.3
				L1447.6,738.3z M1445.7,821c0,46.7,25.7,90.8,73.3,90.8c49.1,0,74.8-42.1,74.8-90.3c0-47.7-28.1-86.2-75.2-86.2
				C1474.2,735.3,1445.7,776.4,1445.7,821z M1686.1,524.3v208l1,1c15.7-22.9,36.1-35.5,63.8-35.5c62,0,76.2,47.7,76.2,103.5v141.6
				h-38.1V808.4c0-38.6-2.8-73-47.1-73c-52.4,0-55.8,51.8-55.8,94.4v113.1H1648V524.3H1686.1z M1880.6,832.2
				c0.5,44.1,30,79.6,73.3,79.6c32.4,0,53.3-20.8,68.2-49.2l32.4,19.8c-21.4,42.7-57.6,67-103.4,67c-66.7,0-109.6-54.3-109.6-122.8
				c0-70.5,38.6-128.8,108.5-128.8c71.9,0,110,63.4,106.2,134.5L1880.6,832.2L1880.6,832.2z M2016.3,797.7
				c-5.3-34.5-32.4-62.4-65.7-62.4c-32.9,0-63.4,27.9-68.2,62.4H2016.3L2016.3,797.7z M2106.8,730.2h0.9
				c13.3-18.7,24.8-32.5,49.6-32.5c12.9,0,23.4,4.5,34.3,11.2l-18,37c-7.7-5.6-12.9-10.6-22.9-10.6c-42,0-43.8,57.3-43.8,88.3v119.3
				h-38.1V704.4h38.1L2106.8,730.2L2106.8,730.2z M2211.1,832.2c0.5,44.1,30,79.6,73.3,79.6c32.4,0,53.3-20.8,68.2-49.2l32.4,19.8
				c-21.4,42.7-57.6,67-103.4,67c-66.7,0-109.6-54.3-109.6-122.8c0-70.5,38.6-128.8,108.6-128.8c71.9,0,110,63.4,106.3,134.5
				L2211.1,832.2L2211.1,832.2z M2346.8,797.7c-5.3-34.5-32.4-62.4-65.7-62.4c-33,0-63.4,27.9-68.2,62.4H2346.8z"/>
			<path class="st4" d="M2371.2,1169.4v-115.5H94.9v115.5H2371.2L2371.2,1169.4z"/>
			<path class="st2" d="M139.8,1077h29.4c22.2,0,40.5,15.4,40.5,35.3c0,19.9-18.4,35.4-40.5,35.4h-29.4V1077L139.8,1077z
				 M160.5,1132.1h4.7c12.4,0,22.9-6,22.9-19.8c0-12.7-9.4-19.8-22.7-19.8h-4.9L160.5,1132.1L160.5,1132.1z M287.6,1092.6v11.8H311
				v15.6h-23.4v12.2h24.6v15.6h-45.3v-70.7h45.3v15.6L287.6,1092.6L287.6,1092.6z M405.9,1119.9l19.3-42.9h22.4l-34,70.7h-16.1
				l-33.5-70.7h22.5L405.9,1119.9L405.9,1119.9z M521.3,1092.6v11.8h23.4v15.6h-23.4v12.2h24.6v15.6h-45.3v-70.7h45.3v15.6
				L521.3,1092.6L521.3,1092.6z M627,1132.1h24.9v15.6h-45.5V1077h20.7L627,1132.1L627,1132.1z M790.3,1111c0,22.9-18.5,39-44.1,39
				c-25.5,0-44.1-16.1-44.1-39c0-21.4,21.1-36.4,44.1-36.4C769.1,1074.6,790.3,1089.6,790.3,1111z M723.7,1111.1
				c0,12.2,10.1,21.1,22.5,21.1s22.5-8.9,22.5-21.1c0-9.8-10.1-18.7-22.5-18.7S723.7,1101.4,723.7,1111.1z M847.5,1077h31.7
				c17.1,0,29,7,29,23.3c0,16.7-10.1,24-28.3,24h-11.7v23.5h-20.7L847.5,1077L847.5,1077L847.5,1077z M868.2,1109.4h3.5
				c7.5,0,14.9,0,14.9-8.6c0-8.9-6.9-9-14.9-9h-3.5V1109.4z M985.6,1092.6v11.8h23.4v15.6h-23.4v12.2h24.7v15.6H965v-70.7h45.3v15.6
				L985.6,1092.6L985.6,1092.6z M1136.9,1147.7h-25.8l-19.5-27.2h-0.2v27.2h-20.7V1077h31c15.8,0,27.7,6.6,27.7,21.7
				c0,9.8-6.1,18.2-17.5,20L1136.9,1147.7L1136.9,1147.7z M1091.4,1108.7h2c6.8,0,14.4-1.1,14.4-8.8c0-7.7-7.6-8.8-14.4-8.8h-2
				V1108.7z M1220.6,1077l-19.4,31h-12.3l13.7-31H1220.6L1220.6,1077z M1320.7,1095.2c-4-3-8.8-4.6-13.7-4.7c-3.8,0-8.9,1.9-8.9,5.8
				c0,4.2,5.5,5.7,9.2,6.8l5.3,1.4c11.1,2.9,19.6,7.8,19.6,19.4c0,7-1.9,14.2-8.3,19c-6.2,4.7-14.6,6.6-22.6,6.6
				c-10,0-19.9-3-28-8.1l8.8-14.8c5.2,4,11.3,7.3,18.4,7.3c4.9,0,10-2.1,10-7.1c0-5.1-8.2-6.9-12.6-8.1c-13.1-3.2-21.6-6.3-21.6-20
				c0-14.3,11.5-23.8,27.5-23.8c8.1,0,17.9,2.3,24.9,5.8L1320.7,1095.2L1320.7,1095.2z M1512.1,1077v47.7c0,14.9-8.7,24.9-26.5,24.9
				c-8.9,0-15.8-3.9-20.5-10.4l11.9-11.2c2.3,2.8,5.6,6,8.3,6c6.2,0,5.9-6.4,5.9-10.4V1077H1512.1L1512.1,1077z M1656.9,1111
				c0,22.9-18.5,39-44,39c-25.6,0-44.1-16.1-44.1-39c0-21.4,21.1-36.4,44.1-36.4S1656.9,1089.6,1656.9,1111z M1590.3,1111.1
				c0,12.2,10.1,21.1,22.5,21.1s22.5-8.9,22.5-21.1c0-9.8-10.1-18.7-22.5-18.7C1600.5,1092.4,1590.3,1101.4,1590.3,1111.1z
				 M1783.2,1077v39.7c0,9.1-0.5,18.1-8.3,25c-6.7,5.8-17.2,7.8-26.5,7.8s-19.8-2-26.5-7.8c-7.9-6.8-8.4-15.9-8.4-25V1077h20.7v37.2
				c0,9.2,0.8,19.2,14.1,19.2c13.2,0,14-10,14-19.2V1077H1783.2z M1910.3,1147.7h-25.8l-19.5-27.2h-0.2v27.2H1844V1077h31
				c15.8,0,27.7,6.6,27.7,21.7c0,9.8-6.2,18.2-17.5,20L1910.3,1147.7L1910.3,1147.7z M1864.6,1108.7h2.1c6.8,0,14.4-1.1,14.4-8.8
				c0-7.7-7.6-8.8-14.4-8.8h-2.1V1108.7z M1963.4,1077h20.7l37.9,43.2h0.3V1077h20.7v70.7h-20.7l-38-43.3h-0.2v43.3h-20.7V1077z
				 M2124.3,1135.4l-5.4,12.3h-22.1l30.7-70.7h22.6l30,70.7h-22.1l-5.2-12.3H2124.3z M2138.9,1098.8h-0.3l-8.5,22.5h17.3
				L2138.9,1098.8z M2254.9,1132.1h24.9v15.6h-45.5V1077h20.7L2254.9,1132.1L2254.9,1132.1z"/>
		</g>
	</g>
</g>
</svg>
