<?xml version="1.0" encoding="utf-8"?>
<!-- Generator: Adobe Illustrator 22.0.1, SVG Export Plug-In . SVG Version: 6.00 Build 0)  -->
<svg version="1.1" id="Layer_1" xmlns="http://www.w3.org/2000/svg" xmlns:xlink="http://www.w3.org/1999/xlink" x="0px" y="0px"
	 viewBox="0 0 200 200" style="enable-background:new 0 0 200 200;" xml:space="preserve">
<style type="text/css">
	.st0{fill:#426FE7;}
	.st1{fill:#816725;}
	.st2{fill:#9A8551;}
</style>
<g transform="translate(0.000000,200.000000) scale(0.100000,-0.100000)">
	<path class="st0" d="M1266,1917c-110-62-109-222,2-285c112-63,245,14,247,143C1516,1904,1379,1982,1266,1917z"/>
	<path class="st0" d="M131,1601c-6-11-11-22-11-24c0-7,1080-480,1085-475c3,2,6,14,7,27c3,20-16,31-194,110c-195,86-237,108-188,97
		c14-3,84-8,157-11l131-7l116,43c64,23,119,39,122,36c4-3,34-111,68-239c56-209,61-233,45-236c-10-2-115,4-233,12
		c-279,21-272,21-301-9l-25-24V515c0-246,4-393,10-406c16-29,67-51,100-44c16,4,41,20,55,37l25,30v299v299h23c12,0,130-14,262-30
		s258-30,281-30c81,0,147,71,146,158c-1,57-162,668-189,714c-52,89-182,105-236,28c-8-12-68-39-152-70l-139-50l-191,11
		c-104,7-191,13-193,14c-2,2,6,22,18,45s19,45,16,48c-7,7-6,8-34-50c-14-32-28-48-40-48c-10,0-25-13-33-29l-14-29l-225,99
		C128,1631,144,1626,131,1601z"/>
	<path class="st1" d="M276,1474c-6-15,30-34,189-101c62-26,89-43,67-43c-9,0-12-136-12-580V170H260H0v-45V80h425h425v45v45H740H630
		v565v565l33-14c17-7,95-41,171-75c95-42,143-58,150-51c6,6,6,13,0,18c-5,5-162,75-349,157c-187,81-343,149-346,151
		C285,1488,279,1483,276,1474z"/>
	<path class="st2" d="M1885,1188c-2-13-14-111-26-218c-20-185-20-195-3-207c10-7,26-13,36-13c15,0,18-8,18-45v-45l-291-2
		c-265-3-293-5-303-20c-8-13-8-23,0-35c10-16,31-18,158-21l146-3V385V191l-42-5c-24-3-65-8-92-11c-34-5-58-15-79-35
		c-28-26-30-31-19-54c20-45,82-29,82,20c0,18,7,22,46,28c26,3,60,6,75,6c27,0,29-3,29-41s1-40,28-37c23,3,27,8,30,41
		c4,41,8,43,108,31c44-6,51-9,47-25c-11-41,49-67,77-34c17,20,5,62-20,70c-11,3-20,10-20,15s-26,11-57,15c-32,3-75,8-95,11l-38,6
		v194v194h149c118,0,151,3,161,15c17,20,9,48-19,60l-23,10l7,210c3,116,7,237,8,270l2,60l-37,3C1896,1211,1890,1208,1885,1188z"/>
</g>
</svg>
