<?xml version="1.0" encoding="utf-8"?>
<!-- Generator: Adobe Illustrator 22.0.1, SVG Export Plug-In . SVG Version: 6.00 Build 0)  -->
<svg version="1.1" id="Layer_1" xmlns="http://www.w3.org/2000/svg" xmlns:xlink="http://www.w3.org/1999/xlink" x="0px" y="0px"
	 viewBox="0 0 225 225" style="enable-background:new 0 0 225 225;" xml:space="preserve">
<style type="text/css">
	.st0{fill:#CD8F3B;}
	.st1{fill:#426FE7;}
</style>
<g transform="translate(0.000000,225.000000) scale(0.100000,-0.100000)">
	<path class="st0" d="M415,1750c-27-4-76-19-108-32C27,1599-82,1279,66,1011l24-44V645c0-318,0-322,23-356c31-46,80-69,149-69h57
		l11-41c15-54,82-126,145-155c137-64,301,4,361,149l19,47h215c186,0,221,2,250,17c33,17,37,17,70,1c19-10,49-18,65-18
		c27,0,32-5,47-47c50-140,227-213,363-149c60,28,130,103,147,157l11,39h56c67,0,117,23,149,70c21,32,22,40,22,295v263l-37,73
		c-49,96-236,343-287,380c-62,46-94,50-319,47l-207-3v60c0,69-21,118-63,149c-26,19-45,21-245,24l-216,3l-48,45
		c-60,56-173,110-258,124C498,1761,488,1761,415,1750z M600,1649c107-23,226-131,271-246c31-81,31-205,0-286
		c-82-210-319-311-534-227c-81,32-167,117-209,206c-30,63-33,78-32,164c0,82,3,103,27,154c51,110,148,199,252,232
		C425,1662,533,1663,600,1649z M1294,1464c3-9,6-267,6-575c0-524-1-560-17-567c-10-4-110-7-222-7H856l-20,53c-24,61-72,114-130,145
		s-183,30-242-1c-58-30-105-83-130-144l-20-53h-53c-82,1-81-4-81,297v259l48-27c26-15,52-31,57-35c52-38,259-52,354-23
		c264,78,413,372,324,637l-20,57h172C1263,1480,1289,1478,1294,1464z M1856,1234c39-26,54-42,54-56c0-5-53-8-119-8
		c-106,0-121-2-152-23c-59-39-70-75-67-212c3-131,12-158,65-192c23-16,60-19,273-23l245-5l3-180c3-215,1-219-78-220
		c-50,0-54,2-64,30c-21,58-58,110-100,142c-75,57-198,68-284,24c-52-26-117-101-134-154c-12-37-17-42-42-40c-58,4-56-14-56,474
		c0,416,1,449,18,458c10,6,97,11,208,11C1816,1260,1817,1260,1856,1234z M2062,986c37-51,72-105,78-120c22-58,29-56-211-56
		c-133,0-228,4-240,10c-17,10-19,22-19,125c0,98,2,115,18,124c9,6,82,10,162,10l145,1L2062,986z M675,422c16-10,42-36,58-58
		c90-128-43-310-194-265c-166,50-175,277-12,337C572,452,632,447,675,422z M1805,439c84-23,144-120,126-202c-18-78-101-147-176-147
		c-86,0-166,76-173,164c-7,85,37,154,115,182C1744,452,1755,453,1805,439z"/>
	<path class="st1" d="M462,1608c-8-8-12-56-12-148c0-156-7-178-84-260c-63-67-63-120,1-120c8,0,40,25,72,55s65,55,74,55
		c19,0,57,46,57,69c0,10-7,26-15,37c-11,14-14,51-15,152c0,73-5,142-10,153C518,1622,480,1626,462,1608z"/>
</g>
</svg>
