<?xml version="1.0" encoding="utf-8"?>
<!-- Generator: Adobe Illustrator 22.0.1, SVG Export Plug-In . SVG Version: 6.00 Build 0)  -->
<svg version="1.1" id="Layer_1" xmlns="http://www.w3.org/2000/svg" xmlns:xlink="http://www.w3.org/1999/xlink" x="0px" y="0px"
	 viewBox="0 0 225 225" enable-background="new 0 0 225 225" xml:space="preserve">
<g transform="translate(0.000000,225.000000) scale(0.100000,-0.100000)">
	<path fill="#336DD3" d="M617,2180c-247-63-450-252-533-495c-39-114-45-286-15-406c117-467,619-705,1056-498c36,17,88,49,116,71
		l51,40l71-70c67-67,70-72,59-97c-18-39-14-111,7-153c25-47,477-497,514-511c36-14,108-14,144,0c38,14,83,57,99,96
		c17,39,18,111,3,150c-14,37-464,489-511,514c-41,21-111,25-154,9c-26-10-32-7-97,58l-70,70l37,48c93,122,146,284,146,449
		c0,206-68,373-210,516c-97,98-186,155-305,195C915,2203,733,2209,617,2180z M927,2035c110-26,190-72,278-160
		c123-122,175-247,175-415c0-170-51-292-175-415c-122-123-246-175-415-175c-168,0-293,52-415,175c-87,86-131,162-159,272
		c-20,77-20,199-1,282c48,202,231,387,431,435C724,2053,850,2053,927,2035z"/>
	<path fill="#7B7931" d="M702,1951c-66-23-98-52-128-116c-40-84-28-169,34-237c141-157,387-62,386,148c-1,105-69,189-174,213
		C762,1972,764,1973,702,1951z"/>
	<path fill="#7B7931" d="M680,1475c-103-29-166-79-212-169c-17-32-22-65-26-149c-7-159-34-147,333-147c252,0,305,2,315,15
		c8,10,11,51,8,137c-3,120-4,125-35,174C986,1455,822,1514,680,1475z"/>
	<path fill="#E10018" d="M1842,1976c-13-7-32-26-43-42c-57-87,31-202,135-173c66,18,103,98,72,157C1972,1983,1900,2009,1842,1976z"
		/>
	<path fill="#EC001F" d="M1851,1719c-48-14-80-38-96-70c-20-38-22-148-4-160c22-14,283-11,297,3c21,21,15,121-11,158
		C1997,1710,1919,1739,1851,1719z"/>
	<path fill="#FF052D" d="M395,652c-68-16-108-92-81-155c54-129,241-83,223,55C528,621,461,668,395,652z"/>
	<path fill="#EE000C" d="M343,369c-59-29-83-71-83-147c0-50,3-63,19-72c11-5,78-10,149-10c153,0,157,2,155,90c0,69-25,110-83,140
		C450,396,396,395,343,369z"/>
</g>
</svg>
