<?xml version="1.0" encoding="utf-8"?>
<!-- Generator: Adobe Illustrator 22.0.1, SVG Export Plug-In . SVG Version: 6.00 Build 0)  -->
<svg version="1.1" id="Layer_1" xmlns="http://www.w3.org/2000/svg" xmlns:xlink="http://www.w3.org/1999/xlink" x="0px" y="0px"
	 viewBox="0 0 251 201" style="enable-background:new 0 0 251 201;" xml:space="preserve">
<style type="text/css">
	.st0{fill:#21C3EC;}
	.st1{fill:#00B4CD;}
	.st2{fill:#38387A;}
</style>
<g transform="translate(0.000000,201.000000) scale(0.100000,-0.100000)">
	<path class="st0" d="M1097,1873c-4-3-7-61-8-127l-1-121l-14,60c-32,140-35,146-58,139c-88-26-161-118-181-226c-4-22-13-38-21-38
		c-18,0-44-40-44-67c0-19,5-23,29-23c25,0,29-5,34-32c3-18,1-37-4-42c-14-15-10-76,7-121c8-22,24-68,35-102c34-109,127-208,215-232
		c77-21,153,9,226,86c54,58,67,82,108,195c29,79,33,101,30,191c-1,49,5,57,41,57c18,0,29,5,29,14c0,31-21,67-43,75
		c-18,7-25,22-35,69c-16,77-71,150-137,182c-57,27-58,26-80-80c-27-128-34-125-34,18l-1,132h-43C1123,1880,1100,1877,1097,1873z
		 M1406,1448c-3-13-6-27-6-31s-8-3-18,2s-121,9-260,8l-242-2v23v22h266h266L1406,1448z M1085,1393c19-19,14-68-10-92
		c-20-20-102-17-126,5c-22,20-27,89-6,97c6,3,38,6,69,6C1052,1410,1073,1405,1085,1393z M1338,1398c18-18,15-63-6-88
		c-26-32-108-32-134-1c-21,26-24,71-6,89c7,7,39,12,73,12S1331,1405,1338,1398z M910,1342c0-39,19-61,62-72c81-22,136,6,147,77
		c7,44,28,55,36,19c3-14,7-38,10-52c13-58,143-70,185-17c11,14,20,38,20,53c0,36,10,44,27,20c16-23,10-72-13-105c-8-11-14-26-14-35
		c0-32-51-122-95-169c-54-58-118-87-167-77c-78,15-169,118-198,223c-8,26-20,59-27,73c-16,31-17,65-1,90C896,1392,910,1379,910,1342
		z"/>
	<path class="st1" d="M915,983c-35-26-118-65-189-89c-130-44-170-98-212-283c-26-113-41-281-30-325c8-34,61-58,211-96
		c172-44,354-64,525-57c80,4,170,12,200,19c49,12,55,17,58,41c4,32-5,33-93,13c-188-43-486-20-723,56c-112,35-117,43-107,163
		c17,188,67,343,123,384c15,10,68,34,117,53c50,19,97,38,105,42c11,4,21-3,34-25c67-114,169-164,263-128c35,13,97,72,125,119
		c12,19,22,36,23,37c1,2,48-16,106-39c66-26,126-43,164-45l60-5l-27,21c-25,20-108,58-211,95c-26,10-61,29-78,43c-16,14-31,24-33,22
		s-10-18-19-35c-9-16-36-54-62-82c-101-112-195-87-288,76C936,995,933,997,915,983z"/>
	<path class="st2" d="M1342,778c-9-9-12-75-12-235c0-210,1-223,19-233c12-6,101-10,220-10h201v45v45h-200h-200v180v180h290
		c288,0,291,0,280,20c-10,19-21,20-298,20C1431,790,1351,787,1342,778z M1657,354c3-8,1-20-5-26c-15-15-43,8-35,28
		C1624,375,1649,374,1657,354z"/>
	<path class="st2" d="M1832,688c-9-9-12-85-12-280V140l26-10c41-16,146-12,172,6c22,15,22,18,22,270c0,157-4,263-10,275
		c-9,17-22,19-98,19C1877,700,1840,696,1832,688z M1998,633c3-22,0-23-67-23c-69,0-71,1-71,25c0,26,1,26,68,23
		C1989,655,1995,653,1998,633z M1998,548c-3-21-9-23-70-26c-67-3-68-3-68,23c0,24,2,25,71,25C1998,570,2001,569,1998,548z M1993,286
		c7-18-1-26-25-26c-18,0-25,20-11,33C1968,305,1988,301,1993,286z"/>
	<path class="st2" d="M695,667c-3-7-4-74-3-148l3-134l113-3l113-3l-3,148l-3,148l-108,3C725,680,698,678,695,667z M746,645
		c3-14,4-32,0-40c-3-9,0-15,10-15s15,8,14,23c-3,35-1,47,10,47c6,0,10-16,10-35c0-38,19-49,21-12c3,47,4,52,22,55c14,3,17-4,18-40
		l1-43l10,35c9,33,11,34,24,15c8-10,13-39,13-64c-1-30-3-36-6-18c-3,21-10,27-29,27s-24-5-24-25c0-14-4-25-10-25c-5,0-10,11-10,25
		c0,23-3,25-53,25h-52l3,45C722,674,736,684,746,645z M737,538c-3-7-5-2-5,12s2,19,5,13C739,556,739,544,737,538z"/>
	<path class="st2" d="M1570,235c0-11-9-26-20-33c-40-25-20-32,90-32c108,0,110,1,100,20c-6,11-17,20-25,20c-9,0-15,9-15,23
		c0,22-4,23-65,23C1577,255,1570,253,1570,235z"/>
</g>
</svg>
