<?xml version="1.0" encoding="utf-8"?>
<!-- Generator: Adobe Illustrator 22.0.1, SVG Export Plug-In . SVG Version: 6.00 Build 0)  -->
<svg version="1.1" id="Layer_1" xmlns="http://www.w3.org/2000/svg" xmlns:xlink="http://www.w3.org/1999/xlink" x="0px" y="0px"
	 viewBox="0 0 512 512" style="enable-background:new 0 0 512 512;" xml:space="preserve">
<style type="text/css">
	.st0{display:none;}
	.st1{display:inline;}
	.st2{fill:#FFFFFF;}
	.st3{fill:#E34E26;}
	.st4{fill:#EF662A;}
	.st5{fill:#EBEBEB;}
</style>
<g>
	<g>
		<g class="st0">
			<g class="st1">
				<g>
					<rect x="81.9" y="-14" class="st2" width="119.3" height="121"/>
					<polygon class="st2" points="179.5,107 179.5,60.9 159.2,60.9 159.2,-14 274.9,-14 274.9,60.9 254.6,60.9 254.6,107 					"/>
					<polygon class="st2" points="233,107 233,-14 297.7,-14 297.9,-13.7 298.1,-14 362.8,-14 362.8,107 					"/>
					<polygon class="st2" points="322.3,107 322.3,-14 397.3,-14 397.3,32.2 429.8,32.2 429.8,107 					"/>
				</g>
			</g>
		</g>
		<g>
			<g>
				<g>
					<polygon class="st2" points="142.1,91 142.1,67.9 141,67.9 141,91 97.9,91 97.9,2 141,2 141,24.8 142.1,24.8 142.1,2 185.2,2 
						185.2,91 					"/>
					<polygon class="st2" points="195.5,91 195.5,44.9 175.2,44.9 175.2,2 258.9,2 258.9,44.9 238.6,44.9 238.6,91 					"/>
					<polygon class="st2" points="303.8,91 303.8,80.7 303.4,81.4 292.1,81.4 291.6,80.7 291.6,91 249,91 249,2 288.7,2 297.9,17.1 
						307.1,2 346.8,2 346.8,91 					"/>
					<polygon class="st2" points="338.3,91 338.3,2 381.3,2 381.3,48.2 413.8,48.2 413.8,91 					"/>
				</g>
			</g>
		</g>
	</g>
	<g>
		<g class="st0">
			<g class="st1">
				<g>
					<rect x="91.9" y="-4" class="st2" width="99.3" height="101"/>
					<polygon class="st2" points="189.5,97 189.5,50.9 169.2,50.9 169.2,-4 264.9,-4 264.9,50.9 244.6,50.9 244.6,97 					"/>
					<polygon class="st2" points="297.8,97 297.8,87.4 297.6,87.4 297.6,97 243,97 243,-4 292.1,-4 297.9,5.5 303.7,-4 352.8,-4 
						352.8,97 					"/>
					<polygon class="st2" points="332.3,97 332.3,-4 387.3,-4 387.3,42.2 419.8,42.2 419.8,97 					"/>
				</g>
			</g>
		</g>
		<g>
			<g>
				<g>
					<path d="M107.9,12H131v22.8h21.1V12h23.1v69h-23.1V57.9H131V81h-23.1V12L107.9,12z"/>
					<path d="M205.5,34.9h-20.3V12h63.7v22.9h-20.3V81h-23.1L205.5,34.9L205.5,34.9z"/>
					<path d="M259,12h24.1l14.8,24.3L312.7,12h24.1v69h-23V46.8l-15.9,24.5h-0.4l-15.9-24.5V81H259V12z"/>
					<path d="M348.3,12h23.1v46.2h32.5V81h-55.5V12H348.3z"/>
				</g>
			</g>
		</g>
	</g>
</g>
<g id="Guides_to_delete">
	<g class="st0">
		<g>
			<g class="st1">
				<polygon class="st2" points="82.8,491 45.6,73.3 466.1,73.3 428.8,491 255.8,539 				"/>
				<polygon class="st2" points="229.9,103.7 432.9,103.7 400.5,467.3 229.9,514.6 				"/>
				<path class="st2" d="M138.2,427.5l-7.9-88.5l-0.8-9.1l-16.1-180.6h285l-8.3,92.2l0,0l-16.7,186.1l-117.7,32.7L138.2,427.5z
					 M255.8,358.9l26.6-7.2l1.1-12.7h-55.3l1.1,12.7L255.8,358.9z"/>
				<g>
					<polygon class="st2" points="130.3,339 113.3,149.2 281.9,149.2 281.9,339 					"/>
					<polygon class="st2" points="248.9,458.3 138.2,427.5 127.5,308.1 225.4,308.1 229.3,351.7 255,358.7 281.8,349.7 281.9,385.8 
						281.9,452.6 256.1,460.2 					"/>
				</g>
			</g>
		</g>
		<g class="st1">
			<g>
				<polygon class="st2" points="97.8,478.5 63.1,89.3 448.6,89.3 413.9,478.5 255.8,522.4 				"/>
				<polygon class="st2" points="245.9,119.7 415.4,119.7 385.5,454.9 245.9,493.6 				"/>
				<polygon class="st2" points="153.1,415.1 145,324.1 210.8,324.1 214.4,364.3 255.8,375.5 297.3,364.2 301,323 144.9,323 
					130.8,165.2 380.9,165.2 375,230.8 202.5,230.8 204.9,257.4 372.7,257.4 358.6,415.1 255.8,443.6 				"/>
				<g>
					<polygon class="st2" points="144.9,323 130.8,165.2 265.9,165.2 265.9,230.8 202.5,230.8 204.9,257.4 265.9,257.4 265.9,323 
											"/>
					<polygon class="st2" points="253.1,442.8 153.1,415.1 145,324.1 210.8,324.1 214.4,364.3 255.5,375.4 265.8,371.9 265.9,385.8 
						265.9,440.7 255.9,443.6 					"/>
				</g>
			</g>
		</g>
	</g>
	<g>
		<g class="st0">
			<g class="st1">
				<polygon class="st2" points="92.2,483.2 56.5,83.3 455.2,83.3 419.5,483.2 255.8,528.6 				"/>
				<polygon class="st2" points="239.9,113.7 422,113.7 391.1,459.6 239.9,501.5 				"/>
				<path class="st2" d="M147.5,419.7l-8.1-90.8l0,0l-15.1-169.8h263.2l-6.9,77.6H209l1.3,14.7h168.9l-15.1,168.3l-108.4,30.1
					L147.5,419.7z M255.8,369.2l35.9-9.7l2.7-30.6h-77.2l2.7,30.6L255.8,369.2z"/>
				<g>
					<polygon class="st2" points="139.4,329 124.3,159.2 271.9,159.2 271.9,236.8 209,236.8 210.3,251.4 271.9,251.4 271.9,329 
											"/>
					<polygon class="st2" points="251.5,448.6 147.5,419.7 138.4,318.1 216.3,318.1 220,359.6 255.3,369.1 271.8,363.6 271.9,385.8 
						271.9,445.2 256,449.8 					"/>
				</g>
			</g>
		</g>
		<g>
			<g>
				<polygon class="st3" points="107.1,470.7 74,99.3 437.7,99.3 404.5,470.8 255.8,512 				"/>
				<polygon class="st4" points="255.9,129.7 255.9,480.4 376.2,447.1 404.5,129.7 				"/>
				<polygon class="st2" points="141.8,175.2 154,313 311.9,313 306.6,372.1 255.8,385.8 205.1,372.1 201.7,334.1 155.9,334.1 
					162.5,407.3 255.8,433.2 349.2,407.3 361.7,267.4 195.7,267.4 191.5,220.8 365.7,220.8 365.9,220.8 370,175.2 				"/>
				<g>
					<polygon class="st5" points="255.9,175.2 141.8,175.2 154,313 255.9,313 255.9,267.4 195.7,267.4 191.5,220.8 255.9,220.8 
											"/>
					<polygon class="st5" points="255.9,385.8 255.8,385.8 205.1,372.1 201.7,334.1 155.9,334.1 162.5,407.3 255.8,433.2 
						255.9,433.2 					"/>
				</g>
			</g>
		</g>
	</g>
</g>
</svg>
