<?xml version="1.0" encoding="utf-8"?>
<!-- Generator: Adobe Illustrator 22.0.1, SVG Export Plug-In . SVG Version: 6.00 Build 0)  -->
<svg version="1.1" id="Layer_1" xmlns="http://www.w3.org/2000/svg" xmlns:xlink="http://www.w3.org/1999/xlink" x="0px" y="0px"
	 viewBox="0 0 256 283" style="enable-background:new 0 0 256 283;" xml:space="preserve">
<style type="text/css">
	.st0{fill:#C63D14;}
	.st1{fill:#FFFFFF;}
	.st2{display:none;}
	.st3{display:inline;fill:#FFFFFF;}
</style>
<g>
	<path class="st0" d="M199.8,101.1c0-10.3-8.1-18.7-18-18.7c-0.6,0-1.3,0-1.9,0.1l24.7-75.8h-105l24.7,75.7c-0.4,0-0.7,0-1.1,0
		c-9.9,0-18,8.4-18,18.7c0,8.4,5.3,15.4,12.5,17.8c-3.8,6.9-8.7,13.1-14.2,18.5c-7.5,7.3-16,12.9-25.2,16.3
		c-11-5.9-16.2-18.9-11.5-30.4c0.5-1.3,1.1-2.6,1.6-3.9c8-1.9,13.9-9.4,13.9-18.2c0-10.3-8.1-18.7-18-18.7c-9.9,0-18,8.4-18,18.7
		c0,6.3,3,11.9,7.7,15.3c-4.5,10.5-11,21.6-13,34.4c-2.4,15.3,0,31.6,12.7,40.8c29.7,21.4,61.9-13.3,95.9-22
		c12.3-3.2,25.8-2.6,36.7-9.2c8.1-4.9,13.5-13,15-22.2c1.5-9-0.7-18-5.7-25.3C198.2,109.8,199.8,105.6,199.8,101.1L199.8,101.1z
		 M141.1,101.1C141.1,101.1,141.1,101.1,141.1,101.1c0-6.9-3.5-12.8-8.7-16.1l19.6-41.3l19.7,41.7c-4.8,3.4-8,9.1-8,15.6
		c0,0.1,0,0.3,0,0.4L141.1,101.1L141.1,101.1z"/>
	<path class="st1" d="M204.2,101.1c0-11.4-7.9-20.8-18.3-22.9l24.8-76.1H93.4l24.9,76.2c-10,2.3-17.5,11.6-17.5,22.7
		c0,8.3,4.2,15.7,10.6,19.8c-3.1,4.7-6.7,9.2-10.8,13.3c-6.6,6.5-13.9,11.4-21.8,14.6c-8-5.2-11.3-15-7.8-23.5l0.3-0.7
		c0.2-0.4,0.3-0.8,0.5-1.3c8.7-3.2,15-11.8,15-22c0-12.8-10-23.3-22.4-23.3s-22.4,10.4-22.4,23.3c0,6.5,2.6,12.3,6.7,16.6
		c-0.7,1.7-1.5,3.3-2.3,5.1c-3.8,8-8,17.2-9.7,27.3c-3.2,20.1,2,36.2,14.6,45.3c7.7,5.5,15.4,7.7,23.2,7.7
		c14.7,0,29.6-7.7,44.2-15.2c10.5-5.4,21.3-11,32.1-13.8c4-1,8.1-1.6,12.4-2.3c8.6-1.3,17.5-2.6,25.4-7.4
		c9.1-5.5,15.4-14.7,17.2-25.3c1.5-9.1-0.3-18.2-4.8-25.9C203,109.7,204.2,105.5,204.2,101.1L204.2,101.1z M195.4,101.1
		c0,7.8-6.1,14.1-13.6,14.1c-7.5,0-13.6-6.3-13.6-14.1s6.1-14.1,13.6-14.1C189.3,86.9,195.4,93.3,195.4,101.1L195.4,101.1z
		 M198.5,11.3l-21.9,67.2c-0.9,0.2-1.9,0.5-2.8,0.9l-21.6-45.9l-21.7,45.6c-0.9-0.3-1.9-0.6-2.9-0.8l-21.8-67L198.5,11.3L198.5,11.3
		z M123.1,86.9c7.5,0,13.6,6.3,13.6,14.1c0,7.8-6.1,14.1-13.6,14.1c-7.5,0-13.6-6.3-13.6-14.1C109.5,93.3,115.6,86.9,123.1,86.9
		L123.1,86.9z M64.3,87.1c7.5,0,13.6,6.3,13.6,14.1s-6.1,14.1-13.6,14.1c-7.5,0-13.6-6.3-13.6-14.1S56.8,87.1,64.3,87.1L64.3,87.1z
		 M197,137.6c-1.3,7.9-6,14.8-12.9,19c-6.4,3.9-14.1,5-22.3,6.2c-4.4,0.7-8.9,1.3-13.3,2.5c-11.7,3-22.9,8.8-33.9,14.5
		c-21.8,11.3-40.7,21-58.5,8.2c-13-9.4-12.4-26.8-10.9-36.3c1.4-8.8,5.2-16.9,8.9-24.8c0.6-1.4,1.3-2.7,1.9-4
		c1.8,0.8,3.8,1.3,5.8,1.5c-3.7,12.8,2.1,26.8,14.5,33.4l1.7,0.9l1.8-0.7c9.8-3.6,18.8-9.4,26.8-17.3c5.2-5.1,9.6-10.7,13.2-16.6
		c1.1,0.2,2.2,0.3,3.4,0.3c12.3,0,22.4-10.4,22.4-23.3c0-6.9-2.9-13.1-7.5-17.4l14.1-29.6l14.2,30.1c-4.3,4.2-6.9,10.2-6.9,16.8
		c0,12.8,10,23.3,22.4,23.3c4.7,0,9.1-1.5,12.8-4.2C197,125.5,198,131.6,197,137.6L197,137.6z"/>
</g>
<g>
	<g>
		<g class="st2">
			<path class="st3" d="M95.5,262.3c-0.7,0-1.4-0.2-1.9-0.7l-5.9-4.9c-0.5-0.5-0.9-1.1-1-1.8l-1.3-7.2c-0.2-0.9,0.1-1.7,0.6-2.4
				l5.6-7.1c0.1-0.2,0.3-0.3,0.4-0.4c-1.7-5.2-5.1-15.5-5.1-15.5c-0.2-0.8-0.2-1.6,0.2-2.3l3.8-7.6c0.4-0.7,1-1.2,1.7-1.5l8.6-2.8
				c0.3-0.1,0.6-0.2,0.9-0.2c0.5,0,0.9,0.1,1.4,0.3l7.6,3.8c0.7,0.4,1.2,1,1.5,1.7l6.1,18.5c2.2,6.6,2.1,12.5-0.4,17.5
				c-2.5,5-7,8.7-13.6,10.8C103.5,261,99.4,262.3,95.5,262.3C95.5,262.3,95.5,262.3,95.5,262.3z"/>
			<path class="st3" d="M121.7,254.3c-0.5,0-0.9-0.1-1.4-0.3l-7.6-3.8c-0.7-0.4-1.2-1-1.5-1.7l-10.1-30.7c-0.2-0.8-0.2-1.6,0.2-2.3
				l3.8-7.6c0.4-0.7,1-1.2,1.7-1.5l21.9-7.2c0.3-0.1,0.6-0.2,0.9-0.2c0.5,0,0.9,0.1,1.4,0.3l7.6,3.8c0.7,0.4,1.2,1,1.5,1.7l2.3,6.9
				c0.2,0.8,0.2,1.6-0.2,2.3l-0.5,1c0.7,0.4,1.2,1,1.4,1.7l2.3,6.9c0.2,0.7,0.2,1.5-0.1,2.1l1.8,0.9c0.7,0.4,1.2,1,1.5,1.7l2.3,6.9
				c0.2,0.8,0.2,1.6-0.2,2.3l-3.8,7.6c-0.4,0.7-1,1.2-1.7,1.5l-22.6,7.4C122.3,254.2,122,254.3,121.7,254.3z"/>
			<path class="st3" d="M148.1,244.5c-1.3,0-2.6-0.1-3.7-0.3c-0.7-0.1-1.3-0.4-1.7-0.9l-5.1-5.5c-0.5-0.5-0.7-1.1-0.8-1.8l-0.5-7.6
				c0-0.7,0.1-1.4,0.5-1.9c-2.8-2.1-4.8-5-5.9-8.4c-3.5-10.7,2.9-21.1,15.5-25.3c3.9-1.3,7.4-1.9,10.9-1.9c0.9,0,1.7,0,2.6,0.1
				c0.7,0.1,1.4,0.4,1.9,0.9l5.5,5.8c0.5,0.5,0.8,1.2,0.8,2l0.3,7.4c0,0.1,0,0.3,0,0.4c3.4,2.1,5.8,5.3,7.2,9.5
				c2.9,8.9-0.9,20.8-16.3,25.8C154.5,244.2,150.2,244.5,148.1,244.5z"/>
			<path class="st3" d="M183.7,233.8c-0.5,0-0.9-0.1-1.4-0.3l-7.6-3.8c-0.7-0.4-1.2-1-1.5-1.7l-5-15.2l-0.1,0
				c-0.3,0.1-0.6,0.2-0.9,0.2c-0.5,0-0.9-0.1-1.4-0.3l-7.6-3.8c-0.7-0.4-1.2-1-1.5-1.7l-2.3-7c-0.2-0.8-0.2-1.6,0.2-2.3l3.8-7.6
				c0.4-0.7,1-1.2,1.7-1.5l26.1-8.6c0.3-0.1,0.6-0.2,0.9-0.2c0.5,0,0.9,0.1,1.4,0.3l7.6,3.8c0.7,0.4,1.2,1,1.5,1.7l2.3,7
				c0.2,0.8,0.2,1.6-0.2,2.3l-3.8,7.6c-0.4,0.7-1,1.2-1.7,1.5l-0.3,0.1l5,15.2c0.2,0.8,0.2,1.6-0.2,2.3l-3.8,7.6
				c-0.4,0.7-1,1.2-1.7,1.5l-8.6,2.8C184.4,233.8,184,233.8,183.7,233.8z"/>
		</g>
		<g>
			<path class="st1" d="M95.4,256.3c-1.5,0-2.7-1-3-2.5l-1.3-7.2c-0.2-0.9,0.1-1.7,0.6-2.4s1.3-1.1,2.2-1.1c1.2-0.1,2.5-0.3,3.5-0.6
				c1.4-0.4,2-0.7,1-3.7l-6-18.4c-0.5-1.6,0.3-3.3,1.9-3.8l8.6-2.8c0.3-0.1,0.6-0.2,0.9-0.2c0.5,0,0.9,0.1,1.4,0.3
				c0.7,0.4,1.2,1,1.5,1.7l6.1,18.5c1.7,5.1,1.7,9.5,0,12.9c-1.7,3.5-5.1,6.1-10.1,7.8C100.8,255.6,97.9,256.3,95.4,256.3
				C95.5,256.3,95.4,256.3,95.4,256.3z"/>
			<path class="st1" d="M119.8,248.6c-1.3,0-2.4-0.8-2.8-2.1l-10.1-30.7c-0.5-1.6,0.3-3.3,1.9-3.8l21.9-7.2c0.3-0.1,0.6-0.2,0.9-0.2
				c0.5,0,0.9,0.1,1.4,0.3c0.7,0.4,1.2,1,1.5,1.7l2.3,6.9c0.2,0.8,0.2,1.6-0.2,2.3c-0.2,0.3-0.4,0.6-0.7,0.9c0.7,0.3,1.3,1,1.6,1.8
				l2.3,6.9c0.3,1,0.1,2.1-0.5,2.8c0.3-0.1,0.6-0.1,0.9-0.1c0.5,0,0.9,0.1,1.4,0.3c0.7,0.4,1.2,1,1.5,1.7l2.3,6.9
				c0.5,1.6-0.3,3.3-1.9,3.8l-22.6,7.4C120.4,248.5,120.1,248.6,119.8,248.6z"/>
			<path class="st1" d="M148.1,238.5c-1,0-2-0.1-2.8-0.2c-1.4-0.2-2.4-1.4-2.5-2.8l-0.5-7.6c-0.1-0.9,0.3-1.8,0.9-2.4
				c0.6-0.5,1.3-0.8,2-0.8c0.1,0,0.3,0,0.4,0c0.8,0.1,1.8,0.2,2.7,0.2c1.4,0,2.7-0.1,4-0.4c0,0-0.1,0-0.1,0c-0.5,0-1,0-1.5,0
				c-9.4,0-12.9-4.6-14.2-8.4c-2.4-7.4,2.4-14.7,11.7-17.7c3.2-1.1,6.2-1.6,9.1-1.6c0.7,0,1.4,0,2.1,0.1c1.5,0.1,2.7,1.4,2.8,2.9
				l0.3,7.4c0,0.8-0.3,1.7-0.9,2.3c-0.6,0.5-1.3,0.8-2.1,0.8c-0.1,0-0.1,0-0.2,0c-0.5,0-1.1-0.1-1.7-0.1c0,0,0,0-0.1,0
				c6.6,0.5,10.7,3.3,12.5,8.5c1.9,5.9-0.2,14.2-12.5,18.2C154.5,237.9,151.1,238.5,148.1,238.5z"/>
			<path class="st1" d="M181.8,228.1c-0.5,0-0.9-0.1-1.4-0.3c-0.7-0.4-1.2-1-1.5-1.7l-6.9-20.9l-5.8,1.9c-0.3,0.1-0.6,0.2-0.9,0.2
				c-1.3,0-2.4-0.8-2.8-2.1l-2.3-7c-0.2-0.8-0.2-1.6,0.2-2.3s1-1.2,1.7-1.5l26.1-8.6c0.3-0.1,0.6-0.2,0.9-0.2c1.3,0,2.4,0.8,2.8,2.1
				l2.3,7c0.2,0.8,0.2,1.6-0.2,2.3c-0.4,0.7-1,1.2-1.7,1.5l-6,2l6.9,20.9c0.5,1.6-0.3,3.3-1.9,3.8l-8.6,2.8
				C182.5,228.1,182.2,228.1,181.8,228.1z"/>
		</g>
	</g>
	<g>
		<g class="st2">
			<path class="st3" d="M89.5,254.4l-1.3-7.2l5.6-7.1c0.6,0,1.3-0.1,1.9-0.3c0,0-6.1-18.5-6.1-18.5l3.8-7.6l8.6-2.8l7.6,3.8
				l6.1,18.5c1.9,5.9,1.9,11-0.2,15.2c-2.1,4.3-6.1,7.4-11.9,9.3c-1.1,0.4-4.8,1.5-8.3,1.5L89.5,254.4z M96,241.1L96,241.1z"/>
			<polygon class="st3" points="114.1,247.5 104,216.7 107.8,209.1 129.7,201.9 137.3,205.8 139.5,212.7 137.7,216.3 140.3,217.6 
				142.6,224.6 141.3,227.1 145.8,229.3 148.1,236.3 144.2,243.8 121.7,251.3 			"/>
			<path class="st3" d="M148.1,241.5c-1.2,0-2.3-0.1-3.2-0.2l-5.1-5.5l-0.5-7.6l2.4-2.3c-5-2.2-7.1-6.1-8-8.8
				c-3-9.1,2.6-17.9,13.6-21.5c3.6-1.2,6.8-1.7,10-1.7c0.8,0,1.5,0,2.3,0.1l5.5,5.8l0.3,7.4l-1.5,1.4c4.4,1.6,7.3,4.7,8.8,9.3
				c2.6,7.8-0.9,17.6-14.4,22C154,241.2,150,241.5,148.1,241.5z"/>
			<polygon class="st3" points="176.1,227 170.2,209 167.3,210 159.7,206.2 157.4,199.1 161.2,191.6 187.3,183 194.9,186.8 
				197.2,193.8 193.4,201.4 190.2,202.4 196.2,220.4 192.3,228 183.7,230.8 			"/>
		</g>
		<g>
			<path d="M95.4,219.5l8.6-2.8l6.1,18.5c2.9,8.7,0.2,14.1-8.2,16.9c-1.8,0.6-4.4,1.2-6.4,1.2l-1.3-7.2c1.2-0.1,2.8-0.3,4.3-0.8
				c3.1-1,4.4-3,3-7.4L95.4,219.5z"/>
			<path d="M136.9,226.5l-12.5,4.1l1.7,5.2l14-4.6l2.3,6.9l-22.6,7.4l-10.1-30.7l21.9-7.2l2.3,6.9l-13.3,4.4l1.5,4.7l12.5-4.1
				L136.9,226.5z"/>
			<path d="M145.2,227.7c2.4,0.3,6,0.4,9.6-0.8c2.9-0.9,4-2.3,3.5-3.9c-0.4-1.3-2.1-1.7-6.2-1.5c-5.7,0.3-10.9-1-12.7-6.3
				c-1.8-5.6,1.8-11.3,9.8-13.9c4.2-1.4,7.3-1.6,10-1.4l0.3,7.4c-1.7-0.1-4.6-0.3-8.1,0.9c-2.6,0.8-3.7,2.1-3.3,3.5
				c0.5,1.6,2.7,1.5,7.1,1.5c6.6-0.1,10.4,1.9,11.9,6.5c1.7,5.2-0.8,11.2-10.6,14.5c-4.1,1.3-8.4,1.5-10.7,1.2L145.2,227.7z"/>
			<path d="M174,201.4l-8.7,2.9l-2.3-7l26.1-8.6l2.3,7l-8.8,2.9l7.8,23.7l-8.6,2.8L174,201.4z"/>
		</g>
	</g>
</g>
</svg>
