<?xml version="1.0" encoding="utf-8"?>
<!-- Generator: Adobe Illustrator 22.0.1, SVG Export Plug-In . SVG Version: 6.00 Build 0)  -->
<svg version="1.1" id="Layer_1" xmlns="http://www.w3.org/2000/svg" xmlns:xlink="http://www.w3.org/1999/xlink" x="0px" y="0px"
	 viewBox="0 0 512 314" enable-background="new 0 0 512 314" xml:space="preserve">
<g>
	<g>
		<path fill="#FFFFFF" d="M257.35254,304c-2.54541,0-5.02881-0.61523-7.38184-1.82813l-0.21631-0.11719l-14.59912-8.2998
			c-3.52002-1.89063-4.33203-4.39648-4.40967-6.12109c-0.10254,0.00098-0.20508,0.00195-0.30811,0.00195
			c-3.53955,0-6.33545-0.22363-12.6958-3.20703l-0.33105-0.16797l-11.58252-6.33496
			c-4.79102-2.64551-7.75391-7.61133-7.75391-12.9707v-48.66895c0-5.36133,2.96338-10.32715,7.7334-12.95996l44.00391-24.38281
			c2.29541-1.23145,4.87744-1.86035,7.54102-1.86035c2.66309,0,5.24609,0.62891,7.46777,1.82031l44.08594,24.42773
			c4.76172,2.62793,7.72461,7.59375,7.72461,12.95508v48.66895c0,5.35938-2.96289,10.3252-7.73242,12.95898l-44.00488,24.38379
			l-0.48242,0.23926C262.24707,303.49414,259.80664,304,257.35254,304z M257.2793,283.88477l28.0918-15.56543
			c-3.71875,1.36426-8.44629,2.21387-14.4502,2.21387c-10.36621,0-17.10498-2.32813-21.4668-5.5498v3.45605
			c0,3.72754-0.7627,7.0332-2.17773,9.80566c0.3833,0.15234,0.75586,0.33691,1.11523,0.55371L257.2793,283.88477z
			 M227.34131,267.32617c0.92578,0.43359,1.5293,0.52441,1.83936,0.53516v-47.45801c0-4.00781,3.28564-7.26758,7.32373-7.26758
			h5.62598c3.1582,0,5.85645,1.99414,6.88184,4.78027c4.11572-3.72168,10.63623-6.25781,20.25342-6.25781
			c15.59082,0,24.75781,5.49512,27.31348,16.35059v-9.08301l-39.33691-21.70215l-39.33643,21.70215v43.18066L227.34131,267.32617z
			 M296.5791,259.19434c-1.03418,1.87891-2.50391,3.77051-4.58789,5.45703l4.58789-2.54199V259.19434z M262.25098,249.41797
			c0.14453,0.33008,0.27246,0.41113,0.36133,0.4668c0.55176,0.3457,2.47656,1.15234,8.41797,1.15234
			c1.37793,0,2.51465-0.05078,3.44922-0.12891c-1.5752-0.25391-3.6377-0.52148-6.33301-0.77832
			C266.47754,249.96875,264.43848,249.77246,262.25098,249.41797z M294.61328,238.09863
			c0.73242,0.74512,1.39355,1.57422,1.96582,2.49414v-5.14453c-0.20801,0.47461-0.4668,0.93457-0.77246,1.37305l-0.77539,0.90527
			C294.89551,237.85645,294.75586,237.98047,294.61328,238.09863z"/>
		<path fill="#FFFFFF" d="M118.03467,185.625c-1.54004,0-3.05273-0.4043-4.38525-1.1709l-27.72559-15.16406
			c-3.68066-1.98145-5.98877-5.78516-5.98877-9.90918v-31.93262l-11.48389-6.36816l-11.48389,6.36865v31.93213
			c0,4.12402-2.30811,7.92773-6.02295,9.92871L23.3584,184.39648c-1.30762,0.80469-2.81836,1.22852-4.39404,1.22852
			c-1.49121,0-2.96045-0.38379-4.26709-1.1123c-2.79541-1.45801-4.58691-4.41309-4.58691-7.60645L10,107.65967
			c0-4.1333,2.30811-7.9375,6.02441-9.93799l46.71924-25.73242c1.80518-0.9873,3.62744-1.4834,5.43164-1.4834h0.44141
			l0.7124,0.04248c1.79492,0.21436,3.3335,0.68311,4.70313,1.43164l46.78613,25.76953
			c3.66553,1.97266,5.97363,5.77686,5.97363,9.90039l0.11035,69.24658c0,3.20215-1.7915,6.15723-4.58691,7.61621
			C121.0083,185.24121,119.53418,185.625,118.03467,185.625z"/>
		<path fill="#FFFFFF" d="M323.92285,197.87207c-1.96387,0-3.91992-0.49512-5.65723-1.42969l-46.8291-25.89746
			c-3.65723-1.96875-5.96484-5.77344-5.96484-9.89648v-51.62598c0-4.12305,2.30859-7.92725,6.02344-9.92773l46.71191-25.8335
			c1.7959-0.96777,3.75195-1.4624,5.71582-1.4624s3.91992,0.49463,5.65723,1.4292l5.82715,3.20996V14.63916
			c0-3.04834,1.62793-5.8418,4.35449-7.47217l0.2002-0.11426C341.22168,6.36426,342.67969,6,344.17871,6
			c1.38672,0,2.77246,0.31299,4.00977,0.9043l0.23438,0.11865l27.90723,14.88574c3.73535,2.01025,6.04395,5.85547,6.04395,10.04492
			v128.69482c0,4.12402-2.30859,7.92871-6.02441,9.92871l-46.70996,25.83301
			C327.84277,197.37793,325.88672,197.87207,323.92285,197.87207z M323.92285,147.21729l11.37402-6.30615v-12.25732
			l-11.37402-6.30615l-11.37305,6.30615v12.25732L323.92285,147.21729z"/>
		<g transform="translate(401.047404, 70.501129)">
			<path fill="#FFFFFF" d="M50.59811,126.20981c-1.95508,0-3.90625-0.49512-5.64355-1.42969L-1.51419,99.42563
				c-3.68555-1.9834-5.99414-5.78809-5.99414-9.91211V37.88803c0-4.12451,2.30859-7.9292,6.02441-9.9292L45.22604,2.1268
				c1.79688-0.96777,3.75293-1.46191,5.7168-1.46191s3.91992,0.49414,5.65723,1.42969l46.50488,25.79541
				c3.63672,2.08838,5.84766,5.86182,5.84766,9.89258v12.56299c0,4.16016-2.26563,7.96436-5.91309,9.92822L75.37936,75.71713
				c-1.33984,0.77832-2.86426,1.18896-4.41602,1.18896c-1.5,0-2.97363-0.38379-4.28125-1.1123
				c-2.7959-1.4585-4.58691-4.41162-4.58691-7.60596V57.53745L50.55612,51.2269l-11.53809,6.31055v12.12158l45.21484,24.8877
				c2.82813,1.44824,4.64355,4.41992,4.64355,7.63574c0,3.2334-1.83594,6.2207-4.69141,7.66016l-27.98047,14.91309
				C54.50827,125.70688,52.57175,126.20981,50.59811,126.20981z"/>
			<path fill="#FFFFFF" d="M50.77682,80.46957c-1.25586,0-2.47949-0.33252-3.55469-0.96387l-8.84473-4.91113l-0.31152-0.18555
				c-2.08301-1.32764-3.32715-3.57422-3.32715-6.01025v-9.92383c0-2.43604,1.24414-4.68262,3.32715-6.01025l0.31152-0.18555
				l8.84473-4.91113c1.0752-0.63135,2.29883-0.96387,3.55469-0.96387s2.47852,0.33203,3.55371,0.96289l8.8457,4.91211
				l0.31152,0.18555c2.08301,1.32764,3.32715,3.57422,3.32715,6.01025v9.92383c0,2.43604-1.24414,4.68262-3.32715,6.01025
				l-0.31152,0.18555l-8.8457,4.91211C53.25534,80.13754,52.03268,80.46957,50.77682,80.46957z"/>
		</g>
		<g transform="translate(134.067720, 70.501129)">
			<g>
				<path fill="#FFFFFF" d="M62.11929,126.31528c-1.96387,0-3.91992-0.49512-5.65723-1.42969L9.96597,99.20004
					c-3.64551-2.09277-5.85644-5.86621-5.85644-9.89746V37.88803c0-4.16064,2.26611-7.96484,5.91406-9.92871L56.40543,2.33627
					c1.79395-0.96631,3.75-1.46045,5.71387-1.46045c1.96338,0,3.91992,0.49414,5.65723,1.4292l46.49658,25.68555
					c3.64551,2.09229,5.85645,5.86621,5.85645,9.89746v51.41455c0,4.16016-2.26563,7.96484-5.91309,9.92871l-46.38281,25.62305
					C66.03922,125.82114,64.08267,126.31528,62.11929,126.31528z"/>
			</g>
			<g>
				<path fill="#FFFFFF" d="M6.70523,96.76352c-1.9585-2.10938-3.03711-4.75879-3.03711-7.46094V37.88803
					c0-4.0874,2.35059-7.8916,6.13428-9.92871L56.30045,2.33334c1.71729-0.95898,3.7627-1.47461,5.88574-1.47461
					c0.71338,0,1.43604,0.05762,2.14795,0.17139l4.17627,9.04883L16.22476,95.80453L6.70523,96.76352z"/>
				<path fill="#FFFFFF" d="M58.50894,117.15414l49.08691-85.9375l9.35889-1.3584c2.22754,2.13232,3.50537,5.05908,3.50537,8.02979
					v51.41455c0,4.12402-2.30811,7.92773-6.02295,9.92871l-46.49854,25.62598l-0.30908,0.15918
					c-0.6167,0.29395-1.45703,0.69629-2.51611,0.94922L58.50894,117.15414z"/>
				<path fill="#FFFFFF" d="M62.10562,126.45102c-1.98242,0-3.96191-0.52051-5.72412-1.50488L9.65494,99.25473
					c-1.23535-0.71094-2.29736-1.59277-3.15723-2.62207l-0.51807-6.9707L58.26529,3.93637l6.51709-2.71191
					c1.11133,0.26563,2.12256,0.70947,2.62646,0.9502l0.30371,0.15576l46.66016,25.6543l0.61084,0.38574
					c0.62891,0.45166,1.57568,1.13184,2.43213,2.22363l0.48975,6.68018l-49.08691,85.93652l-3.51318,2.7793
					c-1.03662,0.30566-2.11279,0.46094-3.19922,0.46094C62.10562,126.45102,62.10562,126.45102,62.10562,126.45102z"/>
			</g>
			<g>
				<g transform="translate(0.000000, -9.246050)">
					<path fill="#FFFFFF" d="M109.01089,102.84062L57.93863,19.33135l6.06299-9.05566
						c1.3291,0.21191,2.55762,0.64502,3.75293,1.32422l46.61816,25.63086c3.7373,2.01221,6.0874,5.81641,6.0874,9.90332v51.41455
						c0,1.65918-0.50049,3.29102-1.40918,4.59375L109.01089,102.84062z"/>
					<path fill="#FFFFFF" d="M61.97379,135.56035c-1.98584,0-3.86865-0.49609-5.59766-1.47559l-46.71729-25.6875
						c-3.69531-2.12207-5.99072-5.89551-5.99072-9.84863V47.13408c0-4.0874,2.35059-7.8916,6.13477-9.92871l1.02246-0.43359
						l0.33105-0.10547l7.02539,2.73096l49.96924,87.09863l-4.25586,8.91016c-0.64209,0.10254-1.28857,0.1543-1.9209,0.1543H61.97379
						z"/>
					<polygon fill="#FFFFFF" points="57.10025,13.75469 54.51334,2.34111 55.17545,2.02471 62.68326,4.00566 62.90396,4.32207 
						57.98306,13.75469 					"/>
					<path fill="#FFFFFF" d="M57.63052,132.57109L7.66128,45.36602l2.30859-8.23682l46.23975-25.5
						c1.6958-0.99756,3.69092-1.52441,5.78174-1.52441c0.69629,0,1.41064,0.05762,2.12256,0.17139l4.17041,2.79248
						l51.18311,83.61426l0.59473,4.96826c-0.91748,2.85449-2.93848,5.32617-5.54443,6.78125l-46.68555,25.77441l-0.31104,0.16016
						c-1.41797,0.67773-2.81201,0.99707-3.73145,1.14453L57.63052,132.57109z"/>
					<polygon fill="#FFFFFF" points="109.56363,102.56035 109.56363,101.82109 120.65005,98.63847 120.98062,99.16679 
						119.12173,107.40703 118.79117,107.61797 					"/>
					<path fill="#FFFFFF" d="M58.58755,133.98515l-0.88232-1.58398l4.42969-8.86426c0.0752-0.01074,0.12988-0.02148,0.21387-0.05469
						l46.34766-25.54297c-0.20898,0.11719-0.43359,0.43164-0.50098,0.88477l11.01758-2.30127l1.32373,2.11084l0.9165,3.1875v0.63379
						l-3.0918,5.24805l-51.62402,28.61035L58.58755,133.98515z"/>
					<path fill="#FFFFFF" d="M58.58755,133.98515l-0.88232-1.58398l4.42969-8.86426c0.0752-0.01074,0.12988-0.02148,0.21387-0.05469
						l46.34766-25.54297c-0.20898,0.11719-0.43359,0.43164-0.50098,0.88477l11.01758-2.30127l1.32373,2.11084l0.9165,3.1875v0.63379
						l-3.0918,5.24805l-51.62402,28.61035L58.58755,133.98515z"/>
				</g>
			</g>
		</g>
	</g>
	<g>
		<path fill="#539E43" d="M257.35263,298c-1.65462,0-3.19893-0.4223-4.6329-1.16132l-14.6709-8.34033
			c-2.20615-1.16132-1.10307-1.58362-0.44122-1.7948c2.9783-0.95013,3.52983-1.16129,6.61844-2.85049
			c0.33093-0.21112,0.77216-0.10556,1.10307,0.10559l11.25136,6.44003c0.44122,0.21112,0.99277,0.21112,1.3237,0l44.01263-24.3876
			c0.44125-0.21115,0.66187-0.63345,0.66187-1.16132v-48.66962c0-0.52788-0.22061-0.95018-0.66187-1.16132l-44.01263-24.28203
			c-0.44125-0.21115-0.9928-0.21115-1.3237,0l-44.01266,24.28203c-0.44122,0.21114-0.66183,0.73901-0.66183,1.16132v48.66962
			c0,0.42227,0.22061,0.95016,0.66183,1.16132l12.02351,6.65115c6.50813,3.16724,10.58951-0.52786,10.58951-4.22296v-48.03618
			c0-0.63344,0.55154-1.26688,1.32368-1.26688h5.62569c0.66185,0,1.32368,0.52786,1.32368,1.26688v48.03618
			c0,8.34033-4.74323,13.19678-13.01627,13.19678c-2.53708,0-4.52261,0-10.14828-2.63937l-11.58229-6.33444
			c-2.86798-1.58362-4.6329-4.5397-4.6329-7.70691v-48.66962c0-3.16722,1.76492-6.12329,4.6329-7.70689l44.01268-24.3876
			c2.75768-1.47804,6.50812-1.47804,9.26581,0l44.01266,24.3876c2.86798,1.5836,4.6329,4.53967,4.6329,7.70689v48.66962
			c0,3.16721-1.76492,6.12329-4.6329,7.70691l-44.01266,24.3876C260.55154,297.68326,258.89694,298,257.35263,298z
			 M270.92044,264.53302c-19.3038,0-23.27487-8.44589-23.27487-15.62494c0-0.63345,0.55154-1.26689,1.32368-1.26689h5.73599
			c0.66183,0,1.21338,0.4223,1.21338,1.05574c0.88246,5.59544,3.41954,8.34033,15.11211,8.34033
			c9.26584,0,13.23691-2.00589,13.23691-6.75671c0-2.74492-1.10309-4.75084-15.55334-6.12331
			c-12.0235-1.1613-19.52441-3.69508-19.52441-12.88002c0-8.5515,7.50092-13.61905,20.07596-13.61905
			c14.11932,0,21.0687,4.64526,21.95114,14.78036c0,0.31673-0.11029,0.63344-0.3309,0.95016
			c-0.22061,0.21115-0.55154,0.4223-0.88248,0.4223h-5.73596c-0.55154,0-1.10309-0.4223-1.21338-0.95018
			c-1.3237-5.80656-4.74323-7.70689-13.78842-7.70689c-10.14828,0-11.36166,3.37836-11.36166,5.91214
			c0,3.06166,1.43399,4.01181,15.11209,5.701c13.56784,1.68919,19.96564,4.11739,19.96564,13.19675
			C292.87161,259.25433,284.92947,264.53302,270.92044,264.53302z"/>
		<path fill="#333333" d="M120.79205,107.65005c0-1.90034-1.10307-3.69509-2.868-4.64526L71.15371,77.24474
			c-0.77216-0.4223-1.65461-0.63345-2.53707-0.73902h-0.44123c-0.88246,0-1.76492,0.31672-2.53707,0.73902L18.86799,103.0048
			C17.10308,103.95496,16,105.74972,16,107.65005l0.11031,69.25655c0,0.95018,0.55154,1.90034,1.434,2.32263
			c0.88246,0.52786,1.98553,0.52786,2.75768,0l27.79747-15.20265c1.76492-0.95016,2.86799-2.74492,2.86799-4.64526V126.9701
			c0-1.90034,1.10308-3.69509,2.86799-4.64526l11.80289-6.54559c0.88246-0.52786,1.87523-0.73902,2.868-0.73902
			s1.98553,0.21116,2.75768,0.73902l11.80289,6.54559c1.76492,0.95016,2.868,2.74492,2.868,4.64526v32.41122
			c0,1.90034,1.10307,3.6951,2.86799,4.64526l27.79747,15.20265c0.88246,0.52786,1.98553,0.52786,2.86799,0
			c0.88246-0.42229,1.43401-1.37245,1.43401-2.32263L120.79205,107.65005L120.79205,107.65005z"/>
		<path fill="#333333" d="M345.59857,12.31672c-0.88245-0.4223-1.98553-0.4223-2.75772,0
			c-0.88245,0.52787-1.43399,1.37246-1.43399,2.32263v68.62311c0,0.63345-0.3309,1.26688-0.99277,1.68919
			c-0.66183,0.31672-1.32367,0.31672-1.98553,0l-11.69257-6.44002c-1.76492-0.95016-3.86075-0.95016-5.62567,0l-46.77036,25.86563
			c-1.76489,0.95016-2.86798,2.74493-2.86798,4.64526v51.62569c0,1.90033,1.10309,3.69508,2.86798,4.64525l46.77036,25.86563
			c1.76492,0.95018,3.86075,0.95018,5.62567,0l46.77036-25.86563c1.76489-0.95016,2.86798-2.74492,2.86798-4.64525V31.95349
			c0-2.00591-1.10309-3.80066-2.86798-4.75083L345.59857,12.31672L345.59857,12.31672z M341.29657,143.6508
			c0,0.52786-0.22061,0.95015-0.66183,1.1613l-15.9946,8.86821c-0.44122,0.21115-0.99274,0.21115-1.43399,0l-15.99457-8.86821
			c-0.44122-0.21115-0.66183-0.73901-0.66183-1.1613v-17.73644c0-0.52787,0.22061-0.95016,0.66183-1.16132l15.99457-8.86822
			c0.44125-0.21114,0.99277-0.21114,1.43399,0l15.9946,8.86822c0.44122,0.21115,0.66183,0.73901,0.66183,1.16132V143.6508
			L341.29657,143.6508z"/>
		<g transform="translate(401.047404, 70.501129)">
			<path fill="#333333" d="M100.19492,54.99093c1.76492-0.95016,2.75768-2.74492,2.75768-4.64526v-12.5633
				c0-1.90033-1.10308-3.69509-2.75768-4.64526L53.7555,7.37705c-1.76492-0.95017-3.86076-0.95017-5.62568,0L1.35947,33.24269
				c-1.76492,0.95016-2.86799,2.74493-2.86799,4.64526v51.62569c0,1.90033,1.10307,3.69509,2.86799,4.64526l46.43942,25.33776
				c1.76492,0.95017,3.86076,0.95017,5.51537,0l28.12839-14.9915c0.88246-0.4223,1.434-1.37247,1.434-2.32263
				c0-0.95017-0.55154-1.90033-1.434-2.32262L34.4517,73.99426c-0.88246-0.52787-1.434-1.37246-1.434-2.32263V55.5188
				c0-0.95016,0.55154-1.90033,1.434-2.32263l14.67088-8.02362c0.88246-0.52787,1.98553-0.52787,2.86799,0l14.67088,8.02362
				c0.88246,0.52787,1.434,1.37246,1.434,2.32263v12.66888c0,0.95016,0.55154,1.90033,1.434,2.32262
				c0.88246,0.52788,1.98553,0.52788,2.86799,0L100.19492,54.99093L100.19492,54.99093z"/>
			<path fill="#539E43" d="M50.22566,52.56273c0.33092-0.21115,0.77215-0.21115,1.10307,0l8.9349,4.96198
				c0.33092,0.21115,0.55154,0.52787,0.55154,0.95016v9.92396c0,0.42229-0.22062,0.73901-0.55154,0.95016l-8.9349,4.96198
				c-0.33092,0.21114-0.77215,0.21114-1.10307,0l-8.9349-4.96198c-0.33092-0.21115-0.55154-0.52787-0.55154-0.95016v-9.92396
				c0-0.4223,0.22061-0.73902,0.55154-0.95016L50.22566,52.56273L50.22566,52.56273z"/>
		</g>
		<g transform="translate(134.067720, 70.501129)">
			<g>
				
					<linearGradient id="path-2_4_" gradientUnits="userSpaceOnUse" x1="-181.88274" y1="481.38266" x2="-182.25972" y2="480.70773" gradientTransform="matrix(108.98781 0 0 -124.186 19903.61133 59806.85938)">
					<stop  offset="0" style="stop-color:#41873F"/>
					<stop  offset="0.3288" style="stop-color:#418B3D"/>
					<stop  offset="0.6352" style="stop-color:#419637"/>
					<stop  offset="0.9319" style="stop-color:#3FA92D"/>
					<stop  offset="1" style="stop-color:#3FAE2A"/>
				</linearGradient>
				<path id="path-2_23_" fill="url(#path-2_4_)" d="M64.93228,7.5882c-1.76492-0.95017-3.86076-0.95017-5.62568,0
					L12.86718,33.24269c-1.76492,0.95016-2.75768,2.74493-2.75768,4.64526v51.41455c0,1.90033,1.10307,3.69508,2.75768,4.64526
					l46.43942,25.65448c1.76492,0.95016,3.86076,0.95016,5.62568,0l46.43942-25.65448
					c1.76492-0.95017,2.75768-2.74493,2.75768-4.64526V37.88794c0-1.90033-1.10307-3.69509-2.75768-4.64526L64.93228,7.5882
					L64.93228,7.5882z"/>
			</g>
			<defs>
				
					<filter id="Adobe_OpacityMaskFilter" filterUnits="userSpaceOnUse" x="11.10226" y="7.06033" width="101.59313" height="113.39057">
					<feColorMatrix  type="matrix" values="1 0 0 0 0  0 1 0 0 0  0 0 1 0 0  0 0 0 1 0"/>
				</filter>
			</defs>
			<mask maskUnits="userSpaceOnUse" x="11.10226" y="7.06033" width="101.59313" height="113.39057" id="mask-3_16_">
				<g filter="url(#Adobe_OpacityMaskFilter)">
					<path id="path-2_22_" fill="#FFFFFF" d="M64.93228,7.5882c-1.76492-0.95017-3.86076-0.95017-5.62568,0L12.86718,33.24269
						c-1.76492,0.95016-2.75768,2.74493-2.75768,4.64526v51.41455c0,1.90033,1.10307,3.69508,2.75768,4.64526l46.43942,25.65448
						c1.76492,0.95016,3.86076,0.95016,5.62568,0l46.43942-25.65448c1.76492-0.95017,2.75768-2.74493,2.75768-4.64526V37.88794
						c0-1.90033-1.10307-3.69509-2.75768-4.64526L64.93228,7.5882L64.93228,7.5882z"/>
				</g>
			</mask>
			<g mask="url(#mask-3_16_)">
				
					<linearGradient id="SVGID_1_" gradientUnits="userSpaceOnUse" x1="-182.10349" y1="481.02933" x2="-181.00835" y2="481.72318" gradientTransform="matrix(106.44515 0 0 -124.13268 19439.17383 59781.28516)">
					<stop  offset="0.1376" style="stop-color:#41873F"/>
					<stop  offset="0.4032" style="stop-color:#54A044"/>
					<stop  offset="0.7136" style="stop-color:#66B848"/>
					<stop  offset="0.9081" style="stop-color:#6CC04A"/>
				</linearGradient>
				<path fill="url(#SVGID_1_)" d="M111.48202,33.24269L64.82198,7.5882c-0.44123-0.21115-0.99277-0.4223-1.434-0.52787
					l-52.28571,85.7261c0.44123,0.52787,0.99277,0.95017,1.5443,1.26689l46.66003,25.65449
					c1.32369,0.73901,2.868,0.95016,4.30199,0.52786l49.0868-85.93724C112.36447,33.87613,111.92324,33.55941,111.48202,33.24269
					L111.48202,33.24269z"/>
			</g>
			<defs>
				
					<filter id="Adobe_OpacityMaskFilter_1_" filterUnits="userSpaceOnUse" x="12.86718" y="-1.80788" width="103.02713" height="123.62717">
					<feColorMatrix  type="matrix" values="1 0 0 0 0  0 1 0 0 0  0 0 1 0 0  0 0 0 1 0"/>
				</filter>
			</defs>
			<mask maskUnits="userSpaceOnUse" x="12.86718" y="-1.80788" width="103.02713" height="123.62717" id="mask-3_15_">
				<g filter="url(#Adobe_OpacityMaskFilter_1_)">
					<path id="path-2_21_" fill="#FFFFFF" d="M64.93228,7.5882c-1.76492-0.95017-3.86076-0.95017-5.62568,0L12.86718,33.24269
						c-1.76492,0.95016-2.75768,2.74493-2.75768,4.64526v51.41455c0,1.90033,1.10307,3.69508,2.75768,4.64526l46.43942,25.65448
						c1.76492,0.95016,3.86076,0.95016,5.62568,0l46.43942-25.65448c1.76492-0.95017,2.75768-2.74493,2.75768-4.64526V37.88794
						c0-1.90033-1.10307-3.69509-2.75768-4.64526L64.93228,7.5882L64.93228,7.5882z"/>
				</g>
			</mask>
			<g mask="url(#mask-3_15_)">
				<g transform="translate(0.000000, -9.246050)">
					
						<linearGradient id="SVGID_2_" gradientUnits="userSpaceOnUse" x1="-164.19141" y1="-213.2502" x2="-71.2149" y2="-213.2502" gradientTransform="matrix(0.92461 0 0 -0.34673 169.96309 -66.34306)">
						<stop  offset="0.09192" style="stop-color:#6CC04A"/>
						<stop  offset="0.2864" style="stop-color:#66B848"/>
						<stop  offset="0.5968" style="stop-color:#54A044"/>
						<stop  offset="0.8624" style="stop-color:#41873F"/>
					</linearGradient>
					<path fill="url(#SVGID_2_)" d="M57.7623,7.43817l-0.66185,0.31672h0.88246L57.7623,7.43817z"/>
					
						<linearGradient id="SVGID_3_" gradientUnits="userSpaceOnUse" x1="-182.55928" y1="490.32568" x2="-181.54868" y2="490.32568" gradientTransform="matrix(106.32957 0 0 -124.23339 19419.86523 60987.66797)">
						<stop  offset="0.09192" style="stop-color:#6CC04A"/>
						<stop  offset="0.2864" style="stop-color:#66B848"/>
						<stop  offset="0.5968" style="stop-color:#54A044"/>
						<stop  offset="0.8624" style="stop-color:#41873F"/>
					</linearGradient>
					<path fill="url(#SVGID_3_)" d="M111.59232,103.19379c1.32368-0.73902,2.31645-2.00591,2.75768-3.37836L63.16736,16.20081
						c-1.32369-0.21115-2.75768-0.10557-3.97107,0.63345L12.86718,42.38316l49.96926,87.20413
						c0.66184-0.10558,1.43399-0.31673,2.09584-0.63345L111.59232,103.19379L111.59232,103.19379z"/>
					
						<linearGradient id="SVGID_4_" gradientUnits="userSpaceOnUse" x1="-121.15736" y1="200.96637" x2="-28.18087" y2="200.96637" gradientTransform="matrix(0.34673 0 0 -0.80903 125.42683 264.77838)">
						<stop  offset="0.09192" style="stop-color:#6CC04A"/>
						<stop  offset="0.2864" style="stop-color:#66B848"/>
						<stop  offset="0.5968" style="stop-color:#54A044"/>
						<stop  offset="0.8624" style="stop-color:#41873F"/>
					</linearGradient>
					<path fill="url(#SVGID_4_)" d="M115.89431,102.3492l-0.33092-0.52786v0.73901L115.89431,102.3492z"/>
					
						<linearGradient id="SVGID_5_" gradientUnits="userSpaceOnUse" x1="-183.03882" y1="485.4162" x2="-181.08553" y2="485.4162" gradientTransform="matrix(55.014 0 0 -34.32597 10078.10938 16777.76758)">
						<stop  offset="0.09192" style="stop-color:#6CC04A"/>
						<stop  offset="0.2864" style="stop-color:#66B848"/>
						<stop  offset="0.5968" style="stop-color:#54A044"/>
						<stop  offset="0.8624" style="stop-color:#41873F"/>
					</linearGradient>
					<path fill="url(#SVGID_5_)" d="M111.59232,103.19379l-46.54974,25.65449c-0.66184,0.31671-1.32369,0.52786-2.09584,0.63344
						l0.88246,1.58362l51.62387-28.61057v-0.63344l-1.32369-2.11149C113.90878,101.18788,112.91601,102.45477,111.59232,103.19379
						L111.59232,103.19379z"/>
					
						<linearGradient id="SVGID_6_" gradientUnits="userSpaceOnUse" x1="-180.8282" y1="487.82568" x2="-181.99289" y2="484.01776" gradientTransform="matrix(55.014 0 0 -34.32597 10078.10938 16777.76758)">
						<stop  offset="0" style="stop-color:#41873F"/>
						<stop  offset="0.3288" style="stop-color:#418B3D"/>
						<stop  offset="0.6352" style="stop-color:#419637"/>
						<stop  offset="0.9319" style="stop-color:#3FA92D"/>
						<stop  offset="1" style="stop-color:#3FAE2A"/>
					</linearGradient>
					<path fill="url(#SVGID_6_)" d="M111.59232,103.19379l-46.54974,25.65449c-0.66184,0.31671-1.32369,0.52786-2.09584,0.63344
						l0.88246,1.58362l51.62387-28.61057v-0.63344l-1.32369-2.11149C113.90878,101.18788,112.91601,102.45477,111.59232,103.19379
						L111.59232,103.19379z"/>
				</g>
			</g>
		</g>
	</g>
</g>
</svg>
