<?xml version="1.0" encoding="utf-8"?>
<!-- Generator: Adobe Illustrator 22.0.1, SVG Export Plug-In . SVG Version: 6.00 Build 0)  -->
<svg version="1.1" id="Layer_1" xmlns="http://www.w3.org/2000/svg" xmlns:xlink="http://www.w3.org/1999/xlink" x="0px" y="0px"
	 viewBox="0 0 2500 938" style="enable-background:new 0 0 2500 938;" xml:space="preserve">
<style type="text/css">
	.st0{fill:#FB8C00;}
	.st1{fill:#616161;}
	.st2{fill:#FFFFFF;}
</style>
<g>
	<path class="st0" d="M1595,556.3l341.2-539.6H1710l-233.4,348.7l-166-348.7h-173.9L958.6,365.4L832.9,206.5L719.2,429.9
		l115.5,126.4h222.6l161-312.7l153.5,312.7L1595,556.3z"/>
	<path class="st1" d="M357.4,371.1h139c42.1,0,79.6-3,112.5-9l35.9-70.8L745.2,93.4c-7.7-7.8-16.5-15.2-26.2-22
		c-51.6-36.5-127-54.7-226.4-54.7H143.2v539.6h214.2V371.1z M541.3,140.8c20.2,13,30.2,30.3,30.2,52c0,21.9-8.9,39.3-26.6,52.1
		c-19.4,14.3-55.2,21.4-107.3,21.4h-80.3v-145h80.9C486.8,121.4,521.2,127.9,541.3,140.8L541.3,140.8z M1797.6,459.7l64.9-104.7
		H2050l-89-158.8l111.3-179.4L2391,556.3h-235l-54.4-96.6L1797.6,459.7z"/>
</g>
<g>
	<g>
		<path class="st2" d="M73,837.7c-8.8,0-16-7.2-16-16V648.8c0-7.6,5.3-14.1,12.8-15.7c13.9-2.8,30.7-4.2,51.4-4.2
			c22.9,0,41,6.2,53.7,18.4c13.1,12.4,21,32.8,21,54.8c0,21.8-5.9,40.6-16.7,53.1c-12.9,15.1-31,23.4-53.6,24.6v41.9
			c0,8.8-7.2,16-16,16H73z M125.5,709c1.5-1.4,1.9-3.7,1.9-6.6c0-2.7-0.6-3.8-0.8-4.1c-0.1-0.1-0.5-0.3-1.1-0.5V709z"/>
		<path class="st2" d="M273.1,837.7c-6.5,0-12.3-3.9-14.8-9.9c-2.3-5.5-4.8-14.6-7.6-26.8v20.7c0,8.8-7.2,16-16,16h-36.5
			c-8.8,0-16-7.2-16-16V648.8c0-7.6,5.4-14.2,12.8-15.7c7.8-1.6,24.7-4.2,49.6-4.2c26.4,0,44.7,5.8,57.8,18.2c0,0,0.1,0,0.1,0.1
			c8.5,8.1,18.6,23.4,18.6,50c0,18.2-7,33.8-16.5,44.4c4.9,8.1,7.8,17.4,9.9,25.8c2.1,8.4,4.2,18.3,6,27c1.7,8.1,4,19.2,5,21.8
			c1.8,4.9,1.2,10.4-1.8,14.7s-7.9,6.9-13.2,6.9H273.1z M250.7,705.2c1.9-0.9,1.9-2.4,1.9-4.3c0-2.2-0.4-3.2-0.5-3.5
			c-0.2-0.1-0.6-0.2-1.4-0.4V705.2z"/>
		<path class="st2" d="M390.8,840.9c-50.4,0-85.6-43.3-85.6-105.2c0-30,8-56.3,23.1-76c16-20.8,39-32.3,64.8-32.3
			c26.2,0,49.2,11.3,64.8,31.9c14.4,18.9,22,44.5,22,73.8c0,30-7.9,56.2-22.9,75.6C440.9,829.4,417.4,840.9,390.8,840.9z
			 M392.6,697.3c-8.9,0-16.2,16.6-16.2,37c0,20.5,7.2,36.5,16.4,36.5c9.1,0,16-15.7,16-36.5C408.7,714,401.5,697.3,392.6,697.3z"/>
		<path class="st2" d="M559.2,839.6c-32.5,0-57.3-10.7-73.9-31.8c-14.6-18.2-22.6-43.3-22.6-70.5c0-33,9.8-60.7,28.3-80
			c17.6-18.4,42.6-28.5,70.5-28.5c20.5,0,39.9,4.5,51.8,12.1c5.6,3.6,8.4,10.2,7.1,16.7l-7.8,38.5c-0.3,1.7-1,3.3-1.8,4.8
			c8.5,0.4,15.2,7.4,15.2,16v95.7c0,6.4-3.8,12.1-9.6,14.7C609.8,830,585.8,839.6,559.2,839.6z M539,710.7
			c-3.6,5.4-5.4,12.9-5.4,22.2c0,7.3,1.3,14.9,4.3,21.2v-37.3C537.8,714.6,538.2,712.5,539,710.7z M569.9,700.7
			c-2.8-0.3-6-0.5-9.5-0.5c-2.1,0-4.1,0.2-5.9,0.5H569.9z"/>
		<path class="st2" d="M708.2,837.7c-6.5,0-12.3-3.9-14.8-9.9c-2.3-5.5-4.8-14.6-7.6-26.8v20.7c0,8.8-7.2,16-16,16h-36.5
			c-8.8,0-16-7.2-16-16V648.8c0-7.6,5.4-14.2,12.8-15.7c7.8-1.6,24.7-4.2,49.6-4.2c26.4,0,44.7,5.8,57.8,18.2c0,0,0.1,0,0.1,0.1
			c8.5,8.1,18.6,23.4,18.6,50c0,18.2-7,33.8-16.5,44.4c4.9,8.1,7.8,17.4,9.9,25.8c2.1,8.4,4.2,18.3,6,27c1.7,8.1,4,19.2,5,21.8
			c1.8,4.9,1.2,10.4-1.8,14.7s-7.9,6.9-13.2,6.9H708.2z M685.8,705.2c1.9-0.9,1.9-2.4,1.9-4.3c0-2.2-0.4-3.2-0.5-3.5
			c-0.2-0.1-0.6-0.2-1.4-0.4V705.2z"/>
		<path class="st2" d="M761.4,837.7c-8.8,0-16-7.2-16-16V646.5c0-8.8,7.2-16,16-16H855c8.8,0,16,7.2,16,16V686
			c0,6.4-3.7,11.9-9.1,14.4c3.5,2.9,5.8,7.4,5.8,12.3v39.5c0,6-3.3,11.2-8.2,14c8.1,0.8,14.4,7.6,14.4,15.9v39.5c0,8.8-7.2,16-16,16
			H761.4z"/>
		<path class="st2" d="M917.4,840.9c-20.8,0-41-7.4-51.7-14.7c-5.3-3.6-7.9-9.9-6.7-16.2l7.6-40c1-5.2,4.5-9.6,9.4-11.7
			c2-0.9,4.1-1.3,6.3-1.3c3.1,0,6.1,0.9,8.7,2.6c2.9,1.9,11.8,7.3,22.4,9c-0.8-0.3-1.6-0.6-2.4-0.9c-42.4-15.7-51.3-46.2-51.3-69.1
			c0-19.8,6.9-37.8,19.6-50.7c13.1-13.4,31.1-20.5,52-20.5c18.3,0,33.6,3.8,48,11.9c6.1,3.4,9.3,10.5,7.8,17.3l-8.4,38.5
			c-1.1,4.9-4.4,9-9,11.1c-2.1,1-4.4,1.5-6.7,1.5c-1.1,0-2.1-0.1-3.2-0.3c22.1,13.8,32.8,33.9,32.8,61c0,19.5-6.4,37.3-18.1,50
			C965.1,828.7,947.6,840.9,917.4,840.9z"/>
		<path class="st2" d="M1036.5,840.9c-20.8,0-41-7.4-51.7-14.7c-5.3-3.6-7.9-9.9-6.7-16.2l7.6-40c1-5.2,4.5-9.6,9.4-11.7
			c2-0.9,4.1-1.3,6.3-1.3c3.1,0,6.1,0.9,8.7,2.6c2.9,1.9,11.8,7.3,22.4,9c-0.8-0.3-1.6-0.6-2.4-0.9c-42.4-15.7-51.3-46.2-51.3-69.1
			c0-19.8,6.9-37.8,19.6-50.7c13.1-13.4,31.1-20.5,52-20.5c18.3,0,33.6,3.8,48,11.9c6.1,3.4,9.3,10.5,7.8,17.3l-8.4,38.5
			c-1.1,4.9-4.4,9-9,11.1c-2.1,1-4.4,1.5-6.7,1.5c-1.1,0-2.1-0.1-3.2-0.3c22.1,13.8,32.8,33.9,32.8,61c0,19.5-6.4,37.3-18.1,50
			C1084.2,828.7,1066.7,840.9,1036.5,840.9z"/>
		<path class="st2" d="M1116.4,837.7c-8.8,0-16-7.2-16-16V646.5c0-8.8,7.2-16,16-16h36.8c8.8,0,16,7.2,16,16v175.2
			c0,8.8-7.2,16-16,16H1116.4z"/>
		<path class="st2" d="M1215,837.7c-7.3,0-13.6-4.9-15.5-11.9l-46-175.2c-1.3-4.8-0.2-9.9,2.8-13.8c3-3.9,7.7-6.2,12.7-6.2h40.4
			c7.4,0,13.9,5.1,15.6,12.3l13.5,56.9l13.7-57c1.7-7.2,8.2-12.3,15.6-12.3h38.8c5,0,9.7,2.3,12.7,6.3c3,4,4,9.1,2.7,13.9
			l-47.4,175.2c-1.9,7-8.2,11.8-15.4,11.8H1215z"/>
		<path class="st2" d="M1322.3,837.7c-8.8,0-16-7.2-16-16V646.5c0-8.8,7.2-16,16-16h93.6c8.8,0,16,7.2,16,16V686
			c0,6.4-3.7,11.9-9.1,14.4c3.5,2.9,5.8,7.4,5.8,12.3v39.5c0,6-3.3,11.2-8.2,14c8.1,0.8,14.4,7.6,14.4,15.9v39.5c0,8.8-7.2,16-16,16
			H1322.3z"/>
		<path class="st2" d="M1660.3,837.7c-8,0-14.8-6-15.9-13.9l-0.4-3l-0.5,3.2c-1.1,7.9-7.9,13.7-15.8,13.7h-41.9
			c-7.7,0-14.3-5.5-15.7-13L1537,649.5c-0.9-4.7,0.4-9.5,3.4-13.2c3-3.7,7.6-5.8,12.3-5.8h40c8,0,14.8,6,15.9,13.9l0.7,5.4l0.7-5.4
			c1.1-8,7.8-13.9,15.9-13.9h42.1c7.4,0,13.7,5,15.5,12c1.8-7,8.1-12,15.5-12h37.8c4.8,0,9.4,2.2,12.4,5.9c3,3.7,4.2,8.6,3.3,13.3
			L1716.5,825c-1.5,7.4-8.1,12.8-15.7,12.8H1660.3z"/>
		<path class="st2" d="M1752.5,837.7c-8.8,0-16-7.2-16-16V646.5c0-8.8,7.2-16,16-16h93.6c8.8,0,16,7.2,16,16V686
			c0,6.4-3.7,11.9-9.1,14.4c3.5,2.9,5.8,7.4,5.8,12.3v39.5c0,6-3.3,11.2-8.2,14c8.1,0.8,14.4,7.6,14.4,15.9v39.5c0,8.8-7.2,16-16,16
			H1752.5z"/>
		<path class="st2" d="M1906.9,839.8c-21.7,0-35-2.2-41-3.5c-7.4-1.6-12.6-8.1-12.6-15.6V648.8c0-7.4,5.1-13.9,12.4-15.6
			c9.1-2.1,29.6-4.3,48.3-4.3c20.2,0,34.7,1.5,49.1,9.1c18,9.3,28.7,28.5,28.7,51.4c0,13.7-4.1,25.9-11.7,35.4
			c10.4,10.9,16.2,26.4,16.2,44.6c0,20.2-7.6,38.4-21.5,51.3c-0.1,0.1-0.2,0.1-0.2,0.2C1960,833.8,1938.5,839.8,1906.9,839.8z
			 M1921.7,771.9c3.5-0.7,3.5-2.5,3.5-5c0-1.2-0.2-1.8-0.2-2.1c-0.2-0.2-1.2-0.7-3.2-1.1V771.9z"/>
		<path class="st2" d="M2208.9,837.7c-7.5,0-13.9-5.2-15.6-12.4l-6.9-30.2h-12.3l-5.8,29.7c-1.5,7.5-8.1,12.9-15.7,12.9h-38.8
			c-4.9,0-9.5-2.2-12.6-6.1c-3-3.8-4.1-8.9-3-13.6l41.5-175.2c1.7-7.2,8.2-12.3,15.6-12.3h50.3c7.3,0,13.7,5,15.5,12.1l44.3,175.2
			c1.2,4.8,0.1,9.9-2.9,13.8c-3,3.9-7.7,6.2-12.6,6.2H2208.9z"/>
		<path class="st2" d="M2267.7,837.7c-8.8,0-16-7.2-16-16V648.8c0-7.6,5.3-14.1,12.8-15.7c13.9-2.8,30.7-4.2,51.4-4.2
			c22.9,0,41,6.2,53.7,18.4c13.1,12.4,21,32.8,21,54.8c0,21.8-5.9,40.6-16.7,53.1c-12.9,15.1-31,23.4-53.6,24.6v41.9
			c0,8.8-7.2,16-16,16H2267.7z M2320.2,709c1.5-1.4,1.9-3.7,1.9-6.6c0-2.7-0.6-3.8-0.8-4.1c-0.1-0.1-0.5-0.3-1.1-0.5V709z"/>
		<path class="st2" d="M2392.9,837.7c-8.8,0-16-7.2-16-16V648.8c0-7.6,5.3-14.1,12.8-15.7c13.9-2.8,30.7-4.2,51.4-4.2
			c22.9,0,41,6.2,53.7,18.4c13.1,12.4,21,32.8,21,54.8c0,21.8-5.9,40.6-16.7,53.1c-12.9,15.1-31,23.4-53.6,24.6v41.9
			c0,8.8-7.2,16-16,16H2392.9z M2445.3,709c1.5-1.4,1.9-3.7,1.9-6.6c0-2.7-0.6-3.8-0.8-4.1c-0.1-0.1-0.5-0.3-1.1-0.5V709z"/>
	</g>
	<g>
		<g>
			<path d="M73,648.8c10.1-2.1,25-3.9,48.2-3.9c19.7,0,33.5,5.2,42.7,14c9.2,8.6,16,24.2,16,43.2c0,16.9-4.3,32.8-12.9,42.6
				C155.7,758,139.7,764,119.4,764c-4.1,0-7.6-0.5-9.9-0.8v58.5H73V648.8z M109.5,726.1c2.1,0.5,4.9,0.8,9.6,0.8
				c14.2,0,24.4-8.6,24.4-24.4c0-12.7-7.2-21.1-21.8-21.1c-6.2,0-10.1,0.5-12.1,1V726.1z"/>
			<path d="M198.2,648.8c10.3-2.1,26.5-3.9,46.4-3.9c22,0,36.6,4.2,46.8,13.8c8.4,8.1,13.6,20.8,13.6,38.5
				c0,23.4-14.2,38.2-23.4,42.1v1c8.8,4.9,13.6,16.4,17.4,30.9c4.5,17.9,9,43.7,11.5,50.4h-37.4c-2.1-5.2-5.7-17.4-10.1-40
				c-4.1-21.1-9.4-25.2-21.6-25.2h-6.6v65.3h-36.5V648.8z M234.7,721.9h10.9c14.4,0,23-7.8,23-21.1s-7.4-20-19.9-20
				c-8.2,0-12.1,0.5-14,1V721.9z"/>
			<path d="M463.9,733.1c0,53-27.9,91.8-73.1,91.8c-43.3,0-69.6-38.7-69.6-89.2c0-53.6,28.9-92.3,71.9-92.3
				C437.6,643.4,463.9,681.6,463.9,733.1z M360.4,734.4c0,30.2,12.5,52.5,32.4,52.5c20.1,0,32-22.4,32-52.5s-12.5-53-32.2-53
				S360.4,704.2,360.4,734.4z"/>
			<path d="M610.1,812.4c-11.3,4.9-31.4,11.2-50.9,11.2c-28.9,0-48.5-9.4-61.4-25.7c-12.5-15.6-19.1-36.9-19.1-60.6
				c0-60.6,36.1-92.6,82.9-92.6c20.1,0,35.5,4.7,43.3,9.6l-7.8,38.5c-8.6-4.7-18.7-8.6-36.6-8.6c-23,0-42.9,15.1-42.9,48.6
				c0,31.2,17.5,51.7,42.9,51.7c6,0,11.7-0.8,13.6-1.8v-28.3h-20.3v-37.7h56.3V812.4z"/>
			<path d="M633.3,648.8c10.3-2.1,26.5-3.9,46.4-3.9c22,0,36.7,4.2,46.8,13.8c8.4,8.1,13.6,20.8,13.6,38.5
				c0,23.4-14.2,38.2-23.4,42.1v1c8.8,4.9,13.6,16.4,17.4,30.9c4.5,17.9,9,43.7,11.5,50.4h-37.4c-2.1-5.2-5.7-17.4-10.1-40
				c-4.1-21.1-9.4-25.2-21.6-25.2h-6.6v65.3h-36.5V648.8z M669.8,721.9h10.9c14.4,0,23-7.8,23-21.1s-7.4-20-19.9-20
				c-8.2,0-12.1,0.5-14,1V721.9z"/>
			<path d="M851.7,752.3h-53.4v29.9h59.7v39.5h-96.5V646.5H855V686h-56.7v26.8h53.4V752.3z"/>
			<path d="M882.3,772.9c8.8,5.7,22.8,12.2,37.8,12.2c12.3,0,18.5-5.2,18.5-14c0-7.5-6-12.5-22-18.5c-22.4-8.3-40.9-23.7-40.9-54.1
				c0-31.7,21.4-55.1,55.6-55.1c17.9,0,30,4.2,40.2,9.9l-8.4,38.5c-6.2-3.4-17.4-9.1-32.4-9.1c-10.9,0-17.2,4.7-17.2,12.2
				c0,9.4,8.4,12.5,25.5,19.8c25.5,10.9,37.6,27.3,37.6,53.8c0,29.4-17.4,56.4-59.3,56.4c-17.4,0-34.3-6.2-42.7-12L882.3,772.9z"/>
			<path d="M1001.4,772.9c8.8,5.7,22.8,12.2,37.8,12.2c12.3,0,18.5-5.2,18.5-14c0-7.5-6-12.5-22-18.5c-22.4-8.3-40.9-23.7-40.9-54.1
				c0-31.7,21.4-55.1,55.6-55.1c17.9,0,30,4.2,40.2,9.9l-8.4,38.5c-6.2-3.4-17.4-9.1-32.4-9.1c-10.9,0-17.2,4.7-17.2,12.2
				c0,9.4,8.4,12.5,25.5,19.8c25.5,10.9,37.6,27.3,37.6,53.8c0,29.4-17.4,56.4-59.3,56.4c-17.4,0-34.3-6.2-42.7-12L1001.4,772.9z"/>
			<path d="M1153.2,646.5v175.2h-36.8V646.5H1153.2z"/>
			<path d="M1215,821.7l-46-175.2h40.4l16,67.6c4.9,20,9,39,12.7,62.4h0.4c3.7-21.8,8.2-42.4,12.7-61.1l16.6-68.9h38.8l-47.4,175.2
				H1215z"/>
			<path d="M1412.5,752.3h-53.4v29.9h59.7v39.5h-96.5V646.5h93.6V686h-56.7v26.8h53.4V752.3z"/>
			<path d="M1585.8,821.7l-33.1-175.2h40l8.6,65.5c2.7,20.8,5.7,45,7.8,61.9h0.4c2.1-19.2,4.9-40.8,7.8-62.7l8.6-64.7h42.1l8.4,68.9
				c2.5,20.5,4.1,38,6,56.9h0.4c1.9-19,4.7-40.3,7.4-61.1l8.8-64.7h37.8l-35.9,175.2h-40.5l-9.9-76.4c-1.9-15.3-3.7-30.4-5.3-50.7
				h-0.4c-2.1,20.3-3.7,35.6-6,51l-10.9,76.2H1585.8z"/>
			<path d="M1842.8,752.3h-53.4v29.9h59.7v39.5h-96.5V646.5h93.6V686h-56.7v26.8h53.4V752.3z"/>
			<path d="M1869.3,648.8c7.8-1.8,27.1-3.9,44.6-3.9c20.7,0,31.4,1.8,41.7,7.3c11.1,5.7,20.1,18.5,20.1,37.2
				c0,14.8-6.2,28.9-22.2,36.4v0.5c16.4,5.7,26.7,21.3,26.7,43.2c0,17.2-6.8,30.7-16.4,39.5c-10.5,9.4-27.7,14.8-56.9,14.8
				c-17.9,0-30.4-1.6-37.6-3.1V648.8z M1905.7,712.8h7.8c17.2,0,25-6.2,25-17.2c0-9.9-6.4-15.6-19.5-15.6c-7,0-10.7,0.5-13.3,1
				V712.8z M1905.7,787.7c2.9,0.5,6.4,0.5,11.9,0.5c12.9,0,23.6-6,23.6-21.3c0-14.8-11.1-19.8-25.9-19.8h-9.6V787.7z"/>
			<path d="M2160.9,779.1l-8.4,42.6h-38.8l41.5-175.2h50.3l44.3,175.2h-40.9l-9.7-42.6H2160.9z M2193.5,743.2l-7-30.9
				c-2.3-9.9-5.1-22.6-7.4-32.8h-0.4c-2.1,10.1-4.1,22.9-6.2,33l-6.2,30.7H2193.5z"/>
			<path d="M2267.7,648.8c10.1-2.1,25-3.9,48.2-3.9c19.7,0,33.5,5.2,42.7,14c9.2,8.6,16,24.2,16,43.2c0,16.9-4.3,32.8-12.9,42.6
				c-11.3,13.3-27.3,19.2-47.6,19.2c-4.1,0-7.6-0.5-9.9-0.8v58.5h-36.5V648.8z M2304.2,726.1c2.1,0.5,4.9,0.8,9.6,0.8
				c14.2,0,24.4-8.6,24.4-24.4c0-12.7-7.2-21.1-21.8-21.1c-6.2,0-10.1,0.5-12.1,1V726.1z"/>
			<path d="M2392.9,648.8c10.1-2.1,25-3.9,48.2-3.9c19.7,0,33.5,5.2,42.7,14c9.2,8.6,16,24.2,16,43.2c0,16.9-4.3,32.8-12.9,42.6
				c-11.3,13.3-27.3,19.2-47.6,19.2c-4.1,0-7.6-0.5-9.9-0.8v58.5h-36.5V648.8z M2429.3,726.1c2.1,0.5,4.9,0.8,9.6,0.8
				c14.2,0,24.4-8.6,24.4-24.4c0-12.7-7.2-21.1-21.8-21.1c-6.2,0-10.1,0.5-12.1,1V726.1z"/>
		</g>
	</g>
</g>
</svg>
