<?xml version="1.0" encoding="utf-8"?>
<!-- Generator: Adobe Illustrator 22.0.1, SVG Export Plug-In . SVG Version: 6.00 Build 0)  -->
<svg version="1.1" id="Layer_1" xmlns="http://www.w3.org/2000/svg" xmlns:xlink="http://www.w3.org/1999/xlink" x="0px" y="0px"
	 viewBox="0 0 256 230" style="enable-background:new 0 0 256 230;" xml:space="preserve">
<style type="text/css">
	.st0{fill:#53C1DE;}
	.st1{fill:#FFFFFF;}
	.st2{display:none;}
	.st3{display:inline;fill:#FFFFFF;}
</style>
<path class="st0" d="M183.1,48.7c-1.8-0.6-3.8-1.2-5.8-1.8c0.3-1.3,0.6-2.5,0.9-3.8c4.4-20.5,1.5-37.1-8.3-42.4
	c-9.4-5.2-24.8,0.2-40.3,13.2c-1.5,1.2-2.9,2.6-4.5,4c-1-0.9-2-1.8-2.9-2.7C105.9,1.3,89.6-4.7,79.9,0.9
	c-9.4,5.2-12.2,20.8-8.2,40.2c0.4,1.8,0.8,3.8,1.4,5.8c-2.3,0.6-4.5,1.3-6.7,2c-19,6.4-31.2,16.4-31.2,26.9
	c0,10.7,13.1,21.5,32.9,28.1c1.6,0.5,3.2,1,4.9,1.5c-0.6,2.1-1,4.1-1.4,6.2c-3.7,19.1-0.8,34.3,8.5,39.4c9.6,5.4,25.9-0.2,41.7-13.4
	c1.3-1.1,2.5-2.1,3.7-3.3c1.6,1.5,3.3,2.9,4.9,4.3c15.3,12.7,30.4,17.8,39.8,12.6c9.6-5.4,12.8-21.6,8.7-41.5
	c-0.3-1.5-0.6-3.1-1.1-4.6c1.1-0.3,2.2-0.7,3.3-1c20.6-6.6,34.1-17.3,34.1-28.1C215.1,65.2,202.5,55.1,183.1,48.7L183.1,48.7
	L183.1,48.7z"/>
<path class="st1" d="M178.6,96.7c-1,0.3-2,0.6-3,0.9c-2.3-7-5.3-14.4-9.1-21.9c3.6-7.4,6.5-14.7,8.8-21.6c1.8,0.5,3.7,1.1,5.3,1.6
	c16.7,5.5,26.9,13.7,26.9,20C207.4,82.4,196.5,91,178.6,96.7L178.6,96.7L178.6,96.7z M171.2,110.8c1.8,8.7,2.1,16.7,0.9,22.9
	c-1,5.6-3.3,9.3-5.9,10.7c-5.7,3.1-17.8-0.9-30.9-11.8c-1.5-1.2-3-2.5-4.5-4c5.1-5.4,10.1-11.6,15.1-18.4c8.7-0.8,16.9-2,24.4-3.6
	C170.6,108.1,171,109.5,171.2,110.8L171.2,110.8L171.2,110.8z M96.4,144c-5.6,1.9-10,1.9-12.6,0.5c-5.7-3.1-8.1-15.3-4.8-31.7
	c0.4-1.8,0.8-3.8,1.3-5.8c7.4,1.5,15.5,2.7,24.3,3.4c5,6.8,10.2,13,15.5,18.4c-1.1,1.1-2.3,2.1-3.4,3.1
	C109.6,137.7,102.6,141.9,96.4,144L96.4,144L96.4,144z M70.5,96.7c-8.8-2.9-16-6.7-21-10.7c-4.5-3.7-6.7-7.4-6.7-10.3
	c0-6.3,9.8-14.4,26.1-19.9c2-0.7,4.1-1.3,6.2-1.8c2.2,7.1,5.2,14.4,8.8,21.9c-3.6,7.6-6.6,15-8.9,22.2
	C73.3,97.6,71.9,97.2,70.5,96.7L70.5,96.7L70.5,96.7z M79.1,39.6C75.8,23,78,10.4,83.7,7.2c6.1-3.4,19.4,1.5,33.4,13.4
	c0.9,0.8,1.8,1.5,2.7,2.4c-5.3,5.4-10.4,11.6-15.3,18.3c-8.4,0.8-16.6,2-24.1,3.6C79.9,43.2,79.5,41.4,79.1,39.6L79.1,39.6
	L79.1,39.6z M156.9,58.1c-1.8-3-3.6-5.8-5.5-8.7c5.7,0.7,11.2,1.6,16.4,2.8c-1.5,4.8-3.5,9.8-5.7,15
	C160.4,64.1,158.7,61.1,156.9,58.1L156.9,58.1L156.9,58.1z M125.1,28.4c3.6,3.7,7.1,7.8,10.6,12.4c-3.5-0.2-7.1-0.2-10.7-0.2
	c-3.6,0-7.1,0.1-10.6,0.2C118,36.3,121.5,32.1,125.1,28.4L125.1,28.4L125.1,28.4z M93.3,58.1c-1.8,3-3.5,6-5.1,9
	C85.9,62,84,57,82.4,52.1c5.1-1.1,10.6-2,16.3-2.7C96.9,52.3,95.1,55.2,93.3,58.1L93.3,58.1L93.3,58.1z M99,102.4
	c-5.9-0.6-11.5-1.5-16.6-2.5C84,95,86,89.8,88.2,84.6c1.6,3,3.3,6,5.1,9l0,0C95.2,96.6,97,99.5,99,102.4L99,102.4L99,102.4z
	 M125.4,123.4c-3.7-3.8-7.3-8-10.8-12.5c3.4,0.2,6.9,0.2,10.5,0.2c3.7,0,7.3-0.1,10.8-0.2C132.5,115.5,128.9,119.7,125.4,123.4
	L125.4,123.4L125.4,123.4z M162.1,84.3c2.4,5.3,4.5,10.4,6.1,15.3c-5.3,1.2-10.8,2.1-16.8,2.8c1.8-2.8,3.7-5.8,5.5-8.8
	C158.7,90.4,160.4,87.4,162.1,84.3L162.1,84.3L162.1,84.3z M150.2,89.7c-2.8,4.7-5.7,9.2-8.6,13.4c-5.3,0.4-10.8,0.5-16.5,0.5
	c-5.6,0-11.1-0.2-16.3-0.5c-3-4.3-6-8.8-8.8-13.4l0,0c-2.8-4.6-5.3-9.3-7.7-14c2.3-4.7,4.9-9.4,7.7-14l0,0c2.8-4.7,5.7-9.1,8.8-13.4
	c5.3-0.4,10.8-0.6,16.4-0.6l0,0c5.6,0,11.1,0.2,16.4,0.6c2.9,4.2,5.9,8.7,8.7,13.4s5.4,9.4,7.7,13.9C155.6,80.4,153,85.1,150.2,89.7
	L150.2,89.7L150.2,89.7z M166.1,7c6.1,3.4,8.4,16.9,4.6,34.5c-0.2,1.2-0.5,2.3-0.8,3.5c-7.5-1.7-15.6-2.9-24.1-3.7
	c-4.9-6.8-10-13-15.2-18.3c1.4-1.3,2.8-2.5,4.1-3.7C148,8.3,160.4,3.9,166.1,7L166.1,7L166.1,7z"/>
<path class="st0" d="M125.1,60.2c8.8,0,16.1,6.9,16.1,15.5c0,8.5-7.2,15.5-16.1,15.5s-16.1-7-16.1-15.6
	C109,67.1,116.2,60.2,125.1,60.2"/>
<g>
	<g class="st2">
		<path class="st3" d="M59.4,211v-44.9l6-0.9c2-0.3,6.2-0.8,12.5-0.8c7,0,11.8,1.2,15.6,3.8c4.1,2.9,6.3,7.5,6.3,12.8
			c0,3.4-1.2,6.4-2.9,8.8c0.4,0.9,0.8,1.8,1.1,2.7c0.6,1.7,1.1,3.6,1.6,5.2c0.3,1.2,0.8,2.8,1,3.3l5,10L59.4,211L59.4,211z"/>
		<path class="st3" d="M110.4,211.6c-12.5,0-20.8-7.7-20.8-19.2c0-9.5,7-19.5,20-19.5c11,0,18.7,7.9,18.7,19.3c0,1.7-0.2,3.7-0.6,5
			l-1,3.8l1.2,6.4l-5.4,2.2C118.9,210.9,115.1,211.6,110.4,211.6z"/>
		<path class="st3" d="M132.2,211.6c-8.6,0-15.3-6.3-15.3-14.4c0-1.9,0.4-5.8,3.1-9.3l-2.6-9.4l5-2.6c2.1-1.1,6.7-3,13.6-3
			c11.5,0,18.6,6.7,18.6,17.4v7.9c0,2.4,0.1,4,0.2,4.3l1.9,8.6h-8.8H137C135.6,211.4,134,211.6,132.2,211.6z M137.2,200.5
			L137.2,200.5z"/>
		<path class="st3" d="M165.5,211.6c-12.1,0-20.6-7.9-20.6-19.2c0-9.4,6.8-19.6,21.6-19.6c2.1,0,5.2,0.2,8.3,1.2l5.9,1.9l-3,14.5
			l2.8,17.1l-4.9,2.2C173.2,211,169.8,211.6,165.5,211.6z"/>
		<path class="st3" d="M187.1,211.6c-4.4,0-8.5-1.6-11.3-4.5s-4.1-6.9-4.1-12.3v-0.7h-3v-20.7h3v-3.5l22.8-5.1v8.6h5v14.9h0.1
			l-0.1,8.8v11.6l-4.5,1.7C193,211.1,190.2,211.6,187.1,211.6z"/>
	</g>
	<g>
		<g class="st2">
			<path class="st3" d="M94.1,208H82.5l-1.1-2.1c-0.7-1.2-1.4-3.2-2-5.1v7.2h-17v-39.4l3.4-0.5c1.9-0.3,6-0.8,12-0.8
				c6.4,0,10.6,1,13.8,3.3c3.3,2.3,5,6,5,10.4c0,3.4-1.5,6.3-3.5,8.4c0.8,1.4,1.4,2.8,1.8,4c0.5,1.6,1,3.4,1.5,5.1
				c0.4,1.4,0.9,3.3,1.1,3.8l2.9,5.8L94.1,208z"/>
			<path class="st3" d="M110.4,208.6c-10.8,0-17.8-6.4-17.8-16.2c0-6.4,4.6-16.5,17-16.5c10.8,0,15.7,8.2,15.7,16.3
				c0,1.4-0.2,3.2-0.5,4.2l-0.8,2.9h-0.7l1.2,6.2l-3.1,1.2C118.1,208,114.7,208.6,110.4,208.6z"/>
			<path class="st3" d="M132.2,208.6c-7,0-12.3-4.9-12.3-11.4c0-2.1,0.5-5.7,3.4-8.6l-2.4-8.6l2.8-1.5c1.9-1,6-2.7,12.2-2.7
				c9.7,0,15.6,5.4,15.6,14.4v7.9c0,2.7,0.2,4.5,0.3,5l1.1,4.9h-16.3C135.3,208.4,133.8,208.6,132.2,208.6z"/>
			<path class="st3" d="M165.5,208.6c-10.5,0-17.6-6.5-17.6-16.2c0-8,5.8-16.6,18.6-16.6c1.9,0,4.6,0.2,7.3,1.1l3.4,1.1l-2.8,13.6
				l0.4-0.2l2.3,14.4l-2.8,1.3C171.9,208.3,168.2,208.6,165.5,208.6z M167.1,190.6c-0.7,0-1.2,0.2-1.5,0.5c-0.1,0.1-0.3,0.3-0.3,0.9
				c0,0.6,0,1.6,2.1,1.6c1.2,0,2.2-0.1,2.9-0.4l2.5-1l-3.1-1.3C169.4,190.8,168.6,190.6,167.1,190.6z"/>
			<path class="st3" d="M187.1,208.6c-3.6,0-7-1.3-9.1-3.6c-2.2-2.3-3.3-5.6-3.3-10.2v-3.7h-3v-14.7h3v-4.1l16.8-3.8v7.8h5V191h-5
				c0,0,0,2,0,2.1c0.1,0,0.1,0,0.2,0l4.9-1.1v14.6l-2.6,1C192.3,208.2,189.8,208.6,187.1,208.6z"/>
		</g>
		<g>
			<g>
				<path class="st1" d="M83.6,206l-0.6-1.1c-0.5-1-1.5-3.2-2.6-7.8c-0.8-3-1.4-3.2-3-3.2v12h-13v-35.5l1.7-0.3
					c2.9-0.5,7.2-0.7,11.7-0.7c5.8,0,9.8,0.9,12.6,2.8c2.8,2,4.3,5,4.3,8.8c0,3.7-2,6.5-4.2,8.1c1.3,1.5,2.1,3.3,2.6,4.9
					c0.5,1.6,1,3.4,1.5,5.1c0.4,1.6,1,3.5,1.2,4l1.4,2.9H83.6z M78.1,183.6c1.7,0,3.7-0.3,3.7-1.9c0-0.6,0-1.7-2.9-1.7
					c-0.6,0-1.1,0-1.5,0v3.6H78.1z"/>
				<path class="st1" d="M110.5,206.5c-9.7,0-15.8-5.4-15.8-14.2c0-5.8,4-14.5,15-14.5c9.5,0,13.7,7.2,13.7,14.3
					c0,1.3-0.2,2.8-0.3,3.5l-0.3,1.6h-1.8l1.4,6.9l-1.5,0.6C116.9,206.3,113.3,206.5,110.5,206.5z"/>
				<path class="st1" d="M132.2,206.6c-6.7,0-10.3-4.8-10.3-9.4c0-3.3,1.3-5.9,3.7-7.8l-2.3-8.3l1.4-0.8c1.4-0.7,5.2-2.4,11.2-2.4
					c8.6,0,13.6,4.5,13.6,12.4v7.9c0,3.8,0.2,5,0.3,5.4l0.7,2.5h-12.7v-0.7C136.2,206.2,134.4,206.6,132.2,206.6z M134.9,196.2
					c0.1,0,0.3,0.1,0.6,0.1c0.5,0,1-0.4,1.2-0.9C135.4,195.6,134.9,196,134.9,196.2C134.9,196.2,134.9,196.2,134.9,196.2z"/>
				<path class="st1" d="M165.5,206.6c-9.5,0-15.6-5.6-15.6-14.2c0-7.3,5.1-14.6,16.6-14.6c1.4,0,4.1,0.1,6.7,1l1.7,0.6l-2.1,10.8
					l-2.3-1c-0.8-0.4-1.9-0.5-3.4-0.5c-1.2,0-2.3,0.4-3,1.1c-0.6,0.6-0.9,1.4-0.8,2.4c0,3.3,2.9,3.7,4.1,3.7c1.5,0,2.6-0.2,3.5-0.5
					l2.3-1l1.8,10.5l-1.4,0.6C171.8,206.2,169.1,206.6,165.5,206.6z"/>
				<path class="st1" d="M187.2,206.5c-3,0-5.9-1.2-7.7-3c-1.8-1.9-2.7-4.9-2.7-8.8V189h-3v-10.7h3v-4.4l12.7-2.8v7.3h5v10.7h-5v3.9
					c0,1.7,0.2,2.1,0.3,2.1c0,0,0,0,0,0c0,0,0.2,0.1,0.6,0.1c0.9,0,1.5-0.1,1.8-0.2l2.4-0.5v10.6l-1.3,0.5
					C192,206.2,189.7,206.5,187.2,206.5z"/>
			</g>
			<g>
				<path d="M66.4,172.1c2.5-0.4,6.5-0.7,11.4-0.7c5.4,0,9,0.8,11.5,2.5c2.1,1.5,3.4,3.8,3.4,7.1c0,4.3-3.5,7.1-5.8,7.8v0.2
					c2.2,0.9,3.4,3,4.3,5.7c1.1,3.3,2.2,8.1,2.8,9.3h-9.2c-0.5-1-1.4-3.2-2.5-7.4c-1-3.9-2.3-4.7-5.3-4.7h-1.6v12h-9
					C66.4,204,66.4,172.1,66.4,172.1z M75.4,185.6h2.7c3.6,0,5.7-1.4,5.7-3.9S82,178,78.9,178c-2,0-3,0.1-3.5,0.2
					C75.4,178.2,75.4,185.6,75.4,185.6z"/>
				<path d="M105.2,195.2c0.3,1.8,3.4,2.7,6.5,2.7c2.4,0,4.6-0.2,7.1-1l1.2,6c-3.2,1.3-6.4,1.6-9.5,1.6c-8.8,0-13.8-4.8-13.8-12.2
					c0-4.7,3.2-12.5,13-12.5c8.4,0,11.7,6.3,11.7,12.3c0,1.2-0.2,2.6-0.3,3.1L105.2,195.2L105.2,195.2z M112.8,189.1
					c0-1.1-0.7-3.6-3.7-3.6c-2.8,0-3.9,2.2-4.1,3.6H112.8z"/>
				<path d="M139.8,204l-0.5-2h-0.2c-1.7,1.9-4.2,2.6-6.9,2.6c-5.2,0-8.3-3.6-8.3-7.4c0-6.3,5.7-9.3,14.6-9.3v-0.1
					c0-0.9-0.6-1.9-4.1-1.9c-2.6,0-5.6,1-7.2,1.9l-1.6-5.7c1.5-0.8,5-2.2,10.3-2.2c8.1,0,11.6,4.1,11.6,10.4v7.9
					c0,2.5,0.1,4.8,0.4,5.9L139.8,204L139.8,204z M138.8,193.3c-4,0-5.9,1-5.9,2.9c0,1.3,0.9,2.1,2.6,2.1c1.4,0,2.8-1.1,3.2-2.4
					c0.1-0.4,0.1-0.9,0.1-1.3L138.8,193.3L138.8,193.3z"/>
				<path d="M172.8,203.5c-1.7,0.8-4.4,1.1-7.3,1.1c-8.4,0-13.6-4.8-13.6-12.2c0-6.5,4.6-12.6,14.6-12.6c1.7,0,4,0.2,6.1,0.9
					l-1.3,6.6c-0.9-0.4-2.2-0.7-4.2-0.7c-3.4,0-5.9,2.2-5.8,5.5c0,3.9,3,5.6,6.1,5.6c1.7,0,3.1-0.2,4.3-0.7L172.8,203.5z"/>
				<path d="M187.5,173.6v6.8h5v6.7h-5v5.9c0,2.9,0.5,4.2,2.9,4.2c1,0,1.7-0.1,2.2-0.2v6.8c-1,0.4-3.1,0.7-5.4,0.7
					c-2.7,0-5-1.1-6.2-2.4c-1.4-1.5-2.2-3.9-2.2-7.4V187h-3v-6.7h3v-4.8L187.5,173.6z"/>
			</g>
		</g>
	</g>
</g>
</svg>
