<?xml version="1.0" encoding="utf-8"?>
<!-- Generator: Adobe Illustrator 22.0.1, SVG Export Plug-In . SVG Version: 6.00 Build 0)  -->
<svg version="1.1" id="Layer_1" xmlns="http://www.w3.org/2000/svg" xmlns:xlink="http://www.w3.org/1999/xlink" x="0px" y="0px"
	 viewBox="0 0 256 290" style="enable-background:new 0 0 256 290;" xml:space="preserve">
<style type="text/css">
	.st0{fill:#FFFFFF;}
	.st1{fill:#8ED6FB;}
	.st2{fill:#1C78C0;}
	.st3{display:none;}
	.st4{display:inline;fill:#FFFDFE;}
	.st5{fill:#FFFDFE;}
	.st6{display:inline;fill:#FFFFFF;}
	.st7{display:inline;fill:#FFFAFB;}
</style>
<g>
	<polygon class="st0" points="127.5,0 245,59.3 245,177.8 127.5,237 10,177.8 10,59.3 	"/>
	<path class="st1" d="M224,173.7l-92.6,46.7V184l57.7-28.3L224,173.7z M230.4,168.6V70.9l-33.9,17.4v62.8L230.4,168.6z M30.6,173.7
		l92.6,46.7V184l-57.7-28.3L30.6,173.7L30.6,173.7z M24.3,168.6V70.9l33.9,17.4v62.8L24.3,168.6L24.3,168.6z M28.2,64.6l95-47.9
		v35.2L62.4,81.7l-0.5,0.2L28.2,64.6L28.2,64.6z M226.4,64.6l-95-47.9v35.2l60.8,29.9l0.5,0.2L226.4,64.6L226.4,64.6z"/>
	<path class="st2" d="M123.2,175.8l-56.9-27.9V92.5l56.9,29.3V175.8L123.2,175.8z M131.4,175.8l56.9-27.9V92.5l-56.9,29.3V175.8z
		 M70.1,86.1l57.2-28l57.2,28l-57.2,29.4L70.1,86.1L70.1,86.1z"/>
</g>
<g>
	<g>
		<g class="st3">
			<path class="st4" d="M17.3,295.1c-1.4,0-2.6-1-2.9-2.3L1.6,240.4c-0.2-0.9,0-1.8,0.6-2.6c0.6-0.7,1.4-1.1,2.4-1.1
				c0,0,40.5,0.3,40.5,0.3l30.7,0.2c0.9,0,1.8,0.4,2.4,1.2c0.6,0.7,0.7,1.7,0.5,2.6L64,293.3c-0.4,1.3-1.5,2.2-2.9,2.2
				C61.1,295.5,17.3,295.1,17.3,295.1z"/>
			<path class="st4" d="M75.7,296.2c-7.6-0.1-14.1-2.5-18.9-6.8c-5-4.7-7.8-11.3-7.8-18.6c0.1-12.3,9.2-25.4,25.9-25.4h0.2
				c14.5,0.1,24.6,10.6,24.5,25.5c0,2.1-0.3,4.6-0.8,6.4l-0.7,2.5l1.4,7.5c0.3,1.4-0.5,2.8-1.9,3.3l-7.7,3
				c-4.4,1.7-8.9,2.5-13.9,2.5H75.7z"/>
			<path class="st4" d="M105.9,296.4c-1.8,0-3.5-0.2-5.3-0.6l-21.1-0.2c-0.8,0-1.6-0.4-2.2-1c-0.6-0.6-0.8-1.4-0.8-2.3l0.9-10.8
				c0.1-0.8,0.2-3.4,0.2-6.5l0.3-36.9c0-1.6,1.4-3,3-3c0,0,29.1,0.2,29.1,0.2c0.8,0,1.6,0.3,2.1,0.9c0.6,0.6,0.9,1.3,0.9,2.1
				l-0.1,7.8c4.2,1,8,3.2,11,6.3c4.5,4.6,7,11.2,6.8,18.3c-0.1,16.2-12.4,25.1-24.2,25.4C106.5,296.4,106.2,296.4,105.9,296.4z"/>
			<path class="st4" d="M122.4,296c-1.7,0-3-1.4-3-3l0.4-50.5c0-1.5,1.1-2.7,2.6-2.9l8.5-1.2c3.4-0.5,7.4-0.7,12.6-0.7h1.2
				c7.5,0.1,13.5,1.9,18.1,5.2c5.9,4.1,9.3,11.1,9.2,18.7c0,7-2.9,13.5-7.9,17.7c-2.7,2.3-5.9,4-9.6,5.1l-0.1,9.1
				c0,0.8-0.3,1.6-0.9,2.1c-0.6,0.6-1.3,0.9-2.1,0.9C151.4,296.3,122.4,296,122.4,296z"/>
			<path class="st4" d="M169.1,296.9c-5.7-0.1-11-2.2-15-6c-4-3.9-6.2-9.1-6.1-14.6c0-3.6,0.9-7.2,2.7-10.3l-2.5-9.1
				c-0.4-1.4,0.3-2.8,1.5-3.4l7.1-3.7c2.6-1.4,8.2-3.6,16.1-3.6h0.3c7.5,0.1,13.5,2.4,17.8,6.7c4.3,4.3,6.6,10.2,6.6,16.9l-0.1,7.9
				c0,1.2,0,2.2,0.1,2.9c0,0.2,0,0.4,0,0.5l2.6,11.8c0.2,0.9,0,1.8-0.6,2.5c-0.6,0.7-1.4,1.1-2.3,1.1c0,0-22.8-0.2-22.8-0.2
				c-1.6,0.3-3,0.5-4.6,0.5C169.6,296.9,169.4,296.9,169.1,296.9C169.1,296.9,169.1,296.9,169.1,296.9z"/>
			<path class="st4" d="M202.4,297.1c-7.4-0.1-13.8-2.5-18.6-6.8c-5.1-4.7-7.9-11.3-7.8-18.7c0.1-12.6,9.6-25.4,27.5-25.4h0.3
				c2,0,6,0.2,10.1,1.5l8.5,2.8c1.5,0.5,2.3,2,2,3.5l-3.4,16.1l2.8,18.4c0.2,1.3-0.5,2.6-1.7,3.2l-6.9,3.1c-3,1.4-7.1,2.1-12,2.2
				l-0.2,0C202.8,297.1,202.6,297.1,202.4,297.1C202.4,297.1,202.4,297.1,202.4,297.1z"/>
			<path class="st4" d="M203.8,296.6c-0.8,0-1.6-0.3-2.1-0.9c-0.6-0.6-0.9-1.3-0.9-2.1l0.4-54.4c0-1.6,1.4-3,3-3
				c0,0,29.1,0.2,29.1,0.2c0.8,0,1.6,0.3,2.1,0.9c0.6,0.6,0.9,1.3,0.9,2.1l-0.1,7.8l27.8,0.2c1.2,0,2.3,0.7,2.7,1.8
				c0.5,1.1,0.2,2.4-0.6,3.3l-17.8,18.3l15.7,21.5c0.7,0.9,0.8,2.1,0.3,3.1c-0.5,1-1.5,1.6-2.7,1.6
				C261.6,297,203.8,296.6,203.8,296.6z"/>
		</g>
		<g>
			<g class="st3">
				<path class="st4" d="M43.5,291.3c-1.4,0-2.8-0.4-4-1c-1.2,0.6-2.6,0.9-3.9,0.9l-10.4-0.1c-4.1,0-7.6-2.8-8.7-6.8l-7.9-32.4
					c-0.6-2.7,0-5.6,1.7-7.7c1.7-2.1,4.4-3.4,7.1-3.4l9.9,0.1c1.4,0,2.8,0.3,4.1,1c1.2-0.6,2.6-1,4-1l10.4,0.1
					c1.3,0,2.7,0.3,3.9,0.9c1.2-0.5,2.4-0.8,3.7-0.8l9.4,0.1c2.7,0,5.3,1.3,7.1,3.5c1.8,2.2,2.3,5.1,1.5,7.9l-9.1,32.3
					c-1,3.9-4.6,6.6-8.7,6.6C53.5,291.4,43.5,291.3,43.5,291.3z"/>
				<path class="st4" d="M75.7,292.2c-6.5,0-12.1-2-16.2-5.8c-4.2-3.8-6.5-9.4-6.5-15.6c0.1-10.4,7.8-21.4,21.9-21.4h0.2
					c12,0.1,20.6,9.1,20.5,21.4c0,0.8-0.1,3.5-0.8,5.6c-0.2,0.8-0.6,1.5-1,2.3l0.2,1.2c0.8,4.3-1.5,8.4-5.5,10.1
					c-3.9,1.5-8,2.2-12.5,2.2H75.7z"/>
				<path class="st4" d="M105.9,292.4c-1.8,0-3.7-0.3-5.6-0.8c-0.7,0.2-1.4,0.2-2.2,0.2l-7.7-0.1c-2.5,0-5-1.1-6.6-3
					c-1.7-1.9-2.5-4.4-2.2-6.9c0.1-0.6,0.2-3.3,0.2-6.6l0.2-26.9c0-4.9,4-9,9-9l9.1,0.1c2.3,0,4.6,1,6.3,2.7c1.6,1.6,2.6,4,2.6,6.4
					v1.3c4.6,0.4,8.9,2.3,12.2,5.6c3.9,4,5.9,9.4,5.8,15.6c-0.1,13.9-10.9,21.4-20.9,21.4H105.9z"/>
				<path class="st4" d="M136.9,292c-2.3,0-4.6,0-4.6,0c-2.3,0-4.6-1-6.3-2.7c-1.6-1.6-2.6-4-2.6-6.4l0.2-31.9
					c0-4.4,3.3-8.2,7.7-8.9c3.2-0.5,7-0.7,12-0.7h1.1c6.5,0,11.8,1.5,15.8,4.4c4.7,3.3,7.6,9.2,7.5,15.4c0,5.7-2.3,11.1-6.3,14.6
					c-3,2.6-6.7,4.3-11.1,5.1v2.2c0,2.3-1,4.6-2.7,6.3c-1.6,1.6-3.7,2.5-6,2.6C140.7,292,139.3,292,136.9,292z"/>
				<path class="st4" d="M169.1,292.9c-9.6-0.1-17.2-7.4-17.2-16.6c0-1.7,0.3-5.8,3-9.7l-0.8-3.1c-1.1-4.1,0.8-8.4,4.5-10.3
					c2.9-1.4,7.7-3.1,14.3-3.1h0.3c6.2,0,11.4,1.9,15.1,5.4c2,1.9,5.4,6.3,5.4,14.1l-0.1,7.9c0,2.3,0.1,3.5,0.1,3.8c0,0,0,0,0,0
					c0.6,2.6,0,5.2-1.7,7.5c-1.7,2.2-4.3,3.4-7.1,3.4c0,0-8.2-0.1-8.2-0.1c-0.6,0-1.2-0.1-1.8-0.2c-1.4,0.4-3,0.6-4.6,0.7
					C169.9,292.8,169.5,292.9,169.1,292.9C169.1,292.9,169.1,292.9,169.1,292.9z"/>
				<path class="st4" d="M202.5,293.1c-6.3,0-11.8-2-15.9-5.8c-4.3-3.9-6.6-9.5-6.5-15.7c0.1-10.3,7.5-21.3,23.5-21.3h0.2
					c2.2,0,5.6,0.2,8.9,1.4c4.3,1.5,6.9,5.9,6,10.3l-1.4,6.6c-0.2,1-0.6,1.9-1.1,2.7c0.7,1.1,1.3,2.3,1.5,3.7l1,6.6
					c0.6,4.1-1.5,8-5.3,9.6c-2.8,1.2-6.4,1.9-10.7,1.9H202.5z"/>
				<path class="st4" d="M230.3,292.8c-1.3,0-2.5-0.3-3.7-0.8c-1.1,0.5-2.3,0.7-3.6,0.7l-9.1-0.1c-2.3,0-4.6-1-6.3-2.7
					c-1.6-1.6-2.6-4-2.6-6.4l0.3-34.4c0-4.9,4-9,9-9l9.1,0.1c2.3,0,4.6,1,6.3,2.7c1.6,1.6,2.6,4,2.6,6.4v1.8l8.3,0.1
					c3.6,0,6.9,2.2,8.3,5.6c1.4,3.3,0.6,7.2-2,9.8l-3.8,3.9l5.9,8.1c2,2.7,2.3,6.4,0.8,9.4c-1.5,3-4.6,5-8,5
					C241.7,292.9,230.3,292.8,230.3,292.8z"/>
			</g>
			<g>
				<path class="st5" d="M43.5,285.3c-1.5,0-2.7-1.1-2.9-2.5l-0.9-5.8l-1.2,5.8c-0.3,1.4-1.5,2.4-2.9,2.4H25.2
					c-1.4,0-2.6-0.9-2.9-2.3l-7.9-32.4c-0.2-0.9,0-1.9,0.6-2.6c0.6-0.7,1.4-1.1,2.3-1.1c0,0,9.8,0.1,9.8,0.1c1.5,0,2.7,1.1,2.9,2.5
					l1,6.2l1.2-6.3c0.3-1.4,1.5-2.5,2.9-2.5c0,0,10.4,0.1,10.4,0.1c1.5,0,2.7,1.1,2.9,2.5l0.8,5l1-5.2c0.3-1.4,1.5-2.4,2.9-2.4
					c0,0,9.3,0.1,9.3,0.1c0.9,0,1.8,0.5,2.4,1.2c0.6,0.7,0.7,1.7,0.5,2.6l-9.1,32.3c-0.4,1.3-1.5,2.2-2.9,2.2
					C53.5,285.4,43.5,285.3,43.5,285.3z"/>
				<path class="st5" d="M75.8,286.3c-5.4-0.1-9.8-1.7-12.7-4.7c-2.6-2.7-4-6.4-3.9-10.6c0-5.9,4.3-15.4,15.9-15.4l0.2,0
					c10.1,0.1,14.6,7.8,14.6,15.4c0,1.3-0.2,3.2-0.6,4.2c-0.3,0.8-0.9,1.4-1.7,1.7l0.8,4.3c0.3,1.4-0.5,2.8-1.8,3.3
					C82.5,286.1,78.7,286.3,75.8,286.3C75.8,286.3,75.8,286.3,75.8,286.3z"/>
				<path class="st5" d="M105.8,286.4c-2.1,0-4.1-0.5-5.8-1.4c-0.5,0.5-1.3,0.8-2,0.8c0,0-7.5-0.1-7.5-0.1c-0.8,0-1.6-0.4-2.2-1
					c-0.6-0.6-0.8-1.4-0.8-2.3c0.1-1.1,0.2-4.2,0.2-7.2l0.2-26.9c0-0.8,0.3-1.6,0.9-2.1c0.6-0.6,1.3-0.9,2.1-0.9
					c0,0,9.1,0.1,9.1,0.1c1.7,0,3,1.4,3,3l-0.1,7.8c1.4-0.4,2.9-0.6,4.5-0.6c3.7,0,7,1.4,9.5,3.9c2.7,2.8,4.1,6.7,4,11.3
					c-0.1,10.2-7.5,15.5-14.8,15.5L105.8,286.4z M102.8,272.6c0.1,0.3,0.5,0.8,1,0.8c0.7,0,1.7,0,1.7-2.4c0-2.6-1.2-2.6-1.7-2.6
					c-0.5,0-1,0.4-1,0.9c0,0.1,0,0.2-0.1,0.3c0,0,0,0.1,0,0.3l0.1,1.9c0,0,0,0.1,0,0.1V272.6z"/>
				<path class="st5" d="M132.6,286c-1.6,0-3-1.4-3-3l0.1-31.9c0-1.5,1.1-2.7,2.5-3c2.8-0.4,6.1-0.7,10.2-0.7c0.7,0,1.4,0,2.2,0
					c0,0,0,0,0,0c5.1,0,9.3,1.1,12.2,3.3c3.2,2.3,5.1,6.2,5.1,10.4c0,4.1-1.5,7.8-4.2,10.1c-3.2,2.7-7.5,4.1-13.1,4.2l-0.1,7.6
					c0,0.8-0.3,1.6-0.9,2.1c-0.6,0.5-1.3,0.9-2.1,0.9C141.6,286.1,132.6,286,132.6,286z M144.6,262.6c1.2-0.1,2.4-0.4,2.4-1.5
					c0-0.3,0-0.9-2.3-0.9c0,0,0,0,0,0L144.6,262.6z"/>
				<path class="st5" d="M169.1,286.9c-7.2,0-11.1-5.4-11.1-10.5c0-2,0.5-5.5,3.7-8.3c-0.1-0.2-0.1-0.3-0.2-0.5L160,262
					c-0.4-1.3,0.3-2.8,1.5-3.4c1.4-0.7,5.3-2.5,11.2-2.5c0.2,0,0.4,0,0.6,0c9.2,0.1,14.4,5,14.4,13.5l-0.1,7.9
					c0,2.9,0.1,4.7,0.3,5.3c0.2,0.9-0.1,1.8-0.6,2.5c-0.6,0.7-1.4,1.1-2.3,1.1h-8.1c-0.7,0-1.3-0.2-1.8-0.6
					c-1.6,0.7-3.4,1.1-5.3,1.1C169.5,286.9,169.3,286.9,169.1,286.9z"/>
				<path class="st5" d="M203.6,287.1c-0.4,0-0.8,0-1.2,0c-9.9-0.1-16.4-6.1-16.4-15.3c0.1-7.7,5.6-15.5,17.7-15.5
					c1.5,0,4.3,0.1,7,1.1c1.4,0.5,2.3,2,2,3.5l-1.4,6.6c-0.2,0.9-0.8,1.6-1.6,2c-0.4,0.2-0.9,0.3-1.4,0.3c-0.4,0-0.8-0.1-1.2-0.3
					c-0.7-0.3-1.7-0.4-3-0.4c-1.4,0-2.9,0.6-2.9,2.4c0,0.6,0,2.6,3.1,2.6c1.4,0,2.5-0.1,3.4-0.4c0.3-0.1,0.6-0.2,0.9-0.2
					c0.5,0,1.1,0.1,1.5,0.4c0.8,0.5,1.3,1.2,1.4,2.1l1.1,6.6c0.2,1.3-0.5,2.6-1.7,3.2C209.2,286.7,206.7,287.1,203.6,287.1z"/>
				<path class="st5" d="M230.3,286.8c-1.1,0-2-0.6-2.6-1.5l-1.8-3l0,1.6c0,1.6-1.4,3-3,3c0,0-9.1-0.1-9.1-0.1c-1.7,0-3-1.4-3-3
					l0.3-34.4c0-0.8,0.3-1.6,0.9-2.1c0.6-0.5,1.3-0.9,2.1-0.9c0,0,9.1,0.1,9.1,0.1c1.6,0,3,1.4,3,3l-0.1,10.1l0.6-1
					c0.6-0.8,1.5-1.4,2.5-1.4c0,0,11.1,0.1,11.1,0.1c1.2,0,2.3,0.7,2.7,1.8s0.2,2.4-0.6,3.2l-7.3,7.5l8.9,12.3
					c0.7,0.9,0.8,2.1,0.2,3.1c-0.5,1-1.5,1.6-2.7,1.6C241.7,286.9,230.3,286.8,230.3,286.8z"/>
			</g>
		</g>
	</g>
	<g>
		<g class="st3">
			<polygon class="st6" points="17.3,292.1 4.5,239.7 45,240 75.7,240.2 61.1,292.5 			"/>
			<path class="st6" d="M75.7,293.2c-6.8-0.1-12.6-2.1-16.9-6c-4.4-4.1-6.8-9.9-6.8-16.4c0.1-10.8,8.1-22.4,22.9-22.4h0.2
				c12.8,0.1,21.6,9.3,21.5,22.5c0,2-0.3,4.2-0.7,5.7l-0.9,3.1l1.5,8.2l-7.7,3c-3.9,1.5-8,2.3-12.8,2.3L75.7,293.2z"/>
			<path class="st6" d="M105.9,293.4c-1.7,0-3.3-0.2-4.9-0.6l-21.4-0.2l0.9-10.8c0.1-0.9,0.2-3.7,0.2-6.7l0.3-36.9l29.1,0.2
				l-0.1,10.3c4.6,0.6,8.7,2.6,11.9,5.9c4,4.1,6.1,9.8,6,16.2c-0.1,14.6-11.4,22.5-21.9,22.5h-0.1V293.4z"/>
			<path class="st6" d="M122.4,293l0.4-50.5l8.5-1.2c3.4-0.5,7.4-0.7,12.2-0.7h1.2c6.7,0.1,12.2,1.6,16.3,4.6
				c5.1,3.6,8.1,9.7,8,16.2c0,6.2-2.5,11.8-6.8,15.4c-2.9,2.5-6.5,4.2-10.7,5.1l-0.1,11.4L122.4,293z"/>
			<path class="st6" d="M169.1,293.9c-10.2-0.1-18.2-7.8-18.1-17.6c0-3.4,0.9-6.8,2.9-9.9l-2.8-10.3l7.1-3.7
				c2.3-1.2,7.4-3.3,14.7-3.3h0.3c6.6,0.1,11.9,2,15.7,5.8c2.6,2.6,5.7,7.2,5.7,14.8l-0.1,7.9c0,2,0.1,3.3,0.1,3.8l2.7,12.1
				l-23.1-0.2c-1.5,0.3-3.1,0.5-5,0.5h-0.1V293.9z M171.8,275.1L171.8,275.1z"/>
			<path class="st6" d="M202.4,294.1c-6.6-0.1-12.3-2.1-16.6-6c-4.5-4.1-6.9-9.9-6.8-16.4c0.1-11.1,8.5-22.4,24.5-22.4h0.3
				c2.3,0,5.8,0.3,9.2,1.4l8.5,2.8l-3.5,16.6l2.9,18.9l-6.9,3.1c-2.8,1.3-6.6,1.9-11.1,1.9L202.4,294.1z"/>
			<polygon class="st6" points="203.8,293.6 204.2,239.2 233.3,239.4 233.2,250.2 264,250.4 244.4,270.5 261.6,294 			"/>
		</g>
		<g>
			<g class="st3">
				<path class="st7" d="M43.5,288.3c-1.5,0-2.9-0.6-4-1.6c-1.1,0.9-2.5,1.5-4,1.5l-10.4-0.1c-2.7,0-5.1-1.9-5.8-4.6l-7.9-32.4
					c-0.4-1.8,0-3.7,1.1-5.1c1.1-1.4,2.9-2.3,4.7-2.3l9.9,0.1c1.6,0,3,0.6,4.1,1.6c1.1-1,2.5-1.6,4-1.6l10.4,0.1
					c1.4,0,2.8,0.5,3.8,1.4c1-0.8,2.4-1.3,3.8-1.3l9.4,0.1c1.9,0,3.6,0.9,4.8,2.4s1.5,3.4,1,5.2L59.3,284c-0.7,2.6-3.1,4.4-5.8,4.4
					L43.5,288.3z"/>
				<path class="st7" d="M75.7,289.2c-5.8,0-10.7-1.8-14.2-5c-3.6-3.3-5.5-8-5.5-13.4c0.1-8.9,6.7-18.4,18.9-18.4h0.2
					c10.4,0.1,17.6,7.7,17.5,18.4c0,1.6-0.2,3.5-0.6,4.7c-0.3,1-0.8,1.8-1.4,2.5l0.5,2.5c0.5,2.8-1,5.6-3.7,6.7
					c-3.4,1.3-7.1,2-11.4,2L75.7,289.2z"/>
				<path class="st7" d="M105.9,289.4c-2,0-3.9-0.4-5.6-1c-0.7,0.3-1.4,0.4-2.2,0.4l-7.7-0.1c-1.7,0-3.3-0.7-4.4-2
					c-1.1-1.2-1.7-2.9-1.5-4.5c0.1-0.9,0.2-3.8,0.2-7l0.2-26.9c0-3.3,2.7-6,6-6l9.1,0.1c1.6,0,3.1,0.7,4.2,1.8s1.7,2.7,1.7,4.3v4.2
					c0.4,0,0.9,0,1.3,0h0.2c4.5,0,8.6,1.8,11.6,4.8c3.3,3.4,5,8,4.9,13.4C123.8,283,114.8,289.4,105.9,289.4
					C106,289.4,105.9,289.4,105.9,289.4z M102.6,271.4L102.6,271.4z M102.6,270.4L102.6,270.4z"/>
				<path class="st7" d="M132.4,289c-1.6,0-3.1-0.7-4.2-1.8s-1.7-2.7-1.7-4.3l0.2-31.9c0-3,2.2-5.5,5.1-5.9c3.2-0.5,7-0.7,11.6-0.7
					h1.1c5.9,0,10.6,1.3,14,3.8c4,2.8,6.4,7.7,6.3,12.9c0,5-2,9.5-5.3,12.4c-3.1,2.7-7.2,4.3-12.1,4.7v4.8c0,1.6-0.7,3.1-1.8,4.2
					s-2.6,1.7-4.2,1.7C141.5,289.1,132.4,289,132.4,289z"/>
				<path class="st7" d="M169.1,289.9c-8-0.1-14.2-6-14.2-13.6c0-1.8,0.4-5.7,3.3-9l-1.2-4.5c-0.7-2.7,0.5-5.6,3-6.9
					c2-1,6.4-2.8,12.9-2.8h0.3c5.5,0,9.9,1.6,13,4.6c2.1,2,4.5,5.8,4.5,11.9l-0.1,7.9c0,2.6,0.1,4.2,0.2,4.5
					c0.4,1.8-0.1,3.6-1.2,5.1c-1.1,1.4-2.9,2.2-4.7,2.2l-8.2-0.1c-0.7,0-1.3-0.1-1.9-0.3c-1.5,0.5-3.4,0.8-5.5,0.8h-0.2V289.9z
					 M173.9,278.9L173.9,278.9z"/>
				<path class="st7" d="M202.5,290.1c-5.6,0-10.4-1.8-13.9-5c-3.6-3.3-5.6-8.1-5.5-13.4c0.1-8.9,6.5-18.4,20.5-18.4h0.2
					c2,0,5,0.2,7.9,1.2s4.6,4,4,6.9l-1.4,6.6c-0.3,1.4-1.1,2.6-2.2,3.5c1.4,0.9,2.3,2.4,2.6,4.1l1,6.5c0.4,2.7-1,5.3-3.5,6.4
					c-2.3,1-5.5,1.6-9.5,1.6L202.5,290.1z"/>
				<path class="st7" d="M230.3,289.8c-1.4,0-2.6-0.5-3.7-1.3c-1,0.8-2.3,1.2-3.6,1.2l-9.1-0.1c-1.6,0-3.1-0.7-4.2-1.8
					s-1.7-2.7-1.7-4.3l0.3-34.4c0-3.3,2.7-6,6-6l9.1,0.1c1.6,0,3.1,0.7,4.2,1.8c1.1,1.1,1.7,2.7,1.7,4.3v4.8l11.3,0.1
					c2.4,0,4.6,1.5,5.5,3.7c0.9,2.2,0.4,4.8-1.3,6.5l-5.6,5.7l7.4,10.2c1.3,1.8,1.5,4.3,0.5,6.3s-3.1,3.3-5.3,3.3
					C241.7,289.9,230.3,289.8,230.3,289.8z"/>
			</g>
			<g>
				<path d="M25.2,282.2l-7.9-32.4l9.8,0.1l2,12.1c0.6,3.8,1.3,8.3,1.8,11.4H31c0.6-3.5,1.3-7.5,2-11.6l2.2-11.9l10.4,0.1l2,12.7
					c0.6,3.8,1,7,1.4,10.5h0.1c0.5-3.5,1.2-7.4,1.9-11.3l2.3-11.9l9.3,0.1l-9.1,32.3l-10-0.1l-2.3-14.1c-0.5-2.8-0.9-5.6-1.2-9.4
					h-0.1c-0.6,3.7-1,6.6-1.6,9.4l-2.8,14L25.2,282.2z"/>
				<path d="M70.6,273.8c0.3,1.8,3.3,2.8,6.5,2.8c2.4,0,4.6-0.2,7.1-0.9l1.1,6c-3.2,1.3-6.4,1.6-9.5,1.6C67,283.2,62,278.4,62.1,271
					c0-4.7,3.3-12.5,13.1-12.4c8.4,0.1,11.6,6.4,11.6,12.4c0,1.2-0.2,2.6-0.4,3.1L70.6,273.8z M78.3,267.7c0-1.1-0.7-3.6-3.7-3.6
					c-2.8,0-3.9,2.2-4.1,3.5L78.3,267.7z"/>
				<path d="M90.5,282.7c0.1-1.2,0.2-4.4,0.2-7.4l0.2-26.9l9.1,0.1l-0.1,13.2h0.1c1.5-1.9,4.1-3,7.4-3c5.8,0,10.7,4.4,10.5,12.1
					c-0.1,8.6-6.2,12.7-12,12.6c-2.7,0-5.8-1.1-7.4-3.8h-0.1l-0.4,3.2L90.5,282.7z M99.8,271.9c0,0.4,0,0.7,0,1.1
					c0.3,1.7,1.9,3.4,4,3.4c2.8,0,4.7-1.8,4.7-5.4c0-3-1.4-5.6-4.7-5.6c-2,0-3.7,1.5-4,3.4c-0.1,0.4-0.1,0.7-0.1,1.1L99.8,271.9z"/>
				<path d="M132.7,251.1c2.5-0.4,6.2-0.7,11.9-0.6c4.8,0,8.2,1,10.5,2.7c2.2,1.6,3.9,4.5,3.9,8c0,3.1-1.1,6-3.2,7.8
					c-2.8,2.4-6.7,3.5-11.7,3.5c-1,0-1.9-0.1-2.4-0.2l-0.1,10.8l-9-0.1L132.7,251.1z M141.6,265.4c0.5,0.1,1.2,0.2,2.4,0.2
					c3.5,0,6-1.5,6-4.5c0-2.4-1.7-3.9-5.3-3.9c-1.5,0-2.5,0.1-3,0.2L141.6,265.4z"/>
				<path d="M176.8,283.4l-0.5-2h-0.2c-1.7,1.9-4.2,2.6-6.9,2.5c-5.2,0-8.2-3.7-8.2-7.5c0-6.3,5.7-9.2,14.7-9.2v-0.1
					c0-0.9-0.6-1.9-4.1-2c-2.6,0-5.6,1-7.2,1.8l-1.5-5.7c1.5-0.8,5.1-2.2,10.3-2.1c8.1,0.1,11.5,4.2,11.5,10.5l-0.1,7.9
					c0,2.5,0.1,4.8,0.3,5.9L176.8,283.4z M175.9,272.7c-4,0-5.9,1-5.9,2.9c0,1.3,0.9,2.1,2.6,2.1c1.4,0,2.8-1,3.2-2.4
					c0.1-0.4,0.1-0.9,0.1-1.3L175.9,272.7z"/>
				<path d="M209.8,283.1c-1.7,0.8-4.4,1.1-7.3,1c-8.4-0.1-13.5-4.9-13.5-12.3c0.1-6.5,4.7-12.5,14.7-12.5c1.7,0,4,0.2,6.1,0.9
					l-1.4,6.6c-0.9-0.4-2.2-0.7-4.2-0.7c-3.4,0-5.9,2.2-5.9,5.4c0,3.9,2.9,5.6,6.1,5.6c1.7,0,3.1-0.2,4.3-0.6L209.8,283.1z"/>
				<path d="M223.1,269.6L223.1,269.6c0.7-0.9,1.2-1.8,1.8-2.7l4.4-6.7l11.1,0.1l-9.1,9.3l10.4,14.3l-11.4-0.1l-5.3-9l-2,2.4
					l-0.1,6.6l-9.1-0.1l0.3-34.4l9.1,0.1L223.1,269.6z"/>
			</g>
		</g>
	</g>
</g>
</svg>
