<?xml version="1.0" encoding="utf-8"?>
<!-- Generator: Adobe Illustrator 22.0.1, SVG Export Plug-In . SVG Version: 6.00 Build 0)  -->
<svg version="1.1" id="Layer_1" xmlns="http://www.w3.org/2000/svg" xmlns:xlink="http://www.w3.org/1999/xlink" x="0px" y="0px"
	 viewBox="0 0 256 276" style="enable-background:new 0 0 256 276;" xml:space="preserve">
<style type="text/css">
	.st0{fill:#E0565B;}
	.st1{display:none;}
	.st2{display:inline;fill:#FFFFFF;}
	.st3{fill:#FFFFFF;}
</style>
<g>
	<path class="st0" d="M227,160.3c-1.7,10.3-10.4,19.2-22.6,23.1c-6,2-12.4,2.6-18.9,2c-6.2-0.6-12.4-2.2-18.9-5.1
		c-8.9-4-17.9-10.1-28.3-19.2c16.4-16,26.3-30.6,30-43.7c1.7-6.1,2-11.7,1.2-16.8c-1-4.9-3.2-9.5-6.7-13.4c-7.7-8.9-20.6-14-35-14
		s-27.3,5.3-35,14c-3.5,4-5.7,8.5-6.7,13.4c-1,5.1-0.7,10.9,1.2,16.8c3.7,13,13.9,27.8,30,43.8c-10.2,9.1-19.4,15.2-28.3,19.2
		c-6.5,3-12.7,4.5-18.9,5.1c-6.7,0.6-13.2-0.2-18.9-2c-12.2-4-20.8-12.8-22.6-23.1c-0.7-4.9-0.2-9.9,2.2-15.4c0.7-2,2-3.9,3.2-6.3
		c1.7-3.2,3.7-6.5,5.7-9.9l0.3-0.4C57.5,99.1,75.9,69,95,39.8l0.7-1.2c2-3,4-6.1,6-9.1c2-3.2,4.2-6.1,6.9-8.7
		c5.2-4.7,12.2-7.3,19.9-7.3s14.6,2.6,19.9,7.3c2.7,2.6,5,5.5,7,8.7c2,3,4,6.1,6,9.1l0.7,1.2c18.9,29.4,37.2,59.5,54.4,88.9v0.2
		c2,3.2,3.7,6.7,5.7,9.9c1.2,2.4,2.5,4.3,3.2,6.3C227.3,150.2,228,155.2,227,160.3L227,160.3z M128,151
		c-13.4-13.4-22.1-26.1-25.1-36.7c-1.2-4.5-1.5-8.5-0.7-12.1c0.5-3.2,2-5.9,4-8.3c4.7-5.3,12.7-8.7,21.8-8.7s17.4,3.2,21.8,8.7
		c2,2.4,3.5,5.1,4,8.3c0.7,3.6,0.5,7.7-0.7,12.1C150.1,124.7,141.4,137.4,128,151L128,151z M239.9,140.7c-1.2-2.4-2.5-4.9-3.7-7.1
		c-2-3.6-4-6.9-5.7-10.1l-0.2-0.2c-17.1-29.6-35.5-59.7-54.9-89.3l-0.7-1.2c-2-3-4-6.1-6-9.3c-2.5-3.6-5-7.3-8.9-10.9
		c-7.9-7.9-19.4-12.2-31.5-12.2c-12.4,0-23.6,4.3-31.8,11.9c-3.7,3.6-6.5,7.3-8.9,10.9c-2,3.2-4,6.3-6,9.3l-0.7,1.2
		C61.7,63.3,43.1,93.3,26,123l-0.2,0.4c-1.7,3.2-3.7,6.5-5.7,10.1c-1.2,2.2-2.5,4.5-3.7,7.1c-3.2,7.3-4.2,14.2-3,21.3
		c2.7,14.8,15.1,27.3,32.3,32.8c6.5,2.2,13.2,3.2,20.1,3.2c2,0,4.5-0.2,6.5-0.4c8.2-0.8,16.6-3,24.8-6.7
		c10.2-4.5,19.9-11.1,30.8-20.5c10.9,9.5,20.8,16,30.8,20.5c8.2,3.8,16.6,5.9,24.8,6.7c2,0.2,4.5,0.4,6.5,0.4c7,0,13.9-1,20.1-3.2
		c17.4-5.5,29.5-18.2,32.3-32.8C244.2,155,243.2,148,239.9,140.7L239.9,140.7z"/>
</g>
<g>
	<g>
		<g class="st1">
			<path class="st2" d="M74.3,265c-0.6,0-1.3-0.2-1.8-0.6l-5.3-3.9l-5,3.9c-0.5,0.4-1.2,0.6-1.8,0.6h-9.6c-1,0-1.9-0.5-2.4-1.2
				l-6.7-9.1c-0.6-0.8-0.7-1.8-0.4-2.7l10.2-32.4c0.2-0.6,0.6-1.1,1.1-1.5l6.7-4.9c0.5-0.4,1.1-0.6,1.8-0.6h12.4
				c0.6,0,1.2,0.2,1.8,0.6l6.6,4.8c0.5,0.4,0.9,0.9,1.1,1.5l10.9,32.4c0.3,0.9,0.2,1.9-0.4,2.7l-6.6,9.2c-0.6,0.8-1.5,1.3-2.4,1.3
				H74.3z"/>
			<path class="st2" d="M88.1,265c-0.8,0-1.6-0.3-2.1-0.9l-7-7c-0.6-0.6-0.9-1.3-0.9-2.1v-23.6c0-0.7,0.2-1.4,0.7-1.9
				c-0.5-1.5-0.8-3.1-0.8-4.7c0-8.1,6.3-14.2,14.7-14.2c8.2,0,14.5,6,14.7,14l0,0.2c0,1.6-0.3,3.3-0.8,4.7c0.4,0.5,0.6,1.2,0.6,1.9
				V255c0,0.8-0.3,1.6-0.9,2.1l-7,7c-0.6,0.6-1.3,0.9-2.1,0.9H88.1z"/>
			<path class="st2" d="M102.9,265c-0.8,0-1.6-0.3-2.1-0.9l-7-7c-0.6-0.6-0.9-1.3-0.9-2.1v-15.5c0-3.9,0-5.8-0.2-7.3
				c-0.1-0.8,0.2-1.7,0.8-2.3l7-7.5c0.6-0.6,1.4-1,2.2-1h7.7c0.6,0,1.1,0.2,1.6,0.5c1.9-0.7,3.8-1,5.8-1c1,0,2.2,0,3.9,0.4
				c0.7,0.1,1.3,0.5,1.7,1l5.5,6.8c0.4,0.5,0.7,1.2,0.7,1.9v8.4c0,0.9-0.4,1.8-1.1,2.3l-6.5,5.2v8.1c0,0.8-0.3,1.6-0.9,2.1l-7,7
				c-0.6,0.6-1.3,0.9-2.1,0.9H102.9z"/>
			<path class="st2" d="M138.6,265.6c-2.2,0-4.3-0.3-6.3-1c-0.5,0.3-1,0.4-1.5,0.4h-7.6c-0.8,0-1.6-0.3-2.2-1l-7-7.5
				c-0.6-0.6-0.9-1.4-0.8-2.3c0.1-0.7,0.2-3.4,0.2-6.7v-26.9c0-0.8,0.3-1.6,0.9-2.1l7-7c0.6-0.6,1.3-0.9,2.1-0.9h9.1
				c0.8,0,1.6,0.3,2.1,0.9l7,7c0.6,0.6,0.9,1.3,0.9,2.1v0.3c4.6,0.5,8.7,2.6,11.9,5.8c4.1,4.1,6.2,9.7,6.1,16.2
				c0,8.5-3.8,13.8-7,16.8C149.5,263.4,144.1,265.6,138.6,265.6z"/>
			<path class="st2" d="M170.7,265c-0.8,0-1.6-0.3-2.1-0.9l-1.2-1.2l-1.2,1.2c-0.6,0.6-1.3,0.9-2.1,0.9h-9.1c-0.8,0-1.6-0.3-2.1-0.9
				l-7-7c-0.6-0.6-0.9-1.3-0.9-2.1v-15.4c0-3.4-0.1-6-0.2-7.8c0-0.8,0.3-1.6,0.8-2.2l7-7.3c0.6-0.6,1.3-0.9,2.2-0.9h7.8
				c0.6,0,1.1,0.2,1.6,0.5c2-0.7,4.2-1,6.4-1c11.3,0,19.2,8.5,19.2,20.6V255c0,0.8-0.3,1.6-0.9,2.1l-7,7c-0.6,0.6-1.3,0.9-2.1,0.9
				H170.7z"/>
			<path class="st2" d="M200.8,265.6c-2.2,0-4.3-0.3-6.3-1c-0.5,0.3-1,0.4-1.5,0.4h-7.6c-0.8,0-1.6-0.3-2.2-1l-7-7.5
				c-0.6-0.6-0.9-1.4-0.8-2.3c0.1-0.7,0.2-3.4,0.2-6.7v-26.9c0-0.8,0.3-1.6,0.9-2.1l7-7c0.6-0.6,1.3-0.9,2.1-0.9h9.1
				c0.8,0,1.6,0.3,2.1,0.9l7,7c0.6,0.6,0.9,1.3,0.9,2.1v0.3c4.6,0.5,8.7,2.6,11.9,5.8c4.1,4.1,6.2,9.7,6.1,16.2
				c0,8.5-3.8,13.8-7,16.8C211.7,263.4,206.2,265.6,200.8,265.6z"/>
		</g>
		<g>
			<path class="st3" d="M74.3,258c-1.3,0-2.5-0.9-2.9-2.1l-1.8-5.7h-4.9l-1.5,5.6c-0.3,1.3-1.5,2.2-2.9,2.2h-9.6
				c-1,0-1.9-0.5-2.4-1.2c-0.6-0.8-0.7-1.8-0.4-2.7l10.2-32.4c0.4-1.2,1.6-2.1,2.9-2.1h12.4c1.3,0,2.4,0.8,2.8,2L87.2,254
				c0.3,0.9,0.2,1.9-0.4,2.7c-0.6,0.8-1.5,1.3-2.4,1.3H74.3z"/>
			<path class="st3" d="M88.1,258c-1.7,0-3-1.3-3-3v-23.6c0-1,0.5-1.9,1.2-2.4c-0.8-1.2-1.3-2.6-1.3-4.2c0-4.2,3.2-7.2,7.7-7.2
				c4.4,0,7.6,3,7.7,7.1c0,1.6-0.5,3.1-1.3,4.2c0.7,0.5,1.2,1.4,1.2,2.4V255c0,1.7-1.3,3-3,3H88.1z"/>
			<path class="st3" d="M102.9,258c-1.7,0-3-1.3-3-3v-15.5c0-4.1,0-6.2-0.2-7.9c-0.1-0.8,0.2-1.7,0.8-2.3s1.4-1,2.2-1h7.7
				c0.8,0,1.6,0.3,2.1,0.9c1.7-1,3.5-1.5,5.2-1.5c0.8,0,1.4,0,2.4,0.2c1.4,0.3,2.4,1.5,2.4,2.9v8.4c0,0.9-0.4,1.8-1.1,2.3
				c-0.5,0.4-1.2,0.7-1.9,0.7c-0.2,0-0.4,0-0.6-0.1c-0.6-0.1-1.1-0.2-1.8-0.2c-1.3,0-2,0.3-2.2,0.6c0,0.2,0,0.4,0,0.6V255
				c0,1.7-1.3,3-3,3H102.9z"/>
			<path class="st3" d="M138.6,258.6c-2.2,0-4.1-0.5-5.8-1.3c-0.5,0.5-1.2,0.8-2,0.8h-7.6c-0.8,0-1.6-0.3-2.2-1s-0.9-1.4-0.8-2.3
				c0.1-1.2,0.2-4.2,0.2-7.2v-26.9c0-1.7,1.3-3,3-3h9.1c1.7,0,3,1.3,3,3v7.8c1.4-0.4,2.9-0.7,4.4-0.7c3.7,0,7.1,1.4,9.5,3.9
				c2.7,2.8,4.1,6.6,4.1,11.2C153.5,253.2,146,258.6,138.6,258.6z M135.4,244.7c0.1,0.3,0.5,0.9,1.1,0.9c0.6,0,1.7,0,1.7-2.4
				c0-2.6-1.2-2.6-1.8-2.6c-0.5,0-0.9,0.4-1,0.9c0,0.1,0,0.3,0,0.7v2C135.4,244.4,135.4,244.6,135.4,244.7z"/>
			<path class="st3" d="M170.7,258c-1.7,0-3-1.3-3-3v-12.3c0-1-0.2-1.5-0.2-1.7c0,0-0.1,0-0.1,0c-0.1,0-0.1,0-0.2,0
				c0,0-0.1,0.1-0.2,0.3c0,0.1,0,0.4,0,0.5V255c0,1.7-1.3,3-3,3h-9.1c-1.7,0-3-1.3-3-3v-15.4c0-3.5-0.1-6.3-0.2-8.1
				c0-0.8,0.3-1.6,0.8-2.2c0.6-0.6,1.3-0.9,2.2-0.9h7.8c0.8,0,1.6,0.3,2.1,0.9c1.5-0.8,3.5-1.5,5.9-1.5c7.5,0,12.2,5.2,12.2,13.6
				V255c0,1.7-1.3,3-3,3H170.7z"/>
			<path class="st3" d="M200.8,258.6c-2.2,0-4.1-0.5-5.8-1.3c-0.5,0.5-1.2,0.8-2,0.8h-7.6c-0.8,0-1.6-0.3-2.2-1
				c-0.6-0.6-0.9-1.4-0.8-2.3c0.1-1.2,0.2-4.2,0.2-7.2v-26.9c0-1.7,1.3-3,3-3h9.1c1.7,0,3,1.3,3,3v7.8c1.4-0.4,2.9-0.7,4.4-0.7
				c3.7,0,7.1,1.4,9.5,3.9c2.7,2.8,4.1,6.6,4.1,11.2C215.6,253.2,208.2,258.6,200.8,258.6z M197.6,244.7c0.1,0.3,0.5,0.9,1.1,0.9
				c0.6,0,1.7,0,1.7-2.4c0-2.6-1.2-2.6-1.8-2.6c-0.5,0-0.9,0.4-1,0.9c0,0.1,0,0.3,0,0.7v2C197.6,244.4,197.6,244.6,197.6,244.7z"/>
		</g>
	</g>
	<g>
		<g class="st1">
			<polygon class="st2" points="74.3,262 67.6,257 67.3,256.2 67.2,256.8 60.4,262 50.9,262 44.2,252.9 54.4,220.5 61.1,215.6 
				73.5,215.6 80.1,220.4 91,252.8 84.4,262 			"/>
			<path class="st2" d="M88.1,262l-7-7v-23.6l1.2-1.2c-0.8-1.6-1.3-3.4-1.3-5.3c0-6.4,5-11.2,11.7-11.2c6.5,0,11.5,4.7,11.7,11
				l0,0.1c0,2-0.5,3.8-1.3,5.4l1.2,1.2V255l-7,7H88.1z"/>
			<path class="st2" d="M102.9,262l-7-7v-15.5c0-4,0-6-0.2-7.6l7-7.5h7.7l1,1c2.1-1,4.3-1.5,6.3-1.5c1,0,1.8,0,3.2,0.3l5.5,6.8v8.4
				l-7.6,6.1v9.5l-7,7H102.9z M116.8,246.1L116.8,246.1z"/>
			<path class="st2" d="M138.6,262.6c-2.5,0-4.8-0.5-6.9-1.4l-0.9,0.8h-7.6l-7-7.5c0.1-0.9,0.2-3.7,0.2-6.9v-26.9l7-7h9.1l7,7v3.2
				c0.1,0,0.3,0,0.4,0c4.8,0,9.1,1.8,12.4,5.1c3.5,3.5,5.3,8.4,5.2,14.1C157.5,255.7,147.8,262.6,138.6,262.6z M134.2,242.9
				L134.2,242.9z"/>
			<path class="st2" d="M170.7,262l-3.4-3.4L164,262h-9.1l-7-7v-15.4c0-3.4-0.1-6.1-0.2-7.9l7-7.3h7.8l1.1,0.9
				c1.9-0.9,4.2-1.5,7-1.5c9.7,0,16.2,7.1,16.2,17.6V255l-7,7H170.7z"/>
			<path class="st2" d="M200.8,262.6c-2.5,0-4.8-0.5-6.9-1.4l-0.9,0.8h-7.6l-7-7.5c0.1-0.9,0.2-3.7,0.2-6.9v-26.9l7-7h9.1l7,7v3.2
				c0.1,0,0.3,0,0.4,0c4.8,0,9.1,1.8,12.4,5.1c3.5,3.5,5.3,8.4,5.2,14.1C219.6,255.7,209.9,262.6,200.8,262.6z M196.3,243.4
				L196.3,243.4z M196.3,242.9L196.3,242.9z"/>
		</g>
		<g>
			<path d="M62.5,247.1l-2.1,7.9h-9.6l10.2-32.4h12.4L84.4,255H74.3l-2.4-7.9H62.5z M70.5,240.5l-1.7-5.7c-0.6-1.8-1.2-4.2-1.8-6
				h-0.1c-0.5,1.9-1,4.2-1.5,6.1l-1.5,5.7H70.5z"/>
			<path d="M97.3,224.8c0,2.3-1.7,4.2-4.7,4.2c-2.9,0-4.6-1.9-4.6-4.2c0-2.4,1.7-4.2,4.7-4.2C95.6,220.6,97.3,222.5,97.3,224.8z
				 M88.1,255v-23.6h9.1V255H88.1z"/>
			<path d="M102.9,239.5c0-4.2,0-6.3-0.2-8.1h7.7l0.3,4.6h0.2c1.3-3.9,4.7-5.1,6.9-5.1c0.8,0,1.1,0,1.8,0.1v8.4
				c-0.7-0.1-1.4-0.3-2.4-0.3c-3.1,0-4.8,1.3-5.1,3.1c0,0.4,0,0.8,0,1.2V255h-9.1L102.9,239.5L102.9,239.5z"/>
			<path d="M123.2,255c0.1-1.2,0.2-4.4,0.2-7.4v-26.9h9.1v13.2h0.1c1.4-1.9,4.1-3,7.3-3c5.8,0,10.7,4.3,10.6,12
				c0,8.6-6.1,12.7-11.9,12.7c-2.7,0-5.8-1-7.4-3.7h-0.1l-0.3,3.2H123.2z M132.4,244.2c0,0.4,0,0.7,0,1.1c0.3,1.7,1.9,3.4,4,3.4
				c2.8,0,4.7-1.9,4.7-5.4c0-3-1.4-5.6-4.8-5.6c-2,0-3.7,1.5-4,3.5c0,0.4,0,0.7,0,1.1V244.2z"/>
			<path d="M154.9,239.6c0-3.4-0.1-6.1-0.2-8.2h7.8l0.4,3.1h0.2c0.7-1,3-3.7,7.5-3.7c5.7,0,9.2,3.6,9.2,10.6V255h-9.1v-12.3
				c0-3.1-1.1-4.7-3.4-4.7c-2,0-2.8,1.4-3.2,2.3c-0.2,0.4-0.2,1.1-0.2,1.6V255h-9.1V239.6z"/>
			<path d="M185.3,255c0.1-1.2,0.2-4.4,0.2-7.4v-26.9h9.1v13.2h0.1c1.4-1.9,4.1-3,7.3-3c5.8,0,10.7,4.3,10.6,12
				c0,8.6-6.1,12.7-11.9,12.7c-2.7,0-5.8-1-7.4-3.7h-0.1l-0.3,3.2H185.3z M194.6,244.2c0,0.4,0,0.7,0,1.1c0.3,1.7,1.9,3.4,4,3.4
				c2.8,0,4.7-1.9,4.7-5.4c0-3-1.4-5.6-4.8-5.6c-2,0-3.7,1.5-4,3.5c0,0.4,0,0.7,0,1.1V244.2z"/>
		</g>
	</g>
</g>
</svg>
