<svg id="Layer_1" data-name="Layer 1" xmlns="http://www.w3.org/2000/svg" xmlns:xlink="http://www.w3.org/1999/xlink" viewBox="0 0 100 100"><defs><style>.cls-1{fill:url(#linear-gradient);}.cls-2{fill:url(#linear-gradient-2);}.cls-3{fill:url(#linear-gradient-3);}.cls-4{fill:url(#linear-gradient-4);}.cls-5{fill:url(#linear-gradient-5);}.cls-6{fill:url(#linear-gradient-6);}.cls-7{fill:url(#linear-gradient-7);}.cls-8{fill:#fffefe;}.cls-9{fill:#010101;}</style><linearGradient id="linear-gradient" x1="-349.9091" y1="96.9006" x2="-349.5939" y2="96.9965" gradientTransform="matrix(72.2779, 19.2066, 17.5542, -66.0598, 23660.9701, 13131.3818)" gradientUnits="userSpaceOnUse"><stop offset="0" stop-color="#f69924"/><stop offset="0.3123" stop-color="#f79b24"/><stop offset="0.8383" stop-color="#e97927"/></linearGradient><linearGradient id="linear-gradient-2" x1="-349.7802" y1="98.1794" x2="-349.1387" y2="99.0149" gradientTransform="matrix(71.9136, 19.1098, 31.4659, -118.412, 22059.277, 18407.9478)" gradientUnits="userSpaceOnUse"><stop offset="0.3233" stop-color="#9f2065"/><stop offset="0.6302" stop-color="#c92039"/><stop offset="0.7514" stop-color="#ce2335"/><stop offset="1" stop-color="#e97927"/></linearGradient><linearGradient id="linear-gradient-3" x1="-349.6869" y1="99.8287" x2="-349.1905" y2="100.2997" gradientTransform="matrix(92.9004, 24.6867, 55.7944, -209.9645, 26914.1158, 29685.7188)" xlink:href="#linear-gradient-2"/><linearGradient id="linear-gradient-4" x1="-347.1204" y1="100.6701" x2="-346.7182" y2="100.9307" gradientTransform="matrix(60.2649, 16.0143, 53.006, -199.4712, 15587.447, 25726.9117)" gradientUnits="userSpaceOnUse"><stop offset="0" stop-color="#282762"/><stop offset="0.0955" stop-color="#66308d"/><stop offset="0.7882" stop-color="#9f2065"/><stop offset="0.9487" stop-color="#cd2032"/></linearGradient><linearGradient id="linear-gradient-5" x1="-350.9596" y1="97.8482" x2="-350.5291" y2="98.8279" gradientTransform="matrix(107.1484, 28.4728, 26.8355, -100.9871, 34980.8651, 19979.2993)" xlink:href="#linear-gradient-2"/><linearGradient id="linear-gradient-6" x1="-350.9575" y1="99.8072" x2="-350.6384" y2="100.3311" gradientTransform="matrix(144.5971, 38.4241, 50.2484, -189.094, 45739.108, 32458.3565)" xlink:href="#linear-gradient-2"/><linearGradient id="linear-gradient-7" x1="-349.3289" y1="100.3891" x2="-349.0089" y2="101.112" gradientTransform="matrix(85.8727, 22.8192, 21.668, -81.5407, 27834.7043, 16252.126)" xlink:href="#linear-gradient-4"/></defs><title>apache</title><path class="cls-1" d="M78.9067,2.2609c-1.9612.5459-5.5364,2.6378-10.0277,5.871l-.0676.2545L70.305,14.64l.12.1455A77.7,77.7,0,0,1,79.244,8.2529c.22-.1457.3277-.208.3277-.208-.1074.0623-.22.1457-.3277.208A72.2424,72.2424,0,0,0,70.8,14.9988l.3592.1862S79.08,16.4727,82.96,16.8226l.2628-.1345c2.951-6.3213,1.4031-9.9789,1.4031-9.9789S82.9731,1.14,78.9067,2.2609Z"/><path class="cls-2" d="M57.3169,27.4657c1.4218-1.5064,2.8324-2.97,4.2105-4.3975,1.4587-1.4739,2.9216-2.8786,4.3732-4.2408a1.4029,1.4029,0,0,0,.2486-.2518c1.446-1.3411,2.8638-2.5761,4.276-3.79l-1.5406-6.675c-.3065.2137-.6186.4486-.9308.6835-1.1892.8871-2.4377,1.8266-3.7031,2.83-1.4645,1.1545-2.9672,2.367-4.498,3.6855-1.4335,1.2082-2.905,2.4744-4.3454,3.7942-1.2568,1.1416-2.5348,2.2776-3.8142,3.504-.0593.0524-.0917.0891-.151.1415l-.062.2332L53.2,31.6837l.1527.1086C54.6723,30.327,55.9925,28.8617,57.3169,27.4657Z"/><path class="cls-3" d="M30.5077,60.5229c1.1843-1.6376,2.411-3.2639,3.649-4.9327,1.1943-1.59,2.3885-3.1791,3.6308-4.7786,1.2211-1.6051,2.4789-3.1778,3.748-4.7928,1.296-1.6307,2.5863-3.24,3.8979-4.8439,1.3058-1.5826,2.6061-3.144,3.9276-4.7.4659-.5573.9586-1.13,1.4457-1.6817.8231-.9617,1.6674-1.9178,2.4792-2.8371.0381-.058.0918-.0892.13-.1471l-1.91-9.0433-.2754.2673c-1.3443,1.3-2.71,2.5943-4.0286,3.9692-1.3668,1.3848-2.7125,2.7752-4.027,4.2193-1.1408,1.2178-2.2336,2.4257-3.3377,3.676-.2273.2574-.4278.4993-.6551.7567-1.3752,1.5869-2.6161,3.0959-3.7878,4.6006-1.3129,1.6943-2.5128,3.3051-3.6109,4.8747-.7284,1.0324-1.3762,2.018-2.0128,2.9612-.5123.8173-1.03,1.6558-1.5213,2.4788-1.1784,1.957-2.2395,3.9-3.227,5.9075l-.004.2713,1.8138,8.7225.11.0975c.9132-1.301,1.8421-2.5752,2.809-3.9074A12.8112,12.8112,0,0,1,30.5077,60.5229Z"/><path class="cls-4" d="M24.864,56.73A66.034,66.034,0,0,0,21.77,64.1033c-.0226.0848-.0663.164-.0945.27-.7313-2.3737-3.5844-5.22-3.5844-5.22C19.6,63.3,20.4935,67.2828,19.862,70.77c-1.3667-.068-3.02-.9386-4.9-2.2329A10.6683,10.6683,0,0,0,18.62,72.3694c-2.0058-.3968-4.402.4194-6.8856,1.3939,3.3377-.43,5.9058-.27,7.5643.58-4.8413,7.1129-9.918,15.026-15.13,23.448a2.5539,2.5539,0,0,0,2.0821-1.172c.9328-1.5455,7.1156-11.571,16.056-24.5413.2555-.3634.5166-.7481.7721-1.1115.0706-.0948.1468-.2107.2173-.3055.9514-1.3589,1.9084-2.7391,2.9191-4.15.223-.3266.4672-.6476.69-.9743l.0056-.0212L25.0065,56.45C24.9515,56.572,24.9078,56.6512,24.864,56.73Z"/><path class="cls-5" d="M70.8211,15.0044c-1.2836,1.1572-2.6972,2.4614-4.2363,3.9821-.0861.0679-.1567.1626-.2429.23-1.35,1.3212-2.77,2.7371-4.29,4.3538-1.3188,1.3749-2.7082,2.8445-4.1638,4.4781-1.2821,1.4073-2.6022,2.8726-3.983,4.4807l.1683.1355,10.0992,1.5486.2783-.1076a13.0518,13.0518,0,0,0,6.77-2.9229c.4688-.3976.97-.8319,1.45-1.2718a56.8236,56.8236,0,0,0,4.3815-4.4429c1.3526-1.5021,2.5936-3.0111,3.62-4.3956a28.18,28.18,0,0,0,1.633-2.4719q.5736-1.0053.9862-1.9172A108.4518,108.4518,0,0,1,70.8211,15.0044Z"/><path class="cls-6" d="M53.2828,33.25c-.5308.6308-1.0885,1.2771-1.6462,1.9235-.5958.7043-1.224,1.4454-1.8311,2.1921-.3035.3734-.6339.7624-.9374,1.1357-.9643,1.1513-1.9186,2.3506-2.921,3.56-1.22,1.5147-2.4776,3.0873-3.7523,4.7236-1.2367,1.5783-2.4789,3.1778-3.7494,4.8833-1.2211,1.6051-2.4534,3.2526-3.7027,4.9638-1.1349,1.5372-2.27,3.0744-3.4329,4.7177-.065.0735-.1087.1527-.1737.2262-1.1574,1.6221-2.2993,3.2709-3.4949,4.9509-.0325.0368-.1031.1316-.1355.1683l.1371.0819,3.0319.4651.1865-.0185c-.058-.0381-.0778-.1342-.1358-.1723,4.01.5434,9.9556-.9867,14.2849-3.6954a32.4892,32.4892,0,0,0,5.8073-4.7678,48.9808,48.9808,0,0,0,4.2241-4.9615c1.248-1.6207,2.4929-3.4011,3.7617-5.3567a12.3105,12.3105,0,0,1-3.3139.2544c-.2021-.0083-.4254-.0222-.6487-.0361s-.441-.0491-.6431-.0574c3.9978-.436,7.0034-2.52,9.5575-5.383a13.6607,13.6607,0,0,1-4.8807.7688c-.2714-.004-.5371-.0292-.824-.06-.0636-.0169-.1329-.0126-.1965-.0295a14.7532,14.7532,0,0,0,3.7288-.9614c.23-.0977.4605-.1954.6964-.3144.3433-.1812.6866-.3624,1.0086-.5492.2148-.1246.4083-.2547.6286-.4005a12.276,12.276,0,0,0,1.39-1.129c.1454-.12.2753-.2674.4208-.3876.1892-.1994.3572-.4045.5252-.61.7794-.8825,1.4245-1.6873,1.9511-2.3873.2766-.3578.5-.6845.7227-1.0111a3.1807,3.1807,0,0,1,.2555-.3634c.2286-.3479.4248-.659.5941-.9545a9.5275,9.5275,0,0,0,.515-.9982,3.7924,3.7924,0,0,1-.503.1841,15.6817,15.6817,0,0,1-4.9009.3322l3.08.4552-3.08-.4552c-.2233-.014-.3774-.0322-.5583-.0349.0269-.0155-3.4616-.5566-10.4441-1.6175C53.8518,32.5607,53.4564,33.0232,53.2828,33.25Z"/><path class="cls-7" d="M27.0427,67.4114c-.9189,1.3222-1.8646,2.66-2.8,4.0458-.0056.0212-.0324.0368-.0381.058-.1411.19-.2611.3846-.4079.5953-.6366.9432-1.1969,1.77-2.4757,3.6781,1.041.8668,1.6176,2.5411,2.08,4.3892a6.5637,6.5637,0,0,0-.9372-5.0163c5.7847,1.81,11.2257,1.6664,14.9663-1.9026a11.2314,11.2314,0,0,0,.9573-1.04c-1.5875,1.19-3.2408,1.4317-5.9367.5564l-.0212-.0057.0424.0113c4.5558-.7417,7.0534-1.9395,9.6489-4.36.61-.587,1.2313-1.2165,1.8751-1.9307a13.2282,13.2282,0,0,1-13.0594.7067l-3.34-.5016C27.4013,66.9164,27.222,67.1639,27.0427,67.4114Z"/><path class="cls-8" d="M31.35,94.4328,30.343,90.5981H27.98l-.8522,3.8347H21.1242l4.7643-17.74h6.5849l5.0742,17.74Zm-2.0917-9.0252-.1549-.6585-.1549.6585Z"/><path class="cls-8" d="M36.85,99.12V85.95c0-1.7043-.0387-3.0988-.0774-3.99l-.0388-1.0071h5.113l.0387.4649a5.24,5.24,0,0,1,2.8277-.7747c2.5564,0,5.3066,2.4015,5.3066,6.8173,0,4.7256-2.9438,7.2046-5.81,7.2046a4.7,4.7,0,0,1-1.6656-.2711V99.081H36.85Zm5.694-10.4971c.0775.4261.3486.8522.6972.8522.8909,0,.9684-1.2008.9684-1.7044,0-.31-.0387-1.7818-.93-1.7818-.31,0-.6973.4261-.736.9684v1.6656Z"/><path class="cls-8" d="M53.7,94.7039a4.3819,4.3819,0,0,1-4.377-4.6094,4.9575,4.9575,0,0,1,1.5494-3.796L49.904,82.27l.581-.3873a8.9184,8.9184,0,0,1,4.8031-1.24c3.6411,0,5.7715,2.2078,5.7715,6.0426v3.8734a16.2584,16.2584,0,0,0,.1549,2.6727l.2324,1.1621H56.1015l-.0387-.2325A4.9294,4.9294,0,0,1,53.7,94.7039Zm1.2782-4.958h.1162a.6035.6035,0,0,0,.3874-.4261c-.2712.0775-.5036.1937-.5036.3874C54.94,89.7072,54.94,89.7459,54.9782,89.7459Z"/><path class="cls-8" d="M67.49,94.7039c-3.99,0-6.5849-2.7114-6.5849-6.9335,0-3.5248,2.1692-7.1271,7.05-7.1271a7.7086,7.7086,0,0,1,2.8664.5035l.736.2712-.93,5.2679-1.162-.5811a2.9707,2.9707,0,0,0-1.317-.2324,1.2294,1.2294,0,0,0-.9684.3874,1.8227,1.8227,0,0,0-.4648,1.317c0,1.5493.9684,1.7818,1.5882,1.7818a3.613,3.613,0,0,0,1.3944-.2325l1.2008-.5422.6972,5.1517-.581.31A8.137,8.137,0,0,1,67.49,94.7039Z"/><path class="cls-8" d="M77.7929,94.4328V87.4606c0-.8909-.1549-1.317-.4648-1.317-.1162,0-.2324,0-.3873.3486v7.9406h-5.694V75.724h5.694v5.4228A4.2315,4.2315,0,0,1,78.8,80.7207c2.2466,0,4.6869,1.6269,4.6869,6.12v7.6307h-5.694Z"/><path class="cls-8" d="M90.0718,94.7039c-4.1446,0-6.7011-2.6727-6.7011-6.9335,0-2.75,1.7043-7.0884,6.3525-7.0884,4.2608,0,5.81,3.7573,5.81,6.9722a9.6227,9.6227,0,0,1-.1549,1.7431l-.155.7359h-.7359l.5422,3.37-.6584.31A9.3766,9.3766,0,0,1,90.0718,94.7039Z"/><path class="cls-9" d="M27.2055,89.63l-.8522,3.8347H22.4024l4.2221-15.8037h5.1129l4.4933,15.8037H32.0861L31.079,89.63Zm3.2924-3.2537-.6972-2.7889c-.2324-.8909-.5035-2.0529-.7747-2.9439h-.0387c-.2324.93-.4261,2.053-.62,2.9826l-.62,2.75Z"/><path class="cls-9" d="M37.8188,85.95c0-1.6269-.0387-2.9826-.0775-4.0284H40.995l.155,1.5107h.0387a4.0457,4.0457,0,0,1,3.5249-1.8206c1.9367,0,4.3382,1.8206,4.3382,5.849,0,4.2995-2.5952,6.2362-4.8418,6.2362a3.109,3.109,0,0,1-2.5952-1.1233H41.576v5.5391H37.8188Zm3.7572,2.2079a3.5384,3.5384,0,0,0,.0388.62A1.8955,1.8955,0,0,0,43.28,90.4819c1.162,0,1.9367-.9684,1.9367-2.6727,0-1.4719-.581-2.75-1.898-2.75a1.9149,1.9149,0,0,0-1.7043,1.82,1.8834,1.8834,0,0,0-.0388.4649Z"/><path class="cls-9" d="M56.8375,93.4644l-.1937-.9683h-.0774A3.4028,3.4028,0,0,1,53.7,93.7743a3.4417,3.4417,0,0,1-3.4087-3.6411c0-3.0987,2.3629-4.5319,6.0426-4.5319v-.0775c0-.4261-.2324-.93-1.7043-.93a5.8847,5.8847,0,0,0-2.9438.93l-.6585-2.75a8.175,8.175,0,0,1,4.2608-1.0846c3.37,0,4.8031,1.9755,4.8031,5.0742v3.8735a23.1453,23.1453,0,0,0,.1549,2.8664H56.8375Zm-.3874-5.19c-1.6655,0-2.44.5035-2.44,1.4332a.9692.9692,0,0,0,1.0845,1.0458,1.4655,1.4655,0,0,0,1.317-1.2008,3.3338,3.3338,0,0,0,.0387-.62Z"/><path class="cls-9" d="M70.5108,93.232a6.6959,6.6959,0,0,1-3.0213.5423c-3.4474,0-5.6165-2.3241-5.6165-5.9651,0-3.1763,1.898-6.1588,6.0813-6.1588a6.8717,6.8717,0,0,1,2.5178.426l-.5423,3.215a3.8853,3.8853,0,0,0-1.7431-.31,2.4188,2.4188,0,0,0-2.4015,2.6727,2.46,2.46,0,0,0,2.5565,2.7115,4.1925,4.1925,0,0,0,1.7818-.31Z"/><path class="cls-9" d="M72.2151,76.6923h3.7573V83.161h.0387a3.642,3.642,0,0,1,1.24-1.0846A2.9727,2.9727,0,0,1,78.8,81.6891c2.2466,0,3.7186,1.7818,3.7186,5.1517v6.6624H78.7613V87.4993c0-1.5107-.4648-2.2853-1.4332-2.2853a1.3679,1.3679,0,0,0-1.2782.9683,1.8114,1.8114,0,0,0-.0775.62v6.7011H72.2152V76.6923Z"/><path class="cls-9" d="M87.9027,89.1649c.1549.8521,1.3944,1.3557,2.6727,1.3557a7.7329,7.7329,0,0,0,2.9051-.4648l.4648,2.9051a9.1045,9.1045,0,0,1-3.9122.8134c-3.6411,0-5.7328-2.3241-5.7328-5.9651,0-2.2854,1.317-6.12,5.3842-6.12,3.4861,0,4.8418,3.06,4.8418,6.0039a6.3917,6.3917,0,0,1-.1549,1.5106H87.9027Zm3.1762-2.9439A1.653,1.653,0,0,0,89.53,84.478a1.8254,1.8254,0,0,0-1.7043,1.743Z"/></svg>