<svg id="Layer_1" data-name="Layer 1" xmlns="http://www.w3.org/2000/svg" viewBox="0 0 100 100"><defs><style>.cls-1{fill:#573e7d;}.cls-2{fill:#fff;}.cls-3{fill:#e6e7e8;stroke:#e6e7e8;}.cls-4,.cls-5{fill:none;stroke-linecap:round;stroke-linejoin:round;}.cls-4{stroke:#231f20;stroke-width:2px;}.cls-5{stroke:#f1f2f2;stroke-width:0.25px;}</style></defs><title>bootstrap</title><path class="cls-1" d="M9.468,73.2853a10.7926,10.7926,0,0,0,10.793,10.793H82.38a10.7926,10.7926,0,0,0,10.793-10.793V11.1661A10.7926,10.7926,0,0,0,82.38.3731H20.261A10.7926,10.7926,0,0,0,9.468,11.1661Z"/><path class="cls-2" d="M42.7783,37.399V25.545H53.2126a16.25,16.25,0,0,1,2.8748.2485,7.1819,7.1819,0,0,1,2.4488.8872A4.7252,4.7252,0,0,1,60.24,28.4553a5.89,5.89,0,0,1,.6388,2.91,5.3619,5.3619,0,0,1-1.9165,4.6138,8.0115,8.0115,0,0,1-4.8977,1.42ZM31.6342,16.8853V67.5661h24.56a25.9125,25.9125,0,0,0,6.6368-.8518,17.7442,17.7442,0,0,0,5.75-2.6263,12.9341,12.9341,0,0,0,4.01-4.5783,13.9484,13.9484,0,0,0,1.4906-6.6368,14.043,14.043,0,0,0-2.3069-8.1273,12.1806,12.1806,0,0,0-6.9917-4.72,12.6329,12.6329,0,0,0,5.1462-4.1879,11.1015,11.1015,0,0,0,1.739-6.3884,13.5942,13.5942,0,0,0-1.1712-5.9624,9.7392,9.7392,0,0,0-3.3006-3.8685,14.2529,14.2529,0,0,0-5.1107-2.094,31.5629,31.5629,0,0,0-6.6013-.6388ZM42.7783,58.9064V44.994H54.9162a9.39,9.39,0,0,1,5.82,1.6681q2.2,1.668,2.2,5.572a6.9675,6.9675,0,0,1-.6743,3.2652,5.3581,5.3581,0,0,1-1.81,2.0229,7.664,7.664,0,0,1-2.6263,1.0648,14.8746,14.8746,0,0,1-3.1232.3194Z"/><path class="cls-3" d="M10.4834,85.9883h4.4243a15.4188,15.4188,0,0,1,3.1758.2441,3.2109,3.2109,0,0,1,1.7436.9912,3.5654,3.5654,0,0,1,.6636,2.4024A2.103,2.103,0,0,1,20.022,91.19a3.7469,3.7469,0,0,1-1.8487.6787,3.6389,3.6389,0,0,1,2.0855.8652,2.6883,2.6883,0,0,1,.5478,1.8525v1.1856a3.6667,3.6667,0,0,1-.395,1.92,2.0232,2.0232,0,0,1-1.2588.8535,17.0354,17.0354,0,0,1-3.5395.23h-5.13Zm4.4346,2.1875v2.8428c.19-.0049.3374-.0079.4428-.0079q.6526,0,.8321-.24a3.0268,3.0268,0,0,0,.1792-1.3789,1.7248,1.7248,0,0,0-.1475-.8408.6409.6409,0,0,0-.3848-.3037A4.487,4.487,0,0,0,14.918,88.1758Zm0,4.833v3.5781a2.3757,2.3757,0,0,0,1.1958-.2217q.2577-.1962.2583-.9707V94.2021q0-.8217-.232-.9951A2.6466,2.6466,0,0,0,14.918,93.0088Z"/><path class="cls-3" d="M31.8984,91.9746V94.541a8.191,8.191,0,0,1-.1894,2.0733,2.7119,2.7119,0,0,1-.8111,1.2324,3.8354,3.8354,0,0,1-1.5961.8447,8.3345,8.3345,0,0,1-2.2383.2725,10.56,10.56,0,0,1-2.3911-.2325,3.5425,3.5425,0,0,1-1.522-.7031,2.6157,2.6157,0,0,1-.7744-1.1377,6.4785,6.4785,0,0,1-.232-2.0019V92.2031a5.0776,5.0776,0,0,1,.4214-2.2822,3.0122,3.0122,0,0,1,1.5171-1.3184,6.7989,6.7989,0,0,1,2.8018-.498,8.3081,8.3081,0,0,1,2.46.32,4.1341,4.1341,0,0,1,1.585.833,2.8108,2.8108,0,0,1,.7637,1.0586A4.9958,4.9958,0,0,1,31.8984,91.9746Zm-4.2553-.79a2.6518,2.6518,0,0,0-.1162-1.0147.5164.5164,0,0,0-.4952-.209.5429.5429,0,0,0-.5053.209A2.4418,2.4418,0,0,0,26.4,91.1846v4.73a2.3392,2.3392,0,0,0,.1265.9678.5161.5161,0,0,0,.4951.2256.5318.5318,0,0,0,.5-.2061,2.04,2.04,0,0,0,.1216-.8837Z"/><path class="cls-3" d="M42.9272,91.9746V94.541a8.1863,8.1863,0,0,1-.1894,2.0733,2.7125,2.7125,0,0,1-.811,1.2324,3.8364,3.8364,0,0,1-1.5962.8447,8.334,8.334,0,0,1-2.2383.2725,10.56,10.56,0,0,1-2.3911-.2325,3.5431,3.5431,0,0,1-1.522-.7031,2.6157,2.6157,0,0,1-.7744-1.1377,6.479,6.479,0,0,1-.2319-2.0019V92.2031a5.0777,5.0777,0,0,1,.4213-2.2822,3.0122,3.0122,0,0,1,1.5171-1.3184,6.7989,6.7989,0,0,1,2.8018-.498,8.3081,8.3081,0,0,1,2.46.32,4.1341,4.1341,0,0,1,1.585.833,2.8108,2.8108,0,0,1,.7637,1.0586A4.9958,4.9958,0,0,1,42.9272,91.9746Zm-4.2553-.79a2.6518,2.6518,0,0,0-.1162-1.0147.5164.5164,0,0,0-.4952-.209.5429.5429,0,0,0-.5053.209,2.4418,2.4418,0,0,0-.1265,1.0147v4.73a2.3392,2.3392,0,0,0,.1265.9678.5161.5161,0,0,0,.4951.2256.5318.5318,0,0,0,.5-.2061,2.04,2.04,0,0,0,.1216-.8837Z"/><path class="cls-3" d="M48.8154,86.8965v1.65h1.1475v1.6582H48.8154v5.6074q0,1.0356.1426,1.1533a2.9776,2.9776,0,0,0,1.1846.1182v1.69H48.4258a16.325,16.325,0,0,1-2.0752-.0908,2.54,2.54,0,0,1-1.0952-.419,1.3691,1.3691,0,0,1-.59-.75,9.9687,9.9687,0,0,1-.1162-1.9863V90.2051h-.9165V88.5469h.9165v-1.65Z"/><path class="cls-3" d="M59.5928,91.6426H55.8213v-.5684a2.3174,2.3174,0,0,0-.11-.92q-.1113-.1934-.5537-.1934a.73.73,0,0,0-.5371.1778.7208.7208,0,0,0-.1787.5332,2.0226,2.0226,0,0,0,.09.706,1.2349,1.2349,0,0,0,.5371.4942,13.0682,13.0682,0,0,0,1.8379.7812,6.97,6.97,0,0,1,2.4335,1.28,2.4153,2.4153,0,0,1,.5791,1.7451,3.4506,3.4506,0,0,1-.4423,1.9307,2.7947,2.7947,0,0,1-1.48,1.0029,7.8349,7.8349,0,0,1-2.501.3516,8.9442,8.9442,0,0,1-2.7763-.3789,2.9278,2.9278,0,0,1-1.585-1.0264,3.5673,3.5673,0,0,1-.4317-1.959v-.5058h3.7706v.664a2.6673,2.6673,0,0,0,.1425,1.0977.59.59,0,0,0,.5635.2529.9148.9148,0,0,0,.6318-.17,1.0138,1.0138,0,0,0,.18-.7149q0-.75-.2324-.94a21.5577,21.5577,0,0,0-2.4756-1.1211,5.31,5.31,0,0,1-2.2851-1.4336A2.7745,2.7745,0,0,1,50.5859,91.2a3.12,3.12,0,0,1,.4424-1.8516,2.8321,2.8321,0,0,1,1.501-.92,8.4333,8.4333,0,0,1,2.46-.3242,9.1613,9.1613,0,0,1,2.3642.2646,3.9479,3.9479,0,0,1,1.4961.6993,1.83,1.83,0,0,1,.6318.8056,4.3856,4.3856,0,0,1,.1114,1.1612Z"/><path class="cls-3" d="M65.5439,86.8965v1.65h1.1475v1.6582H65.5439v5.6074q0,1.0356.1416,1.1533a2.9847,2.9847,0,0,0,1.1856.1182v1.69H65.1543a16.3164,16.3164,0,0,1-2.0752-.0908,2.535,2.535,0,0,1-1.0957-.419,1.3662,1.3662,0,0,1-.59-.75,9.9982,9.9982,0,0,1-.1163-1.9863V90.2051h-.916V88.5469h.916v-1.65Z"/><path class="cls-3" d="M71.8848,88.2939l-.168,1.379a3.1832,3.1832,0,0,1,2.6855-1.5684V91.793a4.6017,4.6017,0,0,0-1.7168.2373,1.0814,1.0814,0,0,0-.6738.6592,8.9094,8.9094,0,0,0-.1269,1.9462v4.1387H67.63V88.2939Z"/><path class="cls-3" d="M79.1533,92.3535H75.16V91.65a3.8486,3.8486,0,0,1,.374-1.875,3.1215,3.1215,0,0,1,1.501-1.165,9.1332,9.1332,0,0,1,6.1836.0673,2.3487,2.3487,0,0,1,1.3173,1.4053,16.6027,16.6027,0,0,1,.2207,3.4316v5.26h-4.14v-.9336a2.4314,2.4314,0,0,1-1.0059.8418,3.5172,3.5172,0,0,1-1.47.2813,4.483,4.483,0,0,1-2.0488-.47,2.0794,2.0794,0,0,1-.9326-2.0576v-.86a2.06,2.06,0,0,1,.4951-1.6035,7.8471,7.8471,0,0,1,2.4551-.9952,8.0706,8.0706,0,0,0,2.2431-.8291,1.7016,1.7016,0,0,0,.1475-.8691,2.2615,2.2615,0,0,0-.1631-1.07.6007.6007,0,0,0-.542-.2481q-.4321,0-.5381.209a3.235,3.235,0,0,0-.1045,1.086ZM80.501,93.791a2.7879,2.7879,0,0,0-1.1846.94,2.8465,2.8465,0,0,0-.1631,1.09,2.4358,2.4358,0,0,0,.1416,1.0508.604.604,0,0,0,.5635.2373.59.59,0,0,0,.5215-.1855,2.29,2.29,0,0,0,.1211-.9756Z"/><path class="cls-3" d="M90.5508,88.2939l-.0742.9268a3.8063,3.8063,0,0,1,1.2539-.8389,3.9536,3.9536,0,0,1,1.4961-.2773,3.48,3.48,0,0,1,1.7119.3994,1.7925,1.7925,0,0,1,.9.92,6.0865,6.0865,0,0,1,.1787,1.7686v4.415a6.39,6.39,0,0,1-.2266,2.0332,1.8027,1.8027,0,0,1-.9267.9639,3.6685,3.6685,0,0,1-1.69.3594,3.82,3.82,0,0,1-1.4648-.2764,3.8584,3.8584,0,0,1-1.2324-.8232v2.4023H86.2217V88.2939Zm1.2109,3.0489a4.023,4.023,0,0,0-.0947-1.1768q-.0937-.205-.5264-.2051-.4218,0-.5429.2364a3.2373,3.2373,0,0,0-.1211,1.1455v4.3437a3.2623,3.2623,0,0,0,.1269,1.1846q.126.2373.5479.2373.41,0,.5107-.2178a3.2871,3.2871,0,0,0,.1-1.0537Z"/><path class="cls-4" d="M10.4834,85.9883h4.4243a15.4188,15.4188,0,0,1,3.1758.2441,3.2109,3.2109,0,0,1,1.7436.9912,3.5654,3.5654,0,0,1,.6636,2.4024A2.103,2.103,0,0,1,20.022,91.19a3.7469,3.7469,0,0,1-1.8487.6787,3.6389,3.6389,0,0,1,2.0855.8652,2.6883,2.6883,0,0,1,.5478,1.8525v1.1856a3.6667,3.6667,0,0,1-.395,1.92,2.0232,2.0232,0,0,1-1.2588.8535,17.0354,17.0354,0,0,1-3.5395.23h-5.13Zm4.4346,2.1875v2.8428c.19-.0049.3374-.0079.4428-.0079q.6526,0,.8321-.24a3.0268,3.0268,0,0,0,.1792-1.3789,1.7248,1.7248,0,0,0-.1475-.8408.6409.6409,0,0,0-.3848-.3037A4.487,4.487,0,0,0,14.918,88.1758Zm0,4.833v3.5781a2.3757,2.3757,0,0,0,1.1958-.2217q.2577-.1962.2583-.9707V94.2021q0-.8217-.232-.9951A2.6466,2.6466,0,0,0,14.918,93.0088Z"/><path class="cls-4" d="M31.8984,91.9746V94.541a8.191,8.191,0,0,1-.1894,2.0733,2.7119,2.7119,0,0,1-.8111,1.2324,3.8354,3.8354,0,0,1-1.5961.8447,8.3345,8.3345,0,0,1-2.2383.2725,10.56,10.56,0,0,1-2.3911-.2325,3.5425,3.5425,0,0,1-1.522-.7031,2.6157,2.6157,0,0,1-.7744-1.1377,6.4785,6.4785,0,0,1-.232-2.0019V92.2031a5.0776,5.0776,0,0,1,.4214-2.2822,3.0122,3.0122,0,0,1,1.5171-1.3184,6.7989,6.7989,0,0,1,2.8018-.498,8.3081,8.3081,0,0,1,2.46.32,4.1341,4.1341,0,0,1,1.585.833,2.8108,2.8108,0,0,1,.7637,1.0586A4.9958,4.9958,0,0,1,31.8984,91.9746Zm-4.2553-.79a2.6518,2.6518,0,0,0-.1162-1.0147.5164.5164,0,0,0-.4952-.209.5429.5429,0,0,0-.5053.209A2.4418,2.4418,0,0,0,26.4,91.1846v4.73a2.3392,2.3392,0,0,0,.1265.9678.5161.5161,0,0,0,.4951.2256.5318.5318,0,0,0,.5-.2061,2.04,2.04,0,0,0,.1216-.8837Z"/><path class="cls-4" d="M42.9272,91.9746V94.541a8.1863,8.1863,0,0,1-.1894,2.0733,2.7125,2.7125,0,0,1-.811,1.2324,3.8364,3.8364,0,0,1-1.5962.8447,8.334,8.334,0,0,1-2.2383.2725,10.56,10.56,0,0,1-2.3911-.2325,3.5431,3.5431,0,0,1-1.522-.7031,2.6157,2.6157,0,0,1-.7744-1.1377,6.479,6.479,0,0,1-.2319-2.0019V92.2031a5.0777,5.0777,0,0,1,.4213-2.2822,3.0122,3.0122,0,0,1,1.5171-1.3184,6.7989,6.7989,0,0,1,2.8018-.498,8.3081,8.3081,0,0,1,2.46.32,4.1341,4.1341,0,0,1,1.585.833,2.8108,2.8108,0,0,1,.7637,1.0586A4.9958,4.9958,0,0,1,42.9272,91.9746Zm-4.2553-.79a2.6518,2.6518,0,0,0-.1162-1.0147.5164.5164,0,0,0-.4952-.209.5429.5429,0,0,0-.5053.209,2.4418,2.4418,0,0,0-.1265,1.0147v4.73a2.3392,2.3392,0,0,0,.1265.9678.5161.5161,0,0,0,.4951.2256.5318.5318,0,0,0,.5-.2061,2.04,2.04,0,0,0,.1216-.8837Z"/><path class="cls-4" d="M48.8154,86.8965v1.65h1.1475v1.6582H48.8154v5.6074q0,1.0356.1426,1.1533a2.9776,2.9776,0,0,0,1.1846.1182v1.69H48.4258a16.325,16.325,0,0,1-2.0752-.0908,2.54,2.54,0,0,1-1.0952-.419,1.3691,1.3691,0,0,1-.59-.75,9.9687,9.9687,0,0,1-.1162-1.9863V90.2051h-.9165V88.5469h.9165v-1.65Z"/><path class="cls-4" d="M59.5928,91.6426H55.8213v-.5684a2.3174,2.3174,0,0,0-.11-.92q-.1113-.1934-.5537-.1934a.73.73,0,0,0-.5371.1778.7208.7208,0,0,0-.1787.5332,2.0226,2.0226,0,0,0,.09.706,1.2349,1.2349,0,0,0,.5371.4942,13.0682,13.0682,0,0,0,1.8379.7812,6.97,6.97,0,0,1,2.4335,1.28,2.4153,2.4153,0,0,1,.5791,1.7451,3.4506,3.4506,0,0,1-.4423,1.9307,2.7947,2.7947,0,0,1-1.48,1.0029,7.8349,7.8349,0,0,1-2.501.3516,8.9442,8.9442,0,0,1-2.7763-.3789,2.9278,2.9278,0,0,1-1.585-1.0264,3.5673,3.5673,0,0,1-.4317-1.959v-.5058h3.7706v.664a2.6673,2.6673,0,0,0,.1425,1.0977.59.59,0,0,0,.5635.2529.9148.9148,0,0,0,.6318-.17,1.0138,1.0138,0,0,0,.18-.7149q0-.75-.2324-.94a21.5577,21.5577,0,0,0-2.4756-1.1211,5.31,5.31,0,0,1-2.2851-1.4336A2.7745,2.7745,0,0,1,50.5859,91.2a3.12,3.12,0,0,1,.4424-1.8516,2.8321,2.8321,0,0,1,1.501-.92,8.4333,8.4333,0,0,1,2.46-.3242,9.1613,9.1613,0,0,1,2.3642.2646,3.9479,3.9479,0,0,1,1.4961.6993,1.83,1.83,0,0,1,.6318.8056,4.3856,4.3856,0,0,1,.1114,1.1612Z"/><path class="cls-4" d="M65.5439,86.8965v1.65h1.1475v1.6582H65.5439v5.6074q0,1.0356.1416,1.1533a2.9847,2.9847,0,0,0,1.1856.1182v1.69H65.1543a16.3164,16.3164,0,0,1-2.0752-.0908,2.535,2.535,0,0,1-1.0957-.419,1.3662,1.3662,0,0,1-.59-.75,9.9982,9.9982,0,0,1-.1163-1.9863V90.2051h-.916V88.5469h.916v-1.65Z"/><path class="cls-4" d="M71.8848,88.2939l-.168,1.379a3.1832,3.1832,0,0,1,2.6855-1.5684V91.793a4.6017,4.6017,0,0,0-1.7168.2373,1.0814,1.0814,0,0,0-.6738.6592,8.9094,8.9094,0,0,0-.1269,1.9462v4.1387H67.63V88.2939Z"/><path class="cls-4" d="M79.1533,92.3535H75.16V91.65a3.8486,3.8486,0,0,1,.374-1.875,3.1215,3.1215,0,0,1,1.501-1.165,9.1332,9.1332,0,0,1,6.1836.0673,2.3487,2.3487,0,0,1,1.3173,1.4053,16.6027,16.6027,0,0,1,.2207,3.4316v5.26h-4.14v-.9336a2.4314,2.4314,0,0,1-1.0059.8418,3.5172,3.5172,0,0,1-1.47.2813,4.483,4.483,0,0,1-2.0488-.47,2.0794,2.0794,0,0,1-.9326-2.0576v-.86a2.06,2.06,0,0,1,.4951-1.6035,7.8471,7.8471,0,0,1,2.4551-.9952,8.0706,8.0706,0,0,0,2.2431-.8291,1.7016,1.7016,0,0,0,.1475-.8691,2.2615,2.2615,0,0,0-.1631-1.07.6007.6007,0,0,0-.542-.2481q-.4321,0-.5381.209a3.235,3.235,0,0,0-.1045,1.086ZM80.501,93.791a2.7879,2.7879,0,0,0-1.1846.94,2.8465,2.8465,0,0,0-.1631,1.09,2.4358,2.4358,0,0,0,.1416,1.0508.604.604,0,0,0,.5635.2373.59.59,0,0,0,.5215-.1855,2.29,2.29,0,0,0,.1211-.9756Z"/><path class="cls-4" d="M90.5508,88.2939l-.0742.9268a3.8063,3.8063,0,0,1,1.2539-.8389,3.9536,3.9536,0,0,1,1.4961-.2773,3.48,3.48,0,0,1,1.7119.3994,1.7925,1.7925,0,0,1,.9.92,6.0865,6.0865,0,0,1,.1787,1.7686v4.415a6.39,6.39,0,0,1-.2266,2.0332,1.8027,1.8027,0,0,1-.9267.9639,3.6685,3.6685,0,0,1-1.69.3594,3.82,3.82,0,0,1-1.4648-.2764,3.8584,3.8584,0,0,1-1.2324-.8232v2.4023H86.2217V88.2939Zm1.2109,3.0489a4.023,4.023,0,0,0-.0947-1.1768q-.0937-.205-.5264-.2051-.4218,0-.5429.2364a3.2373,3.2373,0,0,0-.1211,1.1455v4.3437a3.2623,3.2623,0,0,0,.1269,1.1846q.126.2373.5479.2373.41,0,.5107-.2178a3.2871,3.2871,0,0,0,.1-1.0537Z"/><path class="cls-5" d="M10.4834,85.9883h4.4243a15.4188,15.4188,0,0,1,3.1758.2441,3.2109,3.2109,0,0,1,1.7436.9912,3.5654,3.5654,0,0,1,.6636,2.4024A2.103,2.103,0,0,1,20.022,91.19a3.7469,3.7469,0,0,1-1.8487.6787,3.6389,3.6389,0,0,1,2.0855.8652,2.6883,2.6883,0,0,1,.5478,1.8525v1.1856a3.6667,3.6667,0,0,1-.395,1.92,2.0232,2.0232,0,0,1-1.2588.8535,17.0354,17.0354,0,0,1-3.5395.23h-5.13Zm4.4346,2.1875v2.8428c.19-.0049.3374-.0079.4428-.0079q.6526,0,.8321-.24a3.0268,3.0268,0,0,0,.1792-1.3789,1.7248,1.7248,0,0,0-.1475-.8408.6409.6409,0,0,0-.3848-.3037A4.487,4.487,0,0,0,14.918,88.1758Zm0,4.833v3.5781a2.3757,2.3757,0,0,0,1.1958-.2217q.2577-.1962.2583-.9707V94.2021q0-.8217-.232-.9951A2.6466,2.6466,0,0,0,14.918,93.0088Z"/><path class="cls-5" d="M31.8984,91.9746V94.541a8.191,8.191,0,0,1-.1894,2.0733,2.7119,2.7119,0,0,1-.8111,1.2324,3.8354,3.8354,0,0,1-1.5961.8447,8.3345,8.3345,0,0,1-2.2383.2725,10.56,10.56,0,0,1-2.3911-.2325,3.5425,3.5425,0,0,1-1.522-.7031,2.6157,2.6157,0,0,1-.7744-1.1377,6.4785,6.4785,0,0,1-.232-2.0019V92.2031a5.0776,5.0776,0,0,1,.4214-2.2822,3.0122,3.0122,0,0,1,1.5171-1.3184,6.7989,6.7989,0,0,1,2.8018-.498,8.3081,8.3081,0,0,1,2.46.32,4.1341,4.1341,0,0,1,1.585.833,2.8108,2.8108,0,0,1,.7637,1.0586A4.9958,4.9958,0,0,1,31.8984,91.9746Zm-4.2553-.79a2.6518,2.6518,0,0,0-.1162-1.0147.5164.5164,0,0,0-.4952-.209.5429.5429,0,0,0-.5053.209A2.4418,2.4418,0,0,0,26.4,91.1846v4.73a2.3392,2.3392,0,0,0,.1265.9678.5161.5161,0,0,0,.4951.2256.5318.5318,0,0,0,.5-.2061,2.04,2.04,0,0,0,.1216-.8837Z"/><path class="cls-5" d="M42.9272,91.9746V94.541a8.1863,8.1863,0,0,1-.1894,2.0733,2.7125,2.7125,0,0,1-.811,1.2324,3.8364,3.8364,0,0,1-1.5962.8447,8.334,8.334,0,0,1-2.2383.2725,10.56,10.56,0,0,1-2.3911-.2325,3.5431,3.5431,0,0,1-1.522-.7031,2.6157,2.6157,0,0,1-.7744-1.1377,6.479,6.479,0,0,1-.2319-2.0019V92.2031a5.0777,5.0777,0,0,1,.4213-2.2822,3.0122,3.0122,0,0,1,1.5171-1.3184,6.7989,6.7989,0,0,1,2.8018-.498,8.3081,8.3081,0,0,1,2.46.32,4.1341,4.1341,0,0,1,1.585.833,2.8108,2.8108,0,0,1,.7637,1.0586A4.9958,4.9958,0,0,1,42.9272,91.9746Zm-4.2553-.79a2.6518,2.6518,0,0,0-.1162-1.0147.5164.5164,0,0,0-.4952-.209.5429.5429,0,0,0-.5053.209,2.4418,2.4418,0,0,0-.1265,1.0147v4.73a2.3392,2.3392,0,0,0,.1265.9678.5161.5161,0,0,0,.4951.2256.5318.5318,0,0,0,.5-.2061,2.04,2.04,0,0,0,.1216-.8837Z"/><path class="cls-5" d="M48.8154,86.8965v1.65h1.1475v1.6582H48.8154v5.6074q0,1.0356.1426,1.1533a2.9776,2.9776,0,0,0,1.1846.1182v1.69H48.4258a16.325,16.325,0,0,1-2.0752-.0908,2.54,2.54,0,0,1-1.0952-.419,1.3691,1.3691,0,0,1-.59-.75,9.9687,9.9687,0,0,1-.1162-1.9863V90.2051h-.9165V88.5469h.9165v-1.65Z"/><path class="cls-5" d="M59.5928,91.6426H55.8213v-.5684a2.3174,2.3174,0,0,0-.11-.92q-.1113-.1934-.5537-.1934a.73.73,0,0,0-.5371.1778.7208.7208,0,0,0-.1787.5332,2.0226,2.0226,0,0,0,.09.706,1.2349,1.2349,0,0,0,.5371.4942,13.0682,13.0682,0,0,0,1.8379.7812,6.97,6.97,0,0,1,2.4335,1.28,2.4153,2.4153,0,0,1,.5791,1.7451,3.4506,3.4506,0,0,1-.4423,1.9307,2.7947,2.7947,0,0,1-1.48,1.0029,7.8349,7.8349,0,0,1-2.501.3516,8.9442,8.9442,0,0,1-2.7763-.3789,2.9278,2.9278,0,0,1-1.585-1.0264,3.5673,3.5673,0,0,1-.4317-1.959v-.5058h3.7706v.664a2.6673,2.6673,0,0,0,.1425,1.0977.59.59,0,0,0,.5635.2529.9148.9148,0,0,0,.6318-.17,1.0138,1.0138,0,0,0,.18-.7149q0-.75-.2324-.94a21.5577,21.5577,0,0,0-2.4756-1.1211,5.31,5.31,0,0,1-2.2851-1.4336A2.7745,2.7745,0,0,1,50.5859,91.2a3.12,3.12,0,0,1,.4424-1.8516,2.8321,2.8321,0,0,1,1.501-.92,8.4333,8.4333,0,0,1,2.46-.3242,9.1613,9.1613,0,0,1,2.3642.2646,3.9479,3.9479,0,0,1,1.4961.6993,1.83,1.83,0,0,1,.6318.8056,4.3856,4.3856,0,0,1,.1114,1.1612Z"/><path class="cls-5" d="M65.5439,86.8965v1.65h1.1475v1.6582H65.5439v5.6074q0,1.0356.1416,1.1533a2.9847,2.9847,0,0,0,1.1856.1182v1.69H65.1543a16.3164,16.3164,0,0,1-2.0752-.0908,2.535,2.535,0,0,1-1.0957-.419,1.3662,1.3662,0,0,1-.59-.75,9.9982,9.9982,0,0,1-.1163-1.9863V90.2051h-.916V88.5469h.916v-1.65Z"/><path class="cls-5" d="M71.8848,88.2939l-.168,1.379a3.1832,3.1832,0,0,1,2.6855-1.5684V91.793a4.6017,4.6017,0,0,0-1.7168.2373,1.0814,1.0814,0,0,0-.6738.6592,8.9094,8.9094,0,0,0-.1269,1.9462v4.1387H67.63V88.2939Z"/><path class="cls-5" d="M79.1533,92.3535H75.16V91.65a3.8486,3.8486,0,0,1,.374-1.875,3.1215,3.1215,0,0,1,1.501-1.165,9.1332,9.1332,0,0,1,6.1836.0673,2.3487,2.3487,0,0,1,1.3173,1.4053,16.6027,16.6027,0,0,1,.2207,3.4316v5.26h-4.14v-.9336a2.4314,2.4314,0,0,1-1.0059.8418,3.5172,3.5172,0,0,1-1.47.2813,4.483,4.483,0,0,1-2.0488-.47,2.0794,2.0794,0,0,1-.9326-2.0576v-.86a2.06,2.06,0,0,1,.4951-1.6035,7.8471,7.8471,0,0,1,2.4551-.9952,8.0706,8.0706,0,0,0,2.2431-.8291,1.7016,1.7016,0,0,0,.1475-.8691,2.2615,2.2615,0,0,0-.1631-1.07.6007.6007,0,0,0-.542-.2481q-.4321,0-.5381.209a3.235,3.235,0,0,0-.1045,1.086ZM80.501,93.791a2.7879,2.7879,0,0,0-1.1846.94,2.8465,2.8465,0,0,0-.1631,1.09,2.4358,2.4358,0,0,0,.1416,1.0508.604.604,0,0,0,.5635.2373.59.59,0,0,0,.5215-.1855,2.29,2.29,0,0,0,.1211-.9756Z"/><path class="cls-5" d="M90.5508,88.2939l-.0742.9268a3.8063,3.8063,0,0,1,1.2539-.8389,3.9536,3.9536,0,0,1,1.4961-.2773,3.48,3.48,0,0,1,1.7119.3994,1.7925,1.7925,0,0,1,.9.92,6.0865,6.0865,0,0,1,.1787,1.7686v4.415a6.39,6.39,0,0,1-.2266,2.0332,1.8027,1.8027,0,0,1-.9267.9639,3.6685,3.6685,0,0,1-1.69.3594,3.82,3.82,0,0,1-1.4648-.2764,3.8584,3.8584,0,0,1-1.2324-.8232v2.4023H86.2217V88.2939Zm1.2109,3.0489a4.023,4.023,0,0,0-.0947-1.1768q-.0937-.205-.5264-.2051-.4218,0-.5429.2364a3.2373,3.2373,0,0,0-.1211,1.1455v4.3437a3.2623,3.2623,0,0,0,.1269,1.1846q.126.2373.5479.2373.41,0,.5107-.2178a3.2871,3.2871,0,0,0,.1-1.0537Z"/></svg>