<?xml version="1.0" encoding="utf-8"?>
<!-- Generator: Adobe Illustrator 22.0.1, SVG Export Plug-In . SVG Version: 6.00 Build 0)  -->
<svg version="1.1" id="Layer_1" xmlns="http://www.w3.org/2000/svg" xmlns:xlink="http://www.w3.org/1999/xlink" x="0px" y="0px"
	 viewBox="0 0 2500 1650" style="enable-background:new 0 0 2500 1650;" xml:space="preserve">
<style type="text/css">
	.st0{fill:#FFFFFF;}
	.st1{fill:#373535;}
	.st2{fill:#BBE6FB;}
	.st3{fill:#1287B1;}
	.st4{fill:#373535;fill-opacity:0.35;}
</style>
<g>
	<g>
		<path class="st0" d="M1809.1,1596.2c-4.5,0-8.7-1.8-11.8-5.1c-3.7-3.9-6.5-9.9-7.9-26.6c-0.2-3-0.4-6.3-0.6-9.6
			c-29.3,26.6-63.7,40.4-101.2,40.4c-47,0-76.2-38.7-76.2-100.9c0-49.2,16.5-95.3,46.3-129.9c15.7-18.1,34.4-32.3,55.6-42.2
			c22.6-10.5,47.4-15.8,73.9-15.8c11.7,0,22.8,1.8,32.1,4.4c5.8-33.1,14.4-90,15.2-108.2l0.5-12l11.8-2.1c14.3-2.5,52-8,71.1-8
			c6.4,0,12.1,2.5,16.1,7.1c7.1,8.2,6.5,20,5,30.5l0,0.2l0,0.2c-14.6,84.6-39.3,242.9-44.5,278.5c-2.9,28.1-4.1,56.8-3,73.4
			l0.7,10.7l-9.9,4.1C1857.3,1595.7,1809.6,1596.2,1809.1,1596.2z M1717.2,1483.2c0.7,15.3,5,24.4,8.9,24.4
			c6.4,0,22.3-7.4,39.6-27.8c19.3-22.7,33.2-53.6,39.1-86.8l0-0.2l0-0.2c0.4-1.9,0.9-4.7,1.3-7.5c-3.8-1.6-9.3-2.7-17.8-2.7
			c-21.9,0-39.6,11-52.9,32.6C1724,1433.6,1717.2,1459.1,1717.2,1483.2z M153.3,1596.2c-31.2,0-57.3-9.2-75.4-26.7
			C58,1550.4,48,1522.5,48,1486.5l0-0.4c1.1-48.2,18.3-92.8,48.4-125.7c32.9-35.9,77.6-54.9,129.5-54.9c16.2,0,46.2,2.4,64.8,18.2
			l4.4,3.7l0.8,5.7c2.1,15.7-6.7,35.3-16.6,46.5c-6.7,7.6-13.8,11.5-21.2,11.5h-2.5l-2.4-0.8c-10.5-3.6-19.3-5.1-30.4-5.1
			c-20.1,0-36.4,8.9-48.4,26.3c-11.2,16.3-17.6,39.3-17.6,63.1c0,36.7,15.9,36.7,24.4,36.7c28,0,57-22,65.2-28.8l8.8-7.3l9.3,6.6
			c9.2,6.5,15.7,20.4,15.7,33.7c0,16.8-6.3,31-19.3,43.1C246.3,1572.8,212.7,1596.2,153.3,1596.2z M2322.9,1595.2
			c-4.7,0-9.1-1.9-12.4-5.4c-2.8-3-7.7-8-8.2-34.5c-25.6,22.1-60.2,38.8-98.6,38.9c-0.6,0-1.3,0-1.9,0c-21.1,0-39.4-9.5-51.5-26.7
			c-11.8-16.8-17.8-40.1-17.8-69.3c0-20.1,4.4-89.6,60.7-142.7c19.3-18.6,42.1-32.2,67.6-40.3c20.6-6.5,43.4-9.7,69.4-9.7
			c22.4,0,49.9,5.2,72,9.3c7.2,1.3,13.9,2.6,19.7,3.6l16.2,2.6l-4,15.9c-5.9,23.1-19.2,113.8-26.7,169.2c-3.1,22-3.9,52.9-3,63.1
			l1,11.1l-10.4,4.1C2372.6,1593.2,2334.5,1595.2,2322.9,1595.2z M2243,1508.6c17.5,0,67.1-37.4,81.5-125.7
			c-2.3-0.3-4.6-0.5-6.8-0.5c-16.2,0-35.1,3.1-52.4,26.2l-0.1,0.1c-16.9,22.2-27,51.9-27,79.4
			C2239,1503.4,2242.2,1507.8,2243,1508.6C2243,1508.6,2243,1508.6,2243,1508.6z M1194.5,1595.2c-4.7,0-9.1-1.9-12.4-5.4
			c-2.8-3-7.7-8-8.2-34.5c-25.6,22.1-60.2,38.8-98.6,38.9c-0.6,0-1.3,0-1.9,0c-21.1,0-39.4-9.5-51.5-26.7
			c-11.8-16.8-17.8-40.1-17.8-69.3c0-20.1,4.4-89.6,60.7-142.7c19.3-18.6,42.1-32.2,67.6-40.3c20.6-6.5,43.4-9.7,69.4-9.7
			c22.4,0,49.9,5.2,72,9.3c7.2,1.3,13.9,2.6,19.7,3.6l16.2,2.6l-4,15.9c-5.9,23.1-19.2,113.8-26.7,169.2c-3.1,22-3.9,52.9-3,63.1
			l1,11.1l-10.4,4.1C1244.2,1593.2,1206.1,1595.2,1194.5,1595.2z M1114.6,1508.6c17.5,0,67.1-37.4,81.5-125.7
			c-2.3-0.3-4.6-0.5-6.8-0.5c-16.2,0-35.1,3.1-52.4,26.2l-0.1,0.1c-16.9,22.2-27,51.9-27.1,79.4
			C1110.6,1503.4,1113.8,1507.8,1114.6,1508.6C1114.5,1508.6,1114.6,1508.6,1114.6,1508.6z M867.5,1595.2
			c-31.2,0-61.7-11.2-74.2-27.3l-0.5-0.6l-0.4-0.6c-10.1-16.1-8.3-40.7-0.8-54.2c4.7-8.5,12.1-13.4,20.2-13.4c3.1,0,6.1,0.7,9,2.1
			c14.1,6.1,36.8,13.3,54.9,13.3c10.3,0,15.7-3.1,17-4.6c-3.3-5.6-25.7-21.1-38-29.6l-0.2-0.1c-31.6-22.6-45.7-45.6-45.7-74.7
			c0-27.6,12.2-53,34.5-71.6c21.9-18.3,52.3-28.4,85.4-28.4c26.1,0,54.2,9.3,68.4,22.6l5.2,4.9l-0.5,7.1
			c-1.3,20-15.6,49.6-41.9,49.6c-4,0-8.1-0.7-12.2-2.2c-8.5-2.7-15.1-4.1-25.3-4.1c-8.5,0-15.1,3-15.1,5.5c0,5,28.8,24.2,41.1,32.4
			l0.2,0.2c32.2,22.4,45.9,44.5,45.9,73.8c0,25.5-12.6,50.8-34.5,69.3C943.6,1578.5,914.1,1595.2,867.5,1595.2z M663,1595.2
			c-32.3,0-63.7-11.8-74.7-28.1l-0.2-0.2l-0.1-0.2c-10.1-16.1-8.3-40.7-0.8-54.2c4.7-8.5,12.1-13.4,20.2-13.4c3.1,0,6.1,0.7,9,2.1
			c14.1,6.1,36.8,13.3,54.9,13.3c10.3,0,15.7-3.1,17-4.6c-3.3-5.6-25.7-21.1-38-29.6l-0.2-0.1c-31.6-22.6-45.7-45.6-45.7-74.7
			c0-27.6,12.2-53,34.5-71.6c21.9-18.3,52.3-28.4,85.4-28.4c26.1,0,54.2,9.3,68.4,22.6l5.2,4.9l-0.5,7.1
			c-1.3,20-15.6,49.6-41.9,49.6c-4,0-8.2-0.7-12.2-2.2c-8.5-2.7-15.1-4.1-25.3-4.1c-8.5,0-15.1,3-15.1,5.5c0,5,28.8,24.2,41.1,32.4
			l0.2,0.2c32.2,22.4,45.9,44.5,45.9,73.8c0,25.5-12.6,50.8-34.5,69.3C739.1,1578.5,709.6,1595.2,663,1595.2z M480.3,1595.2
			c-4.7,0-9.1-1.9-12.4-5.4c-2.8-3-7.7-8-8.2-34.5c-25.6,22.1-60.2,38.8-98.6,38.9c-0.7,0-1.3,0-2,0c-21.8,0-39.7-9.3-51.9-26.8
			c-11.5-16.6-17.4-39.9-17.4-69.2c0-20.1,4.4-89.6,60.7-142.7c19.3-18.6,42.1-32.2,67.6-40.3c20.6-6.5,43.4-9.7,69.4-9.7
			c22.4,0,49.9,5.2,72,9.3c7.2,1.3,13.9,2.6,19.7,3.6l16.2,2.6l-4,15.9c-5.9,23.1-19.2,113.8-26.7,169.2c-3.1,22-3.9,52.9-3,63.1
			l1,11.1l-10.4,4.1C530,1593.2,491.9,1595.2,480.3,1595.2z M400,1508.6c0,0,0.1,0,0.3,0c17.5,0,67.1-37.4,81.5-125.7
			c-2.3-0.3-4.6-0.5-6.8-0.5c-16.2,0-35.1,3.1-52.4,26.2l-0.1,0.1c-16.9,22.3-27.1,52.1-27.1,79.8
			C395.6,1502.9,399.1,1508,400,1508.6C400,1508.6,400,1508.6,400,1508.6z M1492.5,1594.2c-4.8,0-9.3-2.2-12.5-6
			c-3.3-4-6.2-10.5-5.9-31.2c0.2-13.5,1.9-28.8,4.7-43.2c5.2-26.2,14.5-75,19.7-103.3c1.9-10.1,1.1-16.2,0.2-18.4
			c-5.4,0-19.9,5.8-36.2,27.5c-14.7,19.5-35,57.5-48.6,128.3c-3,15.4-9.9,25.8-21.1,31.9l-0.2,0.1c-14.8,7.7-38.8,11.5-73.4,11.5
			h-18.5l3.9-18.1c5.6-26.2,14.6-78.1,26.9-154.5c9.6-62.1,9.6-80.2,9.2-85.1l-1.1-12.4l12-3.4c8.8-2.5,64.4-14.2,72.6-14.2
			c5.3,0,10.1,2.2,13.7,6.2c4.9,5.5,7.6,13.9,6.5,35.6c27.4-26.8,58.1-39.9,93-39.9c20,0,36.6,7,47.9,20.3
			c15.7,18.4,20.7,48.1,14.7,85.9l0,0.1c-1.3,7.6-2.9,16.1-4.5,25.2c-3.8,20.6-8.1,44-10.9,66l0,0.3c-3.7,24.6-7.1,49.5-6.1,65.2
			l0.7,10.5l-9.6,4.2C1548.9,1592,1498.9,1594.2,1492.5,1594.2z M1920,1574.3c9.4-46,23.9-139.3,29.9-192l0-0.3l0-0.3
			c1.8-12,1.9-37.2,1-46l-1.2-11l10.2-4.4c12.8-5.5,59.5-15.9,71.3-15.9c5,0,9.6,2.2,12.9,6.1c5.6,6.6,7.6,19.8,7.8,34.3
			c28.8-33.3,58.1-39.4,75.8-39.4c11.1,0,27.2,6.3,35.2,13.8l4,3.8l0.6,5.5c2.6,23.5-14.7,63.6-30.9,81.2l-7,7.6l-9.6-3.9
			c-0.8-0.3-1.6-0.6-2.4-1c-6-2.5-11.6-4.8-18-4.8c-4.5,0-15.4,5-28.2,23.9c-12,17.7-29,52.9-42.2,120.2c-2.8,14.6-8.4,22.8-19.3,28
			c-4.2,2.3-12.7,5.6-36,8.7c-14.5,2-29.4,3.2-38.6,3.7l-19.3,1L1920,1574.3z"/>
	</g>
	<g>
		<path class="st1" d="M226,1320.5c22.8,0,43.6,4.9,55,14.6c2.1,15.6-13.5,41-22.8,41c-11.4-3.9-21.8-5.9-35.3-5.9
			c-54,0-81,52.7-81,104.5c0,32.2,11.4,51.7,39.4,51.7c29.1,0,58.1-18.6,74.7-32.2c4.2,2.9,9.3,11.7,9.3,21.5
			c0,10.7-3.1,21.5-14.5,32.2c-18.7,17.6-50.9,33.2-97.6,33.2c-52.9,0-90.3-28.3-90.3-94.7C65,1398.6,125.3,1320.5,226,1320.5
			L226,1320.5z M400.4,1523.6c29.1,0,82-47.8,96.5-139.6c1-5.9,1-6.8,2.1-12.7c-6.2-2-15.6-3.9-23.9-3.9c-21.8,0-44.6,5.9-64.4,32.2
			c-20.8,27.3-30.1,61.5-30.1,88.8C380.6,1510.9,387.9,1523.6,400.4,1523.6L400.4,1523.6z M304.9,1498.2
			c0-33.2,11.4-89.8,56.1-131.8c38.4-37.1,84.1-45.9,126.7-45.9c28,0,65.4,8.8,89.3,12.7c-6.2,24.4-19.7,117.2-27,170.9
			c-3.1,22.5-4.2,54.7-3.1,66.4c-19.7,7.8-56.1,9.8-66.4,9.8c-5.2,0-6.2-22.5-5.2-44.9c1-6.8,2.1-17.6,2.1-22.5
			c-22.8,36.1-68.5,66.4-116.3,66.4C326.7,1580.2,304.9,1552.9,304.9,1498.2L304.9,1498.2z M724.3,1320.5c23.9,0,47.8,8.8,58.1,18.6
			c-1,15.6-13.5,42-34.3,34.2c-9.3-2.9-17.6-4.9-30.1-4.9c-15.6,0-30.1,6.8-30.1,20.5c0,10.7,8.3,18.6,47.8,44.9
			c28,19.5,39.4,37.1,39.4,61.5c0,41-40.5,84.9-112.1,84.9c-29.1,0-55-10.7-62.3-21.5c-10.4-16.6-2.1-49.8,9.3-43.9
			c15.6,6.8,40.5,14.6,61.2,14.6c19.7,0,32.2-8.8,32.2-19.5c0-9.8-9.3-17.6-44.6-42c-30.1-21.5-39.4-41-39.4-62.5
			C619.4,1358.6,662,1320.5,724.3,1320.5L724.3,1320.5z M928.8,1320.5c23.9,0,47.8,8.8,58.1,18.6c-1,15.6-13.5,42-34.3,34.2
			c-9.3-2.9-17.6-4.9-30.1-4.9c-15.6,0-30.1,6.8-30.1,20.5c0,10.7,8.3,18.6,47.8,44.9c28,19.5,39.4,37.1,39.4,61.5
			c0,41-40.5,84.9-112.1,84.9c-29.1,0-54-10.7-62.3-21.5c-10.4-16.6-2.1-49.8,9.3-43.9c15.6,6.8,40.5,14.6,61.2,14.6
			c19.7,0,32.2-8.8,32.2-19.5c0-9.8-9.3-17.6-44.6-42c-30.1-21.5-39.4-41-39.4-62.5C823.9,1358.6,866.5,1320.5,928.8,1320.5
			L928.8,1320.5z M1114.6,1523.6c29.1,0,82-47.8,96.5-139.6c1-5.9,1-6.8,2.1-12.7c-6.2-2-15.6-3.9-23.9-3.9
			c-21.8,0-44.6,5.9-64.4,32.2c-20.8,27.3-30.1,61.5-30.1,88.8C1095.9,1510.9,1102.1,1523.6,1114.6,1523.6L1114.6,1523.6z
			 M1019.1,1498.2c0-33.2,11.4-89.8,56.1-131.8c38.4-37.1,84.1-45.9,126.7-45.9c28,0,65.4,8.8,89.3,12.7
			c-6.2,24.4-19.7,117.2-27,170.9c-3.1,22.5-4.2,54.7-3.1,66.4c-19.7,7.8-56.1,9.8-66.4,9.8c-5.2,0-6.2-22.5-5.2-44.9
			c1-6.8,2.1-17.6,2.1-22.5c-22.8,36.1-68.5,66.4-116.3,66.4C1041.9,1580.2,1019.1,1552.9,1019.1,1498.2L1019.1,1498.2z
			 M1425,1392.7c27-41,62.3-72.2,112.1-72.2c42.6,0,56.1,37.1,47.8,88.8c-4.2,24.4-11.4,59.6-15.6,91.8c-4.2,27.3-7.3,51.7-6.2,68.3
			c-15.6,6.8-60.2,9.8-70.6,9.8c-4.2,0-5.2-30.3,1-62.5c5.2-26.4,14.5-75.2,19.7-103.5c3.1-16.6,2.1-36.1-14.5-36.1
			c-21.8,0-73.7,33.2-99.7,167.9c-2.1,10.7-6.2,17.6-13.5,21.5c-9.3,4.9-28,9.8-66.4,9.8c7.3-34.2,18.7-103.5,27-155.2
			c7.3-46.9,10.4-77.1,9.3-88.8c10.4-2.9,63.3-13.7,68.5-13.7c6.2,0,7.3,17.6,2.1,58.6c-1,3.9-1,9.8-2.1,13.7h1L1425,1392.7
			L1425,1392.7z M1726,1522.6c26,0,78.9-45.9,93.4-126.9c1-4.9,2.1-12.7,3.1-17.6c-7.3-6.8-17.6-10.7-34.3-10.7
			c-60.2,0-86.2,67.4-86.2,116.2C1703.2,1508.9,1712.5,1522.6,1726,1522.6L1726,1522.6z M1687.6,1580.2c-38.4,0-61.2-32.2-61.2-85.9
			c0-89.8,60.2-172.8,160.9-172.8c17.6,0,34.3,4.9,43.6,9.8c5.2-25.4,17.6-104.5,18.7-127.9c16.6-2.9,51.9-7.8,68.5-7.8
			c6.2,0,8.3,5.9,6.2,20.5c-14.5,84-39.4,244.1-44.6,279.2c-3.1,30.3-4.2,59.6-3.1,76.2c-18.7,7.8-57.1,9.8-67.5,9.8
			c-4.2,0-6.2-25.4-5.2-48.8c1-6.8,2.1-17.6,2.1-19.5C1773.8,1557.7,1733.3,1580.2,1687.6,1580.2L1687.6,1580.2z M2034.4,1400.5
			c31.1-65.4,68.5-80.1,93.4-80.1c7.3,0,19.7,4.9,24.9,9.8c2.1,18.6-13.5,54.7-27,69.3c-7.3-2.9-15.6-6.8-26-6.8
			c-19.7,0-60.2,29.3-85.1,156.2c-2.1,10.7-5.2,14.6-11.4,17.6c-10.4,5.9-49.8,9.8-68.5,10.7c9.3-45.9,23.9-138.6,30.1-193.3
			c2.1-13.7,2.1-40,1-49.8c11.4-4.9,56.1-14.6,65.4-14.6c5.2,0,9.3,30.3,1,80.1h2.1L2034.4,1400.5L2034.4,1400.5z M2243,1523.6
			c29.1,0,82-47.8,96.5-139.6c1-5.9,1-6.8,2.1-12.7c-6.2-2-15.6-3.9-23.9-3.9c-21.8,0-44.6,5.9-64.4,32.2
			c-20.8,27.3-30.1,61.5-30.1,88.8C2224.3,1510.9,2230.6,1523.6,2243,1523.6L2243,1523.6z M2147.5,1498.2
			c0-33.2,11.4-89.8,56.1-131.8c38.4-37.1,84.1-45.9,126.6-45.9c28,0,65.4,8.8,89.3,12.7c-6.2,24.4-19.7,117.2-27,170.9
			c-3.1,22.5-4.2,54.7-3.1,66.4c-19.7,7.8-56.1,9.8-66.4,9.8c-5.2,0-6.2-22.5-5.2-44.9c1-6.8,2.1-17.6,2.1-22.5
			c-22.8,36.1-68.5,66.4-116.3,66.4C2170.3,1580.2,2147.5,1552.9,2147.5,1498.2z"/>
	</g>
</g>
<path class="st2" d="M2006.4,444.2c18.6,213.8-318.3,417.9-752.8,455C819.1,936.3,453,792.8,434.5,579
	c-18.6-213.8,318.3-417.9,752.8-455C1620.7,86.9,1987.8,229.4,2006.4,444.2"/>
<path class="st0" d="M1198.9,148.4c-166-2.9-359.3,63.5-503.8,125c-14.6,43-23.4,88.8-23.4,136.7c0,253.8,229.4,459.9,512.6,459.9
	s513.6-205,513.6-459.9c0-80.1-23.4-156.2-63.5-221.6C1519.2,170.9,1360,151.3,1198.9,148.4"/>
<path class="st0" d="M1185.3,148.4c-91.8-5.9-249.9,42-381.7,89.8c-20.5,46.9-31.2,98.6-31.2,153.3c0,222.6,202.1,403.2,414.9,403.2
	c211.9,0,399.3-180.6,414.9-403.2c4.9-72.2-19.5-140.6-54.7-199.2C1411.8,168.9,1267.3,154.3,1185.3,148.4"/>
<path class="st1" d="M950,363.2c11.7-25.4,28.3-37.1,44.9-57.6c-2-4.9-5.9-21.5-5.9-26.4c0-25.4,20.5-44.9,44.9-44.9
	c5.9,0,11.7,1,16.6,2.9c75.2-57.6,173.8-82,273.4-59.6c8.8,2,17.6,4.9,26.4,6.8c-97.6-13.7-208.9,21.5-284.1,82
	c2,5.9,8.8,20.5,8.8,27.3c0,25.4-16.6,31.2-41,31.2c-5.9,0-10.7-1-16.6-2.9c-16.6,22.5-38.1,66.4-47.8,93.7
	c42,37.1,79.1,50.8,127.9,69.3c0-2,2-4.9,2-6.8c0-75.2,66.4-136.7,141.6-136.7c67.4,0,124,48.8,134.7,113.3
	c34.2-21.5,66.4-38.1,90.8-69.3c-5.9-6.8-11.7-27.3-11.7-37.1c0-22.5,18.6-41,41-41c2.9,0,5.9,0,9.8,1c12.7-26.4,22.5-53.7,28.3-82
	c-118.1-87.9-346.6-75.2-346.6-75.2s-181.6-9.8-304.6,50.8C891.4,258.7,914.8,315.4,950,363.2"/>
<path class="st1" d="M1514.3,329c8.8,7.8,12.7,13.7,16.6,20.5c10.7,19.5-10.7,38.1-34.2,38.1c-2,0-4.9,0-6.8-1
	c-25.4,40-70.3,90.8-110.3,117.2c61.5,9.8,119.1,34.2,164,72.2c33.2-59.6,58.6-146.4,58.6-219.7c0-55.7-24.4-96.7-61.5-126.9
	C1539.7,259.7,1523.1,301.7,1514.3,329 M1018.3,707.8c20.5-56.6,70.3-99.6,118.1-137.7c-6.8-9.8-17.6-33.2-21.5-43.9
	c-57.6-17.6-108.4-50.8-148.4-93.7c0,1-1,2.9-1,3.9c-7.8,33.2-8.8,67.4-4.9,99.6c27.3,4.9,48.8,29.3,48.8,58.6
	c0,17.6-15.6,42-27.3,53.7C993.9,673.7,1002.7,687.3,1018.3,707.8"/>
<path class="st1" d="M1014.4,754.7c-24.4-24.4-41-72.2-56.6-102.5c-2.9,0-5.9,1-8.8,1c-33.2,0-67.4-27.3-59.6-59.6
	c3.9-17.6,16.6-29.3,36.1-39.1c-4.9-37.1-5.9-88.8,2.9-126.9c2-10.7,7.8-15.6,10.7-26.4c-36.1-52.7-59.6-123-59.6-192.3v-7.8
	c-61.5,31.2-107.4,79.1-107.4,155.2c0,168.9,97.6,334.9,242.1,399.3L1014.4,754.7 M1370.8,521.4c-18.6,52.7-69.3,91.8-128.9,91.8
	c-32.2,0-61.5-10.7-84-29.3c-47.8,37.1-91.8,102.5-113.3,160.1c9.8,10.7,16.6,19.5,28.3,29.3c33.2,8.8,80.1,0,116.2,0
	c145.5,0,275.3-64.4,349.5-178.7C1487.9,559.4,1429.3,526.2,1370.8,521.4"/>
<path class="st3" d="M946.1,382.7c11.7-25.4,25.4-47.8,42-69.3c-2-4.9-2.9-10.7-2.9-15.6c0-25.4,20.5-44.9,44.9-44.9
	c5.9,0,11.7,1,16.6,2.9c75.2-57.6,173.8-82,273.4-59.6c8.8,2,17.6,4.9,26.4,6.8c-97.6-13.7-199.2,16.6-274.3,77.1
	c2,5.9,3.9,11.7,3.9,17.6c0,25.4-20.5,44.9-44.9,44.9c-5.9,0-10.7-1-16.6-2.9c-16.6,22.5-31.2,47.8-41,75.2
	c36.1,38.1,80.1,69.3,128.9,86.9V495c0-75.2,61.5-136.7,136.7-136.7c67.4,0,124,48.8,134.7,113.3c34.2-21.5,63.5-48.8,88.8-81
	c-5.9-6.8-9.8-15.6-9.8-25.4c0-22.5,18.6-41,41-41c2.9,0,5.9,0,9.8,1c12.7-26.4,22.5-53.7,28.3-82
	c-118.1-87.9-346.6-75.2-346.6-75.2s-181.6-9.8-304.6,50.8C887.5,278.3,910.9,334.9,946.1,382.7"/>
<path class="st3" d="M1520.1,335.9c8.8,7.8,13.7,18.6,13.7,30.3c0,22.5-18.6,41-41,41c-2,0-4.9,0-6.8-1
	c-25.4,40-59.6,74.2-99.6,99.6c58.6,8.8,114.2,34.2,160.1,72.2c33.2-59.6,52.7-128.9,52.7-202.1c0-55.7-24.4-96.7-61.5-126.9
	C1535.8,279.2,1529.9,308.5,1520.1,335.9 M1024.2,720.5c20.5-56.6,55.7-106.4,103.5-144.5c-6.8-9.8-12.7-19.5-16.6-31.2
	c-57.6-17.6-108.4-50.8-148.4-93.7c0,1-1,2.9-1,3.9c-7.8,33.2-8.8,67.4-4.9,99.6c27.3,4.9,48.8,29.3,48.8,58.6
	c0,17.6-7.8,33.2-19.5,43.9C995.9,679.5,1009.5,701,1024.2,720.5"/>
<path class="st3" d="M1014.4,753.7c-24.4-24.4-44.9-51.7-60.5-82c-2.9,0-5.9,1-8.8,1c-33.2,0-59.6-26.4-59.6-59.6
	c0-23.4,13.7-43.9,33.2-53.7c-4.9-37.1-2.9-74.2,5.9-112.3c2-10.7,5.9-21.5,8.8-32.2c-36.1-52.7-57.6-117.2-57.6-186.5v-7.8
	c-61.5,31.2-107.4,79.1-107.4,155.2c0,168.9,100.6,314.4,245.1,378.8C1014.4,754.7,1014.4,754.7,1014.4,753.7 M1366.9,540.9
	c-18.6,52.7-69.3,91.8-128.9,91.8c-32.2,0-61.5-10.7-84-29.3c-47.8,37.1-84,87.9-106.4,145.5c9.8,10.7,20.5,20.5,31.2,30.3
	c33.2,8.8,68.3,13.7,104.5,13.7c145.5,0,274.3-75.2,348.6-189.4C1483,568.2,1425.4,545.8,1366.9,540.9"/>
<path class="st0" d="M1371.7,505.7l125.9-30.3l-126.9-6.8l103.5-78.1l-117.2,42l79.1-110.3l-110.3,73.2l38.1-128.9L1288.8,373
	l-2-134.7L1237,358.3l-41-121.1l2,142.5l-71.3-127.9l39.1,135.7l-116.2-84l90.8,114.2l-144.5-52.7l113.3,84L963.6,454l149.4,38.1
	l-149.4,32.2l147.4,10.7l-124,79.1l127.9-45.9l-88.8,112.3l112.3-90.8l-40,150.4l86.9-123l-11.7,144.5l48.8-131.8l42,137.7
	l9.8-138.6l62.5,118.1l-37.1-134.7l113.3,87.9l-73.2-112.3l125,48.8l-95.7-93.7l127.9,9.8L1371.7,505.7z"/>
<path class="st4" d="M27.3,746.9c391.5-391.5,703.9-512.6,988-567.2c37.1-6.8,44.9-89.8,44.9-89.8s4.9,60.5,31.2,68.3
	c26.4,7.8,60.5-94.7,60.5-94.7s-31.2,91.8,0,97.6c31.2,4.9,89.8-89.8,89.8-89.8s-23.4,81-7.8,86.9c15.6,4.9,94.7-118.1,94.7-118.1
	s-46.9,81-2.9,89.8c44.9,7.8,110.3-55.7,110.3-55.7s-50.8,57.6-28.3,66.4c97.6,34.2,175.7-91.8,175.7-91.8s-18.6,55.7-65.4,116.2
	c102.5,26.4,178.7-127.9,178.7-127.9l-76.2,154.3C1659.8,210.9,1817,29.3,1817,29.3s-81,141.6-128.9,170.9
	c26.4,21.5,121.1-63.5,121.1-63.5s-76.2,94.7-46.9,99.6c42,34.2,197.2-175.7,197.2-175.7s-60.5,124-149.4,220.7
	c74.2,38.1,259.7-201.1,259.7-201.1s-4.9,76.2-139.6,197.2c99.6-12.7,228.5-202.1,228.5-202.1s-46.9,141.6-160.1,242.1
	c97.6-9.8,254.8-251.9,254.8-251.9s-60.5,167.9-183.6,265.6c136.7,30.3,333.9-173.8,333.9-173.8s-77.1,144.5-178.7,204.1
	c113.3,43,268.5-135.7,268.5-135.7S2338.3,464.7,2091.3,454c-81-3.9-326.1-246-851.4-226.5C544.8,252.9,398.3,547.7,27.3,746.9"/>
<g>
	<path class="st0" d="M50.1,730.8L32.4,707c182.8-182.8,358.8-317.8,537.9-412.6c143.1-75.7,288.6-126.2,457.9-158.8l0.1,0
		c9-1.7,18.1-15.2,24.7-37.1c6.1-19.9,7.9-39.2,8-39.4l29.9,0.2c1.9,22.6,10.3,49.6,19.2,54.6c2.8-1.9,12-10,26.5-41.9
		c9.2-20.2,16-39.9,16.8-42.3c0.1-0.2,0.1-0.3,0.1-0.3l28.4,9.6c0,0.1-0.1,0.2-0.1,0.4c-0.8,2.4-6.3,19.1-9.8,37.4
		c-5.6,28.4-2.3,38-1.2,40.2c3.1-0.6,15.7-5,42.2-38c17.6-22,31.7-44.6,31.8-44.9l27.2,12.1c0,0.2-4.5,15.7-8.1,33.2
		c-2,9.8-3.2,17.3-3.8,23c7.4-8.4,18.7-22.5,35.4-46c19.4-27.3,36.2-53.5,36.4-53.8l25.6,15.6c-11.2,19.4-23.8,52.4-18.5,64.1
		c0.4,1,1.2,2.6,5.4,3.5c27.2,4.5,74-29.3,97.1-51.7l21.7,20.7c-0.1,0.1-8.3,9.5-16.3,20.8c-8.5,12-11.8,19.3-13.2,23.2
		c82.8,23.5,152.2-86,152.9-87.2l27,12.7c-0.7,2.1-15.7,46.4-52.2,99.3c78.1-3.8,137.2-121.2,137.8-122.5l26.9,13.3l-62.6,126.8
		c4.5-2.6,9.8-6,16.2-10.6c17.3-12.5,38.5-30.9,63-54.6c42.1-40.8,79.3-83.5,79.7-83.9l24.3,17.3c-0.8,1.5-20.8,36.3-47.1,75.4
		c-14.3,21.3-27.6,39.5-39.7,54.5c3.1-2,6.3-4.2,9.7-6.7c24.7-17.4,46-36.3,46.2-36.5l21.6,20.6c-0.1,0.2-13.5,16.8-26.5,36
		c-16.6,24.5-21.6,36.8-23.1,42.1l0.5,0.4c0.7,0.6,2.5,0.4,3.3,0.3c8.7-1.1,36-11.8,102.6-87.3c37.9-43,69.5-85.6,69.8-86l25.5,15.6
		c-2.3,4.7-54.2,108.4-132.1,200.7c21.5-6.1,57.5-26.8,115.9-84.5c54.6-53.9,100.8-112.9,101.2-113.5l29.9-38.4l-3.1,48.6
		c-0.2,2.7-4.6,56.7-81,143.6c20.8-16.1,43.1-37.3,66.7-63c43.5-47.6,75.5-94.4,75.8-94.9l26.6,13.2c-0.5,1.5-12.4,37.2-38.6,85.8
		c-14.3,26.6-34.7,60.1-61.5,94.1c23.7-20.4,50-47.8,78.1-81.5c50.4-60.4,89.5-120.5,89.9-121.1l26.7,13.3
		c-0.6,1.8-15.9,43.8-46.7,98.4c-24.3,43.2-62.6,101.4-114,149.8c47.2-2.6,105.9-28.2,172.2-75.3c64.6-45.9,113.5-96.2,114-96.7
		l24,17.5c-0.8,1.5-20.2,37.6-52.4,81.5c-33.3,45.3-67,81.2-100.5,107.1c44.4-0.6,92.6-28.6,128.4-55.1
		c51.1-37.9,89.4-81.6,89.8-82.1l23.9,18c-1.6,2.5-40.8,62.4-111.4,121.6c-41.6,34.9-85.5,62.3-130.5,81.4
		c-56.6,24-115,34.9-173.6,32.3c-25-1.2-58.1-19.1-108.2-46.1c-126-68-360.6-194.6-742-180.4c-497.3,18.9-708,173.2-931.1,336.6
		C241.5,610.7,154.1,674.7,50.1,730.8z M1033.8,165.1c-235.3,45.3-522.1,138.2-885.2,472c56.3-36.7,108.5-75,159.7-112.5
		c108.8-79.7,221.3-162.1,367.4-225c78.6-33.9,160.5-59.6,250.4-78.7c100.5-21.4,208.4-34,330-38.6c90.8-3.4,179.7,0.9,264.2,12.7
		c72.4,10.1,143.6,26.1,211.7,47.5c124.4,39,215.2,88,281.5,123.8c43.1,23.3,77.2,41.6,95.3,42.5c92.3,4,171.3-29.2,230.9-67.8
		c-1.1,0.4-2.1,0.8-3.2,1.1c-37.1,13-70.8,14-100,3l-29.3-11.1l27-15.9c42.4-24.9,80.7-65.8,110.5-104c-9.8,7.7-20.3,15.6-31.2,23.3
		c-39.5,28.1-77.1,49.3-111.6,62.9c-44.5,17.6-84.4,22.6-118.6,15.1l-30.8-6.8l24.7-19.6c32.3-25.6,60.3-56.5,83.8-87.8
		c-57.7,63.1-106.2,97-144.3,100.8l-46.1,4.6l34.6-30.8c40.9-36.3,73-78.3,97.1-116.8c-58.8,62.7-110.4,97.3-153.6,102.8L1901,268
		l35.7-32.1c32.8-29.5,57.5-56.1,76.1-79.1c-6,6.2-12.1,12.5-18.4,18.7c-80.4,79.3-137.7,108.7-175.4,89.9l-17.8-8.9l13.5-14.7
		c16.8-18.3,32.7-37.6,47.3-56.9c-2.3,2.1-4.6,4.1-6.8,6.1c-24.4,21.2-44,32.5-59.8,34.5c-10.3,1.3-17.9-1.4-22.9-4.6
		c-6.4-2.2-11.2-6.7-13.6-13c-2.6-6.7-3.3-16.4,6.2-36.2c-32.6,19.7-54.3,23.9-68.9,13.5l-18.7-13.1l19.5-11.9
		c9.4-5.8,20.8-17,32.8-31.2c-13.9,12.1-26.4,22-37.5,29.7c-17.8,12.3-43.7,27.4-63,16.7l-12.6-6.9l22.3-45.1
		c-26.7,20.2-54.2,30.5-81.4,30.5c-9.1,0-18.2-1.2-27.3-3.5l-22.1-5.7l14-18c5.6-7.2,10.8-14.4,15.6-21.4
		c-39.6,26.8-80.4,33.9-119,20.4l-0.5-0.2c-7.5-2.9-12.7-8.8-14.5-16.4c-0.7-2.8-0.9-5.8-0.7-9c-24.5,13.4-45.9,18.7-63.9,15.5
		l-0.4-0.1c-16.1-3.2-23.6-13-27-20.6c-0.9-2-1.6-4.1-2.2-6.3c-10.4,14.2-19.5,25.6-27,34.1c-13.9,15.6-24.9,24.6-37.1,20.8
		l-0.8-0.3c-13-4.9-16-19.3-14.9-36.9c-23.6,27.8-42.8,41-59.4,41c-1.6,0-3.2-0.1-4.7-0.4l-0.4-0.1c-8.5-1.6-15.4-6.5-19.9-14.3
		c-1.4-2.4-2.6-5.1-3.5-8.2c-8.9,11.6-19.3,20.2-31.2,20.2c-2.4,0-4.9-0.3-7.4-1.1c-10.3-3.1-19-10.7-25.8-22.7
		C1066.7,146.7,1052.2,161.7,1033.8,165.1z M1712.9,160.3C1712.9,160.3,1713,160.3,1712.9,160.3
		C1712.9,160.3,1712.9,160.3,1712.9,160.3z"/>
	<path class="st1" d="M43,717.6C434.5,326.1,746.9,205,1031,150.4c37.1-6.8,44.9-89.8,44.9-89.8s4.9,60.5,31.2,68.3
		s60.5-94.7,60.5-94.7s-31.2,91.8,0,97.6c31.2,4.9,89.8-89.8,89.8-89.8s-23.4,81-7.8,86.9c15.6,4.9,94.7-118.1,94.7-118.1
		s-46.9,81-2.9,89.8c44.9,7.8,110.3-55.7,110.3-55.7s-50.8,57.6-28.3,66.4c97.6,34.2,175.7-91.8,175.7-91.8s-18.6,55.7-65.4,116.2
		c102.5,26.4,178.7-127.9,178.7-127.9l-76.2,154.3C1675.4,183.6,1833.6,2,1833.6,2s-81,141.6-128.9,170.9
		c26.4,18.6,121.1-65.4,121.1-65.4s-76.2,94.7-46.9,99.6c42,34.2,197.2-175.7,197.2-175.7s-61.5,124-150.4,220.7
		c74.2,37.1,260.7-202.1,260.7-202.1s-4.9,76.2-139.6,197.2c99.6-12.7,228.5-202.1,228.5-202.1s-46.9,141.6-160.1,242.1
		c97.6-9.8,254.8-251.9,254.8-251.9s-60.5,167.9-183.6,265.6c136.7,30.3,333.9-173.8,333.9-173.8s-77.1,144.5-178.7,204.1
		c113.3,43,268.5-135.7,268.5-135.7s-155.2,239.2-402.2,228.5c-81-3.9-326.1-246-851.4-226.5C561.4,223.6,414,517.5,43,717.6"/>
	<path class="st1" d="M43,717.6C434.5,326.1,746.9,205,1031,150.4c37.1-6.8,44.9-89.8,44.9-89.8s4.9,60.5,31.2,68.3
		s60.5-94.7,60.5-94.7s-31.2,91.8,0,97.6c31.2,4.9,89.8-89.8,89.8-89.8s-23.4,81-7.8,86.9c15.6,4.9,94.7-118.1,94.7-118.1
		s-46.9,81-2.9,89.8c44.9,7.8,110.3-55.7,110.3-55.7s-50.8,57.6-28.3,66.4c97.6,34.2,175.7-91.8,175.7-91.8s-18.6,55.7-65.4,116.2
		c102.5,26.4,178.7-127.9,178.7-127.9l-76.2,154.3C1675.4,183.6,1833.6,2,1833.6,2s-81,141.6-128.9,170.9
		c26.4,18.6,121.1-65.4,121.1-65.4s-76.2,94.7-46.9,99.6c42,34.2,197.2-175.7,197.2-175.7s-61.5,124-150.4,220.7
		c74.2,37.1,260.7-202.1,260.7-202.1s-4.9,76.2-139.6,197.2c99.6-12.7,228.5-202.1,228.5-202.1s-46.9,141.6-160.1,242.1
		c97.6-9.8,254.8-251.9,254.8-251.9s-60.5,167.9-183.6,265.6c136.7,30.3,333.9-173.8,333.9-173.8s-77.1,144.5-178.7,204.1
		c113.3,43,268.5-135.7,268.5-135.7s-155.2,239.2-402.2,228.5c-81-3.9-326.1-246-851.4-226.5C561.4,223.6,414,517.5,43,717.6"/>
	<path class="st1" d="M43,717.6C434.5,326.1,746.9,205,1031,150.4c37.1-6.8,44.9-89.8,44.9-89.8s4.9,60.5,31.2,68.3
		s60.5-94.7,60.5-94.7s-31.2,91.8,0,97.6c31.2,4.9,89.8-89.8,89.8-89.8s-23.4,81-7.8,86.9c15.6,4.9,94.7-118.1,94.7-118.1
		s-46.9,81-2.9,89.8c44.9,7.8,110.3-55.7,110.3-55.7s-50.8,57.6-28.3,66.4c97.6,34.2,175.7-91.8,175.7-91.8s-18.6,55.7-65.4,116.2
		c102.5,26.4,178.7-127.9,178.7-127.9l-76.2,154.3C1675.4,183.6,1833.6,2,1833.6,2s-81,141.6-128.9,170.9
		c26.4,18.6,121.1-65.4,121.1-65.4s-76.2,94.7-46.9,99.6c42,34.2,197.2-175.7,197.2-175.7s-61.5,124-150.4,220.7
		c74.2,37.1,260.7-202.1,260.7-202.1s-4.9,76.2-139.6,197.2c99.6-12.7,228.5-202.1,228.5-202.1s-46.9,141.6-160.1,242.1
		c97.6-9.8,254.8-251.9,254.8-251.9s-60.5,167.9-183.6,265.6c136.7,30.3,333.9-173.8,333.9-173.8s-77.1,144.5-178.7,204.1
		c113.3,43,268.5-135.7,268.5-135.7s-155.2,239.2-402.2,228.5c-81-3.9-326.1-246-851.4-226.5C561.4,223.6,414,517.5,43,717.6"/>
</g>
<path class="st4" d="M17.6,789.9c207,103.5,396.4-15.6,634.6,51.7c181.6,50.8,402.2,114.2,702,70.3
	c299.7-43,555.5-173.8,678.6-406.2c38.1-103.5,193.3,23.4,193.3,23.4s-113.3-46.9-110.3-25.4c2.9,22.5,169.9,99.6,169.9,99.6
	s-151.3-46.9-141.6-11.7c8.8,35.1,189.4,177.7,189.4,177.7s-206-154.3-222.6-132.8c-17.6,21.5,86.9,106.4,86.9,106.4
	s-171.8-106.4-232.4-75.2c-43.9,22.5,178.7,167.9,178.7,167.9s-144.5-110.3-178.7-81c-34.2,29.3,163,265.6,163,265.6
	s-224.6-242.1-247-230.4c-22.5,11.7,61.5,127.9,61.5,127.9s-109.3-121.1-139.6-100.6c-30.3,21.5,158.2,334.9,158.2,334.9
	s-204.1-321.2-289-267.5c131.8,290,83,331,83,331s-16.6-295.8-181.6-288c-83,3.9,39.1,220.7,39.1,220.7S1500.6,950,1425.4,953.9
	c137.7,261.7,88.8,367.1,88.8,367.1s22.5-223.6-164-347.6c71.3,63.5-44.9,347.6-44.9,347.6s101.5-418.8-75.2-338.8
	c-28.3,12.7-2,208.9-2,208.9s-35.1-224.6-88.8-212.8c-31.2,6.8-197.2,311.4-197.2,311.4s135.7-329,94.7-315.4
	c-30.3,9.8-86.9,145.5-86.9,145.5s27.3-133.8,0-141.6s-181.6,141.6-181.6,141.6s114.2-133.8,94.7-162.1
	c-30.3-42-64.4-43.9-106.4-27.3c-60.5,23.4-141.6,133.8-141.6,133.8s81-112.3,67.4-153.3c-22.5-67.4-255.8,129.9-255.8,129.9
	s137.7-129.9,106.4-158.2c-31.2-27.3-203.1-19.5-255.8-19.5C120.1,865,65.4,827.9,17.6,789.9"/>
<g>
	<path class="st0" d="M1521.1,1304.8l-28.5-7.8c0.1-0.5,5.1-55-12-123.2c-17.7-70.7-51.5-129.4-100.6-175.1
		c1.3,10.2,1.8,21.5,1.5,33.7c-0.8,32.6-7.3,72.9-19.2,119.8c-20.2,79.1-48.6,149-49.8,152l-28.5-9.2c0.2-0.7,16.8-69.9,24.6-145.2
		c9.7-94.2,1.5-157.3-23.2-177.8c-4.5-3.8-18.3-15.1-54.4,0.8c-2.1,3.7-9.1,22.5-3.8,102.4c3.1,46.9,9,91,9.1,91.5l-29.7,4.3
		c-0.1-0.4-7.1-44.7-19.3-91.9c-21.3-82.4-39.6-102.3-46.5-107c-2-1.4-3.3-1.7-4.1-1.7c-4.9,3.5-27.3,25-104.8,156.9
		c-43.5,74-83,146.5-83.4,147.2l-27-12.9c0.3-0.7,28.1-68.2,54.4-139.8c28.9-78.8,40.3-119.7,44.6-140.6
		c-7.4,10.1-17.9,26.8-32.1,54.6c-17.3,34-31.2,67.1-31.3,67.5l-28.5-8.8c0.1-0.3,5.8-28.4,9.2-58.9c4.8-42.2,1.9-58.4,0.1-64
		c-7.7,3-30.9,15.5-90.5,67.6c-39.4,34.4-74.9,68.8-75.3,69.1l-21.8-20.5c0.3-0.3,26.2-30.8,50.7-65c42.4-59.2,42.9-76.7,42.6-79.4
		c-22.9-31.3-47.7-37.3-88.1-21.3l-0.1,0c-46.3,17.9-113.1,98.9-134.9,128.6l-24.3-17.7c0.2-0.3,20.1-27.9,38-60
		c31.3-56.1,28.8-75.2,27.3-79.7c-0.8-2.3-1.6-2.8-3.2-3.3c-6.5-1.8-35-2.6-129.2,63.4c-52.6,36.8-99,76-99.5,76.4l-20-22.4
		c0.3-0.3,30.5-28.8,58.7-61.3c47.8-55,47.9-72.6,47.6-75.1c-4.9-3.7-22.7-11.8-86.3-15c-43.6-2.2-92.2-1.4-127.7-0.8
		c-12.5,0.2-23.3,0.4-31.3,0.4c-73.6,0.5-131.7-7.2-177.5-23.3c-42-14.8-69.2-34.9-93.5-54.2l16-25.2
		c108.1,54,212.3,45.2,322.6,35.8c97-8.2,197.2-16.8,309.4,14.9l7.3,2c176.4,49.3,395.9,110.7,688.4,67.8
		c318.2-45.6,555-186.7,667-397.5c11.7-30.9,32.5-42.5,48-46.7c28.6-7.8,66,1,111.1,26.2c32.1,17.9,56.4,37.7,57.4,38.5l-15.2,25.5
		c-0.2-0.1-20.9-8.6-43.8-16.5c-6.7-2.3-12.6-4.3-17.8-5.8c12.5,7.7,30.2,17.8,55.5,30.9c39.4,20.4,77.3,38,77.6,38.2l-10.7,27.9
		c-0.3-0.1-27.8-8.6-58-15.4c-35.9-8.2-53.4-9-61.6-8.6c6.6,9.8,27,34,90.5,88.9c45.3,39.2,90.1,74.6,90.6,75l-18.4,23.7
		c-0.4-0.3-45-34.2-93.3-67.5c-55.9-38.6-84.7-54.4-99.2-60.8c5.3,7.9,15.4,20.3,34.6,39c21.2,20.7,42.6,38.3,42.8,38.4l-17.4,24.3
		c-0.4-0.3-42.9-26.5-92-48.5c-74.9-33.6-108-32.6-122.1-27.6c3.7,7.6,19.6,29.6,87,80.5c9.9,7.5,19.8,14.7,29.2,21.5
		c33.3,21,59.9,41.2,61.2,42.2l-17.3,24.5c-0.4-0.2-27.4-17.9-60.6-41.7c-5.1-3.2-10.3-6.4-15.6-9.5c-59.5-35.2-78.7-33.1-83.3-31.5
		c0,3.7,1.8,16.1,19.6,47.5c13,23,32.1,51.8,56.8,85.7c42.3,58.1,86.8,111.4,87.2,112l-22.5,19.8c-0.5-0.5-51.3-55.5-106.1-111
		c-63.7-64.5-96.4-92.9-112.9-105.4c4,9.4,11.3,23.8,24.6,45.3c16.2,26.2,32.9,49.4,33.1,49.6l-23.2,19
		c-0.3-0.3-25.5-27.4-54.6-53.1c-38.3-33.8-56.7-41.8-64.1-43.5c1,7.1,5,23.1,19.9,57c12.7,28.9,31.2,66,55,110.1
		c40.6,75.5,82.8,146.2,83.3,146.9l-25.5,15.7c-0.4-0.6-40.2-63.3-90.9-127.6c-64.6-81.8-119.4-131.2-154.2-138.9
		c-3.5-0.8-6.7-1.1-9.6-1c51.5,114.8,80.3,203.9,85.7,264.8c4.4,49.2-8.1,65.2-13.7,69.8l-22.9,18.8l-1.7-29.6
		c-0.2-2.8-17.7-280.9-165.9-273.9c-7.6,0.4-10.1,3.1-11.6,5.8c-3.1,5.6-10.5,29.8,22.3,108.5c18.5,44.5,40.5,83.6,40.7,84
		l-26.1,14.7c-0.3-0.5-27.9-49.2-64.1-96.6c-35.6-46.6-61.8-69.5-80.3-80.2C1567.6,1198.2,1523.1,1300.4,1521.1,1304.8z
		 M1263.7,934.5c15.6,0,29.2,4.8,40.8,14.4c19.6,16.3,31.4,44.9,36,87.7c2.2,20.4,2.6,44,1.4,70.4c5.9-28.8,9.1-54.1,9.6-75.5
		c0.8-34.2-5.4-58.2-18-69.4l18.3-23.7c39.6,26.3,73,58.9,99.5,97.1c-12.2-29.4-27.2-61.8-45.9-97.2l-10.9-20.7l23.4-1.2
		c21.4-1.1,44.8,9.4,71.4,32.1c13,11.1,26.8,25.2,41.1,42.1c-10.4-36.8-10.8-63.3-1.4-80.3c5.1-9.1,15.5-20.2,36.4-21.2
		c48.1-2.3,89.2,18.5,121.6,60.8c-10.1-25.1-22-52.9-36-83.5l-5.4-11.8l11-7c12.8-8.2,27.8-10.4,44.8-6.6
		c34,7.6,77.4,40.9,129.4,99.4c-16-31.4-28.5-58-37.3-79.4c-7.4-18.1-12.2-32.3-14.5-43.5c-1.4-6.5-5.5-26.3,7.9-35.9l0.3-0.2
		c16.8-11.4,41.7-3.4,79.5,25.9c-10.5-22.6-10.8-33.2-9.1-40.5c1.5-6.5,5.5-11.7,11.1-14.6c12.7-6.6,28.4,1.4,64.7,33.1
		c12,10.4,26,23.4,41.9,38.7c-7.5-12.1-13.9-23.1-19-32.9c-13.2-25.3-25.9-56.4-7.5-72.2c7.3-6.2,16.9-9.1,29.1-8.4
		c-35.2-32.5-40.7-48.5-40.1-59.7c0.5-8.9,5.5-16.5,13.9-20.8c29.7-15.3,79.4-7,151.9,25.5c0.7,0.3,1.4,0.6,2.1,0.9
		c-15.7-19.8-24.6-39.2-13.5-53.5c10.7-13.9,31.1-7.1,51.1,2.9c-16.7-18.6-20.9-27.8-22.5-33.8c-2.4-8.7-0.2-17.1,5.8-23
		c7.3-7.1,19.1-9.8,38.1-8.7c-15.2-8.3-27.9-15.9-38.1-22.4c-23.5-15.2-33.1-25.2-34.5-35.7c-0.9-6.9,1.7-13.6,7.2-17.8
		c2-1.6,4.4-2.8,7.4-3.7c-14.7-4.2-28.8-5.7-40.5-2.5c-13,3.6-22.2,13.1-28.1,29.1l-0.3,0.9l-0.5,0.9
		c-60.5,114.3-154.3,208.6-278.8,280.1c-115.4,66.3-253.6,111.4-410.9,133.9c-71.1,10.4-137.9,14.8-200.8,14.8
		c-201.6,0-363.5-45.3-500-83.5l-7.4-2.1c-106.9-30.2-204.4-21.9-298.7-13.9c-33.5,2.9-66,5.6-98.2,6.7c8.9,0.2,18.2,0.3,27.9,0.2
		c7.9,0,18.6-0.2,30.9-0.4c35.9-0.6,85.2-1.4,129.8,0.8c74.3,3.7,95.2,14.1,105.1,22.8l0.2,0.2c4.3,3.9,9.4,10.9,9.5,22.3
		c0.1,8.7-2.3,22.1-17.9,46.3c89.2-60.1,121.6-61.3,138.4-56.6c11.4,3.2,19.7,11.2,23.5,22.7c4.1,12.3,2.7,28.8-4.5,49.8
		c19.5-17.3,40-32.2,59-39.5c25.8-10.2,46.8-13,66.1-9c22.1,4.6,41.1,18.2,57.9,41.5l0.2,0.3c10.5,15.2,1.9,37.1-5.4,52.3
		c-1.9,4-4.1,8.2-6.6,12.6c62.9-51.9,79.9-53.4,90.7-50.3c19.3,5.5,21.6,30.3,22.3,38.4c0.7,7.4,0.9,16,0.5,26
		c28.9-53.6,44.7-64.7,55.3-68.2c7.9-2.6,15.7-0.7,21,4.9c8.1,8.7,10.1,23.4-3.5,72.6c-5.6,20.2-13.6,45.2-23.8,74.8
		c22.3-37.4,41.5-68,57.1-91.1c33.8-50,44.8-56,53.2-57.8c6.7-1.5,17.1-1.6,28.4,6.2c13.5,9.2,26,28.5,37.8,58.2
		c1.8-40.8,10.1-54.3,21.7-59.5C1234.2,938.4,1249.7,934.5,1263.7,934.5z M1229.6,973.4C1229.6,973.4,1229.5,973.4,1229.6,973.4
		C1229.5,973.4,1229.6,973.4,1229.6,973.4z"/>
	<path class="st1" d="M8.8,766.4c207,103.5,396.4-15.6,634.6,51.7c181.6,50.8,402.2,114.2,702,70.3
		c299.7-43,555.5-173.8,678.6-406.2c38.1-103.5,193.3,23.4,193.3,23.4s-113.3-46.9-110.3-25.4c2.9,22.5,169.9,99.6,169.9,99.6
		s-151.3-46.9-141.6-11.7c8.8,35.1,189.4,177.7,189.4,177.7S2120.6,590.7,2104,612.2c-16.6,21.5,86.9,106.4,86.9,106.4
		s-171.8-106.4-232.4-75.2c-43.9,22.5,178.7,167.9,178.7,167.9s-144.5-110.3-178.7-81c-34.2,29.3,163,265.6,163,265.6
		s-223.6-242.1-246-230.4c-22.5,11.7,61.5,127.9,61.5,127.9s-111.3-120.1-141.6-99.6c-30.3,21.5,157.2,334.9,157.2,334.9
		s-204.1-322.2-288-268.5c132.8,290.9,83,332,83,332s-16.6-295.8-181.6-288c-83,3.9,39.1,220.7,39.1,220.7s-111.3-197.2-186.5-193.3
		c137.7,261.7,88.8,367.1,88.8,367.1s22.5-223.6-164-347.6c71.3,63.5-44.9,347.6-44.9,347.6s101.5-418.8-75.2-338.8
		c-28.3,12.7-2,208.9-2,208.9s-35.1-224.6-88.8-212.8c-31.2,6.8-197.2,311.4-197.2,311.4s135.7-329,94.7-315.4
		c-30.3,9.8-86.9,145.5-86.9,145.5s27.3-133.8,0-141.6s-181.6,141.6-181.6,141.6s114.2-133.8,94.7-162.1
		c-30.3-42-64.4-43.9-106.4-27.3c-60.5,23.4-141.6,133.8-141.6,133.8s81-112.3,67.4-153.3c-22.5-67.4-255.8,129.9-255.8,129.9
		s137.7-129.9,106.4-158.2c-31.2-27.3-203.1-19.5-255.8-19.5C111.3,841.6,56.6,804.5,8.8,766.4"/>
	<path class="st1" d="M8.8,766.4c207,103.5,396.4-15.6,634.6,51.7c181.6,50.8,402.2,114.2,702,70.3
		c299.7-43,555.5-173.8,678.6-406.2c38.1-103.5,193.3,23.4,193.3,23.4s-113.3-46.9-110.3-25.4c2.9,22.5,169.9,99.6,169.9,99.6
		s-151.3-46.9-141.6-11.7c8.8,35.1,189.4,177.7,189.4,177.7S2120.6,590.7,2104,612.2c-16.6,21.5,86.9,106.4,86.9,106.4
		s-171.8-106.4-232.4-75.2c-43.9,22.5,178.7,167.9,178.7,167.9s-144.5-110.3-178.7-81c-34.2,29.3,163,265.6,163,265.6
		s-223.6-242.1-246-230.4c-22.5,11.7,61.5,127.9,61.5,127.9s-111.3-120.1-141.6-99.6c-30.3,21.5,157.2,334.9,157.2,334.9
		s-204.1-322.2-288-268.5c132.8,290.9,83,332,83,332s-16.6-295.8-181.6-288c-83,3.9,39.1,220.7,39.1,220.7s-111.3-197.2-186.5-193.3
		c137.7,261.7,88.8,367.1,88.8,367.1s22.5-223.6-164-347.6c71.3,63.5-44.9,347.6-44.9,347.6s101.5-418.8-75.2-338.8
		c-28.3,12.7-2,208.9-2,208.9s-35.1-224.6-88.8-212.8c-31.2,6.8-197.2,311.4-197.2,311.4s135.7-329,94.7-315.4
		c-30.3,9.8-86.9,145.5-86.9,145.5s27.3-133.8,0-141.6s-181.6,141.6-181.6,141.6s114.2-133.8,94.7-162.1
		c-30.3-42-64.4-43.9-106.4-27.3c-60.5,23.4-141.6,133.8-141.6,133.8s81-112.3,67.4-153.3c-22.5-67.4-255.8,129.9-255.8,129.9
		s137.7-129.9,106.4-158.2c-31.2-27.3-203.1-19.5-255.8-19.5C111.3,841.6,56.6,804.5,8.8,766.4"/>
</g>
</svg>
