<?xml version="1.0" encoding="utf-8"?>
<!-- Generator: Adobe Illustrator 22.0.1, SVG Export Plug-In . SVG Version: 6.00 Build 0)  -->
<svg version="1.1" id="Layer_1" xmlns="http://www.w3.org/2000/svg" xmlns:xlink="http://www.w3.org/1999/xlink" x="0px" y="0px"
	 viewBox="0 0 2500 1992" enable-background="new 0 0 2500 1992" xml:space="preserve">
<path fill="#FF0000" d="M2287.69995,558.29999v-433H212.60001v433H50.3v887.29999H2447V558.20001L2287.69995,558.29999
	L2287.69995,558.29999z"/>
<path fill="#EB1019" d="M6.9,1464.40002v-949.5h162.39999v-433H2331v433h159.19995v949.5H6.9z M74.7,1430.30005l2339.19995,2.09998
	l-10.1001-830.79999h-159.30005V168.5H255.89999v433.09998H93.5L77.7,1402.8999L74.7,1430.30005L74.7,1430.30005z"/>
<path fill="#FFFFFF" d="M320.79999,78.3v195.10002l74,100.10001l217.39996-73.80002L611.20001,5L320.79999,78.3L320.79999,78.3z"/>
<path fill="#BD101D" stroke="#BD101D" d="M365.79999,1073.80005l490.60004,110.90002L2132.5,1065.80005l0.30005,387h-1768
	L365.79999,1073.80005L365.79999,1073.80005z M1826,799.09998l-133.30005-55.29999L1415.3999,554.5L1084,655.29999l-718.5-54.40002
	v254.89996l455.59998,130.70001L2122.8999,870.89996V605L1826,799.09998z"/>
<path fill="#FFFFFF" d="M169.10001,431.70001L87,518.59998V751.5l115.89999,49.40002v-134.5l49.3,38.70001v-91.90002h113.2
	l209.50003,315.39996l77.20001,21.09998L757,1384.19995l54.40002,22.59998l38.5,159h303.5L1007.5,962.59991l412.30005-267.70001
	L1644,884.3999l54.5-21.29999l20.69995,56.29999l403.6001-36.20001l-35-89.40002l-227.09998-55.5l-411.20007-335l-448,170
	L863.79999,391.89999L1071.19995,181h197.69995l78,65.7V181h155.40002l-37.5-87.2l-455.09998-72.1L589.59998,290.79999
	L169.10001,431.70001z"/>
<g>
	<g>
		<path fill="#FCFCFC" d="M390.31543,1870.82617c-69.72412,0-125.47461-13.00781-165.70264-38.66309
			c-41.42139-26.41602-64.23291-65.33691-64.23291-109.59277c0-50.1709,27.7915-93.0752,78.25537-120.80957
			c41.05664-22.56543,95.16943-34.49219,156.48877-34.49219c43.09717,0,83.89111,5.09375,106.4624,13.29395l38.85547,14.11523
			l-47.42725,118.25879l-34.4209-9.44141c-12.54492-3.44141-33.15576-7.54297-60.10352-7.54297
			c-21.36572,0-40.4834,3.73926-52.45117,10.25879c-9.97021,5.43164-9.97021,9.66602-9.97021,12.19629
			c0,11.35254,24.24756,23.09473,64.8252,23.09473c22.90479,0,46.64404-3.08008,57.35156-5.97754l37.56689-10.16602
			l36.30225,120.90332l-36.83838,12.2666C478.23975,1864.20117,440.52832,1870.82617,390.31543,1870.82617z"/>
		<path fill="#FCFCFC" d="M639.87402,1870.82617c-44.48389,0-84.23389-9.10449-114.95215-26.33008
			c-39.10938-21.92969-60.64746-55.67578-60.64746-95.02148c0-38.24121,19.68213-71.58984,55.4209-93.90332
			c31.44678-19.63281,74.99902-30.01074,125.94922-30.01074c45.75342,0,86.06201,9.8291,116.56885,28.4248
			c36.20605,22.07031,56.14551,54.84473,56.14551,92.28613c0,40.15234-21.53271,74.64746-60.63184,97.13086
			C726.52734,1861.34277,685.77441,1870.82617,639.87402,1870.82617z M639.00928,1748.67383
			c0.80664,0.10938,1.88184,0.19531,3.26904,0.19531c0.49414,0,0.94189-0.01172,1.34521-0.03223
			c0.00488-0.20313,0.00781-0.41797,0.00781-0.64355c0-0.22656-0.00391-0.44043-0.01123-0.63965
			c-0.39453-0.02246-0.84082-0.03613-1.3418-0.03613c-1.37842,0-2.4541,0.08105-3.26758,0.18457
			c-0.00586,0.15527-0.00879,0.31934-0.00879,0.49121C639.00195,1748.36328,639.00439,1748.52344,639.00928,1748.67383z"/>
		<path fill="#FCFCFC" d="M912.50732,1870.82617c-36.6377,0-66.63428-8.36719-89.15674-24.86914
			c-26.28613-19.25977-40.76221-49.08887-40.76221-83.99219v-132.56152h329.08057v142.81055
			c0,18.74805,0.60742,36.1416,1.80518,51.69727l3.31689,43.07129h-155.2168l-0.37402-2.14844
			C947.45313,1868.5332,931.33643,1870.82617,912.50732,1870.82617z M953.52637,1752.56543L953.52637,1752.56543z"/>
		<path fill="#FCFCFC" d="M1251.97754,1870.82617c-48.22461,0-89.7168-9.59766-119.99072-27.75684
			c-36.16992-21.69531-56.08984-54.93457-56.08984-93.59473c0-36.17285,19.65869-69.62109,53.93457-91.76855
			c33.01221-21.33008,77.66748-32.14551,132.7251-32.14551c17.68652,0,44.1084,1.1582,69.54395,6.67285l42.52832,9.22266
			l-29.36133,95.69434l27.58398,113.57129l-36.13184,11.00293C1312.01465,1869.24707,1277.00098,1870.82617,1251.97754,1870.82617z"
			/>
		<path fill="#FCFCFC" d="M1325.93164,1866.98242v-309.32227h170.88086v70.20215c9.11035-1.50781,18.71484-2.30176,28.28125-2.30176
			c36.7041,0,66.87793,8.76855,89.68457,26.0625c25.94531,19.6748,40.23438,49.64844,40.23438,84.39941v130.95996H1325.93164z
			 M1484.07813,1743.85254L1484.07813,1743.85254z"/>
		<path fill="#FCFCFC" d="M1770.79785,1869.54492c-51.85742,0-83.25684-2.21582-100.46582-4.0752l-35.7041-3.85645v-283.72852
			l35.92188-3.68164c31.54395-3.23242,73.46484-5.0127,118.04004-5.0127c72.67969,0,119.40625,7.22559,161.28125,24.94043
			c57.2793,24.14746,88.84961,66.24219,88.84961,118.51074c0,53.27148-28.98145,97.23438-81.60449,123.78906
			C1913.66309,1858.39941,1850.96777,1869.54492,1770.79785,1869.54492z M1805.50879,1742.5957
			c19.03906-1.29883,34.70117-4.98926,45.02246-10.70898c10.22559-5.66602,11.05762-10.61719,11.05762-16.04199
			c0-3.19629,0-6.50098-8.77148-11.10742c-6.31055-3.31445-20.50488-8.67383-47.30859-9.60547V1742.5957z"/>
		<path fill="#FCFCFC" d="M2140.56152,1869.54492c-51.66211,0-83.01074-2.55273-97.09961-4.0752l-35.7041-3.85645v-283.22656
			l35.36816-4.12207c21.39453-2.49414,70.16504-5.07422,114.74609-5.07422c55.33105,0,83.86816,2.58887,112.98438,10.25879
			c20.19434,5.20898,37.83203,13.93945,51.01172,25.25098c18.33594,15.73828,28.43359,36.7832,28.43359,59.25879
			c0,9.35156-1.99414,25.23633-13.07715,41.15918c15.64746,15.87207,24.13672,35.91504,24.13672,57.4873
			c0,35.33105-23.18555,66.31055-63.61035,84.99316l-0.54883,0.24902
			C2263.40625,1862.85352,2215.09668,1869.54492,2140.56152,1869.54492z"/>
	</g>
	<g>
		<path d="M482.63867,1820.57715c-13.46387,4.4834-48.08496,10.24902-92.32324,10.24902
			c-131.27197,0-189.93555-50.28418-189.93555-108.25586c0-74.94531,88.47607-115.30176,194.74414-115.30176
			c41.83398,0,76.93604,5.125,92.8042,10.88965l-18.75342,46.76172c-16.34863-4.48438-40.39111-8.96777-70.68457-8.96777
			c-54.33643,0-102.42139,19.53711-102.42139,62.45508c0,37.15234,37.9873,63.09473,104.8252,63.09473
			c25.00439,0,52.41309-3.20215,67.80029-7.36621L482.63867,1820.57715z"/>
		<path d="M778.35889,1746.27148c0,53.80762-62.0293,84.55469-138.48486,84.55469c-73.56982,0-135.59961-29.4668-135.59961-81.35156
			c0-48.04297,50.48926-83.91406,141.37012-83.91406C724.02295,1665.56055,778.35889,1698.86914,778.35889,1746.27148z
			 M599.00195,1748.19336c0,22.41992,13.46387,40.67578,43.27637,40.67578c25.96582,0,41.35303-14.41309,41.35303-40.67578
			c0-22.09961-12.50195-40.67578-41.35303-40.67578C610.54248,1707.51758,599.00195,1727.69531,599.00195,1748.19336z"/>
		<path d="M1071.66895,1772.21387c0,24.02148,0.96143,42.27734,1.92334,54.76855h-78.37891l-3.84668-22.09961h-1.92334
			c-7.21289,7.36621-28.37012,25.94336-76.93604,25.94336c-54.81689,0-89.91895-22.74023-89.91895-68.86133v-92.56152h90.88086
			v81.99219c0,20.49805,11.05908,31.3877,33.65918,31.3877c19.71484,0,28.85107-9.28809,32.21729-15.69336
			c1.44238-2.24219,1.44238-4.48438,1.44238-7.0459v-90.64063h90.88086V1772.21387z"/>
		<path d="M1325.06738,1823.45898c-16.83008,5.125-44.23828,7.36719-73.08984,7.36719
			c-83.66797,0-136.08057-31.70801-136.08057-81.35156c0-43.23828,46.16162-83.91406,146.65967-83.91406
			c17.31055,0,40.3916,1.28125,61.06738,5.76465l-13.46289,43.87891c-9.13672-2.5625-22.11914-4.48438-42.31543-4.48438
			c-34.14063,0-58.66357,14.7334-58.18311,36.5127c0,25.94238,29.81299,37.15234,61.54932,37.15234
			c16.83008,0,30.77441-1.28125,43.27637-4.4834L1325.06738,1823.45898z"/>
		<path d="M1365.93164,1597.66016h90.88086v88.39844h0.96191c8.65527-6.72656,18.27246-11.20996,30.29395-15.05371
			c10.57813-3.52246,24.04199-5.44434,37.02539-5.44434c54.81641,0,89.91895,24.34082,89.91895,70.46191v90.95996h-90.88086
			v-81.99219c0-20.49805-11.05957-31.3877-34.62109-31.3877c-18.75293,0-26.92773,7.68652-30.77441,13.13184
			c-1.92383,2.5625-1.92383,6.08496-1.92383,8.64746v91.60059h-90.88086V1597.66016z"/>
		<path d="M1674.62793,1613.99512c31.25488-3.20313,72.12793-4.80469,113.96191-4.80469
			c68.28027,0,110.11426,6.72656,145.69727,21.7793c37.9873,16.01465,64.43359,42.27734,64.43359,81.67188
			c0,44.83984-27.88867,72.06348-59.625,88.07813c-39.91113,20.17773-100.0166,28.8252-168.29785,28.8252
			c-48.08496,0-78.37891-1.92188-96.16992-3.84375V1613.99512z M1765.50879,1782.46289
			c5.28906,0.64063,14.42578,0.64063,21.15723,0.64063c66.35742,0.64063,114.92285-20.17773,114.92285-67.25879
			c0-42.91797-45.68066-60.85352-104.34375-60.85352c-16.83008,0-26.92773,0.96094-31.73633,1.60156V1782.46289z"/>
		<path d="M2047.75781,1613.99512c19.23438-2.24219,66.83789-4.80469,110.11426-4.80469
			c50.9707,0,77.41699,2.24219,102.90234,8.96777c27.4082,7.04688,49.52734,22.74023,49.52734,45.80078
			c0,18.25586-15.38672,35.55078-54.81641,44.83984v0.63965c40.3916,7.04688,65.87598,26.26367,65.87598,53.16699
			c0,21.13867-16.8291,37.79395-40.3916,48.68359c-25.96582,11.5293-68.28027,18.25586-140.4082,18.25586
			c-44.23828,0-75.0127-1.92188-92.80371-3.84375V1613.99512z M2137.67676,1692.78418h19.23438
			c42.31445,0,61.54883-7.68652,61.54883-21.13867c0-12.1709-15.86816-19.2168-48.08496-19.2168
			c-17.31055,0-26.44727,0.64063-32.69824,1.28125V1692.78418z M2137.67676,1785.02539
			c7.21289,0.64063,15.86816,0.64063,29.33203,0.64063c31.73633,0,58.18262-7.36621,58.18262-26.2627
			c0-18.25684-27.4082-24.3418-63.95313-24.3418h-23.56152V1785.02539z"/>
	</g>
</g>
</svg>
