<?xml version="1.0" encoding="utf-8"?>
<!-- Generator: Adobe Illustrator 22.0.1, SVG Export Plug-In . SVG Version: 6.00 Build 0)  -->
<svg version="1.1" id="Layer_1" xmlns="http://www.w3.org/2000/svg" xmlns:xlink="http://www.w3.org/1999/xlink" x="0px" y="0px"
	 viewBox="0 0 841.9 595.3" style="enable-background:new 0 0 841.9 595.3;" xml:space="preserve">
<style type="text/css">
	.st0{display:none;}
	.st1{display:inline;}
	.st2{fill:#FFFFFF;}
	.st3{fill:#2062AF;}
	.st4{fill:#3C9CD7;}
	.st5{fill:url(#SVGID_1_);}
	.st6{fill:url(#SVGID_2_);}
	.st7{fill:url(#SVGID_3_);}
	.st8{opacity:5.000000e-02;}
	.st9{fill:url(#SVGID_4_);}
	.st10{opacity:5.000000e-02;enable-background:new    ;}
</style>
<g>
	<g class="st0">
		<g class="st1">
			<g class="st0">
				<g class="st1">
					<g>
						<polygon class="st2" points="270,528.3 234.9,148.6 618.5,148.6 583.4,528.3 426.7,570.6 						"/>
					</g>
					<g>
						<polygon class="st2" points="404.7,535.3 404.7,176.2 586.7,176.2 557.9,506.2 427,541.5 						"/>
					</g>
					<g>
						<g>
							<rect x="305.2" y="56.1" class="st2" width="95.8" height="106.7"/>
						</g>
						<g>
							<polygon class="st2" points="379.1,162.8 379.1,115.6 385.3,115.6 379.1,109.4 379.1,56.1 474.9,56.1 474.9,162.8 							"/>
						</g>
						<g>
							<polygon class="st2" points="452.4,162.8 452.4,115.6 458.6,115.6 452.4,109.4 452.4,56.1 548.2,56.1 548.2,162.8 							"/>
						</g>
					</g>
					<g>
						<g>
							<polygon class="st2" points="305.8,309.8 556.6,205.3 547.5,296.1 312.9,396.4 							"/>
						</g>
						<g>
							<polygon class="st2" points="305.8,309.8 448.6,250.3 448.6,338.3 312.9,396.4 							"/>
						</g>
						<g>
							<polygon class="st2" points="404.6,268.6 556.6,205.3 547.5,296.1 404.6,357.2 							"/>
						</g>
						<g>
							<path class="st2" d="M320.1,467.9l-7.1-81.8h-1l-6.8-84.2h241.9l-14.4,166.5l-106.2,30.9L320.1,467.9z M426,408.8l26.9-7.6
								l0.9-14.7l-53.9-0.1l1.3,16.1L426,408.8z"/>
						</g>
						<g>
							<g>
								<polygon class="st2" points="312,386.1 305.3,301.9 448.6,301.9 448.6,386.5 								"/>
							</g>
							<g>
								<polygon class="st2" points="320,467.9 311.1,364.8 397.9,364.8 401,402.5 425.9,408.8 448.6,402.4 448.6,505.9 								"/>
							</g>
						</g>
						<g>
							<polygon class="st2" points="306,303 295.4,217.8 555.4,217.8 546.7,303 							"/>
						</g>
						<g>
							<polygon class="st2" points="306,303 295.4,217.8 448.6,217.8 448.6,303 							"/>
						</g>
					</g>
				</g>
			</g>
			<g>
				<g>
					<g>
						<polygon class="st2" points="285.8,515 253.5,165.6 599.9,165.6 567.6,515 426.7,553 						"/>
					</g>
					<g>
						<polygon class="st2" points="421.7,193.2 568.1,193.2 542,492.8 421.7,525.3 						"/>
					</g>
					<g>
						<g>
							<polygon class="st2" points="322.2,145.8 322.2,73.1 384,73.1 384,105.3 354.4,105.3 354.4,115.6 384,115.6 384,145.8 
															"/>
						</g>
						<g>
							<path class="st2" d="M396.1,145.8v-30.2h13.4c-1.3-1.2-2.4-2.3-3.5-3.4l-0.1-0.1c-1-1-2.1-2-3.1-3.1
								c-1.2-1.1-2.4-2.3-3.7-3.6l-2.9-2.9V73.1H458v32.2h-13.4l13.4,13.2v27.3H396.1z"/>
						</g>
						<g>
							<path class="st2" d="M469.4,145.8v-30.2h13.5c-1.3-1.2-2.4-2.3-3.5-3.4l-0.1-0.1c-1-1-2.1-2-3.1-3.1
								c-1.2-1.1-2.4-2.3-3.7-3.6l-2.9-2.9V73.1h61.8v32.2H518l13.4,13.2v27.3H469.4z"/>
						</g>
					</g>
					<g>
						<g>
							<polygon class="st2" points="323.9,320.7 536.8,232 531.6,284.4 327.8,371.5 							"/>
						</g>
						<g>
							<polygon class="st2" points="323.9,320.7 431.6,275.8 431.6,327.1 327.8,371.5 							"/>
						</g>
						<g>
							<polygon class="st2" points="421.6,280 536.8,232 531.6,284.4 421.6,331.3 							"/>
						</g>
						<g>
							<polygon class="st2" points="336.1,454.9 329.8,381.8 382.4,381.8 385.2,416.1 426.2,426.4 469,414.3 471.8,369.6 
								327.9,369.1 323.9,318.9 528.7,318.9 516.9,455.3 426.7,481.6 							"/>
						</g>
						<g>
							<g>
								<polygon class="st2" points="327.7,369.1 323.7,318.9 431.6,318.9 431.6,369.4 								"/>
							</g>
							<g>
								<polygon class="st2" points="335.9,454.9 329.6,381.8 382.2,381.8 385.1,416.1 431.6,427.8 431.6,483.1 								"/>
							</g>
						</g>
						<g>
							<polygon class="st2" points="320.9,286 314.7,234.8 536.6,234.8 531.3,286 							"/>
						</g>
						<g>
							<polygon class="st2" points="320.9,286 314.7,234.8 431.6,234.8 431.6,286 							"/>
						</g>
					</g>
				</g>
			</g>
		</g>
	</g>
	<g>
		<g>
			<g class="st0">
				<g class="st1">
					<g>
						<polygon class="st2" points="279.3,520.5 245.9,158.6 607.5,158.6 574.1,520.5 426.7,560.2 						"/>
					</g>
					<g>
						<polygon class="st2" points="414.7,527.7 414.7,186.2 575.8,186.2 548.5,498.4 427,531.1 						"/>
					</g>
					<g>
						<g>
							<rect x="315.2" y="66.1" class="st2" width="75.8" height="86.7"/>
						</g>
						<g>
							<path class="st2" d="M389.1,152.8v-27.2h20.6l-8.8-8.6c-2.5-2.4-5.1-5-8.3-8.2l-3.5-3.5V66.1h75.8v86.7L389.1,152.8
								L389.1,152.8z"/>
						</g>
						<g>
							<path class="st2" d="M462.4,152.8v-27.2H483l-8.8-8.6c-2.6-2.6-5.1-5-8.3-8.2l-3.5-3.5V66.1h75.8v86.7L462.4,152.8
								L462.4,152.8z"/>
						</g>
					</g>
					<g>
						<g>
							<polygon class="st2" points="316.4,316.2 545,221 538.1,289.2 321.7,381.7 							"/>
						</g>
						<g>
							<polygon class="st2" points="316.4,316.2 438.6,265.3 438.6,331.7 321.7,381.7 							"/>
						</g>
						<g>
							<polygon class="st2" points="414.6,275.3 545,221 538.1,289.2 414.6,342 							"/>
						</g>
						<g>
							<path class="st2" d="M329.5,460.2l-7.3-84.1h-0.9l-5.2-64.2h220.2l-12.9,148.8l-96.8,28.2L329.5,460.2z M391.8,410.5
								l34.3,8.7l36.3-10.2l2-32.4l-75.4-0.2L391.8,410.5z"/>
						</g>
						<g>
							<g>
								<polygon class="st2" points="321.2,376.1 316.1,311.9 438.6,311.9 438.6,376.5 								"/>
							</g>
							<g>
								<polygon class="st2" points="329.4,460.2 322,374.8 388.7,374.8 391.6,410.5 426,419.1 438.6,415.6 438.6,492.5 								"/>
							</g>
						</g>
						<g>
							<polygon class="st2" points="314.8,293 306.7,227.8 544.3,227.8 537.7,293 							"/>
						</g>
						<g>
							<polygon class="st2" points="314.8,293 306.7,227.8 438.6,227.8 438.6,293 							"/>
						</g>
					</g>
				</g>
			</g>
			<g>
				<g>
					<g>
						<polygon class="st3" points="295.1,507.2 264.5,175.6 588.9,175.6 558.3,507.2 426.7,542.6 						"/>
					</g>
					<g>
						<polygon class="st4" points="431.7,203.2 557.2,203.2 532.6,485 431.7,512.2 						"/>
					</g>
					<g>
						<g>
							<polygon class="st2" points="334.4,327.1 525.2,247.7 522.2,277.5 336.7,356.8 							"/>
						</g>
						<g>
							
								<linearGradient id="SVGID_1_" gradientUnits="userSpaceOnUse" x1="378" y1="47.2" x2="378" y2="113.2" gradientTransform="matrix(1 0 0 -1 0 404)">
								<stop  offset="0.3865" style="stop-color:#D1D3D4;stop-opacity:0"/>
								<stop  offset="1" style="stop-color:#D1D3D4"/>
							</linearGradient>
							<polygon class="st5" points="334.4,327.1 421.6,290.8 421.6,320.5 336.7,356.8 							"/>
						</g>
						<g>
							
								<linearGradient id="SVGID_2_" gradientUnits="userSpaceOnUse" x1="478.4" y1="87.8" x2="478.4" y2="156.3747" gradientTransform="matrix(1 0 0 -1 0 404)">
								<stop  offset="0.3865" style="stop-color:#D1D3D4;stop-opacity:0"/>
								<stop  offset="1" style="stop-color:#D1D3D4"/>
							</linearGradient>
							<polygon class="st6" points="431.6,286.7 525.2,247.7 522.2,277.5 431.6,316.2 							"/>
						</g>
						<g>
							
								<linearGradient id="SVGID_3_" gradientUnits="userSpaceOnUse" x1="334.7" y1="3.95" x2="517.8" y2="3.95" gradientTransform="matrix(1 0 0 -1 0 404)">
								<stop  offset="0" style="stop-color:#E8E7E5"/>
								<stop  offset="1" style="stop-color:#FFFFFF"/>
							</linearGradient>
							<polygon class="st7" points="345.5,447.2 340.7,391.8 373.2,391.8 375.8,424 426.3,436.8 478.6,422 482.4,359.6 337.1,359.1 
								334.7,328.9 517.8,328.9 507.5,447.6 426.7,471.2 							"/>
						</g>
						<g class="st8">
							<g>
								<polygon points="336.9,359.1 334.5,328.9 421.6,328.9 421.6,359.4 								"/>
							</g>
							<g>
								<polygon points="345.3,447.2 340.5,391.8 373,391.8 375.7,424 421.6,435.6 421.6,469.7 								"/>
							</g>
						</g>
						<g>
							
								<linearGradient id="SVGID_4_" gradientUnits="userSpaceOnUse" x1="326" y1="143.6" x2="525.5" y2="143.6" gradientTransform="matrix(1 0 0 -1 0 404)">
								<stop  offset="0" style="stop-color:#E8E7E5"/>
								<stop  offset="1" style="stop-color:#FFFFFF"/>
							</linearGradient>
							<polygon class="st9" points="329.8,276 326,244.8 525.5,244.8 522.3,276 							"/>
						</g>
						<g class="st10">
							<polygon points="329.8,276 326,244.8 421.6,244.8 421.6,276 							"/>
						</g>
					</g>
				</g>
			</g>
		</g>
	</g>
</g>
<g>
	<g>
		<path class="st2" d="M342.4,169.9c-16.2,0-29.1-3.3-38.3-9.9c-8.9-6.4-13.8-15.5-13.8-25.9c0-22.5,21.4-37.7,53.2-37.7
			c10,0,19.5,1.3,24.7,3.4l6.2,2.5l-9,25l-6.4-2c-3.1-0.9-8.1-2.1-14.7-2.1c-2.9,0-17.3,0.5-17.3,9.6c0,7.2,9.2,9.8,17.9,9.8
			c5.6,0,11.3-0.8,14.1-1.7l6.9-2.1l6.8,25.5l-6,2.2C362.5,168.3,353.4,169.9,342.4,169.9z"/>
		<path class="st2" d="M399.5,169.9c-11.1,0-21.8-2.2-27.5-4.4l-6.3-2.4l8.9-26.3l1.5,0.6c-5.4-4.2-8.1-9.5-8.1-15.9
			c0-15,15.9-25.1,39.5-25.1c9.9,0,17.8,1.1,25.6,3.6l7.1,2.3l-9.5,24.3c5.7,3.7,10.3,9.2,10.3,17.9
			C441.2,156.7,430.2,169.9,399.5,169.9z"/>
		<path class="st2" d="M469.2,169.9c-11.1,0-21.8-2.2-27.5-4.4l-6.3-2.4l8.9-26.3l1.5,0.6c-5.4-4.2-8.1-9.5-8.1-15.9
			c0-15,15.9-25.1,39.5-25.1c9.9,0,17.8,1.1,25.6,3.6l7.1,2.3l-9.5,24.3c5.6,3.7,10.3,9.2,10.3,17.9
			C510.9,156.7,499.9,169.9,469.2,169.9z"/>
		<path class="st2" d="M539.3,169.9c-11.4,0-22.2-1.9-28.9-5.1l-5.8-2.8l9.1-24.3c0,0,6.8,2.4,6.9,2.5v-11.5l-4.7,1.9l-9.7-24.1
			l6.1-2.8c7-3.2,18.8-5.2,30.2-5.2c21.1,0,34.7,8.3,34.7,21.2c0,3.2-0.8,7.9-4.8,12c4.6,3.6,7.3,8.5,7.3,14
			C579.8,160.7,564.3,169.9,539.3,169.9z"/>
	</g>
	<g>
		<g>
			<path d="M364.3,160.2c-3.2,1.2-11.4,2.7-21.9,2.7c-31.2,0-45.1-13.4-45.1-28.8c0-19.9,21-30.7,46.2-30.7c9.9,0,18.3,1.4,22,2.9
				l-4.5,12.4c-3.9-1.2-9.6-2.4-16.8-2.4c-12.9,0-24.3,5.2-24.3,16.6c0,9.9,9,16.8,24.9,16.8c5.9,0,12.4-0.9,16.1-2L364.3,160.2z"/>
			<path d="M378.9,145.9c5.1,1.9,13.4,4,22.1,4c7.2,0,10.8-1.7,10.8-4.6c0-2.5-3.5-4.1-12.9-6c-13.1-2.7-24-7.7-24-17.7
				c0-10.4,12.6-18.1,32.5-18.1c10.5,0,17.6,1.4,23.5,3.2l-4.9,12.6c-3.7-1.1-10.2-3-18.9-3c-6.4,0-10,1.5-10,4
				c0,3.1,4.9,4.1,14.9,6.5c14.9,3.6,22,8.9,22,17.6c0,9.6-10.2,18.5-34.7,18.5c-10.2,0-20.1-2-25-3.9L378.9,145.9z"/>
			<path d="M448.7,145.9c5.1,1.9,13.4,4,22.1,4c7.2,0,10.8-1.7,10.8-4.6c0-2.5-3.5-4.1-12.9-6c-13.1-2.7-24-7.7-24-17.7
				c0-10.4,12.6-18.1,32.5-18.1c10.5,0,17.6,1.4,23.5,3.2l-4.9,12.6c-3.7-1.1-10.2-3-18.9-3c-6.4,0-10,1.5-10,4
				c0,3.1,4.9,4.1,14.9,6.5c15,3.6,22,8.9,22,17.6c0,9.6-10.2,18.5-34.7,18.5c-10.2,0-20.1-2-25-3.9L448.7,145.9z"/>
			<path d="M517.8,146.6c3.1,1.1,11.5,3.7,19.7,3.7c7.4,0,12.7-1.6,12.7-5.6c0-4.1-6.3-6.3-13-6.3h-9.6v-11.3h9.2
				c5,0,11.5-1.2,11.5-4.8c0-2.6-3.7-4.4-10.6-4.4c-7.2,0-14.9,2.4-17.9,3.6l-4.6-11.4c5.2-2.4,15.6-4.6,27.3-4.6
				c17.1,0,27.7,6,27.7,14.2c0,6-4.5,10.6-14.5,12.9v0.2c9.2,0.9,17,5.8,17,12.9c0,10.8-13.7,17.1-33.6,17.1
				c-11.4,0-20.9-2-25.9-4.4L517.8,146.6z"/>
		</g>
	</g>
</g>
</svg>
