<svg id="Layer_1" data-name="Layer 1" xmlns="http://www.w3.org/2000/svg" xmlns:xlink="http://www.w3.org/1999/xlink" viewBox="0 0 100 100"><defs><style>.cls-1{fill:#2363af;}.cls-2{fill:#3d9cd6;}.cls-3{fill:#fff;}.cls-4{fill:url(#linear-gradient);}.cls-5{fill:url(#linear-gradient-2);}.cls-6{fill:url(#linear-gradient-3);}.cls-10,.cls-7{opacity:0.05;}.cls-8{fill:#010101;}.cls-9{fill:url(#linear-gradient-4);}.cls-10{isolation:isolate;}</style><linearGradient id="linear-gradient" x1="39.3966" y1="-245.7846" x2="39.3966" y2="-260.1548" gradientTransform="translate(0 304)" gradientUnits="userSpaceOnUse"><stop offset="0.3865" stop-color="#d2d3d4" stop-opacity="0"/><stop offset="1" stop-color="#d2d3d4"/></linearGradient><linearGradient id="linear-gradient-2" x1="61.2566" y1="-254.6244" x2="61.2566" y2="-269.5552" xlink:href="#linear-gradient"/><linearGradient id="linear-gradient-3" x1="29.9689" y1="-236.3678" x2="69.8352" y2="-236.3678" gradientTransform="translate(0 304)" gradientUnits="userSpaceOnUse"><stop offset="0" stop-color="#e8e7e5"/><stop offset="1" stop-color="#fff"/></linearGradient><linearGradient id="linear-gradient-4" x1="28.0746" y1="-266.7737" x2="71.5117" y2="-266.7737" xlink:href="#linear-gradient-3"/></defs><title>css3</title><polygon class="cls-1" points="21.347 90.962 14.684 18.763 85.316 18.763 78.653 90.962 50 98.67 21.347 90.962"/><polygon class="cls-2" points="51.089 24.772 78.414 24.772 73.058 86.128 51.089 92.051 51.089 24.772"/><polygon class="cls-3" points="29.904 51.749 71.446 34.461 70.793 40.949 30.404 58.215 29.904 51.749"/><polygon class="cls-4" points="29.904 51.749 48.89 43.845 48.89 50.312 30.404 58.215 29.904 51.749"/><polygon class="cls-5" points="51.067 42.953 71.446 34.461 70.793 40.949 51.067 49.376 51.067 42.953"/><polygon class="cls-6" points="32.32 77.898 31.275 65.836 38.351 65.836 38.918 72.847 49.913 75.634 61.3 72.411 62.128 58.825 30.491 58.716 29.969 52.141 69.835 52.141 67.593 77.985 50 83.124 32.32 77.898"/><g class="cls-7"><polygon class="cls-8" points="30.448 58.716 29.925 52.141 48.89 52.141 48.89 58.781 30.448 58.716"/><polygon class="cls-8" points="32.277 77.898 31.232 65.836 38.308 65.836 38.896 72.847 48.89 75.372 48.89 82.797 32.277 77.898"/></g><polygon class="cls-9" points="28.902 40.623 28.075 33.83 71.512 33.83 70.815 40.623 28.902 40.623"/><g class="cls-10"><polygon class="cls-8" points="28.902 40.623 28.075 33.83 48.89 33.83 48.89 40.623 28.902 40.623"/></g><path class="cls-3" d="M31.6454,17.5217c-3.5272,0-6.3359-.7185-8.339-2.1555A6.8163,6.8163,0,0,1,20.3017,9.727c0-4.8989,4.6594-8.2084,11.5832-8.2084a16.3149,16.3149,0,0,1,5.3779.74l1.35.5443-1.96,5.4432L35.26,7.811a11.2768,11.2768,0,0,0-3.2006-.4572c-.6314,0-3.7667.1088-3.7667,2.09,0,1.5676,2.0031,2.1337,3.8973,2.1337a11.7315,11.7315,0,0,0,3.07-.37l1.5024-.4573,1.4805,5.5521-1.3064.479A15.5229,15.5229,0,0,1,31.6454,17.5217Z"/><path class="cls-3" d="M44.0778,17.5217a18.3988,18.3988,0,0,1-5.9876-.958l-1.3717-.5225,1.9378-5.7263.3266.1306a4.2128,4.2128,0,0,1-1.7636-3.4619c0-3.2659,3.4619-5.465,8.6-5.465a17.5931,17.5931,0,0,1,5.5739.7838l1.5459.5008L50.8709,8.094a4.4566,4.4566,0,0,1,2.2426,3.8974C53.1571,14.6477,50.7621,17.5217,44.0778,17.5217Z"/><path class="cls-3" d="M59.2535,17.5217a18.3988,18.3988,0,0,1-5.9876-.958l-1.3716-.5225,1.9377-5.7263.3266.1306A4.2131,4.2131,0,0,1,52.395,6.9836c0-3.2659,3.4619-5.465,8.6-5.465a17.5927,17.5927,0,0,1,5.5739.7838l1.5459.5008L66.0467,8.094a4.5013,4.5013,0,0,1,2.2426,3.8974C68.3328,14.6477,65.9378,17.5217,59.2535,17.5217Z"/><path class="cls-3" d="M74.5163,17.5217a15.7465,15.7465,0,0,1-6.2923-1.11l-1.2629-.61,1.9814-5.2909s1.4805.5226,1.5023.5444V8.5513l-1.0233.4136L67.31,3.7177l1.3281-.61a17.4875,17.4875,0,0,1,6.5755-1.1322c4.5941,0,7.5552,1.8072,7.5552,4.6159a3.6651,3.6651,0,0,1-1.0451,2.6128,3.85,3.85,0,0,1,1.5894,3.0482C83.3344,15.5186,79.96,17.5217,74.5163,17.5217Z"/><path class="cls-8" d="M36.4137,15.41a16.0626,16.0626,0,0,1-4.7683.5879c-6.7932,0-9.82-2.9176-9.82-6.2706,0-4.3328,4.5723-6.6843,10.0591-6.6843a15.0289,15.0289,0,0,1,4.79.6314l-.98,2.7a12.4652,12.4652,0,0,0-3.6579-.5226c-2.8087,0-5.2908,1.1322-5.2908,3.6143,0,2.1556,1.96,3.6579,5.4215,3.6579a13.9478,13.9478,0,0,0,3.5054-.4355Z"/><path class="cls-8" d="M39.5925,12.2962a14.5182,14.5182,0,0,0,4.8119.8709c1.5676,0,2.3514-.37,2.3514-1.0015,0-.5443-.762-.8927-2.8087-1.3064-2.8522-.5879-5.2255-1.6765-5.2255-3.8538,0-2.2644,2.7434-3.9409,7.0762-3.9409a16.7666,16.7666,0,0,1,5.1167.6967L49.8476,6.5046a13.7976,13.7976,0,0,0-4.1151-.6532c-1.3935,0-2.1773.3266-2.1773.8709,0,.675,1.0669.8927,3.2442,1.4153,3.2441.7838,4.79,1.9378,4.79,3.832,0,2.09-2.2208,4.028-7.5552,4.028a16.99,16.99,0,0,1-5.4432-.8491Z"/><path class="cls-8" d="M54.79,12.2962a14.5175,14.5175,0,0,0,4.8118.8709c1.5676,0,2.3515-.37,2.3515-1.0015,0-.5443-.7621-.8927-2.8088-1.3064-2.8522-.5879-5.2255-1.6765-5.2255-3.8538,0-2.2644,2.7434-3.9409,7.0762-3.9409a16.7666,16.7666,0,0,1,5.1167.6967L65.0451,6.5046A13.797,13.797,0,0,0,60.93,5.8514c-1.3934,0-2.1773.3266-2.1773.8709,0,.675,1.0669.8927,3.2442,1.4153,3.2659.7838,4.79,1.9378,4.79,3.832,0,2.09-2.2209,4.028-7.5553,4.028a16.99,16.99,0,0,1-5.4432-.8491Z"/><path class="cls-8" d="M69.8352,12.4486a14.0385,14.0385,0,0,0,4.2892.8056c1.6112,0,2.7652-.3483,2.7652-1.2193,0-.8927-1.3717-1.3717-2.8305-1.3717h-2.09v-2.46H73.972c1.0887,0,2.5039-.2613,2.5039-1.0451,0-.5661-.8056-.958-2.3079-.958a11.8488,11.8488,0,0,0-3.8974.7838L69.2691,4.5015A15.8585,15.8585,0,0,1,75.2131,3.5c3.7232,0,6.0311,1.3064,6.0311,3.0918,0,1.3064-.98,2.3079-3.1571,2.8087V9.444c2.0031.1959,3.7014,1.2628,3.7014,2.8087,0,2.3514-2.9829,3.7231-7.3157,3.7231a14.303,14.303,0,0,1-5.6392-.958Z"/></svg>