<?xml version="1.0" encoding="utf-8"?>
<!-- Generator: Adobe Illustrator 22.0.1, SVG Export Plug-In . SVG Version: 6.00 Build 0)  -->
<svg version="1.1" id="Layer_1" xmlns="http://www.w3.org/2000/svg" xmlns:xlink="http://www.w3.org/1999/xlink" x="0px" y="0px"
	 viewBox="0 0 2500 2500" style="enable-background:new 0 0 2500 2500;" xml:space="preserve">
<style type="text/css">
	.st0{fill:#DE4C36;}
	.st1{display:none;}
	.st2{display:inline;fill:#FFFFFF;}
	.st3{fill:#FFFFFF;}
</style>
<path class="st0" d="M2320.2,870.6L1352.7,62.9c-55.7-46.5-146.1-46.5-201.8,0L950,230.6l254.9,212.8
	c59.2-16.7,127.1-5.5,174.4,33.9c47.4,39.7,60.8,96.9,40.3,146.5l245.6,205.1c59.4-17.1,128-6,175.5,33.7
	c66.3,55.4,66.3,145.1,0,200.5c-66.4,55.4-173.8,55.4-240.2,0c-49.9-41.7-62.2-102.9-37-154.2l-229.1-191.2v503.2
	c16.6,6.9,31.8,15.9,44.9,26.8c66.3,55.4,66.3,145.1,0,200.5c-66.4,55.4-173.9,55.4-240.1,0c-66.3-55.4-66.3-145.2,0-200.5
	c15.9-13.3,34.8-23.8,55.6-30.9V708.7c-20.8-7.1-39.7-17.6-55.6-30.9c-50.3-41.9-62.3-103.5-36.6-155L851.2,313L187.8,866.9
	c-55.7,46.6-55.7,122,0,168.5l967.5,807.7c55.7,46.5,146.1,46.5,201.8,0l963-804C2375.9,992.6,2375.9,917.1,2320.2,870.6"/>
<g>
	<g>
		<g class="st1">
			<path class="st2" d="M887.3,2409.9c-113.1,0-198.3-16.1-260.4-49.2c-34-17.9-61.2-40.2-80.8-66.3c-22.3-29.8-34.1-64.1-34.1-99.4
				c0-39.2,12.6-75.2,37.3-106.9c23.6-30.3,57.5-55.2,100.6-74.1c63.8-28,148.7-42.8,245.4-42.8c69.3,0,135.2,6.5,176.4,17.4
				l107.8,28.6l-28.1,58.1h9v302.2l-78.6,14.4C1034.6,2400.6,958.7,2409.9,887.3,2409.9z"/>
			<rect x="1045.1" y="1973.8" class="st2" width="322.4" height="433.4"/>
			<polygon class="st2" points="1359.7,2407.2 1359.7,2211.7 1231.9,2211.7 1231.9,1973.8 1812.5,1973.8 1812.5,2211.7 1682,2211.7 
				1682,2407.2 			"/>
		</g>
		<g>
			<path class="st3" d="M887.3,2349.9c-100.6,0-174.4-13.3-225.8-40.7c-52.8-27.7-81.9-68.2-81.9-114.1
				c0-101.1,121-163.8,315.7-163.8c63.1,0,121.8,5.6,156.9,14.9l35.1,9.3l-38.6,79.9h43.9v193.4l-24.6,4.5
				C1024.2,2341.2,953.6,2349.9,887.3,2349.9z M838.5,2152.3c-39.2,6.4-65,19.9-65,36.3c0,12.5,13.4,21.9,24.6,27.5
				c11,5.5,24.8,9.8,40.4,12.8V2152.3z"/>
			<rect x="1112.7" y="2033.8" class="st3" width="187.1" height="313.4"/>
			<polygon class="st3" points="1427.3,2347.2 1427.3,2151.7 1299.6,2151.7 1299.6,2033.8 1744.8,2033.8 1744.8,2151.7 
				1614.4,2151.7 1614.4,2347.2 			"/>
		</g>
	</g>
	<g>
		<g class="st1">
			<path class="st2" d="M887.3,2379.9c-108.1,0-188.7-14.9-246.4-45.7c-30.1-15.8-53.9-35.2-70.8-57.8
				c-18.4-24.5-28.1-52.7-28.1-81.4c0-65,42.6-119.6,120-153.5c60-26.4,140.7-40.3,233.4-40.3c66.9,0,129.9,6.1,168.7,16.4
				l72.6,19.3l-33.1,68.4h26.8v247.2l-54,9.9C1030.5,2370.9,956.7,2379.9,887.3,2379.9z"/>
			<rect x="1075.1" y="2003.8" class="st2" width="262.4" height="373.4"/>
			<polygon class="st2" points="1389.7,2377.2 1389.7,2181.7 1261.9,2181.7 1261.9,2003.8 1782.5,2003.8 1782.5,2181.7 1652,2181.7 
				1652,2377.2 			"/>
		</g>
		<g>
			<path d="M1062.7,2303.7c-39,7.1-108.2,16.2-175.4,16.2c-99.5,0-167.4-13.5-211.7-37.2c-43-22.6-65.9-53.4-65.9-87.6
				c0-87.6,124.4-133.8,285.7-133.8c69.2,0,122.3,6.8,149.2,13.9l-26.9,55.6c-29.6-6.8-64.5-12.4-126.4-12.4
				c-79.3,0-147.9,21.8-147.9,70.3c0,45.1,60.5,74.8,147.9,74.8c20.8,0,40.3-1.1,47.1-2.6v-41h-69.9v-54.5h194.3V2303.7z"/>
			<path d="M1269.8,2063.8v253.4h-127v-253.4H1269.8z"/>
			<path d="M1457.3,2121.7h-127.7v-57.9h385.2v57.9h-130.4v195.5h-127V2121.7z"/>
		</g>
	</g>
</g>
</svg>
