<?xml version="1.0" encoding="utf-8"?>
<!-- Generator: Adobe Illustrator 22.0.1, SVG Export Plug-In . SVG Version: 6.00 Build 0)  -->
<svg version="1.1" id="Layer_1" xmlns="http://www.w3.org/2000/svg" xmlns:xlink="http://www.w3.org/1999/xlink" x="0px" y="0px"
	 viewBox="0 0 64 64" style="enable-background:new 0 0 64 64;" xml:space="preserve">
<style type="text/css">
	.st0{fill:#FEBC5B;}
	.st1{fill:#FFFFFF;}
	.st2{display:none;fill:#F9F2F4;}
	.st3{fill:#71A0FE;}
	.st4{display:none;}
	.st5{display:inline;fill:#FFFDFE;}
	.st6{fill:#FFFDFE;}
	.st7{display:inline;fill:#FFFFFF;}
</style>
<path class="st0" d="M24.4,39.1L24,34c-0.1-0.6-0.1-1.1,0.1-1.1c0.3,0,1.1,1.6,1.5,3c0.1,0.4,0.4,1,0.7,1.3c0.4,0.5,0.4,0.6,0,1.1
	c-0.3,0.3-0.5,1-0.5,1.6c0,1.3-0.5,3.3-0.9,3.3C24.7,43.1,24.5,41.3,24.4,39.1L24.4,39.1z M28.3,41.6c-0.1-0.2-0.2-2.1-0.3-4.3
	c-0.1-3.3-0.1-3.8,0.3-3.5c0.2,0.2,0.5,0.8,0.6,1.3s0.4,1.3,0.7,1.7c0.3,0.5,0.4,0.9,0.1,1.4c-0.2,0.4-0.4,1.3-0.5,2.1
	C29,41.6,28.6,42.3,28.3,41.6L28.3,41.6z M32,37.6v-3.9c0.2-0.2,0.7,0.6,1.1,2c0.2,0.7,0.5,1.3,0.6,1.4c0.2,0.1,0.2,0.4,0,0.8
	c-0.1,0.3-0.4,1.2-0.6,1.9C32.6,42.3,32.2,41.6,32,37.6L32,37.6z M36,39.3c0-1.1-0.1-2.2-0.3-3.3c-0.1-0.9-0.1-1.7,0-1.7
	c0.3-0.2,0.8,0.5,1.1,1.5c0.1,0.5,0.5,1.1,0.9,1.4l0.6,0.5l-0.7,0.5c-0.4,0.3-0.7,0.8-0.7,1.2c0,0.9-0.3,1.7-0.6,1.7
	C36.2,41,36,40.3,36,39.3L36,39.3z M39.7,38.6c0-1.1-0.1-2.4-0.2-3.1c-0.3-1.6,0.3-1.2,1.2,0.8c0.6,1.3,0.7,1.6,0.3,2
	c-0.2,0.3-0.5,0.8-0.5,1.2s-0.3,0.8-0.5,0.9C39.8,40.4,39.7,40,39.7,38.6L39.7,38.6z M43,37.3c0-2.5,0-2.7,0.5-2.3
	c0.7,0.7,0.9,2.7,0.4,4C43.3,40.9,43,40.3,43,37.3L43,37.3z M46.1,37.9c-0.6-0.4-0.6-0.5,0.3-0.4c0.5,0,0.9,0.2,0.9,0.4
	C47.2,38.3,46.8,38.3,46.1,37.9z"/>
<g>
	<g>
		<path class="st1" d="M39.2,51.5c-0.4,0-0.9-0.1-1.2-0.3c-0.3-0.1-1.2-0.2-2.8-0.5c-2.9-0.4-3.2-0.5-3.4-0.6
			c-0.5-0.1-1-0.6-1.1-1.3c-0.1-0.8,0.3-1.7,1-2.3c0.6-0.3,1.2-0.5,1.8-0.5c1.3,0,2.9,0.5,5.3,1.5c0.5-2.2,2.8-4.3,4.6-4.3
			c0.6,0,1,0.2,1.2,0.7c0.3,0.7-0.2,1.2-0.7,1.6c-1.5,1.3-1.7,1.8-1.7,2.8c0,1.1-0.1,1.9-0.8,2.5c-0.1,0.1-0.3,0.3-0.6,0.3
			c-0.3,0.1-0.7,0.2-1.1,0.2C39.5,51.5,39.3,51.5,39.2,51.5z M58.9,50.7c-0.4,0-0.8-0.2-1-0.4l-0.2-0.2c-0.2-0.2-0.9-1.3-1.6-2.4
			c-1.6-2.8-2.1-3.2-3.8-3.9l-1.8-0.7l0.3-1.9l1.2-0.1h0.4c1.8,0,3.4,0.8,4.8,2.4l-0.1-0.4c-0.1-0.5-0.2-1.1-0.3-1.8
			c-0.5-2.4-0.5-3.6-0.4-6.1c0-0.6,0-1.1,0.1-1.5c0-0.2,0-0.4,0-0.6c-0.3,0.1-0.8,0.2-1.3,0.3c-2,0.5-3.6,0.8-4.5,0.8
			c-1.4,0-1.5-1-1.5-1.2c0-1.6,8.5-5.3,9.1-5.3c0.6,0,1.1,0.2,1.5,0.6c0.7,0.8,0.9,2.3,0.6,5.4c-0.2,3.1-0.2,4,0,8.7l0.1,1.1
			c0.1,1.5,0.1,2.8,0.1,3.7c0,1.7-0.1,2.3-0.5,2.7C60.1,49.9,59.7,50.7,58.9,50.7z M15.2,49.7c-0.6,0-1.3-0.1-2.2-0.3
			c-2.5-0.5-9.3-4.4-11-6.3c-0.4-0.4-0.6-1-0.6-1.7c0-0.7,0.3-1.3,0.8-1.7c0,0,0.1,0,0.1,0c-0.1-0.2-0.1-0.3-0.1-0.5
			c-0.1-1.8,2.1-4.4,4-6c5.6-4.7,13.3-7.5,20.8-7.6c1.9,0,2.3-0.2,3-0.6c0.7-0.4,2.1-1.2,3.2-1.6c0.9-0.3,2.2-0.9,2.8-1.3l0.2-0.1
			c0.7-0.5,1.5-0.7,2.1-0.7c1.3,0,2.2,0.9,2.8,2.6c0.2,0.3,0.7,0.7,1.1,0.9c0.6,0.3,2.7,1.5,2.7,3c0,1.2-0.8,1.3-1.1,1.3
			c-0.4,0-0.7-0.2-1.1-0.6l0.3-0.2c-0.1-0.1-0.7-0.4-1.3-0.6c-1.1-0.4-2-1-2.8-1.9l-0.4-0.4l-0.2,0.2c-0.2,0.2-0.6,0.6-1.1,1
			c0.3,0.1,0.6,0.2,1.1,0.3c0.1,0,6.6,2.3,6.9,3.7l0.1,0.5l-0.1,0.1l0,0.6l-1,0c-0.2,0-0.5,0-3.1-0.9c-4.2-1.3-6.4-1.7-10-1.7
			c-0.8,0-1.7,0-2.7,0.1c-4,0.1-5.3,0.3-7.4,0.9c-5,1.4-10.1,4.5-13,7.9c-0.2,0.3-1.4,1.5-2.1,2.1l0.4,0.4c4.6,3.8,7.3,5.3,9.8,5.4
			c1.3,0,1.6-0.1,2.5-0.6c0.6-0.4,1.1-0.9,1.2-1.1c0.4-0.6,0.7-0.9,1.2-0.9c0.4,0,0.7,0.2,0.9,0.5c0.3,0.5,0.3,1.2,0,1.9
			c-0.6,1.5-2.9,3.1-4.5,3.5C16.5,49.6,15.9,49.7,15.2,49.7z M14,40c-0.7,0-1.3-0.3-1.7-0.8c-0.8-1.1-1.5-2.4-0.7-3.8
			c0.7-1.2,1.7-1.8,2.8-1.8h0.2c0.7,0.2,1.6,0.5,2.1,1.3l0.1,0.1c0,0,0,0.1,0,0.1c0.7,1.5,0.8,2.3-0.2,3.6C16,39.5,15,40,14,40z"/>
		<path class="st1" d="M39.1,50.5c-0.3,0-0.6-0.1-0.8-0.2c-0.2-0.1-1.6-0.4-3.1-0.6c-1.9-0.3-3-0.4-3.2-0.5
			c-0.3-0.1-0.4-0.3-0.5-0.5c-0.1-0.4,0.2-1,0.7-1.3c0.3-0.2,0.7-0.3,1.2-0.3c1.3,0,3.1,0.6,5.8,1.8c0.1,0.1,0.2,0.1,0.2,0.1
			c0.1,0,0.2-0.1,0.2-0.5c0-1.8,2.2-4.2,3.7-4.2c0.2,0,0.3,0,0.3,0.1c0,0.1-0.1,0.2-0.5,0.5C41.4,46.3,41,47,41,48.4
			c0,1,0,1.5-0.4,1.8c0,0-0.1,0.1-0.2,0.1l-0.1,0.1c-0.2,0.1-0.4,0.1-0.8,0.1C39.3,50.5,39.2,50.5,39.1,50.5z M59,49.7
			c-0.1,0-0.3-0.1-0.5-0.2c-0.1-0.1-0.8-1.1-1.4-2.2c-1.7-2.9-2.3-3.5-4.3-4.3l-1.8-0.7l1.2-0.1c0.1,0,0.2,0,0.3,0
			c1.6,0,3.1,0.8,4.3,2.4c0.7,0.9,1.2,1.5,1.3,1.5c0.3-0.3,0.2-1.8-0.3-4.9c-0.5-2.3-0.5-3.5-0.4-5.9c0.1-1.4,0.1-3.1-0.1-3.2
			c0,0-0.1,0-0.2,0c-0.3,0-1.1,0.1-2.2,0.4c-2.2,0.5-3.5,0.8-4.2,0.8c-0.3,0-0.5-0.1-0.5-0.2c0-0.5,7.1-4.3,8.1-4.3
			c0.3,0,0.6,0.1,0.7,0.3c0.5,0.5,0.6,1.8,0.6,4.6c-0.2,3.1-0.2,4.1,0,8.8l0.1,1.1c0.1,1.5,0.1,2.7,0.1,3.6c0,1.2-0.1,1.9-0.3,2.1
			C59.4,49.6,59.2,49.7,59,49.7L59,49.7z M15.3,48.7c-0.6,0-1.1-0.1-2-0.3c-2.6-0.5-9.3-4.5-10.5-6c-0.3-0.3-0.4-0.6-0.4-1.1
			c0-0.2,0-0.8,0.4-0.8l0.1-0.1c0.1-0.1,0.2-0.1,0.4-0.1c0.3,0,0.6,0,0.9,0.1c0.1,0,0.2,0,0.2,0l1.2,1c4.9,4,7.7,5.5,10.5,5.6
			c1.4,0,1.9-0.1,3-0.8c0.7-0.5,1.3-1.1,1.5-1.4c0.1-0.2,0.3-0.4,0.4-0.4c0.1,0,0.1,0,0.1,0.1c0.1,0.2,0.1,0.5-0.1,1
			c-0.4,1.1-2.2,2.5-3.8,2.9C16.4,48.6,15.8,48.7,15.3,48.7z M4.2,39.9c-0.3,0-0.5-0.1-0.7-0.3c-0.2-0.1-0.3-0.3-0.3-0.6
			c0-1.2,1.5-3.4,3.7-5.2c5.4-4.5,13-7.3,20.2-7.4c2,0,2.6-0.2,3.5-0.7c0.6-0.4,2-1.1,3-1.5c1-0.4,2.4-1.1,3.1-1.4
			c0.7-0.4,1.3-0.6,1.7-0.6c0.8,0,1.4,0.6,2,2.1c0.2,0.4,1,1,1.5,1.3c1.3,0.6,2.2,1.5,2.2,2.1c0,0.2,0,0.3-0.1,0.3
			c-0.1,0-0.1-0.1-0.4-0.3c-0.3-0.3-1.1-0.7-1.8-0.9c-0.9-0.3-1.6-0.8-2.3-1.6L38.5,24l-1,0.9c-0.5,0.5-1.3,1.1-1.6,1.3
			c-0.3,0.2-0.6,0.5-0.5,0.7c0.1,0.2,1,0.5,2.5,1c2.1,0.7,6.2,2.5,6.3,3c0,0-0.1,0.1-0.1,0.1c-0.2,0-1.4-0.3-2.9-0.8
			c-4.3-1.4-6.6-1.8-10.3-1.8c-0.8,0-1.7,0-2.7,0.1c-4.2,0.1-5.5,0.3-7.6,0.9c-5.3,1.5-10.4,4.6-13.5,8.2c-0.8,0.9-1.8,1.9-2.2,2.2
			C4.7,39.8,4.4,39.9,4.2,39.9z M14,39c-0.4,0-0.7-0.1-0.9-0.4c-0.9-1.2-1-1.9-0.6-2.7c0.6-0.9,1.3-1.3,2-1.3c0.5,0.1,1,0.4,1.4,0.9
			c0.6,1.3,0.6,1.6-0.1,2.5C15.4,38.6,14.7,39,14,39C14,39,14,39,14,39z M13.7,36.1c-0.2,0.1-0.2,0.4-0.1,0.7
			c0.1,0.3,0.5,0.4,0.8,0.4c0.2,0,0.3,0,0.3-0.1c0-0.1,0-0.1,0-0.2C14.6,36.5,14.1,36.1,13.7,36.1L13.7,36.1L13.7,36.1z"/>
		<path class="st1" d="M39.1,50.5c-0.3,0-0.6-0.1-0.8-0.2c-0.2-0.1-1.6-0.4-3.1-0.6c-1.9-0.3-3-0.4-3.2-0.5
			c-0.3-0.1-0.4-0.3-0.5-0.5c-0.1-0.4,0.2-1,0.7-1.3c0.3-0.2,0.7-0.3,1.2-0.3c1.3,0,3.1,0.6,5.8,1.8c0.1,0.1,0.2,0.1,0.2,0.1
			c0.1,0,0.2-0.1,0.2-0.5c0-1.8,2.2-4.2,3.7-4.2c0.2,0,0.3,0,0.3,0.1c0,0.1-0.1,0.2-0.5,0.5C41.4,46.3,41,47,41,48.4
			c0,1,0,1.5-0.4,1.8c0,0-0.1,0.1-0.2,0.1l-0.1,0.1c-0.2,0.1-0.4,0.1-0.8,0.1C39.3,50.5,39.2,50.5,39.1,50.5z M59,49.7
			c-0.1,0-0.3-0.1-0.5-0.2c-0.1-0.1-0.8-1.1-1.4-2.2c-1.7-2.9-2.3-3.5-4.3-4.3l-1.8-0.7l1.2-0.1c0.1,0,0.2,0,0.3,0
			c1.6,0,3.1,0.8,4.3,2.4c0.7,0.9,1.2,1.5,1.3,1.5c0.3-0.3,0.2-1.8-0.3-4.9c-0.5-2.3-0.5-3.5-0.4-5.9c0.1-1.4,0.1-3.1-0.1-3.2
			c0,0-0.1,0-0.2,0c-0.3,0-1.1,0.1-2.2,0.4c-2.2,0.5-3.5,0.8-4.2,0.8c-0.3,0-0.5-0.1-0.5-0.2c0-0.5,7.1-4.3,8.1-4.3
			c0.3,0,0.6,0.1,0.7,0.3c0.5,0.5,0.6,1.8,0.6,4.6c-0.2,3.1-0.2,4.1,0,8.8l0.1,1.1c0.1,1.5,0.1,2.7,0.1,3.6c0,1.2-0.1,1.9-0.3,2.1
			C59.4,49.6,59.2,49.7,59,49.7L59,49.7z M15.3,48.7c-0.6,0-1.1-0.1-2-0.3c-2.6-0.5-9.3-4.5-10.5-6c-0.3-0.3-0.4-0.6-0.4-1.1
			c0-0.2,0-0.8,0.4-0.8l0.1-0.1c0.1-0.1,0.2-0.1,0.4-0.1c0.3,0,0.6,0,0.9,0.1c0.1,0,0.2,0,0.2,0l1.2,1c4.9,4,7.7,5.5,10.5,5.6
			c1.4,0,1.9-0.1,3-0.8c0.7-0.5,1.3-1.1,1.5-1.4c0.1-0.2,0.3-0.4,0.4-0.4c0.1,0,0.1,0,0.1,0.1c0.1,0.2,0.1,0.5-0.1,1
			c-0.4,1.1-2.2,2.5-3.8,2.9C16.4,48.6,15.8,48.7,15.3,48.7z M4.2,39.9c-0.3,0-0.5-0.1-0.7-0.3c-0.2-0.1-0.3-0.3-0.3-0.6
			c0-1.2,1.5-3.4,3.7-5.2c5.4-4.5,13-7.3,20.2-7.4c2,0,2.6-0.2,3.5-0.7c0.6-0.4,2-1.1,3-1.5c1-0.4,2.4-1.1,3.1-1.4
			c0.7-0.4,1.3-0.6,1.7-0.6c0.8,0,1.4,0.6,2,2.1c0.2,0.4,1,1,1.5,1.3c1.3,0.6,2.2,1.5,2.2,2.1c0,0.2,0,0.3-0.1,0.3
			c-0.1,0-0.1-0.1-0.4-0.3c-0.3-0.3-1.1-0.7-1.8-0.9c-0.9-0.3-1.6-0.8-2.3-1.6L38.5,24l-1,0.9c-0.5,0.5-1.3,1.1-1.6,1.3
			c-0.3,0.2-0.6,0.5-0.5,0.7c0.1,0.2,1,0.5,2.5,1c2.1,0.7,6.2,2.5,6.3,3c0,0-0.1,0.1-0.1,0.1c-0.2,0-1.4-0.3-2.9-0.8
			c-4.3-1.4-6.6-1.8-10.3-1.8c-0.8,0-1.7,0-2.7,0.1c-4.2,0.1-5.5,0.3-7.6,0.9c-5.3,1.5-10.4,4.6-13.5,8.2c-0.8,0.9-1.8,1.9-2.2,2.2
			C4.7,39.8,4.4,39.9,4.2,39.9z M14,39c-0.4,0-0.7-0.1-0.9-0.4c-0.9-1.2-1-1.9-0.6-2.7c0.6-0.9,1.3-1.3,2-1.3c0.5,0.1,1,0.4,1.4,0.9
			c0.6,1.3,0.6,1.6-0.1,2.5C15.4,38.6,14.7,39,14,39C14,39,14,39,14,39z M13.7,36.1c-0.2,0.1-0.2,0.4-0.1,0.7
			c0.1,0.3,0.5,0.4,0.8,0.4c0.2,0,0.3,0,0.3-0.1c0-0.1,0-0.1,0-0.2C14.6,36.5,14.1,36.1,13.7,36.1L13.7,36.1L13.7,36.1z"/>
	</g>
	<g>
		<path class="st2" d="M39.2,51.5c-0.4,0-0.9-0.1-1.2-0.3c-0.3-0.1-1.5-0.3-2.8-0.5c-2.8-0.4-3.2-0.5-3.4-0.6
			c-0.5-0.1-1-0.6-1.1-1.3c-0.1-0.8,0.3-1.7,1-2.3c0.5-0.3,1.1-0.5,1.8-0.5c1.3,0,3,0.5,5.3,1.5c0.5-2.1,2.7-4.3,4.6-4.3
			c0.6,0,1,0.2,1.2,0.7c0.3,0.7-0.2,1.2-0.7,1.6c-1.5,1.3-1.7,1.8-1.7,2.8s-0.1,1.9-0.8,2.5c-0.1,0.1-0.3,0.3-0.6,0.3
			c-0.3,0.1-0.7,0.2-1.1,0.2C39.5,51.5,39.3,51.5,39.2,51.5z M58.9,50.7c-0.4,0-0.8-0.2-1-0.4l-0.1-0.1l-0.1-0.1
			c-0.2-0.2-0.9-1.3-1.6-2.4c-1.6-2.8-2.1-3.2-3.8-3.9l-1.8-0.7l0.3-1.9l1.2-0.1c0.1,0,0.3,0,0.4,0c1.8,0,3.4,0.8,4.8,2.4
			c-0.1-0.6-0.2-1.3-0.4-2.2c-0.5-2.4-0.5-3.6-0.4-6.1c0-1,0.1-1.7,0.1-2.1c-0.3,0.1-0.8,0.2-1.3,0.3c-2.3,0.6-3.7,0.8-4.5,0.8
			c-1.5,0-1.5-1.1-1.5-1.2c0-1.6,8.5-5.3,9.1-5.3s1.1,0.2,1.5,0.6c0.7,0.8,0.9,2.1,0.6,5.4c-0.2,3.1-0.2,4,0,8.7l0.1,1.1
			c0.1,1.5,0.1,2.8,0.1,3.7c0,1.6-0.1,2.3-0.5,2.7C60,50.1,59.6,50.7,58.9,50.7L58.9,50.7z M15.2,49.7c-0.6,0-1.3-0.1-2.2-0.3
			c-2.5-0.5-9.4-4.5-11-6.3c-0.4-0.4-0.6-1-0.6-1.7c0-0.9,0.4-1.4,0.8-1.7l0,0h0.1c-0.1-0.2-0.1-0.3-0.1-0.5c-0.1-1.8,2-4.3,4-6
			c5.6-4.7,13.4-7.5,20.8-7.6c1.9,0,2.3-0.2,3-0.6s2.1-1.2,3.2-1.6c0.9-0.3,2.2-0.9,2.8-1.3l0.2-0.1c0.8-0.5,1.5-0.7,2.1-0.7
			c1.5,0,2.3,1.2,2.8,2.6c0.2,0.3,0.7,0.7,1.1,0.9c0.4,0.2,2.7,1.4,2.7,3c0,1.2-0.8,1.3-1.1,1.3c-0.4,0-0.7-0.2-1.1-0.6l0.3-0.2
			c-0.1-0.1-0.7-0.4-1.3-0.6c-1.1-0.4-2-1-2.8-1.9l-0.4-0.4l-0.2,0.2c-0.1,0.1-0.6,0.6-1.1,1c0.3,0.1,0.6,0.2,1.1,0.3
			c0.1,0,6.6,2.3,6.9,3.7l0.1,0.5l-0.1,0.1v0.6h-1c-0.2,0-0.5,0-3.1-0.9c-4.1-1.3-6.3-1.7-10-1.7c-0.8,0-1.7,0-2.7,0.1
			c-4.1,0.1-5.3,0.3-7.4,0.9c-5,1.4-10.1,4.5-13,7.9c-0.2,0.3-1.4,1.5-2.1,2.1l0.4,0.4c4.7,3.9,7.3,5.3,9.8,5.4
			c1.3,0,1.6-0.1,2.5-0.6c0.6-0.4,1.1-0.9,1.2-1.1c0.4-0.7,0.8-0.9,1.2-0.9c0.4,0,0.7,0.2,0.9,0.5c0.3,0.5,0.3,1.2,0,1.9
			c-0.6,1.5-2.9,3.1-4.5,3.5C16.5,49.6,15.9,49.7,15.2,49.7z M14,40c-0.7,0-1.3-0.3-1.7-0.8c-0.8-1.1-1.5-2.4-0.7-3.8
			c0.7-1.2,1.7-1.8,2.8-1.8h0.1h0.1c0.8,0.2,1.6,0.6,2.1,1.3l0.1,0.1v0.1c0.7,1.5,0.8,2.3-0.2,3.6C16,39.5,15,40,14,40L14,40z"/>
		<path d="M38.4,22.2c-0.4,0-1,0.2-1.7,0.6c-0.6,0.3-2.1,1-3.1,1.4s-2.4,1.1-3,1.5c-0.9,0.5-1.5,0.7-3.5,0.7
			c-7.2,0.1-14.8,2.9-20.2,7.4c-2.8,2.3-4.4,5.1-3.4,5.8C3.7,39.8,4.1,40,5,39.7c0.4-0.3,1.4-1.3,2.2-2.2c3-3.5,8.2-6.7,13.5-8.2
			c2.1-0.6,3.4-0.8,7.6-0.9c5.6-0.2,8,0.1,13,1.7c1.5,0.5,2.9,0.9,2.9,0.8c0.3-0.3-4.1-2.3-6.3-3c-1.3-0.4-2.4-0.8-2.5-1
			s0.2-0.5,0.5-0.7s1.1-0.8,1.6-1.3l1-0.9l1.1,1.2c0.7,0.8,1.4,1.3,2.3,1.6c0.7,0.2,1.5,0.6,1.8,0.9c0.4,0.4,0.4,0.4,0.4,0
			c0-0.6-1-1.5-2.2-2.1c-0.5-0.3-1.3-0.9-1.5-1.3C39.8,22.8,39.2,22.2,38.4,22.2L38.4,22.2z M58.4,28.8c-1,0-8.1,3.8-8.1,4.3
			c0,0.4,1.5,0.2,4.7-0.6c1.2-0.3,2.2-0.5,2.4-0.4s0.2,1.3,0.1,3.2c-0.1,2.4-0.1,3.6,0.4,5.9c0.5,3,0.7,4.9,0.3,4.9
			c-0.1,0-0.7-0.7-1.3-1.5c-1.3-1.7-2.9-2.5-4.6-2.4l-1.2,0.1l1.8,0.7c2,0.8,2.6,1.4,4.3,4.3c0.6,1.1,1.3,2.1,1.4,2.2
			c0.4,0.3,0.6,0.3,1-0.2c0.2-0.2,0.3-0.8,0.3-2.1c0-0.9,0-2.1-0.1-3.6l-0.1-1.1c-0.2-4.7-0.2-5.7,0-8.8
			C59.8,29.8,59.5,28.8,58.4,28.8L58.4,28.8z M14.5,34.6c-0.7,0-1.4,0.4-2,1.3c-0.4,0.8-0.3,1.5,0.6,2.7c0.5,0.7,1.9,0.5,2.7-0.6
			c0.7-0.9,0.7-1.2,0.1-2.5C15.5,35,15,34.7,14.5,34.6L14.5,34.6z M13.7,36.1c0.3-0.1,0.9,0.4,1.1,0.8c0.2,0.5-1,0.4-1.2-0.1
			C13.5,36.5,13.5,36.2,13.7,36.1L13.7,36.1L13.7,36.1z M3.3,40.3c-0.2,0-0.3,0-0.4,0.1c0,0,0,0-0.1,0.1c-0.3,0-0.4,0.4-0.4,0.8
			s0.1,0.8,0.4,1.1c1.3,1.6,8,5.5,10.5,6c1.6,0.4,2.4,0.4,3.9,0s3.4-1.8,3.8-2.9c0.4-0.9,0-1.5-0.4-0.7c-0.2,0.3-0.8,0.9-1.5,1.4
			c-1.1,0.7-1.6,0.8-3,0.8c-2.8-0.1-5.5-1.5-10.5-5.6l-1.2-1C4.3,40.4,3.7,40.3,3.3,40.3L3.3,40.3z M43.3,44.3
			c-1.5,0-3.7,2.4-3.7,4.2c0,0.5-0.1,0.6-0.4,0.4c-3.7-1.7-6-2.2-7-1.5C31.4,48,31.3,49,32,49.2c0.3,0.1,1.7,0.3,3.2,0.5
			s2.9,0.5,3.1,0.6c0.3,0.2,0.7,0.3,1.1,0.2c0,0,0,0,0.1,0c0.4,0,0.6-0.1,0.9-0.2l0,0c0.1,0,0.2-0.1,0.2-0.1
			c0.4-0.3,0.4-0.8,0.4-1.8c0-1.4,0.4-2.1,2.1-3.5C43.7,44.4,43.8,44.3,43.3,44.3L43.3,44.3z"/>
		<path d="M38.4,22.2c-0.4,0-1,0.2-1.7,0.6c-0.6,0.3-2.1,1-3.1,1.4s-2.4,1.1-3,1.5c-0.9,0.5-1.5,0.7-3.5,0.7
			c-7.2,0.1-14.8,2.9-20.2,7.4c-2.8,2.3-4.4,5.1-3.4,5.8C3.7,39.8,4.1,40,5,39.7c0.4-0.3,1.4-1.3,2.2-2.2c3-3.5,8.2-6.7,13.5-8.2
			c2.1-0.6,3.4-0.8,7.6-0.9c5.6-0.2,8,0.1,13,1.7c1.5,0.5,2.9,0.9,2.9,0.8c0.3-0.3-4.1-2.3-6.3-3c-1.3-0.4-2.4-0.8-2.5-1
			s0.2-0.5,0.5-0.7s1.1-0.8,1.6-1.3l1-0.9l1.1,1.2c0.7,0.8,1.4,1.3,2.3,1.6c0.7,0.2,1.5,0.6,1.8,0.9c0.4,0.4,0.4,0.4,0.4,0
			c0-0.6-1-1.5-2.2-2.1c-0.5-0.3-1.3-0.9-1.5-1.3C39.8,22.8,39.2,22.2,38.4,22.2L38.4,22.2z M58.4,28.8c-1,0-8.1,3.8-8.1,4.3
			c0,0.4,1.5,0.2,4.7-0.6c1.2-0.3,2.2-0.5,2.4-0.4s0.2,1.3,0.1,3.2c-0.1,2.4-0.1,3.6,0.4,5.9c0.5,3,0.7,4.9,0.3,4.9
			c-0.1,0-0.7-0.7-1.3-1.5c-1.3-1.7-2.9-2.5-4.6-2.4l-1.2,0.1l1.8,0.7c2,0.8,2.6,1.4,4.3,4.3c0.6,1.1,1.3,2.1,1.4,2.2
			c0.4,0.3,0.6,0.3,1-0.2c0.2-0.2,0.3-0.8,0.3-2.1c0-0.9,0-2.1-0.1-3.6l-0.1-1.1c-0.2-4.7-0.2-5.7,0-8.8
			C59.8,29.8,59.5,28.8,58.4,28.8L58.4,28.8z M14.5,34.6c-0.7,0-1.4,0.4-2,1.3c-0.4,0.8-0.3,1.5,0.6,2.7c0.5,0.7,1.9,0.5,2.7-0.6
			c0.7-0.9,0.7-1.2,0.1-2.5C15.5,35,15,34.7,14.5,34.6L14.5,34.6z M13.7,36.1c0.3-0.1,0.9,0.4,1.1,0.8c0.2,0.5-1,0.4-1.2-0.1
			C13.5,36.5,13.5,36.2,13.7,36.1L13.7,36.1L13.7,36.1z M3.3,40.3c-0.2,0-0.3,0-0.4,0.1c0,0,0,0-0.1,0.1c-0.3,0-0.4,0.4-0.4,0.8
			s0.1,0.8,0.4,1.1c1.3,1.6,8,5.5,10.5,6c1.6,0.4,2.4,0.4,3.9,0s3.4-1.8,3.8-2.9c0.4-0.9,0-1.5-0.4-0.7c-0.2,0.3-0.8,0.9-1.5,1.4
			c-1.1,0.7-1.6,0.8-3,0.8c-2.8-0.1-5.5-1.5-10.5-5.6l-1.2-1C4.3,40.4,3.7,40.3,3.3,40.3L3.3,40.3z M43.3,44.3
			c-1.5,0-3.7,2.4-3.7,4.2c0,0.5-0.1,0.6-0.4,0.4c-3.7-1.7-6-2.2-7-1.5C31.4,48,31.3,49,32,49.2c0.3,0.1,1.7,0.3,3.2,0.5
			s2.9,0.5,3.1,0.6c0.3,0.2,0.7,0.3,1.1,0.2c0,0,0,0,0.1,0c0.4,0,0.6-0.1,0.9-0.2l0,0c0.1,0,0.2-0.1,0.2-0.1
			c0.4-0.3,0.4-0.8,0.4-1.8c0-1.4,0.4-2.1,2.1-3.5C43.7,44.4,43.8,44.3,43.3,44.3L43.3,44.3z"/>
	</g>
</g>
<path class="st3" d="M13.9,45l-1.1-0.3l1.9-0.4c2.5-0.5,3.1-1,3.1-2.9c0-1.6,0.3-1.8,1-0.8c1.1,1.5,0.3,3.6-1.5,4.3
	C16.2,45.4,15.4,45.4,13.9,45L13.9,45z M55.4,38.5c0.1-0.8,0-1.6-0.3-2.3c-0.6-1.4-0.6-1.4,0.1-1.4c0.9,0,2.2,1.7,2,2.5
	c-0.2,0.9-1.1,2.1-1.6,2.3C55.3,39.7,55.3,39.4,55.4,38.5z M44.5,31.1c-6-1.9-16.5-2-23.7-0.1c-1.5,0.4-1.8,0.4-2.1,0
	c-0.6-0.6,0.5-1.2,3.5-2c5.8-1.1,20-1.6,24.9,2.6C47.1,31.9,46.5,31.7,44.5,31.1L44.5,31.1z"/>
<g>
	<g>
		<g class="st4">
			<path class="st5" d="M8.1,15.6c-2.2,0-3.9-0.7-5.1-2c-1.1-1.2-1.7-2.8-1.7-4.5c0-4,2.8-6.8,6.9-6.8c1.4,0,2.6,0.3,3.5,0.8L13.4,4
				L13,5.6h0.3v8.6l-1.6,0.6C11.2,15.1,9.7,15.6,8.1,15.6z"/>
			<polygon class="st5" points="9.5,15.5 9.5,2.4 16.5,2.4 16.5,8.6 19.5,8.6 19.5,15.5 			"/>
			<polygon class="st5" points="14.3,15.5 17.9,2.4 24.3,2.4 28.1,15.5 			"/>
			<path class="st5" d="M27.9,15.6c-1.2,0-2.6-0.4-3.5-0.9l-1.6-0.9l0.9-4.2c-0.4-0.9-0.5-1.7-0.5-2.3c0-2.9,2.3-5,5.5-5
				c1.2,0,2.2,0.2,3.2,0.7l1.8,0.9l-1,3.9c0.6,0.8,0.8,1.7,0.8,2.8C33.5,13,31.7,15.6,27.9,15.6z"/>
			<path class="st5" d="M34.2,15.6c-1.2,0-2.6-0.4-3.5-0.9l-1.6-0.9L30,9.6c-0.4-0.9-0.5-1.7-0.5-2.3c0-2.9,2.3-5,5.5-5
				c1.2,0,2.2,0.2,3.2,0.7L40,3.9l-1,3.9c0.6,0.8,0.8,1.7,0.8,2.8C39.9,13,38.1,15.6,34.2,15.6z"/>
			<polygon class="st5" points="36,15.5 36,2.4 45.9,2.4 45.9,9.2 45.7,9.2 45.7,12.5 42.9,12.5 42.9,15.5 			"/>
			<rect x="42.1" y="2.4" class="st5" width="7" height="13.1"/>
			<path class="st5" d="M50,15.6c-1.2,0-2.6-0.4-3.5-0.9l-1.6-0.9l0.9-4.2c-0.4-0.9-0.5-1.7-0.5-2.3c0-2.9,2.3-5,5.5-5
				C52,2.3,53,2.5,54,3l1.8,0.9l-1,3.9c0.6,0.8,0.8,1.7,0.8,2.8C55.7,13,53.9,15.6,50,15.6z"/>
			<rect x="51.8" y="2.4" class="st5" width="11.6" height="13.1"/>
		</g>
		<g>
			<path class="st6" d="M8.1,13.6c-1.6,0-2.8-0.5-3.6-1.4c-0.7-0.8-1.1-1.9-1.1-3.1c0-2.9,1.9-4.8,4.9-4.8c1,0,2,0.2,2.6,0.5L11.1,5
				l-0.6,2.6h0.8v5.3L10.9,13C10.2,13.3,9.1,13.6,8.1,13.6z M8.1,7.1c-0.5,0-1.8,0.2-1.8,1.7c0,1.1,0.7,1.9,1.8,1.9
				c0.1,0,0.2,0,0.2,0v-0.4h-1V7.6h2.9L9.9,7.5C9.4,7.3,8.9,7.1,8.1,7.1z"/>
			<polygon class="st6" points="11.5,13.5 11.5,4.4 14.5,4.4 14.5,10.6 17.5,10.6 17.5,13.5 			"/>
			<path class="st6" d="M22.2,13.5l-0.5-2h-1.3l-0.4,2h-3.1l2.5-9.1h3.4l2.7,9.1H22.2z M21.1,8.9L21,8.5v0.4H21.1z"/>
			<path class="st6" d="M27.9,13.6c-1,0-2-0.3-2.5-0.6L25,12.8l0.6-2.9l0.6,0.3c0.3,0.2,1,0.5,1.8,0.5c0,0,0.5,0,0.5-0.1
				c0,0-0.1-0.1-0.8-0.4c-1.7-0.5-2.5-1.5-2.5-3c0-1.8,1.4-3,3.5-3c0.9,0,1.6,0.2,2.4,0.5l0.4,0.2l-0.7,2.8l-0.5-0.3
				C30,7.3,29.5,7,28.8,7c-0.3,0-0.4,0.1-0.4,0.1c0.1,0.1,0.5,0.2,0.9,0.4h0.1c1.6,0.6,2.3,1.5,2.3,3C31.5,12,30.6,13.6,27.9,13.6z"
				/>
			<path class="st6" d="M34.2,13.6c-1,0-2-0.3-2.5-0.6l-0.3-0.2L32,10l0.6,0.3c0.3,0.2,1,0.5,1.8,0.5c0,0,0.5,0,0.5-0.1
				c0,0-0.1-0.1-0.8-0.4c-1.7-0.5-2.5-1.5-2.5-3c0-1.8,1.4-3,3.5-3c0.9,0,1.7,0.2,2.4,0.5L37.9,5L37,7.7l-0.5-0.3
				C36.2,7.3,35.7,7,35,7c-0.3,0-0.4,0.1-0.4,0.1c0.1,0.1,0.5,0.2,0.9,0.4h0.1c1.6,0.6,2.3,1.5,2.3,3C37.9,12,36.9,13.6,34.2,13.6z"
				/>
			<polygon class="st6" points="38,13.5 38,4.4 43.9,4.4 43.9,7.2 40.9,7.2 40.9,7.6 43.7,7.6 43.7,10.5 40.9,10.5 40.9,13.5 			"/>
			<rect x="44.1" y="4.4" class="st6" width="3" height="9.1"/>
			<path class="st6" d="M50,13.6c-1,0-2-0.3-2.5-0.6l-0.3-0.2l0.6-2.9l0.6,0.3c0.3,0.2,1,0.5,1.8,0.5c0,0,0.5,0,0.5-0.1
				c0,0-0.1-0.1-0.8-0.4c-1.7-0.5-2.5-1.5-2.5-3c0-1.8,1.4-3,3.5-3c0.9,0,1.7,0.2,2.4,0.5l0.4,0.2L53,7.7l-0.5-0.3
				C52.2,7.3,51.7,7,51,7c-0.3,0-0.4,0.1-0.4,0.1c0.1,0.1,0.5,0.2,0.9,0.4h0.1c1.6,0.6,2.3,1.5,2.3,3C53.7,12,52.7,13.6,50,13.6z"/>
			<polygon class="st6" points="58.4,13.5 58.4,10.3 56.7,10.3 56.7,13.5 53.8,13.5 53.8,4.4 56.7,4.4 56.7,7.3 58.4,7.3 58.4,4.4 
				61.3,4.4 61.3,13.5 			"/>
		</g>
	</g>
	<g>
		<g class="st4">
			<path class="st7" d="M8.1,15.1c-2,0-3.6-0.6-4.8-1.8c-1-1.1-1.5-2.5-1.5-4.1c0-3.7,2.6-6.3,6.4-6.3c1.3,0,2.5,0.3,3.3,0.7
				l1.3,0.7l-0.4,1.9h0.4V14l-1.3,0.5C11.1,14.6,9.6,15.1,8.1,15.1z"/>
			<polygon class="st7" points="10,15 10,2.9 16,2.9 16,9.1 19,9.1 19,15 			"/>
			<polygon class="st7" points="14.9,15 18.2,2.9 23.9,2.9 27.5,15 			"/>
			<path class="st7" d="M27.9,15.1c-1.1,0-2.4-0.3-3.3-0.8l-1.3-0.7l0.9-4.1c-0.5-0.8-0.6-1.6-0.6-2.2c0-2.6,2.1-4.5,5-4.5
				c1.1,0,2.1,0.2,3,0.7l1.5,0.7l-0.9,3.7c0.7,0.9,0.9,1.9,0.9,2.7C33,12.7,31.4,15.1,27.9,15.1z"/>
			<path class="st7" d="M34.2,15.1c-1.1,0-2.4-0.3-3.3-0.8l-1.3-0.7l0.9-4.1C30.1,8.7,30,7.9,30,7.3c0-2.6,2.1-4.5,5-4.5
				c1.1,0,2.1,0.2,3,0.7l1.5,0.7l-0.9,3.7c0.7,0.9,0.9,1.9,0.9,2.7C39.4,12.7,37.8,15.1,34.2,15.1z"/>
			<polygon class="st7" points="36.5,15 36.5,2.9 45.4,2.9 45.4,8.7 45.2,8.7 45.2,12 42.4,12 42.4,15 			"/>
			<rect x="42.6" y="2.9" class="st7" width="6" height="12.1"/>
			<path class="st7" d="M50,15.1c-1.1,0-2.4-0.3-3.3-0.8l-1.2-0.7l0.9-4.1c-0.5-0.8-0.6-1.6-0.6-2.2c0-2.6,2.1-4.5,5-4.5
				c1.1,0,2.1,0.2,3,0.7l1.5,0.7l-0.9,3.7c0.7,0.9,0.9,1.9,0.9,2.7C55.2,12.7,53.5,15.1,50,15.1z"/>
			<rect x="52.3" y="2.9" class="st7" width="10.6" height="12.1"/>
		</g>
		<g>
			<path d="M10.8,12.6c-0.6,0.2-1.7,0.5-2.7,0.5c-1.5,0-2.6-0.4-3.3-1.2c-0.7-0.7-1-1.7-1-2.8c0-2.8,1.9-4.3,4.4-4.3
				c1.1,0,1.9,0.2,2.3,0.4L10.1,7c-0.5-0.2-1-0.4-2-0.4c-1.2,0-2.3,0.7-2.3,2.2c0,1.4,0.9,2.4,2.3,2.4c0.3,0,0.6,0,0.7-0.1V9.9h-1
				V8.1h3V12.6z"/>
			<path d="M12,4.9h2v6.2h3V13h-5V4.9z"/>
			<path d="M20.1,11l-0.4,2h-2.1l2.2-8.1h2.7l2.4,8.1h-2.2l-0.5-2H20.1z M21.8,9.4L21.4,8c-0.1-0.5-0.3-1-0.4-1.5l0,0
				C20.9,7,20.8,7.6,20.7,8l-0.3,1.4H21.8z"/>
			<path d="M26,10.7c0.5,0.3,1.2,0.6,2,0.6c0.7,0,1-0.2,1-0.6c0-0.3-0.3-0.6-1.2-0.9c-1.2-0.4-2.2-1.1-2.2-2.5c0-1.5,1.1-2.5,3-2.5
				c1,0,1.6,0.2,2.1,0.5L30.3,7c-0.3-0.2-0.9-0.4-1.7-0.4c-0.6,0-0.9,0.2-0.9,0.6s0.4,0.6,1.4,0.9c1.4,0.5,2,1.3,2,2.5
				c0,1.4-0.9,2.6-3.2,2.6c-0.9,0-1.8-0.3-2.3-0.6L26,10.7z"/>
			<path d="M32.3,10.7c0.5,0.3,1.2,0.6,2,0.6c0.7,0,1-0.2,1-0.6c0-0.3-0.3-0.6-1.2-0.9C33,9.4,32,8.7,32,7.3c0-1.5,1.1-2.5,3-2.5
				c1,0,1.6,0.2,2.1,0.5L36.6,7c-0.3-0.2-0.9-0.4-1.7-0.4c-0.6,0-0.9,0.2-0.9,0.6s0.4,0.6,1.4,0.9c1.4,0.5,2,1.3,2,2.5
				c0,1.4-0.9,2.6-3.2,2.6c-0.9,0-1.8-0.3-2.3-0.6L32.3,10.7z"/>
			<path d="M38.5,4.9h4.9v1.8h-3v1.4h2.8V10h-2.8v3h-2L38.5,4.9L38.5,4.9z"/>
			<path d="M46.6,4.9V13h-2V4.9H46.6z"/>
			<path d="M48.1,10.7c0.5,0.3,1.2,0.6,2,0.6c0.7,0,1-0.2,1-0.6c0-0.3-0.3-0.6-1.2-0.9c-1.2-0.4-2.2-1.1-2.2-2.5
				c0-1.5,1.1-2.5,3-2.5c1,0,1.6,0.2,2.1,0.5L52.4,7c-0.3-0.2-0.9-0.4-1.7-0.4c-0.6,0-0.9,0.2-0.9,0.6s0.4,0.6,1.4,0.9
				c1.4,0.5,2,1.3,2,2.5c0,1.4-0.9,2.6-3.2,2.6c-0.9,0-1.8-0.3-2.3-0.6L48.1,10.7z"/>
			<path d="M56.2,4.9v2.9h2.6V4.9h2V13h-2V9.8h-2.6V13h-2V4.9H56.2z"/>
		</g>
	</g>
</g>
</svg>
