<svg id="Layer_1" data-name="Layer 1" xmlns="http://www.w3.org/2000/svg" viewBox="0 0 100 100"><defs><style>.cls-1{fill:#da2590;}.cls-2{fill:none;stroke:#ec008c;}</style></defs><title>graphql</title><path class="cls-1" d="M38.8234,46.2118a3.68,3.68,0,0,0-1.38.25,2.5638,2.5638,0,0,0-1.0609.7746,4.0052,4.0052,0,0,0-.7072,1.3591,7.74,7.74,0,0,0-.2865,1.9952q-.053,1.8813,0,3.7627a7.6468,7.6468,0,0,0,.2865,1.9951,4.2769,4.2769,0,0,0,.7072,1.38,2.8358,2.8358,0,0,0,1.0609.7746,3.9635,3.9635,0,0,0,1.38.23,3.7462,3.7462,0,0,0,1.38-.25,3.03,3.03,0,0,0,1.0949-.791,3.9044,3.9044,0,0,0,.7431-1.38,6.419,6.419,0,0,0,.27-1.9647V53.2818H39.3774q-.3707,0-.3706-.4694V52.519q0-.4695.3706-.4695H42.98q.3783,0,.3782.4695v1.839a8.2488,8.2488,0,0,1-.3025,2.3,5.2839,5.2839,0,0,1-.8926,1.7792,3.9421,3.9421,0,0,1-1.4333,1.17,4.49,4.49,0,0,1-1.9194.3967,4.3786,4.3786,0,0,1-1.9193-.3967,4.1046,4.1046,0,0,1-1.3974-1.15,5.4205,5.4205,0,0,1-.8585-1.7347,9.3,9.3,0,0,1-.32-2.2581q-.0341-.9388-.0341-1.9857,0-1.0563.0341-1.9858a8.57,8.57,0,0,1,.3366-2.237,5.3923,5.3923,0,0,1,.8585-1.7558,3.9075,3.9075,0,0,1,1.3974-1.129,4.63,4.63,0,0,1,3.89.0211,4.5081,4.5081,0,0,1,1.3473,1.0563,4.2869,4.2869,0,0,1,.7753,1.2757,3.6922,3.6922,0,0,1,.2694,1.108.4173.4173,0,0,1-.085.3133.356.356,0,0,1-.27.1056h-.3706a.2692.2692,0,0,1-.2194-.0821,1.44,1.44,0,0,1-.1343-.3345,5.0406,5.0406,0,0,0-.3782-.9389,2.8754,2.8754,0,0,0-.6372-.8356,3.1921,3.1921,0,0,0-.96-.6068,3.4237,3.4237,0,0,0-1.3142-.23Zm7.95,4.1582a2.2626,2.2626,0,0,1,2.29-1.4436h.624q.3707,0,.3707.46V49.68q0,.46-.3707.46h-.7242a1.9435,1.9435,0,0,0-1.6.7312,3.0769,3.0769,0,0,0-.589,1.9858v6.4785a.468.468,0,0,1-.1182.3344.3283.3283,0,0,1-.27.1256h-.2694q-.3707,0-.3707-.46v-9.929a.5176.5176,0,0,1,.1012-.3345.3126.3126,0,0,1,.27-.1467h.2694a.3125.3125,0,0,1,.27.1467.4681.4681,0,0,1,.1182.3345v.9623Zm10.4,9.4314q-.3707,0-.3706-.46V58.359a3.0509,3.0509,0,0,1-.4037.5868,2.4855,2.4855,0,0,1-.5891.5223,3.2055,3.2055,0,0,1-.8509.3755,3.5485,3.5485,0,0,1-1.144.1667,3.0225,3.0225,0,0,1-1.163-.23,3.3451,3.3451,0,0,1-.96-.669,3.3934,3.3934,0,0,1-.6561-.9823A3.1534,3.1534,0,0,1,50.8,56.8966a3.2806,3.2806,0,0,1,.2364-1.2757,3.1007,3.1007,0,0,1,.69-.9824,3.44,3.44,0,0,1,1.0438-.71,5.2241,5.2241,0,0,1,1.3643-.4178l2.6606-.46v-.7312a2.5565,2.5565,0,0,0-.5559-1.7557,2.1711,2.1711,0,0,0-1.734-.6268,2.1452,2.1452,0,0,0-1.4655.46,1.9027,1.9027,0,0,0-.6373.9624.8151.8151,0,0,1-.1683.3556.326.326,0,0,1-.2364.0822h-.2364a.3613.3613,0,0,1-.2694-.1256.5747.5747,0,0,1-.1012-.3345,2.1255,2.1255,0,0,1,.1683-.7312,2.8251,2.8251,0,0,1,.5389-.8567,3.1772,3.1772,0,0,1,.9767-.71,3.0186,3.0186,0,0,1,1.4334-.3133,3.5184,3.5184,0,0,1,1.6338.3344,2.7,2.7,0,0,1,1.0278.8779,3.0781,3.0781,0,0,1,.5048,1.17,5.5955,5.5955,0,0,1,.1513,1.2758v6.96q0,.46-.3706.46h-.2865Zm-3.1825-1.0035a2.5728,2.5728,0,0,0,1.0779-.23,2.6089,2.6089,0,0,0,.9095-.7312,3.5805,3.5805,0,0,0,.6051-1.2123,5.9865,5.9865,0,0,0,.2194-1.7136v-.71l-2.1718.3755q-2.7948.4695-2.7949,2.2159a2.0169,2.0169,0,0,0,.1854.899,2.03,2.03,0,0,0,1.195,1.0023,2.87,2.87,0,0,0,.7754.1056ZM64.35,60.01a2.9656,2.9656,0,0,1-1.734-.47,3.8,3.8,0,0,1-1.0949-1.17v4.9528q0,.46-.3706.46h-.2865q-.3707,0-.3707-.46V49.3865q0-.46.3707-.46H61.15q.37,0,.3706.46v.9823a3.6527,3.6527,0,0,1,1.0949-1.17A3.38,3.38,0,0,1,66,49.1682a3.2117,3.2117,0,0,1,1.1119,1.1291,4.9268,4.9268,0,0,1,.6051,1.5891,9.6683,9.6683,0,0,1,.2363,1.798q.0171.3134.0171.69t-.0171.69a9.8967,9.8967,0,0,1-.2363,1.8191,5.2268,5.2268,0,0,1-.6051,1.5891A3.4508,3.4508,0,0,1,66,59.6019a3.0716,3.0716,0,0,1-1.65.4178ZM61.5208,53.614q-.0171.3133-.017.8145t.017.8145a6.3673,6.3673,0,0,0,.1683,1.2757,3.7665,3.7665,0,0,0,.5049,1.1291,2.9515,2.9515,0,0,0,.8509.8356,2.2533,2.2533,0,0,0,1.2121.3134,2.2274,2.2274,0,0,0,1.2292-.3134,2.3679,2.3679,0,0,0,.8084-.8356,3.873,3.873,0,0,0,.4538-1.2324,8.9452,8.9452,0,0,0,.1853-1.4635q.0171-.5868,0-1.17a8.5668,8.5668,0,0,0-.1853-1.4436,3.6311,3.6311,0,0,0-.4538-1.2124,2.3076,2.3076,0,0,0-.8084-.8567,2.1281,2.1281,0,0,0-1.2292-.3345,2.1757,2.1757,0,0,0-1.2291.3345,2.9133,2.9133,0,0,0-.851.8779,4.3208,4.3208,0,0,0-.4888,1.17,6.4351,6.4351,0,0,0-.1683,1.2957Zm9.77-3.244a4.1125,4.1125,0,0,1,1.0949-1.1912,2.9085,2.9085,0,0,1,1.734-.46,3.0359,3.0359,0,0,1,1.4986.3556,3.08,3.08,0,0,1,1.0609.9824,4.5106,4.5106,0,0,1,.6561,1.4846,7.4833,7.4833,0,0,1,.2194,1.86v5.9363q0,.46-.3706.46H76.9q-.3706,0-.3706-.46v-5.833a4.51,4.51,0,0,0-.6562-2.6125A2.1758,2.1758,0,0,0,73.954,49.93a2.3214,2.3214,0,0,0-1.9364.9389,4.2319,4.2319,0,0,0-.7242,2.6372v5.833q0,.46-.3707.46h-.2864q-.3707,0-.3707-.46V45.4137q0-.46.3707-.46h.2864q.3706,0,.3707.46v4.9528Zm13.1329-5.4128a4.3852,4.3852,0,0,1,1.7851.3556,3.5521,3.5521,0,0,1,1.38,1.0868,4.9868,4.9868,0,0,1,.91,1.798,9.1528,9.1528,0,0,1,.3707,2.5292q.0339.9389.034,1.7558,0,.8145-.034,1.7557A7.2282,7.2282,0,0,1,87.64,58.6278l1.0779,1.8813c.0113.0282.0227.0555.034.0821a.4369.4369,0,0,1,.017.1468.457.457,0,0,1-.1011.2934.2976.2976,0,0,1-.2364.1255h-.3706a.3879.3879,0,0,1-.32-.1877q-.1342-.1667-.2194-.2934L86.7786,59.4a4.4964,4.4964,0,0,1-2.3581.6068,3.9593,3.9593,0,0,1-3.25-1.4,7.1943,7.1943,0,0,1-1.1961-4.3683q-.034-.9389-.034-1.7557,0-.8145.034-1.7558a9.6451,9.6451,0,0,1,.3537-2.5292A5.366,5.366,0,0,1,81.238,46.4a3.7231,3.7231,0,0,1,1.38-1.0868,4.4287,4.4287,0,0,1,1.8021-.3556Zm0,1.2558a3.1746,3.1746,0,0,0-1.3143.2723,2.6665,2.6665,0,0,0-1.0608.8145,4.28,4.28,0,0,0-.7242,1.4436,8.4856,8.4856,0,0,0-.2865,2.089q-.0171.47-.0341.8779V53.276q.0171.3966.0341.8567a8.6021,8.6021,0,0,0,.2865,2.1126,4.49,4.49,0,0,0,.7072,1.42,2.8587,2.8587,0,0,0,1.0608.8356,3.65,3.65,0,0,0,2.655,0,2.74,2.74,0,0,0,1.0438-.8356,4.0848,4.0848,0,0,0,.7072-1.42,7.9974,7.9974,0,0,0,.3026-2.1126q.0169-.46.017-.8567V51.71q0-.3966-.017-.8779a7.9474,7.9474,0,0,0-.3026-2.089A4.0748,4.0748,0,0,0,86.7909,47.3a2.6642,2.6642,0,0,0-1.0609-.8145,3.1657,3.1657,0,0,0-1.3142-.2723Zm8.2191,12.33h5.8091q.3781,0,.3782.47v.3134q0,.46-.3782.46H91.9523q-.3706,0-.3706-.46V45.625q0-.46.3706-.46h.32q.3706,0,.3706.46V58.5432Zm-88.97,5.8835-1.1346-.8145L15.1871,36.419l1.1346.8145Z"/><path class="cls-1" d="M2.28,61.441H27.5777v1.6278H2.28Z"/><path class="cls-1" d="M15.4348,71.4239,2.78,62.3552l.6561-1.4083L16.09,70.0132ZM26.4271,47.7868,13.7736,38.7193l.6562-1.4084L27.0832,46.38Z"/><path class="cls-1" d="M3.4394,47.7821l-.6562-1.4083,12.6639-9.0582.6562,1.4084Z"/><path class="cls-1" d="M26.1935,64.4267l-12.65-27.1932,1.1346-.8145L27.3272,63.6122ZM3.2834,45.294h1.31V63.4315h-1.31Zm21.9883,0h1.3114V63.4315H25.2707Z"/><path class="cls-1" d="M15.2107,70.735l-.5729-1.2323,11.0055-7.8869.5729,1.2324Z"/><path class="cls-1" d="M28.3209,63.9608a2.4919,2.4919,0,0,1-3.7678,1.2546,3.9092,3.9092,0,0,1-1.0107-4.677A2.4919,2.4919,0,0,1,27.31,59.2838a3.8907,3.8907,0,0,1,1.0116,4.677M6.3175,48.1871A2.4919,2.4919,0,0,1,2.55,49.4417a3.9091,3.9091,0,0,1-1.0107-4.677A2.4918,2.4918,0,0,1,5.3067,43.51a3.9153,3.9153,0,0,1,1.0117,4.677M1.5475,63.9608a3.9118,3.9118,0,0,1,1.0116-4.677A2.4933,2.4933,0,0,1,6.3269,60.54a3.9119,3.9119,0,0,1-1.0117,4.677,2.49,2.49,0,0,1-3.7677-1.2558M23.5518,48.1871a3.9118,3.9118,0,0,1,1.0117-4.677,2.4932,2.4932,0,0,1,3.7678,1.2558A3.9117,3.9117,0,0,1,27.32,49.4428a2.4919,2.4919,0,0,1-3.7678-1.2546m-8.62,25.3741c-1.5241,0-2.7561-1.5292-2.7561-3.4211S13.4105,66.72,14.9318,66.72s2.7561,1.5293,2.7561,3.4212c-.0026,1.8881-1.235,3.4179-2.7561,3.4211m0-31.55c-1.5241,0-2.7561-1.5292-2.7561-3.4211S13.4105,35.17,14.9318,35.17s2.7561,1.5293,2.7561,3.4212c.0026,1.8862-1.2271,3.4179-2.7466,3.4211h-.0095"/><path class="cls-2" d="M38.8234,46.2118a3.68,3.68,0,0,0-1.38.25,2.5638,2.5638,0,0,0-1.0609.7746,4.0052,4.0052,0,0,0-.7072,1.3591,7.74,7.74,0,0,0-.2865,1.9952q-.053,1.8813,0,3.7627a7.6468,7.6468,0,0,0,.2865,1.9951,4.2769,4.2769,0,0,0,.7072,1.38,2.8358,2.8358,0,0,0,1.0609.7746,3.9635,3.9635,0,0,0,1.38.23,3.7462,3.7462,0,0,0,1.38-.25,3.03,3.03,0,0,0,1.0949-.791,3.9044,3.9044,0,0,0,.7431-1.38,6.419,6.419,0,0,0,.27-1.9647V53.2818H39.3774q-.3707,0-.3706-.4694V52.519q0-.4695.3706-.4695H42.98q.3783,0,.3782.4695v1.839a8.2488,8.2488,0,0,1-.3025,2.3,5.2839,5.2839,0,0,1-.8926,1.7792,3.9421,3.9421,0,0,1-1.4333,1.17,4.49,4.49,0,0,1-1.9194.3967,4.3786,4.3786,0,0,1-1.9193-.3967,4.1046,4.1046,0,0,1-1.3974-1.15,5.4205,5.4205,0,0,1-.8585-1.7347,9.3,9.3,0,0,1-.32-2.2581q-.0341-.9388-.0341-1.9857,0-1.0563.0341-1.9858a8.57,8.57,0,0,1,.3366-2.237,5.3923,5.3923,0,0,1,.8585-1.7558,3.9075,3.9075,0,0,1,1.3974-1.129,4.63,4.63,0,0,1,3.89.0211,4.5081,4.5081,0,0,1,1.3473,1.0563,4.2869,4.2869,0,0,1,.7753,1.2757,3.6922,3.6922,0,0,1,.2694,1.108.4173.4173,0,0,1-.085.3133.356.356,0,0,1-.27.1056h-.3706a.2692.2692,0,0,1-.2194-.0821,1.44,1.44,0,0,1-.1343-.3345,5.0406,5.0406,0,0,0-.3782-.9389,2.8754,2.8754,0,0,0-.6372-.8356,3.1921,3.1921,0,0,0-.96-.6068,3.4237,3.4237,0,0,0-1.3142-.23Zm7.95,4.1582a2.2626,2.2626,0,0,1,2.29-1.4436h.624q.3707,0,.3707.46V49.68q0,.46-.3707.46h-.7242a1.9435,1.9435,0,0,0-1.6.7312,3.0769,3.0769,0,0,0-.589,1.9858v6.4785a.468.468,0,0,1-.1182.3344.3283.3283,0,0,1-.27.1256h-.2694q-.3707,0-.3707-.46v-9.929a.5176.5176,0,0,1,.1012-.3345.3126.3126,0,0,1,.27-.1467h.2694a.3125.3125,0,0,1,.27.1467.4681.4681,0,0,1,.1182.3345v.9623Zm10.4,9.4314q-.3707,0-.3706-.46V58.359a3.0509,3.0509,0,0,1-.4037.5868,2.4855,2.4855,0,0,1-.5891.5223,3.2055,3.2055,0,0,1-.8509.3755,3.5485,3.5485,0,0,1-1.144.1667,3.0225,3.0225,0,0,1-1.163-.23,3.3451,3.3451,0,0,1-.96-.669,3.3934,3.3934,0,0,1-.6561-.9823A3.1534,3.1534,0,0,1,50.8,56.8966a3.2806,3.2806,0,0,1,.2364-1.2757,3.1007,3.1007,0,0,1,.69-.9824,3.44,3.44,0,0,1,1.0438-.71,5.2241,5.2241,0,0,1,1.3643-.4178l2.6606-.46v-.7312a2.5565,2.5565,0,0,0-.5559-1.7557,2.1711,2.1711,0,0,0-1.734-.6268,2.1452,2.1452,0,0,0-1.4655.46,1.9027,1.9027,0,0,0-.6373.9624.8151.8151,0,0,1-.1683.3556.326.326,0,0,1-.2364.0822h-.2364a.3613.3613,0,0,1-.2694-.1256.5747.5747,0,0,1-.1012-.3345,2.1255,2.1255,0,0,1,.1683-.7312,2.8251,2.8251,0,0,1,.5389-.8567,3.1772,3.1772,0,0,1,.9767-.71,3.0186,3.0186,0,0,1,1.4334-.3133,3.5184,3.5184,0,0,1,1.6338.3344,2.7,2.7,0,0,1,1.0278.8779,3.0781,3.0781,0,0,1,.5048,1.17,5.5955,5.5955,0,0,1,.1513,1.2758v6.96q0,.46-.3706.46h-.2865Zm-3.1825-1.0035a2.5728,2.5728,0,0,0,1.0779-.23,2.6089,2.6089,0,0,0,.9095-.7312,3.5805,3.5805,0,0,0,.6051-1.2123,5.9865,5.9865,0,0,0,.2194-1.7136v-.71l-2.1718.3755q-2.7948.4695-2.7949,2.2159a2.0169,2.0169,0,0,0,.1854.899,2.03,2.03,0,0,0,1.195,1.0023,2.87,2.87,0,0,0,.7754.1056ZM64.35,60.01a2.9656,2.9656,0,0,1-1.734-.47,3.8,3.8,0,0,1-1.0949-1.17v4.9528q0,.46-.3706.46h-.2865q-.3707,0-.3707-.46V49.3865q0-.46.3707-.46H61.15q.37,0,.3706.46v.9823a3.6527,3.6527,0,0,1,1.0949-1.17A3.38,3.38,0,0,1,66,49.1682a3.2117,3.2117,0,0,1,1.1119,1.1291,4.9268,4.9268,0,0,1,.6051,1.5891,9.6683,9.6683,0,0,1,.2363,1.798q.0171.3134.0171.69t-.0171.69a9.8967,9.8967,0,0,1-.2363,1.8191,5.2268,5.2268,0,0,1-.6051,1.5891A3.4508,3.4508,0,0,1,66,59.6019a3.0716,3.0716,0,0,1-1.65.4178ZM61.5208,53.614q-.0171.3133-.017.8145t.017.8145a6.3673,6.3673,0,0,0,.1683,1.2757,3.7665,3.7665,0,0,0,.5049,1.1291,2.9515,2.9515,0,0,0,.8509.8356,2.2533,2.2533,0,0,0,1.2121.3134,2.2274,2.2274,0,0,0,1.2292-.3134,2.3679,2.3679,0,0,0,.8084-.8356,3.873,3.873,0,0,0,.4538-1.2324,8.9452,8.9452,0,0,0,.1853-1.4635q.0171-.5868,0-1.17a8.5668,8.5668,0,0,0-.1853-1.4436,3.6311,3.6311,0,0,0-.4538-1.2124,2.3076,2.3076,0,0,0-.8084-.8567,2.1281,2.1281,0,0,0-1.2292-.3345,2.1757,2.1757,0,0,0-1.2291.3345,2.9133,2.9133,0,0,0-.851.8779,4.3208,4.3208,0,0,0-.4888,1.17,6.4351,6.4351,0,0,0-.1683,1.2957Zm9.77-3.244a4.1125,4.1125,0,0,1,1.0949-1.1912,2.9085,2.9085,0,0,1,1.734-.46,3.0359,3.0359,0,0,1,1.4986.3556,3.08,3.08,0,0,1,1.0609.9824,4.5106,4.5106,0,0,1,.6561,1.4846,7.4833,7.4833,0,0,1,.2194,1.86v5.9363q0,.46-.3706.46H76.9q-.3706,0-.3706-.46v-5.833a4.51,4.51,0,0,0-.6562-2.6125A2.1758,2.1758,0,0,0,73.954,49.93a2.3214,2.3214,0,0,0-1.9364.9389,4.2319,4.2319,0,0,0-.7242,2.6372v5.833q0,.46-.3707.46h-.2864q-.3707,0-.3707-.46V45.4137q0-.46.3707-.46h.2864q.3706,0,.3707.46v4.9528Zm13.1329-5.4128a4.3852,4.3852,0,0,1,1.7851.3556,3.5521,3.5521,0,0,1,1.38,1.0868,4.9868,4.9868,0,0,1,.91,1.798,9.1528,9.1528,0,0,1,.3707,2.5292q.0339.9389.034,1.7558,0,.8145-.034,1.7557A7.2282,7.2282,0,0,1,87.64,58.6278l1.0779,1.8813c.0113.0282.0227.0555.034.0821a.4369.4369,0,0,1,.017.1468.457.457,0,0,1-.1011.2934.2976.2976,0,0,1-.2364.1255h-.3706a.3879.3879,0,0,1-.32-.1877q-.1342-.1667-.2194-.2934L86.7786,59.4a4.4964,4.4964,0,0,1-2.3581.6068,3.9593,3.9593,0,0,1-3.25-1.4,7.1943,7.1943,0,0,1-1.1961-4.3683q-.034-.9389-.034-1.7557,0-.8145.034-1.7558a9.6451,9.6451,0,0,1,.3537-2.5292A5.366,5.366,0,0,1,81.238,46.4a3.7231,3.7231,0,0,1,1.38-1.0868,4.4287,4.4287,0,0,1,1.8021-.3556Zm0,1.2558a3.1746,3.1746,0,0,0-1.3143.2723,2.6665,2.6665,0,0,0-1.0608.8145,4.28,4.28,0,0,0-.7242,1.4436,8.4856,8.4856,0,0,0-.2865,2.089q-.0171.47-.0341.8779V53.276q.0171.3966.0341.8567a8.6021,8.6021,0,0,0,.2865,2.1126,4.49,4.49,0,0,0,.7072,1.42,2.8587,2.8587,0,0,0,1.0608.8356,3.65,3.65,0,0,0,2.655,0,2.74,2.74,0,0,0,1.0438-.8356,4.0848,4.0848,0,0,0,.7072-1.42,7.9974,7.9974,0,0,0,.3026-2.1126q.0169-.46.017-.8567V51.71q0-.3966-.017-.8779a7.9474,7.9474,0,0,0-.3026-2.089A4.0748,4.0748,0,0,0,86.7909,47.3a2.6642,2.6642,0,0,0-1.0609-.8145,3.1657,3.1657,0,0,0-1.3142-.2723Zm8.2191,12.33h5.8091q.3781,0,.3782.47v.3134q0,.46-.3782.46H91.9523q-.3706,0-.3706-.46V45.625q0-.46.3706-.46h.32q.3706,0,.3706.46V58.5432Zm-88.97,5.8835-1.1346-.8145L15.1871,36.419l1.1346.8145Z"/><path class="cls-2" d="M2.28,61.441H27.5777v1.6278H2.28Z"/><path class="cls-2" d="M15.4348,71.4239,2.78,62.3552l.6561-1.4083L16.09,70.0132ZM26.4271,47.7868,13.7736,38.7193l.6562-1.4084L27.0832,46.38Z"/><path class="cls-2" d="M3.4394,47.7821l-.6562-1.4083,12.6639-9.0582.6562,1.4084Z"/><path class="cls-2" d="M26.1935,64.4267l-12.65-27.1932,1.1346-.8145L27.3272,63.6122ZM3.2834,45.294h1.31V63.4315h-1.31Zm21.9883,0h1.3114V63.4315H25.2707Z"/><path class="cls-2" d="M15.2107,70.735l-.5729-1.2323,11.0055-7.8869.5729,1.2324Z"/><path class="cls-2" d="M28.3209,63.9608a2.4919,2.4919,0,0,1-3.7678,1.2546,3.9092,3.9092,0,0,1-1.0107-4.677A2.4919,2.4919,0,0,1,27.31,59.2838a3.8907,3.8907,0,0,1,1.0116,4.677M6.3175,48.1871A2.4919,2.4919,0,0,1,2.55,49.4417a3.9091,3.9091,0,0,1-1.0107-4.677A2.4918,2.4918,0,0,1,5.3067,43.51a3.9153,3.9153,0,0,1,1.0117,4.677M1.5475,63.9608a3.9118,3.9118,0,0,1,1.0116-4.677A2.4933,2.4933,0,0,1,6.3269,60.54a3.9119,3.9119,0,0,1-1.0117,4.677,2.49,2.49,0,0,1-3.7677-1.2558M23.5518,48.1871a3.9118,3.9118,0,0,1,1.0117-4.677,2.4932,2.4932,0,0,1,3.7678,1.2558A3.9117,3.9117,0,0,1,27.32,49.4428a2.4919,2.4919,0,0,1-3.7678-1.2546m-8.62,25.3741c-1.5241,0-2.7561-1.5292-2.7561-3.4211S13.4105,66.72,14.9318,66.72s2.7561,1.5293,2.7561,3.4212c-.0026,1.8881-1.235,3.4179-2.7561,3.4211m0-31.55c-1.5241,0-2.7561-1.5292-2.7561-3.4211S13.4105,35.17,14.9318,35.17s2.7561,1.5293,2.7561,3.4212c.0026,1.8862-1.2271,3.4179-2.7466,3.4211h-.0095"/></svg>