<svg id="Layer_1" data-name="Layer 1" xmlns="http://www.w3.org/2000/svg" viewBox="0 0 100 100"><defs><style>.cls-1{fill:#fff;}.cls-2{fill:#010101;}.cls-3{fill:#e35026;}.cls-4{fill:#ef672b;}.cls-5{fill:#ebebeb;}</style></defs><title>html5</title><polygon class="cls-1" points="28.491 18.565 28.491 14.197 28.283 14.197 28.283 18.565 20.134 18.565 20.134 1.737 28.283 1.737 28.283 6.048 28.491 6.048 28.491 1.737 36.641 1.737 36.641 18.565 28.491 18.565"/><polygon class="cls-1" points="38.589 18.565 38.589 9.848 34.75 9.848 34.75 1.737 50.577 1.737 50.577 9.848 46.738 9.848 46.738 18.565 38.589 18.565"/><polygon class="cls-1" points="59.067 18.565 59.067 16.618 58.991 16.75 56.854 16.75 56.76 16.618 56.76 18.565 48.705 18.565 48.705 1.737 56.212 1.737 57.951 4.592 59.691 1.737 67.198 1.737 67.198 18.565 59.067 18.565"/><polygon class="cls-1" points="65.59 18.565 65.59 1.737 73.721 1.737 73.721 10.472 79.866 10.472 79.866 18.565 65.59 18.565"/><path class="cls-2" d="M22.0245,3.6274h4.3679V7.9386h3.99V3.6274H34.75V16.6745H30.3822v-4.368h-3.99v4.368H22.0245V3.6274Z"/><path class="cls-2" d="M40.4794,7.9575H36.641v-4.33H48.6858v4.33H44.8474v8.717h-4.368V7.9575Z"/><path class="cls-2" d="M50.5956,3.6274h4.557l2.7985,4.5948L60.75,3.6274h4.557V16.6745h-4.349V10.2077L57.9511,14.84h-.0756L54.869,10.2077v6.4668H50.5956Z"/><path class="cls-2" d="M67.4812,3.6274h4.3679v8.7359h6.1453v4.3112H67.5V3.6274Z"/><g id="Guides_to_delete" data-name="Guides to delete"><polygon class="cls-3" points="21.873 90.362 15.614 20.135 84.386 20.135 78.108 90.381 49.991 98.171 21.873 90.362"/><polygon class="cls-4" points="50.009 25.883 50.009 92.196 72.757 85.899 78.108 25.883 50.009 25.883"/><polygon class="cls-1" points="28.435 34.487 30.741 60.543 60.598 60.543 59.596 71.718 49.991 74.308 40.404 71.718 39.761 64.533 31.101 64.533 32.349 78.374 49.991 83.271 67.651 78.374 70.015 51.92 38.626 51.92 37.832 43.109 70.771 43.109 70.809 43.109 71.584 34.487 28.435 34.487"/><polygon class="cls-5" points="50.009 34.487 28.435 34.487 30.741 60.543 50.009 60.543 50.009 51.92 38.626 51.92 37.832 43.109 50.009 43.109 50.009 34.487"/><polygon class="cls-5" points="50.009 74.308 49.991 74.308 40.404 71.718 39.761 64.533 31.101 64.533 32.349 78.374 49.991 83.271 50.009 83.271 50.009 74.308"/></g></svg>