<svg id="Layer_1" data-name="Layer 1" xmlns="http://www.w3.org/2000/svg" viewBox="0 0 100 100"><defs><style>.cls-1{fill:#e9272f;}.cls-2{fill:#3b71b8;}.cls-3{fill:#fff;}.cls-4{fill:#010101;}.cls-5{fill:#f9f9fa;}</style></defs><title>javaee</title><g id="g10"><g id="g12"><path id="path14" class="cls-1" d="M59.5148,1.4334a5.4457,5.4457,0,0,1,2.3436,6.0745c-.6922,2.3651-2.7513,4.457-5.1652,6.2581A45.6672,45.6672,0,0,1,50.2111,17.69c-2.7013,1.3881-5.3557,2.8854-7.054,4.84a4.3735,4.3735,0,0,0-.789,5.2658C43.97,30.7567,47.7,32.9535,49.733,35.7471c-2.2467-1.2678-4.4494-2.5794-6.5055-3.97a22.2587,22.2587,0,0,1-5.523-4.8548,3.9524,3.9524,0,0,1-.6218-4.1357c.6922-1.388,2.2467-2.5028,3.8013-3.5411,4.3292-2.7629,9.6615-4.7936,13.8939-7.6024,2.3436-1.541,4.2794-3.3881,4.9511-5.5106a7.225,7.225,0,0,0-.2142-4.6995h0"/><path class="cls-1" d="M51.3809,37.2153l-1.8785-1.06c-2.6284-1.4829-4.7055-2.75-6.5376-3.99a22.88,22.88,0,0,1-5.6386-4.9663,4.3787,4.3787,0,0,1-.6612-4.625c.7408-1.4858,2.3619-2.6513,3.9585-3.7178a75.6242,75.6242,0,0,1,6.77-3.6816A68.8843,68.8843,0,0,0,54.52,11.2529c2.5967-1.708,4.1983-3.478,4.7618-5.2612a6.7059,6.7059,0,0,0-.212-4.4131L58.6211.2051l1.1689.8491A5.9412,5.9412,0,0,1,62.3066,7.645c-.6337,2.1655-2.3789,4.2925-5.333,6.4966a45.2481,45.2481,0,0,1-6.5488,3.9648c-2.45,1.2593-5.208,2.7676-6.9136,4.73a3.8935,3.8935,0,0,0-.7353,4.7266,18.3168,18.3168,0,0,0,3.9111,4.3637,24.8776,24.8776,0,0,1,3.4248,3.544ZM60.3643,2.8359a6.68,6.68,0,0,1-.1934,3.4527c-.626,1.98-2.3545,3.9179-5.1348,5.7466a69.5194,69.5194,0,0,1-7.2231,3.978,75.1348,75.1348,0,0,0-6.6773,3.6279c-1.4834.9912-2.9936,2.0713-3.6337,3.355a3.6024,3.6024,0,0,0,.5849,3.6558A22.0779,22.0779,0,0,0,43.4912,31.39c1.1665.7891,2.4365,1.5914,3.89,2.4561-.4335-.4145-.8818-.8223-1.3247-1.2246a18.9631,18.9631,0,0,1-4.1005-4.603,4.8323,4.8323,0,0,1,.8535-5.8033c1.8091-2.0815,4.6587-3.643,7.187-4.9423a44.4022,44.4022,0,0,0,6.4155-3.8814c2.7861-2.0786,4.42-4.0459,4.9961-6.0151A4.6764,4.6764,0,0,0,60.3643,2.8359Z"/><path id="path18" class="cls-1" d="M55.9746,18.8175a64.2282,64.2282,0,0,1,15.5688-4.5793c-4.3527,1.7705-8.896,3.388-12.65,5.6635A8.5871,8.5871,0,0,0,55.64,22.8789a2.5542,2.5542,0,0,0,.2874,2.6558c1.0031,1.4645,2.7014,2.6558,3.9948,4a2.9488,2.9488,0,0,1,.4547,3.8472c-1.2671,1.8164-3.7544,3.1432-6.3384,4.1968a3.6221,3.6221,0,0,1-1.0295.3826c1.7217-.9924,3.0621-2.3958,3.0123-3.9084-.047-1.13-1.03-2.1224-2.1764-2.9312-2.367-1.8012-4.3527-4.09-3.945-6.5183.4077-2.4263,3.1326-4.38,6.0744-5.786h0"/><path class="cls-1" d="M50.9917,38.584l1.7837-1.0288c1.8037-1.04,2.8164-2.3106,2.7773-3.4864-.0332-.7973-.6982-1.6616-1.9775-2.5644C50.4473,29.125,49.06,26.78,49.438,24.5259c.3765-2.24,2.5073-4.3028,6.3345-6.1314l.0029-.0014A64.1638,64.1638,0,0,1,71.459,13.7773l4.4765-.82L71.72,14.6724q-1.2465.5069-2.5058,1.0024a68.6579,68.6579,0,0,0-10.0782,4.6279,8.3,8.3,0,0,0-3.0771,2.7886,2.14,2.14,0,0,0,.2588,2.1826A15.0239,15.0239,0,0,0,58.71,27.7534c.5244.4683,1.0664.9527,1.5507,1.4561a3.4055,3.4055,0,0,1,.5049,4.4345c-1.1308,1.6211-3.2109,3.0079-6.55,4.3687a2.9171,2.9171,0,0,0-.2959.1338,2.2914,2.2914,0,0,1-.875.2822Zm5.1831-19.3428c-2.43,1.1616-5.41,3.0479-5.812,5.44-.394,2.3466,1.8306,4.5947,3.7671,6.0673,1.5371,1.0845,2.3135,2.1621,2.36,3.2852a3.6475,3.6475,0,0,1-.8369,2.32,10.88,10.88,0,0,0,4.3389-3.24,2.4786,2.4786,0,0,0-.4072-3.2544c-.46-.4776-.9883-.95-1.5-1.4068a15.67,15.67,0,0,1-2.544-2.6533,3.02,3.02,0,0,1-.3154-3.1377,9.1,9.1,0,0,1,3.4209-3.1587,54.9452,54.9452,0,0,1,7.709-3.6938A53.4124,53.4124,0,0,0,56.1748,19.2412Z"/><path id="path22" class="cls-2" d="M72.4262,36.464a7.9886,7.9886,0,0,1,4.0653-1.0995,12.6666,12.6666,0,0,1,7.1508,1.3138c1.578.9005,2.4638,2.3039,2.1294,3.6635-.3578,1.5716-2.0091,2.8853-3.8746,3.8777A40.3323,40.3323,0,0,1,70.203,47.6229a3.8729,3.8729,0,0,1,.8124-.4438,31.1249,31.1249,0,0,0,8.6086-4.12c1.4108-1.0995,2.5107-2.5334,2.0561-3.9848-.4781-1.6788-3.0358-2.9007-5.6433-2.9925a18.89,18.89,0,0,0-3.6106.3825h0"/><path class="cls-2" d="M68.2637,48.4106l1.67-1.1713a4.2752,4.2752,0,0,1,.91-.4961A30.9,30.9,0,0,0,79.34,42.686c.8926-.6953,2.33-2.0752,1.8926-3.4721-.4013-1.41-2.6894-2.5752-5.2119-2.6641a10.9394,10.9394,0,0,0-2.4971.2207c-.3457.0571-.69.1138-1.038.1582l-1.7061.2178,1.3594-1.0532a8.3458,8.3458,0,0,1,4.3134-1.1958,13.0243,13.0243,0,0,1,7.4258,1.3754c1.8262,1.0416,2.7276,2.6446,2.3487,4.1812-.3418,1.5015-1.7246,2.9106-4.1084,4.1792a40.2971,40.2971,0,0,1-11.8409,3.4526Zm9.2861-12.63c2.2959.4414,4.1582,1.6787,4.5811,3.1645.4462,1.4238-.3409,3.02-2.2188,4.4829a23.2521,23.2521,0,0,1-4.9736,2.77,31.2434,31.2434,0,0,0,6.7451-2.396c2.0967-1.1157,3.3545-2.35,3.6309-3.5644.2763-1.1206-.4541-2.3252-1.9043-3.1524A11.7958,11.7958,0,0,0,77.55,35.7808Z"/><path id="path26" class="cls-2" d="M24.359,37.8521A51.5241,51.5241,0,0,1,38.35,35.9132a78.9131,78.9131,0,0,0-8.2977,1.7552,4.1047,4.1047,0,0,0-1.6982.8241c-.1907.3213.3344.5334.7186.6405a27.1215,27.1215,0,0,0,5.1651.5945c6.1213.26,12.2691.1071,18.3669-.1377,6.0275-.2448,12.0051-.7628,17.9592-1.3727-1.314.3978-2.6544.7935-3.8746,1.2984a8.346,8.346,0,0,1-2.0824.4568,171.77,171.77,0,0,1-22.2885,1.434c-2.8949.0153-5.7634-.0153-8.632-.1377a76.8128,76.8128,0,0,1-9.5647-.8241,8.4839,8.4839,0,0,1-2.5841-.7629.4164.4164,0,0,1-.0469-.7628,11.9047,11.9047,0,0,1,2.8685-1.0667h0"/><path class="cls-2" d="M40.9688,41.8784c-2.7115,0-5.0591-.0459-7.3028-.1416a75.8652,75.8652,0,0,1-9.623-.8305,8.9635,8.9635,0,0,1-2.7383-.8179.8976.8976,0,0,1-.5088-.7388.9289.9289,0,0,1,.4292-.8169,8.8673,8.8673,0,0,1,2.3716-.9424c.21-.061.4189-.122.6225-.1855l.0157-.0049A51.5836,51.5836,0,0,1,38.354,35.4443l.0811.93-1.53.2774a61.0323,61.0323,0,0,0-6.7173,1.4658l-.2246.0762a5.455,5.455,0,0,0-1.0059.4091,2.4256,2.4256,0,0,0,.2412.0787,23.0814,23.0814,0,0,0,4.4473.5419l.6211.0367c6.3628.27,12.832.082,18.3193-.1382,5.212-.2114,10.7412-.6343,17.93-1.3706l.1836.915-.2471.0747c-1.21.3657-2.4619.7437-3.583,1.208A7.155,7.155,0,0,1,64.99,40.39l-.3134.0454a168.82,168.82,0,0,1-22.3536,1.44Q41.63,41.8786,40.9688,41.8784ZM24.4907,38.3018c-.2065.0644-.4184.1264-.6313.1884a8.2333,8.2333,0,0,0-2.1118.8208,9.7908,9.7908,0,0,0,2.4589.6724,75.2269,75.2269,0,0,0,9.5.8169c2.5942.1108,5.333.1548,8.61.1372A168.095,168.095,0,0,0,64.541,39.5083l.3164-.0464a6.4909,6.4909,0,0,0,1.6416-.3745c-5.289.4946-9.6836.8008-13.876.9707-5.5068.2212-12,.41-18.4052.1377l-.6265-.0366a23.7665,23.7665,0,0,1-4.6387-.5733c-.5981-.1665-.9321-.3891-1.0581-.7031a.6985.6985,0,0,1,.0567-.6294,3.5985,3.5985,0,0,1,1.7143-.9487l.2339-.08q.5457-.1641,1.103-.31A56.2132,56.2132,0,0,0,24.4907,38.3018Z"/><path id="path30" class="cls-2" d="M30.0023,44.37a18.721,18.721,0,0,1,4.2089-1.3137c-.4781.3672-1.1468.717-1.1967,1.2219-.0234.3213.3813.564.789.717a11.4366,11.4366,0,0,0,2.5577.4284,127.49,127.49,0,0,0,13.8705.2754c4.2324-.1377,8.4414-.5792,12.6268-1.0536a16.6511,16.6511,0,0,0,3.945,1.5717A115.1665,115.1665,0,0,1,51.355,47.9726a102.0224,102.0224,0,0,1-14.8266-.306,29.797,29.797,0,0,1-5.6931-1.0689c-.7186-.2448-1.5311-.5639-1.7452-1.1-.1408-.4568.3872-.8678.9122-1.1279h0"/><path class="cls-2" d="M45.68,48.5708a89.7043,89.7043,0,0,1-9.1992-.438,30.1754,30.1754,0,0,1-5.791-1.09c-.835-.2842-1.7452-.646-2.0347-1.3711-.2022-.65.2168-1.2642,1.1372-1.7207A18.9543,18.9543,0,0,1,34.1079,42.6l2.085-.4726-1.6963,1.3017c-.1026.0786-.2129.1567-.3252.2354-.2832.1992-.6719.4721-.69.66.0131-.0224.1425.103.4878.2324a11.08,11.08,0,0,0,2.4331.4,126.24,126.24,0,0,0,13.81.274c4.3023-.14,8.5806-.5962,12.5943-1.0513l.1572-.0176.1357.0811a16.5013,16.5013,0,0,0,3.834,1.5234l1.9063.5459-1.9493.3657a116.0664,116.0664,0,0,1-15.5107,1.7627C49.3882,48.5273,47.4927,48.5708,45.68,48.5708ZM32.6265,43.9219a12.64,12.64,0,0,0-2.4136.8672L30.21,44.79c-.5136.2544-.6938.5005-.6723.57.1411.3491,1.0908.6723,1.4482.7939a29.448,29.448,0,0,0,5.5972,1.0474,101.2428,101.2428,0,0,0,14.7515.3032,118.224,118.224,0,0,0,13.5234-1.4185,13.6584,13.6584,0,0,1-2.1025-.957c-3.9873.4512-8.2325.9-12.5093,1.0386A126.9194,126.9194,0,0,1,36.33,45.8916a11.8325,11.8325,0,0,1-2.6729-.4507c-.9663-.3633-1.1352-.8506-1.11-1.1968A1.1468,1.1468,0,0,1,32.6265,43.9219Z"/><path id="path34" class="cls-2" d="M32.777,51.0241a14.0662,14.0662,0,0,1,3.8012-1.0995c-.4311.26-1.1967.5792-.8623,1.023a6.1143,6.1143,0,0,0,2.7981.7322,95.5323,95.5323,0,0,0,12.1723.3367c3.0621-.1225,6.0744-.4722,9.0632-.8088,1.7217.64,3.5138,1.1913,5.3558,1.6787a57.7714,57.7714,0,0,1-8.896,1.6941,73.6165,73.6165,0,0,1-15.5453.1377,31.2237,31.2237,0,0,1-6.6493-1.3137,3.8041,3.8041,0,0,1-1.9622-1.1913c-.2552-.4394.173-.9137.7245-1.1891h0"/><path class="cls-2" d="M47.6938,55.5352a70.7771,70.7771,0,0,1-7.0766-.3506A31.7224,31.7224,0,0,1,33.86,53.8467a4.0785,4.0785,0,0,1-2.21-1.3946.9954.9954,0,0,1-.0977-.8056,1.8811,1.8811,0,0,1,1.0127-1.04,14.5469,14.5469,0,0,1,3.9288-1.1425l2.5244-.4619L36.6,50.4526a4.3164,4.3164,0,0,0-.4121.252,5.6745,5.6745,0,0,0,1.8975.4458l.4961.0654a96.495,96.495,0,0,0,12.0825.333c2.9009-.1162,5.7973-.4424,8.5991-.7578l.5449-.0615.1045.0391c1.626.6044,3.3633,1.1494,5.3135,1.665l1.6445.4355-1.6357.4678a57.8123,57.8123,0,0,1-8.9688,1.709A76.2618,76.2618,0,0,1,47.6938,55.5352ZM35.1655,50.6924a9.7985,9.7985,0,0,0-2.1748.749l-.0044.002a1.0606,1.0606,0,0,0-.5356.4716c.2764.5147,1.1489.837,1.7261,1.05a30.9054,30.9054,0,0,0,6.5405,1.2872,72.8762,72.8762,0,0,0,15.439-.1377A62.81,62.81,0,0,0,63.31,52.875c-1.2823-.375-2.4776-.7676-3.6192-1.1885l-.3232.0362c-2.8174.3173-5.7315.6455-8.6621.7627a97.9459,97.9459,0,0,1-12.228-.3389l-.5093-.0654a5.0939,5.0939,0,0,1-2.55-.7715l-.0762-.08A.8072.8072,0,0,1,35.1655,50.6924Z"/><path id="path38" class="cls-2" d="M19.5048,55.3455a35.79,35.79,0,0,1,6.793-.9005,7.4615,7.4615,0,0,1,2.7014.3213,29.9367,29.9367,0,0,0-8.0337,1.36c-.5514.1989-1.1733.4284-1.3874.8394,0,.4721.836.6251,1.3874.7781a66.5028,66.5028,0,0,0,10.8083,1.329,293.8419,293.8419,0,0,0,32.5718-.1989,113.9054,113.9054,0,0,0,12.1723-1.2984,8.4692,8.4692,0,0,0,3.54-1.2678c.5015-.4262.1672-.9618-.3344-1.3268.8125.2907,1.9593.6558,1.795,1.3574-.3109.7323-1.4841,1.1148-2.44,1.4645a55.8407,55.8407,0,0,1-9.7818,1.9389A207.9691,207.9691,0,0,1,39.69,61.055c-7.4617-.1683-14.9235-.6251-22.2884-1.4339a9.5181,9.5181,0,0,1-3.7543-1.023c-.6219-.4568-.07-1.0995.525-1.4339a19.4621,19.4621,0,0,1,5.3323-1.8187h0"/><path class="cls-2" d="M45.02,61.5732q-2.6111,0-5.3384-.05c-7.72-.1738-15.2329-.6572-22.331-1.4365l-.3779-.0556a8.692,8.692,0,0,1-3.59-1.0469,1.0418,1.0418,0,0,1-.4756-.9121c.0425-.7051.8037-1.1866,1.0357-1.3164a19.681,19.681,0,0,1,5.456-1.8663l.0079-.0019a36.41,36.41,0,0,1,6.8823-.9111,7.83,7.83,0,0,1,2.876.3515l2.1679.8184-2.3154.0889a29.5228,29.5228,0,0,0-7.9063,1.3359,4.1128,4.1128,0,0,0-.9658.4463,7.5381,7.5381,0,0,0,.73.2168l.2153.0566a66.6912,66.6912,0,0,0,10.7154,1.3135,290.8244,290.8244,0,0,0,32.5127-.1992,114.2571,114.2571,0,0,0,12.1152-1.291l.2217-.0489a7.5971,7.5971,0,0,0,3.0976-1.1142c.04-.0342.086-.0811.084-.1211-.0029-.0928-.1269-.2793-.3887-.4707l-2.6416-1.9219,3.2041,1.1475c.8829.3134,2.2149.7871,1.9639,1.8593-.3945.95-1.5391,1.3643-2.5488,1.73l-.1865.0684a56.3752,56.3752,0,0,1-9.8809,1.9629A195.4678,195.4678,0,0,1,45.02,61.5732Zm-25.4131-5.77a18.9867,18.9867,0,0,0-5.1963,1.7647c-.3637.2051-.5615.457-.5678.5615-.001.0166.0332.0557.082.0908a8.1168,8.1168,0,0,0,3.1846.8838l.3628.0537c7.0517.7744,14.5371,1.2559,22.229,1.4287a207.0194,207.0194,0,0,0,29.5371-1.3095c2.2822-.3028,4.6543-.6407,6.9287-1.1631-3.8457.664-7.8408.9472-11.709,1.2217a291.6445,291.6445,0,0,1-32.709.205,67.4844,67.4844,0,0,1-10.8921-1.3408l-.2182-.0576c-.6089-.1592-1.5293-.3984-1.5293-1.1768V56.85l.0532-.1016a2.8342,2.8342,0,0,1,1.6436-1.0625q.5265-.1728,1.0766-.3251C21.0576,55.501,20.2905,55.6563,19.6069,55.8027Zm61.1656.0957a1.0811,1.0811,0,0,1-.4112.7666,3.4008,3.4008,0,0,1-.4472.32,2.1809,2.1809,0,0,0,1.1728-.83C81.1,56.0879,80.9658,55.9961,80.7725,55.8984Z"/><path id="path42" class="cls-2" d="M79.099,60.5654c2.4168-.5334,4.9979-1.0995,6.793-2.3192-.3109,1.3268-2.1031,2.2427-3.8746,2.8394a54.8289,54.8289,0,0,1-10.9756,2.0766,216.3139,216.3139,0,0,1-24.2008.9159,145.2093,145.2093,0,0,1-16.5249-.9771,17.5978,17.5978,0,0,1-3.8012-.87c4.8307.5181,9.7319.7323,14.636.8547,8.06.153,16.1436-.0459,24.1538-.6864A125.5762,125.5762,0,0,0,79.099,60.5654h0"/><path class="cls-2" d="M50.31,64.5664q-1.7073,0-3.4742-.02a145.0112,145.0112,0,0,1-16.582-.9815c-.272-.0478-.5283-.09-.7856-.1318a13.4072,13.4072,0,0,1-3.14-.7725l-2.8213-1.2236,3.0577.3281c5.247.5615,10.5576.75,14.5981.8516,8.34.1592,16.45-.0723,24.105-.6846A125.029,125.029,0,0,0,79.001,60.1064l.0224-.0048c2.4043-.53,4.8907-1.0782,6.6045-2.2432l.9942-.6748-.2744,1.1689C86.05,59.627,84.6436,60.6963,82.167,61.53a55.8912,55.8912,0,0,1-11.0723,2.0976A206.4126,206.4126,0,0,1,50.31,64.5664Zm-3.8047-.9639c.1147.002.23.0049.3452.0069a214.8224,214.8224,0,0,0,24.145-.9141,55.0328,55.0328,0,0,0,10.874-2.0537,11.6148,11.6148,0,0,0,2.0342-.88,35.159,35.159,0,0,1-4.6777,1.2559l-.0332.0068a125.8793,125.8793,0,0,1-13.8457,1.8418C59.3086,63.35,52.9922,63.5957,46.5049,63.6025Z"/><path id="path46" class="cls-1" d="M11.3215,88.5772c.0176-5.2-.0176-10.4025.0176-15.618,1.2143.0306,2.4257,0,3.64.0306-.0176,5.8188,0,11.6551-.0176,17.4891a9.3192,9.3192,0,0,1-.9621,4.8046A8.6847,8.6847,0,0,1,9.415,98.5666c-.5895-.57-1.1233-1.1738-1.7129-1.7443h0c1.4988-.776,2.9976-1.8864,3.3525-3.4886a24.8124,24.8124,0,0,0,.2669-4.7565h0"/><path id="path50" class="cls-1" d="M22.7869,89.974a2.3959,2.3959,0,0,0-1.73,1.458,2.568,2.568,0,0,0,.4106,2.4416,2.9051,2.9051,0,0,0,2.499.73,7.046,7.046,0,0,0,3.3-1.4427c0-1.1891-.0176-2.3629,0-3.552A15.1578,15.1578,0,0,0,22.7869,89.974Zm-4.426-7.3576a17.194,17.194,0,0,1,7.7081-1.141,5.6792,5.6792,0,0,1,3.64,1.5541,4.2225,4.2225,0,0,1,.9825,2.9182V96.5863H27.999c-.088-.5225-.1789-1.0624-.2493-1.6023a9.7,9.7,0,0,1-3.3731,1.6809,8.1487,8.1487,0,0,1-4.4436-.19,3.6214,3.6214,0,0,1-2.2467-2.2843,4.4017,4.4017,0,0,1,.9621-4.3914,7.4378,7.4378,0,0,1,4.2089-1.8864,25.5084,25.5084,0,0,1,4.4055-.2535c-.0352-.999.1789-2.0919-.4634-2.9815a3.1117,3.1117,0,0,0-2.3377-.999A15.2916,15.2916,0,0,0,18.86,84.52c-.176-.6361-.3373-1.27-.4986-1.9039"/><path id="path54" class="cls-1" d="M54.0916,89.9959a2.4468,2.4468,0,0,0-1.6777,1.4273,2.6462,2.6462,0,0,0,.393,2.457,2.97,2.97,0,0,0,2.5518.73A6.8292,6.8292,0,0,0,58.6408,93.12c-.0352-1.1563-.0176-2.33-.0176-3.504A15.01,15.01,0,0,0,54.0916,89.9959Zm-4.37-7.373a17.1074,17.1074,0,0,1,7.7433-1.141,5.7133,5.7133,0,0,1,3.549,1.4908,4.3606,4.3606,0,0,1,1.053,3.1389c-.0176,3.5039.0176,6.9926-.0352,10.4965-.8916-.0306-1.7833.0153-2.6749-.0306-.088-.54-.1614-1.0623-.2669-1.5847a8.4655,8.4655,0,0,1-4.4436,1.8558,6.39,6.39,0,0,1-4.514-1.0318,4.1466,4.1466,0,0,1-1.1586-4.1859,4.6191,4.6191,0,0,1,2.7835-3.0121,16.9861,16.9861,0,0,1,6.8692-.9509,5.4057,5.4057,0,0,0-.393-2.87,2.8346,2.8346,0,0,0-2.1939-1.0951,15.0739,15.0739,0,0,0-5.8163.824c-.1613-.6339-.34-1.2678-.5016-1.9039"/><path id="path58" class="cls-1" d="M32.7124,81.6852H36.458c.73,2.0919,1.446,4.1706,2.1763,6.2625.4282,1.2853.9621,2.5531,1.2671,3.869.1613.5858.3021,1.1891.4986,1.76a53.6061,53.6061,0,0,0,3.3173-11.8911h3.64a55.7588,55.7588,0,0,1-5.2092,14.9207H37.8658c-1.71-4.9794-3.44-9.9413-5.1534-14.9207h0"/></g></g><polygon class="cls-3" points="65.852 83.372 65.852 72.683 79.689 72.683 79.689 76.109 72.363 76.109 72.363 76.24 79.271 76.24 79.271 79.667 72.363 79.667 72.363 79.945 80.062 79.945 80.062 83.372 65.852 83.372"/><polygon class="cls-3" points="80.92 83.372 80.92 72.683 94.779 72.683 94.779 76.109 87.454 76.109 87.454 76.24 94.361 76.24 94.361 79.667 87.454 79.667 87.454 79.945 95.153 79.945 95.153 83.372 80.92 83.372"/><path class="cls-4" d="M78.3906,79.0108H71.4832v1.6066h7.6994v2.1148H66.71V73.3549H78.8086V75.47H71.4832V76.896h6.9074Z"/><path class="cls-4" d="M93.4813,79.0108H86.5739v1.6066h7.6993v2.1148H81.8V73.3549h12.099V75.47H86.5739V76.896h6.9074Z"/><path class="cls-5" d="M73.1771,97.7a21.8425,21.8425,0,0,1-5.5875-.6886l-.77-.23,1.4738-3.3772.858.2459a17.0888,17.0888,0,0,0,4.3556.6066,5.5122,5.5122,0,0,0,1.1219-.082,14.9118,14.9118,0,0,0-1.7379-.3606c-3.8056-.6066-5.7415-1.8034-5.7415-3.5411,0-2.164,3.1018-3.6067,7.7213-3.6067a21.7387,21.7387,0,0,1,5.2136.5574l.88.2131-1.65,3.2788-.792-.18a15.5589,15.5589,0,0,0-3.7176-.459c-.286,0-.528.0163-.726.0327.44.0984,1.0779.23,1.6939.3279l.264.0492c2.2877.4262,5.3015,1.2459,5.3015,3.5083C81.36,95.8146,79.2046,97.7,73.1771,97.7Z"/><polygon class="cls-5" points="82.13 97.536 82.13 86.847 95.417 86.847 95.417 90.273 88.444 90.273 88.444 90.405 95.021 90.405 95.021 93.831 88.444 93.831 88.444 94.11 95.791 94.11 95.791 97.536 82.13 97.536"/><path class="cls-4" d="M68.8435,94.2736a17.6319,17.6319,0,0,0,4.6636.6558c1.5178,0,2.2878-.2787,2.2878-.7542,0-.41-.748-.6721-2.7058-.9836-2.7717-.4426-5.0375-1.2623-5.0375-2.8853,0-1.705,2.64-2.9509,6.8414-2.9509a20.6854,20.6854,0,0,1,4.95.5246l-1.0339,2.0656a16.648,16.648,0,0,0-3.9816-.4918c-1.3419,0-2.1119.2459-2.1119.6557,0,.5082,1.034.6722,3.1458,1.0493,3.1457.59,4.6415,1.459,4.6415,2.8853,0,1.5738-2.1338,3.0165-7.3033,3.0165a20.7687,20.7687,0,0,1-5.2575-.6394Z"/><path class="cls-4" d="M94.1412,93.1752H87.5638v1.6066h7.3474v2.1148H83.0322V87.5193h11.527v2.1148H87.5638V91.06h6.5774Z"/></svg>