<?xml version="1.0" encoding="utf-8"?>
<!-- Generator: Adobe Illustrator 22.0.1, SVG Export Plug-In . SVG Version: 6.00 Build 0)  -->
<svg version="1.1"
	 id="svg2" xmlns:cc="http://creativecommons.org/ns#" xmlns:dc="http://purl.org/dc/elements/1.1/" xmlns:rdf="http://www.w3.org/1999/02/22-rdf-syntax-ns#" xmlns:svg="http://www.w3.org/2000/svg"
	 xmlns="http://www.w3.org/2000/svg" xmlns:xlink="http://www.w3.org/1999/xlink" x="0px" y="0px" viewBox="0 0 428.4 798.6"
	 style="enable-background:new 0 0 428.4 798.6;" xml:space="preserve">
<style type="text/css">
	.st0{fill:#EA232D;}
	.st1{fill:none;stroke:#EA232D;stroke-width:0.9375;stroke-miterlimit:10;}
	.st2{fill:#3471C1;}
	.st3{fill:none;stroke:#3471C1;stroke-width:0.9375;stroke-miterlimit:10;}
	.st4{fill:#FFFFFF;}
	.st5{fill:#F9F9F9;}
</style>
<g id="g10" transform="matrix(1.3333333,0,0,-1.3333333,0,798.56)">
	<g id="g12" transform="scale(0.1)">
		<path id="path14" class="st0" d="M1902.7,5796.5c76.6-74.7,101.9-181.6,79.9-277.9c-23.6-108.2-93.8-203.9-176.1-286.3
			c-66-66.3-141.9-125-221-179.5c-92.1-63.5-182.6-132-240.5-221.4c-48.9-72.6-60.3-162-26.9-240.9
			c54.6-135.5,181.8-236,251.1-363.8c-76.6,58-151.7,118-221.8,181.6c-73.4,67-142.7,138.3-188.3,222.1
			c-31,58.7-44.8,127.1-21.2,189.2c23.6,63.5,76.6,114.5,129.6,162c147.6,126.4,329.4,219.3,473.7,347.8
			c79.9,70.5,145.9,155,168.8,252.1C1928.7,5652.7,1919.8,5726,1902.7,5796.5L1902.7,5796.5"/>
		<path id="path16" class="st1" d="M1902.7,5796.5c76.6-74.7,101.9-181.6,79.9-277.9c-23.6-108.2-93.8-203.9-176.1-286.3
			c-66-66.3-141.9-125-221-179.5c-92.1-63.5-182.6-132-240.5-221.4c-48.9-72.6-60.3-162-26.9-240.9
			c54.6-135.5,181.8-236,251.1-363.8c-76.6,58-151.7,118-221.8,181.6c-73.4,67-142.7,138.3-188.3,222.1
			c-31,58.7-44.8,127.1-21.2,189.2c23.6,63.5,76.6,114.5,129.6,162c147.6,126.4,329.4,219.3,473.7,347.8
			c79.9,70.5,145.9,155,168.8,252.1C1928.7,5652.7,1919.8,5726,1902.7,5796.5L1902.7,5796.5z"/>
		<path id="path18" class="st0" d="M1782,5001.2c158.2,99.9,343.2,163.4,530.8,209.5c-148.4-81-303.3-155-431.3-259.1
			c-46.5-38.4-90.5-82.4-110.9-136.2c-15.5-39.8-9-83.8,9.8-121.5c34.2-67,92.1-121.5,136.2-183c37.5-52.4,44-119.4,15.5-176
			c-43.2-83.1-128-143.8-216.1-192c-11.4-5.6-21.2-16.1-35.1-17.5c58.7,45.4,104.4,109.6,102.7,178.8
			c-1.6,51.7-35.1,97.1-74.2,134.1c-80.7,82.4-148.4,187.1-134.5,298.2C1588.8,4847.5,1681.7,4936.9,1782,5001.2L1782,5001.2"/>
		<path id="path20" class="st1" d="M1782,5001.2c158.2,99.9,343.2,163.4,530.8,209.5c-148.4-81-303.3-155-431.3-259.1
			c-46.5-38.4-90.5-82.4-110.9-136.2c-15.5-39.8-9-83.8,9.8-121.5c34.2-67,92.1-121.5,136.2-183c37.5-52.4,44-119.4,15.5-176
			c-43.2-83.1-128-143.8-216.1-192c-11.4-5.6-21.2-16.1-35.1-17.5c58.7,45.4,104.4,109.6,102.7,178.8
			c-1.6,51.7-35.1,97.1-74.2,134.1c-80.7,82.4-148.4,187.1-134.5,298.2C1588.8,4847.5,1681.7,4936.9,1782,5001.2z"/>
		<path id="path22" class="st2" d="M2342.9,4193.9c34.2,35.6,88.9,44.7,138.6,50.3c86.4,9.8,178.5-9.1,243.8-60.1
			c53.8-41.2,84-105.4,72.6-167.6c-12.2-71.9-68.5-132-132.1-177.4c-115-78.9-256.8-125-398.7-155.7c8.2,7.7,17.1,14.7,27.7,20.3
			c107.6,49.6,214.4,107.5,293.5,188.5c48.1,50.3,85.6,115.9,70.1,182.3c-16.3,76.8-103.5,132.7-192.4,136.9
			C2423.6,4214.9,2383.7,4200.9,2342.9,4193.9L2342.9,4193.9"/>
		<path id="path24" class="st3" d="M2342.9,4193.9c34.2,35.6,88.9,44.7,138.6,50.3c86.4,9.8,178.5-9.1,243.8-60.1
			c53.8-41.2,84-105.4,72.6-167.6c-12.2-71.9-68.5-132-132.1-177.4c-115-78.9-256.8-125-398.7-155.7c8.2,7.7,17.1,14.7,27.7,20.3
			c107.6,49.6,214.4,107.5,293.5,188.5c48.1,50.3,85.6,115.9,70.1,182.3c-16.3,76.8-103.5,132.7-192.4,136.9
			C2423.6,4214.9,2383.7,4200.9,2342.9,4193.9z"/>
		<path id="path26" class="st2" d="M704.1,4130.4c150,55.2,313.1,90.8,477,88.7c-95.4-23.7-193.2-44-282.9-80.3
			c-21.2-9.8-45.7-18.9-57.9-37.7c-6.5-14.7,11.4-24.4,24.5-29.3c55.4-19.6,116.6-22.3,176.1-27.2c208.7-11.9,418.3-4.9,626.2,6.3
			c205.5,11.2,409.3,34.9,612.3,62.8c-44.8-18.2-90.5-36.3-132.1-59.4c-21.2-12.6-47.3-16.1-71-20.9
			c-249.5-47.5-505.5-62.1-759.9-65.6c-98.7-0.7-196.5,0.7-294.3,6.3c-109.3,6.3-219.3,13.3-326.1,37.7c-31,7.7-63.6,16.1-88.1,34.9
			c-12.2,8.4-12.2,25.1-1.6,34.9C633.2,4105.2,670.7,4116.4,704.1,4130.4L704.1,4130.4"/>
		<path id="path28" class="st3" d="M704.1,4130.4c150,55.2,313.1,90.8,477,88.7c-95.4-23.7-193.2-44-282.9-80.3
			c-21.2-9.8-45.7-18.9-57.9-37.7c-6.5-14.7,11.4-24.4,24.5-29.3c55.4-19.6,116.6-22.3,176.1-27.2c208.7-11.9,418.3-4.9,626.2,6.3
			c205.5,11.2,409.3,34.9,612.3,62.8c-44.8-18.2-90.5-36.3-132.1-59.4c-21.2-12.6-47.3-16.1-71-20.9
			c-249.5-47.5-505.5-62.1-759.9-65.6c-98.7-0.7-196.5,0.7-294.3,6.3c-109.3,6.3-219.3,13.3-326.1,37.7c-31,7.7-63.6,16.1-88.1,34.9
			c-12.2,8.4-12.2,25.1-1.6,34.9C633.2,4105.2,670.7,4116.4,704.1,4130.4z"/>
		<path id="path30" class="st2" d="M896.5,3832.2c42.4,28.6,92.9,44.7,143.5,60.1c-16.3-16.8-39.1-32.8-40.8-55.9
			c-0.8-14.7,13-25.8,26.9-32.8c26.9-11.9,57.1-16.1,87.2-19.6c156.5-14,314.7-21.6,472.9-12.6c144.3,6.3,287.8,26.5,430.5,48.2
			c39.1-31.4,85.6-53.1,134.5-71.9c-172.1-43.3-349-68.4-526.7-80.3c-168-9.8-338.4-9.1-505.5,14c-66,10.5-133.7,22.3-194.1,48.9
			c-24.5,11.2-52.2,25.8-59.5,50.3C860.6,3801.5,878.6,3820.3,896.5,3832.2L896.5,3832.2"/>
		<path id="path32" class="st3" d="M896.5,3832.2c42.4,28.6,92.9,44.7,143.5,60.1c-16.3-16.8-39.1-32.8-40.8-55.9
			c-0.8-14.7,13-25.8,26.9-32.8c26.9-11.9,57.1-16.1,87.2-19.6c156.5-14,314.7-21.6,472.9-12.6c144.3,6.3,287.8,26.5,430.5,48.2
			c39.1-31.4,85.6-53.1,134.5-71.9c-172.1-43.3-349-68.4-526.7-80.3c-168-9.8-338.4-9.1-505.5,14c-66,10.5-133.7,22.3-194.1,48.9
			c-24.5,11.2-52.2,25.8-59.5,50.3C860.6,3801.5,878.6,3820.3,896.5,3832.2z"/>
		<path id="path34" class="st2" d="M991.1,3527.8c37.5,25.8,84,39.1,129.6,50.3c-14.7-11.9-40.8-26.5-29.4-46.8
			c22-24.4,62.8-27.2,95.4-33.5c137.8-14.7,277.2-24.4,415-15.4c104.4,5.6,207.1,21.6,309,37c58.7-29.3,119.8-54.5,182.6-76.8
			c-96.2-37-199.8-60.7-303.3-77.5c-174.5-26.5-354.7-30-530-6.3c-77.5,11.9-156.5,27.2-226.7,60.1c-26.9,13.3-55.4,28.6-66.9,54.5
			C957.7,3493.5,972.3,3515.2,991.1,3527.8L991.1,3527.8"/>
		<path id="path36" class="st3" d="M991.1,3527.8c37.5,25.8,84,39.1,129.6,50.3c-14.7-11.9-40.8-26.5-29.4-46.8
			c22-24.4,62.8-27.2,95.4-33.5c137.8-14.7,277.2-24.4,415-15.4c104.4,5.6,207.1,21.6,309,37c58.7-29.3,119.8-54.5,182.6-76.8
			c-96.2-37-199.8-60.7-303.3-77.5c-174.5-26.5-354.7-30-530-6.3c-77.5,11.9-156.5,27.2-226.7,60.1c-26.9,13.3-55.4,28.6-66.9,54.5
			C957.7,3493.5,972.3,3515.2,991.1,3527.8z"/>
		<path id="path38" class="st2" d="M538.6,3330.1c75,21.6,152.5,39.1,231.6,41.2c31.8,0.7,64.4-0.7,92.1-14.7
			c-94.6-4.9-189.2-25.1-273.9-62.2c-18.8-9.1-40-19.6-47.3-38.4c0-21.6,28.5-28.6,47.3-35.6c118.2-37.7,244.6-49.6,368.5-60.8
			c369.4-26.5,741.1-19.5,1110.5,9.1c139.4,13.3,279.7,26.5,415,59.4c43.2,12.6,92.1,25.1,120.7,58c17.1,19.5,5.7,44-11.4,60.7
			c27.7-13.3,66.8-30,61.2-62.1c-10.6-33.5-50.6-51-83.2-67c-104.3-45.4-219.3-68.4-333.5-88.7c-331.8-55.9-671.8-68.4-1009.4-60.1
			c-254.4,7.7-508.8,28.6-759.9,65.6c-44.8,9.1-95.4,16.8-128,46.8c-21.2,20.9-2.4,50.3,17.9,65.6
			C408.1,3287.5,474.2,3309.9,538.6,3330.1L538.6,3330.1"/>
		<path id="path40" class="st3" d="M538.6,3330.1c75,21.6,152.5,39.1,231.6,41.2c31.8,0.7,64.4-0.7,92.1-14.7
			c-94.6-4.9-189.2-25.1-273.9-62.2c-18.8-9.1-40-19.6-47.3-38.4c0-21.6,28.5-28.6,47.3-35.6c118.2-37.7,244.6-49.6,368.5-60.8
			c369.4-26.5,741.1-19.5,1110.5,9.1c139.4,13.3,279.7,26.5,415,59.4c43.2,12.6,92.1,25.1,120.7,58c17.1,19.5,5.7,44-11.4,60.7
			c27.7-13.3,66.8-30,61.2-62.1c-10.6-33.5-50.6-51-83.2-67c-104.3-45.4-219.3-68.4-333.5-88.7c-331.8-55.9-671.8-68.4-1009.4-60.1
			c-254.4,7.7-508.8,28.6-759.9,65.6c-44.8,9.1-95.4,16.8-128,46.8c-21.2,20.9-2.4,50.3,17.9,65.6
			C408.1,3287.5,474.2,3309.9,538.6,3330.1z"/>
		<path id="path42" class="st2" d="M2570.4,3091.3c82.4,24.4,170.4,50.3,231.6,106.1c-10.6-60.7-71.7-102.6-132.1-129.9
			c-115.8-51.7-245.4-75.4-374.2-95c-272.3-37-548.7-46.1-825.1-41.9c-188.3,4.9-378.3,11.2-563.4,44.7
			c-44,10.5-91.3,17.5-129.6,39.8c164.7-23.7,331.8-33.5,499-39.1c274.8-7,550.4,2.1,823.5,31.4
			C2258.1,3026.4,2417.1,3049.4,2570.4,3091.3L2570.4,3091.3"/>
		<path id="path44" class="st3" d="M2570.4,3091.3c82.4,24.4,170.4,50.3,231.6,106.1c-10.6-60.7-71.7-102.6-132.1-129.9
			c-115.8-51.7-245.4-75.4-374.2-95c-272.3-37-548.7-46.1-825.1-41.9c-188.3,4.9-378.3,11.2-563.4,44.7
			c-44,10.5-91.3,17.5-129.6,39.8c164.7-23.7,331.8-33.5,499-39.1c274.8-7,550.4,2.1,823.5,31.4
			C2258.1,3026.4,2417.1,3049.4,2570.4,3091.3z"/>
		<path id="path46" class="st0" d="M259.6,1809.8c0.6,237.9-0.6,475.9,0.6,714.5c41.4-1.4,82.7,0,124.1-1.4
			c-0.6-266.2,0-533.2-0.6-800.1c-1.2-74.7-2.4-153.1-32.8-219.8c-33.5-71.1-93.1-121.1-156.3-150.2c-20.1,26.1-38.3,53.7-58.4,79.8
			l0,0c51.1,35.5,102.2,86.3,114.3,159.6C262.1,1664,258.4,1737.2,259.6,1809.8L259.6,1809.8"/>
		<path id="path50" class="st0" d="M650.5,1745.9c-26.8-10.1-51.7-33.4-59-66.7c-8.5-37-6.1-80.5,14-111.7
			c19.5-30.5,54.7-37.7,85.2-33.4c42.6,5.8,79.7,34.8,112.5,66c0,54.4-0.6,108.1,0,162.5C752.1,1762.6,699.8,1766.2,650.5,1745.9z
			 M499.6,2082.5c82.1,42.1,173.4,63.8,262.8,52.2c46.2-6.5,94.3-26.8,124.1-71.1c24.9-37.7,34.1-86.3,33.5-133.5
			c0-162.5,0-324.2,0-486.7c-30.4,0-60.8,0-91.8,0c-3,23.9-6.1,48.6-8.5,73.3c-34.7-32.6-71.8-63.8-115-76.9
			c-49.3-15.2-103.4-13.8-151.5,8.7c-37.1,18.1-66.3,58-76.6,104.5c-15.2,67.5-7.3,146.5,32.8,200.9c35.9,50,90,74.7,143.5,86.3
			c49.3,11.6,99.8,11.6,150.2,11.6c-1.2,45.7,6.1,95.7-15.8,136.4c-17.6,31.2-49.9,43.5-79.7,45.7c-65.1,6.5-129.6-13.1-191-38.5
			C510.6,2024.5,505.1,2053.5,499.6,2082.5"/>
		<path id="path54" class="st0" d="M1717.8,1744.9c-25.6-10.2-49.3-33.4-57.2-65.3c-8.5-37-6.1-80.5,13.4-112.4
			c20.1-31.2,56-37.7,87-33.4c42,7.3,80.3,34.8,111.9,68.2c-1.2,52.9-0.6,106.6-0.6,160.3
			C1820.6,1762.3,1767.7,1765.9,1717.8,1744.9z M1568.8,2082.2c82.7,42.1,174,64.6,264,52.2c45-6.5,91.2-26.1,121-68.2
			c28-39.9,36.5-92.9,35.9-143.6c-0.6-160.3,0.6-319.9-1.2-480.2c-30.4,1.4-60.8-0.7-91.2,1.4c-3,24.7-5.5,48.6-9.1,72.5
			c-42.6-43.5-93.7-79.1-151.5-84.9c-52.9-5.8-112.5,2.2-153.9,47.2c-43.2,47.9-50.5,125.5-39.5,191.5
			c10.3,60.9,48.7,111,94.9,137.8c72.4,42.1,155.1,44.2,234.2,43.5c-1.2,44.2,5.5,91.4-13.4,131.3c-14.6,31.9-45.6,46.4-74.8,50.1
			c-67.5,8.7-135-11.6-198.3-37.7C1580.4,2024.1,1574.3,2053.1,1568.8,2082.2"/>
		<path id="path58" class="st0" d="M988.9,2125.1c42.6,0,85.2,0,127.7,0c24.9-95.7,49.3-190.8,74.2-286.5
			c14.6-58.8,32.8-116.8,43.2-177c5.5-26.8,10.3-54.4,17-80.5c52.3,176.3,92.5,358.3,113.1,544c41.3,0,82.7,0,124.1,0
			c-35.9-235-92.4-466.4-177.6-682.6c-48.7,0-97.3,0-146,0C1106.3,1670.3,1047.3,1897.3,988.9,2125.1L988.9,2125.1"/>
	</g>
</g>
<g>
	<g>
		<polygon class="st4" points="282.5,525.5 282.5,460.3 345.4,460.3 345.4,481.2 312.1,481.2 312.1,482 343.5,482 343.5,502.9 
			312.1,502.9 312.1,504.6 347.1,504.6 347.1,525.5 		"/>
		<polygon class="st4" points="351,525.5 351,460.3 414,460.3 414,481.2 380.7,481.2 380.7,482 412.1,482 412.1,502.9 380.7,502.9 
			380.7,504.6 415.7,504.6 415.7,525.5 		"/>
	</g>
	<g>
		<g>
			<path d="M339.5,498.9h-31.4v9.8h35v12.9h-56.7v-57.2h55v12.9h-33.3v8.7h31.4V498.9z"/>
			<path d="M408.1,498.9h-31.4v9.8h35v12.9H355v-57.2h55v12.9h-33.3v8.7h31.4V498.9z"/>
		</g>
	</g>
</g>
<g>
	<g>
		<path class="st5" d="M315.8,612.9c-10.3,0-20.1-2.1-25.4-4.2l-3.5-1.4l6.7-20.6l3.9,1.5c3,1.1,10.8,3.7,19.8,3.7
			c2.5,0,4.1-0.2,5.1-0.5c-1.3-0.5-3.7-1.3-7.9-2.2c-17.3-3.7-26.1-11-26.1-21.6c0-13.2,14.1-22,35.1-22c9.2,0,16.5,1.1,23.7,3.4
			l4,1.3l-7.5,20l-3.6-1.1c-2.9-0.9-8.8-2.8-16.9-2.8c-1.3,0-2.4,0.1-3.3,0.2c2,0.6,4.9,1.4,7.7,2l1.2,0.3
			c10.4,2.6,24.1,7.6,24.1,21.4C353,601.4,343.2,612.9,315.8,612.9z"/>
		<polygon class="st5" points="356.5,611.9 356.5,546.7 416.9,546.7 416.9,567.6 385.2,567.6 385.2,568.4 415.1,568.4 415.1,589.3 
			385.2,589.3 385.2,591 418.6,591 418.6,611.9 		"/>
	</g>
	<g>
		<g>
			<path d="M296.1,592c4.9,1.9,12.8,4,21.2,4c6.9,0,10.4-1.7,10.4-4.6c0-2.5-3.4-4.1-12.3-6c-12.6-2.7-22.9-7.7-22.9-17.6
				c0-10.4,12-18,31.1-18c10,0,16.8,1.4,22.5,3.2l-4.7,12.6c-3.5-1.1-9.7-3-18.1-3c-6.1,0-9.6,1.5-9.6,4c0,3.1,4.7,4.1,14.3,6.4
				c14.3,3.6,21.1,8.9,21.1,17.6c0,9.6-9.7,18.4-33.2,18.4c-9.7,0-19.2-2-23.9-3.9L296.1,592z"/>
			<path d="M411.1,585.3h-29.9v9.8h33.4v12.9h-54v-57.2h52.4v12.9h-31.8v8.7h29.9V585.3z"/>
		</g>
	</g>
</g>
</svg>
