<svg id="Layer_1" data-name="Layer 1" xmlns="http://www.w3.org/2000/svg" viewBox="0 0 100 100"><defs><style>.cls-1{fill:#fff;}.cls-2{fill:#1b1918;}.cls-3{fill:#22619c;}</style></defs><title>jquery</title><path class="cls-1" d="M84.26,63.2081l.2443-1.2966a29.5784,29.5784,0,0,0,.5294-4.2558,12.3822,12.3822,0,0,0-.448-2.5269c-.1018-.4322-.2239-.8977-.3257-1.3964-.2851-1.43-.6516-4.1561-.672-4.2558l-.1629-1.23h5.03l.3258,1.9284L94.034,39.6683l5.64.0333L98.84,41.3307,90.6946,57.29a3.9257,3.9257,0,0,1-.224.399,2.9739,2.9739,0,0,0-.3461.7315,39.0882,39.0882,0,0,0-.7331,3.9565l-.1018.7647Zm.7126-12.9668c.1426.8977.3258,2.0946.4684,2.8926.0814.399.1832.8312.285,1.2634a14.74,14.74,0,0,1,.5294,3.1919,24.6691,24.6691,0,0,1-.3461,3.624l2.4231-.0332a32.5248,32.5248,0,0,1,.7127-3.6241,5.7214,5.7214,0,0,1,.57-1.23,2.1616,2.1616,0,0,0,.1629-.2992c.4887-.9642,5.3349-10.4732,7.31-14.33l-2.4638-.0333-6.353,12.7341-.7127-4.156Z"/><path class="cls-1" d="M78.2329,63.1749H73.57l.1629-1.23c.0815-.6317,2.138-15.3275,2.6471-18.12.2647-1.4962,1.2828-1.4962,2.6878-1.463h3.1765c.3869,0,.7738-.0332,1.181-.0332,1.4254-.0665,2.7489-.1,3.5227.5652h0c.9366.798,1.4049,3.9566,1.5271,4.9208l.1426,1.1969h-.7331c-.0407,0-3.95.1-6.0476.1H80.4728ZM75.0972,61.18h2.1787l2.24-14.0641h2.3213c1.5271,0,4.0113-.0332,5.2534-.0665a6.9608,6.9608,0,0,0-.7127-2.3938c-.4887-.4323-1.7715-.3658-2.9118-.3325-.4072,0-.8145.0332-1.2013.0332H79.0678a3.7968,3.7968,0,0,0-1.5272.133C77.113,46.9165,75.6062,57.5559,75.0972,61.18Z"/><path class="cls-1" d="M69.5179,63.4409a21.6785,21.6785,0,0,1-5.9253-.665A3.4173,3.4173,0,0,1,61.8414,61.38a5.1156,5.1156,0,0,1-.2443-.4655c-.02-.0665-.0611-.1-.0815-.1662a8.5711,8.5711,0,0,1-.4887-1.23c-.7534-2.9259.0815-8.1126.7941-10.6727v-.0333c.0815-.2992.1833-.6982.3055-1.0307.0407-.133.1018-.2992.1425-.4322a4.1963,4.1963,0,0,1,.2647-.7647c.0611-.133.1426-.266.1833-.3658l.0611-.1a4.8615,4.8615,0,0,1,.3258-.5985,6.0006,6.0006,0,0,1,.957-1.1969l.0611-.0665a7.0052,7.0052,0,0,1,5.1516-2.1611,6.8382,6.8382,0,0,1,1.1606.1,4.5991,4.5991,0,0,1,3.5838,2.46,6.0565,6.0565,0,0,1,.4276,1.6624l.0611.399c.4683,2.46-.3055,7.5806-.3869,8.1458l-.1222.7647h-.4887c-.02,0-1.9344-.0332-3.9095-.0332-1.14,0-2.077,0-2.7693.0332h-.733c-.3258,0-.5091.0333-.6109.0333a2.0676,2.0676,0,0,0,.3258.7647,1.9954,1.9954,0,0,0,1.0589.399.1994.1994,0,0,1,.1425.0332,16.031,16.031,0,0,0,2.8711.1662c1.5475,0,2.9728-.1,2.9728-.1l.8145-.0665-1.0181,6.4834-.448.0333C72.2872,63.3744,71.0655,63.4409,69.5179,63.4409ZM70.027,49.61c-.0407-.1-.0814-.2328-.1425-.3658-.224-.4987-.3666-.6982-1.3439-.7314h-.1629a1.8853,1.8853,0,0,0-1.8937,1.0639Z"/><path class="cls-1" d="M53.0653,63.2081c-1.9547,0-3.7059-.2992-4.6222-2.7928-.9774-2.66-.3665-6.45.1222-9.4758.0814-.4655.1425-.8977.2036-1.33.3054-2.0947.957-6.417.957-6.45l.1222-.7647,4.6833-.0665-.1833,1.23c0,.0665-.9773,6.7494-1.3642,10.0742-.0408.2993-.0815.5652-.1222.8312A4.5826,4.5826,0,0,0,52.78,56.16c.1018.2992.2036.399,1.4457.4322h1.2217L57.81,42.3282l4.5611-.0333-.1832,1.23c-.02.133-1.853,12.7341-2.79,18.8518l-.1222.7647H54.002A9.2526,9.2526,0,0,1,53.0653,63.2081Zm-2.26-18.8518c-.2036,1.33-.6108,4.1228-.8552,5.6855-.0611.4322-.1425.8977-.2036,1.3632-.4276,2.6931-.957,6.0179-.2444,7.9463.672,1.7954,2.1381,1.8619,4.48,1.7954H58.36c.7737-5.12,2.0362-13.665,2.4842-16.8236l-2.077.0332L56.4047,58.62H54.2056c-1.2421-.0333-2.0159-.0665-2.4842-1.463a6.6351,6.6351,0,0,1-.0407-3.1585c.0407-.2328.0814-.4988.1018-.7315.3054-2.46.8959-6.7827,1.2014-8.9106Z"/><path class="cls-1" d="M39.5041,63.3744c-2.79,0-5.4163-.2-6.9842-2.56A11.509,11.509,0,0,1,31.0131,56.06a27.6641,27.6641,0,0,1,.4072-6.8824,27.0025,27.0025,0,0,1,1.3847-5.22c1.71-4.3223,4.4593-6.6165,7.9412-6.6165a8.8048,8.8048,0,0,1,1.3032.1,7.2038,7.2038,0,0,1,3.1154,1.43c.0611.0665.1222.133.224.2327a.35.35,0,0,1,.0814.1,10.477,10.477,0,0,1,2.5046,6.1177c.3461,3.6906-.7127,7.5807-1.6494,11.0385-.0407.133-.061.2327-.1018.3657h.7942a.6787.6787,0,0,1,.7126.3657l.02.0333.02.0332c.1832.399.2036.6983-.1222,2.5934-.1018.532-.3258,1.8287-.55,2.5934-.0814.2992-.2851.9642-.733.9974-.8349.0333-3.543.0665-4.6222.0665h-1.14C40.2372,63.3744,39.8706,63.3744,39.5041,63.3744ZM40.5019,44.19a3.47,3.47,0,0,0-2.6878,1.5959c-.7534,1.197-1.0589,2.56-1.405,5.02a11.146,11.146,0,0,0-.0611,4.2558c.3869,1.1637,1.4864,1.3964,3.1358,1.3964h.9773a7.3676,7.3676,0,0,0,.8553-.0332c.285-1.197.55-2.56.7941-3.8568l.0814-.399c.0815-.3657.1426-.7315.224-1.13a17.6071,17.6071,0,0,0,.5294-3.8235,3.8656,3.8656,0,0,0-1.2828-2.7264A2.3363,2.3363,0,0,0,40.5019,44.19Z"/><path class="cls-1" d="M31.0335,48.9114H26.0651l.224-1.2635c.1018-.6317.224-1.2634.3054-1.8619.1629-.9642.3054-1.8619.4887-2.7264l.1425-.6649h4.8055l-.1833,1.23c-.0814.5652-.1832,1.1637-.2647,1.7954-.1425.9309-.2647,1.8951-.4072,2.76Zm-3.3394-1.9949h2.4027c.1018-.6318.2036-1.2967.2851-1.9617.02-.2.0611-.399.0814-.5652H28.1217c-.1222.5985-.224,1.2634-.3258,1.9284A4.78,4.78,0,0,0,27.6941,46.9165Z"/><path class="cls-1" d="M23.0922,71.0215c-.4072,0-.8145-.0333-1.2421-.0333-.285,0-.5905-.0332-.8959-.0332l-.8145-.0332.2444-1.2635c.1629-.8644.3257-1.7954.509-2.7263.1425-.798.2851-1.5627.4072-2.2277l.1426-.7979.509.1c1.8123.3325,2.1177-1.33,2.5657-4.821.0611-.4655.1221-.9642.2036-1.4629.3258-2.1612,1.2828-7.9464,1.4661-8.8441l.1425-.665h4.724l-.1425,1.197c-.448,3.5243-1.3439,9.509-2.1177,13.931l-.0407.2c-.448,2.6266-.8145,4.688-2.1787,6.2175a1.116,1.116,0,0,1-.2851.2327,4.5459,4.5459,0,0,1-2.0973.8977A4.0507,4.0507,0,0,1,23.0922,71.0215Zm3.258-1.0639Zm-4.5612-.9643h.1019a11.5215,11.5215,0,0,0,2.1583-.0332,4.5982,4.5982,0,0,0,1.5272-.5652.7461.7461,0,0,1,.3258-.266c.9774-1.13,1.2421-2.7264,1.6493-5.087l.0408-.2c.6719-3.9233,1.466-9.0768,1.9344-12.6011H27.185c-.3258,1.7954-1.0385,6.2174-1.3032,7.98l-.1832,1.3964c-.3665,2.8926-.8349,6.4169-3.36,6.4169h-.02c-.0815.4655-.1833.9642-.2647,1.463S21.8909,68.4946,21.789,68.9933Zm4.0928-.7979Z"/><path class="cls-1" d="M11.3636,66.21a7.64,7.64,0,0,1-4.0113-1.197A13.7757,13.7757,0,0,1,2.3228,58.13C.8975,54.1405.5106,48.2888,3.6667,43.8668L3.83,43.634h.59l.1833.532a1.84,1.84,0,0,1-.1833,1.43,1.2221,1.2221,0,0,1-.0814.2l-.0815.3657a13.8781,13.8781,0,0,0,.9367,9.0436C7.0876,59.161,10.59,61.4884,13.95,60.99a6.6607,6.6607,0,0,0,4.1132-2.7929l.957,1.13-.1018.3989C17.4519,63.849,14.9066,66.11,11.5469,66.21ZM2.6893,49.652A14.9463,14.9463,0,0,0,3.3817,57.1a12.31,12.31,0,0,0,4.4389,6.0512,6.8627,6.8627,0,0,0,3.7059,1.064,5.9166,5.9166,0,0,0,4.0928-1.729,6.9824,6.9824,0,0,1-1.5475.4988c-3.767.5319-7.7173-2.0947-9.8349-6.5832A16.4955,16.4955,0,0,1,2.6893,49.652Z"/><path class="cls-1" d="M13.5831,58.13a5.0919,5.0919,0,0,1-1.2217-.133c-2.9933-.5652-5.7625-4.821-6.0476-9.243a12.0267,12.0267,0,0,1,1.7715-7.3811l.9774,1.1636a7.3234,7.3234,0,0,0-.4887,2.0614A10.6463,10.6463,0,0,0,9.7754,50.45c1.2013,2.2276,3.1765,3.6573,5.0294,3.6905h0A4.5339,4.5339,0,0,0,18.45,51.9461l.9774,1.13C18.5515,56.2684,16.332,58.13,13.5831,58.13ZM7.4744,47.69c0,.266,0,.5653.02.8977.2444,3.4246,2.6267,6.9822,5.0091,7.4477a5.5933,5.5933,0,0,0,1.8122.0665C12.26,55.8694,10.203,54.24,8.8591,51.78A12.8187,12.8187,0,0,1,7.4744,47.69Z"/><path class="cls-1" d="M15.375,51.1149c-2.362,0-3.6245-2.2609-4.0928-3.3913a12.1317,12.1317,0,0,1-.4684-1.4962c-.3868-1.9284-.1832-4.6548.9571-6.1509l1.7918-2.3274L12.7075,41.24a7.4324,7.4324,0,0,0-.1425,2.6931,7.5212,7.5212,0,0,0,.5294,1.6624,3.6612,3.6612,0,0,0,1.2014,1.5294l.0611.0665a4.0164,4.0164,0,0,0,.5905.4322l.0814.0333c.57.2327,1.629.6982,3.38-.9975l1.7919-1.7621-.9163,3.0588a6.05,6.05,0,0,1-2.6471,2.9924A6.3041,6.3041,0,0,1,15.375,51.1149Z"/><path class="cls-2" d="M94.3394,40.6658l4.0521.0332L90.2466,56.6582a6.4608,6.4608,0,0,0-.6516,1.33,41.3159,41.3159,0,0,0-.7941,4.1892l-3.7059.0333a31.7021,31.7021,0,0,0,.55-4.5883,23.36,23.36,0,0,0-.7941-4.1893c-.2851-1.43-.6516-4.1893-.6516-4.1893h3.8077l.5294,3.0256,5.8032-11.6036"/><path class="cls-2" d="M86.6629,43.7911c.7534.665,1.2013,4.2558,1.2013,4.2558s-3.9095.1-6.0475.1H79.9841l-2.24,14.0641H74.3234S76.4411,46.9165,76.95,44.1568c.1629-.8977,1.12-.7314,2.7286-.7314h2.5656c1.67-.0665,3.6041-.3658,4.4186.3657"/><path class="cls-2" d="M70.76,50.607a4.1749,4.1749,0,0,0-.3665-1.9616c-.4072-.8977-.7737-1.0972-1.8122-1.1305-2.9729-.133-2.9118,3.0589-2.9118,3.0589l5.0905.0332Zm3.2173-3.624c.4276,2.2608-.3869,7.6138-.3869,7.6138s-4.3372-.1-6.6992,0c-.733.0333-1.6289-.1-1.8326.3658A2.6459,2.6459,0,0,0,65.527,57.19a2.361,2.361,0,0,0,1.5068.6317,33.329,33.329,0,0,0,5.9457.1l-.7127,4.4552s-5.7014.399-8.5521-.5652a2.8828,2.8828,0,0,1-1.4457-1.13c-.1018-.1663-.1832-.3658-.2647-.532a4.8013,4.8013,0,0,1-.3869-.9975c-.6516-2.4936.0815-7.3146.7942-9.8747.0814-.2992.1832-.665.3054-.9975.1425-.3989.2443-.8644.3665-1.0972.0815-.1662.1629-.2659.2444-.4322a3.6113,3.6113,0,0,1,.285-.532,6.7346,6.7346,0,0,1,.9163-1.13,6.6217,6.6217,0,0,1,5.905-1.8952A4.0132,4.0132,0,0,1,73.59,45.2873a8.13,8.13,0,0,1,.3869,1.6957Z"/><path class="cls-2" d="M58.2984,43.3589l3.319-.0333s-1.8529,12.6676-2.79,18.8518H55.02c-2.6675,0-5.0295.4655-6.0476-2.2941-.9774-2.6931-.0407-7.0819.3869-10.0742.3054-2.1279.957-6.45.957-6.45l3.4412-.0333S52.78,50.075,52.3934,53.4331a7.6473,7.6473,0,0,0-.1222,3.2251c.3054.8312.7127.8977,1.9751.9642h1.71l2.3417-14.2635"/><path class="cls-2" d="M42.7824,52.4689a25.871,25.871,0,0,0,.7942-5.32,4.7947,4.7947,0,0,0-1.71-3.6241c-1.9344-.9974-3.7466.399-4.4593,1.5294-.9366,1.463-1.2421,3.1586-1.5679,5.5193a11.9128,11.9128,0,0,0,0,4.954c.7942,2.3939,3.258,1.8619,5.9051,1.8951.3868-1.5294.7126-3.2583,1.0384-4.954Zm4.6019-7.0154c.3869,3.99-1.0792,8.3786-2.077,12.2022,1.0181.133,1.9141-.0333,1.9752.1s-.6923,4.555-.9367,4.555c-.8145.0333-3.5023.0665-4.6018.0665-3.6449,0-7.0657.3325-8.8169-2.2941a10.2812,10.2812,0,0,1-1.3235-4.1893,24.8251,24.8251,0,0,1,.3869-6.45,24.7383,24.7383,0,0,1,1.3235-4.954c1.5272-3.8568,4.1946-6.7494,8.6743-6.0844a6.5127,6.5127,0,0,1,2.8914,1.33,3.856,3.856,0,0,1,.2851.2993,9.4251,9.4251,0,0,1,2.22,5.4194Z"/><path class="cls-2" d="M31.2371,43.3921c-.224,1.463-.448,3.0921-.672,4.5218H26.88c.285-1.5959.509-3.1586.7941-4.555,1.181,0,2.2806.0332,3.5634.0332"/><path class="cls-2" d="M26.7574,49.2438H30.3c-.4683,3.7239-1.3846,9.7086-2.0973,13.8646-.4479,2.5934-.7534,4.5218-1.9751,5.8849-.1018.133-.1629.0665-.2647.2a4.1658,4.1658,0,0,1-1.8326.7647,19.6944,19.6944,0,0,1-3.1358,0c.3054-1.5959.6516-3.491.9163-4.9207,2.81.4987,2.8711-3.3248,3.4209-7.0154.285-2.1611,1.2421-7.9131,1.4253-8.7776"/><path class="cls-3" d="M18.47,58.9283l-.0814.2992c-1.3032,3.6573-3.5838,5.885-6.8621,5.9847a7.4742,7.4742,0,0,1-3.95-1.13,13.0591,13.0591,0,0,1-4.7241-6.45c-1.3642-3.79-1.6086-9.0768,1.2218-13,.0407,0-.3462.8644-.3055.8644l-.0814.3658C1.6712,55.005,7.9224,62.8848,14.0107,61.9871A7.4242,7.4242,0,0,0,18.47,58.9283"/><path class="cls-3" d="M14.7845,55.138a5.2159,5.2159,0,0,0,4.0724-2.46c-.8349,3.0256-3.2172,4.9872-6.4345,4.3555-2.6878-.532-5.2534-4.422-5.5181-8.3453a10.7371,10.7371,0,0,1,1.629-6.6164,8.9859,8.9859,0,0,0-.57,2.46c-.4479,6.151,3.4005,10.573,6.8214,10.6063"/><path class="cls-3" d="M18.7144,47.4576a5.3822,5.3822,0,0,1-2.2195,2.46c-2.4028.7314-3.93-.8977-4.724-2.76a9.5777,9.5777,0,0,1-.3869-1.23c-.3055-1.5294-.1629-3.8568.7534-5.0538a9.0045,9.0045,0,0,0-.1833,3.3249,8.8888,8.8888,0,0,0,.6312,1.9949,4.6921,4.6921,0,0,0,1.4458,1.8619,4.4412,4.4412,0,0,0,.733.4987c.6312.266,1.8937.9309,3.95-1.0972"/></svg>