<svg id="Layer_1" data-name="Layer 1" xmlns="http://www.w3.org/2000/svg" viewBox="0 0 100 100"><defs><style>.cls-1{fill:#e7a63b;}.cls-2{fill:#f1c134;}.cls-3{fill:#fff;}.cls-4{fill:#ebebec;}.cls-5{fill:#fffefe;}.cls-6{fill:#010101;}</style></defs><title>js</title><g id="g10"><g id="g12"><path id="path14" class="cls-1" d="M85.7814,22.2109h-66.98l6.2326,68.0606L52.2082,98l27.1744-7.7285Z"/></g><g id="g16"><path id="path18" class="cls-2" d="M52.3118,27.7542V92.2414l22.022-6.3158,5.4016-58.1714Z"/></g><g id="g20"><path id="path22" class="cls-3" d="M69.8338,36.1041H35.9282L33.6013,61.6164l.0831-.1662H62.4377l-.9141,10.8033-9.1412,2.6593L43.075,72.2535l-.5818-6.482H34.0168l1.2466,13.047,17.119,4.9031,17.119-4.9031,2.3269-25.5954H41.33l.4155-8.5595h21.191l.3325,4.903h8.3933Z"/></g><g id="g24"><path id="path26" class="cls-4" d="M42.4337,65.6386H33.9573l1.2465,13.0471,17.119,4.82V74.863l-9.3074-2.7424Zm9.8891-29.5012H35.9517L33.6248,61.65l.0831-.1662h18.698v-8.31H42.4337l.4155-8.5595h9.4736Z"/></g></g><path class="cls-5" d="M38.7319,18.33a23.48,23.48,0,0,1-4.1136-.374l-1.8074-.374,1.3711-6.2949,1.8075.3116a12.8938,12.8938,0,0,0,2.1814.187,2.565,2.565,0,0,0,1.06-.1247V2.187h8.975v9.162C48.1432,14.5276,46.5227,18.33,38.7319,18.33Z"/><path class="cls-5" d="M55.2484,18.33a21.6344,21.6344,0,0,1-6.6066-.9349l-1.87-.6233,2.2438-5.7964a4.29,4.29,0,0,1-1.5582-3.3033C47.4576,4.1814,51.26,2,57.1805,2a23.245,23.245,0,0,1,6.17.7479l2.1191.561L63.1639,8.5443a4.5344,4.5344,0,0,1,2.3684,3.9889C65.47,13.9044,64.7221,18.33,55.2484,18.33Z"/><path class="cls-6" d="M41.038,4.0568h5.2354V11.349c0,3.4279-2.4307,5.0484-7.5415,5.0484a19.3357,19.3357,0,0,1-3.74-.3116l.5609-2.68a14.6628,14.6628,0,0,0,2.4931.2493c1.87,0,2.9293-.561,2.9293-2.3061V4.0568Z"/><path class="cls-6" d="M50.2623,12.8448a19.1621,19.1621,0,0,0,5.36.8726c1.7451,0,2.6177-.374,2.6177-.9972,0-.4986-.8726-.8726-3.1163-1.3089-3.1787-.5609-5.7964-1.62-5.7964-3.74,0-2.1814,3.054-3.8019,7.8531-3.8019a21.1789,21.1789,0,0,1,5.6717.6856l-1.1842,2.68a16.3257,16.3257,0,0,0-4.55-.6232c-1.5582,0-2.4307.3116-2.4307.8725,0,.6233,1.1842.8726,3.6149,1.3712,3.6149.7479,5.2978,1.87,5.2978,3.74,0,2.0568-2.4308,3.9266-8.4141,3.9266a22.74,22.74,0,0,1-6.0457-.81Z"/></svg>