<?xml version="1.0" encoding="utf-8"?>
<!-- Generator: Adobe Illustrator 22.0.1, SVG Export Plug-In . SVG Version: 6.00 Build 0)  -->
<svg version="1.1"
	 id="svg2" xmlns:cc="http://creativecommons.org/ns#" xmlns:dc="http://purl.org/dc/elements/1.1/" xmlns:rdf="http://www.w3.org/1999/02/22-rdf-syntax-ns#" xmlns:svg="http://www.w3.org/2000/svg"
	 xmlns="http://www.w3.org/2000/svg" xmlns:xlink="http://www.w3.org/1999/xlink" x="0px" y="0px"
	 viewBox="0 0 258.70001 258.70001" enable-background="new 0 0 258.70001 258.70001" xml:space="preserve">
<g id="g10" transform="matrix(1.3333333,0,0,-1.3333333,0,258.66667)">
	<g>
		<g id="g12_8_" transform="scale(0.1)">
			<path fill="#FCFCFC" d="M257.09845,616.55035c-40.3894,0-66.15236,16.27441-81.08644,51.21094l-33.01027,72.97858V620.05133
				h-88.0005v30H24.79981v229.79742c0,34.59961,16.19385,57.27545,48.13477,67.40485
				c58.25685,17.43896,104.48734,0.65918,124.11258-44.81696L255.68854,766.88l60.93753,135.9375
				c20.22217,45.12457,66.22925,61.79449,123.0762,44.54596c32.56348-10.04883,48.99902-32.74664,48.99902-67.51471V620.05133
				H370.30161v119.98541l-32.74292-72.78815C322.01303,632.22418,297.18024,616.55035,257.09845,616.55035z M237.98224,680.46881
				c3.58154-2.86377,8.93188-3.91846,19.11621-3.91846c9.84741,0,14.99268,0.92285,18.48999,3.67676L237.98224,680.46881z
				 M381.14877,890.39563l47.55252-10.20264c-0.03662,5.29541-0.85327,7.22168-0.97778,7.48535
				c-0.05493,0.01465-1.29276,0.98877-5.5701,2.30713C400.37851,896.59192,388.22763,894.66565,381.14877,890.39563z
				 M85.67873,887.64172c0.03662-0.01465-0.83862-1.91162-0.87891-7.40479l47.48292,10.23926
				c-7.13745,4.18945-19.51538,6.08643-41.67115-0.56396C87.05935,888.7843,85.82156,887.76624,85.67873,887.64172z"/>
			<path fill="#FCFCFC" d="M506.60168,553.95026h-30v98.79639h47.40967c-29.79126,14.98535-48.30688,39.5069-48.70605,68.69391
				l0.04395,6.48193c0.81299,99.79248,0.41016,117.83203,0.19775,120.95215c0.39185-5.77148,3.69507-14.66309,11.71875-20.69824
				l18.03589,53.97217h85.29785V732.34631c0.73975-0.05127,1.57104-0.08789,2.49756-0.09521
				c7.73071-0.19043,40.37482-0.21973,89.50201-0.09521v150.89355h115.30151V646.44781
				c0-62.45361-58.69629-91.45752-116.86523-92.49023L506.60168,553.95026z M585.48718,733.20325L585.48718,733.20325
				L585.48718,733.20325z"/>
			<path fill="#FCFCFC" d="M1605.79871,1009.78778l-39.89502,13.94165c-10.75195,3.7536-17.23389,10.51019-21.10107,14.5495
				c-0.4248,0.44312-0.84229,0.90088-1.28174,1.32568c-4.13086,2.86011-8.26172,5.92896-12.39258,9.00146
				c-5.33203,3.97351-10.37842,7.72351-15.06592,10.68982c-6.95068,4.37256-15.16846,8.17017-23.86963,12.19116
				c-9.69727,4.48242-19.73877,9.11499-29.80225,15.30396c-10.20264,6.38672-19.27002,13.25684-28.04443,19.90356l-2.92969,2.21924
				c-12.27539,8.95386-23.9502,24.19922-30.7251,35.50049c-2.70996,4.38354-4.27734,8.47412-5.33203,11.35254l-7.5,7.5
				l1.50879,14.24561c1.89697,17.89673,13.64502,29.79126,34.92188,35.35034c0.73975,0.19409,1.47949,0.36621,2.16797,0.58594
				c6.04248,2.51221,12.33398,4.69116,18.94043,6.54785c-4.2334,2.8125-8.44482,5.52246-12.67822,8.14087
				c-2.07275,1.27075-8.63525,3.59253-12.97119,5.13062c-4.57764,1.62231-9.30176,3.2959-13.72559,5.24048
				c-2.2998,0.89722-6.50391,2.15332-10.57617,3.3728c-17.0874,5.1123-36.42334,10.89478-47.21191,25.4187
				c-2.58545,3.32153-3.93311,4.2041-7.06787,6.26587c-8.76709,5.77515-18.0249,12.95288-26.25,31.32935
				c-5.51514,12.54639-11.35986,31.08032-17.54883,50.70557c-5.26611,16.67358-10.70068,33.91846-14.73633,43.31909
				c-2.3291,5.06104-4.27734,10.29785-5.99854,14.9231c-1.86035,4.99512-3.46436,9.31274-5.61035,13.4729
				c-30.03662,57.95654-74.5094,106.73584-128.57678,140.99133c-19.83398,12.49512-38.64258,21.5332-57.44385,27.59033
				c-3.06152,0.90454-9.06738,1.16821-15.4248,1.4502c-6.68701,0.29297-14.15771,0.6189-21.97266,2.00317h-10.67871l-4.021,1.13892
				c-12.16553,3.45703-20.8374,11.28662-26.57959,16.46851c-1.18652,1.073-2.29248,2.16064-3.42041,3.00293
				c-2.28516,1.53442-4.58496,2.97363-6.92139,4.34692c7.38281-10.18066,15.68115-21.68335,21.41602-34.00269
				c7.03125-15.15747,11.82129-30.41748,16.45752-45.17578c3.7207-11.83606,7.229-23.01648,11.62354-33.27771
				c2.74658-6.45996,7.50732-14.91211,12.83203-22.80029c0.46875-0.51636,1.8457-1.81641,2.87109-2.7832
				c4.53369-4.28101,10.96436-10.36011,15.36621-19.45313c1.65527-1.68457,4.29199-4.15649,6.20361-5.9436
				c14.15039-13.24585,33.52295-31.38428,25.53955-55.61279c-1.68457-5.32104-3.80859-10.979-6.21094-16.88965l17.19727-10.54321
				c12.97119-7.9541,16.47217-20.99487,18.15674-27.2644c0.15381-0.57495,0.29297-1.16089,0.46875-1.72852l0.46143-1.06934
				c2.62939-6.26221,2.62207-6.26587,4.13818-9.55444c1.67725-3.6145,5.00244-10.81055,14.43604-31.84937
				c14.78027-28.66333,30.58594-54.31641,46.98486-76.24512l0.55664-0.76172c4.24072-6.06445,10.86182-13.72559,18.72815-21.68335
				c0.32959-0.2417,0.6665-0.46875,0.99609-0.70679c0.23438-0.16113,0.47607-0.33325,0.7251-0.5127h19.36523v-74.21631
				l-38.86975,14.21631h-7.96143l-3.58154,5.3064c-9.60938,5.62134-16.80176,13.01514-22.42676,18.79395
				c-2.92236,3.00659-5.68359,5.84473-7.71973,7.36816c-7.67578,5.80444-28.95996,22.64282-47.7832,44.37012
				c-5.27344-7.65747-12.86133-14.39575-23.95752-18.81226c-17.22656-7.13379-51.51123-11.90186-83.23242,38.10425
				c-28.00049,45.64087-34.54102,117.48779-16.14258,175.1001c0.78369,2.42798,1.46484,5.70923,2.18262,9.18823
				c0.71777,3.42773,1.48682,7.15942,2.5415,11.03027c-0.41016,0.5127-0.82031,1.0437-1.23047,1.60034
				c-7.58057,10.38208-13.81348,21.78955-18.91846,31.58569c-8.25439,16.073-14.22729,33.2373-20.00244,49.83765
				c-1.604,4.6106-3.19336,9.16992-4.80103,13.61206c-1.9519,5.08301-3.22998,10.13684-4.35425,14.59363
				c-0.73608,2.91504-1.38062,5.47119-2.08374,7.37915c-2.96265,6.02051-8.54736,13.3374-13.9563,20.42358
				c-1.875,2.45728-3.70972,4.86328-5.43823,7.20703c-1.86035,2.63306-3.75732,4.97314-5.85205,7.59888
				c-14.92676,18.71338-42.70386,53.5437-25.7959,94.06494c7.70142,18.84521,21.61743,32.03979,40.15869,37.95776
				c39.07471,12.46216,87.82104-12.86499,113.38989-29.07349c4.59961-2.96631,8.39355-6.30615,11.74072-9.25781
				c0.7251-0.63721,1.59668-1.40991,2.45361-2.14233c2.31445-0.1355,4.62891-0.27466,6.93604-0.41382
				c5.95459-0.36255,11.90186-0.72876,17.87842-0.94116l2.90771-0.1062l8.18115-1.89697
				c20.10498-4.64355,40.89844-9.44824,59.79492-20.21118c84.98303-49.8999,136.33313-99.59106,183.5011-177.41833
				c7.44873-12.23511,12.25342-24.34204,16.9043-36.0498c2.46826-6.19995,4.79004-12.05566,7.43408-17.7356l0.38086-0.84229
				c12.27539-28.64136,24.22852-54.11865,35.51514-75.73242c2.04346-4.0686,3.72803-7.771,5.4126-11.48804
				c2.44629-5.39795,4.78271-10.56885,7.21436-14.50562c2.87842-0.98145,6.43799-2.19727,10.09277-4.05762
				c5.04639-2.60742,10.72998-5.06104,16.75049-7.65747c10.74463-4.63989,21.86279-9.43359,32.2998-16.16455
				c24.22119-15.05859,50.23682-34.4458,76.89697-57.36694c7.21436-6.44531,12.19482-13.0188,16.58936-18.81958
				c2.65869-3.50464,5.16357-6.81152,7.36816-9.01245l8.78906-8.78906v-38.54004l-21.12305-6.54419
				c-7.30957-2.26685-15.10254-4.64355-22.89551-6.62109c-4.04297-1.03638-7.9248-1.80542-11.64551-2.40967
				c19.83398-14.50195,36.50391-30.69946,50.03174-48.51563c1.28174-1.23413,2.55615-2.43896,3.83057-3.64746
				c2.72461-2.58545,5.44189-5.1709,8.20313-7.92847l1.94824-1.94458l1.56006-2.26685
				c3.41309-4.95483,5.33203-9.79614,6.60645-12.99683c0.16113-0.40649,0.31494-0.81665,0.47607-1.21216l5.30273-6.84814V1009.78778
				z"/>
			<path fill="#FCFCFC" d="M1101.55542,1434.54858l-18.61816,36.74194c-1.91895,3.78662-3.70605,7.54395-5.49316,11.30127
				c-1.16455,2.45361-2.3291,4.90723-3.5376,7.36816c-0.78369,0.9082-1.61133,1.77979-2.41699,2.66602
				c-0.44678,0.48706-0.9082,0.99243-1.38428,1.52344h-15.9082v54.53992l22.9834,5.52979
				c6.23291,1.4978,14.12109,3.03223,25.31982,3.03223h12.17285l8.18115-7.94678c0.41748-0.30029,0.86426-0.58228,1.30371-0.87158
				c3.91113-2.61108,10.38574-6.93604,15.41748-14.50574c2.17529-3.17871,3.54492-6.04248,4.4165-7.95044l6.00586-6.91406v-11.21338
				c0-23.6499-10.18066-37.2583-19.6875-44.80957L1101.55542,1434.54858z"/>
			<path fill="#FCFCFC" d="M1002.89819,636.34772H835.10028v30H805.3017v69.00153h190.51398
				c2.01416,0.21973,3.71338,0.36621,5.66162,0.39551c1.51611,0.06592,2.73926,0.21973,3.7207,0.38818v16.53809
				c-2.04346,0.38086-4.98047,0.81299-9.12598,1.22314l-2.19727,0.25635c-0.37354,0-0.77637,0-1.17188,0h-60.20142
				c-6.25488,0-12.71851,0-19.2334,0.4834l-0.98511,0.09521c-64.50446,6.95801-106.18292,39.86572-106.18292,83.81836v33.90381
				c0,43.25684,23.0896,71.46979,70.59088,86.24274c14.27124,4.59229,29.05518,6.25488,56.20972,6.25488h193.30078v-98.79645
				H926.06714c-0.70313-0.08057-1.35864-0.16113-1.96289-0.2417l-0.00366-16.02539c1.76147-0.27832,4.42749-0.53467,8.29834-0.53467
				h70.49927c20.94727,0,42.29004-3.70605,60.10986-10.43701c54.98291-21.24023,60.89355-56.63086,60.89355-70.86182v-42.80273
				c0-22.7417-9.55078-54.21393-55.03418-74.99274C1049.93433,641.23297,1026.9729,636.34772,1002.89819,636.34772z"/>
			<path fill="#FCFCFC" d="M1807.00244,620.05133h-181.80188c-5.70557,0-10.83252,0.38086-15.79102,0.73975l-3.18604,0.23438
				c-102.36328,7.69775-117.61963,63.71338-117.61963,96.4234h58.59375h-58.396v231.20367h118.396V720.12219
				c2.98096-0.61523,8.18848-1.27441,16.80176-1.27441h183.00305V620.05133z"/>
			<path fill="#FCFCFC" d="M1385.93298,603.74762l-45.65186,41.33057l-35.11963-2.02881h-63.36182
				c-13.90137,0-27.9054,1.85303-41.63098,5.51514c-64.22607,17.65137-77.66602,59.21637-77.66602,90.98883v138.2959
				c0,29.65576,12.92725,81.19635,99.50696,93.11652l0.93018,0.12817l3.75,0.28564c4.82666,0.3772,9.82178,0.76904,15.00732,0.76904
				h110.70557c6.92139,0,12.50977-0.43945,19.10156-1.0144l1.48682-0.16846c86.23535-11.87622,99.11133-63.43878,99.11133-93.11652
				v-138.2959c0-23.32764-5.5957-41.83594-17.26318-56.26471l30.11719-27.31934l-20.15625-52.22168H1385.93298z
				 M1246.39929,743.55237l16.20117,41.99707h78.9624l15.9375-14.43604v100.53955
				c-1.91895,0.65918-5.52246,1.49414-11.49902,1.49414h-87.89795c-6.44531,0-10.62012-1.05469-12.80273-1.92627l0.10254-125.40527
				c0.18311-0.6958,0.35156-1.36963,0.49805-2.05078C1246.04773,743.69885,1246.20886,743.62561,1246.39929,743.55237z"/>
			<polygon fill="#FCFCFC" points="1810.80371,642.25104 1810.80371,649.75104 1777.60303,649.75104 1777.60303,682.35114 
				1766.00146,682.35114 1766.00146,749.05286 1857.20264,749.05286 1857.20264,741.55286 1914.99805,741.55286 
				1914.99805,642.25104 			"/>
		</g>
	</g>
	<g>
		<g id="g12_7_" transform="scale(0.1)">
			<path id="path16_6_" fill="#005C87" d="M55.00007,650.05017h58.00002v229.80011l90.6-200.30011
				c10.30005-24.09998,25-33,53.50002-33c28.59998,0,42.40002,8.90002,53.09998,33l90.10001,200.30011V650.05017h58.40002v229.80011
				c0,22.30005-8.90002,33-27.70001,38.80005c-44.20001,13.40002-73.60001,1.80005-87.00003-28.09998l-88.8-198.10004
				l-85.69997,198.10004c-12.90002,29.90002-42.80006,41.5-87.50002,28.09998c-18.30005-5.80005-27.19996-16.5-27.19996-38.80005
				V650.05017"/>
			<path id="path18_6_" fill="#005C87" d="M505.30014,852.15021h55.30002V725.8501
				c-0.40002-7.09998,2.09998-23.19995,32.09998-23.59998c15.59998-0.40002,119,0,119.90002,0v150.80011h55.30005
				c0,0,0-205.70001,0-206.60004c0-50.90002-59.50006-62-87.40009-62.5H506.60013v38.80005c0.40002,0,173.90005,0,174.30002,0
				c35.5,4,31.20001,22.80005,31.20001,29v15.19995H595.20013c-54.40002,0.5-89.50003,25.90002-89.90005,54.90002
				C505.30014,724.55017,506.50015,851.25018,505.30014,852.15021"/>
			<path id="path20_6_" fill="#005C87" d="M1524.10034,1198.05017c-35.69995,0.90002-63.29993-2.69995-86.59998-12.5
				c-6.69995-2.69995-17.40002-2.69995-18.30005-11.19995c3.6001-3.59998,4-9.40002,7.1001-14.30005
				c5.29993-8.90002,14.69995-21,23.19995-27.19995c9.40002-7.09998,18.69995-14.30005,28.59998-20.5
				c17.40002-10.70007,37-17,54-27.70007c9.80005-6.19995,19.6001-14.29993,29.40002-21
				c4.90002-3.59998,8-9.40002,14.30005-11.59998c0,0.40002,0,0.90002,0,1.30005c-3.09998,4-4,9.79993-7.09998,14.29993
				c-4.5,4.5-8.90002,8.5-13.40002,12.90002c-12.90002,17.40002-29,32.59998-46.40002,45.09998
				c-14.30005,9.80005-45.5,23.20007-51.30005,39.70007c0,0-0.3999,0.40002-0.8999,0.90002
				c9.79993,0.90002,21.3999,4.5,30.79993,7.09998c15.20007,4,29,3.09998,44.6001,7.09998
				c7.09998,1.79993,14.29993,4,21.3999,6.19995c0,1.30005,0,2.70007,0,4c-8,8-13.79993,18.70007-22.29993,26.30005
				c-22.80005,19.59998-47.70007,38.80005-73.6001,54.90002c-13.79993,8.90002-31.69995,14.70007-46.3999,22.30005
				c-5.30005,2.69995-14.30005,4-17.40002,8.5c-8,9.79993-12.5,22.79993-18.30005,34.40002
				c-12.90002,24.69995-25.40002,51.90002-36.5,77.79993c-8.09998,17.40002-13,34.80005-22.80005,50.90002
				c-46,75.90002-95.90002,121.80005-172.70007,166.90002c-16.5,9.40002-36.09998,13.40002-57.09998,18.30005
				c-11.19995,0.40002-22.30005,1.29993-33.5,1.79993c-7.09998,3.1001-14.30005,11.6001-20.5,15.6001
				c-25.40002,16.09998-91,50.90002-109.80005,4.90002c-12.09998-29.00012,17.79999-57.6001,28.10004-72.30005
				c7.59998-10.30005,17.39996-21.90002,22.79999-33.5c3.09998-7.6001,4-15.6001,7.09998-23.70007
				c7.10004-19.59998,13.79999-41.5,23.20001-59.80005c4.90002-9.40002,10.29999-19.19995,16.5-27.69995
				c3.60004-4.90002,9.79999-7.09998,11.20001-15.20007c-6.29993-8.90002-6.69995-22.29993-10.29999-33.5
				c-16.09998-50.40002-9.79999-112.90002,12.89996-149.90002c7.1001-11.19995,24.1001-35.69995,46.80005-26.29993
				c20.09998,8,15.59998,33.5,21.40002,55.79993c1.30005,5.30005,0.40002,8.90002,3.09998,12.5c0-0.40002,0-0.90002,0-0.90002
				c6.30005-12.5,12.5-24.5,18.30005-37c13.80005-21.90002,37.90002-44.59998,58-59.80005
				c10.69995-8,19.19995-21.90002,32.59998-26.79993c0,0.40002,0,0.90002,0,1.29993c-0.40002,0-0.40002,0-0.90002,0
				c-2.69995,4-6.69995,5.80005-10.29993,8.90002c-8,8-16.90002,17.80005-23.20007,26.80005
				c-18.69995,25-35.29993,52.59998-50,81.20007c-19.19995,42.79993-13.40002,29-19.19995,42.79993
				c-2.70007,5.40002-2.70007,13.40002-7.09998,16.09998c-6.70007-9.79993-16.5-18.29993-21.40002-30.29993
				c-8.5-19.20007-9.40002-42.80005-12.5-67.40002c-1.80005-0.40002-0.90002,0-1.80005-0.90002
				c-14.29993,3.59998-19.19995,18.29993-24.5,30.79993c-13.40002,31.70007,24.80005,93.59998,36.40002,130.20007
				c3.09998,9.40002-23.90002,27.79993-29.29993,36.69995c-2.70007,8.5-11.6001,13.40002-16.50012,20.09998
				c-5.79993,8.5-12.09998,19.20007-16.09998,28.6001c-10.70001,25-16.09998,52.59998-27.70001,77.59998
				c-5.39996,11.59998-14.70001,23.70007-22.29999,34.30005c-8.5,12.09998-17.79999,20.5-24.5,34.79993
				c-2.20001,4.90002-5.39996,12.90002-1.79999,18.30005c0.90002,3.59998,2.70001,4.90002,6.20001,5.79993
				c5.79999,4.90002,22.29999-1.29993,28.10004-4c16.5-6.69995,30.29999-12.90002,44.20001-22.29993
				c6.29993-4.5,12.90002-12.90002,21-15.20007c3.09998,0,6.29993,0,9.40002,0c14.29993-3.09998,30.29993-0.90002,43.69995-4.90002
				c23.59998-7.59998,45.09998-18.69995,64.30005-30.79993c58.40002-37,106.59998-89.70007,139.20007-152.6001
				c5.29993-10.29993,7.59998-19.59998,12.5-30.29993c9.3999-21.90002,22.69995-72.20007,32.09998-93.59998
				c9.40002-21,16.5-14.40002,29.90002-31.80005c6.69995-9.40002,33.5-14.29993,45.5-19.19995
				c8.90002-4,22.79993-7.59998,30.79993-12.5c15.20007-9.40002,30.30005-20.09998,44.6001-30.30005
				C1500.50037,1218.05029,1522.80042,1206.9502,1524.10034,1198.05017"/>
			<path id="path22_6_" fill="#005C87" d="M1102.50024,1527.25037c-7.59998,0-12.8999-0.90002-18.29993-2.20007
				c0,0,0-0.40002,0-0.90002c0.3999,0,0.3999,0,0.8999,0c3.6001-7.09998,9.80005-11.90002,14.30005-18.09998
				c3.59998-7.09998,6.69995-14.09998,10.30005-21.20007c0.3999,0.40002,0.8999,0.90002,0.8999,0.90002
				c6.30005,4.40002,9.40002,11.5,9.40002,22.1001c-2.69995,3.09998-3.09998,6.19995-5.29993,9.29993
				C1111.90027,1521.55029,1106.10034,1523.75037,1102.50024,1527.25037"/>
			<path id="path24_6_" fill="#E3820F" d="M835.10022,666.3501h167.80005c19.60004,0,38.40002,4,53.5,11.19995
				c25.40002,11.59998,37.5,27.19995,37.5,47.69995v42.80005c0,16.50006-13.79993,32.10004-41.5,42.80011
				c-14.29993,5.40002-32.09998,8.5-49.5,8.5h-70.5c-23.59998,0-34.79999,7.09998-37.90002,22.80005
				c-0.39996,1.80005-0.39996,3.59998-0.39996,5.40002v26.30005c0,1.30005,0,3.09998,0.39996,4.90002
				c3.10004,12,9.40002,15.19995,29.90002,17.40002c1.79999,0,4,0,5.40002,0h166.40002v38.80005H932.90027
				c-23.59998,0-36.10004-1.30005-47.29999-4.90002c-34.40002-10.69995-49.5-27.69995-49.5-57.59998v-33.90002
				c0-26.30005,29.39996-48.59998,79.40002-54c5.39996-0.40002,11.20001-0.40002,17-0.40002h60.20001
				c2.20001,0,4.5,0,6.29999-0.40002c18.29999-1.80005,26.29999-4.90002,31.70001-11.59998
				c3.59998-3.60004,4.5-6.70001,4.5-10.70001v-33.90002c0-4-2.70007-9.40002-8-13.80005c-5.40002-4.5-13.79999-7.59998-25-8
				c-2.20001,0-3.60004-0.40002-5.79999-0.40002H835.30029V666.3501"/>
			<path id="path26_6_" fill="#E3820F" d="M1518.60034,717.45007c0-39.69995,29.90002-62,89.70007-66.5
				c5.79993-0.40002,11.19995-0.90002,16.8999-0.90002h151.80005v38.80005h-153c-33.90002,0-46.79993,8.5-46.79993,29v200.80011
				h-58.40002V717.45007"/>
			<path id="path28_6_" fill="#E3820F" d="M1152.50024,739.55017v138.30011c0,35.30005,25,56.69995,73.6001,63.40002
				c5.40002,0.40002,10.69995,0.90002,15.59998,0.90002h110.70007c5.79993,0,10.69995-0.40002,16.5-0.90002
				c48.59998-6.69995,73.19995-28.09998,73.19995-63.40002V739.55017c0-28.59998-10.30005-43.69995-34.40002-54l57.09998-51.80005
				h-67.29993l-46.40002,42l-46.80005-2.69995h-62.5c-10.29993,0-21.90002,1.30005-33.90002,4.5
				C1170.80029,687.75012,1152.50024,707.45007,1152.50024,739.55017L1152.50024,739.55017z M1215.40027,742.65015
				c0-1.80005,0.90002-3.59998,1.30005-5.80005c3.09998-16.09998,18.30005-25,41.5-25h52.59998l-48.19995,43.69995h67.40002
				l42.40002-38.40002c8,4.5,12.8999,10.69995,14.69995,18.69995c0.40002,1.80005,0.40002,4,0.40002,5.80005v132.50006
				c0,1.80005,0,3.59998-0.40002,5.40002c-3.09998,15.19995-18.30005,23.59998-41.09998,23.59998h-87.90002
				c-25.90002,0-42.80005-11.19995-42.80005-29L1215.40027,742.65015"/>
			<path id="path30_6_" fill="#E3820F" d="M1807.50049,679.75012h8.5v32.59998h11.19995v6.69995h-31.19995v-6.69995h11.59998
				v-32.59998H1807.50049z M1877.00049,672.25012h8v39.30005h-12.09998l-9.80005-26.80005l-10.69995,26.80005h-11.59998v-39.30005
				h7.59998v29.90002h0.40002l11.19995-29.90002h5.80005l11.19995,29.90002l0,0V672.25012"/>
		</g>
	</g>
</g>
</svg>
