<svg id="Layer_1" data-name="Layer 1" xmlns="http://www.w3.org/2000/svg" xmlns:xlink="http://www.w3.org/1999/xlink" viewBox="0 0 100 100"><defs><style>.cls-1{fill:#fff;}.cls-2{fill:none;}.cls-3{fill:#529e45;}.cls-4{fill:#333;}.cls-5{clip-path:url(#clip-path);}.cls-6{fill:#428840;}.cls-7{fill:#428940;}.cls-8{fill:#438a40;}.cls-9{fill:#438b41;}.cls-10{fill:#438c41;}.cls-11{fill:#438d41;}.cls-12{fill:#438e42;}.cls-13{fill:#438f42;}.cls-14{fill:#439042;}.cls-15{fill:#439143;}.cls-16{fill:#439243;}.cls-17{fill:#429343;}.cls-18{fill:#429443;}.cls-19{fill:#429444;}.cls-20{fill:#429544;}.cls-21{fill:#429644;}.cls-22{fill:#429744;}.cls-23{fill:#429845;}.cls-24{fill:#429945;}.cls-25{fill:#429a45;}.cls-26{fill:#429b45;}.cls-27{fill:#429c45;}.cls-28{fill:#419c46;}.cls-29{fill:#419d46;}.cls-30{fill:#419e46;}.cls-31{fill:#419f46;}.cls-32{fill:#41a046;}.cls-33{fill:#41a147;}.cls-34{fill:#41a247;}.cls-35{fill:#41a347;}.cls-36{fill:#41a447;}.cls-37{fill:#41a547;}.cls-38{fill:#41a648;}.cls-39{fill:#41a748;}.cls-40{fill:#41a848;}.cls-41{fill:#41a948;}.cls-42{fill:#41aa48;}.cls-43{fill:#41ab49;}.cls-44{fill:#41ac49;}.cls-45{fill:#41ad49;}.cls-46{fill:#41ae49;}.cls-47{fill:#41af49;}.cls-48{mask:url(#mask);}.cls-49{clip-path:url(#clip-path-2);}.cls-50{fill:#438840;}.cls-51{fill:#438940;}.cls-52{fill:#448a40;}.cls-53{fill:#458b40;}.cls-54{fill:#458c41;}.cls-55{fill:#468d41;}.cls-56{fill:#478e41;}.cls-57{fill:#478f41;}.cls-58{fill:#489041;}.cls-59{fill:#499142;}.cls-60{fill:#4a9242;}.cls-61{fill:#4a9342;}.cls-62{fill:#4b9443;}.cls-63{fill:#4c9543;}.cls-64{fill:#4c9643;}.cls-65{fill:#4d9743;}.cls-66{fill:#4e9843;}.cls-67{fill:#4e9944;}.cls-68{fill:#4f9a44;}.cls-69{fill:#509b44;}.cls-70{fill:#519c44;}.cls-71{fill:#519d44;}.cls-72{fill:#539f45;}.cls-73{fill:#53a045;}.cls-74{fill:#54a145;}.cls-75{fill:#55a245;}.cls-76{fill:#56a345;}.cls-77{fill:#57a445;}.cls-78{fill:#58a546;}.cls-79{fill:#59a646;}.cls-80{fill:#59a746;}.cls-81{fill:#5aa746;}.cls-82{fill:#5aa846;}.cls-83{fill:#5ba946;}.cls-84{fill:#5caa46;}.cls-85{fill:#5cab46;}.cls-86{fill:#5dab46;}.cls-87{mask:url(#mask-2);}.cls-88{clip-path:url(#clip-path-3);}.cls-89{clip-path:url(#clip-path-4);}.cls-90{fill:#6fbf4a;}.cls-91{fill:#6ebe4a;}.cls-92{fill:#6dbd49;}.cls-93{fill:#6cbc49;}.cls-94{fill:#6bbb49;}.cls-95{fill:#6aba48;}.cls-96{fill:#69b948;}.cls-97{fill:#68b848;}.cls-98{fill:#67b848;}.cls-99{fill:#66b747;}.cls-100{fill:#66b647;}.cls-101{fill:#65b547;}.cls-102{fill:#64b447;}.cls-103{fill:#64b347;}.cls-104{fill:#63b347;}.cls-105{fill:#62b247;}.cls-106{fill:#62b147;}.cls-107{fill:#61b047;}.cls-108{fill:#60af47;}.cls-109{fill:#60ae47;}.cls-110{fill:#5fae46;}.cls-111{fill:#5ead46;}.cls-112{fill:#5eac46;}.cls-113{clip-path:url(#clip-path-5);}.cls-114{clip-path:url(#clip-path-6);}</style><clipPath id="clip-path"><path class="cls-2" d="M38.21,39.5157a1.142,1.142,0,0,0-1.0873,0l-8.9756,4.9584a1.0111,1.0111,0,0,0-.533.8978v9.9373a1.0546,1.0546,0,0,0,.533.8978l8.9756,4.9584a1.142,1.142,0,0,0,1.0873,0l8.9757-4.9584a1.0113,1.0113,0,0,0,.533-.8978V45.3719a1.0546,1.0546,0,0,0-.533-.8978L38.21,39.5157Z"/></clipPath><mask id="mask" x="27.6142" y="39.378" width="20.1046" height="21.9915" maskUnits="userSpaceOnUse"><g id="mask-3"><path id="path-2" class="cls-1" d="M38.21,39.5157a1.142,1.142,0,0,0-1.0873,0l-8.9756,4.9584a1.0111,1.0111,0,0,0-.533.8978v9.9373a1.0546,1.0546,0,0,0,.533.8978l8.9756,4.9584a1.142,1.142,0,0,0,1.0873,0l8.9757-4.9584a1.0113,1.0113,0,0,0,.533-.8978V45.3719a1.0546,1.0546,0,0,0-.533-.8978L38.21,39.5157Z"/></g></mask><clipPath id="clip-path-2"><path class="cls-2" d="M47.2071,44.4741l-9.0183-4.9584a1.5239,1.5239,0,0,0-.2771-.102L27.806,55.9825a1.1092,1.1092,0,0,0,.2985.2449l9.0183,4.9584a1.08,1.08,0,0,0,.8315.102l9.4873-16.61a1.0971,1.0971,0,0,0-.2345-.2041Z"/></clipPath><mask id="mask-2" x="27.6142" y="37.6997" width="20.4457" height="23.8942" maskUnits="userSpaceOnUse"><g id="mask-3-2" data-name="mask-3"><path id="path-2-2" data-name="path-2" class="cls-1" d="M38.21,39.5157a1.142,1.142,0,0,0-1.0873,0l-8.9756,4.9584a1.0111,1.0111,0,0,0-.533.8978v9.9373a1.0546,1.0546,0,0,0,.533.8978l8.9756,4.9584a1.142,1.142,0,0,0,1.0873,0l8.9757-4.9584a1.0113,1.0113,0,0,0,.533-.8978V45.3719a1.0546,1.0546,0,0,0-.533-.8978L38.21,39.5157Z"/></g></mask><clipPath id="clip-path-3"><path class="cls-2" d="M36.8243,37.7l-.1279.0612h.1706Z"/></clipPath><clipPath id="clip-path-4"><path class="cls-2" d="M47.2284,56.207a1.1693,1.1693,0,0,0,.533-.653L37.869,39.3933a1.1249,1.1249,0,0,0-.7675.1224l-8.9543,4.938,9.6579,16.8545a1.5345,1.5345,0,0,0,.405-.1224l9.0183-4.9788Z"/></clipPath><clipPath id="clip-path-5"><path class="cls-2" d="M48.06,56.0437l-.064-.102v.1429Z"/></clipPath><clipPath id="clip-path-6"><path class="cls-2" d="M47.2284,56.207l-8.997,4.9584a1.3278,1.3278,0,0,1-.405.1224l.17.3061,9.9777-5.53v-.1224l-.2558-.4081a.95.95,0,0,1-.49.6734Z"/></clipPath></defs><title>nodejs</title><path class="cls-1" d="M49.4883,83.179a3.0893,3.0893,0,0,1-1.4267-.3534L48.02,82.803l-2.8217-1.6042a1.4044,1.4044,0,0,1-.8523-1.1831l-.0595,0a4.9059,4.9059,0,0,1-2.4538-.62l-.064-.0325L39.53,78.1394a2.8722,2.8722,0,0,1-1.4986-2.5069V66.2259a2.87,2.87,0,0,1,1.4947-2.5048l8.5049-4.7127a3.1356,3.1356,0,0,1,2.9009-.0077l8.5207,4.7213a2.8687,2.8687,0,0,1,1.493,2.5039v9.4066a2.87,2.87,0,0,1-1.4945,2.5047L50.9458,82.85l-.0932.0462A3.3971,3.3971,0,0,1,49.4883,83.179Zm-.0141-3.8879,5.4294-3.0084a8.0964,8.0964,0,0,1-2.7928.4279,6.8341,6.8341,0,0,1-4.1491-1.0726v.6679a4.1406,4.1406,0,0,1-.4209,1.8952,1.4713,1.4713,0,0,1,.2156.1071Zm-5.7864-3.2a.943.943,0,0,0,.3555.1034V67.0217a1.4118,1.4118,0,0,1,1.4155-1.4047h1.0874a1.4173,1.4173,0,0,1,1.33.9239,5.664,5.664,0,0,1,3.9145-1.2095c3.0134,0,4.7851,1.0621,5.2791,3.16V66.7361L49.467,62.5416l-7.6028,4.1945v8.3458ZM57.07,74.5191a3.5564,3.5564,0,0,1-.8867,1.0547l.8867-.4913Zm-6.6348-1.89a.1675.1675,0,0,0,.07.09,3.445,3.445,0,0,0,1.627.2228c.2663,0,.486-.01.6666-.025-.3044-.049-.703-.1007-1.224-.15C51.252,72.736,50.8579,72.698,50.4351,72.63ZM56.69,70.4418a2.7821,2.7821,0,0,1,.38.482V69.93a1.56,1.56,0,0,1-.1493.2654l-.15.1749C56.7445,70.395,56.7175,70.4189,56.69,70.4418Z"/><path class="cls-1" d="M22.5614,60.3a1.6994,1.6994,0,0,1-.8475-.2263l-5.3587-2.9308a2.1826,2.1826,0,0,1-1.1575-1.9152V49.0556l-2.22-1.2308-2.22,1.2309v6.1718a2.186,2.186,0,0,1-1.1641,1.9189l-5.3317,2.916a1.6138,1.6138,0,0,1-.8492.2374,1.6944,1.6944,0,0,1-.8248-.2149,1.6642,1.6642,0,0,1-.8865-1.47L1.6809,45.231A2.1864,2.1864,0,0,1,2.8452,43.31l9.03-4.9735a2.1773,2.1773,0,0,1,1.05-.2867H13.01l.1377.0082a2.471,2.471,0,0,1,.909.2767l9.0426,4.9807a2.1808,2.1808,0,0,1,1.1546,1.9135l.0213,13.3837a1.6654,1.6654,0,0,1-.8865,1.4721A1.7,1.7,0,0,1,22.5614,60.3Z"/><path class="cls-1" d="M62.3548,62.6669a2.3163,2.3163,0,0,1-1.0934-.2763L52.21,57.3852a2.1807,2.1807,0,0,1-1.1529-1.9128v-9.978a2.186,2.186,0,0,1,1.1642-1.9188L61.25,38.5825a2.3014,2.3014,0,0,1,2.1981-.0064l1.1263.62V27.2523a1.6807,1.6807,0,0,1,.8416-1.4442l.0387-.0221a1.7017,1.7017,0,0,1,.815-.2035,1.8076,1.8076,0,0,1,.775.1748l.0453.0229,5.3938,2.8771a2.2043,2.2043,0,0,1,1.1681,1.9415V55.4724a2.1858,2.1858,0,0,1-1.1643,1.919l-9.028,4.993A2.327,2.327,0,0,1,62.3548,62.6669Zm0-9.79,2.1983-1.2188V49.2886L62.3548,48.07l-2.1982,1.2188v2.3691Z"/><path class="cls-1" d="M87.0406,62.4425a2.3111,2.3111,0,0,1-1.0908-.2763l-8.9813-4.9005A2.1829,2.1829,0,0,1,75.81,55.35V45.372a2.1858,2.1858,0,0,1,1.1644-1.9191L86.0023,38.46a2.3018,2.3018,0,0,1,2.1983-.0062L97.1889,43.44a2.2144,2.2144,0,0,1,1.13,1.912V47.78a2.1748,2.1748,0,0,1-1.1428,1.9189L91.83,52.6834a1.7,1.7,0,0,1-1.681.0149,1.664,1.664,0,0,1-.8865-1.47V49.17l-2.23-1.22-2.23,1.22v2.3428l8.739,4.81a1.6621,1.6621,0,0,1-.0092,2.9563l-5.408,2.8823A2.2179,2.2179,0,0,1,87.0406,62.4425Z"/><path class="cls-1" d="M87.0751,53.602a1.3549,1.3549,0,0,1-.687-.1863l-1.7095-.9492-.06-.0359a1.3742,1.3742,0,0,1-.6431-1.1616V49.3509a1.3742,1.3742,0,0,1,.6431-1.1616l.06-.0359,1.7095-.9492a1.36,1.36,0,0,1,1.3739,0l1.71.9494.06.0359a1.3741,1.3741,0,0,1,.643,1.1616V51.269a1.3741,1.3741,0,0,1-.643,1.1616l-.06.0359-1.71.9494A1.3551,1.3551,0,0,1,87.0751,53.602Z"/><path class="cls-1" d="M37.6664,62.4629a2.3155,2.3155,0,0,1-1.0934-.2764l-8.9866-4.9644a2.215,2.215,0,0,1-1.1319-1.9129V45.372a2.1748,2.1748,0,0,1,1.1431-1.919l8.9645-4.9524a2.3022,2.3022,0,0,1,2.1978-.006l8.9867,4.9644a2.2152,2.2152,0,0,1,1.1319,1.913v9.9372a2.1752,2.1752,0,0,1-1.1429,1.919l-8.9647,4.9523A2.3253,2.3253,0,0,1,37.6664,62.4629Z"/><path class="cls-1" d="M26.9562,56.7512a2.1253,2.1253,0,0,1-.587-1.442V45.372a2.1977,2.1977,0,0,1,1.1856-1.919L36.5418,38.5a2.3411,2.3411,0,0,1,1.1376-.285,2.6369,2.6369,0,0,1,.4151.0331l.8072,1.7489L28.7961,56.5659Z"/><path class="cls-1" d="M36.9686,60.6922l9.4874-16.61,1.8089-.2625a2.1667,2.1667,0,0,1,.6775,1.552v9.9372a2.1862,2.1862,0,0,1-1.1641,1.919l-8.9871,4.9529-.06.0307a2.3659,2.3659,0,0,1-.4863.1835Z"/><path class="cls-1" d="M37.6638,62.4891a2.2747,2.2747,0,0,1-1.1063-.2909l-9.0312-4.9655a2.2536,2.2536,0,0,1-.61-.5068l-.1-1.3473L36.9216,38.81l1.26-.5242a2.6913,2.6913,0,0,1,.5076.1837l.0587.03,9.0183,4.9584.1181.0745a2.1663,2.1663,0,0,1,.47.43l.0947,1.2911L38.9612,61.8628l-.679.5372a2.1836,2.1836,0,0,1-.6183.0891Z"/><path class="cls-1" d="M46.73,56.1387l-9.8711-16.14,1.1719-1.75a2.121,2.121,0,0,1,.7253.2559l9.01,4.9539a2.1933,2.1933,0,0,1,1.1766,1.9141v9.9372a1.5638,1.5638,0,0,1-.2724.8879Z"/><path class="cls-1" d="M37.6383,62.4627a2.1691,2.1691,0,0,1-1.0819-.2852l-9.0293-4.9648a2.2316,2.2316,0,0,1-1.1579-1.9035V45.372a2.1976,2.1976,0,0,1,1.1857-1.919l.1976-.0838.064-.02,1.3579.5278,9.6578,16.8341L38.01,62.4329a2.3651,2.3651,0,0,1-.3713.03Z"/><polygon class="cls-1" points="36.696 38.92 36.196 36.715 36.324 36.653 37.775 37.036 37.818 37.097 36.867 38.92 36.696 38.92"/><path class="cls-1" d="M36.7989,61.8849,27.141,45.03l.4462-1.592,8.937-4.9285a2.2,2.2,0,0,1,1.1175-.2946,2.6082,2.6082,0,0,1,.41.0331l.806.54,9.8925,16.1607.1149.96A2.3333,2.3333,0,0,1,47.7938,57.22l-9.0232,4.9816-.06.0309a2.6937,2.6937,0,0,1-.7212.2212Z"/><polygon class="cls-1" points="46.836 56.085 46.836 55.942 48.979 55.327 49.043 55.429 48.684 57.021 48.62 57.062 46.836 56.085"/><path class="cls-1" d="M36.9838,62.1582l-.1705-.3061.8562-1.7133a.1578.1578,0,0,0,.0413-.0105l8.9579-4.9369a.2354.2354,0,0,0-.0968.171l2.1294-.4448.2559.408.1771.6161v.1225l-.5976,1.0143-9.9777,5.53Z"/><path class="cls-1" d="M36.9838,62.1582l-.1705-.3061.8562-1.7133a.1578.1578,0,0,0,.0413-.0105l8.9579-4.9369a.2354.2354,0,0,0-.0968.171l2.1294-.4448.2559.408.1771.6161v.1225l-.5976,1.0143-9.9777,5.53Z"/><path class="cls-3" d="M49.4883,82.0193a1.9343,1.9343,0,0,1-.8954-.2245l-2.8355-1.612c-.4264-.2244-.2132-.306-.0853-.3468a5.285,5.285,0,0,0,1.2792-.551.2034.2034,0,0,1,.2132.02L49.3391,80.55a.2817.2817,0,0,0,.2558,0l8.5066-4.7135a.2325.2325,0,0,0,.128-.2245V66.2054a.2325.2325,0,0,0-.128-.2244l-8.5066-4.6932a.2817.2817,0,0,0-.2558,0L40.8325,65.981a.2534.2534,0,0,0-.1279.2244v9.4067a.2536.2536,0,0,0,.1279.2245l2.3238,1.2855c1.2579.6121,2.0467-.102,2.0467-.8162V67.0216a.2537.2537,0,0,1,.2559-.2448h1.0873a.254.254,0,0,1,.2558.2448v9.2843a2.31,2.31,0,0,1-2.5157,2.5506,3.7879,3.7879,0,0,1-1.9614-.51l-2.2386-1.2243a1.71,1.71,0,0,1-.8955-1.49V66.2258a1.71,1.71,0,0,1,.8955-1.49l8.5066-4.7136a1.9782,1.9782,0,0,1,1.7909,0L58.89,64.7363a1.71,1.71,0,0,1,.8954,1.49v9.4067a1.71,1.71,0,0,1-.8954,1.49l-8.5066,4.7135A2.2646,2.2646,0,0,1,49.4883,82.0193Zm2.6224-6.4684c-3.731,0-4.4985-1.6324-4.4985-3.02a.2537.2537,0,0,1,.2558-.2449h1.1086a.2156.2156,0,0,1,.2346.2041c.1705,1.0814.6609,1.612,2.9208,1.612,1.7909,0,2.5584-.3877,2.5584-1.306,0-.5305-.2132-.9182-3.0061-1.1835-2.3239-.2244-3.7736-.7141-3.7736-2.4894,0-1.6528,1.45-2.6322,3.88-2.6322,2.7289,0,4.0721.8978,4.2426,2.8567a.32.32,0,0,1-.0639.1836.2674.2674,0,0,1-.1706.0817H54.69a.2477.2477,0,0,1-.2346-.1837c-.2558-1.1223-.9167-1.49-2.6649-1.49-1.9615,0-2.196.6529-2.196,1.1426,0,.5918.2772.7754,2.9208,1.1019,2.6224.3265,3.8589.7958,3.8589,2.5506C56.3533,74.5307,54.8183,75.5509,52.1107,75.5509Z"/><path class="cls-4" d="M23.0944,45.2291a1.0317,1.0317,0,0,0-.5544-.8978L13.5,39.3525a1.3535,1.3535,0,0,0-.49-.1429h-.0853a1.0463,1.0463,0,0,0-.49.1429l-9.04,4.9788a1.0318,1.0318,0,0,0-.5543.8978l.0213,13.3857a.5041.5041,0,0,0,.2772.4489.5021.5021,0,0,0,.533,0l5.3726-2.9383a1.0321,1.0321,0,0,0,.5543-.8979V48.9632a1.0318,1.0318,0,0,1,.5543-.8978L12.4344,46.8a1.0691,1.0691,0,0,1,.5544-.1428.9469.9469,0,0,1,.533.1428l2.2812,1.2651a1.0318,1.0318,0,0,1,.5543.8978v6.2643a1.0321,1.0321,0,0,0,.5543.8979l5.3726,2.9383a.54.54,0,0,0,.5543,0,.5041.5041,0,0,0,.2772-.4489l-.0213-13.3857Z"/><path class="cls-4" d="M66.5442,26.8034a.61.61,0,0,0-.533,0,.5284.5284,0,0,0-.2772.4489V40.5156a.3883.3883,0,0,1-.1918.3264.4241.4241,0,0,1-.3838,0l-2.26-1.2447a1.142,1.142,0,0,0-1.0873,0l-9.04,4.9992a1.0321,1.0321,0,0,0-.5543.8979v9.978a1.0318,1.0318,0,0,0,.5543.8978l9.04,4.9992a1.1415,1.1415,0,0,0,1.0873,0l9.04-4.9992a1.0318,1.0318,0,0,0,.5543-.8978V30.5987a1.0392,1.0392,0,0,0-.5543-.9182l-5.3939-2.8771Zm-.8315,25.3838a.2326.2326,0,0,1-.1279.2245l-3.0914,1.714a.329.329,0,0,1-.2771,0l-3.0914-1.714a.2537.2537,0,0,1-.1279-.2245v-3.428a.2324.2324,0,0,1,.1279-.2245l3.0914-1.714a.329.329,0,0,1,.2771,0l3.0914,1.714a.2534.2534,0,0,1,.1279.2245v3.428Z"/><path class="cls-4" d="M96.6265,48.6775a1.0112,1.0112,0,0,0,.533-.8978V45.3515a1.0546,1.0546,0,0,0-.533-.8978l-8.9757-4.9788a1.142,1.142,0,0,0-1.0873,0l-9.04,4.9992a1.032,1.032,0,0,0-.5543.8978V55.35a1.0318,1.0318,0,0,0,.5543.8978L86.5,61.145a1.1,1.1,0,0,0,1.066,0l5.4365-2.8975a.5021.5021,0,0,0,0-.8978L83.92,52.35a.5282.5282,0,0,1-.2772-.4489V48.78a.504.504,0,0,1,.2772-.4489L86.7554,46.78a.54.54,0,0,1,.5543,0l2.8356,1.5508a.5283.5283,0,0,1,.2771.4489v2.4486a.5041.5041,0,0,0,.2772.4489.54.54,0,0,0,.5543,0l5.3726-3Z"/><path class="cls-3" d="M86.9686,48.2082a.201.201,0,0,1,.2132,0l1.7269.9591a.2123.2123,0,0,1,.1066.1836V51.269a.2123.2123,0,0,1-.1066.1836l-1.7269.9591a.201.201,0,0,1-.2132,0l-1.7269-.9591a.2123.2123,0,0,1-.1066-.1836V49.3509a.2123.2123,0,0,1,.1066-.1836l1.7269-.9591Z"/><g id="path-2-3" data-name="path-2"><g class="cls-5"><polygon class="cls-6" points="47.719 47.173 35.399 39.332 47.719 39.332 47.719 47.173"/><polygon class="cls-6" points="47.719 48.571 33.203 39.332 35.399 39.332 47.719 47.173 47.719 48.571"/><polygon class="cls-7" points="47.719 49.968 31.007 39.332 33.203 39.332 47.719 48.571 47.719 49.968"/><polygon class="cls-8" points="47.719 51.366 28.811 39.332 31.007 39.332 47.719 49.968 47.719 51.366"/><polygon class="cls-9" points="47.719 52.764 27.614 39.968 27.614 39.332 28.811 39.332 47.719 51.366 47.719 52.764"/><polygon class="cls-10" points="47.719 54.161 27.614 41.366 27.614 39.968 47.719 52.764 47.719 54.161"/><polygon class="cls-10" points="47.719 54.662 27.614 41.867 27.614 41.366 47.719 54.161 47.719 54.662"/><polygon class="cls-11" points="47.719 55.163 27.614 42.368 27.614 41.867 47.719 54.662 47.719 55.163"/><polygon class="cls-11" points="47.719 55.664 27.614 42.869 27.614 42.368 47.719 55.163 47.719 55.664"/><polygon class="cls-12" points="47.719 56.165 27.614 43.37 27.614 42.869 47.719 55.664 47.719 56.165"/><polygon class="cls-13" points="47.719 56.666 27.614 43.871 27.614 43.37 47.719 56.165 47.719 56.666"/><polygon class="cls-14" points="47.719 57.167 27.614 44.371 27.614 43.871 47.719 56.666 47.719 57.167"/><polygon class="cls-15" points="47.719 57.668 27.614 44.872 27.614 44.371 47.719 57.167 47.719 57.668"/><polygon class="cls-16" points="47.719 58.169 27.614 45.373 27.614 44.872 47.719 57.668 47.719 58.169"/><polygon class="cls-17" points="47.719 58.67 27.614 45.874 27.614 45.373 47.719 58.169 47.719 58.67"/><polygon class="cls-18" points="47.719 59.171 27.614 46.375 27.614 45.874 47.719 58.67 47.719 59.171"/><polygon class="cls-19" points="47.719 59.672 27.614 46.876 27.614 46.375 47.719 59.171 47.719 59.672"/><polygon class="cls-20" points="47.719 60.173 27.614 47.377 27.614 46.876 47.719 59.672 47.719 60.173"/><polygon class="cls-21" points="47.719 60.673 27.614 47.878 27.614 47.377 47.719 60.173 47.719 60.673"/><polygon class="cls-21" points="47.719 60.899 27.614 48.103 27.614 47.878 47.719 60.673 47.719 60.899"/><polygon class="cls-22" points="47.719 61.124 27.614 48.328 27.614 48.103 47.719 60.899 47.719 61.124"/><polygon class="cls-23" points="47.719 61.349 27.614 48.554 27.614 48.328 47.719 61.124 47.719 61.349 47.719 61.349"/><polygon class="cls-23" points="47.365 61.349 27.614 48.779 27.614 48.554 47.719 61.349 47.365 61.349"/><polygon class="cls-24" points="47.011 61.349 27.614 49.004 27.614 48.779 47.365 61.349 47.011 61.349"/><polygon class="cls-25" points="46.657 61.349 27.614 49.229 27.614 49.004 47.011 61.349 46.657 61.349"/><polygon class="cls-25" points="46.303 61.349 27.614 49.454 27.614 49.229 46.657 61.349 46.303 61.349"/><polygon class="cls-26" points="45.949 61.349 27.614 49.68 27.614 49.454 46.303 61.349 45.949 61.349"/><polygon class="cls-27" points="45.596 61.349 27.614 49.905 27.614 49.68 45.949 61.349 45.596 61.349"/><polygon class="cls-28" points="45.242 61.349 27.614 50.13 27.614 49.905 45.596 61.349 45.242 61.349"/><polygon class="cls-29" points="44.888 61.349 27.614 50.355 27.614 50.13 45.242 61.349 44.888 61.349"/><polygon class="cls-30" points="44.534 61.349 27.614 50.581 27.614 50.355 44.888 61.349 44.534 61.349"/><polygon class="cls-30" points="44.18 61.349 27.614 50.806 27.614 50.581 44.534 61.349 44.18 61.349"/><polygon class="cls-31" points="43.826 61.349 27.614 51.031 27.614 50.806 44.18 61.349 43.826 61.349"/><polygon class="cls-32" points="43.472 61.349 27.614 51.256 27.614 51.031 43.826 61.349 43.472 61.349"/><polygon class="cls-32" points="43.118 61.349 27.614 51.481 27.614 51.256 43.472 61.349 43.118 61.349"/><polygon class="cls-33" points="42.765 61.349 27.614 51.707 27.614 51.481 43.118 61.349 42.765 61.349"/><polygon class="cls-34" points="42.411 61.349 27.614 51.932 27.614 51.707 42.765 61.349 42.411 61.349"/><polygon class="cls-34" points="42.057 61.349 27.614 52.157 27.614 51.932 42.411 61.349 42.057 61.349"/><polygon class="cls-35" points="41.703 61.349 27.614 52.382 27.614 52.157 42.057 61.349 41.703 61.349"/><polygon class="cls-36" points="41.349 61.349 27.614 52.607 27.614 52.382 41.703 61.349 41.349 61.349"/><polygon class="cls-37" points="40.995 61.349 27.614 52.833 27.614 52.607 41.349 61.349 40.995 61.349"/><polygon class="cls-37" points="40.641 61.349 27.614 53.058 27.614 52.833 40.995 61.349 40.641 61.349"/><polygon class="cls-38" points="40.288 61.349 27.614 53.283 27.614 53.058 40.641 61.349 40.288 61.349"/><polygon class="cls-39" points="39.934 61.349 27.614 53.508 27.614 53.283 40.288 61.349 39.934 61.349"/><polygon class="cls-40" points="39.58 61.349 27.614 53.734 27.614 53.508 39.934 61.349 39.58 61.349"/><polygon class="cls-41" points="39.226 61.349 27.614 53.959 27.614 53.734 39.58 61.349 39.226 61.349"/><polygon class="cls-41" points="38.872 61.349 27.614 54.184 27.614 53.959 39.226 61.349 38.872 61.349"/><polygon class="cls-41" points="38.588 61.349 27.614 54.365 27.614 54.184 38.872 61.349 38.588 61.349"/><polygon class="cls-42" points="38.304 61.349 27.614 54.546 27.614 54.365 38.588 61.349 38.304 61.349"/><polygon class="cls-43" points="38.019 61.349 27.614 54.727 27.614 54.546 38.304 61.349 38.019 61.349"/><polygon class="cls-44" points="37.735 61.349 27.614 54.908 27.614 54.727 38.019 61.349 37.735 61.349"/><polygon class="cls-44" points="37.451 61.349 27.614 55.089 27.614 54.908 37.735 61.349 37.451 61.349"/><polygon class="cls-45" points="37.166 61.349 27.614 55.27 27.614 55.089 37.451 61.349 37.166 61.349"/><polygon class="cls-46" points="36.882 61.349 27.614 55.45 27.614 55.27 37.166 61.349 36.882 61.349"/><polygon class="cls-47" points="36.598 61.349 27.614 55.631 27.614 55.45 36.882 61.349 36.598 61.349"/><polygon class="cls-47" points="27.614 55.631 36.598 61.349 27.614 61.349 27.614 55.631"/></g></g><g class="cls-48"><g class="cls-49"><polygon class="cls-6" points="34.072 39.414 46 61.369 27.806 61.369 27.806 39.414 34.072 39.414"/><polygon class="cls-6" points="34.382 39.414 46.311 61.369 46 61.369 34.072 39.414 34.382 39.414"/><polygon class="cls-50" points="34.693 39.414 46.621 61.369 46.311 61.369 34.382 39.414 34.693 39.414"/><polygon class="cls-51" points="35.004 39.414 46.932 61.369 46.621 61.369 34.693 39.414 35.004 39.414"/><polygon class="cls-52" points="35.314 39.414 47.243 61.369 46.932 61.369 35.004 39.414 35.314 39.414"/><polygon class="cls-53" points="35.625 39.414 47.442 61.164 47.442 61.369 47.243 61.369 35.314 39.414 35.625 39.414"/><polygon class="cls-54" points="35.935 39.414 47.442 60.592 47.442 61.164 35.625 39.414 35.935 39.414"/><polygon class="cls-55" points="36.246 39.414 47.442 60.021 47.442 60.592 35.935 39.414 36.246 39.414"/><polygon class="cls-56" points="36.557 39.414 47.442 59.449 47.442 60.021 36.246 39.414 36.557 39.414"/><polygon class="cls-57" points="36.867 39.414 47.442 58.877 47.442 59.449 36.557 39.414 36.867 39.414"/><polygon class="cls-58" points="37.178 39.414 47.442 58.306 47.442 58.877 36.867 39.414 37.178 39.414"/><polygon class="cls-59" points="37.488 39.414 47.442 57.734 47.442 58.306 37.178 39.414 37.488 39.414"/><polygon class="cls-59" points="37.799 39.414 47.442 57.162 47.442 57.734 37.488 39.414 37.799 39.414"/><polygon class="cls-60" points="38.11 39.414 47.442 56.591 47.442 57.162 37.799 39.414 38.11 39.414"/><polygon class="cls-61" points="38.42 39.414 47.442 56.019 47.442 56.591 38.11 39.414 38.42 39.414"/><polygon class="cls-62" points="38.731 39.414 47.442 55.447 47.442 56.019 38.42 39.414 38.731 39.414"/><polygon class="cls-63" points="39.041 39.414 47.442 54.875 47.442 55.447 38.731 39.414 39.041 39.414"/><polygon class="cls-64" points="39.352 39.414 47.442 54.304 47.442 54.875 39.041 39.414 39.352 39.414"/><polygon class="cls-65" points="39.663 39.414 47.442 53.732 47.442 54.304 39.352 39.414 39.663 39.414"/><polygon class="cls-66" points="39.973 39.414 47.442 53.16 47.442 53.732 39.663 39.414 39.973 39.414"/><polygon class="cls-67" points="40.284 39.414 47.442 52.589 47.442 53.16 39.973 39.414 40.284 39.414"/><polygon class="cls-68" points="40.594 39.414 47.442 52.017 47.442 52.589 40.284 39.414 40.594 39.414"/><polygon class="cls-69" points="40.905 39.414 47.442 51.445 47.442 52.017 40.594 39.414 40.905 39.414"/><polygon class="cls-70" points="41.216 39.414 47.442 50.873 47.442 51.445 40.905 39.414 41.216 39.414"/><polygon class="cls-71" points="41.526 39.414 47.442 50.302 47.442 50.873 41.216 39.414 41.526 39.414"/><polygon class="cls-3" points="41.837 39.414 47.442 49.73 47.442 50.302 41.526 39.414 41.837 39.414"/><polygon class="cls-72" points="42.147 39.414 47.442 49.158 47.442 49.73 41.837 39.414 42.147 39.414"/><polygon class="cls-73" points="42.458 39.414 47.442 48.587 47.442 49.158 42.147 39.414 42.458 39.414"/><polygon class="cls-73" points="42.774 39.414 47.442 48.005 47.442 48.587 42.458 39.414 42.774 39.414"/><polygon class="cls-74" points="43.09 39.414 47.442 47.423 47.442 48.005 42.774 39.414 43.09 39.414"/><polygon class="cls-75" points="43.406 39.414 47.442 46.841 47.442 47.423 43.09 39.414 43.406 39.414"/><polygon class="cls-75" points="43.723 39.414 47.442 46.259 47.442 46.841 43.406 39.414 43.723 39.414"/><polygon class="cls-76" points="44.039 39.414 47.442 45.677 47.442 46.259 43.723 39.414 44.039 39.414"/><polygon class="cls-77" points="44.355 39.414 47.442 45.095 47.442 45.677 44.039 39.414 44.355 39.414"/><polygon class="cls-77" points="44.671 39.414 47.442 44.513 47.442 45.095 44.355 39.414 44.671 39.414"/><polygon class="cls-78" points="44.987 39.414 47.442 43.931 47.442 44.513 44.671 39.414 44.987 39.414"/><polygon class="cls-79" points="45.303 39.414 47.442 43.349 47.442 43.931 44.987 39.414 45.303 39.414"/><polygon class="cls-80" points="45.62 39.414 47.442 42.767 47.442 43.349 45.303 39.414 45.62 39.414"/><polygon class="cls-81" points="45.936 39.414 47.442 42.186 47.442 42.767 45.62 39.414 45.936 39.414"/><polygon class="cls-82" points="46.252 39.414 47.442 41.604 47.442 42.186 45.936 39.414 46.252 39.414"/><polygon class="cls-83" points="46.568 39.414 47.442 41.022 47.442 41.604 46.252 39.414 46.568 39.414"/><polygon class="cls-84" points="46.884 39.414 47.442 40.44 47.442 41.022 46.568 39.414 46.884 39.414"/><polygon class="cls-85" points="47.2 39.414 47.442 39.858 47.442 40.44 46.884 39.414 47.2 39.414"/><polygon class="cls-86" points="47.442 39.858 47.2 39.414 47.442 39.414 47.442 39.858"/></g></g><g class="cls-87"><g class="cls-88"><rect class="cls-85" x="36.6964" y="37.6997" width="0.0587" height="0.0612"/><rect class="cls-84" x="36.7551" y="37.6997" width="0.1118" height="0.0612"/></g><g class="cls-89"><rect class="cls-90" x="28.1472" y="39.3525" width="1.0488" height="21.9558"/><rect class="cls-90" x="29.1959" y="39.3525" width="0.4488" height="21.9558"/><rect class="cls-91" x="29.6447" y="39.3525" width="0.4488" height="21.9558"/><rect class="cls-92" x="30.0935" y="39.3525" width="0.4488" height="21.9558"/><rect class="cls-93" x="30.5423" y="39.3525" width="0.4488" height="21.9558"/><rect class="cls-94" x="30.9911" y="39.3525" width="0.4488" height="21.9558"/><rect class="cls-95" x="31.4399" y="39.3525" width="0.4488" height="21.9558"/><rect class="cls-96" x="31.8887" y="39.3525" width="0.4488" height="21.9558"/><rect class="cls-97" x="32.3375" y="39.3525" width="0.4488" height="21.9558"/><rect class="cls-98" x="32.7863" y="39.3525" width="0.4488" height="21.9558"/><rect class="cls-98" x="33.2351" y="39.3525" width="0.208" height="21.9558"/><rect class="cls-99" x="33.443" y="39.3525" width="0.208" height="21.9558"/><rect class="cls-100" x="33.651" y="39.3525" width="0.208" height="21.9558"/><rect class="cls-101" x="33.859" y="39.3525" width="0.208" height="21.9558"/><rect class="cls-102" x="34.0669" y="39.3525" width="0.208" height="21.9558"/><rect class="cls-103" x="34.2749" y="39.3525" width="0.208" height="21.9558"/><rect class="cls-104" x="34.4828" y="39.3525" width="0.208" height="21.9558"/><rect class="cls-105" x="34.6908" y="39.3525" width="0.208" height="21.9558"/><rect class="cls-106" x="34.8987" y="39.3525" width="0.208" height="21.9558"/><rect class="cls-107" x="35.1067" y="39.3525" width="0.208" height="21.9558"/><rect class="cls-108" x="35.3147" y="39.3525" width="0.208" height="21.9558"/><rect class="cls-109" x="35.5226" y="39.3525" width="0.208" height="21.9558"/><rect class="cls-110" x="35.7306" y="39.3525" width="0.208" height="21.9558"/><rect class="cls-111" x="35.9385" y="39.3525" width="0.208" height="21.9558"/><rect class="cls-112" x="36.1465" y="39.3525" width="0.208" height="21.9558"/><rect class="cls-86" x="36.3544" y="39.3525" width="0.208" height="21.9558"/><rect class="cls-85" x="36.5624" y="39.3525" width="0.208" height="21.9558"/><rect class="cls-84" x="36.7704" y="39.3525" width="0.208" height="21.9558"/><rect class="cls-83" x="36.9783" y="39.3525" width="0.208" height="21.9558"/><rect class="cls-82" x="37.1863" y="39.3525" width="0.208" height="21.9558"/><rect class="cls-81" x="37.3942" y="39.3525" width="0.208" height="21.9558"/><rect class="cls-80" x="37.6022" y="39.3525" width="0.208" height="21.9558"/><rect class="cls-79" x="37.8102" y="39.3525" width="0.208" height="21.9558"/><rect class="cls-78" x="38.0181" y="39.3525" width="0.208" height="21.9558"/><rect class="cls-77" x="38.2261" y="39.3525" width="0.208" height="21.9558"/><rect class="cls-77" x="38.434" y="39.3525" width="0.208" height="21.9558"/><rect class="cls-76" x="38.642" y="39.3525" width="0.208" height="21.9558"/><rect class="cls-75" x="38.8499" y="39.3525" width="0.208" height="21.9558"/><rect class="cls-75" x="39.0579" y="39.3525" width="0.208" height="21.9558"/><rect class="cls-74" x="39.2659" y="39.3525" width="0.208" height="21.9558"/><rect class="cls-73" x="39.4738" y="39.3525" width="0.208" height="21.9558"/><rect class="cls-73" x="39.6818" y="39.3525" width="0.2043" height="21.9558"/><rect class="cls-72" x="39.8861" y="39.3525" width="0.2043" height="21.9558"/><rect class="cls-3" x="40.0904" y="39.3525" width="0.2043" height="21.9558"/><rect class="cls-71" x="40.2947" y="39.3525" width="0.2043" height="21.9558"/><rect class="cls-70" x="40.499" y="39.3525" width="0.2043" height="21.9558"/><rect class="cls-69" x="40.7033" y="39.3525" width="0.2043" height="21.9558"/><rect class="cls-68" x="40.9076" y="39.3525" width="0.2043" height="21.9558"/><rect class="cls-67" x="41.1119" y="39.3525" width="0.2043" height="21.9558"/><rect class="cls-66" x="41.3162" y="39.3525" width="0.2043" height="21.9558"/><rect class="cls-65" x="41.5205" y="39.3525" width="0.2043" height="21.9558"/><rect class="cls-64" x="41.7248" y="39.3525" width="0.2043" height="21.9558"/><rect class="cls-63" x="41.9291" y="39.3525" width="0.2043" height="21.9558"/><rect class="cls-62" x="42.1334" y="39.3525" width="0.2043" height="21.9558"/><rect class="cls-61" x="42.3377" y="39.3525" width="0.2043" height="21.9558"/><rect class="cls-60" x="42.542" y="39.3525" width="0.2043" height="21.9558"/><rect class="cls-59" x="42.7463" y="39.3525" width="0.2043" height="21.9558"/><rect class="cls-59" x="42.9506" y="39.3525" width="0.2043" height="21.9558"/><rect class="cls-58" x="43.155" y="39.3525" width="0.2043" height="21.9558"/><rect class="cls-57" x="43.3593" y="39.3525" width="0.2043" height="21.9558"/><rect class="cls-56" x="43.5636" y="39.3525" width="0.2043" height="21.9558"/><rect class="cls-55" x="43.7679" y="39.3525" width="0.2043" height="21.9558"/><rect class="cls-54" x="43.9722" y="39.3525" width="0.2043" height="21.9558"/><rect class="cls-53" x="44.1765" y="39.3525" width="0.2043" height="21.9558"/><rect class="cls-52" x="44.3808" y="39.3525" width="0.2043" height="21.9558"/><rect class="cls-51" x="44.5851" y="39.3525" width="0.2043" height="21.9558"/><rect class="cls-50" x="44.7894" y="39.3525" width="0.2043" height="21.9558"/><rect class="cls-6" x="44.9937" y="39.3525" width="0.2043" height="21.9558"/><rect class="cls-6" x="45.198" y="39.3525" width="2.5634" height="21.9558"/></g><g class="cls-113"><rect class="cls-6" x="47.9959" y="55.9417" width="0.064" height="0.1428"/></g><g class="cls-114"><rect class="cls-79" x="37.8264" y="55.5336" width="0.1911" height="6.0603"/><rect class="cls-78" x="38.0174" y="55.5336" width="0.208" height="6.0603"/><rect class="cls-77" x="38.2254" y="55.5336" width="0.208" height="6.0603"/><rect class="cls-77" x="38.4333" y="55.5336" width="0.208" height="6.0603"/><rect class="cls-76" x="38.6413" y="55.5336" width="0.208" height="6.0603"/><rect class="cls-75" x="38.8493" y="55.5336" width="0.208" height="6.0603"/><rect class="cls-75" x="39.0572" y="55.5336" width="0.208" height="6.0603"/><rect class="cls-74" x="39.2652" y="55.5336" width="0.208" height="6.0603"/><rect class="cls-73" x="39.4731" y="55.5336" width="0.208" height="6.0603"/><rect class="cls-73" x="39.6811" y="55.5336" width="0.2043" height="6.0603"/><rect class="cls-72" x="39.8854" y="55.5336" width="0.2043" height="6.0603"/><rect class="cls-3" x="40.0897" y="55.5336" width="0.2043" height="6.0603"/><rect class="cls-71" x="40.294" y="55.5336" width="0.2043" height="6.0603"/><rect class="cls-70" x="40.4983" y="55.5336" width="0.2043" height="6.0603"/><rect class="cls-69" x="40.7026" y="55.5336" width="0.2043" height="6.0603"/><rect class="cls-68" x="40.907" y="55.5336" width="0.2043" height="6.0603"/><rect class="cls-67" x="41.1113" y="55.5336" width="0.2043" height="6.0603"/><rect class="cls-66" x="41.3156" y="55.5336" width="0.2043" height="6.0603"/><rect class="cls-65" x="41.5199" y="55.5336" width="0.2043" height="6.0603"/><rect class="cls-64" x="41.7242" y="55.5336" width="0.2043" height="6.0603"/><rect class="cls-63" x="41.9285" y="55.5336" width="0.2043" height="6.0603"/><rect class="cls-62" x="42.1328" y="55.5336" width="0.2043" height="6.0603"/><rect class="cls-61" x="42.3371" y="55.5336" width="0.2043" height="6.0603"/><rect class="cls-60" x="42.5414" y="55.5336" width="0.2043" height="6.0603"/><rect class="cls-59" x="42.7457" y="55.5336" width="0.2043" height="6.0603"/><rect class="cls-59" x="42.95" y="55.5336" width="0.2043" height="6.0603"/><rect class="cls-58" x="43.1543" y="55.5336" width="0.2043" height="6.0603"/><rect class="cls-57" x="43.3586" y="55.5336" width="0.2043" height="6.0603"/><rect class="cls-56" x="43.5629" y="55.5336" width="0.2043" height="6.0603"/><rect class="cls-55" x="43.7673" y="55.5336" width="0.2043" height="6.0603"/><rect class="cls-54" x="43.9716" y="55.5336" width="0.2043" height="6.0603"/><rect class="cls-53" x="44.1759" y="55.5336" width="0.2043" height="6.0603"/><rect class="cls-52" x="44.3802" y="55.5336" width="0.2043" height="6.0603"/><rect class="cls-51" x="44.5845" y="55.5336" width="0.2043" height="6.0603"/><rect class="cls-50" x="44.7888" y="55.5336" width="0.2043" height="6.0603"/><rect class="cls-6" x="44.9931" y="55.5336" width="0.2043" height="6.0603"/><rect class="cls-6" x="45.1974" y="55.5336" width="2.7772" height="6.0603"/></g><g class="cls-114"><polygon class="cls-15" points="47.975 55.682 47.197 55.534 47.975 55.534 47.975 55.682"/><polygon class="cls-16" points="47.975 56.333 43.785 55.534 47.197 55.534 47.975 55.682 47.975 56.333"/><polygon class="cls-17" points="47.975 56.984 40.373 55.534 43.785 55.534 47.975 56.333 47.975 56.984"/><polygon class="cls-18" points="47.975 57.635 37.826 55.699 37.826 55.534 40.373 55.534 47.975 56.984 47.975 57.635"/><polygon class="cls-19" points="47.975 58.287 37.826 56.35 37.826 55.699 47.975 57.635 47.975 58.287"/><polygon class="cls-20" points="47.975 58.938 37.826 57.001 37.826 56.35 47.975 58.287 47.975 58.938"/><polygon class="cls-21" points="47.975 59.589 37.826 57.652 37.826 57.001 47.975 58.938 47.975 59.589"/><polygon class="cls-21" points="47.975 59.882 37.826 57.945 37.826 57.652 47.975 59.589 47.975 59.882"/><polygon class="cls-22" points="47.975 60.174 37.826 58.238 37.826 57.945 47.975 59.882 47.975 60.174"/><polygon class="cls-23" points="47.975 60.467 37.826 58.53 37.826 58.238 47.975 60.174 47.975 60.467"/><polygon class="cls-23" points="47.975 60.76 37.826 58.823 37.826 58.53 47.975 60.467 47.975 60.76"/><polygon class="cls-24" points="47.975 61.053 37.826 59.116 37.826 58.823 47.975 60.76 47.975 61.053"/><polygon class="cls-25" points="47.975 61.345 37.826 59.409 37.826 59.116 47.975 61.053 47.975 61.345"/><polygon class="cls-25" points="47.743 61.594 37.826 59.701 37.826 59.409 47.975 61.345 47.975 61.594 47.743 61.594"/><polygon class="cls-26" points="46.209 61.594 37.826 59.994 37.826 59.701 47.743 61.594 46.209 61.594"/><polygon class="cls-27" points="44.675 61.594 37.826 60.287 37.826 59.994 46.209 61.594 44.675 61.594"/><polygon class="cls-28" points="43.141 61.594 37.826 60.58 37.826 60.287 44.675 61.594 43.141 61.594"/><polygon class="cls-29" points="41.607 61.594 37.826 60.872 37.826 60.58 43.141 61.594 41.607 61.594"/><polygon class="cls-30" points="40.073 61.594 37.826 61.165 37.826 60.872 41.607 61.594 40.073 61.594"/><polygon class="cls-30" points="38.539 61.594 37.826 61.458 37.826 61.165 40.073 61.594 38.539 61.594"/><polygon class="cls-31" points="37.826 61.458 38.539 61.594 37.826 61.594 37.826 61.458"/></g></g></svg>