<?xml version="1.0" encoding="utf-8"?>
<!-- Generator: Adobe Illustrator 22.0.1, SVG Export Plug-In . SVG Version: 6.00 Build 0)  -->
<svg version="1.1" id="Layer_1" xmlns="http://www.w3.org/2000/svg" xmlns:xlink="http://www.w3.org/1999/xlink" x="0px" y="0px"
	 viewBox="0 0 2424 2500" style="enable-background:new 0 0 2424 2500;" xml:space="preserve">
<style type="text/css">
	.st0{fill:#336791;}
	.st1{fill:#FFFFFF;}
	.st2{display:none;}
	.st3{display:inline;fill:#F7F5F6;}
	.st4{fill:#F7F5F6;}
	.st5{display:inline;fill:#FFFFFF;}
</style>
<path d="M2224.1,1123c-12.5-32.5-45.3-55.3-87.7-60.7c-20-2.6-42.9-1.5-70,3.3c-47.2,8.4-82.2,11.6-107.8,12.2
	c96.5-140.1,174.9-299.8,220.1-450.2c73-243.1,34-353.9-11.6-404C2046.5,91,1870.4,19.8,1658,17.6c-113.3-1.2-212.8,18.1-264.7,31.8
	c-48.3-7.3-100.3-11.4-154.8-12.2C1136.3,35.9,1046,55,968.9,94.4c-42.7-12.4-111.3-30-190.4-41.1c-186.2-26.3-336.3-5.8-446,60.9
	C199.6,194.9,138,335.2,149.4,531c3.6,62.2,44.1,251.5,107.8,430.9c36.6,103.1,75.7,188.8,116.1,254.7
	c57.3,93.3,118.6,148.3,187.4,168c38.6,11.1,108.6,18.8,182.3-33.9c9.3,9.7,21.8,19.4,38.3,28.4c21,11.4,46.7,20.7,72.3,26.3
	c92.4,19.9,179,14.9,252.9-13c0.5,11.3,0.8,22.1,1.1,31.4c0.5,15.1,1,30,1.6,43.8c4.4,93.7,11.8,166.6,33.8,217.6
	c1.2,2.8,2.8,7.1,4.5,11.6c11,28.9,29.3,77.2,75.9,115c48.3,39.2,106.7,51.2,160.2,51.2c26.8,0,52.4-3,74.9-7.2
	c80-14.8,171-37.2,236.7-117.7c62.2-76.1,92.4-190.8,97.9-371.4c0.7-5.1,1.4-10,2-14.7l1.3-9.6l14.6,1.1l3.8,0.2
	c81.5,3.2,181.2-11.7,242.5-36.1C2105.6,1288.4,2260.6,1218,2224.1,1123"/>
<path class="st0" d="M2084.7,1141.4c-242.4,43-259.1-27.6-259.1-27.6c256-326.6,363-741.1,270.6-842.5
	c-251.9-276.8-687.9-146-695.2-142.6l-2.3,0.4c-47.9-8.6-101.5-13.7-161.7-14.5c-109.7-1.5-192.9,24.8-256,65.9
	c0,0-777.9-275.5-741.7,346.5C247,659.5,459.9,1528.5,713.9,1266c92.8-95.9,182.5-177.1,182.5-177.1c44.5,25.5,97.9,38.4,153.8,33.7
	l4.3-3.2c-1.4,11.9-0.7,23.6,1.7,37.3c-65.4,62.9-46.2,73.9-177,97c-132.3,23.5-54.6,65.2-3.8,76.1c61.5,13.2,203.9,31.9,300.1-83.9
	l-3.8,13.2c25.6,17.7,43.6,114.8,40.6,203c-3,88.1-5,148.6,15.2,195.8s40.3,153.5,212.3,121.9c143.7-26.5,218.1-95,228.5-209.5
	c7.3-81.4,24-69.3,25-142.1l13.3-34.4c15.4-110.3,2.4-145.9,90.9-129.3l21.5,1.6c65.1,2.5,150.4-9,200.4-29.1
	C2127.1,1194.3,2191,1122.6,2084.7,1141.4L2084.7,1141.4"/>
<path class="st1" d="M1026.4,586.4c-21.8-2.6-41.6-0.2-51.6,6.3c-5.6,3.7-7.4,7.9-7.8,10.9c-1.3,7.8,5.1,16.3,8.9,20.8
	c11,12.5,27,21.1,42.9,23c2.3,0.3,4.6,0.4,6.9,0.4c26.5,0,50.5-17.7,52.6-30.7C1080.9,600.5,1053.2,589.6,1026.4,586.4
	 M1750.1,586.9c-2.1-12.9-28.6-16.5-53.8-13.5c-25.2,3-49.6,12.8-47.5,25.7c1.6,10,22.6,27.1,47.5,27.1c2.1,0,4.2-0.1,6.4-0.4
	c16.6-2,28.8-11.1,34.6-16.3C1746,601.5,1751.1,592.6,1750.1,586.9"/>
<path class="st1" d="M2165.4,1136.5c-9.2-24.1-39-31.7-88.4-23c-146.8,26.1-199.3,8-216.6-2.9c114.1-149.5,207.9-330.1,258.6-498.6
	c24-79.9,37.2-153.9,38.3-214.4c1.2-66.3-11.9-115.1-39-144.9c-109.3-120-269.7-184.4-463.8-186.2c-133.4-1.3-246.2,28.1-268,36.3
	c-46-9.9-96.2-15.9-150.8-16.7c-100.2-1.4-186.8,19.3-258.4,61.3c-31.1-10-111.6-33.7-210-47.3C597.2,76.7,462,94.6,365.5,153.4
	c-115.1,70.1-168.3,195.5-158,372.6c3.5,59.6,43,242.9,105.3,418.4c82,231,171.2,361.8,265,388.8c11,3.2,23.6,5.4,37.6,5.4
	c34.2,0,76.2-13.3,119.8-58.4c53.2-54.9,108.3-108.5,165.2-160.7c36.9,17,77.4,26.6,118.8,27.5c0.1,0.9,0.2,1.9,0.3,2.8
	c-7.1,7.3-14.1,14.8-20.9,22.3c-28.7,31.3-34.7,37.8-127.1,54.2c-26.3,4.7-96.1,17.1-97.1,59.1c-1.1,46,82.5,65.3,92.1,67.3
	c33.2,7.2,65.2,10.7,95.7,10.7c74.2,0,139.5-21,191.7-61.5c-1.6,163.9,6.3,325.5,29.2,374.7c18.7,40.3,64.5,138.8,209.2,138.8
	c21.2,0,44.6-2.1,70.3-6.9c151-27.9,216.5-85.2,241.9-211.6c13.6-67.6,36.9-229,47.8-315.6c23.1,6.2,52.9,9.1,85.1,9
	c67.1,0,144.5-12.3,193.1-31.6C2084.8,1236.5,2183.2,1183,2165.4,1136.5L2165.4,1136.5z M1805.9,551.4c-0.5,25.6-4.6,48.7-8.9,73
	c-4.7,26.1-9.5,53-10.7,85.7c-1.2,31.8,3.4,64.9,7.9,96.9c9,64.6,18.3,131.2-17.6,196.8c-6-9.1-11.3-18.5-15.9-28.1
	c-4.5-9.3-14.1-24.3-27.6-44.9c-52.2-80.5-174.3-268.8-111.8-345.6C1639.9,562.3,1687.2,538.8,1805.9,551.4L1805.9,551.4z
	 M1662,118.4c173.9,3.3,311.5,59.2,408.9,166.2c74.7,82.1-7.6,455.5-245.7,777.8c-2.4-2.6-4.8-5.2-7.2-7.8l-3-3.2
	c61.5-87.4,49.5-173.8,38.8-250.5c-4.4-31.4-8.6-61.2-7.5-89.1c1.1-29.6,5.6-54.9,10-79.5c5.4-30.2,10.9-61.5,9.4-98.3
	c1.1-3.9,1.6-8.5,1-13.9c-3.9-35.3-50.8-141.2-146.5-237c-52.3-52.4-128.7-111-232.9-150.6C1532.1,124.5,1593.4,117.1,1662,118.4
	L1662,118.4z M688.9,1247c-48.1,49.7-81.3,40.2-92.2,37c-71.2-20.4-153.7-149.8-226.5-354.8c-63-177.4-99.8-355.9-102.7-405.9
	c-9.2-158.2,35.4-268.6,132.6-327.8c158.2-96.4,418.2-38.7,522.7-9.5c-1.5,1.3-3.1,2.5-4.5,3.8c-171.5,148.9-167.4,403.3-167,418.8
	c0,6,0.6,14.5,1.4,26.2c3,42.8,8.4,122.4-6.2,212.6c-13.6,83.8,16.4,165.8,82.4,225c6.8,6.1,13.9,11.9,21.3,17.3
	C820.7,1116.9,756.9,1176.7,688.9,1247L688.9,1247z M872.2,1036.7C819,989,794.8,922.6,805.9,854.6c15.5-95.2,9.8-178.2,6.7-222.8
	c-0.4-6.2-0.8-11.7-1-16c25-19.1,141.1-72.6,223.9-56.3c37.8,7.4,60.8,29.6,70.4,67.6c49.5,197,6.6,279-28,345
	c-7.1,13.6-13.8,26.5-19.6,39.7l-4.5,10.3c-11.3,26-21.7,50.1-28.2,73.1C969,1095,914,1074.2,872.2,1036.7L872.2,1036.7z
	 M880.8,1302.4c-16.5-3.6-31.4-9.7-40.1-14.8c7.3-2.9,20.2-7,42.7-11c108.7-19.3,125.5-32.8,162.2-72.9c8.4-9.2,17.9-19.6,31.1-32.2
	l0,0c19.7-19,28.6-15.7,44.9-9.9c13.2,4.7,26.1,19,31.3,34.6c2.5,7.4,5.2,21.5-3.8,32.3C1072.6,1320.8,961,1319.6,880.8,1302.4z
	 M1449.8,1757.6c-133,24.5-180.1-33.8-211.1-100.5c-20-43-29.9-237.2-22.9-451.7c0.1-2.9-0.4-5.6-1.3-8.2
	c-0.8-5.1-2.1-10.2-3.7-15.2c-10.4-31.2-35.7-57.3-66.1-68.1c-12.1-4.3-34.2-12.2-60.8-6.3c5.7-20.1,15.5-42.8,26.2-67.4l4.5-10.4
	c5-11.7,11.4-23.8,18-36.5c36.1-69,85.6-163.5,31.9-377.2c-20.1-80-87.3-119.1-189.1-110c-61.1,5.4-116.9,26.7-144.8,38.7
	c-6,2.6-11.5,5.1-16.6,7.6c7.8-80.6,37.2-231.2,147.1-326.6c69.2-60,161.4-89.7,273.6-88.1c221.2,3.1,363.1,100.7,443.2,182.1
	c69,70.1,106.4,140.7,121.3,178.8c-112.1-9.8-188.4,9.2-227,56.7c-84.1,103.3,46,304,108.5,400.4c11.5,17.7,21.4,32.9,24.5,39.4
	c20.4,42.4,46.7,70.8,66,91.4c5.9,6.3,11.6,12.5,16,17.9c-34,8.4-95,27.9-89.4,125.1c-4.5,48.8-36.4,277.1-52.6,357.9
	C1623.7,1694.3,1578.1,1734,1449.8,1757.6L1449.8,1757.6z M2005,1211.4c-34.7,13.9-92.8,24.3-148,26.5c-61,2.5-92-5.9-99.3-11
	c-3.4-60.6,22.8-66.9,50.6-73.6c4.4-1.1,8.6-2.1,12.7-3.3c2.6,1.8,5.3,3.6,8.4,5.3c49,27.9,136.4,30.8,259.8,8.9l1.4-0.2
	C2073.8,1177.3,2045.3,1195.2,2005,1211.4L2005,1211.4z"/>
<g>
	<g>
		<g class="st2">
			<path class="st3" d="M289.5,2321.3c-11,0-20-9-20-20v-319c0-9.5,6.6-17.6,15.9-19.6l31.8-6.6c22-4.6,48.1-6.8,79.7-6.8
				c42.3,0,76.4,12.4,101.5,36.9c25.8,24.8,40.7,63,40.7,104.7c0,39.7-11.4,75-32.2,99.5c-17.6,20.9-39.9,35.3-66.4,42.7v68.3
				c0,11-9,20-20,20H289.5z"/>
			<path class="st3" d="M595.2,2325.8c-48.3,0-90.8-21.7-119.8-61c-24.7-33.5-37.7-77.1-37.7-126.1c0-50.9,13.8-96.1,39.9-130.6
				c29.7-39.3,72.6-61,120.9-61c48.9,0,91.9,21.5,121,60.6c24.9,33.4,38.1,77.5,38.1,127.3c0,54.1-15.4,101.1-44.4,136
				C683.7,2306.3,641.8,2325.8,595.2,2325.8z"/>
			<path class="st3" d="M780.3,2325.8c-39.8,0-74.7-14.3-94-27.8l-21.2-14.8c-6.5-4.5-9.7-12.4-8.3-20.1l20.7-111.2
				c-10.4-19.6-15.7-41.9-15.7-66.3c0-38.6,13.9-73.8,39.1-99.2c25.3-25.4,60.3-39.4,98.7-39.4c32.6,0,59.9,7,86.1,22.1l25.3,14.5
				c7.5,4.3,11.4,13,9.6,21.5l-21.2,99.1c15.8,22.6,23.8,49.8,23.8,81.1c0,37-12.4,71.1-34.9,96.1
				C870.2,2301.7,836.6,2325.8,780.3,2325.8z"/>
			<path class="st3" d="M893.5,2321.3c-11,0-20-9-20-20v-172.8h-31.9c-11,0-20-9-20-20v-137.1c0-11,9-20,20-20h236.5
				c11,0,20,9,20,20v137.1c0,11-9,20-20,20h-33v172.8c0,11-9,20-20,20H893.5z"/>
			<path class="st3" d="M1157.7,2323.9c-57.7,0-102.6-20.1-133.4-59.8c-25.8-32.9-39.4-75.5-39.4-123.2
				c0-56.6,17.2-104.8,49.7-139.4c31.8-33.9,76.7-52.5,126.4-52.5c36.2,0,70.2,8.5,93.1,23.3l22.9,14.7c6.9,4.4,10.4,12.7,8.8,20.7
				l-9.1,45.5c7.2,3,12.3,10.1,12.3,18.5V2274c0,7.9-4.7,15.1-11.9,18.3l-23.7,10.6C1242.2,2307.8,1202.4,2323.9,1157.7,2323.9z"/>
			<path class="st3" d="M1221.5,2321.3c-11,0-20-9-20-20v-319.1c0-9.5,6.7-17.7,16-19.6l32-6.6c12.4-2.5,38.8-6.8,77-6.8
				c29.8,0,73.4,3.8,107.2,36.5c0,0,0.3,0.3,0.3,0.3c16.9,16.6,37.1,47,37.1,97.7c0,24.1-6,47.1-17.5,67.1c3.4,9.2,5.7,17.7,7.3,24
				c0,0,0.1,0.3,0.1,0.3c3.1,12.5,6,26.9,8.7,39.7c1.5,7.5,4.7,22.7,5.8,26.6l19.5,53c2.3,6.1,1.4,13-2.4,18.4s-9.9,8.6-16.4,8.6
				H1221.5z"/>
			<path class="st3" d="M1400.9,2321.3c-11,0-20-9-20-20v-329.8c0-11,9-20,20-20H1612c11,0,20,9,20,20v136.3c0,4.9-1.7,9.3-4.6,12.8
				v27.8c5.3,3.6,8.7,9.7,8.7,16.5v136.3c0,11-9,20-20,20H1400.9z"/>
			<path class="st3" d="M1716.7,2325.8c-39.8,0-74.7-14.3-94-27.8l-21.2-14.8c-6.5-4.5-9.7-12.4-8.3-20.1l20.7-111.2
				c-10.4-19.6-15.7-41.9-15.7-66.3c0-38.6,13.9-73.8,39.1-99.2c25.3-25.4,60.3-39.4,98.7-39.4c32.6,0,59.9,7,86.1,22.1l25.3,14.5
				c7.5,4.3,11.4,13,9.6,21.5l-21.2,99.1c15.8,22.6,23.8,49.8,23.8,81.1c0,37-12.4,71.1-34.9,96.1
				C1806.5,2301.7,1773,2325.8,1716.7,2325.8z"/>
			<path class="st3" d="M2032.8,2381c-2.4,0-4.8-0.4-7.1-1.3l-41.9-15.9c-32.5-12.3-56.2-24-82.9-38.5c-0.2,0-0.4,0-0.5-0.1
				c-38-5.1-72.7-25-97.6-56c-26.9-33.4-41.1-78.3-41.1-129.9c0-51.3,13.7-96.7,39.5-131.1c29.7-39.5,72.9-61.2,121.8-61.2
				c48.6,0,91.5,21.6,120.6,60.8c24.8,33.5,38,77.1,38,126.3c0,24.3-3.6,48.2-10.6,70.2l1.2,0.3c5.2,1.2,9.8,4.5,12.6,9.1
				c2.8,4.6,3.6,10.1,2.3,15.3l-34.8,136.8c-1.4,5.5-5.1,10.2-10.2,12.8C2039.1,2380.2,2036,2381,2032.8,2381z"/>
			<path class="st3" d="M2009.3,2321.3c-11,0-20-9-20-20v-329.8c0-11,9-20,20-20h131.6c11,0,20,9,20,20v171.3h59.5c11,0,20,9,20,20
				v138.6c0,11-9,20-20,20H2009.3z"/>
		</g>
		<g>
			<path class="st4" d="M329.5,2281.3c-11,0-20-9-20-20v-246.5c0-9.5,6.6-17.6,15.9-19.6c19.3-4,42.7-6,71.5-6
				c31.5,0,56.3,8.6,73.7,25.6c17.8,17.1,28.5,45.4,28.5,75.9c0,30.3-8.1,56.5-22.7,73.7c-18.1,21.6-43.6,33.1-75.8,34.4v62.4
				c0,11-9,20-20,20H329.5z M400.5,2105.1c5.3-1.7,7.5-6.1,7.5-14c0-3.7-0.7-6.6-2-7.9c-1-1-2.9-1.7-5.6-2V2105.1z"/>
			<path class="st4" d="M595.2,2285.8c-69.2,0-117.5-60.5-117.5-147.1c0-42.1,11-79,31.8-106.5c22-29.1,53.6-45.1,89-45.1
				c36,0,67.6,15.8,88.9,44.5c19.7,26.5,30.2,62.2,30.2,103.4c0,42.1-10.9,78.8-31.5,105.9C664,2269.8,631.7,2285.8,595.2,2285.8z
				 M597.6,2081.1c-14.1,0-25.1,24.4-25.1,55.6c0,31.3,10.9,54.9,25.3,54.9c14.4,0,24.8-23.1,24.8-54.9
				C622.7,2105.6,611.7,2081.1,597.6,2081.1z"/>
			<path class="st4" d="M780.3,2285.8c-28.7,0-56.4-10.4-71.2-20.6c-6.5-4.5-9.7-12.4-8.3-20.1l10.6-57.1
				c1.2-6.6,5.7-12.1,11.9-14.8c2.5-1.1,5.2-1.6,7.8-1.6c3.9,0,7.7,1.1,11.1,3.3c6.4,4.2,23.2,14.1,41.9,14.1c1.6,0,2.9-0.1,4-0.2
				c-2.5-1.6-7.2-4.1-16-7.4c-58-21.9-70.2-64.2-70.2-95.8c0-27.4,9.4-52.3,26.6-70.1c17.9-18.6,42.6-28.5,71.2-28.5
				c25.3,0,46.3,5.3,66.2,16.7c7.5,4.3,11.4,13,9.6,21.5l-11.7,54.9c-1.3,6.2-5.5,11.4-11.3,14c-2.6,1.2-5.5,1.8-8.3,1.8
				c-3.3,0-6.7-0.8-9.7-2.5c-6.2-3.4-17.3-9.5-32.2-10.4c3.9,1.9,8.7,3.9,13.1,5.8l3.1,1.3c43.6,19,64.8,50.1,64.8,95.1
				c0,27.1-8.8,51.7-24.6,69.3C845.9,2268.9,821.9,2285.8,780.3,2285.8z"/>
			<path class="st4" d="M933.5,2281.3c-11,0-20-9-20-20v-172.8h-31.9c-11,0-20-9-20-20v-57.1c0-11,9-20,20-20h156.5c11,0,20,9,20,20
				v57.1c0,11-9,20-20,20h-33v172.8c0,11-9,20-20,20H933.5z"/>
			<path class="st4" d="M1157.7,2283.9c-44.8,0-79-14.9-101.8-44.4c-20-25.5-31-60.5-31-98.7c0-46.2,13.4-85,38.9-112.1
				c24.1-25.7,58.7-39.9,97.2-39.9c28.3,0,55,6.3,71.5,16.9c6.9,4.4,10.4,12.7,8.8,20.7l-10.9,54.9c-0.8,3.9-2.7,7.4-5.4,10.2h4.1
				c11,0,20,9,20,20V2248c0,7.9-4.7,15.1-11.9,18.3C1227.8,2270.4,1194.5,2283.9,1157.7,2283.9z M1159.3,2085.2
				c-25.8,0-40.1,17.5-40.1,49.3c0,32.3,15.3,53.3,39.2,53.8v-3h-8.4c-11,0-20-9-20-20v-53.8c0-11,9-20,20-20h44.2
				C1186.6,2088.1,1176.2,2085.2,1159.3,2085.2z"/>
			<path class="st4" d="M1366.3,2281.3c-8.1,0-15.5-4.9-18.5-12.5c-4.3-10.7-9.6-31.7-15.3-60.6v53.1c0,11-9,20-20,20h-51.1
				c-11,0-20-9-20-20v-246.5c0-9.5,6.7-17.7,16-19.6c10.9-2.2,34.3-6,69-6c36.8,0,61.3,7.8,79.4,25.3c0,0,0.1,0.1,0.1,0.1
				c11.5,11.2,25.1,32.3,25.1,69.2c0,26.2-10.3,48.4-23.8,63c7.4,11.6,11.7,25.6,14.8,37.8c2.9,11.9,5.8,25.9,8.4,38.4
				c2.5,12.3,5.7,27.6,7.1,31.5c2.3,6.1,1.4,13-2.4,18.4c-3.7,5.4-9.9,8.6-16.4,8.6H1366.3z M1332.5,2098.6c7.5-1.2,7.5-5.7,7.5-9.7
				c0-4.5-0.9-6.7-1.5-7.2c-0.5-0.5-2.3-1.3-6-1.3V2098.6z"/>
			<path class="st4" d="M1440.9,2281.3c-11,0-20-9-20-20v-249.8c0-11,9-20,20-20H1572c11,0,20,9,20,20v56.3c0,10-7.3,18.2-16.9,19.8
				c7.2,3,12.2,10.1,12.2,18.4v56.3c0,11-9,20-20,20h-54.8v2.6h63.6c11,0,20,9,20,20v56.3c0,11-9,20-20,20H1440.9z"/>
			<path class="st4" d="M1716.7,2285.8c-28.7,0-56.4-10.4-71.2-20.6c-6.5-4.5-9.7-12.4-8.3-20.1l10.6-57.1
				c1.2-6.6,5.7-12.1,11.9-14.8c2.5-1.1,5.2-1.6,7.8-1.6c3.9,0,7.7,1.1,11.1,3.3c6.4,4.2,23.2,14.1,41.9,14.1c1.6,0,2.9-0.1,4-0.2
				c-2.5-1.6-7.2-4.1-16-7.4c-58-21.9-70.2-64.2-70.2-95.8c0-27.4,9.4-52.3,26.6-70.1c17.9-18.6,42.6-28.5,71.2-28.5
				c25.3,0,46.3,5.3,66.2,16.7c7.5,4.3,11.4,13,9.6,21.5l-11.7,54.9c-1.3,6.2-5.5,11.4-11.3,14c-2.6,1.2-5.5,1.8-8.3,1.8
				c-3.3,0-6.7-0.8-9.7-2.5c-6.2-3.4-17.3-9.5-32.2-10.4c3.9,1.9,8.7,3.9,13.1,5.8l3.1,1.3c43.6,19,64.8,50.1,64.8,95.1
				c0,27.1-8.8,51.7-24.6,69.3C1782.3,2268.9,1758.3,2285.8,1716.7,2285.8z"/>
			<path class="st4" d="M2005,2327.7c-2.4,0-4.8-0.4-7.1-1.3c-32.4-12.3-55.4-23.8-84.1-39.5c-1-0.3-3.7-0.7-5.6-0.9
				c-0.8-0.1-1.7-0.2-2.5-0.3c-27.8-3.7-53.4-18.4-71.9-41.4c-21.1-26.2-32.3-62.5-32.3-104.8c0-42.6,10.9-79.6,31.5-107.1
				c21.9-29.2,53.8-45.2,89.8-45.2c35.7,0,67.1,15.9,88.5,44.7c19.7,26.5,30.1,61.9,30.1,102.5c0,26.9-5.2,52.9-15.1,75.1
				c-3.7,8.3-8,16-12.8,22.9c3.2,0.8,6.4,1.5,9.7,2.3c5.2,1.2,9.8,4.5,12.6,9.1c2.8,4.6,3.6,10.1,2.3,15.3l-13.7,53.8
				c-1.4,5.5-5.1,10.2-10.2,12.8C2011.4,2326.9,2008.2,2327.7,2005,2327.7z M1921.5,2081.1c-14.1,0-25.1,24.4-25.1,55.6
				c0,31.3,10.8,54.9,25.1,54.9c16.5,0,25.1-27.6,25.1-54.9C1946.5,2105.6,1935.5,2081.1,1921.5,2081.1z"/>
			<path class="st4" d="M2049.3,2281.3c-11,0-20-9-20-20v-249.8c0-11,9-20,20-20h51.6c11,0,20,9,20,20v171.3h59.5c11,0,20,9,20,20
				v58.6c0,11-9,20-20,20H2049.3z"/>
		</g>
	</g>
	<g>
		<g class="st2">
			<path class="st5" d="M289.5,2301.3v-319l31.8-6.6c20.6-4.3,45.4-6.4,75.6-6.4c36.9,0,66.4,10.5,87.6,31.3
				c22,21.1,34.6,54,34.6,90.3c0,35-9.8,65.7-27.5,86.6c-18.1,21.5-41.9,34.8-71.1,39.6v84.3H289.5z M388,2092.5
				C388,2092.5,388,2092.5,388,2092.5z"/>
			<path class="st5" d="M595.2,2305.8c-41.7,0-78.6-18.8-103.7-52.9c-22.1-30-33.8-69.5-33.8-114.3c0-46.5,12.4-87.5,35.8-118.5
				c25.8-34.2,63.1-53,104.9-53c42.4,0,79.7,18.6,105,52.5c22.3,30,34.1,69.9,34.1,115.4C737.6,2235.5,679,2305.8,595.2,2305.8z
				 M597.6,2106.4c-2.5,6.1-5.1,16.3-5.1,30.4c0,14.3,2.6,24.5,5.2,30.4c2.3-5.6,4.9-15.3,4.9-30.4
				C602.7,2122.7,600.2,2112.5,597.6,2106.4z"/>
			<path class="st5" d="M780.3,2305.8c-35.3,0-66.5-13-82.6-24.2l-21.2-14.8l22.1-118.4c-11.1-18.1-16.7-39.1-16.7-62.8
				c0-68.7,49.6-118.6,117.8-118.6c28.9,0,53.1,6.2,76.2,19.4l25.3,14.5l-23.1,108c16.8,20.4,25.3,45.9,25.3,76.3
				c0,32-10.6,61.4-29.8,82.7C858,2285.3,829.3,2305.8,780.3,2305.8z M785.4,2169L785.4,2169z"/>
			<polygon class="st5" points="893.5,2301.3 893.5,2108.6 841.6,2108.6 841.6,1971.5 1078.1,1971.5 1078.1,2108.6 1025.1,2108.6 
				1025.1,2301.3 			"/>
			<path class="st5" d="M1157.7,2303.9c-51.3,0-90.8-17.5-117.6-52.1c-23-29.4-35.2-67.7-35.2-110.9c0-51.4,15.3-94.9,44.3-125.7
				c28-29.8,67.7-46.2,111.8-46.2c32.5,0,62.5,7.3,82.3,20.1l22.9,14.7l-13.5,67.8h16.3V2274l-23.7,10.6
				C1235,2289.1,1198.5,2303.9,1157.7,2303.9z"/>
			<path class="st5" d="M1221.5,2301.3v-319.1l32-6.6c11.6-2.4,36.6-6.4,73-6.4c26.3,0,64.7,3.2,93.3,30.9l0.2,0.2
				c14.2,13.9,31.1,39.7,31.1,83.5c0,26.1-8.2,48.3-20,65.2c4.7,10.3,7.9,21,10.3,30.8l0,0.2c3,12.2,5.9,26.4,8.5,39
				c2.2,10.5,5.1,24.9,6.4,28.8l19.7,53.6H1221.5z"/>
			<polygon class="st5" points="1400.9,2301.3 1400.9,1971.5 1612,1971.5 1612,2107.8 1607.3,2107.8 1607.3,2165 1616,2165 
				1616,2301.3 			"/>
			<path class="st5" d="M1716.7,2305.8c-35.3,0-66.5-13-82.6-24.2l-21.2-14.8l22.1-118.4c-11.1-18.1-16.7-39.1-16.7-62.8
				c0-68.7,49.6-118.6,117.8-118.6c28.9,0,53.1,6.2,76.2,19.4l25.3,14.5l-23.1,108c16.8,20.4,25.3,45.9,25.3,76.3
				c0,32-10.6,61.4-29.8,82.7C1794.4,2285.3,1765.6,2305.8,1716.7,2305.8z"/>
			<path class="st5" d="M1990.9,2345.1c-32.4-12.3-55.6-23.8-83.8-39.1c-0.5-0.1-1-0.1-1.4-0.2c-0.9-0.1-1.8-0.2-2.7-0.3
				c-32.9-4.4-63-21.7-84.8-48.7c-24-29.8-36.7-70.4-36.7-117.3c0-47,12.3-88.2,35.5-119.1c25.8-34.3,63.4-53.2,105.8-53.2
				c42.2,0,79.3,18.7,104.5,52.8c22.3,30,34,69.5,34,114.4c0,30.6-6.3,59.9-17.4,84.5l23.5,5.4l-34.8,136.8L1990.9,2345.1z
				 M1921.5,2106.4c-2.5,6.1-5.1,16.3-5.1,30.4c0,14.3,2.6,24.5,5.2,30.4c2.4-5.5,4.9-15.3,4.9-30.4
				C1926.5,2122.7,1924,2112.5,1921.5,2106.4z"/>
			<polygon class="st5" points="2009.3,2301.3 2009.3,1971.5 2140.9,1971.5 2140.9,2162.8 2220.4,2162.8 2220.4,2301.3 			"/>
		</g>
		<g>
			<path d="M329.5,2014.8c14.2-3,35-5.6,67.4-5.6c27.6,0,47,7.4,59.8,20c12.8,12.2,22.4,34.5,22.4,61.5c0,24.1-6,46.7-18,60.8
				c-15.8,18.9-38.2,27.4-66.6,27.4c-5.7,0-10.6-0.7-13.9-1.1v83.4h-51.1V2014.8z M380.5,2124.9c3,0.7,6.8,1.1,13.4,1.1
				c19.9,0,34.1-12.2,34.1-34.8c0-18.2-10.1-30-30.6-30c-8.7,0-14.2,0.7-16.9,1.5V2124.9z"/>
			<path d="M697.6,2134.9c0,75.6-39,130.9-102.4,130.9c-60.6,0-97.5-55.2-97.5-127.1c0-76.4,40.4-131.6,100.8-131.6
				C660.7,2007,697.6,2061.5,697.6,2134.9z M552.6,2136.8c0,43,17.5,74.9,45.3,74.9c28.1,0,44.8-31.9,44.8-74.9
				c0-43-17.5-75.6-45.1-75.6S552.6,2093.8,552.6,2136.8z"/>
			<path d="M731.2,2191.6c12.3,8.2,31.9,17.4,53,17.4c17.2,0,25.9-7.4,25.9-20c0-10.8-8.5-17.8-30.9-26.3
				c-31.4-11.9-57.3-33.7-57.3-77.1c0-45.2,30-78.6,77.8-78.6c25.1,0,42.1,5.9,56.3,14.1l-11.7,54.9c-8.7-4.8-24.3-13-45.3-13
				c-15.3,0-24,6.7-24,17.4c0,13.3,11.7,17.8,35.8,28.2c35.8,15.6,52.7,38.9,52.7,76.7c0,41.9-24.3,80.4-83,80.4
				c-24.3,0-48.1-8.9-59.8-17.1L731.2,2191.6z"/>
			<path d="M933.5,2068.6h-51.9v-57.1h156.5v57.1h-53v192.8h-51.6V2068.6z"/>
			<path d="M1229,2248c-15.8,7-44,15.9-71.3,15.9c-40.4,0-68-13.3-86-36.7c-17.5-22.2-26.8-52.6-26.8-86.4
				c0-86.4,50.5-132,116.1-132c28.1,0,49.7,6.7,60.6,13.7l-10.9,54.9c-12-6.7-26.2-12.2-51.3-12.2c-32.2,0-60.1,21.5-60.1,69.3
				c0,44.5,24.6,73.8,60.1,73.8c8.5,0,16.4-1.1,19.1-2.6v-40.4h-28.4v-53.8h78.9V2248z"/>
			<path d="M1261.5,2014.8c14.5-3,37.1-5.6,65-5.6c30.9,0,51.3,5.9,65.5,19.6c11.7,11.5,19.1,29.7,19.1,54.9
				c0,33.4-19.9,54.5-32.8,60.1v1.5c12.3,7,19.1,23.4,24.3,44.1c6.3,25.6,12.6,62.3,16.1,71.9h-52.4c-3-7.4-7.9-24.8-14.2-57.1
				c-5.7-30-13.1-36-30.3-36h-9.3v93h-51.1V2014.8z M1312.5,2119h15.3c20.2,0,32.2-11.1,32.2-30s-10.4-28.5-27.9-28.5
				c-11.5,0-16.9,0.7-19.7,1.5V2119z"/>
			<path d="M1567.3,2162.3h-74.8v42.6h83.6v56.3h-135.2v-249.8H1572v56.3h-79.5v38.2h74.8V2162.3z"/>
			<path d="M1667.5,2191.6c12.3,8.2,31.9,17.4,53,17.4c17.2,0,25.9-7.4,25.9-20c0-10.8-8.5-17.8-30.9-26.3
				c-31.4-11.9-57.3-33.7-57.3-77.1c0-45.2,30-78.6,77.8-78.6c25.1,0,42.1,5.9,56.3,14.1l-11.7,54.9c-8.7-4.8-24.3-13-45.3-13
				c-15.3,0-24,6.7-24,17.4c0,13.3,11.7,17.8,35.8,28.2c35.8,15.6,52.7,38.9,52.7,76.7c0,41.9-24.3,80.4-83,80.4
				c-24.3,0-48.1-8.9-59.8-17.1L1667.5,2191.6z"/>
			<path d="M2005,2307.7c-30.3-11.5-52.2-22.2-81.9-38.6c-4.1-2.2-9.3-2.6-14.7-3.3c-41.5-5.6-86.8-43.4-86.8-126.4
				c0-77.1,39.6-132.3,101.3-132.3c61.7,0,98.6,55.2,98.6,127.1c0,51.5-21,91.6-44.2,106.8v1.5c12.6,4.8,27,8.2,41.5,11.5
				L2005,2307.7z M1966.5,2136.8c0-43-17.5-75.6-45.1-75.6c-27.6,0-45.1,32.6-45.1,75.6c0,43,17.5,74.9,45.1,74.9
				C1949.9,2211.7,1966.5,2179.8,1966.5,2136.8z"/>
			<path d="M2049.3,2011.5h51.6v191.3h79.5v58.6h-131.1V2011.5z"/>
		</g>
	</g>
</g>
</svg>
