<svg id="Layer_1" data-name="Layer 1" xmlns="http://www.w3.org/2000/svg" viewBox="0 0 100 100"><defs><style>.cls-1{fill:#f78c1e;}.cls-2{fill:#616262;}.cls-3{fill:#fff;}.cls-4{fill:#010101;}</style></defs><title>pwa</title><path class="cls-1" d="M62.3629,55.5637,75.9245,19.6809H66.9338L57.6569,42.8691l-6.598-23.1882H44.147L37.0681,42.8691,32.0719,32.3024,27.5527,47.1583l4.5908,8.4054h8.8476L47.39,34.77l6.1011,20.7942Z"/><path class="cls-2" d="M13.1724,43.2481h5.5247a15.324,15.324,0,0,0,4.4716-.5985l1.4269-4.7081,3.99-13.16a10.4217,10.4217,0,0,0-1.0413-1.463q-3.0765-3.6408-8.9987-3.6374H4.6586V55.5637h8.5138Zm7.3094-15.3147a4.873,4.873,0,0,1,1.2,3.4579,5.2789,5.2789,0,0,1-1.0572,3.4646Q19.4682,36.2824,16.36,36.279H13.1684V26.6366h3.2155q2.8975.01,4.0979,1.2968ZM70.4156,49.14l2.58-6.9624h7.4525L76.91,31.6174l4.4238-11.93L94.0013,55.5637H84.6608L82.4986,49.14Z"/><path class="cls-3" d="M1.8684,74.2766c-.35,0-.636-.4788-.636-1.064V61.7149a1.08,1.08,0,0,1,.5088-1.044,6.4025,6.4025,0,0,1,2.043-.2793,2.3977,2.3977,0,0,1,2.1344,1.2235,7.2172,7.2172,0,0,1,.8347,3.6442A8.0322,8.0322,0,0,1,6.09,68.79a2.6551,2.6551,0,0,1-2.13,1.6359v2.7863c0,.5852-.2862,1.064-.636,1.064Zm2.0867-8.5585a.8693.8693,0,0,0,.0755-.4389.7807.7807,0,0,0-.0318-.2726.1415.1415,0,0,0-.0437-.0332Z"/><path class="cls-3" d="M9.8217,74.2766c-.2584,0-.4889-.2594-.5882-.6584-.0915-.3657-.1908-.9709-.3021-1.7822v1.3766c0,.5852-.2862,1.064-.636,1.064H6.8447c-.35,0-.636-.4788-.636-1.064V61.7149a1.08,1.08,0,0,1,.5088-1.044,6.2225,6.2225,0,0,1,1.9714-.2793,2.485,2.485,0,0,1,2.2974,1.21s.004,0,.004.0067a6.2073,6.2073,0,0,1,.7392,3.3249,6.4018,6.4018,0,0,1-.6558,2.9526,9.1649,9.1649,0,0,1,.3935,1.7157c.0835.5586.167,1.2169.2385,1.7955.0676.5386.159,1.2767.1987,1.45a1.6933,1.6933,0,0,1-.0715.9776c-.1193.2859-.314.4588-.5247.4588H9.8217Zm-.89-8.8112c.0755-.06.0755-.16.0755-.2859a1.0379,1.0379,0,0,0-.02-.2328.2712.2712,0,0,0-.0556-.0266Z"/><path class="cls-3" d="M14.5,74.4894c-2.0032,0-3.4023-2.8794-3.4023-6.9957a12.3875,12.3875,0,0,1,.9181-5.054c.636-1.3831,1.55-2.1479,2.5756-2.1479,1.0414,0,1.9556.7515,2.5756,2.1213a12.1335,12.1335,0,0,1,.8744,4.9077,12.261,12.261,0,0,1-.91,5.0273C16.4912,73.7246,15.5572,74.4894,14.5,74.4894Zm.0715-9.5493c-.3537,0-.6439,1.1039-.6439,2.46,0,1.3632.2862,2.4272.6519,2.4272.3617,0,.6359-1.0441.6359-2.4272C15.2114,66.0506,14.9252,64.94,14.5714,64.94Z"/><path class="cls-3" d="M21.1932,74.4029a3.1686,3.1686,0,0,1-2.9372-2.1147A11.1938,11.1938,0,0,1,17.3577,67.6a10.9172,10.9172,0,0,1,1.1248-5.32,3.2869,3.2869,0,0,1,2.8022-1.8952,2.8432,2.8432,0,0,1,2.0588.8046A1.4477,1.4477,0,0,1,23.6257,62.3l-.31,2.56a1.6027,1.6027,0,0,1-.0715.3192c.3378.0266.6041.4921.6041,1.064v6.3639a1.242,1.242,0,0,1-.3815.9776A4.3309,4.3309,0,0,1,21.1932,74.4029ZM20.39,65.8312a4.1219,4.1219,0,0,0-.2147,1.4763,5.34,5.34,0,0,0,.1709,1.41v-2.48A1.4513,1.4513,0,0,1,20.39,65.8312Zm1.2281-.665a2.1393,2.1393,0,0,0-.3776-.0333.8747.8747,0,0,0-.2345.0333Z"/><path class="cls-3" d="M27.1155,74.2766c-.2583,0-.4889-.2594-.5882-.6584-.0915-.3657-.1908-.9709-.3021-1.7822v1.3766c0,.5852-.2862,1.064-.636,1.064H24.1385c-.35,0-.636-.4788-.636-1.064V61.7149a1.08,1.08,0,0,1,.5088-1.044,6.2225,6.2225,0,0,1,1.9714-.2793,2.485,2.485,0,0,1,2.2974,1.21s.004,0,.004.0067a6.2071,6.2071,0,0,1,.7393,3.3249,6.4017,6.4017,0,0,1-.6559,2.9526,9.157,9.157,0,0,1,.3935,1.7157c.0835.5586.167,1.2169.2385,1.7955.0676.5386.159,1.2767.1987,1.45a1.6933,1.6933,0,0,1-.0715.9776c-.1192.2859-.314.4588-.5247.4588H27.1155Zm-.89-8.8112c.0755-.06.0755-.16.0755-.2859a1.0379,1.0379,0,0,0-.02-.2328.2712.2712,0,0,0-.0556-.0266Z"/><path class="cls-3" d="M29.23,74.2766c-.35,0-.6359-.4788-.6359-1.064V61.5619c0-.5851.2862-1.0639.6359-1.0639h3.72c.35,0,.636.4788.636,1.0639v2.6268a1.2328,1.2328,0,0,1-.3617.9575,1.44,1.44,0,0,1,.23.818v2.6267a1.3109,1.3109,0,0,1-.3259.931c.3219.0532.5723.5054.5723,1.0573v2.6267c0,.5852-.2861,1.064-.6359,1.064H29.23Z"/><path class="cls-3" d="M35.4305,74.4894a2.9335,2.9335,0,0,1-2.0549-.9776,1.4446,1.4446,0,0,1-.2663-1.0773l.3021-2.66a1.117,1.117,0,0,1,.3736-.7781.4063.4063,0,0,1,.25-.0864.4717.4717,0,0,1,.3458.1729,2.0849,2.0849,0,0,0,.89.5985l-.0954-.06c-1.6852-1.044-2.039-3.0722-2.039-4.5951a6.7846,6.7846,0,0,1,.7791-3.3715,2.3965,2.3965,0,0,1,2.0668-1.3632,2.6565,2.6565,0,0,1,1.9079.7914,1.4065,1.4065,0,0,1,.31,1.15l-.3339,2.56a1.1156,1.1156,0,0,1-.3577.7381.4079.4079,0,0,1-.3935.08A5.6233,5.6233,0,0,1,38.42,69.6682,7.0763,7.0763,0,0,1,37.7,72.9931,2.5761,2.5761,0,0,1,35.4305,74.4894Z"/><path class="cls-3" d="M40.1644,74.4894a2.9331,2.9331,0,0,1-2.0549-.9776,1.4442,1.4442,0,0,1-.2663-1.0773l.302-2.66a1.1174,1.1174,0,0,1,.3736-.7781.4064.4064,0,0,1,.2505-.0864.4715.4715,0,0,1,.3457.1729,2.0854,2.0854,0,0,0,.89.5985l-.0954-.06c-1.6853-1.044-2.039-3.0722-2.039-4.5951a6.7846,6.7846,0,0,1,.779-3.3715,2.3965,2.3965,0,0,1,2.0668-1.3632,2.6565,2.6565,0,0,1,1.9079.7914,1.4065,1.4065,0,0,1,.31,1.15l-.3339,2.56a1.1156,1.1156,0,0,1-.3577.7381.4079.4079,0,0,1-.3935.08,5.6233,5.6233,0,0,1,1.3037,4.0565,7.0763,7.0763,0,0,1-.7194,3.3249A2.5759,2.5759,0,0,1,40.1644,74.4894Z"/><path class="cls-3" d="M43.34,74.2766c-.35,0-.6359-.4788-.6359-1.064V61.5619c0-.5851.2862-1.0639.6359-1.0639h1.4627c.35,0,.636.4788.636,1.0639V73.2126c0,.5852-.2862,1.064-.636,1.064Z"/><path class="cls-3" d="M47.2592,74.2766c-.29,0-.5406-.3259-.6161-.7914L44.8147,61.8346a1.643,1.643,0,0,1,.1113-.9177.6045.6045,0,0,1,.5048-.4123h1.6058c.2941,0,.5525.3392.62.8179l.5366,3.7838.5445-3.79c.0676-.4788.326-.8179.62-.8179H50.9a.602.602,0,0,1,.5047.4189,1.6727,1.6727,0,0,1,.1074.9243l-1.884,11.6507c-.0756.4655-.326.7847-.6121.7847Z"/><path class="cls-3" d="M51.524,74.2766c-.35,0-.636-.4788-.636-1.064V61.5619c0-.5851.2862-1.0639.636-1.0639h3.72c.35,0,.6359.4788.6359,1.0639v2.6268a1.2324,1.2324,0,0,1-.3617.9575,1.44,1.44,0,0,1,.2306.818v2.6267a1.311,1.311,0,0,1-.326.931c.322.0532.5724.5054.5724,1.0573v2.6267c0,.5852-.2862,1.064-.6359,1.064H51.524Z"/><path class="cls-3" d="M64.9584,74.2766c-.318,0-.5883-.399-.632-.9244l-.0159-.2-.02.2128c-.0437.5254-.314.9111-.628.9111H61.9972c-.306,0-.5683-.3658-.624-.8645L60.0576,61.7614a1.6383,1.6383,0,0,1,.1351-.8777.5874.5874,0,0,1,.4889-.3857h1.59c.318,0,.5883.399.632.9243l.0278.3591.0278-.3591c.0437-.532.31-.9243.632-.9243h1.6733c.2942,0,.5446.3325.6161.798.0716-.4655.322-.798.6161-.798H67.999a.5962.5962,0,0,1,.4929.3923,1.6626,1.6626,0,0,1,.1311.8844L67.1921,73.432c-.06.4921-.3219.8512-.624.8512h-1.61Z"/><path class="cls-3" d="M68.623,74.2766c-.35,0-.6359-.4788-.6359-1.064V61.5619c0-.5851.2862-1.0639.6359-1.0639h3.72c.35,0,.636.4788.636,1.0639v2.6268a1.2328,1.2328,0,0,1-.3617.9575,1.44,1.44,0,0,1,.2305.818v2.6267a1.3114,1.3114,0,0,1-.3259.931c.3219.0532.5723.5054.5723,1.0573v2.6267c0,.5852-.2861,1.064-.6359,1.064H68.623Z"/><path class="cls-3" d="M74.76,74.4162a4.841,4.841,0,0,1-1.63-.2327,1.079,1.079,0,0,1-.5008-1.0374V61.7149a1.0969,1.0969,0,0,1,.4929-1.0374,6.3783,6.3783,0,0,1,1.92-.2859,2.6274,2.6274,0,0,1,1.9516.6051,4.595,4.595,0,0,1,1.1407,3.4181,5.517,5.517,0,0,1-.465,2.354,6.0978,6.0978,0,0,1,.6439,2.9659,6.3962,6.3962,0,0,1-.8546,3.4114c-.0039.0066-.0079.0066-.0079.0133A2.9554,2.9554,0,0,1,74.76,74.4162Zm.5883-4.5153c.1391-.0465.1391-.1662.1391-.3325,0-.08-.008-.12-.008-.14a.2661.2661,0,0,0-.1271-.0732v.5453Z"/><path class="cls-3" d="M86.7634,74.2766c-.2981,0-.5524-.3458-.62-.8246l-.2743-2.0083H85.38l-.2306,1.975c-.06.4988-.3219.8579-.624.8579H82.9835a.6.6,0,0,1-.5008-.4057,1.6674,1.6674,0,0,1-.1192-.9044l1.65-11.6506c.0675-.4788.3259-.8179.62-.8179h1.9993c.29,0,.5445.3325.616.8046l1.7608,11.6506a1.6786,1.6786,0,0,1-.1152.9177.6044.6044,0,0,1-.5008.4123h-1.63Z"/><path class="cls-3" d="M89.1005,74.2766c-.35,0-.6359-.4788-.6359-1.064V61.7149a1.08,1.08,0,0,1,.5088-1.044,6.4018,6.4018,0,0,1,2.0429-.2793,2.3976,2.3976,0,0,1,2.1344,1.2235,7.2172,7.2172,0,0,1,.8347,3.6442,8.0323,8.0323,0,0,1-.6637,3.5311,2.6553,2.6553,0,0,1-2.1305,1.6359v2.7863c0,.5852-.2862,1.064-.6359,1.064Zm2.0868-8.5585a.8693.8693,0,0,0,.0755-.4389.7836.7836,0,0,0-.0318-.2726.141.141,0,0,0-.0438-.0332v.7447Z"/><path class="cls-3" d="M94.0768,74.2766c-.35,0-.6359-.4788-.6359-1.064V61.7149a1.08,1.08,0,0,1,.5088-1.044,6.4018,6.4018,0,0,1,2.0429-.2793,2.3977,2.3977,0,0,1,2.1344,1.2235,7.2172,7.2172,0,0,1,.8347,3.6442,8.0308,8.0308,0,0,1-.6638,3.5311,2.655,2.655,0,0,1-2.13,1.6359v2.7863c0,.5852-.2862,1.064-.6359,1.064ZM96.16,65.7181a.8693.8693,0,0,0,.0755-.4389.7836.7836,0,0,0-.0318-.2726.1415.1415,0,0,0-.0437-.0332v.7447Z"/><path class="cls-4" d="M1.8684,61.7149a5.8,5.8,0,0,1,1.9158-.2594,1.8822,1.8822,0,0,1,1.6972.931,5.666,5.666,0,0,1,.6359,2.8728,6.5786,6.5786,0,0,1-.5127,2.8328,2.0361,2.0361,0,0,1-1.892,1.2835,1.7706,1.7706,0,0,1-.3935-.0532v3.89H1.8684Zm1.4507,5.14a1.0211,1.0211,0,0,0,.3816.0532c.5644,0,.97-.5719.97-1.6226,0-.8445-.2862-1.4031-.8665-1.4031a1.3318,1.3318,0,0,0-.4809.0665v2.906Z"/><path class="cls-4" d="M6.8447,61.7149a5.95,5.95,0,0,1,1.8442-.2594,1.981,1.981,0,0,1,1.86.9177,4.9423,4.9423,0,0,1,.5405,2.56,3.6951,3.6951,0,0,1-.93,2.8V67.8a3.9345,3.9345,0,0,1,.6916,2.0548c.1789,1.19.3578,2.906.4571,3.3515H9.8217a26.2523,26.2523,0,0,1-.4014-2.66c-.163-1.4032-.3737-1.6758-.8586-1.6758H8.2994v4.3424H6.8486V61.7149ZM8.2954,66.576h.4333c.5723,0,.9141-.5187.9141-1.4032s-.2941-1.33-.7909-1.33a1.5037,1.5037,0,0,0-.5565.0665V66.576Z"/><path class="cls-4" d="M17.4054,67.3208c0,3.5244-1.109,6.1046-2.9055,6.1046-1.721,0-2.7664-2.5735-2.7664-5.9317,0-3.5644,1.1487-6.1379,2.8578-6.1379C16.36,61.3558,17.4054,63.8961,17.4054,67.3208Zm-4.1138.0864c0,2.0083.4968,3.4912,1.2878,3.4912.7989,0,1.2719-1.49,1.2719-3.4912s-.4969-3.5244-1.28-3.5244S13.2916,65.3989,13.2916,67.4072Z"/><path class="cls-4" d="M23.2164,72.5941a3.7653,3.7653,0,0,1-2.0232.7448,2.5957,2.5957,0,0,1-2.44-1.709,9.5845,9.5845,0,0,1-.7592-4.03c0-4.03,1.4349-6.1578,3.295-6.1578a2.4081,2.4081,0,0,1,1.7211.6383l-.31,2.56a1.97,1.97,0,0,0-1.4547-.5719c-.9142,0-1.7051,1.0041-1.7051,3.2318,0,2.0748.6955,3.438,1.7051,3.438a1.0013,1.0013,0,0,0,.5406-.12V68.7372h-.8069V66.23h2.2378Z"/><path class="cls-4" d="M24.1385,61.7149a5.95,5.95,0,0,1,1.8442-.2594,1.977,1.977,0,0,1,1.86.9177,4.9423,4.9423,0,0,1,.5405,2.56,3.6956,3.6956,0,0,1-.93,2.8V67.8a3.9355,3.9355,0,0,1,.6915,2.0548c.1789,1.19.3578,2.906.4571,3.3515H27.1155a26.2837,26.2837,0,0,1-.4014-2.66c-.163-1.4032-.3737-1.6758-.8586-1.6758h-.2623v4.3424H24.1425V61.7149Zm1.4507,4.8611h.4333c.5723,0,.9141-.5187.9141-1.4032s-.2941-1.33-.7909-1.33a1.5041,1.5041,0,0,0-.5565.0665Z"/><path class="cls-4" d="M32.8192,68.5975H30.6967v1.9884H33.07v2.6267H29.234V61.5619H32.95v2.6268H30.6967v1.7821h2.1225Z"/><path class="cls-4" d="M34.0354,69.9674a2.24,2.24,0,0,0,1.5024.8113c.4889,0,.7354-.3458.7354-.931,0-.4987-.2385-.8312-.8745-1.23-.89-.5519-1.6256-1.576-1.6256-3.5976,0-2.108.8506-3.6641,2.21-3.6641a2.2119,2.2119,0,0,1,1.5978.6583l-.3338,2.56a1.9522,1.9522,0,0,0-1.2878-.6052c-.4333,0-.6837.3126-.6837.8113,0,.6251.3339.8312,1.0136,1.3167a3.9642,3.9642,0,0,1,1.4944,3.5776c0,1.9551-.6916,3.7506-2.357,3.7506a2.424,2.424,0,0,1-1.6971-.798Z"/><path class="cls-4" d="M38.7693,69.9674a2.24,2.24,0,0,0,1.5024.8113c.4889,0,.7353-.3458.7353-.931,0-.4987-.2385-.8312-.8744-1.23-.89-.5519-1.6257-1.576-1.6257-3.5976,0-2.108.8506-3.6641,2.21-3.6641a2.2123,2.2123,0,0,1,1.5979.6583l-.3339,2.56a1.9519,1.9519,0,0,0-1.2878-.6052c-.4332,0-.6836.3126-.6836.8113,0,.6251.3338.8312,1.0135,1.3167a3.9643,3.9643,0,0,1,1.4945,3.5776c0,1.9551-.6916,3.7506-2.357,3.7506a2.4242,2.4242,0,0,1-1.6972-.798Z"/><path class="cls-4" d="M44.8028,61.5619V73.2126H43.34V61.5619Z"/><path class="cls-4" d="M47.2592,73.2126,45.4308,61.5619h1.6058l.6359,4.4954c.1948,1.33.3577,2.5934.5048,4.15h.0159c.1471-1.45.3259-2.82.5048-4.0631l.66-4.5818H50.9L49.016,73.2126Z"/><path class="cls-4" d="M55.1091,68.5975H52.9867v1.9884H55.36v2.6267H51.524V61.5619h3.72v2.6268H52.9906v1.7821h2.1225v2.6267Z"/><path class="cls-4" d="M61.9973,73.2126,60.6816,61.5619h1.59l.3418,4.3557c.1073,1.3832.2266,2.9925.31,4.1163h.0159c.0834-1.2768.1947-2.7131.31-4.1695l.3418-4.3025h1.6733l.3339,4.5818c.0994,1.3633.163,2.527.2385,3.7838h.0159c.0755-1.2635.1868-2.68.2941-4.0631l.35-4.3024H67.999L66.5721,73.2126h-1.61l-.3935-5.0805c-.0755-1.0175-.1471-2.0216-.2107-3.3715h-.0159c-.0835,1.35-.147,2.3673-.2385,3.3914l-.4332,5.0672H61.9973Z"/><path class="cls-4" d="M72.2122,68.5975H70.09v1.9884h2.3729v2.6267H68.627V61.5619h3.72v2.6268H70.0937v1.7821h2.1224v2.6267Z"/><path class="cls-4" d="M73.2655,61.7149a6.031,6.031,0,0,1,1.7727-.2594,2.1837,2.1837,0,0,1,1.6574.4855,3.2954,3.2954,0,0,1,.7989,2.4738,3.0273,3.0273,0,0,1-.8824,2.4205v.0333c.6519.379,1.0613,1.4164,1.0613,2.8727a4.8578,4.8578,0,0,1-.6519,2.6267,2.46,2.46,0,0,1-2.2616.9842,4.67,4.67,0,0,1-1.4945-.2061V61.7149Zm1.4467,4.2559h.31c.6836,0,.9936-.4123.9936-1.1438,0-.6583-.2544-1.0373-.775-1.0373a1.6385,1.6385,0,0,0-.5287.0665Zm0,4.9808a1.8128,1.8128,0,0,0,.473.0333c.5128,0,.938-.399.938-1.4165,0-.9842-.4411-1.3166-1.0294-1.3166h-.3816Z"/><path class="cls-4" d="M84.8556,70.38l-.3339,2.8329H82.98L84.629,61.5619h1.9993l1.7608,11.6507H86.7634L86.3779,70.38Zm1.2957-2.3873-.2782-2.0548c-.0914-.6584-.2027-1.5029-.2941-2.1812h-.0159c-.0835.6717-.163,1.5228-.2464,2.1945L85.07,67.9924Z"/><path class="cls-4" d="M89.1005,61.7149a5.801,5.801,0,0,1,1.9158-.2594,1.8821,1.8821,0,0,1,1.6972.931,5.6649,5.6649,0,0,1,.636,2.8728,6.577,6.577,0,0,1-.5128,2.8328,2.029,2.029,0,0,1-1.8919,1.2768,1.7629,1.7629,0,0,1-.3935-.0532v3.89H89.1005Zm1.4508,5.14a1.0211,1.0211,0,0,0,.3816.0532c.5644,0,.97-.5719.97-1.6226,0-.8445-.2862-1.4031-.8665-1.4031a1.3318,1.3318,0,0,0-.4809.0665v2.906Z"/><path class="cls-4" d="M94.0768,61.7149a5.801,5.801,0,0,1,1.9158-.2594,1.8822,1.8822,0,0,1,1.6972.931,5.6649,5.6649,0,0,1,.636,2.8728,6.5785,6.5785,0,0,1-.5128,2.8328,2.0291,2.0291,0,0,1-1.8919,1.2768,1.7629,1.7629,0,0,1-.3935-.0532v3.89H94.0768Zm1.4468,5.14a1.0211,1.0211,0,0,0,.3816.0532c.5644,0,.97-.5719.97-1.6226,0-.8445-.2862-1.4031-.8665-1.4031a1.3318,1.3318,0,0,0-.4809.0665v2.906Z"/></svg>