<?xml version="1.0" encoding="utf-8"?>
<!-- Generator: Adobe Illustrator 22.0.1, SVG Export Plug-In . SVG Version: 6.00 Build 0)  -->
<svg version="1.1" id="Layer_1" xmlns="http://www.w3.org/2000/svg" xmlns:xlink="http://www.w3.org/1999/xlink" x="0px" y="0px"
	 viewBox="0 0 2499 2500" style="enable-background:new 0 0 2499 2500;" xml:space="preserve">
<style type="text/css">
	.st0{fill:#77BC1F;}
	.st1{display:none;}
	.st2{display:inline;fill:#FCFCFC;}
	.st3{fill:#FCFCFC;}
	.st4{display:inline;fill:#FFFFFF;}
</style>
<path class="st0" d="M2089.9,88.2c-26.1,56.7-59.2,110.6-99.1,160.1C1816.2,89.5,1579.3,0.2,1332.4,0.2
	C821.7,0.2,401.6,382.9,401.6,848c0,232,104.4,454.2,289.2,614.3l34.4,27.7c167.8,128.6,380.3,199.5,599.6,199.5
	c485.5,0,893.6-346.2,928.2-787.4C2278.3,686.1,2208.7,413,2089.9,88.2L2089.9,88.2z M823,1467.2c-15,16.9-37.9,26.9-61.9,26.9
	c-43.8,0-79.6-32.8-79.6-72.6s36-72.6,79.6-72.6c18.1,0,36,5.7,50.1,16.3C845.2,1390.2,850.5,1436.2,823,1467.2L823,1467.2z
	 M2086,1213.4c-229.7,278.7-720.2,184.7-1034.8,198.2c0,0-55.8,3-111.9,11.5c0,0,21-8.2,48.3-17.6c220.7-70,325.2-83.6,459.4-146.3
	c252.6-117,502.4-373,554.4-639.4c-96.2,256.2-387.8,476.4-653.5,565.9c-182.1,61.2-510.9,120.5-510.9,120.5l-13.3-6.4
	c-223.8-99.3-230.6-540.6,176.3-683.2c178.2-62.4,348.6-28.1,541.2-70C1746.6,502.3,1984.4,362,2081,179
	C2189.3,471.8,2319.6,930.1,2086,1213.4L2086,1213.4z"/>
<g>
	<g>
		<g class="st1">
			<path class="st2" d="M686.4,2360.4c-60.1,0-113.9-19.9-141.7-36.9l-49.4-30.2l38.2-180.2c-16.8-28.5-25.7-61.9-25.7-97.1
				c0-55.7,21.8-106.3,61.4-142.5c38.6-35.3,90.3-54,149.3-54c49.1,0,90.5,9.3,130,29.4l58,29.4l-39.9,164.2c0,0,0,0,0,0
				c25.9,32.8,39,72.8,39,118.9c0,54.5-20.2,104.3-56.9,140.1C821.2,2328.2,770.6,2360.4,686.4,2360.4z"/>
			<path class="st2" d="M785,2461.9v-363.3c0-38.8-1-69.5-1.7-89.2l-3.2-85.1h193.6c15.8-4.3,32.7-6.5,50.1-6.5
				c47.8,0,94.4,22.3,127.9,61.1c24,27.8,52.5,77.4,52.5,155.9c0,82.9-30.8,134.7-56.7,163.6c-30.1,33.6-70.4,55-113.1,60.6v103H785
				z"/>
			<path class="st2" d="M1081.7,2353.9v-256.4c0-45.2-0.4-67.6-1.6-85.9l-5.8-87.4h188.3c13.6-4.3,27.3-6.5,41-6.5
				c9.2,0,20.7,0,37.1,4.2l61.6,15.8v263.8l-71.3-18.3v170.7H1081.7z"/>
			<path class="st2" d="M1274.5,2353.9v-405.5c-0.6-5.3-0.9-10.7-0.9-16.2c0-35.2,12.8-67.8,35.9-91.7
				c23.3-24.1,55.3-37.3,89.9-37.3c36.8,0,70,14.7,93.5,41.3c20.2,22.9,31.7,53.6,32.3,86.3l0,0.9v0.5c0,6.6-0.5,13.2-1.4,19.7v402
				H1274.5z"/>
			<path class="st2" d="M1414,2353.9v-255.3c0-38.8-1-69.5-1.7-89.2l-3.2-85.1h189.1c14.7-4.3,30-6.5,45.6-6.5
				c52.7,0,98.4,22.5,128.8,63.2c26.1,35.1,39.4,81.4,39.4,137.6v235.4H1414z"/>
			<path class="st2" d="M1882.1,2468.3c-50.3,0-100.7-13.2-134.9-35.3l-47.3-30.7l27.5-129.5c-24.8-36.3-37.9-82.4-37.9-133.8
				c0-58.4,17.9-112.6,50.4-152.7c17.3-21.3,38-38.1,61.5-49.9c24.7-12.4,51.3-18.7,78.9-18.7c16.4,0,32.1,2.2,46.7,6.5h180.7
				l-6.1,87.7c-0.7,10.7-1.6,29-1.6,75.3v142.6c0,79.5-19.5,138.3-59.7,179.7l-0.8,0.8c-22.6,22.7-50.3,39-82.3,48.3
				C1934.7,2465.1,1910.1,2468.3,1882.1,2468.3z"/>
		</g>
		<g>
			<path class="st3" d="M686.4,2300.4c-44.5,0-87.5-14.1-110.4-28.1l-13.3-8.1L590,2136l26.3,15.4c11.5,6.7,42,22.4,76.5,22.4
				c13.1,0,18.3-2.9,19.5-3.7c0.8-0.6,1.4-0.9,1.4-3.4c0-0.1,0-0.1,0-0.2c-0.8-1.4-6-7.2-36-17.3c-32.7-10.9-57.5-25.5-75.8-44.6
				c-22.6-23.6-34-53.4-34-88.6c0-80.4,62-136.5,150.7-136.5c39.4,0,72.1,7.3,102.9,22.9l15.6,7.9l-30,123.4l-24.5-11.9
				c-11.1-5.4-34.3-16.7-65.3-16.7c-11,0-16.3,2.4-17.7,3.5c0,0.1,0,0.1,0,0.2c3.5,4.4,22.8,11.7,39.9,18.2l5.1,1.9
				c34,13,58.6,29.6,75.2,50.7c17.6,22.3,26.1,49,26.1,81.7c0,38.2-13.8,72.7-38.9,97.2C778.7,2285.8,737.1,2300.4,686.4,2300.4z"/>
			<path class="st3" d="M845,2401.9v-303.3c0-39.8-1-71.3-1.8-91.5l-0.9-22.8h116.3l1.1,10.8c18.3-11.4,39.8-17.3,63.9-17.3
				c30.3,0,60.4,14.7,82.5,40.3c17.3,20.1,38,56.7,38,116.7c0,108.7-66.5,165.6-132.2,165.6c-13.4,0-26.2-2.2-37.6-6.2v107.8H845z
				 M974.7,2160.6c1.9,10.9,9,19.6,16.1,19.6c20.1,0,22.2-27.7,22.2-39.6c0-6.9-1-41.2-21.3-41.2c-6.8,0-15.5,9.5-17,22.2
				c-0.3,2.5-0.3,4.9-0.3,8.2v19.4C974.4,2153.6,974.4,2157,974.7,2160.6z"/>
			<path class="st3" d="M1141.7,2293.9v-196.4c0-46.6-0.5-70.1-1.8-89.8l-1.5-23.4h117.1l0.5,9.7c14.4-10.4,31.2-16.2,47.7-16.2
				c7.9,0,13.2,0,22.2,2.3l16.5,4.2v139.9l-27.5-7c-5.8-1.5-10.5-2.6-17.1-2.6c-22.9,0-25.7,11-26.5,15.4c-0.3,3-0.3,6.5-0.3,10.1
				v153.8H1141.7z"/>
			<path class="st3" d="M1334.5,2293.9v-309.7h20.1c-13.1-12.3-21-30.6-21-52c0-18.6,6.1-35.6,17.1-48c12-13.5,29.3-20.9,48.7-20.9
				c38,0,65.1,28.2,65.8,68.6l0,0.4c0,21.4-8,39.6-21.3,52h19.9v309.7H1334.5z"/>
			<path class="st3" d="M1622.6,2293.9v-160.2c0-17.5-3-25.2-4.8-28.3c-1.3-2.1-1.9-2.7-4.8-2.7c-1.7,0-5.1,0-9,11.2l-0.1,0.2
				c-0.5,1.9-0.5,7.4-0.5,10.3v169.4H1474v-195.3c0-39.8-1-71.3-1.8-91.5l-0.9-22.8h116.3l1,9.7c14-9.2,32.1-16.2,55-16.2
				c33.7,0,61.7,13.5,80.7,39.1c18.3,24.5,27.5,58.7,27.5,101.7v175.4H1622.6z"/>
			<path class="st3" d="M1882.1,2408.3c-38.6,0-77.8-9.8-102.3-25.7l-12.7-8.2l24.8-117.2c-2.5-2.5-4.9-5.1-7.2-7.9
				c-23.1-27.4-35.2-65.6-35.2-110.3c0-44.7,13.1-85.5,37-114.9c24.3-29.9,57.6-46.4,93.8-46.4c17,0,32.1,3.5,45.3,10.4l0.3-3.9
				h117.5l-1.6,23.5c-0.8,11.7-1.8,31.3-1.8,79.5v142.6c0,63.1-14,108.2-42.8,137.9l-0.2,0.2
				C1960.8,2404.2,1914.1,2408.3,1882.1,2408.3z M1898.3,2095.7c-7.4,0-17.7,12.9-17.7,41.7c0,20.4,8,36.3,18.2,36.3
				c6.7,0,10.4-7.6,11.2-12.7c0.6-4.3,0.6-12.3,0.6-17.1v-24.3c0-2.3,0-5.1-0.2-6.9C1908.3,2101.4,1904.2,2095.7,1898.3,2095.7z"/>
		</g>
	</g>
	<g>
		<g class="st1">
			<path class="st4" d="M686.4,2338.4c-55.5,0-104.8-18.1-130.2-33.7l-36.2-22.1l36.8-173.7c-17.8-26.7-27-58.4-27-93
				c0-49.4,19.3-94.3,54.2-126.2c34.5-31.6,81-48.3,134.5-48.3c45.6,0,83.7,8.6,120.1,27l42.4,21.5l-38.4,158c2.3,2.6,4.6,5.3,6.8,8
				c22.8,28.8,34.3,64.2,34.3,105.2c0,48.5-17.9,92.7-50.3,124.4C808.7,2309.6,763.2,2338.4,686.4,2338.4z"/>
			<path class="st4" d="M807,2439.9v-341.3c0-39.2-1-70.2-1.8-90.1l-2.4-62.3h173.8c14.8-4.3,30.5-6.5,47-6.5
				c41.4,0,82,19.5,111.3,53.5c21.5,25,47.2,69.8,47.2,141.5c0,75.9-27.8,122.9-51.1,148.9c-31.1,34.7-74.3,54.6-118.7,54.7v101.5
				H807z M973.6,2152C973.6,2151.9,973.6,2152,973.6,2152z"/>
			<path class="st4" d="M1103.7,2331.9v-234.4c0-45.7-0.4-68.6-1.7-87.3l-4.2-64h168.4c12.6-4.4,25.4-6.5,37.5-6.5
				c8.8,0,18,0,31.6,3.5l45.1,11.6v218.4l-71.3-18.3v177H1103.7z"/>
			<path class="st4" d="M1296.5,2331.9v-384.8c-0.6-4.8-0.9-9.8-0.9-14.9c0-61,44.6-107,103.8-107c30.4,0,57.8,12,77,33.9
				c16.8,19,26.3,44.6,26.8,72.1l0,0.5v0.5c0,6.2-0.5,12.2-1.4,18.1v381.6H1296.5z"/>
			<path class="st4" d="M1436,2331.9v-233.3c0-39.1-1-70.1-1.8-90.1l-2.4-62.3h169.5c13.5-4.3,27.7-6.5,42.3-6.5
				c45.6,0,85,19.3,111.2,54.4c23.3,31.2,35,73,35,124.4v213.4H1436z"/>
			<path class="st4" d="M1882.1,2446.3c-46.3,0-92.2-11.9-122.9-31.8l-34.6-22.4l26.3-124.2c-25.8-33.7-39.4-78.1-39.4-128.9
				c0-53.4,16.1-102.7,45.5-138.8c15.3-18.9,33.6-33.7,54.3-44.1c21.6-10.9,44.9-16.4,69.1-16.4c15.5,0,30,2.2,43.5,6.5h160.4
				l-4.5,64.2c-0.8,11.1-1.7,29.8-1.7,76.8v142.6c0,73.5-17.5,127.3-53.5,164.4l-0.6,0.6c-20,20-44.5,34.4-72.9,42.8
				C1930.5,2443.4,1908,2446.3,1882.1,2446.3z M1920.5,2123.1L1920.5,2123.1z"/>
		</g>
		<g>
			<path d="M605.2,2170.4c20.3,11.9,52.8,25.4,87.6,25.4c28.4,0,42.9-10.8,42.9-29.2c0-15.7-14-25.9-51-38.3
				c-51.9-17.3-94.8-49.1-94.8-112.3c0-65.9,49.7-114.5,128.7-114.5c41.5,0,69.5,8.6,93,20.5l-19.4,79.9c-14.4-7-40.2-18.9-75-18.9
				c-25.3,0-39.7,9.7-39.7,25.4c0,19.4,19.4,25.9,59.1,41c59.1,22.7,87.1,56.7,87.1,111.8c0,61-40.2,117.2-137.3,117.2
				c-40.2,0-79.5-13-98.9-24.8L605.2,2170.4z"/>
			<path d="M867,2098.5c0-37.8-0.9-68.6-1.8-92.3h73.6l3.6,35.1h0.9c19.4-28.6,47-41.6,80.4-41.6c44.2,0,98.4,42.1,98.4,135
				c0,98.8-58.7,143.6-110.2,143.6c-28,0-49.7-11.3-58.7-25.9h-0.9v127.4H867V2098.5z M952.4,2149.3c0,4.9,0,9.2,0.5,14
				c3.2,20.5,18.1,38.9,37.9,38.9c26.6,0,44.2-22.7,44.2-61.6c0-34-13.5-63.2-43.3-63.2c-19.4,0-36.1,18.9-38.8,41.6
				c-0.5,3.8-0.5,7-0.5,10.8V2149.3z"/>
			<path d="M1163.7,2097.5c0-47-0.5-70.7-1.8-91.3h72.7l2.7,51.3h1.8c12.2-43.7,43.8-57.8,64.6-57.8c7.2,0,10.4,0,16.7,1.6v94.5
				c-6.3-1.6-13.1-3.2-22.6-3.2c-29.3,0-45.2,14.6-48.3,34.6c-0.5,4.3-0.5,8.6-0.5,13v131.8h-85.3V2097.5z"/>
			<path d="M1443.2,1932.2c0,25.9-16.3,47-44.3,47c-27.1,0-43.3-21.1-43.3-47c0-26.5,16.3-47,43.8-47S1442.7,1905.8,1443.2,1932.2z
				 M1356.5,2271.9v-265.7h85.3v265.7H1356.5z"/>
			<path d="M1496,2098.5c0-37.8-0.9-68.6-1.8-92.3h73.6l3.6,35.1h1.8c6.8-11.3,28.4-41.6,70.4-41.6c53.3,0,86.2,41,86.2,118.8v153.4
				h-85.3v-138.2c0-34.6-10.4-52.9-31.6-52.9c-18.5,0-26.2,15.7-29.8,25.9c-1.8,4.9-1.8,11.9-1.8,17.8v147.4H1496V2098.5z"/>
			<path d="M2019.8,2006.2c-0.9,13-1.8,33.5-1.8,81v142.6c0,44.8-7.2,92.3-36.6,122.6c-28,28.1-65,34-99.3,34
				c-33.4,0-68.6-8.1-90.3-22.1l16.3-76.7c14,9.7,42.9,22.1,70.9,22.1c28.4,0,55.5-16.7,55.5-61v-11.9h-0.9
				c-15.4,22.1-37,31.9-61,31.9c-54.6,0-101.1-45.9-101.1-129.6c0-83.7,49.2-139.3,108.8-139.3c31.2,0,50.1,14,62.8,35.6h0.9
				l2.3-29.2H2019.8z M1932.6,2119.6c0-3.2,0-7-0.5-10.3c-4.1-22.7-16.3-35.6-33.9-35.6c-19.4,0-39.7,19.4-39.7,63.7
				c0,31.9,15.4,58.3,40.2,58.3c17.6,0,30.3-14.6,33-31.3c0.9-5.9,0.9-14.6,0.9-20.5V2119.6z"/>
		</g>
	</g>
</g>
</svg>
