<?xml version="1.0" encoding="utf-8"?>
<!-- Generator: Adobe Illustrator 22.0.1, SVG Export Plug-In . SVG Version: 6.00 Build 0)  -->
<svg version="1.1" id="Layer_1" xmlns="http://www.w3.org/2000/svg" xmlns:xlink="http://www.w3.org/1999/xlink" x="0px" y="0px"
	 viewBox="0 0 2500 1777" style="enable-background:new 0 0 2500 1777;" xml:space="preserve">
<style type="text/css">
	.st0{fill:#D1A41A;stroke:#FCFCFC;stroke-width:7;stroke-miterlimit:10;}
	.st1{fill:#FFDC76;stroke:#FCFCFC;stroke-width:7;stroke-miterlimit:10;}
	.st2{stroke:#FCFCFC;stroke-width:7;stroke-miterlimit:10;}
	.st3{display:none;}
	.st4{display:inline;fill:#F9F7F8;}
	.st5{fill:#F9F7F8;}
	.st6{display:inline;fill:#FFFFFF;}
</style>
<path class="st0" d="M319.7,752.4c22.1,23.6,45.5,46.2,70,68C314.9,839.9,265.9,876,235.3,908c-48.4,50.5-74,117.3-68.1,174.6H38.4
	C64.2,1034.1,167.3,893.9,319.7,752.4 M1811.9,1113h-156.6C1295.9,950.7,980.5,836.3,645.4,811.3c0.7-40.4,9-86,25-137l-30.9-7.2
	c-16.4,52.3-25,99.7-26,142.1c-35.1-2-70.3-3-105.5-3c-30,0-57.4,2.4-82.4,6.6c-32.6-28.1-60.3-55-83.9-80.5
	C496.3,593,750.8,466.9,972.4,419.5c62.4,179.5,196.3,302.4,358.8,385.1c11.9-5.9,23.6-12.1,35.1-18.5l283.5,264.1l12.4-0.9
	c77.4-5.8,121.4,30.6,133.1,41.9C1803.9,1099.5,1809,1107,1811.9,1113"/>
<path class="st1" d="M1685.5,224.6c5.9,247.6-142.6,444.7-350.6,545.8c-353-149.5-419.5-528.5-359.3-731.8
	c16.7,77.7,47.2,126.5,112.9,150.4c143.3-34.9,340.6-37.6,486-3.6c60.5-37.4,84-94.6,96.8-144.6
	C1687.2,99,1685.4,224.6,1685.5,224.6"/>
<path class="st2" d="M1191,253.5c14,0,23.7,4.1,30.8,12.8c16.6,20.5,13.9,61.1,0.1,103.4h-111.7v17.6h105.4
	c-11.3,28.9-27.2,57.5-45.1,80.2l-5.8,7.3l139.7,63.3l-78.6,37.3l13.5,14.7l87.9-41.7l94.9,44.6l13-14.9l-88-39.2
	c0,0,131.6-61.5,138.1-64.5l-0.1-0.1h0.2c-29-30.8-38.2-57.1-26.1-87h9.9l106.1-0.1l0.2-17.5h-106.9c19.7-33.4,47.3-63.4,145.7-63.4
	v-17.6c-90.8,0-145.2,26-171.2,81h-195.9c13.7-44,16.1-87.3-4.1-112.3c-11.4-14.1-29.4-21.6-51.9-21.6
	c-80.9,0-112.9,59.5-114.2,62.1l22.9,6.2C1100.8,302,1127.2,253.5,1191,253.5L1191,253.5z M1326.9,527.6l-103.3-46.8h201.9
	L1326.9,527.6L1326.9,527.6z M1434.3,387.4c-8.7,19.9-5.2,50,16.2,75.7h-248.9c15.1-21.8,29.2-48.5,39.4-75.7L1434.3,387.4
	L1434.3,387.4z"/>
<path class="st2" d="M1538.1,478.7L1538.1,478.7L1538.1,478.7L1538.1,478.7"/>
<path class="st2" d="M1819.2,1072.5c-35.1-34.2-103.8-50.4-161.1-49.2c-36.6-37.9-230.6-216.5-269.8-252.5
	c82.6-50.6,152.5-115.4,205.3-190.4h107.1v-20h-93.5c6-9.2,11.7-18.6,17.2-28.1h76.4v-20h-65.2c48.5-91.2,75.3-196,72.7-310.6
	l0.3,0.1c-0.1-31.4-11.3-163.9-31.9-200.4c-55.9,18.5-157.5,78.4-180.5,139.7c-110.2-14.3-234.5-12.6-343.3,3.8
	C1134.4,78.9,1043.1,28.4,974.2,0c-29,42.7-41.9,141.8-38.6,212.1l-0.4,0.2c2.7,63.5,12.6,121.8,28.6,175.4
	c-238.1,51.4-497.4,187.4-642.4,318.9c-67.9-79.9-94.8-145.4-102.8-195.1c-10.1-62.7,7.1-120.3,49.7-166.4
	c66.7-72.2,161.4-77.3,258.9-63c-1.9,13.4,0.1,26.2,6.3,34.2c25.8,33.2,164.2,44.8,246.9,12.7c-61-74.5-184.6-110.9-218.8-96.3
	c-11.3,4.8-19.9,13.7-25.8,24c-33.7-5.2-67.1-9.2-91.6-9c-85.9,0.6-151.6,26.7-200.8,80C195.1,380,175.6,444.9,187,515.4
	c10.8,66.8,48.7,137.9,112.3,211.6c-10.3,9.6-20.5,19.4-30.6,29.2C113.6,907.3,0.2,1069.4,0.2,1096.3v13.9h204.5l-3.6-16.5
	c-11.5-53.2,11.5-119.7,58.8-169.4c29.7-31.2,78.8-66.8,155.9-83.2c68.6,58.3,155.9,120.3,253.2,180.1h152v-13.9
	c0-15.7-8.9-29.5-25.2-38.7c-24-13.7-61.1-15.6-95.1-5.4c-32.5-31.5-50.7-73.6-54.6-125.9c329.8,25.5,645.3,141.6,1001.2,303.7
	h195.9l2.6-11.2C1849.5,1113.7,1839.5,1092.4,1819.2,1072.5L1819.2,1072.5z M986.8,38.7c16.2,77.1,45.6,125.4,109.2,149.1
	c56.4-14.1,121.4-22.8,188.1-26l55.3,105.8l35.5-106.7c67.4,1.9,133.5,9.5,191.1,23.4c58.6-37.1,81.3-93.8,93.7-143.4
	c15.5,57.7,13.7,182.2,13.8,182.2c1.1,46.5-3.2,91.2-12.2,133.8l-63.2,23.4l55.7,7.4c-4.4,16.2-9.5,32.2-15.3,48l-53.9,13.6
	l42.9,13.5c-7.2,16.8-15.4,33.3-24.3,49.5h-88.9v20h77.2c-5.8,9.5-11.9,18.9-18.3,28.1h-58.9v20h44.4
	c-58.4,77.1-135.8,139.7-224.4,183.8c-102.3-44.4-179.7-109.3-236.5-183.8h33.9v-20h-48.6c-6.4-9.2-12.6-18.6-18.4-28.1h67v-20H1053
	c-13.5-23.8-25.3-48.3-35.5-73.4l40.2-9.8l-50.6-17.7c-5.1-14.3-9.7-28.8-13.8-43.3l77.9-4.6l-89.1-41.2
	C960.3,217.3,964.7,115.3,986.8,38.7L986.8,38.7z M235.3,906.5c-48.4,50.9-74,118.1-68.1,175.8H38.4c25.9-48.8,129-190,281.3-332.6
	c21,22.6,44.4,45.5,70.1,68.5C315,837.9,265.9,874.3,235.3,906.5z M1655.2,1113C1295.9,949.6,980.5,834.3,645.4,809.2
	c0.7-40.7,9-86.7,25-137.9l-30.8-7.3c-16.4,52.7-25,100.4-26,143.1c-35.1-2-70.3-3.1-105.5-3.1c-30.1,0-57.5,2.4-82.4,6.7
	c-32.6-28.4-60.3-55.4-83.9-81.1c41.9-38.1,91.3-75.2,145.3-109.9l74.8,45l-24.4-76c22.9-13.5,46.2-26.4,69.9-38.7l110.7,49
	l-52-78.2c15.1-7.1,30.4-14,45.8-20.7l154.8,90.5l-50.8-131.3c52.8-18.6,105.5-33.7,156.5-44.7c11.6,33.5,26.1,66.2,43.6,97.7h-70.3
	v20h81.9c5.8,9.5,11.7,18.9,17.9,28.1h-99.8v20h114.1c70,94.7,164.5,167.2,271.5,222c11.9-6,23.6-12.2,35.1-18.7l28,26.3l-47.1,63.2
	l80.4-32l46.5,43.7l-78.7,52.2l108.3-24.4l146.1,137.1l12.4-0.9c77.4-5.8,121.5,30.8,133.1,42.2c8.5,8.3,13.7,15.9,16.5,21.9
	L1655.2,1113L1655.2,1113z"/>
<g>
	<path class="st2" d="M1295.8,550.9h1v7.2h3.5v0.9h-4.5V550.9z"/>
	<path class="st2" d="M1306.5,556.1c0,2.1-1.5,3.1-2.9,3.1c-1.6,0-2.8-1.2-2.8-3c0-1.9,1.3-3.1,2.9-3.1
		C1305.4,553.1,1306.5,554.3,1306.5,556.1z M1301.9,556.1c0,1.3,0.7,2.2,1.8,2.2c1,0,1.8-0.9,1.8-2.3c0-1-0.5-2.2-1.7-2.2
		C1302.4,553.9,1301.9,555,1301.9,556.1z"/>
	<path class="st2" d="M1307.8,555c0-0.7,0-1.3,0-1.8h0.9v1.1l0,0c0.3-0.8,0.9-1.3,1.6-1.3c0.1,0,0.2,0,0.3,0v1c-0.1,0-0.2,0-0.4,0
		c-0.7,0-1.3,0.6-1.4,1.4c0,0.1,0,0.3,0,0.5v3.1h-1V555z"/>
	<path class="st2" d="M1312.2,556.3c0,1.4,0.9,2,2,2c0.8,0,1.2-0.1,1.6-0.3l0.2,0.8c-0.4,0.2-1,0.4-1.9,0.4c-1.8,0-2.9-1.2-2.9-2.9
		s1-3.1,2.7-3.1c1.9,0,2.4,1.7,2.4,2.7c0,0.2,0,0.4,0,0.5h-4.1V556.3z M1315.3,555.6c0-0.7-0.3-1.7-1.5-1.7c-1.1,0-1.5,1-1.6,1.7
		H1315.3z"/>
	<path class="st2" d="M1317.7,554.8c0-0.6,0-1.1,0-1.6h0.9v0.9l0,0c0.3-0.6,0.9-1.1,1.8-1.1c0.8,0,1.4,0.5,1.6,1.2l0,0
		c0.2-0.3,0.4-0.6,0.6-0.8c0.3-0.3,0.7-0.4,1.3-0.4c0.8,0,1.9,0.5,1.9,2.5v3.4h-1v-3.3c0-1.1-0.4-1.8-1.3-1.8c-0.6,0-1.1,0.4-1.2,1
		c0,0.1-0.1,0.3-0.1,0.5v3.6h-1v-3.5c0-0.9-0.4-1.6-1.2-1.6c-0.7,0-1.1,0.5-1.3,1.1c-0.1,0.2-0.1,0.3-0.1,0.5v3.5h-1L1317.7,554.8
		L1317.7,554.8z"/>
	<path class="st2" d="M1331.4,551.6c0,0.4-0.3,0.6-0.7,0.6c-0.4,0-0.6-0.3-0.6-0.6c0-0.4,0.3-0.7,0.7-0.7
		C1331.1,550.9,1331.4,551.2,1331.4,551.6z M1330.2,559v-5.8h1.1v5.8H1330.2z"/>
	<path class="st2" d="M1333,555.1c0-0.7,0-1.3,0-1.9h0.9v1l0,0c0.4-0.7,1.1-1.1,2.1-1.1c1.4,0,2.5,1.2,2.5,3c0,2.1-1.3,3.1-2.6,3.1
		c-0.8,0-1.4-0.3-1.8-0.9l0,0v3.2h-1L1333,555.1L1333,555.1z M1334.1,556.7c0,0.2,0,0.3,0,0.4c0.2,0.7,0.8,1.2,1.6,1.2
		c1.1,0,1.8-0.9,1.8-2.2c0-1.2-0.6-2.2-1.7-2.2c-0.7,0-1.4,0.5-1.6,1.3c0,0.1-0.1,0.3-0.1,0.4L1334.1,556.7L1334.1,556.7z"/>
	<path class="st2" d="M1339.7,558c0.3,0.2,0.9,0.4,1.4,0.4c0.8,0,1.1-0.4,1.1-0.9s-0.3-0.8-1.1-1.1c-1-0.4-1.5-0.9-1.5-1.6
		c0-0.9,0.8-1.7,2-1.7c0.6,0,1.1,0.2,1.4,0.4l-0.3,0.8c-0.2-0.1-0.6-0.3-1.2-0.3s-1,0.4-1,0.8c0,0.5,0.3,0.7,1.1,1
		c1,0.4,1.5,0.9,1.5,1.8c0,1-0.8,1.7-2.2,1.7c-0.6,0-1.2-0.2-1.6-0.4L1339.7,558z"/>
	<path class="st2" d="M1349.5,557.4c0,0.6,0,1.1,0,1.6h-0.9l-0.1-0.9l0,0c-0.3,0.5-0.9,1.1-1.9,1.1c-0.9,0-2-0.5-2-2.5v-3.4h1.1v3.2
		c0,1.1,0.3,1.8,1.3,1.8c0.7,0,1.2-0.5,1.4-1c0.1-0.2,0.1-0.3,0.1-0.5v-3.6h1.1L1349.5,557.4L1349.5,557.4z"/>
	<path class="st2" d="M1351.2,554.8c0-0.6,0-1.1,0-1.6h0.9v0.9l0,0c0.3-0.6,0.9-1.1,1.8-1.1c0.8,0,1.4,0.5,1.6,1.2l0,0
		c0.2-0.3,0.4-0.6,0.6-0.8c0.3-0.3,0.7-0.4,1.3-0.4c0.8,0,1.9,0.5,1.9,2.5v3.4h-1v-3.3c0-1.1-0.4-1.8-1.3-1.8c-0.6,0-1.1,0.4-1.2,1
		c0,0.1-0.1,0.3-0.1,0.5v3.6h-1v-3.5c0-0.9-0.4-1.6-1.2-1.6c-0.7,0-1.1,0.5-1.3,1.1c-0.1,0.2-0.1,0.3-0.1,0.5v3.5h-1L1351.2,554.8
		L1351.2,554.8z"/>
</g>
<g>
	<g>
		<g class="st3">
			<polygon class="st4" points="80.2,1595 80.2,1380.7 17.3,1380.7 17.3,1187.2 337,1187.2 337,1380.7 272.7,1380.7 272.7,1595 			
				"/>
			<path class="st4" d="M398.4,1599.9c-54.9,0-103.7-23.1-137.3-65c-29.6-36.8-45.9-87-45.9-141.4c0-56.4,17.2-108.4,48.5-146.3
				c34.5-41.9,83.8-65,138.7-65c55.7,0,105,22.9,138.8,64.5c30.3,37.3,46.3,86.6,46.3,142.7c0,59.1-18.6,112.6-52.3,150.6
				C501,1578.6,452.4,1599.9,398.4,1599.9z"/>
			<polygon class="st4" points="701,1595 700.8,1589.2 675.1,1589.2 674.9,1595 485,1595 503.5,1187.2 879.1,1187.2 894.2,1595 			
				"/>
			<path class="st4" d="M1057.5,1599.9c-78.2,0-124.2-35.3-149.1-64.9c-30.5-36.4-46.7-84.6-46.7-139.4c0-62.9,20.1-116.7,58-155.7
				c36.2-37.2,86.3-57.7,141-57.7c40.2,0,76.8,9.2,100.4,25.2l36.2,24.6l-32.6,152.1l27.3,169.9l-36.7,22.8
				C1132.3,1591.3,1095.7,1599.9,1057.5,1599.9z M1060.4,1406.1c0.8,0.3,3.1,0.3,4.3,0.3c7.6,0,15.4-1.9,17.8-2.7l23.8-12
				l-24.2-12.4c-3.9-2-10.4-4.4-19-4.4c-0.9,0-2.2,0-2.9,0.1c-0.6,0.8-2.6,4.6-2.6,15.2C1057.6,1400.7,1059.6,1405.2,1060.4,1406.1z
				"/>
			<polygon class="st4" points="1061,1595 1164.5,1187.2 1350.2,1187.2 1460.5,1595 			"/>
			<polygon class="st4" points="1357.9,1595 1357.9,1380.7 1295,1380.7 1295,1187.2 1614.7,1187.2 1614.7,1380.7 1550.5,1380.7 
				1550.5,1595 			"/>
		</g>
		<g>
			<polygon class="st5" points="125.2,1550 125.2,1335.7 62.3,1335.7 62.3,1232.2 292,1232.2 292,1335.7 227.7,1335.7 227.7,1550 
							"/>
			<path class="st5" d="M398.4,1554.9c-81.4,0-138.2-66.4-138.2-161.4c0-46,13.6-87.8,38.2-117.7c25.8-31.3,62.7-48.6,103.9-48.6
				c42.5,0,78.4,16.6,103.9,47.9c23.7,29.2,36.3,68.7,36.3,114.3c0,46.7-13.1,87.1-37.9,117C478.4,1538.2,441.7,1554.9,398.4,1554.9
				z M401.4,1327.4c-22.7,0-34.6,32.2-34.6,64.1c0,30.5,10.9,63.3,35,63.3c23.7,0,34.3-31.8,34.3-63.3
				C436,1359.6,424.1,1327.4,401.4,1327.4z"/>
			<path class="st5" d="M745,1550l-1.8-82.5l-18.4,76.8h-82.2l-9.5-47.9l-1.7,53.7h-99.2l14.4-317.8h124.7l18.3,85.9
				c0.4,2,0.8,3.9,1.2,5.9c0.6-2.6,1.2-5.1,1.8-7.5l21.4-84.4h121.9l11.7,317.8H745z"/>
			<path class="st5" d="M1057.5,1554.9c-48.2,0-87.8-16.9-114.6-48.8c-23.7-28.2-36.2-66.4-36.2-110.5c0-50.9,15.7-93.9,45.3-124.3
				c27.7-28.4,66.3-44.1,108.8-44.1c30.5,0,59.3,6.7,75.1,17.5l11.1,7.6l-21.2,98.8l-23.2-11.9c-8.3-4.3-21.9-9.3-39.5-9.3
				c-32.1,0-50.5,22-50.5,60.4c0,18.4,5.1,61.2,52.2,61.2c15,0,30.6-3.8,37.6-7.3l24.4-12.4l16,99.9l-11.3,7
				C1118.7,1546.8,1090.7,1554.9,1057.5,1554.9z"/>
			<polygon class="st5" points="1290.4,1550 1273.8,1482.4 1240.9,1482.4 1226.6,1550 1118.8,1550 1199.5,1232.2 1315.8,1232.2 
				1401.7,1550 			"/>
			<polygon class="st5" points="1402.9,1550 1402.9,1335.7 1340,1335.7 1340,1232.2 1569.7,1232.2 1569.7,1335.7 1505.5,1335.7 
				1505.5,1550 			"/>
		</g>
	</g>
	<g>
		<g class="st3">
			<polygon class="st6" points="100.2,1575 100.2,1360.7 37.3,1360.7 37.3,1207.2 317,1207.2 317,1360.7 252.7,1360.7 252.7,1575 
							"/>
			<path class="st6" d="M398.4,1579.9c-48.7,0-91.9-20.4-121.7-57.5c-26.7-33.3-41.4-79-41.4-128.8c0-51.8,15.6-99.2,43.9-133.6
				c30.7-37.2,74.4-57.7,123.2-57.7c49.6,0,93.4,20.3,123.3,57.1c27.4,33.7,41.9,78.7,41.9,130.1
				C567.5,1501.6,498,1579.9,398.4,1579.9z M401.4,1353c-3.4,3.7-9.6,16.2-9.6,38.5c0,23.3,6.8,35.4,9.9,38.1
				c2.5-2.5,9.3-13.7,9.3-38.1C411,1369.3,404.8,1356.7,401.4,1353z"/>
			<polygon class="st6" points="720.5,1575 720.4,1569.2 655.7,1569.2 655.5,1575 505.9,1575 522.6,1207.2 691.4,1207.2 
				692.8,1213.7 694.4,1207.2 859.9,1207.2 873.4,1575 			"/>
			<path class="st6" d="M1057.5,1579.9c-70.5,0-111.6-31.4-133.7-57.8c-27.5-32.8-42-76.5-42-126.5c0-57.5,18.1-106.6,52.4-141.7
				c32.4-33.3,77.4-51.6,126.7-51.6c35.7,0,69.1,8.1,89.2,21.8l25.1,17l-31.6,147.2l-52.2-26.8c-5.9-3-15.5-6.6-28.1-6.6
				c-7,0-25.5,0-25.5,35.4c0,36.2,19,36.2,27.2,36.2c11.4,0,23-3,26.4-4.6l55-27.8l24.1,150.1l-25.4,15.8
				C1125,1572.3,1091.6,1579.9,1057.5,1579.9z"/>
			<polygon class="st6" points="1270.8,1575 1258,1522.6 1246.9,1575 1086.7,1575 1180.1,1207.2 1334.9,1207.2 1434.4,1575 			"/>
			<polygon class="st6" points="1377.9,1575 1377.9,1360.7 1315,1360.7 1315,1207.2 1594.7,1207.2 1594.7,1360.7 1530.5,1360.7 
				1530.5,1575 			"/>
		</g>
		<g>
			<path d="M145.2,1315.7H82.3v-63.5H272v63.5h-64.2V1530h-62.6V1315.7z"/>
			<path d="M522.5,1389.4c0,84.1-47.3,145.5-124.1,145.5c-73.5,0-118.2-61.4-118.2-141.4c0-84.9,49-146.3,122.1-146.3
				C477.9,1247.2,522.5,1307.8,522.5,1389.4z M346.8,1391.5c0,47.8,21.2,83.3,55,83.3c34.1,0,54.3-35.4,54.3-83.3
				c0-47.8-21.2-84.1-54.6-84.1C368,1307.4,346.8,1343.7,346.8,1391.5z"/>
			<path d="M762.2,1426.5c-0.7-34.6-1-72.9-1-121.2h-1c-7.9,39.6-18.5,83.3-27.1,118.3l-24.2,100.6h-50L639.1,1424
				c-6.6-34.2-13.9-77.5-19.9-118.7h-0.7c-1.3,42.5-2.3,86.5-3.3,121.2l-3.3,103.4H553l12.6-277.8H655l14.9,70.1
				c6.3,29.7,13.2,68,18.2,103h1.3c7.3-35,15.6-76.2,22.5-103.9l17.5-69.2h87.1l10.3,277.8h-62.2L762.2,1426.5z"/>
			<path d="M1121,1521.7c-9.3,5.8-33.1,13.2-63.6,13.2c-90.4,0-130.8-64.7-130.8-139.3c0-96.4,60.9-148.4,134.1-148.4
				c28.8,0,53,6.6,63.9,14l-12.9,60.2c-11.3-5.8-27.8-11.5-48.7-11.5c-37.4,0-70.5,25.1-70.5,80.4c0,47.8,26.2,81.2,72.2,81.2
				c17.2,0,36.1-4.1,46.7-9.5L1121,1521.7z"/>
			<path d="M1224.7,1462.4l-14.2,67.6h-65.9l70.5-277.8h85.4l75.1,277.8h-69.5l-16.6-67.6H1224.7z M1279.9,1405.5l-11.9-49
				c-4-15.7-8.6-35.9-12.6-51.9h-0.7c-3.6,16.1-7,36.3-10.6,52.3l-10.6,48.6H1279.9z"/>
			<path d="M1422.9,1315.7H1360v-63.5h189.7v63.5h-64.2V1530h-62.6V1315.7z"/>
		</g>
	</g>
</g>
</svg>
