<svg id="Layer_1" data-name="Layer 1" xmlns="http://www.w3.org/2000/svg" viewBox="0 0 100 100"><defs><style>.cls-1{fill:#fff;}.cls-2{fill:#f16039;}.cls-3{fill:#f7b03f;}.cls-4{fill:#e8343b;}.cls-5{fill:#383535;}</style></defs><title>ubuntu</title><g id="Layer_1-2" data-name="Layer_1"><path class="cls-1" d="M3.0879,58.118C1.3852,58.118,0,56.3372,0,54.1483s1.3852-3.97,3.0879-3.97,3.0877,1.7808,3.0877,3.97S4.7905,58.118,3.0879,58.118Zm16.387-4.9857c-.3015-3.2266-2.5308-5.66-5.1856-5.66a4.29,4.29,0,0,0-2.1552.5806l-.423.2421L9.082,42.6192l.6339-.3949a8.5454,8.5454,0,0,1,4.5734-1.3419,7.8244,7.8244,0,0,1,1.9262.2325l.5954.1483-.1379.8594c-.0047.0358-.0047.14-.0047.203,0,1.95,1.3172,3.536,2.9362,3.536a2.5546,2.5546,0,0,0,1.7293-.6855l.378-.341.3175.4539a14.7733,14.7733,0,0,1,2.55,7.5028l.0593.888-5.0953.1889Z"/><path class="cls-1" d="M19.7423,70.0878c-1.7026,0-3.0878-1.7808-3.0878-3.97s1.3852-3.97,3.0878-3.97,3.0878,1.7808,3.0878,3.97S21.445,70.0878,19.7423,70.0878ZM8.5811,64.6668h-.924l.2727-.5982A13.6376,13.6376,0,0,1,4.53,58.0665l-.186-.6679.4268-.3623a3.9466,3.9466,0,0,0-.1049-5.8631l-.4236-.3378.16-.6657A13.3264,13.3264,0,0,1,8.346,43.2829l.4474-.3948,2.7385,5.5365-.4906.4782A6.9417,6.9417,0,0,0,9.07,53.8784a7.0332,7.0332,0,0,0,1.9389,4.9573l.4615.4636L9.5274,63.5588l1.2557,1.0958-1.76.0106-.1263.2768Z"/><path class="cls-1" d="M14.309,66.8743A8.5874,8.5874,0,0,1,9.82,65.5852l-.644-.3891,2.6253-5.6674.4141.2148a4.5249,4.5249,0,0,0,2.0935.5407c2.672,0,4.901-2.4511,5.1849-5.7014l.064-.7342,5.09.0942-.0465.8284v.8065l-.0631.0012a14.5351,14.5351,0,0,1-2.7832,7.2816l-.2735.3583-.3357-.2173a2.55,2.55,0,0,0-1.3844-.4194,3.2516,3.2516,0,0,0-2.9384,3.2908l-.0382.6266-.4232.1155A7.7022,7.7022,0,0,1,14.309,66.8743ZM19.6045,46.32c-1.7026,0-3.0877-1.7808-3.0877-3.97s1.3851-3.97,3.0877-3.97,3.0879,1.7808,3.0879,3.97S21.3071,46.32,19.6045,46.32Z"/><path class="cls-1" d="M76.1431,63.0481c-1.2729,0-2.0638-1.1169-2.0638-2.9151V54.2464c0-1.9028-.505-2.7512-1.6371-2.7512-.7621,0-1.6367.3126-1.6367,2.7512V60.133c0,1.7982-.791,2.9151-2.0642,2.9151s-2.0641-1.1169-2.0641-2.9151V55.08c0-5.6126,2.04-8.7037,5.7453-8.7037h.0394c3.7586,0,5.7454,3.01,5.7454,8.7037V60.133C78.2073,61.9312,77.4163,63.0481,76.1431,63.0481Zm18.0722-.0247c-3.7051,0-5.7456-3.091-5.7456-8.7035V49.2672c0-1.8252.7715-2.915,2.0641-2.915,1.2732,0,2.0641,1.117,2.0641,2.915v5.8866c0,2.4385.875,2.7514,1.6371,2.7514,1.132,0,1.6367-.8486,1.6367-2.7514V49.2672c0-1.798.791-2.915,2.0642-2.915S100,47.4692,100,49.2672V54.32c0,5.6939-1.9868,8.7035-5.7453,8.7035Zm-34.7069,0c-3.7051,0-5.7454-3.091-5.7454-8.7035V49.2672c0-1.8252.7715-2.915,2.0641-2.915,1.2732,0,2.0642,1.117,2.0642,2.915v5.8866c0,2.4385.8747,2.7514,1.6367,2.7514,1.1321,0,1.6371-.8486,1.6371-2.7514V49.2672c0-1.798.7909-2.915,2.0641-2.915s2.0642,1.117,2.0642,2.915V54.32c0,5.6125-2.0406,8.7035-5.7457,8.7035Zm-25.6117,0c-3.705,0-5.7455-3.091-5.7455-8.7035V49.2672c0-1.8252.7717-2.915,2.0642-2.915,1.2732,0,2.0641,1.117,2.0641,2.915v5.8866c0,2.4385.8748,2.7514,1.6369,2.7514,1.132,0,1.6369-.8486,1.6369-2.7514V49.2672c0-1.798.7909-2.915,2.0641-2.915s2.064,1.117,2.064,2.915V54.32c0,5.6125-2.04,8.7035-5.7453,8.7035Zm12.6582-.049c-3.483,0-5.4831-2.9034-5.49-7.9677V43.4539c0-1.7708.81-2.9149,2.0642-2.9149,1.4258,0,2.0641,1.464,2.0641,2.9149V46.845a4.788,4.788,0,0,1,2.129-.4928,4.5431,4.5431,0,0,1,3.7053,2.2746,10.7137,10.7137,0,0,1,1.5678,6.0526C52.5242,60.1058,50.4354,62.9744,46.5549,62.9744Zm37.923-.0118c-.1817,0-.3672-.0053-.555-.0129-2.111-.0665-3.1745-1.2171-3.4624-3.8834l-.0818.103-.02-1.7833V50.5142h-.0224a2.0379,2.0379,0,0,1-1.73-2.2037,2.0028,2.0028,0,0,1,1.7718-2.201V43.4784c0-1.8251.7715-2.9149,2.0641-2.9149,1.26,0,2.0317,1.0817,2.0639,2.8932l0,2.65h.7707a1.9956,1.9956,0,0,1,1.67,2.2035,2.0428,2.0428,0,0,1-2.1354,2.2045l-.3056-.0008V57.337c0,.9333.1056.9958.4107,1.0379.0072,0,.028.0016.0488.0016a2.2935,2.2935,0,0,0,.5463-.1061,3.2285,3.2285,0,0,1,.8459-.1459l.0779.0016c.776.0405,1.3514.7777,1.4693,1.8784a2.542,2.542,0,0,1-2.2239,2.8374A4.994,4.994,0,0,1,84.4779,62.9626Z"/><path class="cls-2" d="M3.0878,51.0086c1.378,0,2.52,1.3981,2.52,3.14,0,1.7169-1.1221,3.14-2.52,3.14-1.378,0-2.52-1.3981-2.52-3.14C.568,52.4313,1.69,51.0086,3.0878,51.0086Zm11.2211-9.2962a7.3825,7.3825,0,0,1,1.8112.2208,2.6189,2.6189,0,0,0-.02.3924c0,2.4038,1.5749,4.3661,3.5041,4.3661a2.9851,2.9851,0,0,0,2.0277-.8095,13.8361,13.8361,0,0,1,2.382,6.9906l-3.9766.1472c-.3346-3.5812-2.7954-6.3774-5.7483-6.3774a4.6875,4.6875,0,0,0-2.3624.6377L9.9386,42.9879a8.1808,8.1808,0,0,1,4.3507-1.2755Z"/><path class="cls-3" d="M19.7423,62.9784c1.3781,0,2.52,1.3981,2.52,3.14,0,1.717-1.1222,3.14-2.52,3.14-1.378,0-2.52-1.3981-2.52-3.14C17.2225,64.4011,18.3446,62.9784,19.7423,62.9784Zm-11.0046.8585a12.4579,12.4579,0,0,1-3.6813-6.083,4.9876,4.9876,0,0,0-.1181-7.3094,12.4732,12.4732,0,0,1,3.701-6.4509l2.0867,4.2188a7.9385,7.9385,0,0,0-2.2245,5.666A8.0207,8.0207,0,0,0,10.6867,59.52L8.7181,63.8369Z"/><path class="cls-4" d="M24.0339,54.7369a13.6255,13.6255,0,0,1-2.6576,7.5057,2.9542,2.9542,0,0,0-1.6143-.4906c-1.8505,0-3.3663,1.7906-3.5041,4.0472a7.371,7.371,0,0,1-1.949.2453,8.1873,8.1873,0,0,1-4.2719-1.2264l1.9883-4.2925a4.9394,4.9394,0,0,0,2.2836.5887c2.9726,0,5.4334-2.8208,5.7484-6.4264l3.9766.0736ZM19.6045,39.2105c1.3781,0,2.52,1.3981,2.52,3.14,0,1.7169-1.1222,3.14-2.52,3.14-1.378,0-2.52-1.3981-2.52-3.14C17.0847,40.6332,18.2068,39.2105,19.6045,39.2105Z"/><path class="cls-5" d="M33.8967,62.1935c-3.9176,0-5.1775-3.532-5.1775-7.8735V49.2671c0-1.1283.3741-2.0849,1.4962-2.0849,1.1024,0,1.4961.9812,1.4961,2.0849v5.8868c0,2.551.8662,3.5811,2.2049,3.5811,1.319,0,2.2048-1.03,2.2048-3.5811V49.2671c0-1.1037.3741-2.0849,1.4962-2.0849,1.1024,0,1.4961.9566,1.4961,2.0849V54.32c0,4.3415-1.26,7.8735-5.1774,7.8735Zm25.6117,0c-3.9175,0-5.1774-3.532-5.1774-7.8735V49.2671c0-1.1283.374-2.0849,1.4961-2.0849,1.1024,0,1.4962.9812,1.4962,2.0849v5.8868c0,2.551.8662,3.5811,2.2048,3.5811,1.319,0,2.2049-1.03,2.2049-3.5811V49.2671c0-1.1037.374-2.0849,1.4961-2.0849,1.1025,0,1.4962.9566,1.4962,2.0849V54.32c0,4.3415-1.26,7.8735-5.1775,7.8735Zm34.7068,0c-3.9176,0-5.1775-3.532-5.1775-7.8735V49.2671c0-1.1283.3741-2.0849,1.4962-2.0849,1.1024,0,1.4961.9812,1.4961,2.0849v5.8868c0,2.551.8662,3.5811,2.2049,3.5811,1.319,0,2.2048-1.03,2.2048-3.5811V49.2671c0-1.1037.3741-2.0849,1.4962-2.0849,1.1024,0,1.4961.9566,1.4961,2.0849V54.32c0,4.3415-1.24,7.8735-5.1774,7.8735ZM72.4226,47.2068c-3.9176,0-5.1775,3.532-5.1775,7.8735v5.0529c0,1.1037.374,2.0849,1.4962,2.0849,1.1024,0,1.4961-.9812,1.4961-2.0849V54.2464c0-2.551.8662-3.5812,2.2049-3.5812,1.3189,0,2.2048,1.03,2.2048,3.5812v5.8868c0,1.1037.3741,2.0849,1.4962,2.0849,1.1024,0,1.4961-.9566,1.4961-2.0849V55.08c0-4.3415-1.24-7.8735-5.1775-7.8735ZM46.7518,50.1992C48.9566,50.1747,49.35,53.02,49.37,54.59s-.3149,4.5867-2.6379,4.5867c-2.2639,0-2.3623-2.5018-2.4017-4.6113s.2953-4.3415,2.4017-4.366Zm-5.1184,4.8075V43.4539c0-1.1283.4331-2.0849,1.4961-2.0849,1.0434,0,1.4962.9812,1.4962,2.0849v4.6113a4.705,4.705,0,0,1,2.697-.883c2.54,0,4.764,3.017,4.705,7.4811-.0591,4.4887-1.5552,7.4812-5.4728,7.4812-2.6182,0-4.9215-1.84-4.9215-7.1623ZM80.927,57.386V49.6841h-.5906a1.3016,1.3016,0,0,1-1.1615-1.3736h0a1.2939,1.2939,0,0,1,1.2993-1.3736h.4725V43.4785c0-1.1283.374-2.0849,1.4962-2.0849,1.1024,0,1.4764.9811,1.4961,2.0849v3.4584h1.3387A1.2585,1.2585,0,0,1,86.38,48.3105h0c0,.8585-.61,1.3981-1.634,1.3736H83.939v7.6528c0,.76.0394,1.7415.9253,1.8642.4724.049,1.0039-.27,1.5552-.2453.4724.0245.8465.4415.9252,1.1774.0984.932-.5906,1.6188-1.7521,1.8886a6.0021,6.0021,0,0,1-1.6536.0981c-2.3427-.0735-2.9923-1.57-2.9923-4.7584Z"/></g></svg>