<?xml version="1.0" encoding="utf-8"?>
<!-- Generator: Adobe Illustrator 22.0.1, SVG Export Plug-In . SVG Version: 6.00 Build 0)  -->
<svg version="1.1" id="Layer_1" xmlns="http://www.w3.org/2000/svg" xmlns:xlink="http://www.w3.org/1999/xlink" x="0px" y="0px"
	 viewBox="0 0 362.99951 88.99992" enable-background="new 0 0 362.99951 88.99992" xml:space="preserve">
<g id="Layer_x0020_1">
	<g>
		<path fill="#FFFFFF" d="M18.73682,52.79102c-5.99561,0-10.87354-4.29102-10.87354-9.56543s4.87793-9.56543,10.87354-9.56543
			s10.87305,4.29102,10.87305,9.56543S24.73242,52.79102,18.73682,52.79102z M76.44141,40.77734
			c-1.06152-7.7749-8.91162-13.6377-18.26025-13.6377c-2.6665,0-5.22021,0.4707-7.58936,1.39893l-1.48926,0.5835l-9.2583-13.67725
			l2.23242-0.95166c5.0332-2.14551,10.45166-3.2334,16.10449-3.2334c2.37549,0,4.57178,0.18311,6.78271,0.56006l2.09668,0.35742
			l-0.48535,2.0708c-0.0166,0.08643-0.0166,0.33838-0.0166,0.48926c0,4.69824,4.63818,8.52051,10.33936,8.52051
			c2.2334,0,4.33887-0.57129,6.08936-1.65186l1.33105-0.82178l1.11816,1.09375c5.21729,5.10205,8.32275,11.354,8.98047,18.0791
			l0.20898,2.13965l-17.94238,0.45508L76.44141,40.77734z"/>
		<path fill="#FFFFFF" d="M77.3833,81.63379c-5.99561,0-10.87354-4.29102-10.87354-9.56543s4.87793-9.56543,10.87354-9.56543
			s10.87305,4.29102,10.87305,9.56543S83.37891,81.63379,77.3833,81.63379z M38.08057,68.57129h-3.25391l0.96045-1.44141
			c-5.44678-3.70117-9.6582-8.77344-11.9707-14.46289l-0.65479-1.60938l1.50293-0.87305
			c2.7627-1.60352,4.41162-4.20508,4.41162-6.95898c0-2.85547-1.7876-5.53564-4.78125-7.16895l-1.4917-0.81396l0.5625-1.604
			c2.35693-6.71924,7.28857-12.61279,13.88672-16.59473l1.57568-0.95117l9.64307,13.34082l-1.72754,1.15234
			c-4.4126,2.94434-6.94336,7.31396-6.94336,11.98926c0,4.61035,2.48828,8.96387,6.82764,11.94531l1.625,1.11719L41.4126,65.90137
			l4.42188,2.64063l-6.19824,0.02539l-0.44482,0.66699L38.08057,68.57129z"/>
		<path fill="#FFFFFF" d="M58.25049,73.89063c-5.50244,0-10.8208-1.04492-15.80713-3.10645l-2.26758-0.9375l9.24463-13.65625
			l1.45801,0.51758c2.43262,0.86426,4.91309,1.30273,7.37207,1.30273c9.40918,0,17.2583-5.90625,18.25781-13.73828l0.22559-1.76904
			l17.92529,0.22705l-0.16357,1.99609v1.94336l-0.22217,0.00293c-0.99268,6.55371-4.42773,12.72656-9.80078,17.5459
			l-0.96289,0.86328l-1.18213-0.52344c-1.49268-0.66113-3.17871-1.01074-4.875-1.01074c-5.40527,0-9.9502,3.4834-10.34717,7.92969
			L66.9707,72.9873l-1.49023,0.27832C63.22803,73.68652,60.86328,73.89063,58.25049,73.89063z M76.89795,24.36182
			c-5.99561,0-10.87305-4.29102-10.87305-9.56543s4.87744-9.56543,10.87305-9.56543s10.87354,4.29102,10.87354,9.56543
			S82.89355,24.36182,76.89795,24.36182z"/>
		<path fill="#FFFFFF" d="M275.99121,64.6709c-4.48242,0-7.26758-2.69141-7.26758-7.02441V43.46191
			c0-4.58496-1.77832-6.62939-5.76465-6.62939c-2.68359,0-5.76367,0.75342-5.76367,6.62939v14.18457
			c0,4.33301-2.78516,7.02441-7.26855,7.02441s-7.26855-2.69141-7.26855-7.02441v-12.1748
			c0-13.52441,7.18457-20.97266,20.23145-20.97266h0.13867c13.23535,0,20.23145,7.25244,20.23145,20.97266v12.1748
			C283.25977,61.97949,280.47461,64.6709,275.99121,64.6709z M339.62988,64.61133c-13.04688,0-20.23242-7.44824-20.23242-20.97217
			V31.46387c0-4.39795,2.7168-7.02393,7.26855-7.02393c4.4834,0,7.26855,2.69141,7.26855,7.02393v14.18457
			c0,5.87598,3.08105,6.62988,5.76465,6.62988c3.98633,0,5.76367-2.04492,5.76367-6.62988V31.46387
			c0-4.33252,2.78516-7.02393,7.26855-7.02393S360,27.13135,360,31.46387v12.17529c0,13.72021-6.99609,20.97217-20.23145,20.97217
			H339.62988z M217.41406,64.61133c-13.04688,0-20.23145-7.44824-20.23145-20.97217V31.46387
			c0-4.39795,2.7168-7.02393,7.26855-7.02393c4.4834,0,7.26855,2.69141,7.26855,7.02393v14.18457
			c0,5.87598,3.08008,6.62988,5.76367,6.62988c3.98633,0,5.76465-2.04492,5.76465-6.62988V31.46387
			c0-4.33252,2.78516-7.02393,7.26855-7.02393s7.26855,2.69141,7.26855,7.02393v12.17529
			c0,13.52393-7.18555,20.97217-20.23242,20.97217H217.41406z M127.22607,64.61133c-13.04688,0-20.23193-7.44824-20.23193-20.97217
			V31.46387c0-4.39795,2.71729-7.02393,7.26855-7.02393c4.4834,0,7.26855,2.69141,7.26855,7.02393v14.18457
			c0,5.87598,3.08057,6.62988,5.76416,6.62988c3.98633,0,5.76416-2.04492,5.76416-6.62988V31.46387
			c0-4.33252,2.78516-7.02393,7.26855-7.02393c4.48291,0,7.26807,2.69141,7.26807,7.02393v12.17529
			c0,13.52393-7.18506,20.97217-20.23145,20.97217H127.22607z M171.80029,64.49316c-12.26514,0-19.30811-6.99609-19.33057-19.19922
			V17.45605c0-4.26709,2.85303-7.02393,7.26855-7.02393c5.021,0,7.26855,3.52783,7.26855,7.02393v8.17139
			c2.44043-0.80518,4.87891-1.1875,7.49707-1.1875c4.94727,0,9.58105,1.94629,13.04785,5.48096
			c3.66895,3.74072,5.62988,8.92041,5.52051,14.58447C192.82031,57.58105,185.46484,64.49316,171.80029,64.49316z
			 M305.34082,64.46484c-0.63965,0-1.29297-0.0127-1.9541-0.03125c-7.43359-0.16016-11.17871-2.93262-12.19238-9.35742
			l-0.28809,0.24805l-0.06934-4.29688V34.46875h-0.0791c-3.30176,0-6.09082-2.43164-6.09082-5.31006
			c0-2.98535,2.60352-5.17627,6.23926-5.30371v-6.33984c0-4.39795,2.7168-7.02393,7.26855-7.02393
			c4.4375,0,7.1543,2.60645,7.26758,6.97168l0.00098,6.38623h2.71387c3.24316,0,5.88184,2.38184,5.88184,5.30957
			c0,2.4502-1.96973,5.31201-7.51953,5.31201l-1.07617-0.00195v16.44043c0,2.24902,0.37207,2.39941,1.44629,2.50098
			c0.02539,0.00098,0.09863,0.00391,0.17188,0.00391c0.5459,0,1.21582-0.12402,1.92383-0.25586
			c0.89258-0.16504,1.90332-0.35156,2.97852-0.35156l0.27441,0.00391c2.73242,0.09766,4.75879,1.87402,5.17383,4.52637
			c0.19824,1.28418,0.21484,5.55664-7.83105,6.83691C308.41797,64.37109,307.06445,64.46484,305.34082,64.46484z"/>
	</g>
	<g>
		<path fill="#F15F39" d="M18.73658,35.66016c4.85256,0,8.87326,3.36893,8.87326,7.56532c0,4.13729-3.95137,7.56532-8.87326,7.56532
			c-4.85256,0-8.87326-3.36893-8.87326-7.56532C9.86332,39.0882,13.81469,35.66016,18.73658,35.66016z M58.2503,13.25971
			c2.21832,0,4.29799,0.17731,6.37766,0.53194c-0.06932,0.29552-0.06932,0.65014-0.06932,0.94566
			c0,5.7922,5.54578,10.52053,12.33937,10.52053c2.70357,0,5.12985-0.70925,7.1402-1.95044
			c4.71392,4.61012,7.7641,10.46142,8.388,16.84466L78.4231,40.50669c-1.17848-8.62919-9.84377-15.36706-20.24212-15.36706
			c-2.98086,0-5.75375,0.53194-8.31868,1.53671l-7.00155-10.34321c4.57527-1.95043,9.77444-3.07341,15.32023-3.07341H58.2503z"/>
		<path fill="#F7B03D" d="M77.38326,64.50294c4.85256,0,8.87326,3.36893,8.87326,7.56532c0,4.13728-3.95137,7.56532-8.87326,7.56532
			c-4.85256,0-8.87325-3.36893-8.87325-7.56532C68.51,67.93098,72.46137,64.50294,77.38326,64.50294z M38.63208,66.57159
			c-5.96172-3.54624-10.53699-8.6883-12.96327-14.65781c3.25815-1.89133,5.40714-5.08295,5.40714-8.6883
			c0-3.78266-2.35696-7.03338-5.82307-8.92471c2.21832-6.32414,6.86291-11.82082,13.03259-15.54437l7.34817,10.1659
			c-4.78324,3.19162-7.83342,8.15636-7.83342,13.65304s3.05018,10.40232,7.69478,13.59394l-6.93223,10.40231H38.63208z"/>
		<path fill="#E8333A" d="M92.49552,44.64398c-0.55458,6.97428-4.02069,13.29842-9.35851,18.08585
			c-1.73306-0.76835-3.67408-1.18208-5.68443-1.18208c-6.5163,0-11.85412,4.3146-12.33938,9.75217
			c-2.21831,0.41373-4.50595,0.59103-6.86291,0.59103c-5.40714,0-10.46767-1.06387-15.04294-2.9552l7.00155-10.34321
			c2.49561,0.88656,5.19917,1.4185,8.04139,1.4185c10.46767,0,19.13296-6.79697,20.24212-15.48527l14.00311,0.17731V44.64398z
			 M76.898,7.2311c4.85256,0,8.87325,3.36893,8.87325,7.56532c0,4.13729-3.95137,7.56532-8.87325,7.56532
			c-4.85256,0-8.87326-3.36893-8.87326-7.56532C68.02474,10.65913,71.97612,7.2311,76.898,7.2311z"/>
		<path fill="#373435" d="M127.22601,62.61162c-13.79514,0-18.23177-8.51099-18.23177-18.97241V31.46377
			c0-2.71879,1.31712-5.02385,5.2685-5.02385c3.88205,0,5.26849,2.36416,5.26849,5.02385v14.18498
			c0,6.14682,3.05018,8.6292,7.7641,8.6292c4.6446,0,7.76411-2.48237,7.76411-8.6292V31.46377
			c0-2.65968,1.31712-5.02385,5.26849-5.02385c3.88205,0,5.26849,2.30506,5.26849,5.02385v12.17544
			c0,10.46142-4.43663,18.97241-18.23177,18.97241H127.22601z M217.41434,62.61162c-13.79514,0-18.23177-8.51099-18.23177-18.97241
			V31.46377c0-2.71879,1.31712-5.02385,5.26849-5.02385c3.88205,0,5.26849,2.36416,5.26849,5.02385v14.18498
			c0,6.14682,3.05019,8.6292,7.7641,8.6292c4.64459,0,7.7641-2.48237,7.7641-8.6292V31.46377
			c0-2.65968,1.31712-5.02385,5.26849-5.02385c3.88205,0,5.26851,2.30506,5.26851,5.02385v12.17544
			c0,10.46142-4.43663,18.97241-18.23178,18.97241H217.41434z M339.62958,62.61162c-13.79514,0-18.23175-8.51099-18.23175-18.97241
			V31.46377c0-2.71879,1.31711-5.02385,5.26849-5.02385c3.88205,0,5.26849,2.36416,5.26849,5.02385v14.18498
			c0,6.14682,3.05017,8.6292,7.7641,8.6292c4.64459,0,7.7641-2.48237,7.7641-8.6292V31.46377
			c0-2.65968,1.31711-5.02385,5.26849-5.02385c3.88205,0,5.26849,2.30506,5.26849,5.02385v12.17544
			c0,10.46142-4.36731,18.97241-18.23178,18.97241H339.62958z M262.88977,26.49903c-13.79514,0-18.23177,8.51099-18.23177,18.97241
			v12.17544c0,2.65968,1.31712,5.02385,5.26851,5.02385c3.88205,0,5.26849-2.36416,5.26849-5.02385V43.46189
			c0-6.14682,3.05017-8.62919,7.7641-8.62919c4.64459,0,7.7641,2.48237,7.7641,8.62919v14.18498
			c0,2.65968,1.31711,5.02385,5.26849,5.02385c3.88205,0,5.26849-2.30506,5.26849-5.02385V45.47144
			c0-10.46142-4.36731-18.97241-18.23178-18.97241H262.88977z M172.49348,33.70972c7.7641-0.0591,9.15054,6.79697,9.21986,10.57963
			s-1.10916,11.05246-9.2892,11.05246c-7.97206,0-8.31866-6.02862-8.45732-11.11157
			c-0.13864-5.08295,1.03984-10.46142,8.45732-10.52052H172.49348z M154.46968,45.29412V17.4561
			c0-2.71879,1.52509-5.02385,5.26849-5.02385c3.67407,0,5.26849,2.36416,5.26849,5.02385v11.11157
			c2.56493-1.18208,5.61511-2.12775,9.49716-2.12775c8.94258,0,16.776,7.2698,16.56802,18.02674
			c-0.20796,10.81604-5.47646,18.02674-19.27161,18.02674c-9.21986,0-17.33057-4.4328-17.33057-17.25839V45.29412z
			 M292.83704,51.02722V32.46854h-2.07968c-2.14899,0-4.09003-1.4776-4.09003-3.30983l0,0c0-1.83223,1.8024-3.30983,4.57529-3.30983
			h1.66373v-8.33367c0-2.71879,1.31714-5.02385,5.26849-5.02385c3.88205,0,5.19919,2.36416,5.26849,5.02385v8.33367h4.71393
			c2.14899,0,3.88205,1.4776,3.88205,3.30983l0,0c0,2.06864-2.14899,3.36893-5.75375,3.30983h-2.84222v18.44047
			c0,1.83223,0.13864,4.19639,3.25815,4.49191c1.66376,0.11821,3.53543-0.65015,5.47647-0.59104
			c1.66373,0.0591,2.98087,1.06387,3.25815,2.83699c0.34662,2.24596-2.07968,3.90087-6.16968,4.55101
			c-1.73306,0.29552-3.74341,0.29552-5.82309,0.23642c-8.24936-0.17731-10.53699-3.78266-10.53699-11.46619L292.83704,51.02722z"/>
	</g>
</g>
</svg>
