<?xml version="1.0" encoding="utf-8"?>
<!-- Generator: Adobe Illustrator 22.0.1, SVG Export Plug-In . SVG Version: 6.00 Build 0)  -->
<svg version="1.1" id="Layer_1" xmlns="http://www.w3.org/2000/svg" xmlns:xlink="http://www.w3.org/1999/xlink" x="0px" y="0px"
	 viewBox="0 0 256 221" style="enable-background:new 0 0 256 221;" xml:space="preserve">
<style type="text/css">
	.st0{fill:#41B883;}
	.st1{fill:#35495E;}
	.st2{display:none;}
	.st3{display:inline;fill:#FFFFFF;}
	.st4{fill:#FCFCFC;}
</style>
<g>
	<path class="st0" d="M185,0h39l-97.5,162.4L29,0h38.5h36.1l22.9,37.6L148.9,0H185z"/>
	<path class="st0" d="M29,0l97.5,162.4L224,0h-39l-58.5,97.5L67.5,0H29z"/>
	<path class="st1" d="M67.5,0l59,97.9L185,0h-36.1l-22.4,37.6L103.6,0H67.5z"/>
</g>
<g>
	<g class="st2">
		<polygon class="st3" points="63.2,211.6 48.6,176.1 68.7,176.1 71.9,184.6 75,176.1 94.9,176.1 79.9,211.6 		"/>
		<path class="st3" d="M104.5,212c-11.8,0-18.6-6.4-18.6-17.4v-18.4h18.4V195c0,0.8,0.1,1.3,0.2,1.5c0.1,0,0.2,0,0.3,0
			c0.2,0,0.3,0,0.4,0c0.1-0.2,0.2-0.7,0.2-1.5v-18.8h18.4v18.6C123.8,205.6,116.6,212,104.5,212z"/>
		<polygon class="st3" points="119.5,211.6 119.5,176.1 150.8,176.1 150.8,191.9 150,191.9 150,195.8 151.4,195.8 151.4,211.6 		"/>
		<path class="st3" d="M163.5,212c-1,0-4.4-0.1-7.3-0.9l-4.3-1.2l2.5-15.4l5.2,1.2c0.9,0.2,1.8,0.3,2.6,0.4v-20h18.4v20.3
			C180.6,206.3,174.4,212,163.5,212z"/>
		<path class="st3" d="M190,212c-4.7,0-9.2-1.1-11.7-2.1l-4.1-1.8l3.7-12.5c-1.9-2.3-2.4-4.8-2.4-7c0-7.7,7.3-13,17.6-13
			c4.1,0,7.6,0.5,10.8,1.7l4.6,1.7l-3.9,11.3c2.5,2.2,3.7,5,3.7,8.4C208.5,204.9,203.7,212,190,212z"/>
	</g>
	<g>
		<g>
			<path class="st4" d="M64.5,209.6l-12.9-31.4h15.7c0,0,4.5,12,4.5,12.2c0-0.1,4.6-12.2,4.6-12.2h15.4l-13.3,31.4H64.5z"/>
			<path class="st4" d="M104.5,210c-10.7,0-16.6-5.5-16.6-15.4v-16.4h14.4V195c0,3.6,1.5,3.6,2.5,3.6c1.2,0,2.5,0,2.5-3.6v-16.8
				h14.4v16.6C121.8,204.5,115.5,210,104.5,210z"/>
			<polygon class="st4" points="121.5,209.6 121.5,178.1 148.8,178.1 148.8,189.9 148,189.9 148,197.8 149.4,197.8 149.4,209.6 			
				"/>
			<path class="st4" d="M163.5,210c-1.9,0-4.7-0.2-6.8-0.8l-2.6-0.7L156,197l3.1,0.7c1.1,0.3,2.3,0.4,3.3,0.4c1.5,0,1.7,0,1.7-1.8
				v-18.2h14.4v18.3C178.6,202.6,176,210,163.5,210z"/>
			<path class="st4" d="M190,210c-4.4,0-8.6-1-10.9-2l-2.4-1.1l3.4-11.6l0.7,0.3c-2.2-1.9-3.3-4.2-3.3-7c0-6.5,6.4-11,15.6-11
				c3.9,0,7.1,0.5,10.2,1.6l2.8,1l-3.7,10.8c2.2,1.6,4.1,4.1,4.1,7.8C206.5,204,202.2,210,190,210z"/>
		</g>
		<g>
			<path d="M66.5,206.6l-10.5-25.4h9.2l3.6,9.8c1.1,2.9,2,5.7,2.9,9.1h0.1c0.8-3.2,1.9-6.1,2.9-8.9l3.8-10h8.8l-10.8,25.4H66.5z"/>
			<path d="M99.3,181.1V195c0,4,1.7,6.6,5.5,6.6s5.5-2.4,5.5-6.6v-13.8h8.4v13.6c0,8.3-5.2,12.3-14.3,12.3
				c-8.6,0-13.6-3.7-13.6-12.4v-13.4H99.3z"/>
			<path d="M145,196.5h-12.2v4.3h13.6v5.7h-22v-25.4h21.3v5.7h-12.9v3.9H145V196.5z"/>
			<path d="M167.2,181.1h8.4v15.3c0,7.2-3.9,10.6-12.1,10.6c-1.7,0-4.2-0.2-6-0.7l0.9-5.7c1.1,0.3,2.6,0.5,4,0.5
				c3,0,4.7-1.1,4.7-4.8V181.1z"/>
			<path d="M182,199.5c2,0.8,5.2,1.8,8.6,1.8c2.8,0,4.2-0.8,4.2-2c0-1.1-1.4-1.8-5-2.7c-5.1-1.2-9.3-3.4-9.3-7.8c0-4.6,4.9-8,12.6-8
				c4.1,0,6.8,0.6,9.1,1.4l-1.9,5.6c-1.4-0.5-3.9-1.3-7.4-1.3c-2.5,0-3.9,0.7-3.9,1.8c0,1.4,1.9,1.8,5.8,2.9c5.8,1.6,8.6,4,8.6,7.8
				c0,4.3-3.9,8.2-13.5,8.2c-3.9,0-7.8-0.9-9.7-1.7L182,199.5z"/>
		</g>
	</g>
</g>
</svg>
