<svg id="Layer_1" data-name="Layer 1" xmlns="http://www.w3.org/2000/svg" viewBox="0 0 100 100"><defs><style>.cls-1{fill:#fff;}.cls-2{fill:#010101;}.cls-3{fill:#fdfeff;}.cls-4{fill:#a01e22;}</style></defs><title>websphere</title><path class="cls-1" d="M27.3073,60.5152c-3.8247,0-6.2983-4.9429-6.2983-12.59,0-.17,0-.3392.0041-.5087L19.1922,59.7776H14.615l-2.3405-16.83-2.6233,16.83H5.0823L.397,25.66h4.91L7.6349,44.4316l2.8062-18.78h3.7083L16.7768,44.44,19.3,25.6517h4.914L22.0649,40.2432a12.0946,12.0946,0,0,1,.6361-1.56C23.7861,36.47,25.2869,35.3,27.0454,35.3c1.8375,0,3.3633,1.2379,4.4109,3.5864a24.197,24.197,0,0,1,1.5715,9.5214v1.6533H25.47c.1164,2.1535.715,3.2048,1.8167,3.2048.661,0,1.056-.4578,1.3553-1.577l.1206-.4409h4.2321l-.1122,1.0344a12.9694,12.9694,0,0,1-2.1078,6.2656A4.3475,4.3475,0,0,1,27.3073,60.5152Zm1.3844-16.66c-.2785-1.0767-.8356-1.7889-1.4634-1.7889-.7234,0-1.28.6528-1.5631,1.7889Z"/><path class="cls-1" d="M40.5068,60.1337a3.2349,3.2349,0,0,1-2.69-1.8568v1.1276H33.3853L33.3811,22.006H37.817V36.6822a3.4447,3.4447,0,0,1,2.7355-1.772c1.5507,0,2.9683,1.3481,3.991,3.7984a23.5564,23.5564,0,0,1,1.5174,8.7922,23.58,23.58,0,0,1-1.53,8.8345C43.4959,58.7856,42.07,60.1337,40.5068,60.1337Zm-.91-16.7365c-1.3137,0-1.9,2.0857-1.9,4.146,0,2.4842.7442,4.0951,1.9,4.0951s1.9-1.6109,1.9-4.0951C41.4962,45.4829,40.9059,43.3972,39.5963,43.3972Z"/><path class="cls-1" d="M56.6953,71.2235V51.2059A17.3179,17.3179,0,0,1,55.2611,57.31c-.9562,2.0263-2.2408,3.137-3.6169,3.137-2.5567,0-4.5439-3.561-5.0594-9.08l-.0707-.7545,2.4487-1.4838.0665.9835c.2037,3.1116,1.2638,5.2821,2.5775,5.2821,1.4634,0,2.6524-2.4587,2.6524-5.4771a6.6481,6.6481,0,0,0-2.457-5.63l-.0582-.0593-.91-.8648C49.0708,41.6252,47.35,39.4971,47.35,34.3a14.4646,14.4646,0,0,1,1.3927-6.6387c.8481-1.5939,1.9872-2.4672,3.2011-2.4672,1.8209,0,3.3633,2.0009,4.2322,5.5025l.1663.6614-2.0038,2.7979-.22-.8309c-.5862-2.2214-1.2056-3.0862-2.2117-3.0862-1.1557,0-2.0578,1.84-2.0578,4.1884a5.434,5.434,0,0,0,2.0911,4.2985l.9977.9581a11.2683,11.2683,0,0,1,2.6441,3.5016A13.4216,13.4216,0,0,1,56.7037,47.95V37.971h2.4112l.0042,1.5939c.7774-1.4074,1.7544-2.162,2.8353-2.162,1.4051,0,2.6773,1.2718,3.5752,3.5779a19.2623,19.2623,0,0,1,1.0934,4.6123V22.7012h2.4154V39.124a2.7374,2.7374,0,0,1,2.2824-1.7126c1.3386,0,2.32,1.0174,2.9059,3.0268a20.5381,20.5381,0,0,1,.6527,5.0193,19.2163,19.2163,0,0,1,1.0394-4.5021c.8938-2.3146,2.1618-3.544,3.675-3.544,1.3221,0,2.4736.975,3.3342,2.8318a15.905,15.905,0,0,1,1.1807,4.18V37.971h2.4154v.78c.424-.8139.9354-1.3481,1.6837-1.3481A2.2785,2.2785,0,0,1,89.85,38.48l.32.3985-.47,1.967c.89-2.2468,2.1451-3.4338,3.6334-3.4338,1.3179,0,2.4736.975,3.33,2.8233a22.39,22.39,0,0,1,1.5008,9.4705l-.0208.8054-7.2629-.0084c.183,2.9759,1.2264,5.0531,2.6067,5.0531,1.031,0,1.8167-1.1785,2.4653-3.7135l.2078-.8055,2.0537,2.5605-.17.6952c-.9728,3.968-2.6316,6.1469-4.6687,6.1469-1.4384,0-2.7272-1.1785-3.6335-3.3235A21.1551,21.1551,0,0,1,88.4032,49.18a28.5725,28.5725,0,0,1,.5363-5.706l-.3035-.4494c-.0416-.0678-.0832-.1271-.1247-.1865-.2536-.39-.3659-.5511-.5821-.5511-.9728,0-1.4051,2.0433-1.4051,6.6387V59.8878H84.1087v-4.85c-.9936,3.4932-2.5651,5.4008-4.4691,5.4008-1.4385,0-2.7272-1.1785-3.6335-3.3235a17.1612,17.1612,0,0,1-1.1017-4.29v7.0625H72.489V47.6364c0-3.6966-.2245-5.3414-1.5424-5.3414-1.5839,0-1.904,2.7385-1.904,7.1558v10.437H66.6105v-7.495a18.5266,18.5266,0,0,1-1.085,4.57c-.9022,2.2638-2.1493,3.4593-3.6086,3.4593-1.0559,0-2.0412-.7631-2.81-2.1366v12.93H56.6953ZM77.141,50.5021c.1829,2.976,1.2264,5.0532,2.6066,5.0532,1.0311,0,1.8168-1.1785,2.4653-3.7136l.2079-.8054,1.6837,2.0942v-2.62ZM61.6467,42.2865c-1.7,0-2.6191,3.3066-2.6191,6.4182,0,3.2981.8231,6.8506,2.6316,6.8506,1.8625,0,2.6939-3.4168,2.6939-6.8082C64.3614,45.5338,63.5217,42.2865,61.6467,42.2865Zm33.907,3.5949c-.3409-2.1027-1.2222-3.5949-2.2075-3.5949-1.01,0-1.9622,1.5431-2.3073,3.5949Zm-13.744,0c-.3409-2.1027-1.2223-3.5949-2.2076-3.5949-1.01,0-1.9622,1.5431-2.3073,3.5949Z"/><rect class="cls-1" x="2.0433" y="67.6032" width="95.4644" height="11.4883"/><path class="cls-1" d="M65.5671,77.4467c-1.3054,0-2.2492-1.7465-2.2492-4.1544a5.54,5.54,0,0,1,.7193-2.8912,1.6467,1.6467,0,0,1,3.0639,0,5.58,5.58,0,0,1,.7151,2.8912C67.812,75.7,66.8683,77.4467,65.5671,77.4467Zm-.0042-4.8836c-.3035,0-.52.4409-.52.7376,0,.5342.2245.9412.52.9412s.52-.407.52-.9412C66.0826,72.97,65.8539,72.5631,65.5629,72.5631ZM29.5315,77.4467c-1.3054,0-2.2491-1.7465-2.2491-4.1544a5.5408,5.5408,0,0,1,.7192-2.8912,1.9007,1.9007,0,0,1,1.534-1.0428A1.9007,1.9007,0,0,1,31.07,70.4011a5.5811,5.5811,0,0,1,.7192,2.8912C31.7847,75.7,30.8369,77.4467,29.5315,77.4467Zm.0041-4.8836c-.3118,0-.52.4409-.52.7376,0,.5342.2245.9412.52.9412s.52-.407.52-.9412C30.0594,72.97,29.8266,72.5631,29.5356,72.5631Zm30.7392,4.85c-.4864,0-.9063-.4409-1.189-1.2294l-.212-.6019,1.0809-2.0773.1372.3392V69.5617h1.6962v4.8921C61.7922,76.2513,61.1977,77.4128,60.2748,77.4128Zm10.93-.0085a1.5341,1.5341,0,0,1-1.3719-.8733,5.8029,5.8029,0,0,1-.4906-2.7555V69.5617h1.6962v4.0019a2.6789,2.6789,0,0,0,.0457.7376.161.161,0,0,0,.1247.0424c.079,0,.1164-.0255.1206-.0424a2.7405,2.7405,0,0,0,.0457-.7376V69.5617h1.692v4.2138a5.9094,5.9094,0,0,1-.4822,2.7555A1.5525,1.5525,0,0,1,71.2044,77.4043Zm-18.5915,0a1.8284,1.8284,0,0,1-1.3844-.8139l-.3409-.4409.6277-2.145a3.5538,3.5538,0,0,1-.3492-1.7466c0-1.6618.6569-2.8657,1.559-2.8657a1.8356,1.8356,0,0,1,1.2223.585l.3866.3985-.5571,2.0433a3.1583,3.1583,0,0,1,.5405,1.9755,4.1459,4.1459,0,0,1-.5114,2.2892A1.4059,1.4059,0,0,1,52.6129,77.4043ZM38.2161,77.26V69.57h2.7147v3.0184h-.054v1.6533h.054V77.26Zm-4.8848,0V69.5617h1.7336c1.0143,0,1.6213,1.0514,1.6213,2.8234,0,1.8313-.5779,2.8827-1.5922,2.8827h-.0707V77.26Zm-14.4259,0V69.57H21.62v3.0184h-.05v1.6533h.05V77.26Zm-9.7157,0V69.57h2.7148v3.0184h-.05v1.6533h.05V77.26Zm81.7952-.0085v-7.69H92.681v4.6717h1.0311v3.0183Zm-3.0266,0-.2161-1.0428h-.6444l-.2245,1.0428H85.0524l1.638-7.69h1.4883l1.6,7.69Zm-5.5583,0-.9853-2.2892v2.2892h-1.692v-7.69H81.19l.9853,2.2892V69.5617h1.692v7.69Zm-5.7579,0-.1912-.5426v.5426h-1.692v-7.69h1.7045c.9686,0,1.5673,1.0259,1.5673,2.6877a3.9359,3.9359,0,0,1-.4615,2.0009l1.2721,3.0014Zm-32.1526,0-.1913-.5426v.5426h-1.692v-7.69h1.7045c.9687,0,1.5673,1.0259,1.5673,2.6877a3.937,3.937,0,0,1-.4614,2.0009l1.2721,3.0014Zm-21.1857,0v-7.69H25l-.0042,4.6717H26.031v3.0183Zm-8.5225,0-1.7876-7.69h1.8625l.5321,2.4164.5363-2.4164h1.8625l-1.8126,7.69Zm-10.8714,0v-7.69h1.638A1.7912,1.7912,0,0,1,7.0071,70.63a5.7457,5.7457,0,0,1,.64,2.7725c0,2.12-.94,3.8492-2.0995,3.8492ZM5.602,74.191c.3159-.1441.3159-.6105.3159-.7885,0-.4239-.1081-.6868-.3159-.7885Zm41.702-.3052.9395-4.3241h1.771l-1.33,4.3241Z"/><path class="cls-2" d="M7.5809,47.45h.0374l3.13-20.95h3.0889l2.9309,20.95h.0374l2.81-20.95h4.0409L18.8846,58.93H14.9268L12.3119,40.133h-.0374L9.3436,58.93H5.4024L.9458,26.5081H4.9867Zm25.0353,1.7635H25.0333c0,3.1879.7732,4.9006,2.2574,4.9006.7732,0,1.3262-.56,1.7211-2.0179H32.479c-.5737,5.2058-2.8519,7.5713-5.1675,7.5713-3.3675,0-5.8826-4.129-5.8826-11.7427,0-7.3508,2.32-11.7851,5.6248-11.7851,3.5254,0,5.5667,4.731,5.5667,12.26v.8139Zm-3.3466-4.51c-.1788-2.1112-1.0685-3.4847-2.0371-3.4847-1.0518,0-1.9207,1.204-2.141,3.4847Z"/><path class="cls-3" d="M27.3115,60.0212c-3.679,0-6.0562-4.7482-6.0562-12.0966,0-7.3741,2.276-12.1389,5.7984-12.1389,1.7672,0,3.2311,1.1833,4.2335,3.4219A23.379,23.379,0,0,1,32.7939,48.4v1.1678H25.21c.0537,2.7829.7529,4.1928,2.0806,4.1928.7516,0,1.2209-.5488,1.5692-1.8351l.05-.1828h3.7865l-.0476.4315C32.0106,57.96,29.4734,60.0212,27.3115,60.0212Zm-.2578-23.5277c-3.3115,0-5.4513,4.487-5.4513,11.4311,0,7.0249,2.1876,11.3888,5.7091,11.3888,1.9724,0,4.2763-1.8137,4.9459-6.8635H29.1121c-.4049,1.3755-.9863,2.0179-1.8214,2.0179-1.5677,0-2.431-1.866-2.431-5.2543V48.86h7.5871V48.4C32.4468,40.9444,30.4307,36.4935,27.0537,36.4935Zm-8.04,22.79h-4.218L12.2848,41.2345,9.4705,59.2837h-4.2L.7169,26.1542H5.1218L7.6135,46.2681,10.62,26.1458h3.3484l2.8155,20.1259,2.7-20.1259H23.89Zm-3.9557-.7078h3.6975L23.424,26.8535H19.7487l-2.81,20.95h-.3007l-2.9309-20.95H10.8772l-3.13,20.95h-.301L4.8516,26.8619H1.1747L5.534,58.5759H9.2167l2.9308-18.7968h.2956ZM29.4756,45.0568H24.8805l.0407-.4223c.2246-2.3255,1.11-3.77,2.3113-3.77,1.094,0,2.0226,1.589,2.208,3.7784Zm-4.1634-.7078h3.74c-.2306-1.632-.9654-2.7769-1.8195-2.7769C26.2673,41.5721,25.5635,42.6011,25.3122,44.349Z"/><path class="cls-2" d="M33.7969,22.8539h3.6044V38.6408c.7732-1.9416,1.9788-2.8827,3.1512-2.8827,3.01,0,5.0886,5.4177,5.0886,11.7427,0,6.3673-2.0995,11.785-5.13,11.785-1.1848,0-2.4154-.9835-3.0681-3.1794h-.0374v2.45H33.801l-.0041-35.7028Zm3.4838,24.6893c0,2.7979.8522,4.9429,2.3156,4.9429s2.3156-2.145,2.3156-4.9429c0-2.7132-.8522-4.9939-2.3156-4.9939C38.1371,42.5493,37.2807,44.83,37.2807,47.5432Z"/><path class="cls-2" d="M54.4753,32.9263c-.5945-2.2383-1.3095-3.5271-2.5775-3.5271-1.3262,0-2.4736,2.0688-2.4736,5.0363a6.37,6.37,0,0,0,2.3323,5.07l.9894.95c1.9415,1.8483,3.5836,3.9594,3.5836,9.1228C56.33,55.2586,54.23,59.6,51.6359,59.6c-2.3946,0-4.1823-3.3574-4.652-8.3936l1.6255-.9835c.22,3.3066,1.3844,6.02,2.9891,6.02s3.0681-2.6707,3.0681-6.325a7.6,7.6,0,0,0-2.7522-6.4521l-.91-.8648c-1.7461-1.7211-3.2469-3.6542-3.2469-8.3,0-5.0277,1.9581-8.258,4.1781-8.258,1.6629,0,3.0681,1.8483,3.8622,5.0362l-1.3221,1.8483Zm4.22,8.7667h.0374c.7733-2.2383,1.9207-3.4422,3.2095-3.4422,2.7313,0,4.4525,5.1125,4.4525,10.7083,0,5.7653-1.6838,10.6235-4.4775,10.6235-1.2638,0-2.4362-1.2124-3.1886-3.4h-.0374v14.193h-1.58V38.8188h1.58l.0041,2.8742Zm-.079,7.0117c0,3.9595,1.0685,7.6985,3.0473,7.6985,2.0413,0,3.11-3.5695,3.11-7.6561,0-4.0442-1.1682-7.3084-3.1263-7.3084C59.8009,41.4387,58.616,44.9233,58.616,48.7047ZM68.61,23.5491V41.1843l.0416.0848c.6527-1.9416,1.5008-3.01,2.6523-3.01,2.5776,0,3.1679,4.0443,3.1679,8.7752V59.04H72.8881V47.6364c0-3.2727-.1164-6.1893-1.9581-6.1893-2.1784,0-2.32,4.3919-2.32,8.0037V59.04H67.0263V23.5491Zm8.086,26.1052c.0208,3.739,1.2472,6.7489,3.0473,6.7489,1.347,0,2.2158-1.7636,2.8353-4.1715l1.3469,1.6788c-.89,3.62-2.3946,5.6806-4.2986,5.6806-2.7729,0-4.5564-4.6038-4.5564-10.4116,0-5.9773,1.6047-10.92,4.5107-10.92,2.9891,0,4.573,5.3754,4.415,11.4036l-7.3-.0085Zm5.6415-2.9251c-.22-2.925-1.347-5.2905-2.7314-5.2905-1.3678,0-2.6357,2.3655-2.8353,5.2905ZM86.1,41.0063h.0374c.553-1.5855,1.031-2.7555,2.0621-2.7555.5363,0,.9728.3815,1.4259.95l-.7483,3.1371c-.32-.4748-.5363-.8987-.952-.8987-1.7461,0-1.8209,4.8581-1.8209,7.4865V59.04H84.52V38.8188h1.584L86.1,41.0063Zm4.3361,8.648c.0208,3.739,1.2472,6.7489,3.0473,6.7489,1.347,0,2.2159-1.7636,2.8353-4.1715l1.347,1.6788c-.89,3.62-2.3947,5.6806-4.2987,5.6806-2.7729,0-4.5564-4.6038-4.5564-10.4116,0-5.9773,1.6047-10.92,4.5148-10.92,2.9891,0,4.5731,5.3754,4.4193,11.4036l-7.3086-.0085Zm5.6415-2.9251c-.22-2.925-1.347-5.2905-2.7314-5.2905-1.3719,0-2.6357,2.3655-2.8353,5.2905Z"/><path class="cls-4" d="M97.092,78.2437V68.4511H2.459v9.7926Z"/><path class="cls-1" d="M4.3257,70.41H5.5479c.923,0,1.6837,1.3057,1.6837,2.9929s-.7649,3.0014-1.6837,3.0014H4.3257V70.41Zm.8605,4.6716h.1954c.5155,0,.9521-.5087.9521-1.6787,0-1.0768-.3908-1.6788-.9437-1.6788H5.1862v3.3575Zm5.284-3.349v1h.9728v1.3226H10.47V75.09h1.0227v1.3226H9.61V70.4181h1.8833v1.3226L10.47,71.7322Zm4.9181,2.3147.8023-3.6373h.9313l-1.4135,5.9943h-.6693L13.6464,70.41h.9354l.8065,3.6373Zm4.7975-2.3147v1h.9728v1.3226h-.9728V75.09h1.0227v1.3226H19.3253V70.4181h1.8832v1.3226l-1.0227-.0085Zm4.3943,3.349h1.0352v1.3227H23.7237V70.41h.8606L24.58,75.0812Zm6.7889-1.7889c0,1.9415-.7691,3.3066-1.8334,3.3066-1.06,0-1.8333-1.3651-1.8333-3.3066,0-1.8144.8771-3.0862,1.8333-3.0862C30.4876,70.2061,31.369,71.4779,31.369,73.2923ZM28.6,73.3007c0,1.0344.42,1.789.9354,1.789s.9354-.7546.9354-1.789c0-.8309-.42-1.5854-.9354-1.5854S28.6,72.4783,28.6,73.3007ZM33.747,70.41h1.3179c.7108,0,1.2056.5935,1.2056,1.9755,0,1.4159-.42,2.0348-1.1765,2.0348h-.4865v1.9924H33.747V70.41Zm.8605,2.747h.1456c.3118,0,.6194,0,.6194-.7291,0-.7546-.2869-.7631-.6194-.7631h-.1456Zm4.8807-1.4244v1h.9728v1.3226h-.9728V75.09h1.0269v1.3226H38.6318V70.4181h1.8833v1.3226l-1.0269-.0085Zm6.29,4.6717H44.7057l-.8107-2.3062h-.0083v2.3062h-.8606V70.41h1.2888c.6568,0,1.1515.56,1.1515,1.84,0,.8309-.2535,1.5431-.7275,1.6957l1.0393,2.4588Zm-1.8915-3.3066H43.97c.2827,0,.5987-.0933.5987-.7462s-.316-.7461-.5987-.7461h-.0831ZM49.2579,70.41l-.8065,2.6283H47.94l.57-2.6283Zm4.1615,1.5431a.7553.7553,0,0,0-.57-.3985c-.1579,0-.37.1611-.37.4917a.6246.6246,0,0,0,.3825.5766l.22.1187a1.6112,1.6112,0,0,1,.8149,1.6448,3.07,3.07,0,0,1-.3451,1.6109,1.11,1.11,0,0,1-.9395.56,1.544,1.544,0,0,1-1.1641-.6868l.3659-1.2548c.2161.3392.47.6189.7649.6189.2037,0,.4157-.178.4157-.6019a.7734.7734,0,0,0-.5238-.6868c-.5446-.2713-.898-.5341-.898-1.6957,0-1.2124.4781-2.0178,1.1433-2.0178a1.5716,1.5716,0,0,1,1.0352.4917l-.3326,1.2294ZM61.3765,70.41v4.0442c0,1.2633-.3617,2.1112-1.1017,2.1112-.37,0-.6569-.3307-.8523-.8818l.4948-.95c.0956.2374.2328.5087.345.5087.2578,0,.2453-.5426.2453-.8817V70.41Zm6.02,2.8827c0,1.9415-.7691,3.3066-1.8292,3.3066-1.0643,0-1.8334-1.3651-1.8334-3.3066,0-1.8144.8772-3.0862,1.8334-3.0862S67.3963,71.4779,67.3963,73.2923Zm-2.7688.0084c0,1.0344.42,1.789.9354,1.789s.9354-.7546.9354-1.789c0-.8309-.42-1.5854-.9354-1.5854C65.0515,71.7153,64.6275,72.4783,64.6275,73.3007Zm8.02-2.8911v3.3659a4.4485,4.4485,0,0,1-.3451,2.12,1.2483,1.2483,0,0,1-2.2034,0,4.3813,4.3813,0,0,1-.3492-2.12V70.41H70.61v3.154c0,.78.0332,1.6278.5861,1.6278.5488,0,.5821-.8478.5821-1.6278V70.41Zm5.2839,5.9943H76.8583l-.8107-2.3062h-.0083v2.3062h-.8647V70.41h1.2888c.6568,0,1.1515.56,1.1515,1.84,0,.8309-.2577,1.5431-.7275,1.6957l1.0435,2.4588Zm-1.9-3.3066h.0873c.2827,0,.5987-.0933.5987-.7462s-.316-.7461-.5987-.7461H76.031ZM80.1384,70.41h.8606l1.5756,3.6627h.0125V70.41h.8606v5.9943h-.8606l-1.58-3.6712H80.999v3.6712h-.8606V70.41Zm6.6892,4.9514-.2245,1.0429h-.9188L86.9606,70.41H87.9l1.2472,5.9943h-.9187l-.2162-1.0429Zm.6069-3.1031H87.422l-.3533,1.9077h.7192Zm4.8225,2.8233h1.0352v1.3227H91.4006V70.41h.8605l-.0041,4.6716Z"/></svg>