<svg id="Layer_1" data-name="Layer 1" xmlns="http://www.w3.org/2000/svg" viewBox="0 0 100 100"><defs><style>.cls-1,.cls-4{fill:#fff;}.cls-2{fill:#293744;}.cls-3{fill:#243446;}.cls-4{opacity:0.7;}.cls-4,.cls-5{isolation:isolate;}.cls-5{fill:#e0eef4;opacity:0.5;}.cls-6{fill:#d4dfe5;}.cls-7{fill:#dfeef5;}</style></defs><title>wildfly</title><path class="cls-1" d="M29.3815,67.7943c-1.7485,0-4.0741-1.1878-4.0741-11.35,0-5.9062.5942-11.9444,4.9568-11.9444a10.6652,10.6652,0,0,1,2.3765.363v-7.457c0-.4949.2037-.8909.4584-.8909h.7469c.2546,0,.4583.396.4583.8909v29.135c0,.4949-.2037.8909-.4583.8909h-.7469c-.2547,0-.4584-.396-.4584-.8909v-.297A5.0829,5.0829,0,0,1,29.3815,67.7943Zm.8827-20.2262c-2.4614,0-3.2932,2.2767-3.2932,8.9748,0,8.15,1.63,8.15,2.41,8.15,1.341,0,2.733-1.2539,3.2592-1.8148V47.9641A14.8838,14.8838,0,0,0,30.2642,47.5681Zm-7.35,19.8633c-.2546,0-.4583-.396-.4583-.8909V36.1517c0-.4949.2037-.8909.4583-.8909h.7469c.2547,0,.4584.396.4584.8909V66.5405c0,.4949-.2037.8909-.4584.8909Zm-3.48,0c-.2546,0-.4583-.396-.4583-.8909V45.7534c0-.495.2037-.8909.4583-.8909h.7469c.2546,0,.4583.3959.4583.8909v20.82c0,.4949-.2037.8909-.4583.8909H19.434Zm-6.8071,0c-.2037,0-.39-.297-.4413-.6929L9.4016,43.6746,6.7026,66.7385c-.051.3959-.2377.6929-.4414.6929H4.2072c-.2207,0-.39-.297-.4413-.6929L.5745,37.6035a1.4366,1.4366,0,0,1,.0849-.7259c.0849-.198.2207-.33.3565-.33h.7469c.2207,0,.39.297.4413.6929L5.1918,64.2638h.0849L8.5189,37.6365c.051-.396.2377-.66.4414-.66H9.809c.2037,0,.3905.2639.4414.66l3.3441,26.6273h.0849l2.8858-27.0233c.0509-.3959.2207-.6929.4413-.6929h.747c.1358,0,.2716.132.3564.33a1.4355,1.4355,0,0,1,.0849.7259l-3.0725,29.135c-.0509.3959-.2207.6929-.4414.6929ZM19.434,40.5731c-.2546,0-.4583-.396-.4583-.8909V37.4055c0-.4949.2037-.8909.4583-.8909h.7469c.2546,0,.4583.396.4583.8909v2.2767c0,.4949-.2037.8909-.4583.8909Z"/><path class="cls-1" d="M53.2487,76.1422c-.1358,0-.2716-.132-.3565-.33a1.57,1.57,0,0,1-.0849-.7589l.9506-7.6219H52.4c-.2037,0-.39-.264-.4414-.66L49.8366,49.9768V66.5405c0,.4949-.2037.8909-.4583.8909H46.51c-.2546,0-.4583-.396-.4583-.8909V43.7076c-.0679.297-.2207.495-.4074.495H39.6345v6.5331h4.7361c.2546,0,.4583.3959.4583.8909v5.4442c0,.4949-.2037.8909-.4583.8909H39.6345v8.6118c0,.4949-.2037.8909-.4583.8909h-2.92c-.2547,0-.4584-.396-.4584-.8909V37.8674c0-.4949.2037-.8908.4584-.8908h9.3873c.17,0,.3225.1979.4074.4949v-.033c0-.4949.2037-.8909.4583-.8909h2.8688c.2546,0,.4583.396.4583.8909v7.49h2.767c.2037,0,.39.2639.4414.66l1.7484,13.7921,1.7654-13.7921c.051-.396.2377-.66.4414-.66h2.8349c.1358,0,.2716.132.3564.33a1.5685,1.5685,0,0,1,.0849.7589l-3.7515,29.465c-.0509.3959-.2377.66-.4414.66Z"/><path class="cls-1" d="M93.2423,66.0786a.7677.7677,0,0,1-.2716-.033c-.2716-.066-.56-.165-.8488-.264-.2037-.066-.3564-.132-.5092-.165l-.34-.099-.1188-.033a5.6571,5.6571,0,0,1-.9-.5609,13.4166,13.4166,0,0,1-1.1883-1.0228l-.4753-.429a10.1112,10.1112,0,0,0-.8148-.66l-.8488-.5279-.2206-.132a1.7442,1.7442,0,0,1,.0169.7259c-.0679.33-.2206.5279-.39.5609h-.2207a4.0775,4.0775,0,0,1-.662-.066,4.21,4.21,0,0,1-.6111-.1649l-.3056-.099c-.0509-.033-.2886-.132-.2886-.132a7.0023,7.0023,0,0,1-1.1712-.66,10.6031,10.6031,0,0,1-1.12-.8579,27.8625,27.8625,0,0,1-2.1389-2.0787l-1.0015-1.1879-.4923-.6269-.4753-.6269-.9336-1.3528a10.9373,10.9373,0,0,0-.9337-1.1878,1.2544,1.2544,0,0,1-.2207-.528c0-.066-.0339-.1979-.0339-.2639a1.6074,1.6074,0,0,1,.4923-1.2868,2.3786,2.3786,0,0,1,.34-.132,1.5622,1.5622,0,0,1,.39-.033h.2377c.4074.033.7978.099,1.2052.165l.5941.1319.5942.132.3055.099.4753.165c.1358.066.2886.099.4244.165,0,0,.4583.1979.5772.2639l.662.33c.3565.1979.7129.3959,1.0864.5939l.5772.3629c.2546.165.4243.264.5771.363L85.4,55.685l.5771.4289.56.462.56.4949.56.5279c.3734.363.73.7259,1.1034,1.1219L89.83,59.8754q1.0949,1.1878,2.1389,2.4747c.3564.4289.7129.8909,1.0524,1.3528a8.6788,8.6788,0,0,1,.5263.7589,1.4418,1.4418,0,0,1,.1527.99c-.0848.396-.2546.627-.4583.627ZM63.3489,56.18a5.8625,5.8625,0,0,1-1.0694-.099l-.3056-.066-.3055-.0989a4.4084,4.4084,0,0,1-.5941-.231c-.2038-.099-.4075-.198-.5942-.297-.0849-.066-.17-.099-.2546-.1649a.9858.9858,0,0,1-.2716-.7589,1.4751,1.4751,0,0,1,.1358-.66l-1.0695-.033a4.116,4.116,0,0,0-.9506.1319l-.5262.099c-.4414.099-.8657.165-1.29.231-.17,0-.3225.033-.4923.033a2.1438,2.1438,0,0,1-.4583-.033l-.2207-.066-.2377-.099-.4413-.132a4.5623,4.5623,0,0,1-.9167-.2969c-.0849-.033-.17-.099-.2546-.132a.9543.9543,0,0,1-.3225-.8249,1.0728,1.0728,0,0,1,.3055-.8579c.2037-.132.4074-.2639.6281-.3959.4074-.231.8148-.429,1.2222-.6269a25.3675,25.3675,0,0,1,2.4275-1.0229l1.2052-.4619,1.2053-.363.6111-.165.6111-.1319.6111-.099.6281-.066,1.2052-.033h.6111l.6111.033,1.2053.099.6111.099.5941.0989.9.231.3056.099.5941.231.5771.2309,1.1544.561c.0339,0,.0509.033.0679.033a3.8608,3.8608,0,0,1,.5432.3629,1.9632,1.9632,0,0,1,.2546.264,2.1531,2.1531,0,0,1,.2886,1.5837,2.058,2.058,0,0,1-.0679.231.6869.6869,0,0,1-.2886.396,6.2375,6.2375,0,0,0-1.0694.5609l-1.0865.6929s-.4413.264-.56.33l-.56.297a8.6769,8.6769,0,0,1-1.1543.4949,11.9314,11.9314,0,0,1-2.36.66c-.4074.066-.7978.099-1.2052.132Z"/><path class="cls-1" d="M63.298,56.84a5.1706,5.1706,0,0,1-1.7824-.2969c-1.63-.5609-1.9861-1.1219-2.054-1.8478a2.2212,2.2212,0,0,1,.017-.5939h-.4753a5.8334,5.8334,0,0,0-1.4938.297,8.0935,8.0935,0,0,1-1.9013.33,1.722,1.722,0,0,1-.7469-.132c-.17-.0659-.3734-.0989-.5771-.1649a2.5636,2.5636,0,0,1-1.9692-1.1879,1.3124,1.3124,0,0,1-.1358-.7919.9276.9276,0,0,1,.2716-.66A18.4754,18.4754,0,0,1,57.136,49.35a15.815,15.815,0,0,1,5.16-1.2869c.0169,0,.5771-.033.8657-.033a16.1493,16.1493,0,0,1,4.8889.627c.0339,0,2.8179.9568,3.5817,2.1777a1.4835,1.4835,0,0,1,.17.7589,1.2891,1.2891,0,0,1,.0679.2969,1.196,1.196,0,0,1-.2716,1.0559c-.3735.2969-.713.5609-1.0355.8579A11.378,11.378,0,0,1,68.56,55.2561,11.7549,11.7549,0,0,1,63.298,56.84Zm4.04-4.7843c.2207,0,.4074.297.4414.7259a1.6248,1.6248,0,0,1-.034.4949c.0849-.033.5093-.2639.5093-.2639l.8148-.429s1.2222-.7589,1.29-.8249a7.22,7.22,0,0,0-1.0185-.4949l-.5772-.231-.5771-.2309-.2716-.099-.4244-.099c-.1528-.033-.2886-.066-.4414-.099a5.5655,5.5655,0,0,0-.5771-.099l-.5942-.099c-.4413-.033-.7978-.066-1.1713-.099l-1.1882-.033-1.2053.033-.5941.066-.5772.099-.5771.132-.5941.132c-.3905.099-.7809.231-1.1713.3629l-1.2053.462c-.7469.2969-1.4938.5939-2.2407.9568a1.306,1.306,0,0,0,.3565.033,1.99,1.99,0,0,0,.4413-.033,8.1748,8.1748,0,0,0,1.2392-.2309l.5263-.099a8.7682,8.7682,0,0,1,.9506-.132l.9166.033.8488.066.17-.099c.034-.033.0849-.033.1358-.066a3.8622,3.8622,0,0,1,.4074-.132l.6621-.099h.4753a6.1807,6.1807,0,0,1,.7808.033l1.2053.066a7.8607,7.8607,0,0,1,.9.165l.3225.066a3.44,3.44,0,0,0,.8148.099h.3056A2.4771,2.4771,0,0,0,67.3381,52.0555Z"/><path class="cls-1" d="M93.3781,67.1014a2.1939,2.1939,0,0,1-.4583-.066,7.5616,7.5616,0,0,1-.9846-.3629,2.252,2.252,0,0,0-.4244-.165l-.2037-.066-.2885-.132a4.5,4.5,0,0,1-.9676-.6929c-.4074-.3629-.7979-.7259-1.1713-1.1218L88.3874,64a7.2557,7.2557,0,0,0-.7639-.693L87.42,63.175a1.0827,1.0827,0,0,0-.034.2309.6146.6146,0,0,1-.0509.165c-.017.033-.0509.165-.0679.198-.0339.099-.0679.132-.0849.198a1.5016,1.5016,0,0,1-.4243.4619.6032.6032,0,0,1-.2886.099,1.3068,1.3068,0,0,1-.3565.033,4.5471,4.5471,0,0,1-.713-.066,4.6306,4.6306,0,0,1-.645-.165c-.1019-.033-.2207-.066-.3226-.099l-.3055-.132a5.5576,5.5576,0,0,1-1.2562-.6929,10.2,10.2,0,0,1-1.1713-.9238l-.56-.495c-.2037-.1979-.3735-.3629-.56-.5609q-.5348-.5444-1.07-1.1878c-.34-.396-.679-.8249-1.0185-1.2539l-.2376-.33-.2547-.363a5.1639,5.1639,0,0,1-.4074-.6269l-.0848-.132c-.3056-.5279-.5942-1.0558-.8828-1.6827-.2716-.5609-.5262-1.1219-.7638-1.7158l-.017-.033a1.1984,1.1984,0,0,1-.2207-.7589v-.2309c0-.033.017-.165.034-.297a1.552,1.552,0,0,1,.1358-.396,1.0988,1.0988,0,0,1,.2885-.3959.9.9,0,0,1,.3905-.231,2.4329,2.4329,0,0,1,.662-.1649H78.355l1.2392.1979.3225.066.3226.099.5941.198.6111.2309.5941.264,1.1883.6269.5941.33.5942.3629,1.1713.7589.5941.396.5941.4619.5772.4949.5772.528,1.12,1.1218,1.1034,1.1878,1.0864,1.2209,1.0864,1.2868,1.07,1.3858a16.2611,16.2611,0,0,1,1.0694,1.6168l.3226.5609a1.3126,1.3126,0,0,1,.1358.7919.9338.9338,0,0,1-.2716.66l-.3735.33a1.3723,1.3723,0,0,1-.713.2969ZM85.57,60.0734a.1648.1648,0,0,1,.1188.033c.7809.4289,1.5448.9239,2.2577,1.3858a14.6442,14.6442,0,0,1,1.4769,1.2538A7.4253,7.4253,0,0,0,91.63,64.4288a2.9718,2.9718,0,0,1,.6281.231,1.4318,1.4318,0,0,0,.3734.1319c-.7129-.9568-1.6805-2.1117-2.8688-3.4645a25.8527,25.8527,0,0,0-4.5833-4.2894A22.3037,22.3037,0,0,0,79.8149,54.2a10.3278,10.3278,0,0,0-2.4444-.3959,1.3768,1.3768,0,0,0-.3905.0329c.1189.231.2377.429.3565.627a18.2862,18.2862,0,0,0,1.5618,2.4416c1.29,1.6828,3.8194,4.6194,6.111,5.2793a7.1974,7.1974,0,0,0,.9.198,3.3459,3.3459,0,0,0-.2207-.297,1.9331,1.9331,0,0,0-.3055-.33,1.3277,1.3277,0,0,1-.2207-1.0889C85.213,60.2714,85.3828,60.0734,85.57,60.0734ZM63.3829,57.3678a6.4465,6.4465,0,0,1-1.1713-.099l-.3395-.066-.3225-.099a4.3862,4.3862,0,0,1-.6451-.264,4.7211,4.7211,0,0,1-.6451-.33,1.4726,1.4726,0,0,1-.3734-.297,1.32,1.32,0,0,1-.2377-.2639,2.2181,2.2181,0,0,1-.34-.693c-.0169-.0329-.0509-.1979-.0679-.2309a1.5061,1.5061,0,0,1-.0339-.231c0-.033-.017-.198-.017-.231v-.2309h-.2377a4.0493,4.0493,0,0,0-.8317.198l-.5093.1649a8.6024,8.6024,0,0,1-1.3241.33,4.9639,4.9639,0,0,1-.6959.066,1.0739,1.0739,0,0,1-.3226-.033l-.1358-.033-.3734-.099-.4244-.099a6.3032,6.3032,0,0,1-.9846-.264,2.3039,2.3039,0,0,1-.56-.2969,2.229,2.229,0,0,1-.6111-.6929l-.3055-.5279a1.4482,1.4482,0,0,1-.1528-.7919.8676.8676,0,0,1,.2716-.66l.39-.33,1.2392-.8579,1.2562-.66,1.2392-.5609L57.34,48.69l1.2222-.429,1.2392-.3629.6281-.132.6281-.099.645-.066.6281-.033H63.57l.6111.033.6111.033,1.2223.132.6111.099.6111.132.6111.1649.3055.099.3226.132,1.1882.5609a10.1425,10.1425,0,0,1,1.2053.7589,4.7255,4.7255,0,0,1,.6111.5609,4.2918,4.2918,0,0,1,.34.462,2.1622,2.1622,0,0,1,.17.3959.25.25,0,0,1,.034.132,2.2878,2.2878,0,0,1,.0679.5609,2.6209,2.6209,0,0,1-.034.363.8659.8659,0,0,1-.34.6269l-.0339.066c-.3225.3959-.6621.7919-1.0016,1.1548a12.8862,12.8862,0,0,1-1.0864,1.0559l-.0848.066a4.8783,4.8783,0,0,1-.5093.3629l-.2377.165-.3225.198c-.39.1979-.7808.3959-1.1713.5609s-.7978.33-1.2052.4619l-.5941.198a4.77,4.77,0,0,1-.6281.132,8.3316,8.3316,0,0,1-1.2732.132Zm-2.5972-2.9036a7.3442,7.3442,0,0,0,.8827.3629,5.1779,5.1779,0,0,0,1.63.264,11.3257,11.3257,0,0,0,5.0247-1.5178,10.9788,10.9788,0,0,0,1.8842-1.3858c.1358-.132.2886-.231.4414-.363a11.6982,11.6982,0,0,0-2.75-1.3858,16.2693,16.2693,0,0,0-4.7531-.6269h-.7978a15.1886,15.1886,0,0,0-5.0417,1.2538,27.0872,27.0872,0,0,0-3.2932,1.5178c.1358.033.2547.066.3735.099.2377.066.4583.099.6451.165a1.5919,1.5919,0,0,0,.5941.099,7.3241,7.3241,0,0,0,1.7824-.33,8.1137,8.1137,0,0,1,1.5957-.2969H59.75c.5432,0,1.0864.033,1.6126.066.2377.0329.4244.3959.4244.8248.017.462-.1528.8579-.39.8909a1.2037,1.2037,0,0,0-.34.132A2.39,2.39,0,0,1,60.7857,54.4642Z"/><path class="cls-1" d="M93.3951,66.7055a3.87,3.87,0,0,1-1.3241-.363,2.4136,2.4136,0,0,0-.5771-.198A7.5,7.5,0,0,1,89.0155,64.33a15.15,15.15,0,0,0-1.375-1.1878c-.1528-.099-.2886-.198-.4414-.297a1.7971,1.7971,0,0,1-.0848.5939.9052.9052,0,0,1-.9846.7259,5.0265,5.0265,0,0,1-1.2222-.198h-.0509c-2.36-.66-4.821-3.3985-6.4846-5.5432a22.2972,22.2972,0,0,1-1.6636-2.6066c-.2546-.462-.5262-.9239-.8317-1.4188a1.4964,1.4964,0,0,1-.0849-1.1879.7467.7467,0,0,1,.1188-.2309.9989.9989,0,0,1,.2886-.627,1.8822,1.8822,0,0,1,1.1713-.2639,11.2756,11.2756,0,0,1,2.58.3959,22.3359,22.3359,0,0,1,5.5339,2.9036,26.8077,26.8077,0,0,1,4.7192,4.4214,33.9021,33.9021,0,0,1,4.0571,5.2133,1.448,1.448,0,0,1,.1527.7919.9985.9985,0,0,1-.2546.66A1.1965,1.1965,0,0,1,93.3951,66.7055ZM79.9168,56.0149a.3642.3642,0,0,1,.17.066l.4074.297a4.1956,4.1956,0,0,0,1.0694.5939l.3056.132a8.7207,8.7207,0,0,1,.9.3959l1.1543.66a11.93,11.93,0,0,1,1.1883.7588,4.0231,4.0231,0,0,1,.6111.495,3.0847,3.0847,0,0,1,.3225.33,1.2883,1.2883,0,0,1,.17.198l.1358.165.8148.4619s.7808.462.8827.5279c.3055.198.5941.462.8827.693l.4753.4289c.39.33.7639.6929,1.1543.99a7.2862,7.2862,0,0,0,.7469.4949c-.645-.7919-1.3071-1.5508-1.9691-2.2767l-1.0694-1.1548c-.34-.363-.696-.7259-1.0525-1.0559l-.5432-.4949-.5432-.462-.5432-.4289-.56-.3959-1.12-.7589-.56-.363a4.942,4.942,0,0,0-.56-.33l-1.1374-.627-.56-.2639-.56-.264a2.4,2.4,0,0,0-.4414-.165l-.4244-.1649-.2716-.066-.5771-.132a3.2581,3.2581,0,0,0-.5772-.132c-.3565-.066-.696-.132-1.0525-.165.0679.099,1.12,1.5838,1.12,1.5838l.1528.198a2.1224,2.1224,0,0,0,.2886.3629s.6111.7919.679.8579a2.4457,2.4457,0,0,1,.0509-.4949C79.6112,56.2129,79.764,56.0149,79.9168,56.0149Z"/><path class="cls-1" d="M71.4291,82.2133a.187.187,0,0,1-.1358-.033h0a.542.542,0,0,1-.1867-.2309c-1.0015-2.1447-.9846-8.2819-.8657-14.3531.0169-1.1218.0339-2.0127.0339-2.5736,0-.4949.017-1.0229.034-1.5838a10.5336,10.5336,0,0,0-.2377-3.53,12.0645,12.0645,0,0,1-.8657-4.2564c0-.5609,0-.5609,4.38-5.1473l.1018-.099a.3026.3026,0,0,1,.2207-.099c.1189,0,.2377.099.3226.264l3.6326,7.193a1.4552,1.4552,0,0,1,.1189.7919,6.1914,6.1914,0,0,1-1.5278,3.3985l-.2546.33a9.015,9.015,0,0,0-.7809,3.3655c-.0849.6269-.1528,1.2538-.2546,1.7488-.1019.5279-.2207,1.3858-.39,2.4086C73.8566,75.7132,72.94,81.0915,71.6328,82.18,71.548,82.18,71.48,82.2133,71.4291,82.2133Z"/><path class="cls-1" d="M72.872,72.48a.5636.5636,0,0,1-.4583-.33l-.0849.099a.5626.5626,0,0,1-.34.198c-.2716,0-.5771-.297-.679-.8579a1.7122,1.7122,0,0,1,.1188-.99c-.1867-.033-.4243-.2309-.5432-.6929a2.321,2.321,0,0,1-.0339-.6929,1.1618,1.1618,0,0,1-.1358-.4289,1.7866,1.7866,0,0,1,.0339-.7919,1.3709,1.3709,0,0,1-.1527-.5609,1.4943,1.4943,0,0,1,.2037-1.0229,1.1347,1.1347,0,0,1-.3565-.6929,1.8819,1.8819,0,0,1,.1358-1.1218l.0679-.132a1.9443,1.9443,0,0,1-.1528-.7919,2.1862,2.1862,0,0,1,.2716-1.0229v-.1649a1.6992,1.6992,0,0,1-.2207-.7919,1.3783,1.3783,0,0,1,.017-.264,2.6271,2.6271,0,0,1-.1188-.4949,3.0859,3.0859,0,0,1,0-.561,1.3611,1.3611,0,0,1-.2547-.6269,2.4218,2.4218,0,0,1,0-.4949,1.3678,1.3678,0,0,1-.2885-.6269,1.0013,1.0013,0,0,1-.2377-.462,2.226,2.226,0,0,1-.0509-.4949,1.4628,1.4628,0,0,1-.2377-.6929,1.9028,1.9028,0,0,1,.1189-.8909,1.9635,1.9635,0,0,1-.017-.6269,1.7208,1.7208,0,0,1,.1528-.4949.8991.8991,0,0,1,.34-.5609l.4923-.297a6.3266,6.3266,0,0,1,.6959-.5939c.3056-.264.6281-.5279.9337-.8249a12.2323,12.2323,0,0,0,1.1713-1.3858,1.2443,1.2443,0,0,1,.4583-.4289c.034,0,.1019-.033.1358-.033.2207,0,.4414.2309.5772.5939a1.9367,1.9367,0,0,1,.1018.4619,1.3709,1.3709,0,0,1,.1528.5609,1.0782,1.0782,0,0,1-.017.33,1.0322,1.0322,0,0,1,.5941.9239,2.145,2.145,0,0,1,.017.33.8994.8994,0,0,1,.56.7589,1.8027,1.8027,0,0,1,.034.33.9858.9858,0,0,1,.4413.6929,1.7657,1.7657,0,0,1,.034.2969.7582.7582,0,0,1,.5092.561,1.124,1.124,0,0,1,.0509.2309c.2207.066.4584.33.5433.8249.0169.066.0169.165.0339.231a1.5357,1.5357,0,0,1,.17.5939,1.3856,1.3856,0,0,1-.3226,1.1548c-.0509.033-.1018.099-.1527.132a1.37,1.37,0,0,1-.3056.99l-.6111.66a1.8013,1.8013,0,0,1-.2716.8909c-.17.1979-.3565.3959-.5262.5609v.066a2.389,2.389,0,0,1-.051.6929.3791.3791,0,0,1,.034.132,1.8923,1.8923,0,0,1-.1188,1.1548,5.1281,5.1281,0,0,1-.7979,1.1218,1.1786,1.1786,0,0,1,.4074.7589,1.5958,1.5958,0,0,1-.2037,1.1549l-.4583.5939a2.1954,2.1954,0,0,1-.1188.8579h0a2.5389,2.5389,0,0,1,.1018.7919,2.8921,2.8921,0,0,1-1.12,2.1447C73.0588,72.4137,72.94,72.48,72.872,72.48Z"/><path class="cls-1" d="M71.4291,82.3453a.1269.1269,0,0,1-.1018-.033H71.31a.5107.5107,0,0,1-.2716-.33,8.5958,8.5958,0,0,1-.5093-1.8148c-.0848-.5609-.17-1.1218-.2206-1.8147-.1019-1.0559-.1528-2.1777-.1868-3.4976-.0509-2.3426-.0169-4.6853.034-6.863,0,0,.0339-1.8807.0339-1.9467a1.1809,1.1809,0,0,1-.2037-.66c0-.099.017-.33.017-.429A2.4644,2.4644,0,0,1,70.19,64.33c0-.33.017-.6269.034-.9239.017-.7259.0509-1.3858.017-2.0457a7.6469,7.6469,0,0,0-.1868-1.2538l-.17-.495c-.1019-.33-.2207-.66-.3225-.99a10.7474,10.7474,0,0,1-.3226-1.4518l-1.5617,1.4518-1.3241,1.1218-1.1373.8909-.8827.6269-.7809.495a.2091.2091,0,0,1-.1358.0329c-.1867,0-.3564-.1979-.4243-.5609a1.3757,1.3757,0,0,1,.2206-1.1218l.73-.66,1.9012-1.8148,1.2731-1.2538,1.4259-1.4188,1.5278-1.5508,2.8179-2.8706L72.0233,48.69,71.48,47.5351l-.9846-2.2437c-.3225-.7919-.5772-1.5178-.7639-2.1447a15.4148,15.4148,0,0,1-.4583-1.9137,9.7368,9.7368,0,0,1-.1358-1.4848v-.429c.017-.4619.2207-.8578.4583-.8578h.017c.2376.033.4413.3629.4413.8248v.33a7.7035,7.7035,0,0,0,.1189.9569,12.496,12.496,0,0,0,.4244,1.4848c.2037.5609.4413,1.1548.7469,1.8147L72.38,45.8853l.5771,1.0889.5941,1.1878.5433,1.1219.6959-.6929.747-.7589.7469-.6929,1.324-1.2539a8.2125,8.2125,0,0,0,.9846-1.2208,7.5927,7.5927,0,0,0,.645-1.1218,4.4257,4.4257,0,0,0,.2716-.7919c.034-.099.034-.165.051-.198.0679-.3629.2546-.66.4583-.66a.1648.1648,0,0,1,.1188.033,1.0083,1.0083,0,0,1,.3226.99c-.034.198-.051.363-.0849.528a9.0552,9.0552,0,0,1-.3735,1.2868,10.4457,10.4457,0,0,1-.7469,1.5178,12.4843,12.4843,0,0,1-1.0694,1.5178l-1.3071,1.4848-1.85,1.9467.9506,1.98,1.2222,2.5077,1.1883,2.4087,1.1034,2.2436.9845,1.98,1.4939,2.9036.5771,1.0888a1.45,1.45,0,0,1,.017,1.1879c-.0849.1979-.2207.2969-.34.2969a.3753.3753,0,0,1-.2716-.165l-.6451-.9568-.73-1.1549-.9167-1.5507-.2206-.363c-.2717-.4949-.56-.99-.8488-1.5508l-1.0185-1.9137a6.4281,6.4281,0,0,1-.6451,1.1218c-.1528.198-.3055.396-.4413.5939l-.2547.33a2.8539,2.8539,0,0,0-.3734.8909,11.8651,11.8651,0,0,0-.2546,1.4188l-.1019.7589.0509.099a1.5177,1.5177,0,0,1,.0509,1.2208c-.0848.198-.2037.33-.3225.33,0,.033-.1358.7259-.1528.8908l-.4413,2.9036a1.0836,1.0836,0,0,1-.034.231c-.2546,1.6168-.5262,3.2995-.8657,5.0153-.2546,1.32-.4923,2.31-.7469,3.2336-.1867.6269-.34,1.1218-.5093,1.5507a3.6735,3.6735,0,0,1-.8487,1.3859C71.5649,82.3123,71.497,82.3453,71.4291,82.3453Zm-.2716-12.8022c-.0169,1.65-.0339,3.4645.017,5.2133.034.99.0679,2.1447.17,3.2665.0509.5609.1018,1.0559.1867,1.5178a1.6215,1.6215,0,0,0,.0679.33c.0339-.066.0679-.165.1018-.231a10.7365,10.7365,0,0,0,.4244-1.2868c.2377-.8249.4414-1.7818.679-2.97.3226-1.5838.5772-3.2006.8148-4.7184a1.0942,1.0942,0,0,0-.1018-.1979,1.061,1.061,0,0,0-.3735-.396,1.1948,1.1948,0,0,0-.2716-.165c-.1018-.033-.1867-.066-.2716-.099a2.49,2.49,0,0,0-.3565-.0989c-.0848,0-.1867-.033-.2885-.033l-.0849-.8909v.8909h-.2037c-.0679,0-.1528.033-.2377.033-.0679.033-.1358.033-.2037.066Zm1.0355-2.31a1.8475,1.8475,0,0,1,.5772.099,2.2349,2.2349,0,0,1,.4413.231,1.823,1.823,0,0,1,.4074.3959,3.2327,3.2327,0,0,1,.3226.4619l.17-1.0558.1528-.8249a4.9458,4.9458,0,0,0,.0679-.4949c-.017-.033-.034-.033-.0509-.066a2.5619,2.5619,0,0,0-.3056-.297,1.5322,1.5322,0,0,0-.3395-.231,1.2643,1.2643,0,0,0-.3565-.0989l-.2376-.033H72.906v-.8909l-.0509.8909H72.38a2.1452,2.1452,0,0,0-.4584.033,4.6473,4.6473,0,0,0-.7469.1319v.8579l-.017,1.2209a1.0016,1.0016,0,0,1,.2886-.165,1.9526,1.9526,0,0,1,.4074-.132C71.9893,67.2664,72.0912,67.2334,72.193,67.2334Zm.696-4.3884a1.4265,1.4265,0,0,1,.6111.198,2.5126,2.5126,0,0,1,.5263.3629,6.9622,6.9622,0,0,1,.5771.6269A16.6872,16.6872,0,0,1,74.926,62.35a5.0987,5.0987,0,0,1,.696-1.65l.3056-.3959c.1358-.165.2546-.33.39-.528a4.3314,4.3314,0,0,0,.5262-.9238V58.82l-.7808-1.5838a1.229,1.229,0,0,1-.1358-.231l-.0679-.132c-.0509-.099-.1189-.1979-.17-.2969l-.2207-.429-.2206-.4619c-.0849-.165-.1528-.33-.2207-.4949l-.2037-.462-.4074-.99L73.84,52.4844l-1.5277,1.5838L70.7162,55.685l-.5262.5279v.066a7.7479,7.7479,0,0,0,.2885,1.32c.0849.297.1868.5939.2716.8579l.1868.5609a9.613,9.613,0,0,1,.34,2.0128,18.087,18.087,0,0,1,0,2.1447c.17-.099.3565-.165.56-.264.17-.066.34-.099.5092-.165a1.4314,1.4314,0,0,1,.3735-.033C72.7532,62.812,72.8211,62.812,72.889,62.845Z"/><path class="cls-1" d="M71.5649,81.2565c-.2376,0-.4413-.165-.5432-.495a.6133.6133,0,0,1-.0509-.2639c-.017-.066-.0339-.099-.0509-.165a1.8917,1.8917,0,0,1,.017-.9239c.0169-.033.0169-.066.0339-.099a.9922.9922,0,0,1-.2207-.4619,2.0741,2.0741,0,0,1,.0679-1.0229c.051-.1319.1189-.2639.17-.3959a.9785.9785,0,0,1-.2377-.4949,1.6872,1.6872,0,0,1,.1358-1.0229l.0849-.165a1.086,1.086,0,0,1-.1528-.3959,1.122,1.122,0,0,1-.0339-.264.88.88,0,0,1-.3225-.33,1.8229,1.8229,0,0,1-.2038-.7919,1.5362,1.5362,0,0,1,.17-.7259l.1867-.297-.1018-.198a1.8471,1.8471,0,0,1-.1019-.8248,5.0317,5.0317,0,0,1,.2037-.9569,1.312,1.312,0,0,1-.1188-.429,1.4578,1.4578,0,0,1,.2546-1.0558,5.5054,5.5054,0,0,1,.5942-.4949,2.28,2.28,0,0,0,.4753-.363.568.568,0,0,1,.2885-.132.5465.5465,0,0,1,.4754.33,2.0275,2.0275,0,0,1,.2037.132.6729.6729,0,0,1,.1867.2639.4239.4239,0,0,1,.2037-.066.7133.7133,0,0,1,.4583.231.3512.3512,0,0,1,.2377-.066c.2886,0,.5262.297.5941.7919,0,.033.017.066.017.099a4.5979,4.5979,0,0,1-.1528,1.6828,3.0206,3.0206,0,0,0-.1018.5279,1.2087,1.2087,0,0,1-.3226.8909c-.0339.1649-.0679.33-.1018.5279h0a1.8945,1.8945,0,0,1,.0339.9239A33.37,33.37,0,0,1,72.77,78.5508a7.7925,7.7925,0,0,1-.7809,2.3427C71.8875,81.1575,71.7347,81.2565,71.5649,81.2565Z"/><path class="cls-1" d="M77.3874,56.0479a.2275.2275,0,0,1-.2037-.1319c-.4074-.561-1.1033-1.4518-1.2561-1.6168l-.1189-.132a1.641,1.641,0,0,1-.5771-1.2538,4.3322,4.3322,0,0,1,.1018-.99.7418.7418,0,0,1,.0849-.231,4.9045,4.9045,0,0,1,.5432-1.1218,9.36,9.36,0,0,1,.679-.9239A15.2535,15.2535,0,0,1,78.05,48.195l1.4259-1.2868.713-.66.8657-.7589a7.2258,7.2258,0,0,1,.5941-.4619l.73-.561c.5092-.3629,1.0015-.7259,1.5108-1.0558.9166-.5939,1.9182-1.1879,3.09-1.8148l1.7654-.8908.5941-.264a2.11,2.11,0,0,1,.4074-.165l.3905-.165.7978-.2969.8148-.231.8148-.198.3056-.066c.17-.033.3564-.0659.5262-.0989.5432-.099,1.1034-.165,1.6466-.231.5092-.033,1.0015-.066,1.5108-.066h.17a9.6659,9.6659,0,0,1,1.6806.165,8.8174,8.8174,0,0,1,1.375.3959.7188.7188,0,0,1,.34.6269,1.39,1.39,0,0,1-.1358.8909c-.17.297-.34.5609-.5093.8249l-.9676,1.32-.1358.165a6.808,6.808,0,0,1-.4922.5609,10.0773,10.0773,0,0,1-.8658.8249c-.2376.198-.4753.3959-.73.6269-.3225.264-.6621.5609-1.0016.8579l-1.6805,1.5838c-.2886.2639-.5772.5279-.8488.7589l-.8657.6929a10.1344,10.1344,0,0,1-.9.5609c-.1358.066-.2886.132-.4244.198l-.0509.033c.017.033.017.099.034.132a1.4971,1.4971,0,0,1-.1019.9238A5.7745,5.7745,0,0,1,89.2192,52.55a7.5459,7.5459,0,0,1-1.6636,1.1219,14.747,14.747,0,0,1-1.6975.7259l-1.6975.5279-1.07.297-.2206.0329-.4244.066-1.6975.033H79.9l-.4074.033-.4244-.033h-.4074l-.4074.033a1.549,1.549,0,0,0-.34.099c-.034.033-.0679.033-.1019.066a.8508.8508,0,0,1-.1867.4289A.5647.5647,0,0,1,77.3874,56.0479Z"/><path class="cls-1" d="M81.9877,56.0479c-.3734,0-.73-.033-1.0864-.033h-.17a6.749,6.749,0,0,0-.8148-.0329h-.4414a2.04,2.04,0,0,1-.4414-.066l-.8148-.132a1.3682,1.3682,0,0,0-.3734-.033c-.0679,0-.1358,0-.1528.033a.27.27,0,0,1-.2207.132c-.1188,0-.2207-.099-.3225-.264a1.5979,1.5979,0,0,1-.0509-1.2208,1.34,1.34,0,0,1,.3565-.495.9144.9144,0,0,1,.2716-.1649,2.7213,2.7213,0,0,1,.4922-.132,2.0677,2.0677,0,0,1,.4414-.033l.8318.033.4074-.033h1.5617a8.8259,8.8259,0,0,0,.9336-.033l.4074-.066.3905-.099.8318-.231c.56-.1649,1.12-.33,1.6635-.5279a9.7574,9.7574,0,0,0,1.63-.6929c.34-.198.645-.3629.9336-.5609-.0679.033-.3565.132-.3565.132a1.33,1.33,0,0,0-.3225.132l-1.0016.4619c-.0339,0-.0679.033-.1018.033h-.0509a.2175.2175,0,0,1-.1189-.066h0a.7289.7289,0,0,1-.2206-.3959h0a.806.806,0,0,1-.034-.198h0a1.8047,1.8047,0,0,1,0-.429l.017-.1319a.748.748,0,0,1,.2207-.429s.0679-.066.0848-.066l.1189-.066.7639-.3959.2376-.132.3735-.231.5092-.2969.2037-.099.4414-.264c.3055-.1649.6111-.33.9167-.4619l.5432-.264c.1018-.066.2206-.099.3225-.165a8.7375,8.7375,0,0,0,.8318-.5279,10.0681,10.0681,0,0,0,.8148-.66c.2716-.231.56-.4619.8318-.7259l1.12-1.0558c.1867-.165.3734-.363.5771-.528l1.7315-1.4848c.2716-.2309.5432-.4949.7978-.7589a4.9417,4.9417,0,0,0,.3735-.4289l.17-.198s.5432-.7259.5772-.7589c-.0849-.033-.17-.033-.2546-.066a9.4083,9.4083,0,0,0-1.6127-.1649h-.1528c-.4922,0-.9845.033-1.46.066-.5432.066-1.0864.1319-1.6127.2309l-.8148.165-.8488.165-.7978.2309-.2716.099c-.17.066-.34.099-.4923.165l-.39.165a1.8433,1.8433,0,0,0-.3735.165l-.7808.3629-1.5618.7919a33.9187,33.9187,0,0,0-3.0216,1.7818l-1.4768,1.0228-.713.5609-.7129.561-.696.5939-.713.6269-.7129.6269-.696.6269A13.2309,13.2309,0,0,0,77.15,51.0656a8.2227,8.2227,0,0,0-.5772.7919,3.7917,3.7917,0,0,0-.4074.8579c-.0849.264-.2376.4289-.39.4289a.425.425,0,0,1-.1867-.0659,1.3173,1.3173,0,0,1-.2547-1.1219,4.5649,4.5649,0,0,1,.2207-.8579,7.2783,7.2783,0,0,1,.2886-.7259,9.8456,9.8456,0,0,1,.645-1.1548l.6621-.9239.696-.8579.7129-.7589.713-.7259,1.4259-1.3858,1.5108-1.2208,1.5447-1.0559,1.5618-.9568,1.5787-.8579,1.9012-.8909.5093-.198.4074-.1649.4074-.132.8318-.264.8318-.198.8317-.1649.8318-.132,1.6806-.165h1.6975l1.7145.198a8.9792,8.9792,0,0,1,1.7484.5609l.2547.099a.7876.7876,0,0,1,.34.5939,1.587,1.587,0,0,1-.1019.8579l-.1867.3629a11.3954,11.3954,0,0,1-.7808,1.32c-.1189.1649-.9507,1.3528-.9507,1.3528l-.2037.2969c-.1527.198-.2885.363-.4413.528-.2886.33-.5772.6269-.8657.9238-.39.396-.7979.7259-1.1883,1.0889l-.5262.4619-.9846.8909c-.2377.231-.4923.4289-.73.66-.2886.264-.5942.4949-.8827.7259-.3056.231-.6112.4289-.9337.6269-.2376.132-.4753.264-.696.396-.0169.066-.0509.1649-.0679.2309l-.3225.561a6.7192,6.7192,0,0,1-1.6127,2.2436,8.7751,8.7751,0,0,1-1.7484,1.2539,11.2478,11.2478,0,0,1-1.7485.7589c-.5771.1979-1.1543.3629-1.7145.4949l-1.0694.264-.2377.033a2.1443,2.1443,0,0,1-.4583.033,1.9,1.9,0,0,1-.4414.0659Z"/><path class="cls-1" d="M69.9693,53.7383c-.1189,0-.2377-.099-.34-.297a1.4313,1.4313,0,0,1-.1189-.6269c-.0169-.033-.0339-.033-.0679-.066a2.106,2.106,0,0,0-.34-.33c-.1188-.0989-.2376-.1649-.3565-.2639,0,0-.7129-.429-.7978-.495l-.39-.2639-.9337-.5939a16.2062,16.2062,0,0,1-1.46-.99l-.3905-.33-.2037-.1649-.9676-.9239c-.5092-.4949-1.0185-1.0229-1.5277-1.5508a19.494,19.494,0,0,1-1.4938-1.7488,14.3961,14.3961,0,0,1-1.392-2.1117,10.7593,10.7593,0,0,1-.9167-2.1447,1.6711,1.6711,0,0,1,.017-.9568c.017-.033.034-.099.0509-.132l-.0848-.099c-.1019-.132-.2207-.264-.3226-.3959q-.3819-.495-.7639-1.0889c-.2376-.3629-.4753-.7919-.7129-1.1878s-.4584-.8249-.679-1.2539l-.8827-1.65c-.1528-.297-.3056-.561-.4584-.8579l-1.392-2.4417c-.2376-.4289-.4753-.8579-.679-1.32-.1018-.231-.2206-.4619-.3225-.6929l-.3055-.7259-.2037-.5279c-.1189-.33-.2377-.6269-.3565-.9569q-.2037-.5443-.3565-1.0888a1.5533,1.5533,0,0,1,.017-.9239c.0848-.231.2206-.396.3734-.396h.0509a8.4517,8.4517,0,0,1,1.375.462,17.4154,17.4154,0,0,1,1.63.8908q.7893.495,1.5787,1.0889c.5092.3959,1.0355.7919,1.5447,1.2208l.7469.66.7469.6929.73.7259.2716.264.4583.4949.34.396a4.9135,4.9135,0,0,1,.3565.4289l.696.8249,1.358,1.7158c1.0015,1.2868,1.8673,2.4746,2.6311,3.63L66.9816,39.55l.6111.99.5942.99.5941,1.0229.5771,1.0559.5772,1.0228.5772,1.0559c.3225.5939.73,1.3858,1.1034,2.2437.17.4289.34.8578.4922,1.2868a9.67,9.67,0,0,1,.3226,1.3858.9678.9678,0,0,1,.0509.33v.231a3.8987,3.8987,0,0,1-.0679.6929.929.929,0,0,1-.7469.8579l-.1358.033-1.46.7919C70.0541,53.7383,70.0032,53.7383,69.9693,53.7383Z"/><path class="cls-1" d="M69.9862,53.4743a.4083.4083,0,0,1-.34-.264c-.0169-.033-.0848-.066-.1188-.099a1.186,1.186,0,0,0-.3734-.1979c-.1358-.066-.7979-.363-.7979-.363-.1358-.066-.2886-.132-.4244-.1979-.1018-.066-.1867-.099-.2716-.165l-.1358-.099-.9166-.5609c-.4923-.297-1.0016-.594-1.5108-.9239a3.7,3.7,0,0,1-.4244-.33l-.2037-.1649-.2037-.198-.7809-.7259c-.5262-.4949-1.0355-.99-1.5617-1.5508a20.3652,20.3652,0,0,1-1.5278-1.7817,15.9662,15.9662,0,0,1-1.46-2.2437,11.4866,11.4866,0,0,1-1.1544-3.1346l-.1188-.5609a1.4036,1.4036,0,0,1-.0339-.264l-.6111-.7919c-.2547-.3629-.5263-.7589-.7809-1.1548s-.4923-.8249-.73-1.2209l-.696-1.2538-.679-1.2538-.4414-.7919c-.3055-.5609-.6281-1.1218-.9336-1.7488l-.6621-1.3858-.3225-.7589-.1528-.3959-.679-1.8808a14.63,14.63,0,0,1-.5262-1.7487l-.1358-.5609a1.75,1.75,0,0,1,.0339-.8909c.0849-.231.2207-.363.3735-.363.017,0,.3056.033.3056.033a7.9219,7.9219,0,0,1,1.7314.528l1.6466.8578,1.6127,1.0559,1.5617,1.1878.7809.6269.7639.66.7638.6929.7469.7589.73.7918.7129.8249,1.375,1.6828,1.3581,1.7818,1.324,1.8477,1.2732,1.9467,1.2222,2.0787,1.1373,2.2437.56,1.1219.5432,1.1548.5262,1.2209.4754,1.32a11.3617,11.3617,0,0,1,.4243,1.5178c.051.2309.1019.4949.1358.7259a.3528.3528,0,0,1,.017.1319c.034.33.0679.66.0679.9569,0,.4619-.17.8249-.4074.8909h-.0509c-.2207,0-.4244-.264-.4584-.6929a5.4154,5.4154,0,0,0-.2546-1.0889,8.1823,8.1823,0,0,0-.4244-1.0888c-.34-.7919-.7129-1.4848-1.0185-2.1117L68.73,45.0275l-.5772-1.0559-.696-1.2208c-.1527-.264-.2885-.495-.4413-.7589l-.6111-.99c-.3905-.6269-.8148-1.2538-1.2222-1.8807-.7639-1.1219-1.6127-2.2767-2.58-3.53L61.0912,33.677,60.582,33.05c-.1189-.132-.2207-.264-.34-.3959l-.3565-.396-.696-.7589-.713-.6929s-.56-.5279-.7129-.66l-.2547-.231c-.1527-.1319-.3225-.2969-.4922-.4289-.4923-.4289-1.0016-.8249-1.5108-1.2208-.5093-.363-1.0185-.7259-1.5278-1.0559a10.0862,10.0862,0,0,0-1.5617-.8249l-.2547-.099.4244,1.0889.1358.33c.0849.198.1868.429.2886.627.2037.4289.4244.8248.6451,1.2208l.56.99c.2716.4949.56.9568.8318,1.4847l1.3411,2.5407.662,1.1878c.2207.396.4414.7589.679,1.1219.2207.3629.4583.6929.696,1.0228.1019.132.1867.231.2886.363l.4753.5939c.2716.33.5262.66.7978.99l.4414.5939.1188.132.4244.5939.5262.7259.7469.99a1.4783,1.4783,0,0,1,.1358,1.1878c-.0848.264-.2376.3959-.3734.3959a.2759.2759,0,0,1-.2377-.1319l-.8827-1.0559-.4414-.4949a1.5757,1.5757,0,0,0-.17-.165c.2376.3629.4923.7259.7809,1.0888a17.6111,17.6111,0,0,0,1.4259,1.65c.4923.5279,1.0015,1.0229,1.4938,1.5178l.9506.9239.17.1649.3734.297a15.0974,15.0974,0,0,0,1.409.9569l.1358.066c.2716.1649.5432.33.8148.5279l.39.264.3735.2309.4074.264a2.0669,2.0669,0,0,1,.4243.33,3.5623,3.5623,0,0,1,.4414.429,1.6734,1.6734,0,0,1,.2377.33,2.3521,2.3521,0,0,1,.2716.6929,1.3164,1.3164,0,0,1-.2377,1.1219C70.122,53.4413,70.0541,53.4743,69.9862,53.4743Z"/><path class="cls-2" d="M1.7628,37.4055,4.8183,65.1217h.8148L8.96,37.8015H9.809l3.429,27.32h.8149l2.9536-27.7162h.747L14.664,66.5405H12.6269L9.4016,39.7812,6.2782,66.5405H4.2072L1.0159,37.4055Zm17.6712,0h.7469v2.2767H19.434Zm0,8.3479h.7469v20.82H19.434Zm3.48-9.6017h.7469V66.5405h-.7469ZM33.846,66.5405h-.7469V64.7917s-1.7485,2.1117-3.7006,2.1117c-1.3241,0-3.6158-.3629-3.6158-10.4925,0-7.16.9846-11.0865,4.4985-11.0865a11.3485,11.3485,0,0,1,2.8348.4949V37.4055h.7469l-.0169,29.135Zm-.7469-3.1016V47.2052a15.3269,15.3269,0,0,0-2.8349-.495c-3.0386,0-3.7515,3.53-3.7515,9.8657,0,8.2818,1.6635,9.0407,2.8688,9.0407,1.85-.033,3.7176-2.1777,3.7176-2.1777Z"/><path class="cls-3" d="M36.29,37.8345h9.3873v5.4772H39.21v8.2819h5.1775v5.4442H39.21v9.5027H36.29Zm10.2361-.429h2.8688v29.135H46.5265Zm6.0771,8.3809,1.9522,15.31h.4922L57,45.7864h2.8349L56.0835,75.2513H53.2487l1.0864-8.7108H52.4L49.7687,45.7534h2.8349Z"/><path class="cls-4" d="M70.5974,50.9666,69.46,50.4057l-.5771-.2309-.5772-.231-.2886-.099-.2886-.066-.5941-.132-.5941-.099-.5942-.0989-1.1882-.099-.5942-.033H63.57l-1.2052.033-.6112.066-.5941.0989-.5941.132-.5941.132-1.2053.363-1.2052.4619c-.8148.33-1.6127.66-2.41,1.0229-.4074.1979-.7979.3959-1.1883.6269-.2037.1319-.4074.2309-.6111.3629.0679.033.1528.099.2207.132a3.8906,3.8906,0,0,0,.8827.264l.4583.1319.2207.099.1019.033.1018.033a2.5419,2.5419,0,0,0,.8657,0,18.04,18.04,0,0,0,1.7994-.33,8.76,8.76,0,0,1,.9167-.132h.4583l.4584.033.9166.066.0679-.033.0679-.033.0849-.033a1.787,1.787,0,0,1,.17-.066c.1019-.033.2207-.066.3226-.099a4.2835,4.2835,0,0,1,.6281-.066c.4074-.033.8148,0,1.2222,0l1.2052.066a7.5513,7.5513,0,0,1,1.1883.231,3.6269,3.6269,0,0,0,1.1882.099l.4414-.033-.4244.2309a2.9972,2.9972,0,0,1-.8657.297,7.5629,7.5629,0,0,1-.8827.132,15.763,15.763,0,0,1-1.7655.033,5.2058,5.2058,0,0,1-.7129-.066,3.4883,3.4883,0,0,0-.5772.033c-.2037.033-.39.066-.5771.099-.1019.033-.1868.066-.2716.099-.051.0329-.0849.0329-.1358.0659l-.0679.033-.0679.033a2.94,2.94,0,0,0-.5263.363.4394.4394,0,0,0-.0848.099,2.4779,2.4779,0,0,0,.2206.1649,3.4569,3.4569,0,0,0,.56.264c.1867.066.39.165.5772.231.1018.033.1867.066.2886.099.0848.033.1867.033.2885.066a6.9855,6.9855,0,0,0,2.3426,0,11.7946,11.7946,0,0,0,2.3086-.66c.3735-.1319.7639-.33,1.1374-.4949l.2716-.132.2716-.132c.1867-.0989.3565-.1979.5432-.2969l1.0864-.6929a9.1857,9.1857,0,0,1,1.12-.5939l.0339-.099a.6771.6771,0,0,0-.1188-.495l-.2037-.1979a1.312,1.312,0,0,0-.5092-.495Zm7.4691,5.2463.4753.6269.2376.297.2377.297,1.0015,1.1548a24.1353,24.1353,0,0,0,2.088,2.0457c.3564.297.73.5609,1.0864.8249a6.37,6.37,0,0,0,1.12.6269c.1019.033.1868.099.2886.132s.1867.066.2886.099c.1867.066.39.099.5772.165a3.4362,3.4362,0,0,0,.5771.0659h.2207l-.0679-.1319a6.4623,6.4623,0,0,0-.4414-.66l-.0679-.099-.0509-.066c-.0339-.033-.0849-.099-.1188-.132-.0849-.099-.17-.165-.2547-.264-.17-.1649-.3564-.2969-.5262-.4619-.17-.132-.3565-.264-.5262-.3959a5.5551,5.5551,0,0,1-.679-.396c-.56-.33-1.12-.7259-1.6806-1.1218-.2716-.198-.5432-.429-.8148-.66a4.1809,4.1809,0,0,1-.7808-.8249L79.9,56.84l.4074.297a6.1357,6.1357,0,0,0,1.1373.66,9.1669,9.1669,0,0,1,1.1713.5279l1.1543.66c.3905.231.7809.462,1.1713.7259a7.091,7.091,0,0,1,.5772.462,2.5,2.5,0,0,1,.2886.2969,1.1674,1.1674,0,0,1,.1358.165l.0679.099.0679.099a.3421.3421,0,0,0,.0679.099h.0169l.8658.4949.4243.264.4414.2639a10.59,10.59,0,0,1,.8488.66c.56.495,1.1033.99,1.6466,1.4188a5.8121,5.8121,0,0,0,.8317.528l.1019.033.1018.033.2377.066a2.549,2.549,0,0,1,.4583.1649,4.8576,4.8576,0,0,0,.8827.264c.0849,0,.1528.033.2377.033-.17-.264-.34-.4949-.5093-.7259-.34-.4619-.679-.8909-1.0354-1.32-.696-.8579-1.409-1.65-2.1219-2.4417l-1.0695-1.1548-1.0694-1.0889-.5432-.4949-.5432-.4949-.5432-.462-.56-.4289L84.11,55.784c-.1867-.132-.3734-.231-.5771-.363l-.5772-.3629c-.3734-.231-.7639-.429-1.1543-.6269l-.5772-.297c-.1867-.099-.39-.165-.5771-.264a4.217,4.217,0,0,0-.5772-.2309l-.2885-.099c-.1019-.033-.1868-.066-.2886-.099l-.5772-.132-.5771-.132c-.3905-.066-.7809-.1319-1.1713-.1649a3.3873,3.3873,0,0,0-.5772.033.5663.5663,0,0,0-.2207.0659.4662.4662,0,0,0-.2037.396l.017.099A9.584,9.584,0,0,1,77.15,54.86l.9167,1.3528Z"/><path class="cls-5" d="M62.33,48.9539a15.3216,15.3216,0,0,0-5.1265,1.2868,19.9616,19.9616,0,0,0-4.6,2.3757c.4923.8579,1.6636.8579,2.3256,1.1219,1.1034.3959,2.92-.495,4.0571-.495.7809,0,1.5617,0,2.3256.066a1.4921,1.4921,0,0,0-.4074.165c-.2716.132-1.0864.5939-1.0355,1.0888.0509.594,1.4259,1.0559,1.6975,1.1549,2.088.7259,4.7191-.132,6.858-1.2868a23.05,23.05,0,0,0,2.9877-2.2767,5.203,5.203,0,0,0-1.12.5939l-1.0864.6929c-.1867.099-.3565.198-.5432.297l-.2716.1319-.2716.132a7.6333,7.6333,0,0,1-1.1374.495,11.8051,11.8051,0,0,1-2.3086.66,6.9785,6.9785,0,0,1-2.3426,0c-.1018-.033-.1867-.033-.2886-.066s-.2037-.066-.2886-.099c-.1867-.066-.39-.132-.5771-.198a4.299,4.299,0,0,1-.56-.2639.96.96,0,0,1-.2207-.165.44.44,0,0,0,.0849-.099,2.9433,2.9433,0,0,1,.5262-.363l.0679-.033h.0679c.051-.033.0849-.033.1358-.0659.0849-.033.1868-.066.2717-.099.1867-.033.39-.066.5771-.099a3.29,3.29,0,0,1,.5772-.033c.2376.033.4753.033.7129.066.5942,0,1.1883,0,1.7654-.033a8.1435,8.1435,0,0,0,.8828-.132,2.9982,2.9982,0,0,0,.8657-.297l.4244-.2309-.4414.033a3.6269,3.6269,0,0,1-1.1882-.099,7.5535,7.5535,0,0,0-1.1883-.231l-1.2053-.066a7.5567,7.5567,0,0,0-1.2222,0,4.0585,4.0585,0,0,0-.6281.066c-.1018.033-.2206.066-.3225.099a1.787,1.787,0,0,1-.17.066l-.0849.033-.0679.033c-.017,0-.0509.033-.0679.033h-.017l-.9-.066-.4583-.033h-.4583a4.3888,4.3888,0,0,0-.9167.132,18.04,18.04,0,0,1-1.7994.33,3.7966,3.7966,0,0,1-.8657,0l-.1019-.033L55.15,53.21l-.2207-.099a2.4033,2.4033,0,0,0-.4583-.1319,7.7553,7.7553,0,0,1-.8827-.264.602.602,0,0,1-.2207-.132,5.9377,5.9377,0,0,1,.6111-.3629c.39-.231.7978-.429,1.1883-.6269a25.0921,25.0921,0,0,1,2.41-1.0229l1.2053-.4619c.4074-.132.7978-.264,1.2052-.363l.5942-.132.5941-.132.5941-.0989.6111-.066,1.2053-.033h.5941l.5941.033c.4074,0,.7979.066,1.1883.099l.5941.0989c.2037.033.3905.066.5942.099.1867.033.39.099.5941.132l.2886.066c.0849.033.1867.066.2886.099l.5771.231.5772.2309a8.0576,8.0576,0,0,1,1.1373.5609,3.8586,3.8586,0,0,1,.5432.363l.2037.198c-.5941-.9239-2.9536-1.8478-3.378-1.98a20.5731,20.5731,0,0,0-5.6528-.5609Z"/><path class="cls-2" d="M71.5819,51.66a.9671.9671,0,0,0-.1018-.2639,3.4545,3.4545,0,0,0-.2547-.363,2.9967,2.9967,0,0,0-.5432-.4949,6.5674,6.5674,0,0,0-1.1373-.7259l-1.1713-.5609-.3056-.132-.3055-.099-.5941-.165-.6112-.1319-.5941-.099-1.2052-.132-.6111-.033-.6112-.033H62.3134l-.6111.033-.6281.066-.6111.099-.6111.1319-1.2222.363-1.2222.4289-1.2222.495-1.2223.5609-1.2222.66-1.2222.8249-.39.33.3055.528a1.8664,1.8664,0,0,0,.4923.5609,1.7962,1.7962,0,0,0,.4923.264,5.344,5.344,0,0,0,.9336.2639l.4414.099.2207.066.1358.033.1188.033a3.0472,3.0472,0,0,0,.9506-.066c.6111-.132,1.2222-.33,1.8164-.4949a4.2459,4.2459,0,0,1,.8827-.198l.9-.066h.2376a.8709.8709,0,0,0-.1867.231,1.7881,1.7881,0,0,0-.1868.3629,2.0016,2.0016,0,0,0-.0679.363v.2639a.0969.0969,0,0,0,.017.066.23.23,0,0,0,.034.099,1.034,1.034,0,0,0,.2037.396,1.7473,1.7473,0,0,1,.17.1979,3.09,3.09,0,0,0,.3226.231,5.5232,5.5232,0,0,0,.6111.33,4.6138,4.6138,0,0,0,.6111.231l.3055.099a1.0175,1.0175,0,0,0,.3226.066,5.38,5.38,0,0,0,1.2561.099,7.6889,7.6889,0,0,0,1.2222-.132c.2038-.033.4075-.099.6112-.132l.5941-.198c.39-.1319.7809-.2969,1.1713-.4619s.7639-.3629,1.1543-.5609l.2886-.165.0339-.033.034-.033.0679-.033.1358-.099a5.8353,5.8353,0,0,0,.56-.3959,11.672,11.672,0,0,0,1.0524-.99c.3395-.3629.6621-.7259.9846-1.1218a24.26,24.26,0,0,1-2.9877,2.2767c-2.1388,1.1548-4.753,2.0127-6.8579,1.2868-.2717-.099-1.6466-.5609-1.6976-1.1548-.0509-.495.7639-.9569,1.0355-1.0889.1188-.066.2546-.099.4074-.165a13.6985,13.6985,0,0,0-2.3256-.066c-1.1373.033-2.9706.9239-4.0571.495-.679-.264-1.85-.264-2.3256-1.1219a18.7479,18.7479,0,0,1,4.6-2.3757,15.3216,15.3216,0,0,1,5.1265-1.2868,18.1806,18.1806,0,0,1,5.6358.5939c.4244.132,2.784,1.0559,3.3781,1.98.017.033.0339.033.0509.066a.7585.7585,0,0,1,.0849.1649.16.16,0,0,1,.017.066v.099l.1188.066c0-.033.017-.033.017-.066v-.099c.017,0,.017-.066-.017-.132ZM94.0911,65.1547c-.3226-.5609-.679-1.0559-1.0185-1.5508L92.02,62.2511l-1.07-1.2868-1.0694-1.2209-1.0864-1.1548L87.6914,57.5l-.56-.5279-.56-.4619-.5771-.462-.5772-.3959-1.1713-.7259-.5771-.3629-.5772-.33L81.92,53.6393l-.5941-.264-.5941-.231-.5942-.1979-.3055-.099-.3056-.066-1.1882-.198H77.1328a3.4451,3.4451,0,0,0-.5941.132.8041.8041,0,0,0-.3056.198.3774.3774,0,0,0-.1358.198,1.0094,1.0094,0,0,0-.0509.1649c0,.033-.017.066-.017.099v.066h.1189v-.099c0-.033.0169-.033.0339-.066l.1019-.099c.0169,0,.0339,0,.0509-.033.713-.5279,3.1065.066,3.5139.198a22.7852,22.7852,0,0,1,5.449,2.8706,26.3551,26.3551,0,0,1,4.6512,4.3554A38.1073,38.1073,0,0,1,93.9213,65.65c-.5941.5279-1.7144-.1979-2.3935-.3629-1.1033-.297-2.682-2.2437-3.7685-2.97-.7469-.4949-1.4768-.9569-2.2237-1.3528a3.7565,3.7565,0,0,1,.3565.3959c.2206.297.9336,1.2208.7978,1.6828-.1528.5279-1.5278.132-1.7994.033-2.1049-.5939-4.4475-3.0026-6.2978-5.4113a40.9645,40.9645,0,0,1-2.4614-3.9924c.2377.5939.4923,1.1218.7469,1.6827a14.0688,14.0688,0,0,0,.8318,1.5838c.1528.231.3056.495.4583.7259l.2037.297.034.033.2376.33c.3226.429.6621.8579,1.0016,1.2539s.696.7918,1.0355,1.1548a5.3913,5.3913,0,0,0,.5432.5279l.56.495a11.15,11.15,0,0,0,1.1373.8908,6.6341,6.6341,0,0,0,1.2052.66l.3056.132.3056.099a3.8437,3.8437,0,0,0,.628.132,4.0615,4.0615,0,0,0,.6451.066,1.13,1.13,0,0,0,.3395-.033.4921.4921,0,0,0,.2037-.066.4752.4752,0,0,0,.2546-.264l.051-.099c0-.0329.0169-.0329.0169-.0659h0l.017-.033v-.033l.017-.066c0-.033.017-.066.017-.099a1.5469,1.5469,0,0,0,0-.396,2.2915,2.2915,0,0,0-.1189-.4619,1.504,1.504,0,0,0-.1527-.33l.2206.1649.8318.594a6.4439,6.4439,0,0,1,.7979.7259c.5432.5279,1.0694,1.0888,1.63,1.5837a5.4543,5.4543,0,0,0,.9.6269l.1188.066.1188.066.2207.066c.1528.066.2886.132.4413.198a4.8205,4.8205,0,0,0,.9337.33,1.3083,1.3083,0,0,0,.5092.033.9738.9738,0,0,0,.5432-.2309l.3735-.297Z"/><path class="cls-5" d="M84.9414,63.043c.2716.066,1.6466.4619,1.7994-.033.1358-.462-.5772-1.3858-.7978-1.6828a3.7565,3.7565,0,0,0-.3565-.3959c.7469.3959,1.4768.8579,2.2237,1.3528,1.0865.7259,2.6651,2.6726,3.7685,2.97.679.165,1.7994.8909,2.3935.3629A38.1155,38.1155,0,0,0,90,60.5353,26.3551,26.3551,0,0,0,85.3488,56.18,22.7852,22.7852,0,0,0,79.9,53.3093c-.4244-.132-2.8179-.6929-3.5139-.1979a.5649.5649,0,0,1,.2207-.066,3.289,3.289,0,0,1,.5771-.033c.3905.033.7809.099,1.1713.1649a3.6409,3.6409,0,0,1,.5772.132l.5771.132.2886.099.2886.099a4.209,4.209,0,0,1,.5771.231l.5772.2639.5772.297,1.1543.6269c.1867.099.3734.231.5771.3629l.5772.363,1.1373.7589.56.4289.5432.462.5432.4949.5432.4949,1.07,1.0889,1.0694,1.1548c.713.7919,1.4259,1.5838,2.1219,2.4417.3565.4289.696.8579,1.0355,1.32.17.231.34.4619.5093.7259a.5933.5933,0,0,1-.2377-.033c-.2886-.066-.5772-.165-.8827-.264l-.4583-.1649-.2377-.066-.1019-.033-.1018-.033a5.8208,5.8208,0,0,1-.8318-.5279c-.56-.429-1.1034-.9239-1.6466-1.4188a10.5681,10.5681,0,0,0-.8488-.66c-.1527-.0989-.2885-.1649-.4413-.2639l-.4244-.264-.8657-.4949h-.017l-.0679-.099-.0679-.099-.0679-.099a1.16,1.16,0,0,1-.1358-.165c-.1019-.0989-.1867-.1979-.2886-.2969a7.0728,7.0728,0,0,0-.5771-.462,11.3168,11.3168,0,0,0-1.1713-.7259l-1.1543-.66c-.3905-.1979-.7809-.3629-1.1713-.5279a4.4146,4.4146,0,0,1-1.1374-.66l-.4074-.297.3565.495a6.1624,6.1624,0,0,0,.7809.8249c.2716.2309.5432.4289.8148.66a18.4746,18.4746,0,0,0,1.6805,1.1218c.2207.132.4584.264.679.396.1868.1319.3565.2639.5263.3959a4.5615,4.5615,0,0,1,.5262.4619,1.9571,1.9571,0,0,1,.2546.264c.034.033.0849.099.1189.132l.0509.066.0679.099c.1528.2309.3055.4289.4413.66a.4851.4851,0,0,1,.0679.132h-.2206a3.6481,3.6481,0,0,1-.5772-.066,3.7948,3.7948,0,0,1-.5772-.165c-.1018-.033-.2037-.066-.2885-.099a1.4583,1.4583,0,0,1-.2886-.132,6.3707,6.3707,0,0,1-1.12-.6269c-.3734-.264-.73-.5279-1.0864-.8249a20.1216,20.1216,0,0,1-2.0879-2.0457c-.34-.3629-.6621-.7589-1.0016-1.1548l-.2376-.297-.2377-.297c-.17-.1979-.3055-.4289-.4753-.6269l-.9167-1.32c-.3055-.4289-.628-.8579-.9675-1.2538.9336,1.5178,1.4768,2.6726,2.4614,3.9924,1.8163,2.4087,4.1759,4.8174,6.2808,5.4113Z"/><path class="cls-6" d="M69.63,55.652a10.5328,10.5328,0,0,0,.7808,3.7285c.5772,1.65.2716,3.7945.2886,5.5762.034,2.7716-.4923,13.7591.73,16.3658h0c1.5448-1.2539,2.801-11.68,3.2763-14.2541.3055-1.65.3734-4.4544,1.1882-5.5432a6.0331,6.0331,0,0,0,1.5957-3.1676l-3.6157-7.193S69.63,55.586,69.63,55.652Z"/><path class="cls-7" d="M76.9291,58.3576l-.3055.264a4.2435,4.2435,0,0,0,.3734-.5279c.1358-.231-.1188-.462-.2207-.429l-.5092.264a3.7741,3.7741,0,0,0,.2037-.66c.0509-.264-.1358-.396-.2377-.363-1.0524.363-1.7824,1.7488-2.733,2.6727a11.4378,11.4378,0,0,1-1.4259,1.1548l-.2037.099a1.549,1.549,0,0,1-.39.132c-.1189.066-.2037,0-.2547-.231.0849-.165.3565-.264.4753-.33a6.722,6.722,0,0,0,1.29-.8578,6.6376,6.6376,0,0,0,1.0355-1.1879A5.094,5.094,0,0,0,75.86,56.2459a.2663.2663,0,0,0-.2377-.3629,2.8374,2.8374,0,0,0-1.4429,1.4518c-.1358.2309-.2716.4289-.4243.66-.2717.165-.56.33-.8318.4619a3.5745,3.5745,0,0,1-.5942.198l.8148-.8909a9.9518,9.9518,0,0,0,2.2238-2.4417c.1528-.2639-.1528-.4619-.2546-.3959a12.3746,12.3746,0,0,0-2.2577,1.7818h.0169c.6621-.627,1.29-1.2869,1.9352-2.0128.1528-.1649-.1188-.4289-.2376-.4289l.17-.165c.2037-.198-.0849-.5609-.2207-.4289A17.6417,17.6417,0,0,0,72.4477,55.52c-.5263.5609-1.2053,1.6168-1.85,1.9138a8.4074,8.4074,0,0,1,1.358-1.5508l1.9182-2.2767c.1188-.132-.017-.33-.1358-.396l.4244-.4949c.1188-.132-.034-.3629-.1528-.4289a.6283.6283,0,0,0,.017-.429c-.051-.132-.1528-.2309-.2377-.1979-.1188.0329-.2037.1979-.3055.2969a15.6437,15.6437,0,0,1-1.2223,1.4518c-.56.5279-1.1373.9569-1.6975,1.4848l-.4923.297c-.0848.066-.0848.132-.0509.2309l-.1188.132a.2662.2662,0,0,0-.017.231c.0849.2969.2546.3959.4414.3629l-.4753.429a.2975.2975,0,0,0,.1358.4619.625.625,0,0,0,.34-.099,2.3741,2.3741,0,0,0-.2886.66.3275.3275,0,0,0,.2037.396h.2376l-.1358.198c-.1527.2309.1528.5279.2547.3959l.0339-.033.1188-.132c-.0169.033-.0339.033-.0509.066a.2908.2908,0,0,0,.2207.429c.6111-.066,1.1543-.7589,1.6636-1.3529a11.78,11.78,0,0,1,1.7314-1.5837c-.4413.4949-.9336.8578-1.3919,1.2868-.5432.5279-1.0355,1.1218-1.5957,1.6168a1.8771,1.8771,0,0,0-.679.4949c-.17.198.17.4619.2546.3959a6.86,6.86,0,0,0,.6111-.4289c.3056-.099.6451-.132.9337-.231.17-.066.3225-.132.4923-.1979a7.04,7.04,0,0,1-.747.66c-.3734.2639-1.0015.2969-1.29.8908a.8853.8853,0,0,0,.2037.8579c.017,0,.034.033.051.033-.051.066-.1019.099-.1528.165-.1019.099,0,.33.0849.3959a.8388.8388,0,0,0,.73.099l-.56.429c-.1528.1319-.0339.3629.1019.4289-.34.396-.56.8249-.3565,1.0889s.4923,0,.679-.132a7.2494,7.2494,0,0,0,.5941-.462c-.017.033-.0509.066-.0679.099a.1635.1635,0,0,0-.0339.165l-.34.3959c-.0679.066-.051.165,0,.264a2.2568,2.2568,0,0,0-.9337.9569.2916.2916,0,0,0,.17.4289,1.95,1.95,0,0,0,1.3071-.33.2812.2812,0,0,0,.1867.3629,1.1965,1.1965,0,0,0,.662-.132l-.1018.099a4.09,4.09,0,0,1-.5093.429,8.86,8.86,0,0,0-1.5108.9568c-.2037.165.0849.561.2207.429a9.0493,9.0493,0,0,1,1.1713-.7919l.1188-.066a14.1579,14.1579,0,0,0-1.4259,1.65c-.17.2309.1528.4619.2546.3959a2.485,2.485,0,0,0,.2207-.165,5.8726,5.8726,0,0,0-.3734.7919c-.0849.231.17.429.2376.363a3.8886,3.8886,0,0,0,1.0015-.6929,6.425,6.425,0,0,0-.645,1.4518.265.265,0,0,0,.1188.33l-.2376.297c-.1528.2309.17.5279.2885.3629l.4584-.5939a2.0407,2.0407,0,0,1,.8318-.66,1.8819,1.8819,0,0,1-.6451.8579c-.2037.165.0849.5609.2207.4289a2.093,2.093,0,0,0,.8487-1.5178.3047.3047,0,0,0-.2037-.33.8634.8634,0,0,0-.2885.033c.17-.297.34-.6269.5092-.9569.1019-.231-.2037-.4289-.2716-.3629a16.0166,16.0166,0,0,0-.9846,1.5178,16.8425,16.8425,0,0,1,1.9013-2.7387c.1528-.2309-.1528-.4949-.2547-.3959a20.9593,20.9593,0,0,1-2.2067,2.0457,22.0649,22.0649,0,0,1,1.9861-2.3757c.1358-.1649-.051-.3629-.17-.3959l.17-.198h0c.0169,0,.0169-.033.0339-.033a.2073.2073,0,0,0-.0509-.2969,4.6742,4.6742,0,0,0,1.0355-1.2869c.1358-.2969-.1528-.4619-.2546-.3959a15.0791,15.0791,0,0,1-1.7145,1.2538,11.3472,11.3472,0,0,1,1.9182-1.8807c.2037-.165-.0849-.528-.2207-.429a17.2531,17.2531,0,0,0-1.6806,1.32,4.438,4.438,0,0,1-1.5617.99,11.4108,11.4108,0,0,1,1.7315-1.2538,25.4777,25.4777,0,0,0,2.5293-2.3427c.1358-.165-.0509-.3629-.17-.4289l1.0525-1.1219c.2037-.198-.0849-.4949-.2207-.4289a1.4989,1.4989,0,0,0-.17.099c.2886-.297.5941-.561.9-.8249.2206-.099-.051-.462-.1868-.363Zm-4.38-1.4188a12.8936,12.8936,0,0,1-1.0185,1.0889A10.9556,10.9556,0,0,1,72.55,56.9388ZM72.04,61.36a.9679.9679,0,0,1-.3564.198c.0679-.033.1188-.099.1867-.132.0509-.033.1188-.033.17-.066Zm2.105-1.8477a8.4721,8.4721,0,0,1,1.8333-1.9138,4.73,4.73,0,0,1-.4074.8249,9.3263,9.3263,0,0,0-1.4259,1.0889ZM71.6328,63.241a3.5623,3.5623,0,0,1,.4414-.429,14.6245,14.6245,0,0,1,1.1373-.9569c.713-.5939,1.375-1.2868,2.054-1.98l.3905-.2969c-.5942.5939-1.1713,1.2538-1.7824,1.8147a27.62,27.62,0,0,1-2.2408,1.8478Zm2.9028-1.7158-.1528.165h-.0169l.0509-.066Z"/><path class="cls-2" d="M82.0387,66.7715l-.4244-.7919L80.1205,63.076l-.9846-1.98-1.1034-2.2437-1.1883-2.4087L75.622,53.9032l-1.358-2.8046.9-.9568.73-.7919.713-.7259,1.29-1.4848a16.2879,16.2879,0,0,0,1.0185-1.4518,7.3986,7.3986,0,0,0,.679-1.3858,8.3383,8.3383,0,0,0,.3226-1.0889,1.3012,1.3012,0,0,0,.0509-.33l.017-.099-.017.099c-.017.066-.034.1649-.0679.2969a6.9614,6.9614,0,0,1-.34,1.0229,7.9747,7.9747,0,0,1-.713,1.2538,14.0053,14.0053,0,0,1-1.0525,1.2868l-1.324,1.2539-.73.66-.7469.7589-1.0015,1.0228-.7809-1.6168-.5771-1.1878-.5772-1.0888L71.0217,44.5a20.1017,20.1017,0,0,1-.7808-1.8807,11.2915,11.2915,0,0,1-.4753-1.65,7.9856,7.9856,0,0,1-.1528-1.1878v0a7.5687,7.5687,0,0,0,.1188,1.2208,17.3193,17.3193,0,0,0,.4074,1.7488,20.8645,20.8645,0,0,0,.73,2.0127l.9675,2.2107L72.38,48.129l.56,1.1879.679,1.4848-1.7824,1.8477-1.5787,1.6168L68.73,55.817l-1.4259,1.4188L66.031,58.49,64.13,60.3044l-.5432.4949-.1868.165.2038-.132.56-.363.8658-.6269,1.12-.8579,1.3071-1.1218,1.46-1.32.6451-.6269a4.7525,4.7525,0,0,0,.0509.6929,9.4256,9.4256,0,0,0,.34,1.6167c.1358.495.3225.99.4753,1.4518a7.74,7.74,0,0,1,.2546,1.5838c.0679,1.1219-.0339,2.2437-.0339,3.3656v.099c-.034.0659-.0849.0989-.1019.1649a1.0269,1.0269,0,0,0-.1018.297.24.24,0,0,0,0,.132.4515.4515,0,0,1,.0169-.099.4128.4128,0,0,1,.1189-.198c.0169-.033.0509-.066.0679-.066,0,.462,0,.9569-.017,1.4188l-.034,1.6828c-.0509,2.2437-.0679,4.52-.0339,6.7971.017,1.1218.0679,2.2766.17,3.3985q.0765.8414.2037,1.6828a7.472,7.472,0,0,0,.4244,1.5507l.017.033h.034l.0169-.033a2.792,2.792,0,0,0,.679-1.1218,13.2538,13.2538,0,0,0,.4753-1.4518c.2717-.99.5093-2.0457.713-3.1016.3225-1.65.5941-3.3655.8657-5.0483h.017v-.066l.2037-1.3528.2547-1.6168c.0509-.2639.0848-.5279.1358-.7918s.0848-.561.1188-.8249l.0339-.264.0849.132.1867.264-.17-.297-.0849-.165.17-1.32a13.36,13.36,0,0,1,.2885-1.5508,3.9168,3.9168,0,0,1,.5093-1.2538c.2377-.297.4753-.5939.696-.9239a7.0718,7.0718,0,0,0,.6281-1.1218,3.3946,3.3946,0,0,0,.2037-.6929l.2546.4949,1.1543,2.1777c.3735.6929.73,1.32,1.0525,1.8807l.9166,1.5178.713,1.1219.4753.6929.17.2309-.1358-.2639Zm-7.2145-.7589c-.034.2639-.0679.5609-.1188.7919l-.1358.7918-.2547,1.6168-.17,1.0559a1.0062,1.0062,0,0,0-.0679-.264,2.1691,2.1691,0,0,0-.1528-.4289c-.0679-.165-.1358-.297-.2207-.462a2.4206,2.4206,0,0,0-.2886-.3959c-.1018-.099-.2206-.231-.34-.33a1.03,1.03,0,0,0-.3734-.1979,1.4649,1.4649,0,0,0-.7469-.066c-.1189.033-.2377.066-.34.099a1.1151,1.1151,0,0,0-.2886.1979,1.5477,1.5477,0,0,0-.2377.231,2,2,0,0,0-.17.231c-.0509.066-.0679.132-.1019.1649l-.0339.066v.033l.0509-.033c.034-.033.0679-.033.1188-.066a.0952.0952,0,0,1,.0849-.0329c.034,0,.0679-.033.1019-.033.0679-.033.1527-.066.2376-.099.1019-.033.1867-.033.2886-.066h.3225c.1019,0,.2207.033.34.033.1189.033.2377.066.34.099a1.4451,1.4451,0,0,1,.34.1319,2.1591,2.1591,0,0,1,.8488.7589,2.5765,2.5765,0,0,1,.2716.66c0,.033.017.033.017.066-.2716,1.7488-.56,3.4646-.9,5.18-.2037,1.0559-.4414,2.1117-.713,3.0686a12.7141,12.7141,0,0,1-.4753,1.4188,2.785,2.785,0,0,1-.5941.99,6.3971,6.3971,0,0,1-.3565-1.3858c-.0849-.528-.1528-1.0889-.2037-1.65-.1018-1.1219-.1358-2.2437-.17-3.3655-.051-2.2437-.034-4.52.0169-6.7641l.034-1.6828V64.8577a1.1,1.1,0,0,1,.3734-.165,5.0352,5.0352,0,0,1,.8148-.1649c.1528,0,.3056-.033.4584-.033h.696l.2376.033a1.9457,1.9457,0,0,1,.4414.132,2.1282,2.1282,0,0,1,.4074.2639,3.743,3.743,0,0,1,.3565.363,4.8418,4.8418,0,0,1,.3225.4289l-.0679.297Zm2.3595-6.5661a5.6017,5.6017,0,0,1-.6111,1.0888c-.2207.33-.4583.5939-.696.9239a3.6842,3.6842,0,0,0-.5432,1.32,14.5,14.5,0,0,0-.3055,1.6168c-.0509.3959-.1019.8249-.1528,1.2208a3.1084,3.1084,0,0,0-.2886-.4619,3.6528,3.6528,0,0,0-.7469-.8909,1.754,1.754,0,0,0-.4753-.33.9214.9214,0,0,0-.2376-.099c-.0849-.033-.17-.033-.2547-.066a1.33,1.33,0,0,0-.5092.033c-.17.033-.3226.099-.4753.132a4.824,4.824,0,0,0-.8318.4289c-.1188.099-.2207.165-.3225.264.0169-1.0889.1018-2.2107.0339-3.3656a7.2979,7.2979,0,0,0-.2716-1.65c-.1528-.495-.34-.9569-.4753-1.4518a9.3275,9.3275,0,0,1-.3225-1.5508,5.6921,5.6921,0,0,1-.051-.7589l.7979-.7919,1.5787-1.6168,1.5787-1.65.2546-.2639.1867.3959.6281,1.3528.017.066c.0679.165.1358.33.2037.462l.2037.4619.2037.4619c.0679.165.1358.297.2037.462l.2207.4289.2207.4289c.0679.132.1527.264.2376.396a1.0256,1.0256,0,0,0,.17.264l.1358.2969.8827,1.7488a2.9844,2.9844,0,0,1-.1868.6929Z"/><path class="cls-1" d="M74.0263,70.401a.1614.1614,0,0,0-.2546-.132,4.0162,4.0162,0,0,0-.4074.6269h-.017a16.5579,16.5579,0,0,0-1.9182,2.6066,4.9152,4.9152,0,0,1-.3564.429,10.8484,10.8484,0,0,0,.9675-1.5178l1.3411-2.1447c.0849-.132-.2037-.231-.2546-.198-.5263.4619-1.0525,1.0229-1.5787,1.4848a4.0721,4.0721,0,0,0,.5941-1.4848,1.1023,1.1023,0,0,0,.4753-.264,2.5932,2.5932,0,0,0-.3565-.1979c.0509-.198-.2037-.231-.2546-.165-.34.3629-.73.4949-1.0694.8579-.1019.099.1527.2969.2376.2309a1.04,1.04,0,0,1,.4583-.2639A4.3573,4.3573,0,0,0,70.852,72.15a.1627.1627,0,0,0,.2376.165,7.91,7.91,0,0,0,1.409-1.2208l-1.7824,2.8376c-.034.033,0,.132.017.165.2546.3959.5432.0989.7978-.198.4583-.5609.8488-1.2868,1.29-1.8808-.5092,1.0229-1.0525,1.98-1.5787,2.97-.0849.165.2037.231.2546.198a5.5762,5.5762,0,0,0,.8149-.9239,24.7219,24.7219,0,0,1-1.1374,2.31c-.0849.132.1867.231.2207.198.2886-.198.5771-.429.8657-.66-.39.7259-.7639,1.4848-1.12,2.31-.0679.1649.2037.2969.2716.1649l.8827-1.7817-.4923,1.8147a6.4973,6.4973,0,0,0-.4753,1.1879c-.034.132.0509.1979.1188.1979l-.0339.165c-.034.165.2376.198.2716.132a6.4286,6.4286,0,0,0,.696-2.1447,31.4465,31.4465,0,0,0,1.0524-3.7285c.034-.132-.1018-.198-.2037-.165.1358-.5939.2377-1.1548.34-1.7817.0849.099.2037.066.2037-.066,0-.6269.3735-1.2868.2546-2.0127Zm-.3225.8908a.2116.2116,0,0,0-.1358-.0659,2.8869,2.8869,0,0,1,.2037-.33c-.017.099-.0509.231-.0679.3959Zm-1.2052,2.0788c0,.033-.017.0659-.017.0989v.066c-.0849.132-.17.231-.2546.363Zm.679-.396c.0339-.099-.034-.165-.1188-.198a6.0146,6.0146,0,0,1,.2885-.66,27.9425,27.9425,0,0,1-.628,3.1016,11.5255,11.5255,0,0,1-.9167.8909,30.4033,30.4033,0,0,0,1.375-3.1346Z"/><path class="cls-5" d="M77.6251,54.6951a.7122.7122,0,0,1,.2037-.132,2.1009,2.1009,0,0,1,.4244-.1319l.4244-.033h.4243l.4074.033.4075-.033h.8487l1.6636-.033.4074-.066.2037-.033.2037-.066.8318-.231,1.6805-.5279a16.0591,16.0591,0,0,0,1.6636-.6929A8.0328,8.0328,0,0,0,89.0155,51.66a5.3492,5.3492,0,0,0,1.1034-1.3529c-.051,0-.1019-.033-.1358-.033-.0849,0-.17-.033-.2547-.033h-.5092c-.0849,0-.17.033-.2546.033l-.5093.099a3.0485,3.0485,0,0,0-.5093.165l-.5092.198-.5093.2309-.5092.231.8827-.4619.2376-.132.3735-.231.5093-.2969.1867-.099.4583-.264a9.1913,9.1913,0,0,1,.9-.4619l.4583-.198a2.8336,2.8336,0,0,0,.4414-.231,6.4,6.4,0,0,0,.8657-.5609c.2886-.198.56-.4289.8488-.66s.56-.4949.8318-.7589l.8318-.7919.8487-.7919c.5772-.5279,1.1543-.99,1.7145-1.4518.2886-.2639.56-.4949.8318-.7919.1358-.1319.2716-.2969.39-.4289a2.24,2.24,0,0,0,.1868-.231l.1867-.2639.7639-1.0559a8.3986,8.3986,0,0,0,.4753-.7589,6.4525,6.4525,0,0,0-1.3411-.3629,9.2851,9.2851,0,0,0-1.6466-.165c-.5432,0-1.1034.033-1.6466.066-.5432.066-1.0864.132-1.6466.2309a7.1286,7.1286,0,0,0-.8148.165l-.8148.198-.7978.231-.7979.2969-.39.165c-.1358.066-.2546.099-.39.165l-.3905.165-.1867.0989-.2037.099-1.5617.7919a31.8192,31.8192,0,0,0-3.0555,1.7818c-.4923.33-1.0016.66-1.4939,1.0228l-.73.561c-.2377.1979-.4753.3959-.73.5939l-.713.6269-.713.66-.7129.6269-.713.6269a13.8563,13.8563,0,0,0-1.358,1.4188,7.1611,7.1611,0,0,0-.6281.8579,5.4774,5.4774,0,0,0-.5092,1.0889h-.017a3.894,3.894,0,0,0-.0509.5609c0,.231.2546.4289.4583.66s1.2731,1.65,1.2731,1.65v-.132h0a.23.23,0,0,1,.034-.099l-.017-.033a.84.84,0,0,0,.2886-.198Z"/><path class="cls-2" d="M100.1,39.8472a7.89,7.89,0,0,0-1.6636-.5609l-1.68-.198H95.0756l-1.6635.165-.8318.1319-.8148.165-.8149.198-.8148.264-.4074.1319-.4074.165-.4923.198-.1018.033-.2037.099-1.5787.7589-1.5617.8578L83.838,43.18l-1.5108,1.0559L80.85,45.4564l-1.4259,1.3858-.696.7259-.696.7589-.679.8249-.6451.9239a7.8545,7.8545,0,0,0-.5771,1.0558,5.4377,5.4377,0,0,0-.2377.6269,5.1463,5.1463,0,0,0-.17.6929h.0339a4.11,4.11,0,0,1,.5093-1.0888c.2037-.297.4074-.5939.6281-.8579a15.9177,15.9177,0,0,1,1.358-1.4188l.7129-.6269.713-.6269.713-.66.7129-.627.73-.5939.73-.5609,1.4938-1.0229a31.82,31.82,0,0,1,3.0556-1.7817l1.5617-.7919.2037-.099.1867-.099.39-.1649a2.513,2.513,0,0,1,.3905-.165l.39-.165c.2546-.099.5262-.198.7978-.297l.7979-.2309.8148-.198.8148-.165c.5432-.099,1.0864-.165,1.6466-.2309a13.7388,13.7388,0,0,1,1.6466-.066,9.2942,9.2942,0,0,1,1.6466.1649,10.11,10.11,0,0,1,1.341.363,8.3763,8.3763,0,0,1-.4753.7589c-.2546.3629-.5092.6929-.7639,1.0558l-.1867.264c-.0679.099-.1358.165-.1867.231a5.062,5.062,0,0,1-.39.4289c-.2716.297-.5432.5279-.8318.7919l-1.7145,1.4518c-.2886.264-.56.5279-.8488.7919l-.8318.7919c-.2716.2639-.56.4949-.8318.7589-.2885.2309-.56.4619-.8487.66s-.5772.3959-.8658.5609c-.1527.099-.2885.132-.4413.231l-.4583.198c-.3056.1319-.5942.2969-.9.4619l-.4584.264-.1867.0989-.5092.297-.3735.231-.2377.1319c-.2885.165-.5941.33-.8827.462l.8827-.429h.034l-.9167.462.5093-.231.5093-.231.5092-.1979c.17-.066.34-.099.5093-.165l.5092-.099c.0849,0,.17-.033.2547-.033H89.83c.0849,0,.17.033.2546.033.051,0,.1019.033.1358.033a5.3444,5.3444,0,0,1-1.1034,1.3528,8.0257,8.0257,0,0,1-1.5956,1.0889,8.46,8.46,0,0,1-1.6636.6929c-.56.1979-1.12.3629-1.68.5279l-.8318.231-.2037.066-.2037.033-.4074.0659a13.9982,13.9982,0,0,1-1.6636.033h-.8488l-.4074.033a1.6992,1.6992,0,0,1-.4074-.033h-.4244a1.9148,1.9148,0,0,0-.4243.033,2.095,2.095,0,0,0-.4244.132.7122.7122,0,0,0-.2037.132.8731.8731,0,0,0-.1868.231l.017.033h0a.4574.4574,0,0,1,.39-.132,1.6992,1.6992,0,0,1,.4074.033l.4075.066.4074.0659c.1358.033.2716.033.4243.066h.4244c.2716,0,.56.033.8318.033a14.5009,14.5009,0,0,0,1.6975.033c.1358,0,.2886-.033.4244-.033l.2207-.033.2037-.033.8487-.2309a16.4608,16.4608,0,0,0,1.6976-.495,11.6387,11.6387,0,0,0,1.6975-.7259,8.1651,8.1651,0,0,0,1.6636-1.1878,6.2137,6.2137,0,0,0,1.46-2.0457l.2037-.4619-.3055-.099c-.0679-.033-.1528-.033-.2207-.066l.1358-.033c.1528-.066.3056-.099.4583-.165.3056-.132.6112-.297.9167-.4619s.5941-.396.9-.5939l.8657-.693c.2886-.2309.5772-.4949.8488-.7588l.8488-.7919c.56-.495,1.1373-.99,1.6975-1.5508a11.0674,11.0674,0,0,0,.8487-.8909l.4074-.4949.2038-.264.1867-.264c.2376-.3629.5092-.7259.7469-1.0888a8.45,8.45,0,0,0,.73-1.2208l.1867-.363Z"/><path class="cls-5" d="M72.04,51.1646a6.6,6.6,0,0,0-.3055-1.3528,9.7574,9.7574,0,0,0-.4583-1.1878c-.3226-.7589-.696-1.4848-1.0695-2.1777l-.56-1.0229L69.07,44.4006l-.5772-1.0559-.5771-1.0229-.5942-.99-.5941-.99-1.2392-1.8807c-.8487-1.2539-1.7145-2.4417-2.6142-3.5635l-1.358-1.7158-.17-.198-.17-.1979-.34-.429c-.1188-.132-.2376-.264-.3395-.3959l-.34-.396c-.2377-.2639-.4753-.4949-.713-.7589l-.73-.7259-.73-.6929-.7469-.66c-.5093-.4289-1.0016-.8249-1.5108-1.2208s-1.0355-.7589-1.5448-1.0889a11.5133,11.5133,0,0,0-1.5957-.8579,7.0344,7.0344,0,0,0-1.324-.4619c.1018.33.2037.6929.34,1.0229.1867.4949.3734.9568.56,1.4518l.1358.3629c.0509.132.1018.231.1358.33.1018.2309.2037.4619.3055.66.2037.4289.4244.8579.662,1.2538l1.392,2.4417c.2377.4289.4414.8579.679,1.2868l.6621,1.2538c.2206.429.4413.8249.679,1.2209.2206.3959.4583.7918.696,1.1548s.4753.7259.73,1.0559a3.5681,3.5681,0,0,0,.39.4619l.39.4949c.2547.33.5263.6269.7809.99l.4414.5939c.0339.033.0679.099.1188.132.1528.198.2886.3959.4244.5939l.3225.4619.2037.264.7639.99-.4414-.528-.4413-.5279-.4584-.4949a6.0554,6.0554,0,0,0-.4583-.462c-.1528-.1319-.3055-.2969-.4753-.4289-.0849-.066-.1528-.132-.2376-.198s-.1528-.099-.2377-.1649a.8588.8588,0,0,0-.2376-.132c-.0849-.033-.1528-.099-.2377-.132-.0509-.033-.1019-.033-.1358-.066a9.4432,9.4432,0,0,0,.8318,1.9467,15.0576,15.0576,0,0,0,1.341,2.0128c.4753.5939.9676,1.1548,1.46,1.6827s1.0015,1.0229,1.5108,1.5178l.7639.7259.1867.165.1867.165.39.2969A18.6911,18.6911,0,0,0,66.9647,50.01l.7978.5279.39.264a1.8606,1.8606,0,0,0,.3905.2309l.39.264c.1358.099.2716.198.39.297a3.9069,3.9069,0,0,1,.39.3629,2.0014,2.0014,0,0,1,.17.231,1.5065,1.5065,0,0,1,.1358.33l-.017.033a.3331.3331,0,0,1,0,.132h0l-.017.132,1.4939-.7919c.2376-.099.5092-.132.5432-.363a2.7621,2.7621,0,0,0,.0169-.4949Z"/><path class="cls-2" d="M72.0063,50.4057c-.034-.2639-.0849-.4949-.1358-.7259-.1019-.4619-.2377-.9239-.3735-1.3528l-.4583-1.2538-.5093-1.1879-.5262-1.1218L69.46,43.6746,68.34,41.497l-1.2052-2.0458-1.2731-1.9137-1.3071-1.8148L63.2131,33.974l-1.375-1.6828-.17-.198-.0849-.0989-.4414-.495-.3564-.3959-.3565-.396-.73-.7259-.7469-.6929-.7469-.66-.7639-.6269L55.8968,26.847l-1.5787-1.0229-1.63-.8249a6.1289,6.1289,0,0,0-1.6806-.4949l-.2716-.033.1188.4619a16.332,16.332,0,0,0,.4923,1.6168l.679,1.8808.1528.3629.3056.7259.662,1.3528c.4414.8909.9167,1.6828,1.358,2.5077l.679,1.2538.679,1.2538c.2377.396.4753.8249.713,1.1879.2377.3959.4923.7589.7469,1.1218s.5262.6929.7978,1.0229c.1358.1649.2717.2969.4075.4619h.0679a.4914.4914,0,0,0-.2207-.066l-.3056-.099.1189.5609a10.9887,10.9887,0,0,0,1.0524,2.8377,14.8712,14.8712,0,0,0,1.392,2.1447,22.8571,22.8571,0,0,0,1.4938,1.7487c.5093.5279,1.0185,1.0229,1.5278,1.5178l.7639.7259.1867.165.2037.165.4074.2969a15.8054,15.8054,0,0,0,1.6127.99l.7978.4619a4.251,4.251,0,0,1,.4074.264l.4074.198.4074.1649a2.5163,2.5163,0,0,0,.39.165c.1358.066.2547.132.3905.198a.9043.9043,0,0,1,.34.3629h0l.0169-.033a1.0316,1.0316,0,0,0-.1358-.33,1.3986,1.3986,0,0,0-.17-.231,2.6556,2.6556,0,0,0-.39-.3629c-.1358-.099-.2547-.198-.3905-.297l-.39-.264-.39-.2309-.39-.264c-.2717-.165-.5263-.3629-.7979-.5279a18.7234,18.7234,0,0,1-1.5787-1.0559l-.39-.2969-.1867-.165-.1868-.165-.7638-.7259c-.5093-.4949-1.0186-.99-1.5108-1.5178s-.9846-1.0888-1.46-1.6827a15.058,15.058,0,0,1-1.3411-2.0128,11.2865,11.2865,0,0,1-.8317-1.9467c.0509.033.1018.033.1358.066a.8588.8588,0,0,1,.2376.132.8579.8579,0,0,0,.2377.132l.2376.1649c.0849.066.1528.132.2377.198a5.5943,5.5943,0,0,1,.4753.429,6.072,6.072,0,0,1,.4583.4619l.4583.4949.4414.5279.4414.528-.7639-.99-.2037-.264-.3226-.4619L60.3274,41.2c-.034-.033-.0679-.099-.1189-.132l-.4413-.5939c-.2547-.33-.5093-.66-.7809-.99l-.39-.4949c-.1358-.165-.2547-.297-.3905-.4619-.2546-.33-.4922-.6929-.73-1.0559S57,36.7126,56.78,36.3167s-.4583-.7919-.679-1.2209L54.76,32.5552c-.4584-.8579-.9337-1.65-1.392-2.4417-.2207-.3959-.4414-.8249-.662-1.2538-.1019-.231-.2037-.4289-.3056-.66l-.1358-.33-.1358-.3629-.56-1.4518c-.1188-.33-.2376-.66-.34-1.0229a7.0263,7.0263,0,0,1,1.3241.462,12.5647,12.5647,0,0,1,1.5957.8578,18.69,18.69,0,0,1,1.5447,1.0889c.5093.3959,1.0185.7919,1.5108,1.2208.2546.198.4923.429.7469.66s.4923.462.73.6929l.7638.7589.713.7589.34.396c.1188.1319.2376.2639.3395.3959l.34.429.17.1979.17.198,1.358,1.7158c.9,1.1548,1.7654,2.3426,2.6142,3.5635.4244.6269.8318,1.2538,1.2392,1.8807l.5941.99c.2037.33.3905.66.5942.99l.5771,1.0229.5772,1.0559.5771,1.0228.56,1.0229q.56,1.0394,1.0695,2.1777.2546.5938.4583,1.1878a6.1382,6.1382,0,0,1,.3055,1.3528h.017a6.02,6.02,0,0,0-.0509-.7259Z"/></svg>