<?xml version="1.0" encoding="utf-8"?>
<!-- Generator: Adobe Illustrator 22.0.1, SVG Export Plug-In . SVG Version: 6.00 Build 0)  -->
<svg version="1.1" id="Layer_1" xmlns="http://www.w3.org/2000/svg" xmlns:xlink="http://www.w3.org/1999/xlink" x="0px" y="0px"
	 viewBox="0 0 120 60" style="enable-background:new 0 0 120 60;" xml:space="preserve">
<style type="text/css">
	.st0{display:none;}
	.st1{display:inline;fill:#FFFFFF;}
	.st2{fill:#FFFFFF;}
	.st3{fill:#293644;}
	.st4{fill:#243446;}
	.st5{opacity:0.7;fill:#FFFFFF;enable-background:new    ;}
	.st6{opacity:0.5;fill:#E1EEF4;enable-background:new    ;}
	.st7{fill:#D4DFE5;}
	.st8{fill:#DFEEF6;}
</style>
<g transform="matrix(.18795 0 0 .18795 3.911396 13.25763)">
	<g class="st0">
		<path class="st1" d="M172.9,136.9c-6.6,0-26.6,0-26.6-37.1c0-18.1,3.6-38.9,31.8-38.9c3.6,0,7.8,0.3,11.3,0.7V42.1l5.3-5.3h4.4
			l5.3,5.3v88.3l-5.3,5.3h-4.4l-3.1-3.1C187.1,134.7,180.2,136.9,172.9,136.9z M178.1,75.6c-11.4,0-16.8,3.7-16.8,24.6
			c0,22.1,7.5,22.1,11.6,22.1c6,0,12.6-2.5,16.5-4.4V76.5C185.7,76.1,181.1,75.6,178.1,75.6z M134.8,135.8l-5.3-5.3V38.3l5.3-5.3
			h4.4l5.3,5.3v92.1l-5.3,5.3H134.8z M114.3,135.8l-5.3-5.3V67.4l5.3-5.3h4.4l5.3,5.3v63.1l-5.3,5.3H114.3z M74.2,135.8l-5.2-4.1
			L55.2,73l-13.3,58.7l-5.2,4.1H24.6l-5.2-4.2L0.6,43.2l5.2-6.4h4.4l5.2,4.2l15.4,71.6l16.6-70.4l5.2-4.1h5l5.2,4.1L80,112.6
			l14.8-71.5l5.2-4.2h4.4l4.5,5.5v-0.2l5.3-5.3h4.4l5.3,5.3v6.9l-5.3,5.3h-4.4l-5.3-5.3v-2.5l-17.5,84.9l-5.2,4.3H74.2z"/>
		<polygon class="st1" points="313.5,162.1 308.3,155.6 313.1,135.8 308.5,135.8 303.4,131.7 296.1,102.1 296.1,130.4 290.8,135.8 
			273.9,135.8 268.5,130.4 268.5,65.4 236,65.4 236,79.8 261.2,79.8 266.6,85.2 266.6,101.7 261.2,107 236,107 236,130.4 
			230.7,135.8 213.6,135.8 208.2,130.4 208.2,43.4 213.6,38.1 268.8,38.1 270.7,40 273.9,36.8 290.8,36.8 296.1,42.1 296.1,62.2 
			309.7,62.2 314.9,66.2 322.6,97.6 330.4,66.2 335.5,62.2 352.2,62.2 357.4,68.8 335.3,158.1 330.1,162.1 		"/>
		<path class="st1" d="M549,131.6c-0.6,0-1.2-0.1-1.8-0.1c-1.7-0.2-3.5-0.5-5.3-0.9c-1.2-0.2-2-0.4-2.9-0.5l-2.1-0.3l-0.7-0.2
			c-2.1-0.5-4-1.2-5.7-1.8c-2.4-1-4.8-2-7.2-3.1l-2.8-1.3c-1.5-0.7-3-1.3-4.6-1.9L511,120l-1-0.3l-1.5,3.9c-0.5,0-1,0.1-1.5,0.1
			c-1.6,0-2.9-0.1-4.2-0.3c-1.2-0.1-2.4-0.3-3.7-0.5c-0.7-0.1-1.3-0.2-2-0.3c-0.3-0.1-1.8-0.4-1.8-0.4c-2.4-0.6-4.8-1.2-7.2-2.1
			c-2.3-0.8-4.6-1.7-6.8-2.7c-4.5-2-8.8-4.2-12.8-6.5l-6-3.6l-3-2l-2.8-1.9l-5.6-4.1c-2-1.5-3.7-2.6-5.2-3.4l-2.5-3.3l-0.2-1.3
			c-0.2-2.3,1-5.2,4.6-6.6c1.2-0.3,1.9-0.5,2.6-0.5c0.8-0.1,1.7-0.1,2.6-0.1l1.5,0c2.5,0.1,4.9,0.3,7.3,0.5l3.5,0.4l3.5,0.5
			c0.7,0.1,1.3,0.2,1.9,0.3l2.9,0.6c0.9,0.2,1.8,0.3,2.6,0.5l1.2,0.3c0.7,0.2,1.5,0.3,2.2,0.5l4,1c2.1,0.6,4.3,1.2,6.4,1.9l3.4,1.1
			c1.5,0.5,2.5,0.8,3.5,1.2l6.7,2.3l3.5,1.3l3.4,1.4l3.4,1.5l3.3,1.6c2.3,1.1,4.4,2.3,6.6,3.4l6.4,3.6c4.3,2.5,8.6,4.9,12.7,7.6
			c2.1,1.3,4.2,2.7,6.3,4.1c1.1,0.8,2.2,1.5,3.2,2.3L549,131.6z M373,101.6c-2.2,0-4.4-0.1-6.6-0.3l-1.9-0.2
			c-0.6-0.1-1.2-0.2-1.9-0.3c-1.2-0.2-2.4-0.4-3.6-0.7c-1.3-0.3-2.6-0.6-3.8-1c-0.6-0.2-1.1-0.4-1.7-0.6l-0.2-4.2l-5.9-0.1
			c-2,0-3.7,0.2-5.3,0.3l-3.1,0.3c-2.6,0.3-5.2,0.6-7.8,0.7c-1.1,0-2.1,0.1-3,0.1c-1,0-2,0-2.9-0.1l-1.5-0.2l-1.5-0.3l-2.5-0.4
			c-1.9-0.2-3.8-0.5-5.6-0.9c-0.6-0.1-1.1-0.3-1.7-0.4l-0.2-10.1c1.2-0.4,2.5-0.8,3.8-1.2c2.4-0.7,4.8-1.3,7.3-1.9
			c4.8-1.2,9.6-2.2,14.4-3.2l7.1-1.4l7.2-1.2l3.7-0.5l3.6-0.4l3.6-0.3l3.8-0.2l7.2-0.1l3.6,0l3.6,0.1l7.1,0.3l3.7,0.3l3.6,0.3
			l5.4,0.7l1.9,0.3l3.5,0.7l3.5,0.7l6.9,1.7l0,0.7l0.2-0.6c1.3,0.4,2.6,0.8,3.8,1.4c0.7,0.3,1.3,0.6,1.9,1l0.5,0.4
			c3,2.4,3.1,5.5,2.3,7.6l-0.5,0.9l-3.6,2.6c-1.8,0.3-3.7,0.9-6,1.6l-6.4,2.1c0,0-2.7,0.8-3.5,1l-3.3,0.9c-2.3,0.6-4.6,1.1-7,1.6
			c-4.6,0.9-9.4,1.6-14.2,2.1c-2.4,0.2-4.9,0.3-7.3,0.4L373,101.6z"/>
		<path class="st1" d="M372.7,103.7c-3.9,0-7.7-0.3-11-0.9c-8.4-1.5-13.2-3.2-14.2-7.4h-0.1c-2.3,0-5.3,0.4-8.5,0.8
			c-3.9,0.5-7.9,1-11.5,1c-1.9,0-3.5-0.1-4.9-0.4c-0.9-0.2-2-0.3-3.2-0.4c-4.6-0.5-9.7-1.1-13.1-4.2l1.5-8.8
			c5.4-2.3,14.6-4.8,28.2-7.6c11.2-2.3,20.8-3.8,31.1-4c0,0,3.2,0,4.9,0c11.4,0,21.3,0.7,29.3,2c0.2,0,17.1,2.9,22.3,7.1l-2.9,4
			l2,6.9c-2.2,0.9-4.1,1.7-6,2.5c-3.8,1.6-7.3,3.2-12.2,4.5C396.4,101,384.4,103.7,372.7,103.7z M397,87.9c0.9-0.2,4.4-1.1,4.4-1.1
			s2.6-0.7,3.1-0.9l-3.3-0.6l-1.5-0.2c0,0-3-0.4-3.3-0.4L397,87.9z"/>
		<path class="st1" d="M549.9,134.8c-1,0-2-0.1-2.9-0.2c-2.2-0.3-4.2-0.7-6.1-1.1c-0.8-0.2-1.6-0.4-2.5-0.5l-2.1-0.4l-0.9-0.2
			c-2-0.5-3.9-1.2-6.2-2.2c-2.4-1.1-4.7-2.3-7-3.4l-2.8-1.4c-1.1-0.6-2.2-1.1-3.3-1.6l-0.1,0.1c-0.3,0.4-0.6,0.6-0.8,0.9
			c-1.6,1.4-2.9,1.8-3.5,2c-0.9,0.2-1.5,0.4-2.2,0.4c-0.8,0.1-1.6,0.1-2.4,0.1c-1.7,0-3.1-0.1-4.5-0.2c-1.3-0.1-2.6-0.3-3.9-0.5
			c-0.7-0.1-1.3-0.2-2-0.3l-1.9-0.4c-2.6-0.6-5.2-1.3-7.8-2.2c-2.4-0.8-4.8-1.8-7.2-2.8l-3.3-1.6c-1.3-0.6-2.4-1.2-3.5-1.8
			c-2.1-1.1-4.3-2.4-6.4-3.6c-2.1-1.3-4.1-2.6-6.1-3.9l-1.5-1l-1.6-1.1c-0.8-0.6-1.7-1.3-2.5-2l-0.5-0.4c-1.9-1.7-3.7-3.4-5.4-5.3
			c-1.6-1.8-3.1-3.5-4.6-5.3l1-1l-3-3.1l0-0.5l0,0c0-0.7,0.2-1.5,0.5-2.1c0.2-0.5,0.7-1.3,1.3-2c0.7-0.8,1.5-1.4,2.6-1.8
			c1-0.5,2.1-0.7,2.8-0.9c1.5-0.3,2.9-0.5,4.3-0.6l7.4,0l7.5,0.6l2,0.2l2,0.3l3.5,0.6l3.6,0.8l3.6,0.8l7.1,1.9l3.5,1l3.5,1.1
			l6.9,2.3l3.5,1.3l3.6,1.4l3.5,1.5l3.5,1.6l6.7,3.4l6.5,3.6l6.4,3.8l6.4,3.9l6.4,4.2c2.1,1.5,4.4,3.1,6.6,5.1l1.9,1.7l-1.5,8.8
			l-2.2,1c-1.5,0.7-3.2,1-5.1,1.1L549.9,134.8z M460.3,94.6c1.7,1.5,3.5,2.9,5.7,4.4c12.9,8.6,25.2,14.2,34.9,15.5
			c0.6,0.1,1.3,0.2,1.8,0.2l2.5-6.5c4.7,1.3,9.2,2.8,13.4,4.2c0.7,0.2,1.5,0.5,2.3,0.9c-6.9-3.8-13.3-6.9-20.3-9.3
			c-12.2-4.3-22.7-7.1-31.2-8.5C468.2,95.4,464.4,94.9,460.3,94.6z M373.2,105.3c-2.6,0-4.9-0.1-7.2-0.4l-2.1-0.3l-1.9-0.3
			c-1.4-0.2-2.7-0.5-4-0.8c-1.3-0.3-2.7-0.7-4-1.1c-0.9-0.3-1.7-0.6-2.5-1c-0.6-0.3-1.1-0.6-1.7-1c-0.8-0.5-1.9-1.3-2.8-2.9
			l-0.5-1.1l0.7-0.3c-1.4,0.1-2.9,0.3-4.4,0.5l-3,0.5c-2.6,0.4-5.2,0.8-7.9,1.1c-1.4,0.1-2.9,0.2-4.4,0.2c-0.7,0-1.4,0-2.1-0.1
			l-0.8-0.1l-2.4-0.3l-2.4-0.3c-1.9-0.2-3.9-0.4-6-0.8c-1.2-0.3-2.5-0.6-3.7-1.1c-1.7-0.7-3.2-1.5-4.4-2.6l-1.8-1.6l1.4-8.9l2.3-1
			l7.5-2.7l7.6-2.1l7.4-1.7l7.3-1.5l7.3-1.4l7.4-1.1l3.8-0.5l3.8-0.3l3.8-0.2l3.8-0.1l7.4,0l3.7,0.1l3.6,0.1l7.2,0.4l3.7,0.3
			l3.7,0.4l3.7,0.5l1.8,0.3l2,0.4l7.1,1.8c2.2,0.6,4.8,1.4,7.4,2.5c1.3,0.5,2.6,1.1,3.9,1.9c0.7,0.4,1.6,1,2.5,1.8
			c0.7,0.6,1.3,1.4,1.7,2.3l0,0c0.5,0.9,0.7,1.9,0.7,2.9l-0.2,1.2l0.1,0l-0.1,0.4l0,0.3l0,0l-0.2,0.8l-3.6,1.7l0.6,1.1
			c-2,1.3-4,2.4-6.1,3.6c-2.3,1.3-4.5,2.4-6.7,3.3l-0.6,0.2c-1.1,0.4-2.2,0.8-3.2,1.2l-1.4,0.5l-2,0.6c-2.4,0.7-4.7,1.2-7.1,1.8
			c-2.4,0.5-4.8,1-7.2,1.4l-3.6,0.6c-1.4,0.2-2.6,0.3-3.9,0.5c-2.5,0.2-5.1,0.4-7.7,0.4L373.2,105.3z M363.5,92.3
			c2.8,0.5,5.9,0.8,9.2,0.8c10.5,0,21.5-2.4,28.9-4.5c2.5-0.7,4.6-1.5,6.7-2.3c-3.3-0.9-6.8-1.6-8.9-2c-7.4-1.2-16.7-1.8-27.6-1.8
			c-1.6,0-3.2,0-4.7,0c-7.4,0.1-14.4,1-22.1,2.4c0.8-0.1,1.6-0.1,2.3-0.1c1.5,0,2.9,0,4.4,0c3.2,0,6.5,0.1,9.7,0.2l0.3,7
			C362.3,92.1,362.9,92.2,363.5,92.3z"/>
		<path class="st1" d="M550,133.6c-2.8,0-5.8-0.6-8.4-1.1c-1.2-0.2-2.2-0.5-3.2-0.6c-4.8-0.7-10.2-3.3-15.4-5.8
			c-2.9-1.4-5.6-2.7-7.8-3.5c0,0,0,0-0.1,0c-2,3.2-6.1,3.2-7.9,3.2c-3.1,0-6.7-0.5-7.9-0.7l0,0c-14.4-2.1-29.3-10.5-39.3-17.2
			c-4.2-2.8-7.1-5.4-10.1-8.2c-1.5-1.3-3-2.7-4.9-4.3l4.2-6.1l-1.6-4.5c1.8-0.7,4.3-1,7.8-1c6,0,13.6,0.9,15.7,1.3
			c9.1,1.5,20.2,4.5,33,9c10.4,3.6,19.7,8.7,28.3,13.6c11.8,6.8,20,12.2,24.3,16.1l-1.4,8.8C553.9,133.2,552.1,133.6,550,133.6z
			 M466.8,97.5c0,0,3,1.9,3.8,2.4l1.6-2.9c-0.3-0.1-3.4-0.6-3.4-0.6l-1.5-0.2l-3.2-0.4C464.5,96,466.8,97.5,466.8,97.5z"/>
		<path class="st1" d="M416.6,178.8c-6.6-7.3-6.5-25.6-5.8-45.4c0.1-3.3,0.2-6,0.2-7.7c0-1.6,0.1-3.3,0.2-5c0.2-3.5,0.5-6.9-1-9
			c-2.9-4.3-5.7-8.9-5.5-14.5c0.1-3.2,0.1-3.2,27.2-17.8l0.6-0.3l6.3,1l21.4,21.8l1.4,4.7c-1.2,6.1-6.3,9.5-10.1,12l-1.5,1
			c-1.8,1.2-2.7,5.3-3.5,8.7c-0.5,2-1,4-1.6,5.6c-0.6,1.5-1.3,4.1-2.2,7.1c-5.8,19.2-11.2,35.5-20,39.2l-3.7,0.1L416.6,178.8z"/>
		<path class="st1" d="M429.1,151.1c-1,0-2-0.2-3-0.7l-2.2,0.7c-2.5,0-5.6-1.4-6.5-4.5c-0.2-0.8-0.3-1.6-0.2-2.4
			c-0.9-0.6-1.6-1.3-2.1-2.3l0.1-1.6c-0.6-0.6-1-1.3-1.3-2.2c-0.3-0.9-0.4-1.8-0.2-2.7c-0.3-0.5-0.5-1-0.6-1.6
			c-0.2-1.1-0.1-2.1,0.2-3.1c-0.4-0.5-0.8-1.1-1-1.8c-0.6-1.7-0.4-3.5,0.5-5c-0.2-0.7-0.4-1.4-0.3-2.1c0-1.3,0.4-2.4,1-3.3
			c-0.4-0.7-0.7-1.5-0.7-2.4l0.1-0.2c-0.3-0.6-0.5-1.2-0.7-1.8c-0.1-0.4-0.1-0.7-0.1-1.1c-0.6-0.6-1-1.4-1.3-2.3
			c-0.1-0.3-0.2-0.7-0.2-1c-0.4-0.4-0.8-0.9-1.1-1.4c-0.6-0.5-1.2-1.2-1.6-2l0.1-1c-1-0.9-1.7-2-2-3.3c-0.3-1.5,0-3.1,0.8-4.3
			l-0.2-1.5c0.2-0.9,0.7-1.8,1.4-2.5c0.7-1.2,1.9-2.1,3.3-2.6l2.6-0.8c1.4-0.6,2.8-1.2,4.2-1.8c1.8-0.8,3.6-1.6,5.4-2.4
			c2.3-1.1,4.4-2.5,6.6-4c0.9-0.6,2-1.4,3.6-1.7l1.3-0.1c2.2,0,4.3,1.1,5.6,3c0.4,0.5,0.6,1.1,0.8,1.7c0.4,0.6,0.8,1.3,0.9,2
			c1.5,0.7,2.8,2,3.4,3.7c1.4,0.6,2.7,1.7,3.4,3.4c0,0,0,0,0,0c1.1,0.6,2,1.5,2.6,2.7c1.2,0.5,2.3,1.3,3,2.4
			c1.7,0.6,3.3,1.9,3.9,3.8c0,0.1,0.1,0.2,0.1,0.3c0.5,0.7,1,1.5,1.2,2.5c0.5,2.5-0.7,5.1-3,6.3c-0.4,1.5-1.5,2.8-3,3.6l-4,2.2
			l-1.2,2.4c-0.6,0.3-1.2,0.7-1.8,1c0,0.2-0.1,0.4-0.1,0.7c0.6,2,0.1,4.3-1.5,5.9c-0.7,0.7-1.4,1.3-2.2,1.9c0.2,0.3,0.4,0.7,0.5,1.1
			c0.8,2.4,0,4.9-2.1,6.5c-0.9,0.6-1.7,1.2-2.6,1.8l0,0.2l0.9,3.2c-0.9,5.3-5.8,7.5-8.1,8.5L429.1,151.1z"/>
		<path class="st1" d="M419.3,180.8l-3.1-2c-1.7-2-2.7-4.4-3.4-6.3c-0.6-1.8-1-3.7-1.4-5.9c-0.6-3.3-0.9-6.8-1.1-11
			c-0.3-7.2-0.1-14.4,0.2-21l0.2-5.1c0-0.8,0-1.6,0.1-2.5l-1.2,0l0.2-2.2c0.2-0.8,0.6-1.5,1.1-2.3c0-0.7,0.1-1.3,0.1-2
			c0.1-2,0.3-3.9,0.1-5.7c-0.1-1.1-0.4-2-0.8-2.7l-0.9-1.3c-0.7-1-1.4-2.1-2-3.2c-0.4-0.7-0.7-1.4-1-2l-6.7,3.1l-7.9,3.4L385,115
			l-5.3,1.9l-4.7,1.5l-3.9-9.9l4.3-2l11.2-5.4l7.4-3.8l8.4-4.3l9-4.6l13.6-7.1l-6-6.5l-5.8-6.9c-2.1-2.6-3.6-4.8-4.8-6.9
			c-1.3-2.2-2.3-4.3-2.9-6.3c-0.7-2.2-0.9-4.1-0.9-5.2c0-0.5,0-1,0-1.6l10.6,0.2l0,0.8c0,0.4,0.2,1.1,0.6,2.1c0.3,0.8,1,2.2,2.2,3.9
			c1.1,1.6,2.5,3.3,4.2,5.2l6,6l3.4,3.3l3.6,3.7l1.8,2l6.8-3.5l4.5-2.1l7.8-3.8c2-1.1,3.9-2.3,5.4-3.4c1.7-1.3,2.8-2.3,3.4-3
			c0.8-0.9,1.1-1.6,1.2-1.8l0.2-0.5l10.3,2.8c-0.2,0.7-0.3,1.2-0.6,1.9c-0.3,0.9-1.1,2.6-2.5,4.5c-1.3,1.7-2.9,3.4-4.8,5
			c-1.8,1.5-4,3.2-6.6,4.8l-7.7,4.6l-7.9,4.3L456.4,96l6.9,7.3l6.5,6.8l5.8,6l8.8,8.8l3.4,3.3l-6.9,8l-3.8-2.9l-4.4-3.6l-5.5-4.7
			l-1.3-1.2c-1.6-1.5-3.3-3-5.1-4.7l-4.1-4c-0.8,0.7-1.6,1.3-2.3,1.8c-0.9,0.6-1.8,1.3-2.7,1.9l-1.5,1c-0.4,0.3-0.9,0.9-1.3,1.7
			c-0.5,1-0.9,2.2-1.3,3.8l-0.9,3.8l-2.7-0.7l-0.1,0.2l2.8,0.7l-0.2,0.8c-0.2,1-0.5,2-0.8,2.9c0,0-0.7,1.9-0.8,2.4l-2.7,9l-1.2-0.4
			l-0.1,0.2l1.2,0.4c-1.5,5-3.2,10.3-5.2,15.7c-1.6,4.1-3,7.2-4.5,10.1c-1.1,2.1-2.2,3.7-3.3,5.1c-1.3,1.7-3.2,3.7-6,5l-3.5,0.3
			L419.3,180.8z M421.5,142.6c-0.1,4.1-0.1,8.4,0.1,12.6c0.1,2.8,0.3,6,0.9,9.1c1.2-2.2,2.3-4.9,3.6-8.1c1.6-4.1,3-8.3,4.2-12.4
			c-0.2-0.1-0.3-0.2-0.5-0.2c-0.5-0.2-0.9-0.3-1.4-0.4c-0.6-0.2-1-0.2-1.5-0.3c-0.8-0.1-1.3-0.2-1.9-0.3c-0.4,0-0.9-0.1-1.4-0.1
			l-1.6,0C421.9,142.6,421.7,142.6,421.5,142.6z M429.3,116.5c0.8,0.1,1.5,0.1,2.3,0.3c0.7,0.1,1.3,0.3,2,0.5c1,0.2,2.2,0.7,3.4,1.2
			c0.3,0.1,0.5,0.2,0.8,0.4c0.3-0.7,0.6-1.5,1-2.3c1.3-2.5,2.9-4.5,5-5.9l1.8-1.2c0.7-0.5,1.5-1,2.2-1.5c0.3-0.3,0.7-0.5,0.9-0.7
			l-2.6-2.7c-0.4-0.3-1.4-1.2-1.4-1.2c-0.4-0.3-0.8-0.7-1.1-1.1l-1.3-1.2l-1.4-1.5c-0.5-0.5-1-1-1.4-1.6l-1.2-1.3l-2.5-3.1l-1.9-2.1
			l-7.1,3.9l-10.5,5.5c0.2,0.5,0.5,1,0.8,1.5c0.5,0.9,1,1.7,1.6,2.5l1.1,1.7c1.3,2.2,2,4.6,2.4,7.2c0.1,1.2,0.2,2.3,0.2,3.4h0
			c1-0.2,2.1-0.4,3.2-0.5c0.8-0.1,1.7-0.1,2.5-0.1C428.5,116.5,428.9,116.5,429.3,116.5z"/>
		<path class="st1" d="M421.4,177.7c-2.3,0-4.3-1-5.5-2.7l0-0.4c-0.3-0.3-0.5-0.7-0.8-1.1l0-2.9c-0.5-0.4-0.8-1-1.1-1.6l0.6-4.7
			c-0.2-0.4-0.5-0.8-0.6-1.2l0.9-3.8c-0.2-0.2-0.3-0.5-0.4-0.8c-0.5-0.2-0.9-0.5-1.3-0.9l-2.2-4.4l1.7-3.6l-0.7-3.1
			c0.2-0.8,0.4-1.6,0.7-2.3c-0.1-0.2-0.2-0.5-0.2-0.7l2.8-6.2c1.3-0.7,2.6-1.2,3.9-1.6c0.8-0.3,1.6-0.5,2.4-1l3-0.7
			c1.6,0,3,0.5,4.1,1.3c0.4,0.1,0.7,0.2,0.9,0.3l0,0.6c0,0,0,0,0.1,0.1l1.2-0.2c1,0,2,0.2,3,0.6c0.3-0.1,0.7-0.1,1.1-0.1
			c2.9,0,5.3,1.7,6.1,4.3l0,0c0.9,3.1-0.3,5.7-1,7.2c-0.1,0.3-0.3,0.6-0.4,0.9c0,1.6-0.9,3.2-2.3,4.1c-0.1,0.3-0.2,0.6-0.3,0.8
			l0.2,2.8c-2,4.5-3.9,8.2-6.4,11.7c-1.2,2.9-2.3,5-5.1,7.7C424.9,176.8,423.6,177.7,421.4,177.7z"/>
		<path class="st1" d="M456,98.7l-3,1.8c-2.9-2-6.5-4.4-7.2-4.8l-0.6-0.3c-1.6-0.9-4.6-2.4-4.8-6.1c-0.1-1.6,0.4-3.4,0.8-4.2
			l0.5-0.2l-0.2-0.1c1.3-2.2,3-3.7,4.1-4.7c1.3-1.1,2.8-2.1,4.3-3c3-1.9,6-3.4,8.6-4.6l12.7-5.8l5.2-2.3c1.2-0.5,2.4-1,3.6-1.5
			l4.3-1.7c3-1.1,6-2.2,9-3.2c5.4-1.9,11.4-3.7,18.3-5.5l10.4-2.7l3.6-0.8c0.8-0.2,1.6-0.4,2.5-0.6l2.3-0.5l4.8-0.9l4.9-0.8l4.9-0.6
			l1.8-0.2c1.1-0.1,2.1-0.2,3.2-0.3c3.2-0.3,6.5-0.5,9.8-0.7c3-0.1,6-0.2,9-0.2l1,0c3.4,0,6.8,0.2,10.2,0.5c2.9,0.3,5.7,0.7,8.4,1.2
			l2.5,9.2c-1,0.9-2.1,1.8-3.3,2.7l-5.8,4l-0.9,0.6c-1.3,0.8-2.1,1.3-3,1.8c-1.7,0.9-3.5,1.8-5.2,2.6c-1.4,0.6-2.9,1.3-4.3,1.9
			c-1.9,0.8-3.9,1.7-5.8,2.5l-9.8,4.8c-1.7,0.8-3.4,1.6-5.1,2.3c-1.7,0.8-3.5,1.5-5.3,2.1c-1.8,0.7-3.7,1.3-5.5,1.8
			c-0.8,0.2-1.7,0.5-2.6,0.7l-0.5,0.1l0.9,2.6c-2.1,1.9-4.7,3.5-7.8,4.9c-2.9,1.3-6,2.5-10.3,3.6c-3.1,0.8-6.5,1.6-10.3,2.3l-10,1.6
			l-5,0.7l-2.6,0.3l-2.6,0.2L475.7,99l-5,0l-2.3,0.1l-5-0.1l-2.2,0.1c-0.3,0-0.9,0.1-1.5,0.2l-0.1-0.1c0.2-0.1,0.4-0.3,0.6-0.5
			l-0.1-0.1l-0.5,0.5l-0.4-0.7L456,101L456,98.7z"/>
		<path class="st1" d="M482.8,101.2c-2.2,0-4.3-0.1-6.5-0.1l-1,0c-1.6-0.1-3.2-0.1-4.7-0.1l-1.5,0c-0.4,0-0.8,0-1.2,0
			c-0.9,0-1.8-0.1-2.7-0.2l-4.8-0.4c-0.6-0.1-1.3-0.1-1.9-0.1c-0.1,0-0.1,0-0.1,0c-0.2,0,0.2-0.1,0.7-0.4l-6.6-0.8l-0.5-7.3
			c0.8-1,1.9-1.7,3.2-2.3c0.6-0.3,1.3-0.4,2-0.6c1.1-0.3,2.2-0.4,3.3-0.5c1-0.1,1.9-0.1,2.8-0.1l4.9,0.1l2.4-0.1l9.2,0
			c1.8,0,3.6,0,5.4-0.1l2.3-0.2l2.1-0.2l4.9-0.7c3.3-0.5,6.5-1,9.7-1.5c1.8-0.3,3.4-0.6,5-1l-0.6-2.3l-0.9-3.5l0.7-0.2
			c1.5-0.4,2.9-0.8,4.4-1.2l1.5-0.4l2.1-0.7c1-0.3,2.1-0.6,3.1-0.9l1.2-0.3l2.6-0.7c1.8-0.5,3.6-1,5.5-1.4l3.2-0.8
			c0.6-0.1,1.2-0.3,1.8-0.5c1.6-0.5,3.2-1,4.7-1.5c1.6-0.6,3.2-1.2,4.7-1.9c1.6-0.7,3.2-1.4,4.8-2.2l6.6-3.2
			c1.1-0.6,2.3-1.1,3.4-1.6l10.2-4.5c1.4-0.6,2.8-1.3,4.2-2c-0.9,0-3.7-0.1-3.7-0.1c-2.8,0-5.7,0.1-8.5,0.2
			c-3.1,0.2-6.3,0.4-9.4,0.7l-4.7,0.5l-4.6,0.6l-4.6,0.7l-1.5,0.3c-1,0.2-1.9,0.3-2.9,0.5c0,0-3.7,0.8-4.4,0.9l-4.6,1.1l-9.2,2.4
			c-6.6,1.8-12.4,3.5-17.6,5.3l-8.7,3.1l-4.2,1.6l-4.2,1.7l-4.1,1.8l-4.1,1.9L463,82c-2.1,1-4.9,2.4-7.5,4c-1,0.6-2.1,1.3-3.1,2.2
			c-0.9,0.8-1.5,1.4-1.8,2l-6.8,2.1l-2.9-6.7c0.4-1.1,0.9-2.1,1.6-3.2c0.6-1,1.3-1.8,1.9-2.5c1.2-1.3,2.5-2.6,4.1-3.8l4-2.9l4.3-2.7
			L461,68l4.3-2.2l8.4-4.3l9.1-3.8l9.2-3.3l9.3-2.9l9.3-2.6l11.3-2.8l3-0.6l2.4-0.5l2.5-0.4l4.9-0.8l5-0.6l5-0.5l5-0.4l9.9-0.5
			l10.1,0l10.2,0.6c4,0.4,7.5,1,10.7,1.8l1.5,0.3l2.7,8.9l-1.1,1.1c-1.3,1.4-2.9,2.7-4.9,4.3c-0.7,0.6-3.7,2.7-4.4,3.3l-1.2,0.9
			l-1.3,0.9c-0.9,0.6-1.8,1.2-2.7,1.7c-1.7,1-3.5,2-5.3,2.9c-2.3,1.2-4.7,2.3-7.1,3.4l-3.1,1.4l-5.7,2.7c-1.4,0.7-2.9,1.4-4.4,2
			c-1.7,0.8-3.5,1.5-5.3,2.2c-1.9,0.7-3.8,1.4-5.6,1.9c-1.1,0.3-2.3,0.7-3.4,1l0,0.1l-1.2,1.4c-2.6,2.9-5.9,5.3-10.3,7.5
			c-3.3,1.6-6.8,2.9-10.7,3.9c-3.2,0.9-6.7,1.7-10.5,2.3c-3.4,0.6-6.9,1.1-10.3,1.6l-6.3,0.8l-1.4,0.1c-1,0.1-2,0.1-2.9,0.2
			C484.7,101.2,483.7,101.2,482.8,101.2C482.8,101.2,482.8,101.2,482.8,101.2z"/>
		<path class="st1" d="M411.3,91.8l-0.5,1.9l-2.5-3.9l-1.1,0.4c0.3,0.7,0.7,1,0.7,1.1c-0.9-0.6-1.5-0.8-2-1.1
			c-0.6-0.3-1.3-0.5-1.9-0.7c0,0-4.1-1.3-4.6-1.5l-2.4-0.9l-5.4-1.8c-3-1-5.9-1.9-8.7-3l-2.3-1l-1.2-0.6l-5.8-2.9
			c-3-1.5-6.1-3.1-9.1-4.7c-3.4-1.9-6.4-3.6-9-5.4c-3.6-2.4-6.3-4.5-8.6-6.7c-2.4-2.3-4.4-4.7-5.8-7.1l1.6-2.2l-0.8-0.5
			c-0.7-0.4-1.3-0.8-2-1.3c-1.6-1-3.1-2.2-4.6-3.4c-1.5-1.2-2.9-2.4-4.3-3.7c-1.4-1.2-2.8-2.5-4.1-3.8l-5.2-5.1
			c-0.9-0.8-1.7-1.7-2.6-2.5l-8.2-7.4c-1.5-1.4-2.9-2.7-4.2-4.1c-0.7-0.7-1.3-1.5-2-2.2l-1-1.2l-2.1-2.7c-0.7-1-1.5-1.9-2.2-2.9
			c-0.8-1.2-1.6-2.3-2.3-3.5l5.3-7.9c2.7,0.3,5.5,0.8,8.4,1.5c3.3,0.8,6.6,1.7,9.8,2.7c3.2,1,6.3,2.2,9.4,3.4
			c3.1,1.2,6.1,2.5,9.2,3.8l4.4,2L348,15l4.4,2.2l1.6,0.9c0.9,0.5,1.9,1,2.8,1.5l2,1.2c0.7,0.4,1.5,0.9,2.2,1.3l4.1,2.5l8,5.2
			c6,3.9,11.1,7.6,15.7,11.1l7.4,5.8l3.7,3.1l3.6,3.1l3.5,3.2l3.5,3.3l3.4,3.1l3.4,3.2c2,1.9,4.4,4.3,6.7,7.1c1,1.2,2.1,2.6,3.1,4.3
			c0.8,1.3,1.9,3.3,2.4,5.8l-0.9,0.2l1.1,1c0,0.6-0.1,2-0.6,3.4c-1.3,3.5-4.8,4.1-6.5,4.3l-0.7,0.1l-8.4,2.3L411.3,91.8z"/>
		<path class="st1" d="M408,91.6c0.4,0.5,0.8,0.7,0.9,0.7l-0.7-0.3c-0.4-0.1-1-0.3-1.7-0.4c-0.8-0.2-4.6-1.1-4.6-1.1
			c-0.9-0.2-1.8-0.4-2.6-0.7c-0.6-0.2-1.2-0.4-1.8-0.6l-6.1-1.9c-3-0.9-6-1.8-9-2.9c-0.9-0.3-1.7-0.7-2.6-1l-1.3-0.5l-1.3-0.6
			l-4.6-2.2c-3.1-1.5-6.2-3.1-9.3-4.7c-3.4-1.9-6.4-3.7-9.2-5.5c-3.4-2.3-6.3-4.6-8.9-7.1c-3.5-3.4-5.9-6.8-7.4-10.3l-0.7-1.7
			l0.1-0.1c-1-0.6-2-1.3-3-2c-1.6-1.1-3.2-2.3-4.7-3.6c-1.5-1.2-3-2.5-4.4-3.8l-4.1-3.9l-4-3.8l-2.6-2.4c-1.9-1.7-3.8-3.5-5.6-5.3
			l-4-4.2l-2-2.5l-1-1.3l-4.1-5.8c-1.5-2.2-2.5-3.9-3.4-5.7l-0.7-1.4l5.3-7.6l1.6,0.1c3.4,0.3,6.8,0.8,10.5,1.6l9.8,2.6l9.7,3.2
			l9.4,3.6l4.7,1.9l4.6,2l4.5,2.2l4.5,2.3l4.4,2.4l4.3,2.5l8.2,5.1l8,5.4l7.9,5.6l7.6,6l7.3,6.4l6.9,6.9l3.3,3.4l3.2,3.6l3.2,3.8
			l3,4.1c1.2,1.9,2.1,3.5,2.8,5.1c0.4,1,0.8,1.9,1,2.9l-0.1,0l0.1,0.1c0.3,1.2,0.5,2.4,0.5,3.5l-4.7,5.4L419,85
			c-0.2-0.7-0.5-1.4-1.1-2.5c-0.7-1.1-1.4-2.1-2.2-3c-1.9-2.3-4-4.4-5.8-6.1l-3.3-3.1l-3.4-3.1l-3.4-3.2l-4-3.7
			c-0.8-0.7-1.7-1.5-2.6-2.2l-3.6-3c-2.3-1.9-4.7-3.7-7.1-5.6c-4.4-3.4-9.4-6.8-15.1-10.6l-8.9-5.8l-3-1.8c-0.7-0.4-1.3-0.8-1.9-1.1
			l-2.1-1.2l-4.1-2.2l-4.1-2.1c0,0-3.2-1.6-4.1-2l-1.5-0.7c-0.9-0.4-1.8-0.8-2.8-1.2c-2.9-1.3-5.9-2.5-8.8-3.7
			c-2.9-1.1-5.9-2.2-8.9-3.2c-0.9-0.3-1.8-0.6-2.7-0.8c1.1,1.1,2.2,2.2,3.4,3.3c1.1,1,2.2,2,3.3,3c1.7,1.5,3.3,3,5,4.5l7.9,7.7
			c1.2,1.2,2.5,2.4,3.8,3.5c1.3,1.2,2.6,2.3,3.9,3.3c1.3,1,2.6,2,4,2.9c0.6,0.4,1.1,0.7,1.6,1l2.8,1.8c1.6,1,3.2,2,4.8,3.1l2.6,1.8
			l0.6,0.4l2.6,1.8l3.1,2.2l4.4,3l-3.2,5c1.4,0.8,2.8,1.7,4.4,2.5c2.9,1.6,5.8,3.1,8.7,4.5l5.5,2.7l1,0.4l2.1,0.9
			c2.6,1,5.4,1.9,8.1,2.8l0.8,0.2c1.6,0.5,3.2,1,4.8,1.6l2.3,0.8l2.1,0.6l2.4,0.8c1.1,0.4,1.9,0.7,2.7,1c1,0.4,2,0.9,2.9,1.5
			c0.6,0.4,1.2,0.8,1.8,1.2c1.1,1,1.9,2,2.3,3.2l-2.8,6.7L408,91.6z"/>
	</g>
	<g>
		<g>
			<path class="st2" d="M172.9,134.2c-10.3,0-24-3.6-24-34.4c0-17.9,3.5-36.2,29.2-36.2c4.6,0,10.1,0.6,14,1.1V42.1
				c0-1.5,1.2-2.7,2.7-2.7h4.4c1.5,0,2.7,1.2,2.7,2.7v88.3c0,1.5-1.2,2.7-2.7,2.7h-4.4c-1.5,0-2.7-1.2-2.7-2.7v-0.9
				C187.8,131.6,180.7,134.2,172.9,134.2z M178.1,72.9c-14.5,0-19.4,6.9-19.4,27.2c0,24.7,9.6,24.7,14.2,24.7
				c7.9,0,16.1-3.8,19.2-5.5V74.1C188.2,73.7,182,72.9,178.1,72.9z M134.8,133.1c-1.5,0-2.7-1.2-2.7-2.7V38.3c0-1.5,1.2-2.7,2.7-2.7
				h4.4c1.5,0,2.7,1.2,2.7,2.7v92.1c0,1.5-1.2,2.7-2.7,2.7H134.8z M114.3,133.1c-1.5,0-2.7-1.2-2.7-2.7V67.4c0-1.5,1.2-2.7,2.7-2.7
				h4.4c1.5,0,2.7,1.2,2.7,2.7v63.1c0,1.5-1.2,2.7-2.7,2.7H114.3z M74.2,133.1c-1.2,0-2.3-0.9-2.6-2.1L55.2,61.1L39.3,131
				c-0.3,1.2-1.4,2.1-2.6,2.1H24.6c-1.3,0-2.3-0.9-2.6-2.1L3.2,42.7c-0.2-0.8,0-1.6,0.5-2.2s1.3-1,2.1-1h4.4c1.3,0,2.3,0.9,2.6,2.1
				l17.6,81.9h0.5L50,42.8c0.3-1.2,1.4-2,2.6-2h5c1.2,0,2.3,0.8,2.6,2l19.7,80.7h0.5l17-81.9c0.3-1.2,1.3-2.1,2.6-2.1h4.4
				c0.8,0,1.6,0.4,2.1,1c0.5,0.6,0.7,1.4,0.5,2.2L88.9,131c-0.3,1.2-1.3,2.1-2.6,2.1H74.2z M114.3,51.7c-1.5,0-2.7-1.2-2.7-2.7v-6.9
				c0-1.5,1.2-2.7,2.7-2.7h4.4c1.5,0,2.7,1.2,2.7,2.7v6.9c0,1.5-1.2,2.7-2.7,2.7H114.3z"/>
			<path class="st2" d="M313.5,159.5c-0.8,0-1.6-0.4-2.1-1c-0.5-0.6-0.7-1.5-0.5-2.3l5.6-23.1h-8c-1.2,0-2.3-0.8-2.6-2l-12.5-50.9
				v50.2c0,1.5-1.2,2.7-2.7,2.7h-16.9c-1.5,0-2.7-1.2-2.7-2.7V61.2c-0.4,0.9-1.3,1.5-2.4,1.5h-35.4v19.8h27.9c1.5,0,2.7,1.2,2.7,2.7
				v16.5c0,1.5-1.2,2.7-2.7,2.7h-27.9v26.1c0,1.5-1.2,2.7-2.7,2.7h-17.2c-1.5,0-2.7-1.2-2.7-2.7v-87c0-1.5,1.2-2.7,2.7-2.7h55.3
				c1,0,1.9,0.6,2.4,1.5v-0.1c0-1.5,1.2-2.7,2.7-2.7h16.9c1.5,0,2.7,1.2,2.7,2.7v22.7h16.3c1.2,0,2.3,0.8,2.6,2l10.3,41.8L333,66.9
				c0.3-1.2,1.4-2,2.6-2h16.7c0.8,0,1.6,0.4,2.1,1s0.7,1.5,0.5,2.3l-22.1,89.3c-0.3,1.2-1.4,2-2.6,2H313.5z"/>
			<path class="st2" d="M549.1,129c-0.5,0-1.1,0-1.6-0.1c-1.6-0.2-3.3-0.5-5-0.8c-1.2-0.2-2.1-0.4-3-0.5l-2-0.3l-0.7-0.1
				c-1.7-0.4-3.4-1-5.3-1.7c-2.4-0.9-4.7-2-7-3.1l-2.8-1.3c-1.6-0.7-3.1-1.4-4.8-2l-5-1.6l-1.3-0.4c0.3,0.7,0.4,1.5,0.1,2.2
				c-0.4,1-1.3,1.6-2.3,1.7c-0.4,0-0.9,0-1.3,0c-1.4,0-2.7-0.1-3.9-0.2c-1.2-0.1-2.4-0.3-3.6-0.5c-0.6-0.1-1.2-0.2-1.8-0.3
				c-0.3-0.1-1.7-0.4-1.7-0.4c-2.3-0.5-4.6-1.2-6.9-2c-2.2-0.8-4.5-1.6-6.6-2.6c-4.4-2-8.7-4.1-12.6-6.3l-5.9-3.6l-2.9-1.9l-2.8-1.9
				l-5.5-4.1c-2.1-1.5-3.8-2.7-5.5-3.6c-0.6-0.4-1.1-1-1.3-1.6c0-0.2-0.2-0.6-0.2-0.8c0-0.6,0-2.8,2.9-3.9c0.8-0.2,1.4-0.3,2-0.4
				c0.8-0.1,1.5-0.1,2.3-0.1l1.4,0c2.4,0.1,4.7,0.3,7.1,0.5l3.5,0.4l3.5,0.4c0.6,0.1,1.2,0.2,1.8,0.3l2.8,0.5
				c0.8,0.2,1.7,0.3,2.5,0.5c0,0,2.7,0.6,3.4,0.8c0,0,3.9,1,3.9,1c2.1,0.6,4.2,1.2,6.4,1.8l3.4,1.1c1.5,0.5,2.5,0.8,3.4,1.1l6.7,2.3
				l3.4,1.3l3.3,1.4l3.3,1.5l3.3,1.6c2.2,1.1,4.3,2.2,6.5,3.4l6.3,3.5c4.3,2.4,8.5,4.9,12.6,7.5c2.1,1.3,4.2,2.7,6.2,4.1
				c1.1,0.7,2.1,1.5,3.1,2.3c0.9,0.7,1.3,1.9,0.9,3C551.3,128.3,550.3,129,549.1,129C549.1,129,549.1,129,549.1,129z M373,99
				c-2.1,0-4.2-0.1-6.3-0.3l-1.8-0.2c-0.6-0.1-1.2-0.2-1.8-0.3c-1.2-0.2-2.3-0.4-3.5-0.7c-1.2-0.3-2.4-0.6-3.5-0.9
				c-0.5-0.2-1-0.3-1.5-0.5c-1-0.4-1.6-1.3-1.6-2.3c0-0.8,0.3-1.5,0.8-2l-6.3-0.1c-2.1,0-3.9,0.2-5.6,0.4l-3.1,0.3
				c-2.6,0.3-5.1,0.5-7.6,0.7c-1,0-1.9,0.1-2.9,0.1c-0.9,0-1.8,0-2.7-0.1l-1.3-0.2l-1.4-0.3l-2.6-0.4c-1.8-0.2-3.7-0.5-5.4-0.9
				c-0.5-0.1-1-0.3-1.5-0.4c-1.1-0.3-1.9-1.3-1.9-2.5s0.7-2.2,1.8-2.6c1.2-0.4,2.4-0.8,3.7-1.2c2.4-0.7,4.8-1.3,7.2-1.9
				c4.8-1.2,9.5-2.2,14.3-3.1l7.1-1.4l7.1-1.1l3.6-0.5l3.6-0.4l3.6-0.3l3.7-0.2l7.1-0.1l3.6,0l3.6,0.1l7.1,0.3l3.6,0.3l3.5,0.3
				l5.3,0.7l1.8,0.3l3.5,0.7l3.4,0.7l6.8,1.7c0.2,0,0.3,0.1,0.4,0.1c1.1,0.3,2.2,0.7,3.2,1.1c0.5,0.2,1,0.5,1.5,0.8
				c2.5,2,2,4,1.7,4.8c-0.1,0.2-0.3,0.6-0.4,0.7c-0.4,0.6-1,1-1.7,1.2c-1.9,0.4-3.9,0.9-6.3,1.7l-6.4,2.1c0,0-2.6,0.8-3.3,1
				l-3.3,0.9c-2.3,0.6-4.5,1.1-6.8,1.5c-4.5,0.9-9.2,1.6-13.9,2c-2.4,0.2-4.7,0.3-7.1,0.4L373,99z"/>
			<path class="st2" d="M372.7,101c-3.8,0-7.3-0.3-10.5-0.9c-9.6-1.7-11.7-3.4-12.1-5.6c-0.1-0.7-0.1-1.3,0.1-1.8l-2.8,0
				c-2.4,0-5.5,0.4-8.8,0.9c-3.8,0.5-7.7,1-11.2,1c-1.7,0-3.2-0.1-4.4-0.4c-1-0.2-2.2-0.3-3.4-0.5c-4.2-0.5-8.9-1-11.6-3.6
				c-0.7-0.6-1-1.5-0.8-2.4c0.1-0.9,0.7-1.6,1.6-2c5.1-2.2,14.4-4.7,27.6-7.4c11-2.2,20.4-3.7,30.4-3.9c0.1,0,3.4-0.1,5.1-0.1
				c11.3,0,21,0.6,28.8,1.9c0.2,0,16.6,2.9,21.1,6.6c0.7,0.6,1,1.4,1,2.3c0.2,0.3,0.3,0.5,0.4,0.9c0.4,1.3-0.3,2.7-1.6,3.2
				c-2.2,0.9-4.2,1.7-6.1,2.6c-3.7,1.6-7.1,3.1-11.8,4.4C395.8,98.4,384.1,101,372.7,101z M396.5,86.5c1.3,0,2.4,0.9,2.6,2.2
				c0.1,0.5,0,1-0.2,1.5c0.5-0.1,3-0.8,3-0.8l4.8-1.3c0,0,7.2-2.3,7.6-2.5c-2-0.6-4-1.1-6-1.5l-3.4-0.7l-3.4-0.7l-1.6-0.3l-2.5-0.3
				c-0.9-0.1-1.7-0.2-2.6-0.3c0,0-2.7-0.3-3.4-0.3l-3.5-0.3c-2.6-0.1-4.7-0.2-6.9-0.3l-7-0.1l-7.1,0.1l-3.5,0.2l-3.4,0.3l-3.4,0.4
				l-3.5,0.4c-2.3,0.3-4.6,0.7-6.9,1.1l-7.1,1.4c-4.4,0.9-8.8,1.8-13.2,2.9c0.7,0.1,1.4,0.1,2.1,0.1c0.9,0,1.7,0,2.6-0.1
				c2.4-0.1,4.9-0.4,7.3-0.7l3.1-0.3c1.8-0.2,3.7-0.3,5.6-0.4l5.4,0.1l5,0.2c0,0,1-0.3,1-0.3c0.2-0.1,0.5-0.1,0.8-0.2
				c1-0.2,1.7-0.3,2.4-0.4c1.3-0.1,2.6-0.2,3.9-0.3c0.9,0,1.8,0,2.8,0c1.5,0,3.1,0,4.6,0.1l7.1,0.2c1.8,0.1,3.6,0.3,5.3,0.5l1.9,0.2
				c1.6,0.2,3.2,0.3,4.8,0.3c0.6,0,1.2,0,1.8,0C393.8,86.7,396.5,86.5,396.5,86.5z"/>
			<path class="st2" d="M549.9,132.1c-0.9,0-1.8-0.1-2.7-0.2c-2.1-0.3-4-0.7-5.8-1.1c-0.8-0.2-1.7-0.4-2.5-0.5l-1.2-0.2l-1.7-0.4
				c-1.8-0.5-3.6-1.1-5.7-2.1c-2.4-1.1-4.7-2.2-6.9-3.4l-2.9-1.5c-1.5-0.8-3-1.5-4.5-2.1l-1.2-0.4c-0.1,0.2-0.2,0.5-0.2,0.7
				c0,0.1-0.2,0.4-0.3,0.5c-0.1,0.1-0.3,0.5-0.4,0.6c-0.2,0.3-0.4,0.4-0.5,0.6c-1.1,0.9-2,1.2-2.5,1.4c-0.7,0.2-1.2,0.3-1.7,0.3
				c-0.7,0.1-1.4,0.1-2.1,0.1c-1.6,0-2.9-0.1-4.2-0.2c-1.3-0.1-2.5-0.3-3.8-0.5c-0.6-0.1-1.3-0.2-1.9-0.3l-1.8-0.4
				c-2.5-0.5-5-1.2-7.4-2.1c-2.4-0.8-4.7-1.8-6.9-2.8l-3.3-1.5c-1.2-0.6-2.2-1.1-3.3-1.7c-2.1-1.1-4.2-2.3-6.3-3.6
				c-2-1.2-4-2.5-6-3.8l-1.4-1l-1.5-1.1c-0.8-0.5-1.6-1.2-2.4-1.9l-0.5-0.4c-1.8-1.6-3.5-3.2-5.2-5.1c-1.6-1.7-3.1-3.4-4.5-5.2
				c0,0-0.1-0.1-0.1-0.1c-0.8-0.5-1.3-1.3-1.3-2.3c0-0.2,0-0.4,0-0.7c0-0.1,0.1-0.5,0.2-0.9c0.1-0.3,0.4-0.8,0.8-1.2
				c0.6-0.7,1.3-1,1.7-1.2c0.8-0.4,1.6-0.6,2.3-0.7c1.3-0.3,2.6-0.4,3.9-0.5l7.2,0l7.3,0.6l1.9,0.2l1.9,0.3l3.5,0.6l3.6,0.7l3.5,0.8
				l7,1.9l3.5,1l3.5,1.1l6.9,2.3l3.5,1.2l3.5,1.4l3.4,1.5l3.4,1.6l6.6,3.4l6.5,3.6l6.4,3.7l6.4,3.9l6.3,4.2c2,1.4,4.2,3,6.3,4.9
				l1.9,1.7c0.7,0.6,1,1.5,0.8,2.4c-0.2,0.9-0.7,1.7-1.6,2l-2.2,1c-1.2,0.5-2.6,0.8-4.2,0.9L549.9,132.1z M503.9,110.8
				c0.2,0,0.5,0,0.7,0.1c4.6,1.3,9.1,2.8,13.3,4.2c2.6,0.9,5.5,2.3,8.7,3.8c4.6,2.2,9.4,4.6,13,5.1c1.1,0.1,2.4,0.4,3.7,0.7
				c0.7,0.2,1.4,0.3,2.2,0.4c-4.2-2.9-9.9-6.4-16.9-10.5c-9.6-5.5-17.8-9.8-27-13c-12.4-4.3-23-7.2-31.6-8.6
				c-1.9-0.3-9-1.2-14.4-1.2c-0.9,0-1.7,0-2.3,0.1c0.7,0.7,1.4,1.3,2.1,1.9c3,2.7,5.5,5,9.2,7.4c7.6,5.1,22.5,14,36,16
				c2.1,0.3,3.9,0.5,5.3,0.6c-0.4-0.3-0.8-0.6-1.3-0.9c-0.5-0.4-1.2-0.7-1.8-1c-1.2-0.6-1.8-2.1-1.3-3.3
				C501.8,111.4,502.8,110.8,503.9,110.8z M373.2,102.6c-2.5,0-4.8-0.1-6.9-0.3l-2-0.2l-1.9-0.3c-1.3-0.2-2.6-0.5-3.8-0.8
				c-1.3-0.3-2.6-0.6-3.8-1c-0.7-0.2-1.5-0.5-2.2-0.9c-0.4-0.2-0.9-0.4-1.4-0.8c-0.6-0.4-1.3-1-2-2.1c-0.1-0.1-0.3-0.6-0.4-0.7
				c-0.1-0.2-0.2-0.6-0.2-0.7c0-0.1-0.1-0.6-0.1-0.7c0-0.3,0-0.5,0-0.7l-1.4,0c-1.6,0.1-3.2,0.3-4.9,0.6l-3,0.5
				c-2.5,0.4-5.1,0.8-7.8,1c-1.4,0.1-2.7,0.2-4.1,0.2c-0.6,0-1.3,0-1.9-0.1l-0.8-0.1l-2.2-0.3l-2.5-0.3c-1.8-0.2-3.8-0.4-5.8-0.8
				c-1.1-0.2-2.2-0.5-3.3-0.9c-1.5-0.6-2.6-1.2-3.6-2.1l-1.8-1.6c-0.7-0.6-1-1.5-0.9-2.4c0.1-0.9,0.7-1.7,1.6-2l2.3-1l7.3-2.6l7.4-2
				l7.3-1.7l7.2-1.5l7.2-1.3l7.3-1.1l3.7-0.4l3.7-0.3l3.8-0.2l3.7-0.1l7.3,0l3.6,0.1l3.6,0.1l7.2,0.4l3.6,0.3l3.6,0.4l3.6,0.5
				l1.8,0.3l1.9,0.4l7,1.7c2,0.6,4.6,1.3,7.1,2.3c1.2,0.5,2.4,1,3.6,1.7c0.6,0.4,1.3,0.8,2,1.4c0.4,0.3,0.7,0.8,1,1.2
				c0.1,0.1,0.2,0.2,0.2,0.4c0.3,0.6,0.4,1.2,0.4,1.7c0,0.3-0.1,0.8-0.2,1.1c-0.3,0.9-1.1,1.7-2,1.9c-0.1,0.1-0.1,0.1-0.2,0.2
				c-1.9,1.2-3.9,2.4-5.9,3.5c-2.3,1.3-4.4,2.3-6.4,3.2c0,0-0.5,0.2-0.5,0.2c-1,0.4-2,0.8-3,1.1c0,0-1.4,0.5-1.4,0.5l-1.9,0.6
				c-2.3,0.6-4.6,1.2-6.9,1.7c-2.3,0.5-4.7,1-7.1,1.4l-3.5,0.6c-1.3,0.2-2.5,0.3-3.7,0.4c-2.5,0.2-5,0.4-7.5,0.4L373.2,102.6z
				 M357.9,93.8c1.2,0.3,2.9,0.7,5.2,1.1c2.9,0.5,6.2,0.8,9.6,0.8c10.8,0,22-2.5,29.6-4.6c4.3-1.2,7.4-2.6,11.1-4.2
				c0.8-0.4,1.7-0.7,2.6-1.1c-4.6-1.8-12.7-3.6-16.2-4.2c-7.5-1.2-17-1.9-28-1.9c-1.6,0-3.2,0-4.7,0c-9.7,0.2-18.9,1.6-29.7,3.8
				c-8,1.6-14.5,3.2-19.4,4.6c0.8,0.1,1.5,0.2,2.2,0.3c1.4,0.2,2.7,0.3,3.8,0.5c1,0.2,2.1,0.3,3.5,0.3c3.2,0,6.9-0.5,10.5-1
				c3.4-0.4,6.7-0.9,9.4-0.9c1.5,0,2.9,0,4.4,0c3.2,0,6.4,0.1,9.5,0.2c1.4,0.1,2.5,1.2,2.5,2.5c0.1,1.4-0.9,2.6-2.3,2.7
				c-0.7,0.1-1.4,0.2-2,0.4C358.8,93.5,358.3,93.6,357.9,93.8z"/>
			<path class="st2" d="M550,130.9c-2.5,0-5.4-0.6-7.8-1.1c-1.2-0.3-2.4-0.5-3.4-0.6c-4.4-0.6-9.6-3.1-14.6-5.5
				c-3-1.4-5.8-2.8-8.1-3.6c-0.9-0.3-1.7-0.6-2.6-0.9c0,0.6-0.1,1.2-0.5,1.8c-1.1,1.9-3.5,2.2-5.8,2.2c-2.7,0-5.8-0.4-7.2-0.6
				c-0.1,0-0.2,0-0.3,0c-13.9-2-28.4-10.3-38.2-16.8c-4-2.7-6.8-5.2-9.8-7.9c-1.5-1.4-3.1-2.8-4.9-4.3c-1.1-0.9-1.3-2.4-0.5-3.6
				c0.2-0.3,0.4-0.5,0.7-0.7c0.2-0.8,0.8-1.5,1.7-1.9c1.5-0.6,3.7-0.8,6.9-0.8c5.8,0,13.2,0.9,15.2,1.2c8.9,1.4,19.9,4.4,32.6,8.8
				c10.2,3.6,19.4,8.5,27.8,13.4c11.7,6.7,19.7,12,23.9,15.8c0.7,0.6,1,1.5,0.9,2.4c-0.1,0.9-0.7,1.6-1.5,2
				C553.2,130.7,551.8,130.9,550,130.9z M470.6,98.5c0.3,0,0.7,0.1,1,0.2l2.4,0.9c1.9,0.7,4,1.4,6.3,1.8l1.8,0.4
				c1.8,0.4,3.6,0.7,5.3,1.2l6.8,2c2.3,0.7,4.7,1.4,7,2.3c1.2,0.4,2.4,0.9,3.6,1.5c0.6,0.3,1.3,0.6,1.9,1c0.5,0.3,0.8,0.4,1,0.6
				c0,0,0.8,0.5,0.8,0.5l4.8,1.4c0,0,4.6,1.4,5.2,1.6c1.8,0.6,3.5,1.4,5.2,2.1l2.8,1.3c2.3,1,4.5,2.1,6.8,3c1.4,0.5,2.9,1.1,4.4,1.5
				c-3.8-2.4-7.7-4.7-11.6-6.9l-6.3-3.5c-2-1.1-4.1-2.2-6.2-3.2l-3.2-1.5l-3.2-1.4l-3.2-1.3l-3.3-1.2l-6.6-2.3l-3.3-1.1
				c-1.1-0.4-2.2-0.7-3.3-1l-6.7-1.9l-3.3-0.8l-3.3-0.8c-0.9-0.2-1.7-0.4-2.6-0.5l-2.5-0.5l-1.6-0.2l-3.4-0.4
				c-1.1-0.2-2.2-0.3-3.4-0.4c-2.1-0.2-4.1-0.4-6.2-0.5c0.4,0.3,6.6,4.8,6.6,4.8l0.9,0.6c0.5,0.4,1.1,0.8,1.7,1.1c0,0,3.6,2.4,4,2.6
				c0-0.5,0.1-1,0.3-1.5C468.8,99.1,469.7,98.5,470.6,98.5z"/>
			<path class="st2" d="M420.6,177.9c-0.3,0-0.6,0-0.8-0.1l0,0c-0.4-0.1-0.8-0.4-1.1-0.7c-5.9-6.5-5.8-25.1-5.1-43.5
				c0.1-3.4,0.2-6.1,0.2-7.8c0-1.5,0.1-3.1,0.2-4.8c0.3-4,0.5-7.8-1.4-10.7c-2.7-3.9-5.2-8.1-5.1-12.9c0-1.7,0-1.7,25.8-15.6
				l0.6-0.3c0.4-0.2,0.8-0.3,1.3-0.3c0.7,0,1.4,0.3,1.9,0.8l21.4,21.8c0.6,0.6,0.9,1.5,0.7,2.4c-1,5-5.4,7.9-9,10.3l-1.5,1
				c-2.6,1.8-3.7,6.3-4.6,10.2c-0.5,1.9-0.9,3.8-1.5,5.3c-0.6,1.6-1.3,4.2-2.3,7.3c-5.4,17.9-10.8,34.2-18.5,37.5
				C421.3,177.8,420.9,177.9,420.6,177.9z"/>
			<path class="st2" d="M429.1,148.4c-0.9,0-1.9-0.3-2.7-1l-0.5,0.3c-0.4,0.3-1.5,0.6-2,0.6c-1.6,0-3.4-0.9-4-2.6
				c-0.3-1.1-0.1-2.2,0.7-3c-1.1-0.1-2.5-0.7-3.2-2.1c-0.3-0.6-0.3-1.4-0.2-2.1c-0.4-0.4-0.7-0.8-0.8-1.3c-0.3-0.8-0.2-1.6,0.2-2.4
				c-0.5-0.5-0.8-1-0.9-1.7c-0.3-1.2,0.2-2.4,1.2-3.1c-0.9-0.4-1.8-1.1-2.1-2.1c-0.4-1.2-0.1-2.5,0.8-3.4c0.1-0.1,0.3-0.3,0.4-0.4
				c-0.6-0.7-0.9-1.5-0.9-2.4c0-1.2,0.7-2.2,1.6-3.1c0,0,0-0.4,0-0.5c-0.7-0.6-1.2-1.4-1.3-2.4c0-0.3,0-0.5,0.1-0.8
				c-0.3-0.5-0.6-1-0.7-1.5c-0.1-0.6-0.1-1.2,0-1.7c-0.7-0.4-1.2-1.1-1.5-1.9c-0.1-0.5-0.1-1,0-1.5c-0.7-0.4-1.4-1.1-1.7-1.9
				c-0.6-0.3-1.1-0.8-1.4-1.4c-0.2-0.4-0.3-1-0.3-1.5c-0.7-0.5-1.2-1.2-1.4-2.1c-0.2-1,0.1-1.9,0.7-2.7c-0.2-0.6-0.3-1.4-0.1-1.9
				c0.2-0.6,0.5-1.1,0.9-1.5c0.3-0.6,0.8-1.3,2-1.7l2.9-0.9c1.1-0.6,2.6-1.2,4.1-1.8c1.8-0.8,3.7-1.6,5.5-2.5
				c2.5-1.2,4.6-2.7,6.9-4.2c0.8-0.5,1.6-1.1,2.7-1.3c0.2,0,0.6-0.1,0.8-0.1c1.3,0,2.6,0.7,3.4,1.8c0.2,0.3,0.5,0.8,0.6,1.4
				c0.5,0.5,0.8,1,0.9,1.7c0.1,0.3,0,0.7-0.1,1c1.5,0.2,3.1,1.2,3.5,2.8c0.1,0.3,0.1,0.7,0.1,1c1.3,0.2,2.8,0.9,3.3,2.3
				c0.1,0.3,0.2,0.6,0.2,1c1,0.3,2.1,0.9,2.6,2.1c0.1,0.3,0.2,0.6,0.2,0.9c1,0.1,2.3,0.6,3,1.7c0.1,0.2,0.3,0.5,0.3,0.7
				c1.3,0.2,2.7,1,3.2,2.5c0.1,0.2,0.1,0.5,0.2,0.7c0.5,0.5,0.9,1.1,1,1.8c0.3,1.5-0.5,2.9-1.9,3.5c-0.3,0.1-0.6,0.3-0.9,0.4
				c0.1,1.2-0.6,2.4-1.8,3l-3.6,2c-0.1,1-0.8,2.2-1.6,2.7c-1,0.6-2.1,1.2-3.1,1.7c0,0.1,0,0.1,0,0.2c0.1,0.7,0,1.4-0.3,2.1
				c0.1,0.1,0.2,0.3,0.2,0.4c0.5,1.2,0.2,2.5-0.7,3.5c-1.4,1.4-3.1,2.5-4.7,3.4c1.1,0.4,2,1.2,2.4,2.3c0.4,1.3,0,2.7-1.2,3.5
				c-0.9,0.6-1.8,1.2-2.7,1.8c0.1,0.9-0.2,2-0.7,2.6l0,0c0.4,0.6,0.7,1.8,0.6,2.4c-0.7,3.9-4.5,5.6-6.6,6.5
				C430.2,148.2,429.5,148.4,429.1,148.4z"/>
			<path class="st2" d="M420.6,178.3c-0.2,0-0.4,0-0.6-0.1l-0.1,0c-0.6-0.1-1.3-0.5-1.6-1c-1.5-1.7-2.4-3.9-3-5.5
				c-0.5-1.7-1-3.4-1.3-5.5c-0.6-3.2-0.9-6.6-1.1-10.6c-0.3-7.1-0.1-14.2,0.2-20.8c0,0,0.2-5.7,0.2-5.9c-0.7-0.4-1.1-1.2-1.2-2
				c0-0.3,0.1-1,0.1-1.3c0.2-0.7,0.6-1.3,1.1-1.9c0-1,0.1-1.9,0.2-2.8c0.1-2.2,0.3-4.2,0.1-6.2c-0.2-1.5-0.6-2.7-1.1-3.8l-1-1.5
				c-0.6-1-1.3-2-1.9-3c-0.9-1.6-1.5-3-1.9-4.4l-9.2,4.4l-7.8,3.4l-6.7,2.7l-5.2,1.9l-4.6,1.5c-0.3,0.1-0.5,0.1-0.8,0.1
				c-1.1,0-2.1-0.6-2.5-1.7c-0.5-1.3,0.1-2.8,1.3-3.4l4.3-2l11.2-5.5l7.5-3.8l8.4-4.3l9-4.7l16.6-8.7l-5.1-5.6l-3.2-3.5l-5.8-6.8
				c-1.9-2.4-3.4-4.6-4.5-6.5c-1.2-2-2.1-4-2.7-5.8c-0.6-1.9-0.8-3.5-0.8-4.5c0-0.4,0-0.9,0-1.3c0.1-1.4,1.3-2.6,2.7-2.6
				c0,0,0.1,0,0.1,0c1.4,0.1,2.6,1.1,2.6,2.5c0,0.6,0,0.8,0,1c0.1,0.6,0.2,1.6,0.7,2.9c0.6,1.4,1.4,2.9,2.5,4.5
				c1.2,1.7,2.6,3.5,4.4,5.5l6.1,6.1l3.4,3.3l3.5,3.6l3.2,3.4l4.1-2.1l4.4-2.3l4.4-2.1l7.8-3.8c2.2-1.2,4.2-2.4,5.8-3.7
				c1.5-1.1,2.8-2.3,3.8-3.4c1-1.2,1.5-2.1,1.6-2.4c0.2-0.3,0.2-0.5,0.3-0.6c0.4-1.1,1.5-2,2.7-2c0.2,0,0.5,0,0.7,0.1
				c1.4,0.4,2.2,1.6,1.9,3c-0.2,0.6-0.3,1.1-0.5,1.6c-0.3,0.8-1,2.2-2.2,3.9c-1.1,1.5-2.7,3.1-4.4,4.6c-1.7,1.5-3.8,3-6.3,4.6
				l-7.7,4.5l-10.9,5.9l5.6,6l7.2,7.6l7,7.3l6.5,6.8l5.8,6l8.8,8.8l3.4,3.3c1,1,1.1,2.6,0.1,3.6c-0.5,0.6-1.3,0.9-2,0.9
				c-0.6,0-1.1-0.2-1.6-0.5l-3.8-2.9l-4.3-3.5l-5.4-4.7l-1.3-1.1c-1.6-1.5-3.3-3-5-4.7l-6-5.8c-1.3,1.5-2.7,2.6-3.8,3.4
				c-0.9,0.6-1.8,1.2-2.6,1.8l-1.5,1c-0.8,0.6-1.6,1.5-2.2,2.7c-0.6,1.1-1,2.5-1.5,4.3l-0.6,2.3l0.3,0.3c1.1,0.9,1.2,2.6,0.3,3.7
				c-0.5,0.6-1.2,1-1.9,1c0,0.1-0.8,2.2-0.9,2.7l-2.6,8.8c0,0.2-0.1,0.5-0.2,0.7c-1.5,4.9-3.1,10-5.1,15.2c-1.5,4-2.9,7-4.4,9.8
				c-1.1,1.9-2,3.4-3,4.7c-1.1,1.4-2.7,3.2-5,4.2C421.4,178.2,421,178.3,420.6,178.3z M419,139.5c-0.1,5-0.2,10.5,0.1,15.8
				c0.2,3,0.4,6.5,1,9.9c0.3,1.7,0.6,3.2,1.1,4.6c0.1,0.4,0.2,0.7,0.4,1c0.2-0.2,0.4-0.5,0.6-0.7c0.8-1,1.6-2.2,2.5-3.9
				c1.4-2.5,2.6-5.4,4-9c1.9-4.8,3.4-9.7,4.8-14.3c-0.2-0.2-0.3-0.4-0.6-0.6c-0.5-0.5-1.3-0.9-2.2-1.2c-0.5-0.2-1.1-0.4-1.6-0.5
				c-0.6-0.1-1.1-0.2-1.6-0.3c-0.9-0.2-1.5-0.2-2.1-0.3c-0.5,0-1.1-0.1-1.7-0.1l-0.5-2.7v2.7l-1.2,0c-0.4,0-0.9,0.1-1.4,0.1
				c-0.4,0.1-0.8,0.1-1.2,0.2L419,139.5z M425.1,132.5c1.1,0,2.2,0.1,3.4,0.3c0.9,0.2,1.8,0.4,2.6,0.7c0.8,0.3,1.7,0.7,2.4,1.2
				c0.7,0.4,1.3,0.9,1.9,1.4l1-3.2l0.9-2.5c0.2-0.5,0.3-1,0.4-1.5c-0.1-0.1-0.2-0.1-0.3-0.2c-0.5-0.3-1.1-0.6-1.8-0.9
				c-0.6-0.3-1.3-0.5-2-0.7c-0.6-0.1-1.4-0.3-2.1-0.3l-1.4-0.1l-0.8,0v-2.7l-0.3,2.7l-2.8,0c-0.9,0-1.8,0-2.7,0.1
				c-1.6,0.1-3.1,0.2-4.4,0.4c0,0.9,0,1.8,0,2.6l-0.1,3.7c0.5-0.2,1.1-0.4,1.7-0.5c0.8-0.2,1.6-0.3,2.4-0.4
				C423.9,132.6,424.5,132.5,425.1,132.5z M429.2,119.2c0.6,0,1.3,0.1,1.9,0.2c0.6,0.1,1.1,0.2,1.7,0.4c1,0.2,2.1,0.7,3.1,1.1
				c1.2,0.6,2.3,1.2,3.4,1.9c0.4-1.4,1-3.3,1.9-5.1c1.1-2.1,2.4-3.8,4.1-5l1.8-1.2c0.8-0.5,1.5-1,2.3-1.6c1.4-1,2.4-1.9,3.1-2.8
				c0,0,0,0,0-0.1l-4.6-4.8c-0.2-0.1-0.5-0.4-0.8-0.7l-0.4-0.4c-0.3-0.3-0.7-0.6-1-0.9l-1.3-1.3l-1.3-1.4c-0.5-0.5-0.9-1-1.3-1.5
				l-1.2-1.4l-2.4-3l-3.4-3.8l-9,4.8l-9.4,4.9l-3.1,1.6c0,0.1,0,0.1,0,0.2c0.3,1.2,0.8,2.5,1.7,4c0.5,0.9,1.1,1.8,1.6,2.6l1.1,1.7
				c1,1.8,1.7,3.8,2,6.1c0.3,2.3,0.2,4.4,0,6.5c1-0.3,2.1-0.5,3.3-0.8c1-0.2,2-0.3,3-0.5c0.7-0.1,1.5-0.1,2.2-0.1
				C428.4,119.1,428.8,119.1,429.2,119.2z"/>
			<path class="st2" d="M421.4,175c-1.4,0-2.6-0.5-3.2-1.5c-0.2-0.2-0.3-0.5-0.3-0.8c-0.1-0.2-0.2-0.3-0.3-0.5
				c-0.4-0.8-0.4-2,0.1-2.8c0.1-0.1,0.1-0.2,0.2-0.3c-0.5-0.3-1-0.7-1.3-1.4c-0.4-0.9-0.2-2.3,0.4-3.1c0.3-0.4,0.7-0.8,1-1.2
				c-0.6-0.3-1.1-0.8-1.4-1.5c-0.4-1,0-2.4,0.8-3.1c0.2-0.2,0.3-0.3,0.5-0.5c-0.4-0.3-0.7-0.7-0.9-1.2c-0.1-0.2-0.2-0.5-0.2-0.8
				c-0.7-0.2-1.3-0.5-1.9-1c-0.6-0.5-1.2-1.6-1.2-2.4c0-0.8,0.4-1.7,1-2.2l1.1-0.9c-0.2-0.2-0.4-0.4-0.6-0.6
				c-0.5-0.6-0.8-1.7-0.6-2.5c0.2-1.1,0.7-2,1.2-2.9c-0.3-0.3-0.6-0.8-0.7-1.3c-0.3-1.2,0.4-2.6,1.5-3.2c1.1-0.6,2.3-1,3.5-1.5
				c0.9-0.3,1.9-0.6,2.8-1.1c0.4-0.2,1.3-0.4,1.7-0.4c1.2,0,2.2,0.4,2.8,1c0.6,0.2,1,0.3,1.2,0.4c0.4,0.2,0.8,0.4,1.1,0.8
				c0.3-0.1,0.8-0.2,1.2-0.2c0.3,0,1.6,0.1,2.7,0.7c0.5-0.2,1-0.2,1.4-0.2c1.7,0,3.1,0.9,3.5,2.4c0,0.1,0.1,0.2,0.1,0.3
				c0.5,2-0.3,3.8-0.9,5.1c-0.3,0.6-0.6,1.3-0.6,1.6c0,1.2-0.8,2.2-1.9,2.7c-0.2,0.5-0.4,1-0.6,1.6c0,0,0,0,0,0
				c0.5,0.8,0.6,2,0.2,2.8c-2,4.4-3.9,8.1-6.3,11.5c-1.1,2.7-2,4.6-4.6,7.1C423.3,174.7,422.4,175,421.4,175z"/>
			<path class="st2" d="M455.7,98.6c-0.4,0-0.9-0.1-1.2-0.4c-2.4-1.7-6.5-4.4-7.4-4.9l-0.7-0.4c-1.4-0.7-3.3-1.7-3.4-3.8
				c0-1.2,0.3-2.5,0.6-3c0.1-0.3,0.3-0.5,0.5-0.7c0.8-1.2,1.8-2.3,3.2-3.4c1.2-1,2.6-1.9,4-2.8c2.9-1.8,5.8-3.2,8.3-4.4l8.4-3.9
				l4.2-2l5.1-2.3c1.2-0.5,2.3-1,3.5-1.4l4.3-1.7c3-1.1,5.9-2.2,8.9-3.2c5.4-1.8,11.3-3.6,18.2-5.5l10.4-2.7l3.5-0.8
				c0.8-0.2,1.6-0.4,2.4-0.5l2.3-0.5l4.7-0.9l4.8-0.7l4.8-0.6l1.8-0.2c1-0.1,2.1-0.2,3.1-0.3c3.2-0.3,6.5-0.5,9.7-0.7
				c3-0.1,5.9-0.2,8.9-0.2l1,0c3.3,0,6.6,0.2,9.9,0.5c2.8,0.3,5.6,0.7,8.1,1.2c1,0.2,1.8,0.9,2,1.9c0.3,1,0,2-0.8,2.7
				c-1,0.9-2,1.7-3,2.5l-5.7,4l-0.8,0.5c-1.2,0.8-2,1.2-2.9,1.7c-1.6,0.9-3.3,1.7-5.1,2.5c-1.4,0.6-2.8,1.2-4.3,1.9
				c-1.9,0.8-3.9,1.7-5.9,2.6l-9.9,4.8c-1.7,0.8-3.4,1.6-5,2.3c-1.7,0.7-3.4,1.4-5.1,2.1c-1.7,0.6-3.5,1.2-5.3,1.7
				c-0.8,0.2-1.7,0.4-2.5,0.6l-0.3,0.1c0.1,0.1,0.1,0.3,0.2,0.4c0.3,1,0.2,2.1-0.6,2.8c-1.9,1.7-4.3,3.2-7.2,4.5
				c-2.7,1.3-5.8,2.3-9.8,3.4c-3,0.8-6.3,1.5-10,2.2l-10,1.6l-6.3,0.9l-1.3,0.1l-2.5,0.2l-10,0.1l-5,0l-2.4,0.1l-2.5-0.1l-2.4,0
				l-2.4,0.1c-0.6,0.1-1.3,0.1-2,0.3c-0.2,0.1-0.4,0.1-0.6,0.2c-0.2,0.6-0.6,1-1.1,1.3C456.7,98.5,456.2,98.6,455.7,98.6z"/>
			<path class="st2" d="M482.8,98.6c-2.2,0-4.3-0.1-6.4-0.1l-1,0c-1.6-0.1-3.2-0.1-4.8-0.1l-1.6,0l-1,0c-0.9,0-1.7-0.1-2.6-0.2
				l-4.8-0.4c-0.7-0.1-1.4-0.1-2.2-0.1c-0.4,0-0.8,0-0.9,0.1c-0.4,0.3-0.9,0.4-1.3,0.4c-0.7,0-1.3-0.3-1.9-0.8c-1-1-1.2-2.6-0.3-3.7
				c0.5-0.6,1.2-1.1,2.1-1.5c0.5-0.2,1-0.4,1.6-0.5c1-0.2,1.9-0.3,2.9-0.4c0.9-0.1,1.8-0.1,2.6-0.1l4.9,0.1l2.4-0.1l9.2,0
				c1.8,0,3.7,0,5.5-0.1l2.4-0.2l2.3-0.3l4.9-0.7c3.3-0.5,6.6-1,9.8-1.6c3.6-0.6,6.7-1.3,9.6-2.1c2-0.6,3.8-1.1,5.5-1.7
				c-0.4,0.1-2.1,0.4-2.1,0.4c-0.6,0.1-1.3,0.2-1.9,0.4l-5.9,1.4c-0.2,0-0.4,0.1-0.6,0.1c-0.1,0-0.3,0-0.3,0c-0.2,0-0.5-0.1-0.7-0.2
				l0,0c-0.5-0.2-1-0.6-1.3-1.2l0,0c-0.1-0.2-0.2-0.4-0.2-0.6c0,0,0,0,0,0c-0.1-0.5-0.1-0.9,0-1.3l0.1-0.4c0.2-0.6,0.7-1,1.3-1.3
				c0,0,0.4-0.2,0.5-0.2l0.7-0.2c1.5-0.4,3-0.8,4.5-1.2l1.4-0.4l2.2-0.7c1-0.3,2-0.6,3-0.9l1.2-0.3l2.6-0.8c1.8-0.5,3.6-1,5.4-1.4
				l3.2-0.8c0.6-0.2,1.3-0.3,1.9-0.5c1.7-0.5,3.3-1,4.9-1.6c1.6-0.6,3.3-1.3,4.8-2c1.6-0.7,3.3-1.4,4.9-2.2l6.6-3.2
				c1.1-0.5,2.2-1.1,3.4-1.6l10.2-4.5c1.6-0.7,3.2-1.5,4.7-2.3c0.7-0.4,1.5-0.8,2.2-1.3l1-0.6c0,0,3.2-2.2,3.4-2.3
				c-0.5-0.1-1-0.1-1.5-0.2c-3.3-0.3-6.5-0.5-9.5-0.5l-0.9,0c-2.9,0-5.8,0.1-8.6,0.2c-3.2,0.2-6.4,0.4-9.5,0.7l-4.8,0.5L541,54
				l-4.7,0.7l-1.6,0.3c-1,0.2-2,0.3-2.9,0.5l-2.3,0.5c-0.7,0.1-1.5,0.3-2.2,0.5l-4.6,1.1l-9.2,2.4c-6.7,1.8-12.5,3.6-17.8,5.4
				l-8.7,3.1l-4.2,1.7l-4.2,1.7l-4.1,1.8l-4.2,1.9l-4.2,1.9l-4.1,1.9c-2.2,1-5.1,2.5-7.7,4.1c-1.1,0.7-2.3,1.5-3.4,2.4
				c-1.2,1-1.9,1.8-2.4,2.6c-0.5,0.8-1.4,1.3-2.3,1.3c-0.4,0-0.7-0.1-1.1-0.2c-1.3-0.6-2-2.1-1.5-3.4c0.3-0.9,0.7-1.8,1.3-2.6
				c0.5-0.8,1.1-1.5,1.7-2.2c1.1-1.2,2.3-2.3,3.8-3.5l3.9-2.8l4.1-2.6l4.2-2.3l4.2-2.2l8.4-4.2l8.9-3.7l9.1-3.2l9.2-2.9l9.3-2.6
				l11.2-2.7l3-0.6l2.4-0.5l2.4-0.4l4.9-0.8l4.9-0.6l4.9-0.5l4.9-0.4l9.9-0.5l10,0l10.1,0.6c3.8,0.4,7.1,1,10.3,1.7l1.5,0.3
				c0.9,0.2,1.7,0.9,2,1.8c0.3,0.9,0,1.9-0.6,2.6l-1.1,1.1c-1.2,1.3-2.7,2.5-4.6,4c-0.7,0.5-5.6,4.1-5.6,4.1l-1.2,0.9
				c-0.9,0.6-1.7,1.1-2.6,1.6c-1.7,1-3.4,1.9-5.1,2.8c-2.3,1.2-4.7,2.2-7,3.3l-3.1,1.4l-5.8,2.7c-1.4,0.7-2.9,1.3-4.3,2
				c-1.7,0.8-3.5,1.5-5.2,2.2c-1.8,0.7-3.6,1.3-5.5,1.9c-1.4,0.4-2.8,0.8-4.1,1.2c-0.1,0.2-0.3,0.5-0.4,0.7L536,83
				c-2.3,2.6-5.4,4.9-9.5,6.8c-3.1,1.5-6.5,2.7-10.3,3.8c-3.1,0.9-6.5,1.6-10.3,2.3c-3.4,0.6-6.8,1.1-10.1,1.5l-6.3,0.8l-1.4,0.1
				c-0.9,0.1-1.8,0.1-2.7,0.1C484.6,98.5,483.7,98.6,482.8,98.6C482.8,98.6,482.8,98.6,482.8,98.6z"/>
			<path class="st2" d="M412,91.6c-0.7,0-1.4-0.3-2-0.9c-0.5-0.5-0.7-1.2-0.7-1.9c-0.1-0.1-0.2-0.1-0.4-0.2c-0.6-0.4-1.3-0.7-2-1
				c-0.7-0.3-1.4-0.5-2.1-0.8c0,0-4.2-1.3-4.7-1.5l-2.3-0.8l-5.5-1.8c-2.9-0.9-5.8-1.9-8.6-3l-2.3-1l-1.2-0.5l-5.7-2.8
				c-3-1.5-6-3.1-9-4.7c-3.3-1.8-6.2-3.5-8.8-5.3c-3.4-2.3-6.1-4.3-8.2-6.4c-2.3-2.1-4.1-4.3-5.4-6.5c-0.5-0.9-0.5-2,0.1-2.9
				c0.1-0.1,0.2-0.3,0.3-0.4l-0.5-0.3c-0.6-0.4-1.3-0.8-1.9-1.2c-1.5-1-3-2.1-4.5-3.3c-1.4-1.1-2.8-2.4-4.2-3.6
				c-1.4-1.2-2.7-2.5-4-3.8l-5.2-5c-0.9-0.9-1.8-1.7-2.7-2.6l-8.2-7.4c-1.4-1.3-2.8-2.6-4-4c-0.6-0.7-1.3-1.4-1.9-2.1l-1.8-2.2
				l-1.2-1.6c-0.7-1-1.4-1.9-2.1-2.9c-0.8-1.1-1.5-2.2-2.1-3.3c-0.5-0.9-0.5-2,0.1-2.8c0.5-0.7,1.3-1.2,2.2-1.2c0.1,0,0.2,0,0.3,0
				c2.6,0.3,5.3,0.8,8.1,1.4c3.2,0.8,6.5,1.7,9.6,2.7c3.1,1,6.2,2.1,9.3,3.3c3,1.2,6.1,2.4,9.1,3.7l4.4,2l4.4,2.1l4.3,2.2l1.6,0.8
				c0.9,0.5,1.8,1,2.7,1.5l2,1.2c0.7,0.4,1.4,0.8,2.1,1.3l4.1,2.5l8,5.2c5.9,3.9,11,7.5,15.5,11l7.4,5.8l3.6,3l3.5,3l3.5,3.1
				l3.4,3.2l3.4,3.1l3.4,3.2c1.9,1.8,4.3,4.2,6.5,6.8c1,1.3,2,2.6,2.9,3.9c0.6,1,1.4,2.5,1.9,4.2c0.2,0.3,0.3,0.6,0.3,1
				c0,0.3,0,0.5,0,0.7c0,0.5-0.1,1.3-0.4,2.1c-0.7,2-2.9,2.4-4.4,2.6l-0.8,0.1l-8.6,2.4C412.5,91.6,412.2,91.6,412,91.6z"/>
			<path class="st2" d="M412.1,90.8c-0.8,0-1.5-0.3-2-0.8c-0.1-0.1-0.5-0.2-0.7-0.3c-0.8-0.3-1.5-0.5-2.2-0.6
				c-0.8-0.2-4.7-1.1-4.7-1.1c-0.8-0.2-1.7-0.4-2.5-0.6c-0.6-0.2-1.1-0.3-1.6-0.5l-0.8-0.3l-5.4-1.7c-2.9-0.9-5.9-1.8-8.9-2.8
				c-0.8-0.3-1.7-0.6-2.5-1l-1.2-0.5l-1.2-0.6l-4.6-2.2c-3.1-1.5-6.1-3-9.2-4.7c-3.4-1.8-6.3-3.6-9-5.4c-3.3-2.2-6.1-4.4-8.6-6.8
				c-3.2-3.1-5.5-6.2-6.8-9.5l-0.7-1.7c-0.1-0.3-0.2-0.5-0.2-0.8c-1.2-0.8-2.4-1.6-3.6-2.4c-1.5-1.1-3.1-2.3-4.6-3.5
				c-1.5-1.2-2.9-2.5-4.3-3.7l-4.1-3.8l-4-3.8l-2.6-2.4c-1.8-1.7-3.7-3.4-5.5-5.3l-3.9-4.2l-1.9-2.3l-0.9-1.2l-4-5.7
				c-1.4-2-2.4-3.7-3.1-5.3L296,3.6c-0.4-0.9-0.3-1.9,0.2-2.7c0.5-0.7,1.3-1.1,2.2-1.1c0.1,0,1.8,0.1,1.8,0.1
				c3.2,0.3,6.6,0.8,10.2,1.6l9.7,2.6l9.5,3.2l9.2,3.6l4.6,1.9l4.5,2l4.5,2.1l4.4,2.3l4.3,2.4l4.2,2.5l8.1,5.1l8,5.4l7.8,5.6
				l7.5,5.9l7.2,6.3l6.7,6.8l3.3,3.4l3.2,3.5l3.1,3.7l2.8,4c1.1,1.6,1.9,3.1,2.5,4.6c0.3,0.7,0.6,1.5,0.8,2.2
				c0.1,0.1,0.1,0.3,0.1,0.4c0.2,1,0.4,2,0.4,2.9c0,1.4-1,2.5-2.4,2.7c-0.1,0-0.2,0-0.3,0c-1.3,0-2.5-0.8-2.7-2.1
				c-0.2-1-0.7-2-1.5-3.3c-0.7-1.2-1.6-2.3-2.5-3.3c-2-2.4-4.2-4.5-6-6.4l-6.7-6.3l-3.4-3.2l-4.1-3.7c-0.9-0.8-1.7-1.5-2.6-2.3
				l-3.6-3c-2.3-1.9-4.8-3.8-7.2-5.7c-4.5-3.4-9.5-6.9-15.2-10.7l-8.9-5.8l-3-1.9c-0.7-0.4-1.3-0.8-2-1.2l-2.1-1.2l-4.1-2.3
				l-4.2-2.1c0,0-3.3-1.6-4.2-2l-1.5-0.7c-0.9-0.4-1.9-0.9-2.9-1.3c-2.9-1.3-5.9-2.5-8.9-3.7c-3-1.1-6-2.2-9-3.2c-3-1-6-1.8-9.2-2.5
				c-0.5-0.1-1-0.2-1.5-0.3l2.5,3.3l0.8,1c0.5,0.6,1.1,1.3,1.7,1.9c1.2,1.3,2.5,2.5,3.8,3.7c1.1,1,2.2,2,3.3,3
				c1.6,1.5,3.3,2.9,4.9,4.5l7.9,7.7c1.3,1.2,2.6,2.4,3.9,3.6c1.3,1.2,2.6,2.3,4,3.4c1.3,1.1,2.7,2.1,4.1,3.1
				c0.6,0.4,1.1,0.7,1.7,1.1l2.8,1.8c1.6,1,3.1,2,4.7,3l2.6,1.8c0,0,0.7,0.4,0.7,0.4l2.5,1.8l3.1,2.2l4.4,3c1.2,0.8,1.5,2.4,0.8,3.6
				c-0.5,0.8-1.4,1.2-2.2,1.2c-0.5,0-1-0.1-1.4-0.4l-5.2-3.2l-2.6-1.5c-0.3-0.2-0.6-0.3-1-0.5c1.4,1.1,2.9,2.2,4.6,3.3
				c2.5,1.7,5.2,3.3,8.4,5c2.9,1.6,5.9,3.1,8.8,4.6l5.6,2.8l1,0.5l2.2,0.9c2.7,1.1,5.5,2,8.3,2.9l0.8,0.2c1.6,0.5,3.2,1,4.8,1.6
				l2.3,0.8l2.2,0.7l2.4,0.8c1,0.3,1.7,0.6,2.5,1c0.9,0.4,1.8,0.8,2.6,1.3c0.5,0.3,1,0.6,1.4,1c0.8,0.7,1.3,1.4,1.6,2.1
				c0.5,1.3-0.1,2.8-1.4,3.4C412.9,90.7,412.5,90.8,412.1,90.8z"/>
		</g>
		<g>
			<path class="st3" d="M10.2,42.1l18,84H33l19.6-82.8h5l20.2,82.8h4.8l17.4-84h4.4l-18.2,88.3H74.2l-19-81.1l-18.4,81.1H24.6
				L5.8,42.1L10.2,42.1z M114.3,42.1h4.4v6.9h-4.4V42.1z M114.3,67.4h4.4v63.1h-4.4V67.4z M134.8,38.3h4.4v92.1h-4.4V38.3z
				 M199.2,130.4h-4.4v-5.3c0,0-10.3,6.4-21.8,6.4c-7.8,0-21.3-1.1-21.3-31.8c0-21.7,5.8-33.6,26.5-33.6c5.9,0,13.5,1,16.7,1.5V42.1
				h4.4L199.2,130.4L199.2,130.4z M194.8,121V71.8c-3.3-0.4-11.7-1.5-16.7-1.5c-17.9,0-22.1,10.7-22.1,29.9
				c0,25.1,9.8,27.4,16.9,27.4C183.8,127.5,194.8,121,194.8,121L194.8,121z"/>
			<path class="st4" d="M213.6,43.4h55.3V60h-38.1v25.1h30.5v16.5h-30.5v28.8h-17.2L213.6,43.4z M273.9,42.1h16.9v88.3h-16.9V42.1z
				 M309.7,67.5l11.5,46.4h2.9l11.5-46.4h16.7l-22.1,89.3h-16.7l6.4-26.4h-11.4l-15.5-63H309.7z"/>
			<path class="st5" d="M415.7,83.2l-6.7-1.7l-3.4-0.7l-3.4-0.7l-1.7-0.3l-1.7-0.2l-3.5-0.4l-3.5-0.3l-3.5-0.3l-7-0.3l-3.5-0.1
				l-3.5,0l-7.1,0.1l-3.6,0.2l-3.5,0.3l-3.5,0.4l-3.5,0.4l-7.1,1.1l-7.1,1.4c-4.8,1-9.5,2-14.2,3.1c-2.4,0.6-4.7,1.2-7,1.9
				c-1.2,0.4-2.4,0.7-3.6,1.1c0.4,0.1,0.9,0.3,1.3,0.4c1.6,0.4,3.4,0.6,5.2,0.8l2.7,0.4l1.3,0.3l0.6,0.1l0.6,0.1
				c1.7,0.2,3.4,0.1,5.1,0c3.5-0.2,7-0.6,10.6-1c1.8-0.2,3.6-0.3,5.4-0.4c0.9,0,1.8,0,2.7,0l2.7,0.1l5.4,0.2l0.4-0.1l0.4-0.1
				l0.5-0.1c0.3-0.1,0.6-0.1,1-0.2c0.6-0.1,1.3-0.2,1.9-0.3c1.3-0.1,2.5-0.2,3.7-0.2c2.4-0.1,4.8,0,7.2,0l7.1,0.2
				c2.3,0.1,4.7,0.4,7,0.7c2.3,0.3,4.7,0.4,7,0.3l2.6-0.1l-2.5,0.7c-1.7,0.5-3.4,0.7-5.1,0.9s-3.4,0.3-5.2,0.4
				c-3.5,0.1-6.9,0.2-10.4,0.1c-1.4,0-2.8-0.1-4.2-0.2c-1.1,0-2.2,0-3.4,0.1c-1.2,0.1-2.3,0.2-3.4,0.3c-0.6,0.1-1.1,0.2-1.6,0.3
				c-0.3,0.1-0.5,0.1-0.8,0.2l-0.4,0.1l-0.4,0.1c-1.1,0.3-2.2,0.7-3.1,1.1c-0.2,0.1-0.4,0.2-0.5,0.3c0.4,0.2,0.8,0.3,1.3,0.5
				c1,0.3,2.2,0.6,3.3,0.8c1.1,0.2,2.3,0.5,3.4,0.7c0.6,0.1,1.1,0.2,1.7,0.3c0.5,0.1,1.1,0.1,1.7,0.2c2.3,0.2,4.6,0.3,6.9,0.3
				c2.3,0,4.6-0.1,6.9-0.3c4.6-0.4,9.1-1.1,13.6-2c2.2-0.4,4.5-1,6.7-1.5l1.6-0.4l1.6-0.4c1.1-0.3,2.1-0.6,3.2-0.9l6.4-2.1
				c2.2-0.7,4.4-1.3,6.6-1.8l0.2-0.3c0.2-0.5-0.1-1-0.7-1.5c-0.4-0.2-0.8-0.4-1.2-0.6C417.9,83.9,416.8,83.6,415.7,83.2L415.7,83.2z
				 M459.7,99.1l2.8,1.9l1.4,0.9l1.4,0.9l5.9,3.5c4,2.3,8.1,4.3,12.3,6.2c2.1,0.9,4.3,1.7,6.4,2.5c2.2,0.8,4.4,1.4,6.6,1.9
				c0.6,0.1,1.1,0.3,1.7,0.4c0.6,0.1,1.1,0.2,1.7,0.3c1.1,0.2,2.3,0.3,3.4,0.5c1.1,0.1,2.3,0.2,3.4,0.2c0.4,0,0.9,0,1.3,0
				c-0.1-0.1-0.3-0.3-0.4-0.4c-0.8-0.7-1.7-1.4-2.6-2l-0.4-0.3l-0.3-0.2c-0.2-0.1-0.5-0.3-0.7-0.4c-0.5-0.3-1-0.5-1.5-0.8
				c-1-0.5-2.1-0.9-3.1-1.4c-1-0.4-2.1-0.8-3.1-1.2c-1.4-0.4-2.7-0.7-4-1.2c-3.3-1-6.6-2.2-9.9-3.4c-1.6-0.6-3.2-1.3-4.8-2
				c-1.6-0.7-3.1-1.4-4.6-2.5l-2.1-1.5l2.4,0.9c2.2,0.8,4.4,1.5,6.7,2c2.3,0.5,4.6,0.9,6.9,1.6l6.8,2c2.3,0.7,4.6,1.4,6.9,2.2
				c1.1,0.4,2.3,0.9,3.4,1.4c0.6,0.3,1.1,0.5,1.7,0.9c0.3,0.2,0.6,0.3,0.8,0.5l0.4,0.3l0.4,0.3c0.1,0.1,0.2,0.2,0.4,0.3l0.1,0
				l5.1,1.5l2.5,0.8l2.6,0.8c1.7,0.6,3.4,1.3,5,2c3.3,1.5,6.5,3,9.7,4.3c1.6,0.6,3.3,1.2,4.9,1.6l0.6,0.1l0.6,0.1l1.4,0.2
				c0.9,0.1,1.8,0.3,2.7,0.5c1.8,0.3,3.5,0.7,5.2,0.8c0.5,0,0.9,0.1,1.4,0.1c-1-0.8-2-1.5-3-2.2c-2-1.4-4-2.7-6.1-4
				c-4.1-2.6-8.3-5-12.5-7.4l-6.3-3.5c-2.1-1.1-4.2-2.2-6.3-3.3l-3.2-1.5l-3.2-1.5l-3.2-1.4l-3.3-1.3l-6.7-2.3
				c-1.1-0.4-2.2-0.7-3.4-1.1l-3.4-1.1c-2.2-0.7-4.5-1.3-6.8-1.9l-3.4-0.9c-1.1-0.3-2.3-0.5-3.4-0.8c-1.1-0.3-2.3-0.5-3.4-0.7
				l-1.7-0.3c-0.6-0.1-1.1-0.2-1.7-0.3l-3.4-0.4l-3.4-0.4c-2.3-0.2-4.6-0.4-6.9-0.5c-1.1,0-2.3,0-3.4,0.1c-0.4,0-0.9,0.1-1.3,0.2
				c-0.8,0.3-1.2,0.7-1.2,1.2l0.1,0.3c2,1.1,3.9,2.4,5.7,3.8L459.7,99.1L459.7,99.1z"/>
			<path class="st6" d="M367,77.1c-10.3,0.2-20,1.8-30.2,3.9c-7.3,1.5-20.3,4.3-27.1,7.2c2.9,2.6,9.8,2.6,13.7,3.4
				c6.5,1.2,17.2-1.5,23.9-1.5c4.6,0,9.2,0,13.7,0.2c-0.9,0.1-1.7,0.3-2.4,0.5c-1.6,0.4-6.4,1.8-6.1,3.3c0.3,1.8,8.4,3.2,10,3.5
				c12.3,2.2,27.8-0.4,40.4-3.9c6.8-1.9,11-4.3,17.6-6.9c-2.3,0.4-4.5,1.1-6.6,1.8l-6.4,2.1c-1.1,0.3-2.1,0.6-3.2,0.9l-1.6,0.4
				l-1.6,0.4c-2.2,0.6-4.4,1.1-6.7,1.5c-4.5,0.9-9,1.6-13.6,2c-2.3,0.2-4.6,0.3-6.9,0.3c-2.3,0-4.6-0.1-6.9-0.3
				c-0.6-0.1-1.1-0.1-1.7-0.2c-0.6-0.1-1.2-0.2-1.7-0.3c-1.1-0.2-2.3-0.4-3.4-0.6c-1.1-0.2-2.2-0.5-3.3-0.8
				c-0.4-0.1-0.9-0.3-1.3-0.5c0.2-0.1,0.4-0.2,0.5-0.3c0.9-0.4,2-0.8,3.1-1.1l0.4-0.1L360,92c0.3-0.1,0.5-0.1,0.8-0.2
				c0.5-0.1,1.1-0.2,1.6-0.3c1.1-0.1,2.3-0.2,3.4-0.3c1.1-0.1,2.2-0.1,3.4-0.1c1.4,0.1,2.8,0.1,4.2,0.2c3.5,0,7,0,10.4-0.1
				c1.7-0.1,3.5-0.2,5.2-0.4c1.7-0.2,3.4-0.4,5.1-0.9l2.5-0.7l-2.6,0.1c-2.3,0.1-4.7,0-7-0.3c-2.3-0.3-4.7-0.6-7-0.7l-7.1-0.2
				c-2.4-0.1-4.8-0.1-7.2,0c-1.2,0-2.5,0.1-3.7,0.2c-0.6,0.1-1.3,0.2-1.9,0.3c-0.3,0.1-0.6,0.1-1,0.2l-0.5,0.1l-0.4,0.1
				c-0.1,0-0.3,0.1-0.4,0.1l-0.1,0l-5.3-0.2l-2.7-0.1l-2.7,0c-1.8,0-3.6,0.2-5.4,0.4c-3.6,0.4-7.1,0.8-10.6,1
				c-1.7,0.1-3.5,0.1-5.1,0l-0.6-0.1l-0.6-0.1l-1.3-0.3c-0.9-0.2-1.8-0.3-2.7-0.4c-1.8-0.2-3.5-0.5-5.2-0.8
				c-0.5-0.1-0.9-0.2-1.3-0.4c1.2-0.4,2.4-0.8,3.6-1.1c2.3-0.7,4.7-1.3,7-1.9c4.7-1.2,9.5-2.2,14.2-3.1l7.1-1.4
				c2.4-0.4,4.7-0.8,7.1-1.1l3.5-0.4l3.5-0.4l3.5-0.3l3.6-0.2l7.1-0.1c1.2,0,2.4,0,3.5,0l3.5,0.1c2.4,0,4.7,0.2,7,0.3l3.5,0.3
				c1.2,0.1,2.3,0.2,3.5,0.3c1.1,0.1,2.3,0.3,3.5,0.4l1.7,0.2c0.5,0.1,1.1,0.2,1.7,0.3l3.4,0.7l3.4,0.7c2.3,0.5,4.5,1,6.7,1.7
				c1.1,0.3,2.2,0.7,3.2,1.1c0.4,0.2,0.8,0.4,1.2,0.6c-3.5-2.8-17.4-5.6-19.9-6C389.8,77.3,377.5,77,367,77.1L367,77.1z"/>
			<path class="st3" d="M421.5,85.3c-0.1-0.3-0.4-0.6-0.6-0.8c-0.5-0.4-1-0.8-1.5-1.1c-1-0.6-2.1-1.1-3.2-1.5
				c-2.2-0.9-4.4-1.6-6.7-2.2l-6.9-1.7l-1.8-0.4l-1.8-0.3l-3.5-0.5l-3.6-0.4l-3.5-0.3l-7.1-0.4l-3.6-0.1l-3.6-0.1l-7.2,0l-3.6,0.1
				l-3.7,0.2l-3.6,0.3l-3.6,0.4l-7.2,1.1l-7.2,1.3l-7.2,1.5l-7.2,1.7l-7.2,2l-7.2,2.5l-2.3,1l1.8,1.6c0.9,0.8,1.9,1.3,2.9,1.7
				s1.9,0.6,2.9,0.8c1.9,0.4,3.7,0.6,5.5,0.8l2.6,0.3l1.3,0.2l0.8,0.1l0.7,0.1c1.9,0.1,3.8,0,5.6-0.2c3.6-0.4,7.2-1,10.7-1.5
				c1.7-0.3,3.5-0.5,5.2-0.6l5.3-0.2l1.4,0c-0.4,0.2-0.8,0.4-1.1,0.7c-0.3,0.3-0.7,0.5-1.1,1.1c-0.2,0.3-0.3,0.7-0.4,1.1
				c0,0.1,0,0.2,0,0.3l0,0.2l0,0.1l0,0.1l0,0.1c0,0.1,0,0.1,0.1,0.2c0,0.1,0.1,0.2,0.2,0.3c0.4,0.7,0.9,1,1.2,1.2
				c0.4,0.2,0.7,0.4,1,0.6c0.7,0.3,1.3,0.5,1.9,0.7c1.2,0.4,2.4,0.7,3.6,1c1.2,0.3,2.4,0.5,3.6,0.7l1.8,0.3c0.6,0.1,1.2,0.2,1.9,0.2
				c2.5,0.3,4.9,0.3,7.4,0.3c2.4,0,4.8-0.2,7.2-0.4c1.2-0.1,2.4-0.3,3.6-0.4l3.5-0.6c2.3-0.4,4.6-0.9,6.9-1.4
				c2.3-0.5,4.5-1.1,6.8-1.7l1.7-0.5l0.2-0.1l0.2-0.1l0.4-0.1l0.8-0.3c1.1-0.3,2.2-0.8,3.3-1.2c2.1-0.9,4.2-1.9,6.2-3
				c2-1.1,3.9-2.2,5.8-3.4c-6.7,2.6-10.8,5-17.6,6.9c-12.6,3.5-28,6.1-40.4,3.9c-1.6-0.3-9.7-1.7-10-3.5c-0.3-1.5,4.5-2.9,6.1-3.3
				c0.7-0.2,1.5-0.3,2.4-0.5c-4.6-0.3-9.1-0.3-13.7-0.2c-6.7,0.1-17.5,2.8-23.9,1.5c-4-0.8-10.9-0.8-13.7-3.4
				c6.8-2.9,19.8-5.8,27.1-7.2c10.2-2.1,19.9-3.7,30.2-3.9c10.5-0.2,22.8,0.2,33.2,1.8c2.5,0.4,16.4,3.2,19.9,6
				c0.1,0.1,0.2,0.1,0.3,0.2c0.2,0.2,0.4,0.3,0.5,0.5c0.1,0.1,0.1,0.2,0.1,0.2c0,0,0,0.1,0,0.1c0,0,0,0.1,0,0.2l0.7,0.2
				c0-0.1,0.1-0.1,0.1-0.2c0-0.1,0-0.2,0-0.3C421.7,85.7,421.7,85.5,421.5,85.3L421.5,85.3z M554.1,126.2c-1.9-1.7-4-3.2-6-4.7
				l-6.2-4.1l-6.3-3.9l-6.3-3.7l-6.4-3.5l-6.5-3.3l-3.3-1.6l-3.3-1.4l-3.4-1.4l-3.4-1.2l-6.9-2.2l-3.4-1.1l-3.4-1l-6.9-1.8l-3.5-0.8
				l-3.5-0.7l-3.5-0.6l-1.8-0.3l-1.8-0.2l-7-0.6l-7.1,0c-1.2,0.1-2.4,0.2-3.5,0.4c-0.6,0.1-1.2,0.3-1.8,0.6
				c-0.3,0.1-0.6,0.3-0.8,0.6c-0.1,0.1-0.2,0.3-0.3,0.5c0,0.1-0.1,0.2-0.1,0.3c0,0.1,0,0.2,0,0.2l0.7,0c0-0.1,0-0.2,0-0.2l0-0.1
				c0-0.1,0.1-0.1,0.2-0.2c0.2-0.1,0.4-0.2,0.6-0.3c0.1,0,0.2,0,0.3-0.1c4.2-1.6,18.3,0.2,20.7,0.6c10.4,1.7,22.1,5.2,32.1,8.7
				c9.7,3.4,18.4,8,27.4,13.2c6.4,3.7,17.9,10.5,23.4,15.4c-3.5,1.6-10.1-0.6-14.1-1.1c-6.5-0.9-15.8-6.8-22.2-9
				c-4.4-1.5-8.7-2.9-13.1-4.1c0.8,0.4,1.5,0.8,2.1,1.2c1.3,0.9,5.5,3.7,4.7,5.1c-0.9,1.6-9,0.4-10.6,0.1
				c-12.4-1.8-26.2-9.1-37.1-16.4c-5.9-3.9-9-7.5-14.5-12.1c1.4,1.8,2.9,3.4,4.4,5.1s3.1,3.3,4.9,4.8c0.9,0.7,1.8,1.5,2.7,2.2
				l1.2,0.9l0.2,0.1l1.4,1c1.9,1.3,3.9,2.6,5.9,3.8c2,1.2,4.1,2.4,6.1,3.5c1,0.6,2.1,1.1,3.2,1.6l3.3,1.5c2.2,1,4.4,1.9,6.7,2.7
				c2.3,0.8,4.7,1.5,7.1,2l1.8,0.4c0.6,0.1,1.2,0.2,1.8,0.3c1.2,0.2,2.4,0.3,3.7,0.4c1.2,0.1,2.5,0.2,3.8,0.2c0.7,0,1.4,0,2-0.1
				c0.4,0,0.8-0.1,1.2-0.2c0.4-0.1,0.9-0.2,1.5-0.8c0.1-0.1,0.1-0.1,0.3-0.3c0-0.1,0.1-0.1,0.1-0.2l0,0l0.1-0.1l0-0.1l0.1-0.2
				c0-0.1,0.1-0.2,0.1-0.3c0.1-0.5,0.1-0.8,0-1.2c-0.2-0.6-0.4-1-0.7-1.4c-0.3-0.4-0.5-0.7-0.9-1l1.3,0.5l4.9,1.8
				c1.6,0.6,3.2,1.4,4.7,2.2c3.2,1.6,6.3,3.3,9.6,4.8c1.7,0.7,3.4,1.4,5.3,1.9l0.7,0.2l0.7,0.2l1.3,0.2c0.9,0.2,1.7,0.4,2.6,0.6
				c1.8,0.4,3.6,0.8,5.5,1c1,0.1,1.9,0.2,3,0.1s2.1-0.2,3.2-0.7l2.2-0.9L554.1,126.2z"/>
			<path class="st6" d="M500.2,119.8c1.6,0.2,9.7,1.4,10.6-0.1c0.8-1.4-3.4-4.2-4.7-5.1c-0.6-0.4-1.3-0.8-2.1-1.2
				c4.4,1.2,8.7,2.6,13.1,4.1c6.4,2.2,15.7,8.1,22.2,9c4,0.5,10.6,2.7,14.1,1.1c-5.5-4.9-17-11.7-23.4-15.4
				c-9-5.2-17.7-9.8-27.4-13.2c-10-3.5-21.7-7-32.1-8.7c-2.5-0.4-16.6-2.1-20.7-0.6c0.4-0.1,0.9-0.2,1.3-0.2
				c1.1-0.1,2.2-0.1,3.4-0.1c2.3,0.1,4.6,0.3,6.9,0.5c1.1,0.1,2.3,0.2,3.4,0.4l3.4,0.4l1.7,0.3l1.7,0.3c1.1,0.2,2.3,0.4,3.4,0.7
				l3.4,0.8l3.4,0.9l6.8,1.9c1.1,0.3,2.2,0.7,3.4,1.1l3.4,1.1l6.7,2.3l3.3,1.3l3.2,1.4l3.2,1.5l3.2,1.5c2.1,1.1,4.2,2.2,6.3,3.3
				l6.3,3.5c4.2,2.4,8.4,4.8,12.5,7.4c2.1,1.3,4.1,2.6,6.1,4c1,0.7,2,1.4,3,2.2c-0.5,0-0.9,0-1.4-0.1c-1.7-0.2-3.4-0.5-5.2-0.8
				l-2.7-0.5l-1.4-0.2l-0.6-0.1l-0.6-0.1c-1.6-0.4-3.3-1-4.9-1.6c-3.3-1.3-6.5-2.8-9.7-4.3c-1.6-0.7-3.3-1.4-5-2
				c-0.9-0.3-1.7-0.5-2.6-0.8l-2.5-0.8l-5.1-1.5l-0.1,0l-0.4-0.3l-0.4-0.3l-0.4-0.3c-0.3-0.2-0.6-0.3-0.8-0.5
				c-0.6-0.3-1.1-0.6-1.7-0.9c-1.1-0.5-2.3-1-3.4-1.4c-2.3-0.8-4.6-1.6-6.9-2.2l-6.8-2c-2.3-0.6-4.6-1.1-6.9-1.6
				c-2.3-0.5-4.6-1.1-6.7-2l-2.4-0.9l2.1,1.5c1.4,1,3,1.7,4.6,2.5c1.6,0.7,3.2,1.3,4.8,2c3.2,1.2,6.5,2.4,9.9,3.4
				c1.3,0.4,2.7,0.8,4,1.2c1.1,0.4,2.1,0.8,3.1,1.2c1.1,0.4,2.1,0.9,3.1,1.4c0.5,0.2,1,0.5,1.5,0.8c0.2,0.1,0.5,0.3,0.7,0.4l0.3,0.2
				l0.4,0.3c0.9,0.7,1.8,1.3,2.6,2c0.2,0.1,0.3,0.3,0.4,0.4c-0.4,0-0.9,0-1.3,0c-1.1,0-2.2-0.1-3.4-0.2c-1.1-0.1-2.3-0.3-3.4-0.5
				c-0.6-0.1-1.2-0.2-1.7-0.3c-0.5-0.1-1.1-0.2-1.7-0.4c-2.2-0.5-4.4-1.1-6.6-1.9c-2.2-0.8-4.3-1.6-6.4-2.5
				c-4.2-1.8-8.3-3.9-12.3-6.2c-2-1.1-3.9-2.3-5.9-3.5l-1.4-0.9l-1.4-0.9c-1-0.6-1.8-1.3-2.8-1.9l-5.4-4c-1.8-1.3-3.7-2.6-5.7-3.8
				c5.5,4.6,8.7,8.1,14.5,12.1C473.9,110.7,487.8,118,500.2,119.8L500.2,119.8z"/>
			<path class="st7" d="M410,97.4c-0.2,4.1,2.3,7.9,4.6,11.3c3.4,5,1.6,11.5,1.7,16.9c0.2,8.4-2.9,41.7,4.3,49.6l0,0
				c9.1-3.8,16.5-35.4,19.3-43.2c1.8-5,2.2-13.5,7-16.8c3.6-2.5,8.5-5.1,9.4-9.6L435,83.8C435,83.8,410,97.2,410,97.4L410,97.4z"/>
			<path class="st8" d="M453,105.6l-1.8,0.8c0.8-0.5,1.5-1,2.2-1.6c0.8-0.7-0.7-1.4-1.3-1.3l-3,0.8c0.5-0.6,0.9-1.3,1.2-2
				c0.3-0.8-0.8-1.2-1.4-1.1c-6.2,1.1-10.5,5.3-16.1,8.1c-2.7,1.3-5.5,2.5-8.4,3.5c-0.4,0.1-0.8,0.2-1.2,0.3
				c-0.7,0.2-1.5,0.3-2.3,0.4c-0.7,0.2-1.2,0-1.5-0.7c0.5-0.5,2.1-0.8,2.8-1c2.6-0.7,5.1-1.5,7.6-2.6c2.2-1,4.2-2.2,6.1-3.6
				c4-1.3,7.8-3.3,10.8-6.4c0.6-0.7-1-1.2-1.4-1.1c-3.4,0.5-6,2.2-8.5,4.4c-0.8,0.7-1.6,1.3-2.5,2c-1.6,0.5-3.3,1-4.9,1.4
				c-1.1,0.3-2.3,0.4-3.5,0.6l4.8-2.7c4.4-2.4,9.5-3.8,13.1-7.4c0.9-0.8-0.9-1.4-1.5-1.2c-4.7,1.3-9,3.4-13.3,5.4c0,0,0,0,0.1,0
				c3.9-1.9,7.6-3.9,11.4-6.1c0.9-0.5-0.7-1.3-1.4-1.3l1-0.5c1.2-0.6-0.5-1.7-1.3-1.3c-4.2,1.6-8.2,3.5-12.2,5.6
				c-3.1,1.7-7.1,4.9-10.9,5.8c2.2-2.1,5.5-3.2,8-4.7l11.3-6.9c0.7-0.4-0.1-1-0.8-1.2l2.5-1.5c0.7-0.4-0.2-1.1-0.9-1.3
				c0.3-0.5,0.4-0.9,0.1-1.3c-0.3-0.4-0.9-0.7-1.4-0.6c-0.7,0.1-1.2,0.6-1.8,0.9c-2.4,1.6-4.7,3.1-7.2,4.4c-3.3,1.6-6.7,2.9-10,4.5
				l-2.9,0.9c-0.5,0.2-0.5,0.4-0.3,0.7l-0.7,0.4c-0.2,0.1-0.3,0.5-0.1,0.7c0.5,0.9,1.5,1.2,2.6,1.1l-2.8,1.3c-1,0.5,0.1,1.4,0.8,1.4
				s1.4-0.1,2-0.3c-0.7,0.6-1.3,1.2-1.7,2c-0.4,0.7,0.7,1.1,1.2,1.2c0.5,0,0.9,0,1.4,0l-0.8,0.6c-0.9,0.7,0.9,1.6,1.5,1.2l0.2-0.1
				l0.7-0.4c-0.1,0.1-0.2,0.1-0.3,0.2c-0.8,0.8,0.7,1.3,1.3,1.3c3.6-0.2,6.8-2.3,9.8-4.1c3.2-1.8,6.7-3.5,10.2-4.8
				c-2.6,1.5-5.5,2.6-8.2,3.9c-3.2,1.6-6.1,3.4-9.4,4.9c-1.4,0.3-2.8,0.8-4,1.5c-1,0.6,1,1.4,1.5,1.2c1.2-0.4,2.4-0.8,3.6-1.3
				c1.8-0.3,3.8-0.4,5.5-0.7c1-0.2,1.9-0.4,2.9-0.6c-1.4,0.7-2.8,1.4-4.4,2c-2.2,0.8-5.9,0.9-7.6,2.7c-0.8,0.9,0.4,2.3,1.2,2.6
				c0.1,0,0.2,0.1,0.3,0.1c-0.3,0.2-0.6,0.3-0.9,0.5c-0.6,0.3,0,1,0.5,1.2c1.5,0.5,2.9,0.5,4.3,0.3l-3.3,1.3
				c-0.9,0.4-0.2,1.1,0.6,1.3c-2,1.2-3.3,2.5-2.1,3.3c1.2,0.8,2.9,0,4-0.4c1.2-0.4,2.3-0.9,3.5-1.4c-0.1,0.1-0.3,0.2-0.4,0.3
				c-0.3,0.2-0.3,0.4-0.2,0.5l-2,1.2c-0.4,0.2-0.3,0.5,0,0.8c-2,0.6-4,1.4-5.5,2.9c-0.7,0.7,0.4,1.3,1,1.3c2.6,0.2,5.1-0.2,7.7-1
				c-0.4,0.6,0.6,1.1,1.1,1.1c1.3,0.1,2.6-0.1,3.9-0.4l-0.6,0.3c-1,0.5-1.9,0.9-3,1.3c-3,0.8-6,1.7-8.9,2.9
				c-1.2,0.5,0.5,1.7,1.3,1.3c2.2-1,4.5-1.6,6.9-2.4l0.7-0.2c-2.9,1.5-5.7,3.1-8.4,5c-1,0.7,0.9,1.4,1.5,1.2
				c0.5-0.2,0.9-0.3,1.3-0.5c-0.8,0.7-1.5,1.5-2.2,2.4c-0.5,0.7,1,1.3,1.4,1.1c2.1-0.5,4-1.2,5.9-2.1c-1.5,1.3-2.8,2.7-3.8,4.4
				c-0.3,0.5,0.2,0.9,0.7,1l-1.4,0.9c-0.9,0.7,1,1.6,1.7,1.1l2.7-1.8c1.5-0.9,3.1-1.7,4.9-2c-0.8,1.3-2.5,2-3.8,2.6
				c-1.2,0.5,0.5,1.7,1.3,1.3c2-0.9,4.6-2.1,5-4.6c0.1-0.6-0.8-1-1.2-1c-0.6,0-1.1,0-1.7,0.1c1-0.9,2-1.9,3-2.9
				c0.6-0.7-1.2-1.3-1.6-1.1c-2.1,1.1-3.8,3.2-5.8,4.6c3.1-3.4,7.6-5.7,11.2-8.3c0.9-0.7-0.9-1.5-1.5-1.2c-4.3,2.1-8.5,4.6-13,6.2
				c3.4-3,8-4.7,11.7-7.2c0.8-0.5-0.3-1.1-1-1.2l1-0.6l0,0c0.1,0,0.1-0.1,0.2-0.1c0.5-0.3,0.2-0.7-0.3-0.9c2.3-1.1,4.5-2.3,6.1-3.9
				c0.8-0.9-0.9-1.4-1.5-1.2c-3.3,1-6.6,3.1-10.1,3.8c3.5-2.4,7.6-4.1,11.3-5.7c1.2-0.5-0.5-1.6-1.3-1.3c-3.4,1.1-6.6,2.6-9.9,4
				c-2.8,1.2-6,2.6-9.2,3c3-1.8,7.2-2.5,10.2-3.8c5.1-2.2,10.1-4.4,14.9-7.1c0.8-0.5-0.3-1.1-1-1.3l6.2-3.4c1.2-0.6-0.5-1.5-1.3-1.3
				c-0.4,0.1-0.7,0.2-1,0.3c1.7-0.9,3.5-1.7,5.3-2.5C455.4,106.4,453.8,105.3,453,105.6L453,105.6z M427.2,101.3
				c-2,1.1-3.9,2.4-6,3.3C423.2,103.3,425.2,102.3,427.2,101.3z M424.2,114.7c-0.7,0.3-1.4,0.5-2.1,0.6c0.4-0.1,0.7-0.3,1.1-0.4
				C423.5,114.8,423.9,114.8,424.2,114.7L424.2,114.7z M436.6,109.1c3.5-2.2,6.9-4.6,10.8-5.8c-0.7,0.9-1.5,1.8-2.4,2.5
				C442.1,106.7,439.4,107.8,436.6,109.1L436.6,109.1z M421.8,120.4c0.8-0.5,1.7-0.9,2.6-1.3c2.2-1.1,4.5-2,6.7-2.9
				c4.2-1.8,8.1-3.9,12.1-6l2.3-0.9c-3.5,1.8-6.9,3.8-10.5,5.5C430.6,116.9,426.2,118.7,421.8,120.4L421.8,120.4z M438.9,115.2
				l-0.9,0.5c0,0,0,0-0.1,0l0.3-0.2L438.9,115.2z"/>
			<path class="st3" d="M483.1,131.1l-2.5-2.4l-8.8-8.8l-5.8-6l-6.5-6.8l-7-7.3l-7.2-7.7l-8-8.5l5.3-2.9l4.3-2.4l4.2-2.2l7.6-4.5
				c2.3-1.5,4.3-3,6-4.4c1.7-1.4,3.1-2.9,4-4.2c1-1.3,1.5-2.5,1.9-3.3c0.2-0.4,0.3-0.7,0.3-1l0.1-0.3l-0.1,0.3
				c-0.1,0.2-0.2,0.5-0.4,0.9c-0.4,0.8-1,1.9-2,3.1c-1,1.2-2.5,2.5-4.2,3.8c-1.8,1.3-3.9,2.6-6.2,3.9l-7.8,3.8l-4.3,2l-4.4,2.3
				l-5.9,3.1l-4.6-4.9l-3.4-3.6l-3.4-3.3l-6.1-6.2c-1.8-2-3.4-3.9-4.6-5.7c-1.3-1.8-2.2-3.5-2.8-5c-0.6-1.5-0.8-2.7-0.9-3.6
				c0-0.4,0-0.8,0-1l0-0.3l0,0.3c0,0.3,0,0.7,0,1c0,0.9,0.2,2.2,0.7,3.7c0.5,1.5,1.3,3.3,2.4,5.3c1.1,1.9,2.6,4,4.3,6.1l5.7,6.7
				l3.2,3.5l3.3,3.6l4,4.5L423,88.3l-9.3,4.9l-9,4.7l-8.4,4.3l-7.5,3.8l-11.2,5.5l-3.2,1.5l-1.1,0.5l1.2-0.4l3.3-1.1l5.1-1.9
				l6.6-2.6l7.7-3.4l8.6-4l3.8-1.9c0,0.7,0.1,1.4,0.3,2.1c0.4,1.7,1.1,3.4,2,4.9c0.8,1.5,1.9,3,2.8,4.4c0.8,1.5,1.3,3.1,1.5,4.8
				c0.4,3.4-0.2,6.8-0.2,10.2v0.3c-0.2,0.2-0.5,0.3-0.6,0.5c-0.3,0.3-0.5,0.6-0.6,0.9s0,0.4,0,0.4s0-0.1,0.1-0.3s0.3-0.4,0.7-0.6
				c0.1-0.1,0.3-0.2,0.4-0.2c0,1.4,0,2.9-0.1,4.3l-0.2,5.1c-0.3,6.8-0.4,13.7-0.2,20.6c0.1,3.4,0.4,6.9,1,10.3
				c0.3,1.7,0.7,3.4,1.2,5.1c0.6,1.6,1.3,3.3,2.5,4.7l0.1,0.1l0.1,0l0,0l0.1,0l0.1-0.1c1.7-0.7,2.9-2,4-3.4c1.1-1.4,2-2.9,2.8-4.4
				c1.6-3,3-6.2,4.2-9.4c1.9-5,3.5-10.2,5.1-15.3l0.1,0c0,0,0-0.1,0-0.2l1.2-4.1l1.5-4.9c0.3-0.8,0.5-1.6,0.8-2.4
				c0.3-0.8,0.5-1.7,0.7-2.5l0.2-0.8l0.5,0.4l1.1,0.8l-1-0.9l-0.5-0.5l1-4c0.4-1.6,1-3.3,1.7-4.7c0.7-1.5,1.7-2.8,3-3.8
				c1.4-0.9,2.8-1.8,4.1-2.8c1.3-1,2.6-2.1,3.7-3.4c0.5-0.6,0.9-1.3,1.2-2.1l1.5,1.5l6.8,6.6c2.2,2.1,4.3,4,6.2,5.7l5.4,4.6l4.2,3.4
				l2.8,2.1l1,0.7L483.1,131.1L483.1,131.1z M440.6,128.8c-0.2,0.8-0.4,1.7-0.7,2.4l-0.8,2.4l-1.5,4.9l-1,3.2
				c-0.1-0.3-0.2-0.6-0.4-0.8c-0.2-0.4-0.5-0.9-0.9-1.3c-0.4-0.5-0.8-0.9-1.3-1.4c-0.5-0.4-1.1-0.9-1.7-1.2s-1.3-0.7-2-1
				c-0.7-0.3-1.5-0.5-2.2-0.6c-1.5-0.3-3-0.3-4.4-0.2c-0.7,0.1-1.4,0.2-2,0.3c-0.6,0.2-1.2,0.3-1.7,0.6c-0.5,0.2-0.9,0.4-1.4,0.7
				c-0.4,0.2-0.7,0.5-1,0.7c-0.3,0.2-0.4,0.4-0.6,0.5l-0.2,0.2l0,0.1l0.3-0.1c0.2-0.1,0.4-0.1,0.7-0.2c0.2-0.1,0.3-0.1,0.5-0.1
				c0.2,0,0.4-0.1,0.6-0.1c0.4-0.1,0.9-0.2,1.4-0.3c0.6-0.1,1.1-0.1,1.7-0.2c0.6,0,1.2,0,1.9,0c0.6,0,1.3,0.1,2,0.1
				c0.7,0.1,1.4,0.2,2,0.3c0.7,0.1,1.3,0.2,2,0.4c0.6,0.2,1.3,0.3,1.9,0.6c1.2,0.4,2.3,1,3.1,1.7s1.3,1.4,1.6,2
				c0,0.1,0.1,0.1,0.1,0.2c-1.6,5.3-3.3,10.5-5.3,15.7c-1.2,3.2-2.6,6.4-4.2,9.3c-0.8,1.5-1.7,2.9-2.8,4.3c-1,1.2-2.1,2.4-3.5,3
				c-1-1.2-1.6-2.7-2.1-4.2c-0.5-1.6-0.9-3.3-1.2-5c-0.6-3.4-0.8-6.8-1-10.2c-0.3-6.8-0.2-13.7,0.1-20.5l0.2-5.1c0-1.5,0-3.1,0-4.6
				c0.6-0.2,1.3-0.4,2.2-0.5c1.4-0.2,3-0.4,4.8-0.5c0.9,0,1.8-0.1,2.7-0.1l2.8,0c0.5,0,0.9,0,1.3,0l1.4,0.1c0.9,0.1,1.8,0.2,2.6,0.4
				c0.8,0.2,1.7,0.5,2.4,0.8s1.4,0.7,2.1,1.1c0.6,0.4,1.3,0.8,1.9,1.3L440.6,128.8L440.6,128.8z M454.5,108.9
				c-1,1.3-2.3,2.3-3.6,3.3s-2.7,1.8-4.1,2.8c-1.4,1-2.5,2.4-3.2,4c-0.8,1.5-1.3,3.2-1.8,4.9c-0.3,1.2-0.6,2.5-0.9,3.7
				c-0.5-0.5-1.1-1-1.7-1.4c-1.3-1.1-2.8-2-4.4-2.7c-0.9-0.4-1.8-0.8-2.8-1c-0.5-0.2-1-0.2-1.4-0.3c-0.5-0.1-1-0.1-1.5-0.2
				c-1-0.1-2,0-3,0.1c-1,0.1-1.9,0.3-2.8,0.4c-1.8,0.4-3.5,0.8-4.9,1.3c-0.7,0.3-1.3,0.5-1.9,0.8c0.1-3.3,0.6-6.7,0.2-10.2
				c-0.2-1.7-0.7-3.5-1.6-5c-0.9-1.5-2-2.9-2.8-4.4c-0.8-1.5-1.6-3.1-1.9-4.7c-0.2-0.8-0.3-1.5-0.3-2.3l4.7-2.4l9.3-4.9l9.3-5
				l1.5-0.8l1.1,1.2l3.7,4.1l0.1,0.2c0.4,0.5,0.8,1,1.2,1.4l1.2,1.4l1.2,1.4c0.4,0.5,0.8,0.9,1.2,1.4l1.3,1.3l1.3,1.3
				c0.4,0.4,0.9,0.8,1.4,1.2c0.3,0.3,0.6,0.6,1,0.8l0.8,0.9l5.2,5.3C455.4,107.5,455,108.3,454.5,108.9L454.5,108.9z"/>
			<path class="st2" d="M435.9,142.1c-0.1-0.5-1.1-0.6-1.5-0.4c-0.9,0.6-1.7,1.2-2.4,1.9c0,0-0.1,0-0.1,0c-4.1,1.9-7.6,5.2-11.3,7.9
				c-0.7,0.5-1.4,0.9-2.1,1.3c2-1.1,3.9-3.1,5.7-4.6l7.9-6.5c0.5-0.4-1.2-0.7-1.5-0.6c-3.1,1.4-6.2,3.1-9.3,4.5
				c2.7-2.4,3-3.3,3.5-4.5c1.1-0.2,2.1-0.4,2.8-0.8c-0.3-0.1-1.2-0.4-2.1-0.6c0.3-0.6-1.2-0.7-1.5-0.5c-2,1.1-4.3,1.5-6.3,2.6
				c-0.6,0.3,0.9,0.9,1.4,0.7c0.7-0.4,1.6-0.6,2.7-0.8c-1.9,1.7-4.1,3.2-4.6,5.7c-0.1,0.6,1.1,0.6,1.4,0.5c2.9-0.9,5.6-2.3,8.3-3.7
				l-10.5,8.6c-0.2,0.1,0,0.4,0.1,0.5c1.5,1.2,3.2,0.3,4.7-0.6c2.7-1.7,5-3.9,7.6-5.7c-3,3.1-6.2,6-9.3,9c-0.5,0.5,1.2,0.7,1.5,0.6
				c1.7-0.8,3.3-1.7,4.8-2.8c-2.1,2.5-4.3,4.8-6.7,7c-0.5,0.4,1.1,0.7,1.3,0.6c1.7-0.6,3.4-1.3,5.1-2c-2.3,2.2-4.5,4.5-6.6,7
				c-0.4,0.5,1.2,0.9,1.6,0.5l5.2-5.4l-2.9,5.5c-1.1,1.1-2,2.2-2.8,3.6c-0.2,0.4,0.3,0.6,0.7,0.6l-0.2,0.5c-0.2,0.5,1.4,0.6,1.6,0.4
				c2.3-2.2,3-3.6,4.1-6.5c2.5-3.5,4.4-7.3,6.2-11.3c0.2-0.4-0.6-0.6-1.2-0.5c0.8-1.8,1.4-3.5,2-5.4c0.5,0.3,1.2,0.2,1.2-0.2
				C434.4,146.3,436.6,144.3,435.9,142.1L435.9,142.1z M434,144.8c-0.2-0.1-0.5-0.2-0.8-0.2c0.4-0.4,0.8-0.7,1.2-1
				C434.3,143.9,434.1,144.3,434,144.8L434,144.8z M426.9,151.1c0,0.1-0.1,0.2-0.1,0.3c0,0.1,0,0.1,0,0.2c-0.5,0.4-1,0.7-1.5,1.1
				L426.9,151.1z M430.9,149.9c0.2-0.3-0.2-0.5-0.7-0.6c0.5-0.7,1.1-1.4,1.7-2c-0.9,3.3-2.2,6.4-3.7,9.4c-1.8,1-3.6,1.9-5.4,2.7
				C425.7,156.5,428.4,153.3,430.9,149.9L430.9,149.9z"/>
			<path class="st6" d="M457.1,94.5c0.4-0.2,0.8-0.3,1.2-0.4c0.8-0.2,1.7-0.3,2.5-0.4l2.5-0.1l2.5,0l2.4,0.1l2.4-0.1l5,0l9.8-0.1
				l2.4-0.2l1.2-0.1l1.2-0.2l4.9-0.7l9.9-1.6c3.3-0.6,6.6-1.3,9.8-2.1c3.2-0.9,6.4-1.9,9.4-3.3c2.4-1.1,4.6-2.4,6.5-4.1
				c-0.3,0-0.6-0.1-0.8-0.1c-0.5,0-1-0.1-1.5-0.1c-0.5,0-1,0-1.5,0l-1.5,0c-0.5,0-1,0.1-1.5,0.1c-1,0.1-2,0.2-3,0.3
				c-1,0.1-2,0.3-3,0.5l-3,0.6l-3,0.7l-3,0.7l5.2-1.4l1.4-0.4l2.2-0.7c1-0.3,2-0.6,3-0.9l1.1-0.3l2.7-0.8c1.7-0.5,3.5-1,5.3-1.4
				l2.7-0.6c0.9-0.2,1.7-0.4,2.6-0.7c1.7-0.5,3.4-1,5.1-1.7c1.7-0.6,3.3-1.3,5-2c1.7-0.7,3.3-1.5,4.9-2.3l4.9-2.4l5-2.4
				c3.4-1.6,6.8-3,10.1-4.4c1.7-0.8,3.3-1.5,4.9-2.4c0.8-0.4,1.6-0.9,2.3-1.3c0.4-0.2,0.8-0.5,1.1-0.7l1.1-0.8l4.5-3.2
				c1-0.7,1.9-1.5,2.8-2.3c-2.6-0.5-5.2-0.9-7.9-1.1c-3.2-0.3-6.5-0.5-9.7-0.5c-3.2,0-6.5,0.1-9.7,0.2c-3.2,0.2-6.4,0.4-9.7,0.7
				c-1.6,0.1-3.2,0.3-4.8,0.5l-4.8,0.6l-4.7,0.7l-4.7,0.9l-2.3,0.5c-0.8,0.2-1.5,0.3-2.3,0.5l-2.3,0.5l-1.1,0.3l-1.2,0.3l-9.2,2.4
				c-6.1,1.6-12.1,3.4-18,5.4c-2.9,1-5.9,2-8.8,3.1l-4.3,1.7c-1.4,0.6-2.8,1.2-4.3,1.8l-4.2,1.9l-4.2,2l-4.2,1.9l-4.2,1.9
				c-2.7,1.3-5.5,2.7-8,4.3c-1.3,0.8-2.5,1.6-3.7,2.6c-1.1,1-2.2,2-3,3.3l-0.1,0c0,0-0.3,0.9-0.3,1.7c0,0.7,1.5,1.3,2.7,2
				s7.5,5,7.5,5l0-0.4h0c0-0.1,0.1-0.2,0.2-0.3l-0.1-0.1C456.3,94.9,456.7,94.7,457.1,94.5L457.1,94.5z"/>
			<path class="st3" d="M589.5,49.5c-3.2-0.8-6.5-1.3-9.8-1.7l-9.9-0.6l-9.9,0l-9.8,0.5l-4.9,0.4l-4.8,0.5l-4.8,0.6l-4.8,0.8
				l-2.4,0.4l-2.4,0.5l-2.9,0.6l-0.6,0.1l-1.2,0.3l-9.3,2.3l-9.2,2.6l-9.1,2.8l-8.9,3.2l-8.7,3.7l-8.4,4.2l-4.1,2.2l-4.1,2.3l-4,2.5
				l-3.8,2.8c-1.2,1-2.4,2-3.4,3.2c-0.5,0.6-1,1.2-1.4,1.9c-0.4,0.7-0.8,1.4-1,2.1l0.1,0l0.1,0c0.8-1.3,1.8-2.4,3-3.3
				s2.4-1.8,3.7-2.6c2.6-1.6,5.3-3,8-4.3l4.2-1.9l4.2-1.9l4.2-2l4.2-1.9l4.3-1.8l4.3-1.7l8.8-3.1c5.9-2,11.9-3.8,18-5.4l9.2-2.4
				l1.2-0.3l1.1-0.3l2.3-0.5c0.8-0.2,1.6-0.4,2.3-0.5l2.3-0.5c1.5-0.3,3.1-0.6,4.7-0.9l4.7-0.7l4.8-0.6l4.8-0.5
				c3.2-0.3,6.4-0.5,9.7-0.7c3.2-0.2,6.5-0.2,9.7-0.2c3.2,0,6.5,0.2,9.7,0.5c2.6,0.3,5.3,0.6,7.9,1.1c-0.9,0.8-1.8,1.6-2.8,2.3
				c-1.5,1.1-3,2.1-4.5,3.2l-1.1,0.8c-0.4,0.3-0.8,0.5-1.1,0.7c-0.8,0.5-1.5,0.9-2.3,1.3c-1.6,0.9-3.2,1.6-4.9,2.4l-10.1,4.4
				c-1.7,0.8-3.3,1.6-5,2.4l-4.9,2.4c-1.6,0.8-3.3,1.5-4.9,2.3c-1.7,0.7-3.3,1.4-5,2c-1.7,0.6-3.4,1.2-5.1,1.7
				c-0.9,0.3-1.7,0.4-2.6,0.7l-2.7,0.6c-1.8,0.4-3.5,0.9-5.3,1.4l-2.7,0.8l-1.1,0.3c-1,0.3-2,0.6-3,0.9l-2.2,0.7l-1.4,0.4
				c-1.7,0.5-3.5,1-5.2,1.4l5.2-1.3l0.2,0l-5.4,1.4l3-0.7l3-0.7c1-0.2,2-0.4,3-0.6c1-0.2,2-0.3,3-0.5c1-0.1,2-0.2,3-0.3
				c0.5,0,1-0.1,1.5-0.1c0.5,0,1,0,1.5,0c0.5,0,1,0,1.5,0s1,0.1,1.5,0.1c0.3,0,0.6,0.1,0.8,0.1c-1.9,1.7-4.1,3-6.5,4.1
				c-3,1.4-6.2,2.4-9.4,3.3c-3.2,0.9-6.5,1.6-9.8,2.1c-3.3,0.6-6.6,1.1-9.9,1.6l-4.9,0.7l-1.2,0.2l-1.2,0.1l-2.4,0.2
				c-3.3,0.2-6.5,0.1-9.8,0.1c-1.6,0-3.3,0-5,0l-2.4,0.1c-0.8,0-1.6,0-2.4-0.1l-2.5,0c-0.8,0-1.6,0-2.5,0.1
				c-0.8,0.1-1.7,0.2-2.5,0.4c-0.4,0.1-0.8,0.2-1.2,0.4s-0.8,0.4-1.1,0.7l0.1,0.1l0,0c0.7-0.4,1.5-0.4,2.3-0.4c0.8,0,1.6,0,2.4,0.1
				l2.4,0.2l2.4,0.2c0.8,0.1,1.6,0.1,2.5,0.2c0.9,0,1.7,0,2.5,0c1.6,0,3.3,0.1,4.9,0.1c3.3,0.1,6.6,0.2,10,0.1
				c0.8,0,1.7-0.1,2.5-0.1l1.3-0.1l1.2-0.1l5-0.7c3.3-0.4,6.7-0.9,10-1.5c3.4-0.6,6.7-1.3,10-2.2c3.3-0.9,6.6-2.1,9.8-3.6
				c3.2-1.5,6.2-3.5,8.6-6.2l1.2-1.4l-1.8-0.3c-0.4-0.1-0.9-0.1-1.3-0.2l0.8-0.1c0.9-0.2,1.8-0.3,2.7-0.5c1.8-0.4,3.6-0.9,5.4-1.4
				c1.8-0.5,3.5-1.2,5.3-1.8c1.7-0.7,3.4-1.4,5.1-2.1c1.7-0.7,3.4-1.5,5-2.3l5-2.4c3.3-1.5,6.7-3,10-4.7c1.7-0.8,3.3-1.7,5-2.7
				c0.8-0.5,1.6-1,2.4-1.5l1.2-0.8l1.1-0.8c1.4-1.1,3-2.2,4.4-3.3c1.5-1.1,3-2.3,4.3-3.7l1.1-1.1L589.5,49.5z"/>
			<path class="st6" d="M424.2,83.8c-0.3-1.5-1-2.8-1.8-4.1s-1.7-2.5-2.7-3.6c-1.9-2.3-4.1-4.5-6.3-6.6l-3.3-3.1l-3.4-3.1l-3.4-3.2
				l-3.4-3.1l-3.5-3l-3.5-3l-7.3-5.7c-5-3.8-10.1-7.4-15.4-10.8l-8-5.2l-1-0.6l-1-0.6l-2-1.3c-0.7-0.4-1.4-0.8-2-1.2l-2-1.2
				c-1.4-0.8-2.8-1.5-4.2-2.3l-4.3-2.2l-4.3-2.1l-4.4-2c-3-1.3-5.9-2.5-8.9-3.7c-3-1.2-6.1-2.3-9.1-3.3c-3.1-1-6.2-1.9-9.4-2.6
				c-2.6-0.6-5.2-1.1-7.8-1.4c0.6,1,1.2,2.1,2,3.1c1.1,1.5,2.2,2.9,3.3,4.4l0.8,1.1c0.3,0.4,0.6,0.7,0.8,1c0.6,0.7,1.2,1.4,1.8,2
				c1.2,1.3,2.5,2.6,3.9,3.8l8.2,7.4c1.4,1.3,2.6,2.6,4,3.9l3.9,3.8c1.3,1.3,2.6,2.5,4,3.7c1.3,1.2,2.7,2.4,4.1,3.5
				c1.4,1.1,2.8,2.2,4.3,3.2c0.7,0.5,1.5,1,2.3,1.4l2.3,1.5c1.5,1,3.1,1.9,4.6,3l2.6,1.8c0.2,0.1,0.4,0.3,0.7,0.4
				c0.9,0.6,1.7,1.2,2.5,1.8l1.9,1.4l1.2,0.8c1.5,1,3,2,4.5,3l-2.6-1.6l-2.6-1.6c-0.9-0.5-1.8-1-2.7-1.5c-0.9-0.5-1.8-1-2.7-1.4
				c-0.9-0.4-1.8-0.9-2.8-1.3c-0.5-0.2-0.9-0.4-1.4-0.6s-0.9-0.3-1.4-0.5s-0.9-0.3-1.4-0.4s-0.9-0.3-1.4-0.4
				c-0.3-0.1-0.6-0.1-0.8-0.2c1.3,2.2,3,4.2,4.9,5.9c2.4,2.3,5.1,4.2,7.9,6.1c2.8,1.8,5.7,3.5,8.6,5.1c2.9,1.6,5.9,3.1,8.9,4.6
				l4.5,2.2l1.1,0.5l1.1,0.5l2.3,0.9c3,1.2,6.2,2.2,9.3,3.2l4.7,1.6l2.3,0.8c0.7,0.3,1.5,0.5,2.3,0.7l2.3,0.8
				c0.8,0.3,1.6,0.6,2.3,0.9c0.8,0.3,1.5,0.7,2.3,1.1c0.4,0.2,0.7,0.5,1,0.7c0.3,0.3,0.6,0.6,0.8,1l-0.1,0.1c0,0.1,0.1,0.2,0,0.4
				l0,0l-0.1,0.4l8.8-2.4c1.4-0.3,3-0.4,3.2-1.1S424.2,83.8,424.2,83.8L424.2,83.8L424.2,83.8z"/>
			<path class="st3" d="M424,81.5c-0.2-0.8-0.5-1.5-0.8-2.2c-0.6-1.4-1.4-2.8-2.2-4.1l-2.7-3.8l-3-3.6l-3.1-3.4l-3.2-3.3l-6.6-6.6
				l-7.1-6.2l-7.5-5.8l-7.7-5.5l-7.9-5.3l-8.1-5.1l-1-0.6l-0.5-0.3l-2.6-1.5l-2.1-1.2l-2.1-1.2l-4.3-2.2l-4.4-2.1l-4.4-2l-4.5-1.9
				l-9.1-3.5l-9.3-3.1l-9.6-2.5c-3.2-0.7-6.5-1.3-9.9-1.5l-1.6-0.1l0.7,1.4c0.8,1.7,1.8,3.3,2.9,4.9l4,5.7l0.9,1.1l1.8,2.2l3.9,4.1
				c2.6,2.7,5.4,5.1,8,7.6l4,3.8l4,3.8c1.4,1.2,2.8,2.5,4.2,3.6c1.4,1.2,2.9,2.3,4.4,3.4c1.5,1.1,3.1,2.1,4.7,3.1
				c0.8,0.5,1.6,0.9,2.4,1.4L345,49c-0.4-0.1-0.8-0.2-1.3-0.2l-1.8-0.3l0.7,1.7c1.4,3.3,3.7,6.2,6.2,8.6c2.5,2.4,5.3,4.6,8.2,6.5
				c2.9,1.9,5.8,3.7,8.8,5.3c3,1.6,6,3.1,9,4.6l4.5,2.2l1.1,0.5l1.2,0.5c0.8,0.3,1.6,0.6,2.4,0.9c3.2,1.2,6.4,2.1,9.5,3l4.7,1.4
				c0.8,0.2,1.5,0.5,2.4,0.8c0.8,0.2,1.6,0.4,2.4,0.6l2.4,0.5c0.8,0.2,1.6,0.4,2.3,0.5c0.8,0.2,1.5,0.4,2.3,0.6
				c0.7,0.3,1.5,0.5,2,1.1l0,0l0.1-0.1c-0.2-0.4-0.5-0.8-0.8-1c-0.3-0.3-0.7-0.5-1-0.7c-0.7-0.4-1.5-0.8-2.3-1.1
				c-0.8-0.3-1.5-0.6-2.3-0.9l-2.3-0.8l-2.3-0.7l-2.3-0.8c-1.6-0.5-3.1-1.1-4.7-1.6c-3.1-1-6.3-2-9.3-3.2l-2.3-0.9l-1.1-0.5
				l-1.1-0.5l-4.5-2.2c-3-1.5-6-3-8.9-4.6c-2.9-1.6-5.8-3.3-8.6-5.1c-2.8-1.9-5.5-3.8-7.9-6.1c-1.9-1.8-3.6-3.8-4.9-5.9
				c0.3,0.1,0.6,0.1,0.8,0.2c0.5,0.1,0.9,0.2,1.4,0.4s0.9,0.3,1.4,0.4l1.4,0.5c0.5,0.2,0.9,0.4,1.4,0.6c0.9,0.4,1.9,0.8,2.8,1.3
				c0.9,0.4,1.8,0.9,2.7,1.4l2.7,1.5l2.6,1.6l2.6,1.6l-4.5-3l-1.2-0.8l-1.9-1.4l-2.5-1.8c-0.2-0.1-0.4-0.3-0.7-0.4l-2.6-1.8
				c-1.5-1-3-2-4.6-3l-2.3-1.5c-0.8-0.5-1.5-0.9-2.3-1.4c-1.5-1-2.9-2.1-4.3-3.2c-1.4-1.1-2.8-2.3-4.1-3.5c-1.3-1.2-2.7-2.4-4-3.7
				l-7.9-7.7c-2.7-2.6-5.5-5-8.2-7.4c-1.3-1.2-2.6-2.5-3.9-3.8c-0.6-0.7-1.2-1.3-1.8-2l-0.8-1l-0.8-1.1l-3.3-4.4c-0.7-1-1.4-2-2-3.1
				c2.6,0.3,5.2,0.8,7.8,1.4c3.1,0.7,6.3,1.6,9.4,2.6c3.1,1,6.1,2.1,9.1,3.3c3,1.2,6,2.4,8.9,3.7c1.5,0.6,2.9,1.3,4.4,2
				c1.5,0.7,2.9,1.4,4.3,2.1L350,22l4.2,2.3l2,1.2c0.7,0.4,1.4,0.8,2,1.2l2,1.3l1,0.6l1,0.6l8,5.2c5.3,3.5,10.4,7.1,15.4,10.8
				c2.5,1.9,4.9,3.8,7.3,5.7l3.5,3c1.2,1,2.3,2,3.5,3l3.4,3.1l3.4,3.2l3.4,3.1l3.3,3.1c2.2,2.1,4.3,4.3,6.3,6.6
				c1,1.2,1.9,2.4,2.7,3.6s1.5,2.6,1.8,4.1l0.1,0l0,0C424.3,83.1,424.2,82.3,424,81.5L424,81.5z"/>
		</g>
	</g>
</g>
</svg>
