<?xml version="1.0" encoding="utf-8"?>
<!-- Generator: Adobe Illustrator 22.0.1, SVG Export Plug-In . SVG Version: 6.00 Build 0)  -->
<svg version="1.1" id="Layer_1" xmlns="http://www.w3.org/2000/svg" xmlns:xlink="http://www.w3.org/1999/xlink" x="0px" y="0px"
	 viewBox="0 0 237 213" style="enable-background:new 0 0 237 213;" xml:space="preserve">
<style type="text/css">
	.st0{fill:#426FE7;}
	.st1{fill:#CD643B;}
	.st2{fill:#664F21;}
</style>
<g transform="translate(0.000000,213.000000) scale(0.100000,-0.100000)">
	<path class="st0" d="M718,2009c-14-6-29-17-32-25s1-65,9-127s15-116,14-122c-1-19-17,31-39,123l-23,93l-24-23c-44-41-82-105-98-164
		c-8-32-19-62-25-68c-5-5-10-32-10-58v-48h44c25,0,48-4,51-10c8-13,437-14,450-1c6,6,30,11,55,13l45,3l-1,43c0,23-6,52-11,65
		c-6,12-19,47-28,77c-18,59-65,131-100,154c-22,14-23,14-29-27c-8-48-48-189-52-184c-2,1,3,45,11,97s15,112,15,133c0,34-4,40-35,53
		C866,2022,759,2024,718,2009z"/>
	<path class="st1" d="M1557,1864c-4-4-7-47-7-96c0-66,3-88,13-88c29,0,46,26,49,75l3,50h180h180l3-107l3-108h30h30l-3,138l-3,137
		l-236,3C1670,1869,1561,1867,1557,1864z"/>
	<path class="st1" d="M1548,1630c-54-28-98-52-98-55s14-34,32-69c27-56,34-63,50-55s18,5,18-23s11-44,63-96l63-62h77h77v30
		c0,29,0,29-67,32l-68,3l-3,37c-3,35-5,37-40,40s-37,5-40,40c-3,37-2,38,53,65c45,22,61,38,89,85l34,57l-26,5
		C1661,1684,1649,1682,1548,1630z M1719,1632c6-12,5-25-4-42l-13-24l-21,42l-21,42h24C1698,1650,1714,1642,1719,1632z"/>
	<path class="st1" d="M1393,1558c-28-13-28-30-4-83c25-56,45-71,76-57l25,12l-35,70c-19,38-36,70-38,69
		C1416,1569,1405,1564,1393,1558z"/>
	<path class="st1" d="M1857,1564c-4-4-7-99-7-211v-203h195h195l-2,208l-3,207l-186,3C1947,1569,1861,1567,1857,1564z M2190,1480v-40
		h-145h-145v40v40h145h145V1480z M1980,1375c0-22-4-25-40-25s-40,3-40,25c0,23,4,25,40,25S1980,1398,1980,1375z M2080,1375
		c0-22-4-25-35-25s-35,3-35,25s4,25,35,25S2080,1397,2080,1375z M2190,1375c0-22-4-25-40-25s-40,3-40,25c0,23,4,25,40,25
		S2190,1398,2190,1375z M1980,1260v-60h-40h-40v60v60h40h40V1260z M2080,1295c0-22-4-25-35-25s-35,3-35,25s4,25,35,25
		S2080,1317,2080,1295z M2188,1298c-2-19-9-23-38-23s-36,4-38,23c-3,20,1,22,38,22S2191,1318,2188,1298z M2080,1220c0-16-7-20-35-20
		s-35,4-35,20s7,20,35,20S2080,1236,2080,1220z M2190,1220c0-17-7-20-40-20s-40,3-40,20s7,20,40,20S2190,1237,2190,1220z"/>
	<path class="st0" d="M534,1518c4-23,13-54,20-68c8-14,25-48,39-77c29-58,97-138,138-159c16-8,55-14,87-14c50,0,66,5,100,30
		c50,36,95,95,118,156c9,24,20,44,25,44c7,0,16,26,33,103c5,22,3,27-13,27c-11,0-23-4-26-10c-4-6-97-10-245-10s-241,4-245,10
		c-3,6-13,10-22,10C530,1560,529,1552,534,1518z"/>
	<path class="st0" d="M555,1166c-16-7-84-34-150-60c-66-25-130-54-142-64c-20-15-30-55-78-307c-47-245-54-296-45-326
		c7-25,34-59,85-108l76-72l97,3l97,3l3,92l3,92l-59,30c-41,20-61,37-65,53c-3,13-9,82-12,154c-7,130-7,131,16,148
		c21,14,69,16,432,16h408l25-25c23-23,25-32,20-73c-3-26-8-91-12-146l-6-98l-47-20c-76-34-81-41-81-128c0-46,5-81,12-88s45-12,99-12
		h87l60,51c75,64,112,115,112,157c0,18-23,155-51,305c-42,221-55,276-73,294c-17,18-229,108-322,137c-19,6-28-9-90-146l-69-153
		l-7,45c-7,46-10,179-6,215c3,18-4,20-61,23l-64,3l6-46c8-52-2-225-13-225c-3,0-35,64-71,142c-35,78-68,142-74,144
		C590,1177,572,1173,555,1166z"/>
	<path class="st2" d="M414,684c3-43,6-100,6-128v-51l58-30l57-30l3-107l3-108h269h270v94c0,52,3,102,6,111c4,9,30,27,59,40l52,23
		l7,73c3,41,7,99,8,129l2,55l-403,3l-404,2L414,684z"/>
</g>
</svg>
