<?xml version="1.0" encoding="utf-8"?>
<!-- Generator: Adobe Illustrator 22.0.1, SVG Export Plug-In . SVG Version: 6.00 Build 0)  -->
<svg version="1.1" id="Layer_1" xmlns="http://www.w3.org/2000/svg" xmlns:xlink="http://www.w3.org/1999/xlink" x="0px" y="0px"
	 viewBox="0 0 700 700" style="enable-background:new 0 0 700 700;" xml:space="preserve">
<style type="text/css">
	.st0{fill:#9A0003;}
	.st1{fill:#426FE7;}
	.st2{fill:#C299BC;}
</style>
<g transform="translate(0.000000,700.000000) scale(0.100000,-0.100000)">
	<path class="st0" d="M463,6020c-149-17-281-131-329-285c-18-58-19-129-19-1990c0-1867,1-1932,19-1990c23-72,75-155,124-195
		c19-16,65-44,101-62l66-33l1281-3c1115-2,1282-1,1293,12c10,12,4,26-34,78c-25,35-51,74-58,88c-30,60-160,246-180,257
		c-17,9-227,12-903,13c-671,0-883,3-892,12c-16,16-18,3623-2,3633c13,8,5418,7,5431-1c15-9,12-3617-3-3632c-8-8-64-12-184-12
		c-208,0-207,0-188-87c17-73,32-131,55-212c11-35,19-75,19-88s10-33,21-44c21-21,27-21,263-17l241,5l68,31c93,43,156,106,203,200
		l39,77l3,1905c1,1133-1,1935-7,1980c-11,90-26,133-70,197c-60,87-157,148-261,163C6485,6031,560,6031,463,6020z M589,3968
		c62-35,84-77,79-146c-5-68-25-100-84-133c-99-53-224,28-224,145c1,73,84,155,158,156C536,3990,568,3980,589,3968z"/>
	<path class="st1" d="M1820,5321c-65-7-127-26-208-64c-57-26-193-126-214-158c-9-13-24-33-34-44c-40-43-73-103-117-207
		c-29-68-42-224-28-334c7-53,19-111,26-128s19-46,26-65c16-42,91-155,132-199c128-136,336-225,522-225c103,0,246,34,315,74
		c8,5,26,14,38,19c32,14,130,90,168,132c145,155,213,370,185,586c-13,99-20,119-79,242c-48,100-184,238-287,291
		C2129,5311,1977,5338,1820,5321z M2209,4845c22-24,41-50,41-57c0-22-403-418-425-418c-25,0-245,218-245,242c0,22,67,98,87,98
		c8,0,43-27,77-60c35-33,71-60,82-60s79,60,169,150c82,83,155,150,161,150S2186,4870,2209,4845z"/>
	<path class="st2" d="M2808,4246c-132-64-198-165-198-301c0-57,18-135,36-156c8-8,14-19,14-22c0-4,16-30,35-57s35-52,35-55
		c0-2,17-30,39-62c35-53,59-91,168-263c20-30,44-67,54-82c11-15,19-30,19-33s16-28,35-55s35-52,35-55s16-28,35-55s35-52,35-55
		c0-2,17-30,39-62c123-184,126-191,105-222c-8-11-19-21-24-21c-19,0-134-86-171-129c-63-71-82-122-83-221c0-94,10-122,84-235
		c22-33,43-67,47-75s22-36,40-62s33-50,33-53c0-6,108-165,137-200c50-61,187-195,227-222c23-15,57-39,76-54c65-49,264-143,370-174
		c25-8,59-18,75-24c17-6,66-22,110-35c225-71,246-83,321-197c57-88,69-99,109-99c44,0,74,27,81,72c5,29,0,47-24,90
		c-76,132-177,223-277,249c-22,6-52,17-67,25c-14,8-32,14-40,14c-17,0-142,38-186,56c-18,8-40,14-50,14c-9,1-35,9-57,20
		s-45,19-51,20c-12,0-124,57-184,93c-94,56-209,157-286,252c-41,50-114,152-114,158c0,2-39,62-86,132c-103,156-124,195-124,236
		c0,52,37,115,85,148c24,16,56,39,72,50c15,11,40,23,54,26c23,6,30,0,64-52c21-32,55-84,76-116c22-32,39-60,39-62c0-3,16-28,35-55
		s35-52,35-55c0-2,19-32,41-65c41-59,43-60,89-60c33,0,52,6,63,18c23,25,22,96-1,130c-35,52-149,227-188,290c-21,35-63,99-91,144
		c-29,44-53,82-53,84s-16,27-35,54s-35,52-35,55s-16,28-35,55s-35,52-35,55s-16,28-35,55s-35,52-35,55s-16,28-35,55s-35,52-35,55
		s-16,28-35,55s-35,52-35,55c0,2-17,30-39,62c-70,105-101,154-101,159c0,2-16,27-35,54s-35,52-35,54c0,5-31,54-101,159
		c-73,108-74,189-5,256c30,29,45,35,91,39c82,7,122-23,200-150c47-76,82-132,115-183c21-33,53-82,70-110c17-27,49-77,70-110
		s54-84,72-114c18-29,40-64,48-76c8-13,28-45,44-72c16-26,45-69,63-95s33-50,33-52s47-75,105-162c58-86,105-160,105-163
		c1-14,51-62,75-71c50-19,105,25,105,85c0,30-15,56-172,293c-26,41-48,75-48,77s-16,27-35,56c-21,32-35,66-35,84
		c0,71,80,142,151,132c50-7,69-24,128-113c25-39,89-136,141-217c94-144,117-167,166-167c30,0,84,50,84,77c-1,22-56,118-160,278
		c-21,33-51,83-66,111c-36,68-28,110,28,165c48,46,83,50,142,16c40-22,67-60,191-265c6-10,31-48,56-87c25-38,51-80,57-92
		c25-46,122-41,147,7s25,47-96,240c-100,158-108,188-64,252c28,41,69,55,128,44c32-6,86-53,101-86c3-8,24-42,46-75
		c21-33,53-82,70-110c17-27,48-77,70-110c210-324,316-594,380-970c7-38,15-225,19-415c9-383,14-415,73-446c31-16,82-11,95,9
		c4,7,7,149,5,317c-4,507-35,709-168,1082c-26,72-105,238-149,313c-13,22-29,49-34,60c-13,24-25,43-68,107c-18,26-33,50-33,53
		s-9,18-19,33c-26,36-115,174-121,187c-21,43-88,130-118,152c-73,55-96,63-180,63c-97,0-149-21-219-85c-51-47-62-52-80-34
		c-17,17-112,49-144,49c-33,0-128-33-165-57c-37-23-102-93-110-117c-5-16-12-17-48-10c-54,11-163,9-178-3c-7-6-24-14-38-18
		s-51-28-83-53c-31-25-59-43-60-41c-8,10-86,129-118,179c-19,30-58,90-87,133s-52,80-52,83c0,2-15,26-33,52s-54,81-80,124
		c-85,137-169,188-309,188C2872,4269,2845,4265,2808,4246z"/>
</g>
</svg>
