<?xml version="1.0" encoding="utf-8"?>
<!-- Generator: Adobe Illustrator 22.0.1, SVG Export Plug-In . SVG Version: 6.00 Build 0)  -->
<svg version="1.1" id="Layer_1" xmlns="http://www.w3.org/2000/svg" xmlns:xlink="http://www.w3.org/1999/xlink" x="0px" y="0px"
	 viewBox="0 0 226 223" style="enable-background:new 0 0 226 223;" xml:space="preserve">
<style type="text/css">
	.st0{fill:#7F660D;}
</style>
<g transform="translate(0.000000,223.000000) scale(0.100000,-0.100000)">
	<path class="st0" d="M958,2110c-363-66-664-340-769-701c-27-95-38-328-19-433c87-485,519-829,1008-803c137,7,251,36,370,92
		c499,237,701,829,452,1325c-121,240-335,418-597,496c-75,22-111,27-243,30C1075,2117,984,2115,958,2110z M1362,1860
		c413-138,626-589,467-987l-21-53h-159c-102,0-160-4-165-11c-3-6-33-31-66-55l-60-44h186c139,0,186-3,186-12c0-23-144-154-215-196
		c-115-68-210-95-352-100c-190-7-325,33-479,143c-58,42-154,140-154,157c0,5,150,8,333,8c360,0,394,4,483,56c59,35,141,125,169,186
		c97,214,9,461-202,565c-65,32-86,37-161,41c-67,3-101-1-148-16c-65-20-168-83-187-114c-17-26-42-22-71,13c-56,66-9,159,80,159
		c24,0,24,0,9-31c-9-17-15-33-12-35c3-3,95,25,164,51c8,3,3,31-19,96l-31,92l-17-33c-17-33-17-33-98-34c-72-1-85-4-123-31
		c-55-39-88-103-89-173c0-79,32-139,98-182c24-15,24-15,8-77c-20-74-20-130-2-206l14-59l-35-15c-19-8-34-16-32-18
		c11-9,170-67,175-63c3,3,20,44,39,91l33,86l-35-17c-40-19-48-13-57,52c-19,126,54,259,177,323c70,36,188,39,258,7
		c245-113,253-445,14-572l-50-27l-381-3l-381-3l-21,56c-58,150-66,337-22,480c73,233,248,420,472,501C1027,1909,1211,1910,1362,1860
		z"/>
	<g>
		<path d="M1096,1238c-9-29-27-88-40-130l-24-78h24c19,0,26,6,31,30c5,27,9,30,45,30c35,0,39-3,45-30c4-23,11-30,29-30
			c13,0,24,3,24,8c0,4-17,61-38,127c-32,100-41,121-59,123C1115,1291,1109,1283,1096,1238z M1154,1153c7-31,6-33-19-33
			c-27,0-27,1-21,42C1126,1236,1137,1233,1154,1153z"/>
		<g>
			<path class="st0" d="M1096,1238c-9-29-27-88-40-130l-24-78h24c19,0,26,6,31,30c5,27,9,30,45,30c35,0,39-3,45-30c4-23,11-30,29-30
				c13,0,24,3,24,8c0,4-17,61-38,127c-32,100-41,121-59,123C1115,1291,1109,1283,1096,1238z M1154,1153c7-31,6-33-19-33
				c-27,0-27,1-21,42C1126,1236,1137,1233,1154,1153z"/>
		</g>
	</g>
</g>
</svg>
