<?xml version="1.0" encoding="utf-8"?>
<!-- Generator: Adobe Illustrator 22.1.0, SVG Export Plug-In . SVG Version: 6.00 Build 0)  -->
<svg version="1.1" id="Layer_1" xmlns="http://www.w3.org/2000/svg" xmlns:xlink="http://www.w3.org/1999/xlink" x="0px" y="0px"
	 viewBox="0 0 728 413" style="enable-background:new 0 0 728 413;" xml:space="preserve">
<style type="text/css">
	.st0{fill:#A46B3F;}
	.st1{fill:#D6DF24;}
	.st2{fill:#138EE2;}
	.st3{fill:#FFFFFF;}
	.st4{font-family:'Arial-Black';}
	.st5{font-size:36px;}
	.st6{font-size:35.9988px;}
	.st7{font-size:24px;}
</style>
<g transform="translate(0.000000,413.000000) scale(0.100000,-0.100000)">
	<path class="st0" d="M1481.3,3624.7c-511.8-79-973-373-1251.3-796c-122-186-211.7-442-223.2-641l-6.9-101l50.6-17
		c27.6-9,150.7-47,272.6-84l222-69l157.6,49c86.3,27,204.7,63,261.1,80c57.5,17,110.4,35,118.5,41c6.9,5,13.8,24,13.8,43
		c0,18,12.7,68,28.8,111c70.2,194,238.1,352,448.5,424c57.5,19,90.9,23,201.3,24H1907l-16.1,241l-16.1,242l174.8,208
		c155.3,186,171.4,209,150.7,216c-12.7,4-77.1,16-143.8,28C1899.9,3649.7,1648,3649.7,1481.3,3624.7z"/>
	<path class="st1" d="M5242.2,3627.7c-50.6-7-113.9-19-140.3-25l-49.5-12l39.1-46c20.7-25,100.1-120,176-211l138-166l-9.2-109
		c-4.6-61-11.5-168-16.1-240l-8.1-130H5509c120.8-1,143.8-3,208.2-27c236.9-88,427.8-297,457.7-501c4.6-29,11.5-58,16.1-66
		c4.6-7,127.7-50,273.7-96l265.7-82l251.9,78c307.1,94,302.5,92,295.6,127c-2.3,15-8.1,63-11.5,107c-15,193-130,488-256.5,659
		c-195.5,264-453.1,471-745.3,599c-167.9,74-307.1,113-494.6,142C5645.8,3647.7,5368.7,3646.7,5242.2,3627.7z"/>
	<path class="st2" d="M2090.8,3368.7l-178.3-213l17.3-224c9.2-122,17.3-232,17.3-243c0-16,16.1-25,73.6-43
		c200.1-62,448.5-218,720-449l155.3-132l-97.8-83c-302.5-258-580.8-434-778.6-494c-33.4-10-61-22-61-26s63.3-78,141.5-164
		c77.1-86,154.1-172,171.4-192l31.1-37l-18.4-253c-10.4-139-15-255-11.5-258c8.1-7,243.8,77,370.3,133c268,119,576.2,321,871.8,572
		c62.1,53,115,98,118.5,100c2.3,2,42.6-27,87.4-64c207-170,250.7-205,337-266c309.4-220,562.4-353,843-443l105.8-34l-1.1,67
		c0,36-6.9,151-13.8,256l-13.8,190l39.1,45c21.9,25,97.8,110,169.1,190s131.1,149,131.1,154c1.2,5-29.9,20-69,33
		c-190.9,67-439.3,220-675.1,415c-217.4,181-210.5,145-51.8,279c169.1,144,324.3,256,455.4,331c100.1,57,266.8,132,320.9,143
		c32.2,7,32.2,8,55.2,317c12.7,177,12.7,177-13.8,210c-128.8,162-327.8,388-340.4,388c-25.3,0-220.8-70-337-120
		c-288.7-126-552.1-296-864.9-557c-79.4-68-149.5-123-155.3-123c-4.6,0-61,44-124.2,96c-406,339-772.9,557-1142.1,677l-105.8,35
		L2090.8,3368.7z"/>
	<path d="M7256,2740.7c3.5-10,10.4-15,13.8-12c3.5,3,0,11-8.1,18C7250.3,2755.7,7249.1,2754.7,7256,2740.7z"/>
	<path class="st0" d="M6.8,1942.7c33.4-469,371.5-955,844.2-1214c261.1-143,492.3-212,789-235c127.7-10,176-10,307.1,4
		c85.1,8,181.7,22,215.1,31c58.7,15,58.7,16,65.6,63c3.5,26,12.7,142,19.6,259l13.8,212l-176,196l-176,195l-41.4-7
		c-115-20-250.7,0-374.9,55c-111.6,50-261.1,181-315.1,277c-41.4,74-81.7,190-81.7,237c0,15-4.6,28-11.5,28
		c-5.8,0-128.8-37-272.6-81l-262.2-82l-97.8,29c-54.1,15-164.5,49-247.3,75c-81.7,26-162.2,50-177.1,54l-27.7,7L6.8,1942.7z"/>
	<path class="st1" d="M6179.5,2002.7c0-56-49.5-181-103.5-260c-89.7-132-277.2-256-437-289c-65.6-14-177.1-17-235.8-6
		c-36.8,6-28.8,15-319.7-315l-66.7-76l18.4-254c9.2-139,21.9-256,26.5-259c10.4-8,98.9-26,196.7-40c116.2-18,392.2-16,521,3
		c317.4,47,630.3,181,885.6,380c61,48,116.2,93,120.8,101c4.6,7,32.2,36,59.8,62c70.2,67,185.2,223,248.4,334
		c88.6,154,155.3,354,172.5,510c3.5,36,9.2,84,12.7,108c2.3,23,0,42-5.8,42s-119.6-33-251.9-74s-253-78-268-81
		c-19.6-4-110.4,19-289.8,74c-143.8,45-266.8,81-272.6,81C6184.1,2043.7,6179.5,2025.7,6179.5,2002.7z"/>
</g>
<text transform="matrix(0.652 -0.7163 0.8238 0.5669 67.2624 184.0416)" class="st3 st4 st5">PLAN</text>
<text transform="matrix(0.9681 0.413 -0.4915 0.8709 70.1599 284.2139)" class="st3 st4 st5">BUILD</text>
<text transform="matrix(0.5975 0.8393 -0.8806 0.4739 582.8683 81.0121)" class="st0 st4 st5">DEPLOY</text>
<text transform="matrix(0.8442 -0.5905 0.6791 0.734 554.6805 354.2744)" class="st0 st4 st6">OPERATE</text>
<text transform="matrix(0.7885 -0.615 0.615 0.7885 280.9771 286.3828)" class="st3 st4 st5">CONTINUOUS</text>
<g>
	<text transform="matrix(0.7356 0.6053 -0.6354 0.7722 212.4672 87.835)" class="st3 st4 st7">INTEGRATION</text>
</g>
<text transform="matrix(0.7801 0.6257 -0.6257 0.7801 381.2195 232.3139)" class="st3 st4 st7">FEEDBACK</text>
</svg>
