<svg id="Слой_1" data-name="Слой 1" xmlns="http://www.w3.org/2000/svg" viewBox="0 0 108.411 73.5319"><defs><style>.cls-1{fill:#b8becb;}.cls-2{fill:#4d5460;}.cls-3{fill:#f9f9fc;}.cls-4{fill:#dc8199;}.cls-5{fill:#fff;}.cls-6{fill:#434a60;}.cls-7{fill:#8082be;}.cls-8{fill:#65c08d;}.cls-9{fill:#face75;}.cls-10{fill:#7ec6ee;}</style></defs><title>road-map</title><path class="cls-1" d="M65.6324,51.7808a8.2669,8.2669,0,0,1-8.2575-8.2575V31.98a.58.58,0,0,0-1.16,0V42.7153a8.9408,8.9408,0,0,1-17.8816,0v-6.13a2.6261,2.6261,0,0,0-2.6231-2.623H12.3226l-3.168-6.0156L35.71,26.7931a9.8036,9.8036,0,0,1,9.7924,9.7924v6.13a1.7715,1.7715,0,0,0,3.543,0V31.98a7.75,7.75,0,0,1,15.4992,0V43.5233a1.0882,1.0882,0,0,0,2.1763,0v-6.141A10.844,10.844,0,0,1,77.5524,26.5505L98.5386,36.947l-4.3135,5.3755L77.5524,33.72A3.6667,3.6667,0,0,0,73.89,37.3823v6.141A8.2669,8.2669,0,0,1,65.6324,51.7808Z"/><path class="cls-2" d="M65.6324,50.9406a7.4257,7.4257,0,0,1-7.4173-7.4173V31.98a1.42,1.42,0,1,0-2.8408,0V42.7153a8.1007,8.1007,0,1,1-16.2014,0v-6.13A3.4671,3.4671,0,0,0,35.71,33.1223H12.3226L10.0819,28.591,35.71,27.6333a8.9623,8.9623,0,0,1,8.9522,8.9522v6.13a2.6117,2.6117,0,1,0,5.2233,0V31.98a6.9095,6.9095,0,0,1,13.8189,0V43.5233a1.9283,1.9283,0,1,0,3.8566,0v-6.141a10.0031,10.0031,0,0,1,9.9917-9.9917L97.78,38.0044l-2.774,3.3446L77.5524,32.88A4.5076,4.5076,0,0,0,73.05,37.3823v6.141A7.4257,7.4257,0,0,1,65.6324,50.9406Z"/><rect class="cls-3" x="32.0514" y="30.2097" width="0.6721" height="0.3361"/><path class="cls-3" d="M66.1659,48.3351l-.0365-.3341a4.4746,4.4746,0,0,0,1.2438-.3215l.13.31A4.8059,4.8059,0,0,1,66.1659,48.3351Zm-1.38-.0447a4.8125,4.8125,0,0,1-1.3115-.4326l.15-.3008a4.4716,4.4716,0,0,0,1.22.4023Zm-18.0594-.0776a5.5052,5.5052,0,0,1-1.3417-.3047l.1149-.3157a5.1659,5.1659,0,0,0,1.26.2859Zm1.375-.035-.05-.3323a5.1579,5.1579,0,0,0,1.2438-.3509l.1311.3094A5.49,5.49,0,0,1,48.1019,48.1778Zm-3.94-.8977a5.5525,5.5525,0,0,1-1.031-.9107l.252-.2223a5.223,5.223,0,0,0,.9686.8556Zm24.5258-.0015-.2122-.2606a4.5305,4.5305,0,0,0,.8715-.945l.2768.1906A4.8606,4.8606,0,0,1,68.6874,47.2786Zm-18.07-.1653-.2036-.2674a5.221,5.221,0,0,0,.9235-.9042l.2631.2091A5.5594,5.5594,0,0,1,50.6169,47.1133ZM62.34,47.0718a4.8586,4.8586,0,0,1-.8685-1.0737l.2888-.172a4.5169,4.5169,0,0,0,.8083.9994ZM42.3551,45.2329a5.494,5.494,0,0,1-.47-1.2939l.3278-.0742a5.1568,5.1568,0,0,0,.4409,1.2147Zm27.88-.2072-.3194-.1042a4.4975,4.4975,0,0,0,.2192-1.2659l.3359.01A4.8283,4.8283,0,0,1,70.2354,45.0257Zm-17.92-.05-.3065-.1376a5.1587,5.1587,0,0,0,.3772-1.2354l.3311.0571A5.4842,5.4842,0,0,1,52.3155,44.976Zm8.6259-.2533a4.86,4.86,0,0,1-.15-1.1994v-.1675h.3361v.1675A4.5237,4.5237,0,0,0,61.267,44.64ZM42.0855,42.5742h-.3361V41.2364h.3361Zm28.3878-.2517h-.3361V40.9847h.3361Zm-17.6755-.0242h-.3361V40.9605h.3361Zm8.33-.28h-.3361V40.68h.3361ZM42.0855,39.8986h-.3361V38.5607h.3361Zm28.3878-.2517h-.3361V38.3091h.3361Zm-17.6755-.0243h-.3361V38.2848h.3361Zm8.33-.28h-.3361V38.0044h.3361ZM42.0855,37.2229h-.3361v-.6374a6.1522,6.1522,0,0,0-.0379-.68l.334-.0374a6.51,6.51,0,0,1,.04.7174Zm28.399-.2419-.3356-.0188a7.4382,7.4382,0,0,1,.2013-1.3514l.3264.08A7.1055,7.1055,0,0,0,70.4845,36.981Zm-17.6867-.034h-.3361V35.6092h.3361Zm8.33-.28h-.3361V35.3288h.3361Zm-19.699-2.0284a6.0157,6.0157,0,0,0-.549-1.1769l.2875-.174a6.349,6.349,0,0,1,.58,1.2426Zm29.6751-.18-.3061-.139a7.4348,7.4348,0,0,1,.6778-1.1869l.2753.1929A7.0738,7.0738,0,0,0,71.1037,34.458Zm-18.3059-.1867h-.3361V32.9335h.3361Zm8.33-.28h-.3361V32.6531h.3361Zm-21.036-1.562a6.0832,6.0832,0,0,0-.99-.8415l.1891-.2778a6.4149,6.4149,0,0,1,1.0445.8879ZM72.5943,32.33l-.2354-.24a7.4629,7.4629,0,0,1,1.0591-.8637l.1875.2788A7.1263,7.1263,0,0,0,72.5943,32.33Zm-19.78-.7177-.3347-.0306a4.3077,4.3077,0,0,1,.3458-1.342l.3078.1351A3.9674,3.9674,0,0,0,52.8145,31.6118Zm7.9268-.2671a3.964,3.964,0,0,0-.4017-1.2128l.2978-.1555a4.3,4.3,0,0,1,.4358,1.3154Zm-22.786-.3676a6.0041,6.0041,0,0,0-1.2507-.35l.0549-.3316a6.3478,6.3478,0,0,1,1.3209.3694Zm36.795-.0977-.1332-.3086a7.3941,7.3941,0,0,1,1.3-.4226l.0739.3278A7.0413,7.0413,0,0,0,74.75,30.8794Zm-39.3511-.3336H34.0613V30.21h1.3379Zm41.885-.2376-.0124-.3358q.14-.0052.2806-.0052h1.0634v.336H77.5524Q77.4177,30.3032,77.2842,30.3082ZM53.8281,29.3013l-.2493-.2253a4.34,4.34,0,0,1,1.08-.867l.1658.2923A4.0083,4.0083,0,0,0,53.8281,29.3013Zm5.7464-.1931a3.9985,3.9985,0,0,0-1.0482-.7315l.1457-.3028a4.3308,4.3308,0,0,1,1.1362.7929Zm-3.5514-1.0507-.0645-.33a4.3989,4.3989,0,0,1,1.3844-.0463l-.0423.3334A4.0633,4.0633,0,0,0,56.0231,28.0575Z"/><rect class="cls-3" x="79.9946" y="29.9672" width="0.6721" height="0.3361"/><rect class="cls-3" x="29.664" y="30.2097" width="0.6721" height="0.3361"/><rect class="cls-3" x="27.058" y="30.2097" width="0.6721" height="0.3361"/><rect class="cls-3" x="24.8368" y="30.2097" width="0.6721" height="0.3361"/><rect class="cls-3" x="22.2308" y="30.2097" width="0.6721" height="0.3361"/><rect class="cls-3" x="19.6247" y="30.2097" width="0.6721" height="0.3361"/><rect class="cls-3" x="16.8226" y="30.2097" width="0.6721" height="0.3361"/><rect class="cls-3" x="14.3603" y="30.2097" width="0.6721" height="0.3361"/><rect class="cls-3" x="12.0341" y="30.2097" width="0.6721" height="0.3361"/><path class="cls-4" d="M37.6057,27.2562a8.0149,8.0149,0,0,1-1.111,2.3033,8.0149,8.0149,0,0,1-1.111-2.3033,1.111,1.111,0,1,1,2.222,0Z"/><circle class="cls-5" cx="36.4947" cy="27.2073" r="0.7397"/><path class="cls-6" d="M36.4643,27.1291c0,.1919-.0713.2983-.1968.2983-.11,0-.1851-.1035-.187-.29,0-.19.082-.294.1967-.294C36.3964,26.8429,36.4643,26.9489,36.4643,27.1291Zm-.3072.0083c0,.1469.0449.23.1148.23.0781,0,.1157-.0913.1157-.2353,0-.1392-.0357-.23-.1148-.23C36.206,26.902,36.1571,26.9836,36.1571,27.1374Z"/><path class="cls-6" d="M36.6991,26.9235h-.0015l-.0981.0532-.0151-.0581.1235-.0664h.0654v.5654h-.0742Z"/><path class="cls-7" d="M45.7084,43.9905a7.5082,7.5082,0,0,1-1.0406,2.1573,7.5085,7.5085,0,0,1-1.0405-2.1573,1.0406,1.0406,0,1,1,2.0811,0Z"/><circle class="cls-5" cx="44.6678" cy="43.9446" r="0.6928"/><path class="cls-6" d="M44.6371,43.8727c0,.1787-.0664.2774-.1826.2774-.103,0-.1724-.0957-.1738-.27,0-.1767.0756-.2734.1826-.2734C44.5741,43.6071,44.6371,43.7057,44.6371,43.8727Zm-.2856.0078c0,.1367.042.2149.1069.2149.0727,0,.1074-.085.1074-.22,0-.1289-.0332-.2138-.1064-.2138C44.3969,43.6618,44.3515,43.7379,44.3515,43.8805Z"/><path class="cls-6" d="M44.7045,44.1413v-.044l.0556-.0537c.1343-.1279.1949-.1963.1959-.2754a.094.094,0,0,0-.1045-.1025.1786.1786,0,0,0-.1119.0449l-.0224-.0508a.2343.2343,0,0,1,.1489-.0527.1473.1473,0,0,1,.1607.1523c0,.0977-.07.1758-.1812.2823l-.042.039v.002H45.04v.0586Z"/><path class="cls-8" d="M57.5622,25.0982a6.261,6.261,0,0,1-.8678,1.7992,6.261,6.261,0,0,1-.8678-1.7992.8678.8678,0,1,1,1.7356,0Z"/><circle class="cls-5" cx="56.6944" cy="25.06" r="0.5778"/><path class="cls-6" d="M56.6669,25.0026c0,.1479-.0547.23-.1514.23-.0859,0-.1435-.08-.1445-.2241,0-.1465.0625-.2271.1514-.2271C56.6142,24.7814,56.6669,24.8634,56.6669,25.0026Zm-.2373.0063c0,.1138.0351.1783.0889.1783.06,0,.0888-.0708.0888-.1822,0-.1074-.0273-.1777-.0879-.1777C56.4677,24.8273,56.43,24.89,56.43,25.0089Z"/><path class="cls-6" d="M56.7382,25.1574a.2.2,0,0,0,.0967.0278c.0761,0,.1-.0488.0986-.0849,0-.0611-.0557-.087-.1123-.087H56.788v-.0444h.0332c.043,0,.0976-.0225.0976-.0737,0-.0352-.0224-.0659-.0771-.0659a.1551.1551,0,0,0-.0869.0288l-.0156-.043a.2083.2083,0,0,1,.1142-.0337c.0859,0,.125.0513.125.104a.1092.1092,0,0,1-.081.103v.001a.1142.1142,0,0,1,.0976.1123c0,.07-.0547.1309-.1592.1309a.2213.2213,0,0,1-.1132-.0293Z"/><path class="cls-9" d="M68.7285,45.5063a7.6187,7.6187,0,0,1-1.0561,2.1895,7.6187,7.6187,0,0,1-1.0561-2.1895,1.0561,1.0561,0,1,1,2.1122,0Z"/><circle class="cls-5" cx="67.6724" cy="45.4598" r="0.7031"/><path class="cls-6" d="M67.6415,45.3874c0,.1816-.0674.2822-.1855.2822-.1045,0-.1758-.0977-.1778-.2754,0-.1787.0781-.2783.1865-.2783C67.578,45.1159,67.6415,45.2165,67.6415,45.3874Zm-.29.0078c0,.14.0429.2187.1084.2187.0742,0,.1093-.0869.1093-.2236,0-.1318-.0332-.2178-.1084-.2178C67.3974,45.1725,67.3515,45.25,67.3515,45.3952Z"/><path class="cls-6" d="M67.9325,45.6608v-.1455h-.248v-.0479l.2382-.3418h.0791v.3321h.0743v.0576h-.0743v.1455Zm0-.2031V45.279c0-.0274.001-.0557.0029-.084h-.0029c-.0156.0312-.0293.0547-.0439.0791l-.1309.1826v.001Z"/><path class="cls-10" d="M77.5023,27.6228A7.8808,7.8808,0,0,1,76.41,29.8875a7.881,7.881,0,0,1-1.0923-2.2647,1.0924,1.0924,0,0,1,2.1847,0Z"/><circle class="cls-5" cx="76.4099" cy="27.5747" r="0.7272"/><path class="cls-6" d="M76.38,27.4982c0,.189-.0694.293-.1924.293-.1094,0-.1826-.1016-.1836-.2852,0-.1865.08-.289.1924-.289C76.3134,27.217,76.38,27.3214,76.38,27.4982Zm-.3018.0083c0,.1445.0449.2266.1133.2266.0772,0,.1133-.09.1133-.2315,0-.1367-.0352-.2265-.1123-.2265C76.1268,27.2751,76.078,27.3556,76.078,27.5065Z"/><path class="cls-6" d="M76.78,27.29h-.2119l-.0215.1426a.3193.3193,0,0,1,.0449-.0034.2349.2349,0,0,1,.12.03.1576.1576,0,0,1,.0791.143.1924.1924,0,0,1-.207.1895.2686.2686,0,0,1-.1377-.0342l.0185-.0571a.2517.2517,0,0,0,.1192.0307.1224.1224,0,0,0,.1308-.1206c0-.0718-.0488-.123-.1591-.123a.6025.6025,0,0,0-.0772.0058l.0361-.2666H76.78Z"/></svg>