<svg id="Слой_1" data-name="Слой 1" xmlns="http://www.w3.org/2000/svg" xmlns:xlink="http://www.w3.org/1999/xlink" viewBox="0 0 108.411 73.5319"><defs><style>.cls-1{fill:#ffd670;}.cls-2{fill:url(#linear-gradient);}.cls-3{fill:url(#linear-gradient-2);}.cls-4{fill:#e0e0e0;}.cls-5{fill:#1487e3;}.cls-6{fill:#78c2ff;}.cls-7{fill:#ff8761;}.cls-8{fill:#323657;}.cls-9{fill:url(#linear-gradient-3);}.cls-10{fill:url(#linear-gradient-4);}.cls-11{fill:url(#linear-gradient-5);}.cls-12{fill:#ffd770;}.cls-13{fill:#fff;}.cls-14{fill:#609ae8;}.cls-15{fill:#9cc7ff;}.cls-16{fill:#d7d7e6;}</style><linearGradient id="linear-gradient" x1="19.4979" y1="36.4203" x2="78.8037" y2="36.4203" gradientUnits="userSpaceOnUse"><stop offset="0" stop-color="#ffae70"/><stop offset="1" stop-color="#ffd970"/></linearGradient><linearGradient id="linear-gradient-2" x1="10.5659" y1="62.974" x2="49.1505" y2="62.974" xlink:href="#linear-gradient"/><linearGradient id="linear-gradient-3" x1="61.1916" y1="19.6408" x2="62.7506" y2="19.6408" xlink:href="#linear-gradient"/><linearGradient id="linear-gradient-4" x1="60.6331" y1="19.6408" x2="61.2828" y2="19.6408" xlink:href="#linear-gradient"/><linearGradient id="linear-gradient-5" x1="56.7141" y1="18.9264" x2="61.7077" y2="18.9264" xlink:href="#linear-gradient"/></defs><title>scrum</title><path class="cls-1" d="M83.4881,2.69,78,6.0177l4.6091,4.4706.27-2.3922a9.3442,9.3442,0,1,1-10.3142,8.2366l-3.0084-.34a12.3542,12.3542,0,1,0,13.6623-10.91Z"/><path class="cls-2" d="M49.1508,66.1305A29.7155,29.7155,0,0,1,28.1831,15.412,29.6816,29.6816,0,1,1,60.694,63.7945,29.4212,29.4212,0,0,1,49.1508,66.1305Zm0-53.1076A23.3975,23.3975,0,1,0,72.5032,36.42,23.4013,23.4013,0,0,0,49.1508,13.0229Z"/><path class="cls-1" d="M96.2749,59.818V66.13H80.0829a53.6,53.6,0,0,0,2.63-6.3122Z"/><path class="cls-1" d="M82.7125,59.818a53.6,53.6,0,0,1-2.63,6.3122H33.4272V59.818Z"/><polygon class="cls-1" points="104.573 62.943 95.44 55.889 95.44 69.997 104.573 62.943"/><rect class="cls-3" x="10.5659" y="59.8175" width="38.5846" height="6.313"/><rect class="cls-4" x="32.6814" y="26.0859" width="7.2632" height="0.7451"/><rect class="cls-4" x="41.9772" y="31.6966" width="5.244" height="0.7451"/><rect class="cls-5" x="48.0382" y="31.6966" width="3.4799" height="0.7451"/><rect class="cls-5" x="55.1478" y="54.2221" width="3.4799" height="0.7451"/><rect class="cls-5" x="32.7638" y="45.8061" width="3.4799" height="0.7451"/><rect class="cls-4" x="52.2056" y="31.6966" width="8.402" height="0.7451"/><rect class="cls-4" x="32.7638" y="42.9801" width="5.3989" height="0.7451"/><rect class="cls-4" x="47.2706" y="48.6115" width="5.3989" height="0.7451"/><rect class="cls-4" x="40.2896" y="48.6115" width="3.2958" height="0.7451"/><rect class="cls-5" x="32.7638" y="48.6115" width="6.5299" height="0.7451"/><rect class="cls-4" x="32.7638" y="51.4168" width="3.6017" height="0.7451"/><rect class="cls-6" x="41.3575" y="26.0859" width="5.1561" height="0.7451"/><rect class="cls-5" x="41.3575" y="34.5019" width="5.1561" height="0.7451"/><rect class="cls-4" x="38.7795" y="37.3073" width="2.203" height="0.7451"/><rect class="cls-6" x="36.5764" y="40.154" width="4.9484" height="0.7451"/><rect class="cls-5" x="42.2729" y="40.154" width="6.8312" height="0.7451"/><rect class="cls-5" x="32.7638" y="37.328" width="5.1561" height="0.7451"/><rect class="cls-5" x="32.7638" y="40.154" width="3.0594" height="0.7451"/><rect class="cls-7" x="42.0212" y="37.328" width="2.8863" height="0.7451"/><rect class="cls-7" x="32.8503" y="54.2221" width="2.8863" height="0.7451"/><rect class="cls-6" x="32.7431" y="31.6966" width="5.1561" height="0.7451"/><rect class="cls-6" x="37.3029" y="45.8061" width="5.1561" height="0.7451"/><rect class="cls-6" x="37.3665" y="51.4168" width="5.1561" height="0.7451"/><rect class="cls-6" x="46.526" y="51.4168" width="5.1561" height="0.7451"/><rect class="cls-6" x="32.7431" y="34.5019" width="7.3501" height="0.7451"/><rect class="cls-6" x="48.8177" y="54.2221" width="5.1561" height="0.7451"/><rect class="cls-5" x="47.9018" y="26.0859" width="6.5691" height="0.7451"/><rect class="cls-5" x="36.8263" y="54.2221" width="6.5691" height="0.7451"/><rect class="cls-5" x="59.7323" y="54.2221" width="6.5691" height="0.7451"/><rect class="cls-5" x="58.7212" y="48.6115" width="6.5691" height="0.7451"/><rect class="cls-5" x="56.8878" y="34.5019" width="6.5691" height="0.7451"/><rect class="cls-7" x="44.6173" y="48.6115" width="1.4161" height="0.7451"/><rect class="cls-7" x="59.3295" y="26.0859" width="6.5691" height="0.7451"/><rect class="cls-7" x="51.8338" y="34.5019" width="3.8518" height="0.7451"/><rect class="cls-7" x="48.8177" y="45.8475" width="3.8518" height="0.7451"/><rect class="cls-4" x="55.6855" y="26.0859" width="2.4045" height="0.7451"/><rect class="cls-4" x="47.9018" y="34.5019" width="2.4045" height="0.7451"/><rect class="cls-5" x="32.6814" y="28.8913" width="3.7617" height="0.7451"/><rect class="cls-5" x="42.7184" y="43.0008" width="2.9701" height="0.7451"/><rect class="cls-5" x="37.3665" y="28.8913" width="1.2147" height="0.7451"/><rect class="cls-4" x="52.6695" y="51.4168" width="10.0395" height="0.7451"/><rect class="cls-7" x="39.4735" y="28.8913" width="1.2395" height="0.7451"/><rect class="cls-5" x="58.0901" y="28.8913" width="3.2845" height="0.7451"/><rect class="cls-7" x="61.3746" y="31.6966" width="3.2845" height="0.7451"/><rect class="cls-7" x="54.0433" y="48.6115" width="3.2845" height="0.7451"/><rect class="cls-7" x="44.4851" y="54.2221" width="3.2845" height="0.7451"/><rect class="cls-5" x="50.232" y="28.8913" width="6.9886" height="0.7451"/><rect class="cls-5" x="43.7269" y="45.8475" width="4.0831" height="0.7451"/><rect class="cls-5" x="43.4643" y="51.4168" width="2.0415" height="0.7451"/><rect class="cls-6" x="46.8359" y="28.8913" width="2.4045" height="0.7451"/><rect class="cls-7" x="38.7423" y="31.6966" width="2.4045" height="0.7451"/><rect class="cls-7" x="39.2215" y="43.0008" width="2.4045" height="0.7451"/><rect class="cls-5" x="41.7293" y="28.8913" width="4.1893" height="0.7451"/><path class="cls-8" d="M31.761,57.129l-.0032,0C31.7712,57.1346,31.7731,57.1351,31.761,57.129Z"/><polygon class="cls-9" points="61.557 20.02 62.751 20.02 62.385 19.261 61.192 19.261 61.557 20.02"/><polygon class="cls-10" points="60.998 20.02 61.283 20.02 60.917 19.261 60.633 19.261 60.998 20.02"/><polygon class="cls-11" points="56.875 19.116 61.708 19.116 61.547 18.737 56.714 18.737 56.875 19.116"/><rect class="cls-12" x="80.7974" y="38.7835" width="3.8014" height="0.267" transform="translate(165.3961 77.8341) rotate(180)"/><rect class="cls-12" x="80.7974" y="39.2867" width="3.8014" height="1.1225" transform="translate(165.3961 79.6959) rotate(180)"/><rect class="cls-12" x="79.0117" y="40.7866" width="2.2426" height="0.1677" transform="translate(160.266 81.741) rotate(180)"/><rect class="cls-12" x="79.0117" y="41.0277" width="2.2426" height="0.4543" transform="translate(160.266 82.5097) rotate(180)"/><rect class="cls-12" x="80.1486" y="37.0693" width="0.1674" height="3.145" transform="translate(160.4646 77.2836) rotate(180)"/><rect class="cls-13" x="32.1333" y="15.6402" width="2.9943" height="0.5435" transform="translate(67.2609 31.8238) rotate(180)"/><rect class="cls-13" x="32.1333" y="15.3865" width="2.9943" height="0.1023" transform="translate(67.2609 30.8753) rotate(180)"/><polygon class="cls-7" points="61.824 26.348 65.713 22.452 81.689 22.452 81.689 22.253 65.631 22.253 61.684 26.208 61.824 26.348"/><polygon class="cls-6" points="37.11 35.253 37.251 35.113 29.819 27.667 15.755 27.667 15.755 27.866 29.737 27.866 37.11 35.253"/><polygon class="cls-5" points="51.918 26.297 52.058 26.156 45.786 19.872 36.965 19.872 36.965 20.071 45.704 20.071 51.918 26.297"/><rect class="cls-14" x="73.0221" y="17.1159" width="1.4104" height="4.2921"/><path class="cls-15" d="M71.6975,10.5754h4.06a4.0593,4.0593,0,0,1,4.0593,4.0593v.4892a4.06,4.06,0,0,1-4.06,4.06h-4.06a4.06,4.06,0,0,1-4.06-4.06V14.635a4.06,4.06,0,0,1,4.06-4.06Z"/><rect class="cls-13" x="68.1148" y="11.0666" width="11.2248" height="6.7679"/><rect class="cls-15" x="70.5547" y="21.246" width="6.3451" height="0.324" transform="translate(147.4545 42.816) rotate(180)"/><rect class="cls-16" x="75.1363" y="13.1206" width="3.6076" height="4.1786" transform="translate(153.8803 30.4197) rotate(180)"/><rect class="cls-16" x="70.8618" y="13.1206" width="3.717" height="0.5209" transform="translate(145.4406 26.762) rotate(180)"/><rect class="cls-16" x="70.8618" y="14.1901" width="3.717" height="0.5209" transform="translate(145.4406 28.9011) rotate(180)"/><rect class="cls-16" x="70.8618" y="15.1504" width="3.717" height="2.1487" transform="translate(145.4406 32.4496) rotate(180)"/><rect class="cls-16" x="68.7594" y="13.0017" width="1.5771" height="4.2975" transform="translate(139.0958 30.3009) rotate(180)"/><rect class="cls-16" x="68.796" y="11.5877" width="9.9846" height="1.0731" transform="translate(147.5767 24.2486) rotate(180)"/><path class="cls-15" d="M40.2886,10.1808H42.35a2.061,2.061,0,0,1,2.061,2.061v4.6361A2.0611,2.0611,0,0,1,42.35,18.9389H40.2886a2.0611,2.0611,0,0,1-2.0611-2.0611V12.2418a2.061,2.061,0,0,1,2.061-2.061Z" transform="translate(82.6383 29.1197) rotate(180)"/><rect class="cls-13" x="38.5693" y="10.5856" width="5.4998" height="7.1876" transform="translate(82.6383 28.3589) rotate(180)"/><rect class="cls-16" x="38.9389" y="11.1025" width="4.7866" height="0.9568" transform="translate(82.6644 23.1618) rotate(180)"/><rect class="cls-16" x="41.7553" y="12.4303" width="1.9702" height="4.6899" transform="translate(85.4808 29.5504) rotate(180)"/><rect class="cls-16" x="38.9389" y="12.4303" width="2.4505" height="0.5432" transform="translate(80.3282 25.4037) rotate(180)"/><rect class="cls-16" x="38.9389" y="13.3692" width="2.4505" height="0.5432" transform="translate(80.3282 27.2816) rotate(180)"/><rect class="cls-16" x="38.9389" y="14.3082" width="2.4505" height="0.5432" transform="translate(80.3282 29.1595) rotate(180)"/><rect class="cls-16" x="38.9389" y="15.2471" width="2.4505" height="1.873" transform="translate(80.3282 32.3672) rotate(180)"/><path class="cls-14" d="M17.9826,19.9114h9.6389a0,0,0,0,1,0,0V23.256a3.2129,3.2129,0,0,1-3.2129,3.2129h-3.213a3.213,3.213,0,0,1-3.213-3.213V19.9114A0,0,0,0,1,17.9826,19.9114Z" transform="translate(45.604 46.3803) rotate(180)"/><rect class="cls-13" x="18.2516" y="20.2604" width="9.1009" height="5.8595" transform="translate(45.604 46.3803) rotate(180)"/><path class="cls-15" d="M17.9995,26.469h9.6051a.4818.4818,0,0,1,.4818.4818v0a0,0,0,0,1,0,0H17.5177a0,0,0,0,1,0,0v0A.4818.4818,0,0,1,17.9995,26.469Z" transform="translate(45.604 53.4197) rotate(180)"/><rect class="cls-16" x="18.6322" y="20.6862" width="8.3303" height="0.8148" transform="translate(45.5946 42.1872) rotate(180)"/><rect class="cls-16" x="24.1064" y="21.9613" width="2.8561" height="3.7328" transform="translate(51.0688 47.6553) rotate(180)"/><rect class="cls-16" x="20.8843" y="21.9613" width="2.8561" height="3.7328" transform="translate(44.6247 47.6553) rotate(180)"/><rect class="cls-16" x="18.6322" y="21.9613" width="1.7416" height="0.5334" transform="translate(39.006 44.4559) rotate(180)"/><rect class="cls-16" x="18.6322" y="22.7858" width="1.7416" height="0.5334" transform="translate(39.006 46.105) rotate(180)"/><rect class="cls-16" x="18.6322" y="23.6104" width="1.7416" height="2.0837" transform="translate(39.006 49.3045) rotate(180)"/><polygon class="cls-13" points="21.633 35.863 19.488 34.622 19.488 35.44 16.299 35.44 16.299 36.286 19.488 36.286 19.488 37.104 21.633 35.863"/><polygon class="cls-13" points="16.299 33.141 18.444 34.382 18.444 33.564 21.633 33.564 21.633 32.718 18.444 32.718 18.444 31.9 16.299 33.141"/><polygon class="cls-13" points="52.978 18.18 51.37 17.25 51.37 17.863 48.98 17.863 48.98 18.496 51.37 18.496 51.37 19.11 52.978 18.18"/><polygon class="cls-13" points="48.98 16.14 50.588 17.07 50.588 16.457 52.978 16.457 52.978 15.823 50.588 15.823 50.588 15.21 48.98 16.14"/><path class="cls-13" d="M74.6952,32.9409a.9758.9758,0,0,1-.5647-.2277.734.734,0,0,1-.2685-.56,4.4593,4.4593,0,0,0-.266-1.1434,1.9634,1.9634,0,1,1,2.3531.07,4.2437,4.2437,0,0,0-.2614,1.0862.859.859,0,0,1-.9181.7788C74.7446,32.9438,74.72,32.9427,74.6952,32.9409Zm.26-5.2713a1.8067,1.8067,0,0,0-1.2424,3.2273l.0182.0141.0079.0216a4.6483,4.6483,0,0,1,.2835,1.212v.0061a.5751.5751,0,0,0,.2126.4405.826.826,0,0,0,.5355.1918.6991.6991,0,0,0,.7564-.6221v-.0031l0-.0031a4.4252,4.4252,0,0,1,.28-1.1555l.0089-.0239.021-.0145a1.8068,1.8068,0,0,0-.8819-3.2912Z"/><polygon class="cls-13" points="74.331 32.27 74.074 30.126 74.52 30.496 74.797 30.188 75.036 30.477 75.453 30.123 75.199 32.27 75.04 32.251 75.245 30.51 75.016 30.705 74.792 30.434 74.536 30.718 74.281 30.507 74.491 32.251 74.331 32.27"/><rect class="cls-13" x="74.4865" y="32.3325" width="0.5623" height="1.3926" transform="translate(41.2379 107.5732) rotate(-89.6155)"/><rect class="cls-13" x="74.3178" y="31.7056" width="0.9051" height="1.8405" transform="translate(41.6419 107.1749) rotate(-89.6142)"/></svg>