<?xml version="1.0" encoding="utf-8"?>
<!-- Generator: Adobe Illustrator 22.0.1, SVG Export Plug-In . SVG Version: 6.00 Build 0)  -->
<svg version="1.1" id="Layer_1" xmlns="http://www.w3.org/2000/svg" xmlns:xlink="http://www.w3.org/1999/xlink" x="0px" y="0px"
	 viewBox="0 0 200 142" style="enable-background:new 0 0 200 142;" xml:space="preserve">
<style type="text/css">
	.st0{fill:#31378C;}
	.st1{fill:#F22A0C;}
</style>
<g transform="translate(0.000000,142.000000) scale(0.100000,-0.100000)">
	<path class="st0" d="M541,1104c-21-15-23-22-17-62c6-46,27-71,59-72c12,0,1-16-39-56c-30-31-56-54-57-52c-1,1-17,23-36,47
		c-29,37-32,47-23,62c17,27,15,39-7,39c-29,0-34-32-17-102c27-105,77-127,176-78l35,18l47-44c44-41,51-44,100-44c29,0,63,3,76,6
		c22,6,20,9-29,53c-47,42-52,51-53,90c-1,42,0,43,45,60l46,18l36-79c28-61,40-78,56-78c26,0,28,27,2,35c-16,5-21,19-26,73
		c-11,104-14,106-102,99c-50-4-86-13-110-27c-35-21-38-21-50-4c-7,10-13,29-13,44C640,1110,589,1137,541,1104z"/>
	<path class="st1" d="M1275,933c-11-2-67-13-125-24c-145-28-184-39-174-49c5-4,68,5,139,21c72,15,163,31,203,35c39,4,72,11,72,15
		C1390,940,1313,941,1275,933z"/>
	<path class="st1" d="M1340,849c-30-5-111-23-181-39c-202-48-288-62-380-64c-60-1-91,3-103,13c-9,8-20,11-24,7c-12-12,28-35,72-41
		c61-10,247,18,446,65c152,36,186,41,265,38c109-4,159-26,242-106c57-54,78-62,49-18c-21,34-111,101-166,125
		C1504,853,1412,862,1340,849z"/>
	<path class="st1" d="M855,843c-33-8-42-23-13-23c35,0,59,10,52,21C889,850,887,851,855,843z"/>
	<path class="st0" d="M606,697c-32-19-56-45-56-59c0-15,79-95,123-124c23-15,66-50,95-78c45-44,52-48,52-28c0,12-5,32-12,45
		c-6,12-14,29-18,37s-16,17-28,20c-11,3-39,30-60,60l-40,55h74h74l21-63c15-46,28-66,48-77c15-7,34-21,42-31c8-9,51-48,96-86
		c64-53,85-77,94-108c7-22,15-40,18-40c4,0,6,30,6,68c0,63-2,67-22,65c-18-2-28,9-52,60c-35,73-55,94-108,112l-38,13l3,51
		c2,28,1,68-3,88l-6,38H773C659,715,632,712,606,697z"/>
</g>
</svg>
