<?xml version="1.0" encoding="utf-8"?>
<!-- Generator: Adobe Illustrator 22.0.1, SVG Export Plug-In . SVG Version: 6.00 Build 0)  -->
<svg version="1.1" id="Layer_1" xmlns="http://www.w3.org/2000/svg" xmlns:xlink="http://www.w3.org/1999/xlink" x="0px" y="0px"
	 viewBox="0 0 200 200" enable-background="new 0 0 200 200" xml:space="preserve">
<g transform="translate(0.000000,200.000000) scale(0.100000,-0.100000)">
	<path fill="#95945A" d="M910,1889c-178-27-357-122-476-251c-36-39-49-46-92-51c-143-17-252-152-239-297c6-66,37-133,82-175
		c29-28,32-37,38-110c7-101,28-180,73-274c84-180,206-301,389-388c66-31,77-40,94-78c10-23,35-59,56-80c133-132,348-99,440,68
		c30,54,38,61,122,103c106,52,202,129,268,213l47,60l51-34c28-19,53-32,55-30c6,6,33,488,27,493c-3,3-430-212-443-224
		c-2-1,21-19,52-40c31-20,56-41,56-47c0-20-137-143-191-171l-57-30l-46,41c-110,97-262,97-372,0l-46-41l-57,29
		c-123,65-237,214-276,361c-24,91-21,101,29,125c140,65,201,230,136,368l-24,53l44,39c59,51,160,103,236,123c127,33,290,16,404-42
		l55-28l-3-69c-10-205,166-355,351-301c153,45,237,197,193,351c-22,74-97,153-170,178c-54,19-131,22-169,8c-19-7-32-3-68,21
		C1329,1865,1095,1917,910,1889z M1675,1649c89-25,148-127,125-217c-23-92-87-142-181-142c-159,0-241,184-135,305
		c30,35,89,64,131,65C1626,1660,1653,1655,1675,1649z M455,1481c55-25,85-61,101-120c19-73,2-131-53-183c-100-95-270-44-303,92
		C164,1419,317,1545,455,1481z M1105,551c141-63,149-263,15-331c-125-64-270,22-272,158C847,517,982,607,1105,551z"/>
	<path fill="#E73346" d="M1520,1575c-11-14-8-21,25-55l39-40l-37-38c-40-41-44-51-25-70c9-9,22-3,55,30l43,42l40-39
		c36-35,42-38,55-24c13,13,11,19-25,54l-40,39l42,43c40,41,41,44,24,61c-17,16-19,15-57-28l-39-45l-43,43
		C1538,1586,1532,1589,1520,1575z"/>
	<path fill="#76EA61" d="M420,1345l-64-65l-38,37c-36,35-39,36-55,20s-14-20,32-67c27-27,54-50,60-50s45,35,88,78c74,75,77,79,59,95
		C485,1409,481,1406,420,1345z"/>
	<path fill="#6691DE" d="M890,460c0-6,43-10,110-10s110,4,110,10s-43,10-110,10S890,466,890,460z"/>
	<path fill="#6691DE" d="M930,420c0-6,37-10,90-10s90,4,90,10s-37,10-90,10S930,426,930,420z"/>
	<path fill="#6691DE" d="M1126,405c4-17,11-36,17-43c5-7,10-27,9-45c-1-29,1-30,13-14c16,23,1,88-27,114C1119,434,1119,434,1126,405
		z"/>
	<path fill="#6691DE" d="M890,380c0-6,40-10,100-10s100,4,100,10s-40,10-100,10S890,386,890,380z"/>
	<path fill="#6691DE" d="M890,340c0-5,14-10,30-10c17,0,30,5,30,10c0,6-13,10-30,10C904,350,890,346,890,340z"/>
	<path fill="#6691DE" d="M970,340c0-6,33-10,80-10s80,4,80,10s-33,10-80,10S970,346,970,340z"/>
	<path fill="#6691DE" d="M930,300c0-6,40-10,100-10s100,4,100,10s-40,10-100,10S930,306,930,300z"/>
	<path fill="#6691DE" d="M970,260c0-6,33-10,80-10s80,4,80,10s-33,10-80,10S970,266,970,260z"/>
</g>
</svg>
