<?xml version="1.0" encoding="utf-8"?>
<!-- Generator: Adobe Illustrator 22.0.1, SVG Export Plug-In . SVG Version: 6.00 Build 0)  -->
<svg version="1.1" id="Layer_1" xmlns="http://www.w3.org/2000/svg" xmlns:xlink="http://www.w3.org/1999/xlink" x="0px" y="0px"
	 viewBox="0 0 1280 1024" enable-background="new 0 0 1280 1024" xml:space="preserve">
<g>
	<rect x="80.5" y="441.5" fill="#B9FF6E" width="328" height="220"/>
	<path d="M408,442v219H81V442H408 M409,441H80v221h329V441L409,441z"/>
</g>
<g>
	<rect x="484.5" y="197.5" fill="#CC1432" width="328" height="193"/>
	<path d="M812,198v192H485v-67.58331V269v-71H812 M813,197H484v72v53.41669V391h329V197L813,197z"/>
</g>
<g>
	<rect x="484.5" y="727.5" fill="#CC1432" width="345" height="180"/>
	<path d="M829,728v179H485V728H829 M830,727H484v181h346V727L830,727z"/>
</g>
<g>
	<rect x="901.5" y="27.5" fill="#4D98FF" width="336" height="170"/>
	<path d="M1237,28v169H902V28H1237 M1238,27H901v171h337V27L1238,27z"/>
</g>
<g>
	<rect x="901.5" y="471.5" fill="#4D98FF" width="336" height="177"/>
	<path d="M1237,472v176H902V472H1237 M1238,471H901v178h337V471L1238,471z"/>
</g>
<g>
	<g>
		<path fill="#FFFFFF" d="M484.50049,276.5c-0.00977,0-0.01953,0-0.02979,0l-239-1c-3.86572-0.01611-6.98682-3.16309-6.9707-7.0293
			c0.01611-3.85596,3.14746-6.9707,6.99951-6.9707c0.00977,0,0.01953,0,0.02979,0l239,1
			c3.86572,0.01611,6.98682,3.16309,6.9707,7.0293C491.48389,273.38525,488.35254,276.5,484.50049,276.5z"/>
		<line fill="none" stroke="#000000" stroke-width="6" stroke-miterlimit="10" x1="245.5" y1="268.5" x2="484.5" y2="269.5"/>
	</g>
</g>
<g>
	<path fill="#FFFFFF" d="M269.50195,448.5c-0.03223,0-0.06445,0-0.09717-0.00049c-3.86572-0.05273-6.95654-3.229-6.9043-7.09473
		l2-147c0.05225-3.83301,3.17627-6.90479,6.99756-6.90479c0.03223,0,0.06445,0,0.09717,0.00049
		c3.86572,0.05273,6.95654,3.229,6.9043,7.09473l-2,147C276.44727,445.42822,273.32324,448.5,269.50195,448.5z"/>
	
		<line fill="none" stroke="#000000" stroke-width="6" stroke-miterlimit="10" x1="269.50012" y1="441.5" x2="271.50012" y2="294.5"/>
</g>
<g>
	<path fill="#FFFFFF" d="M270.5,824.5c-3.86621,0-7-3.13379-7-7v-156c0-3.86621,3.13379-7,7-7s7,3.13379,7,7v156
		C277.5,821.36621,274.36621,824.5,270.5,824.5z"/>
	<line fill="none" stroke="#000000" stroke-width="6" stroke-miterlimit="10" x1="270.5" y1="661.5" x2="270.5" y2="817.5"/>
</g>
<g>
	<path fill="#FFFFFF" d="M484.5,824.5h-214c-3.86621,0-7-3.13379-7-7s3.13379-7,7-7h214c3.86621,0,7,3.13379,7,7
		S488.36621,824.5,484.5,824.5z"/>
	<line fill="none" stroke="#000000" stroke-width="6" stroke-miterlimit="10" x1="484.5" y1="817.5" x2="270.5" y2="817.5"/>
</g>
<g>
	<path fill="#FFFFFF" d="M484.5,301.5h-213c-3.86621,0-7-3.13379-7-7s3.13379-7,7-7h213c3.86621,0,7,3.13379,7,7
		S488.36621,301.5,484.5,301.5z"/>
	<line fill="none" stroke="#000000" stroke-width="6" stroke-miterlimit="10" x1="484.5" y1="294.5" x2="271.5" y2="294.5"/>
</g>
<g>
	<path fill="#FFFFFF" d="M245.49854,854.5c-3.8291,0-6.9541-3.08105-6.99805-6.91992l-2-175
		c-0.04443-3.86621,3.05371-7.03516,6.91943-7.08008c0.02734,0,0.05469,0,0.08154,0c3.8291,0,6.9541,3.08105,6.99805,6.91992l2,175
		c0.04443,3.86621-3.05371,7.03516-6.91943,7.08008C245.55273,854.5,245.52539,854.5,245.49854,854.5z"/>
	<line fill="none" stroke="#000000" stroke-width="6" stroke-miterlimit="10" x1="243.5" y1="672.5" x2="245.5" y2="847.5"/>
</g>
<g>
	<path fill="#FFFFFF" d="M245.49756,854.5c-3.81152,0-6.93262-3.05762-6.99658-6.88281
		c-0.06445-3.86523,3.0166-7.05176,6.88184-7.11621l239-4C484.42285,836.5,484.4624,836.5,484.50244,836.5
		c3.81152,0,6.93262,3.05762,6.99658,6.88281c0.06445,3.86523-3.0166,7.05176-6.88184,7.11621l-239,4
		C245.57715,854.5,245.5376,854.5,245.49756,854.5z"/>
	<line fill="none" stroke="#000000" stroke-width="6" stroke-miterlimit="10" x1="484.5" y1="843.5" x2="245.5" y2="847.5"/>
</g>
<g>
	<path fill="#FFFFFF" d="M648.5,204.5c-3.86621,0-7-3.13379-7-7v-96c0-3.86621,3.13379-7,7-7s7,3.13379,7,7v96
		C655.5,201.36621,652.36621,204.5,648.5,204.5z"/>
	<line fill="none" stroke="#000000" stroke-width="6" stroke-miterlimit="10" x1="648.5" y1="197.5" x2="648.5" y2="101.5"/>
</g>
<g>
	<path fill="#FFFFFF" d="M900.5,108.5h-252c-3.86621,0-7-3.13379-7-7s3.13379-7,7-7h252c3.86621,0,7,3.13379,7,7
		S904.36621,108.5,900.5,108.5z"/>
	<line fill="none" stroke="#000000" stroke-width="6" stroke-miterlimit="10" x1="900.5" y1="101.5" x2="648.5" y2="101.5"/>
</g>
<g>
	<path fill="#FFFFFF" d="M673.5,204.5c-3.86621,0-7-3.13379-7-7v-75c0-3.86621,3.13379-7,7-7s7,3.13379,7,7v75
		C680.5,201.36621,677.36621,204.5,673.5,204.5z"/>
	<line fill="none" stroke="#000000" stroke-width="6" stroke-miterlimit="10" x1="673.5" y1="197.5" x2="673.5" y2="122.5"/>
</g>
<g>
	<path fill="#FFFFFF" d="M900.5,129.5h-227c-3.86621,0-7-3.13379-7-7s3.13379-7,7-7h227c3.86621,0,7,3.13379,7,7
		S904.36621,129.5,900.5,129.5z"/>
	<line fill="none" stroke="#000000" stroke-width="6" stroke-miterlimit="10" x1="900.5" y1="122.5" x2="673.5" y2="122.5"/>
</g>
<g>
	<path fill="#FFF5F8" d="M673.5,558.5c-3.86621,0-7-3.13379-7-7v-160c0-3.86621,3.13379-7,7-7s7,3.13379,7,7v160
		C680.5,555.36621,677.36621,558.5,673.5,558.5z"/>
	<line fill="none" stroke="#000000" stroke-width="6" stroke-miterlimit="10" x1="673.5" y1="391.5" x2="673.5" y2="551.5"/>
</g>
<g>
	<path fill="#FFF5F8" d="M900.5,558.5h-227c-3.86621,0-7-3.13379-7-7s3.13379-7,7-7h227c3.86621,0,7,3.13379,7,7
		S904.36621,558.5,900.5,558.5z"/>
	<line fill="none" stroke="#000000" stroke-width="6" stroke-miterlimit="10" x1="900.5" y1="551.5" x2="673.5" y2="551.5"/>
</g>
<g>
	<path fill="#FFF5F8" d="M648.5,581.5c-3.86621,0-7-3.13379-7-7v-183c0-3.86621,3.13379-7,7-7s7,3.13379,7,7v183
		C655.5,578.36621,652.36621,581.5,648.5,581.5z"/>
	<line fill="none" stroke="#000000" stroke-width="6" stroke-miterlimit="10" x1="648.5" y1="391.5" x2="648.5" y2="574.5"/>
</g>
<g>
	<path fill="#FFF5F8" d="M900.5,581.5h-252c-3.86621,0-7-3.13379-7-7s3.13379-7,7-7h252c3.86621,0,7,3.13379,7,7
		S904.36621,581.5,900.5,581.5z"/>
	<line fill="none" stroke="#000000" stroke-width="6" stroke-miterlimit="10" x1="900.5" y1="574.5" x2="648.5" y2="574.5"/>
</g>
<g>
	<path fill="#FFFFFF" d="M243.50146,448c-0.02734,0-0.05469,0-0.08252-0.00049c-3.86572-0.04492-6.96338-3.21484-6.91846-7.08057
		l2-172.5c0.04443-3.83789,3.16992-6.91895,6.99805-6.91895c0.02734,0,0.05469,0,0.08252,0.00049
		c3.86572,0.04492,6.96338,3.21484,6.91846,7.08057l-2,172.5C250.45508,444.91895,247.32959,448,243.50146,448z"/>
	<line fill="none" stroke="#000000" stroke-width="6" stroke-miterlimit="10" x1="245.5" y1="268.5" x2="243.5" y2="441"/>
</g>
</svg>
